M48
;Layer_Color=9474304
;FILE_FORMAT=2:5
INCH,LZ
;TYPE=PLATED
T1F00S00C0.00394
T2F00S00C0.00591
;TYPE=NON_PLATED
%
T01
X0059577Y0045604
X00621Y00485
X0051013Y013594
X0048235Y0135662
Y0138362
X00489Y0146625
Y0149
X0047325
X004575
Y0150575
Y015215
Y0153724
X0047325
X00489
X0050475
Y015215
Y0150575
Y0149
X0043613Y0164562
X0041213
X0040641Y0162891
X0039313Y0161762
X0038813Y0164562
X0036413
Y0168262
X0038813
X0043613Y0168262
X0046013
T02
X00461Y00091
X0049213Y0020669
X0052165Y0022638
X00636Y00246
X00714Y00314
X00764Y00375
X007634Y00524
X00702Y00543
X00653Y00549
X00678Y00586
X00617Y00599
X00616Y00653
X00699Y00651
X00547Y006328
Y00614
X00514Y00503
X00437Y00431
X00457Y0037973
X00382Y00314
X0021Y00348
X00257Y00509
X00395Y00533
X0024012Y0066
X00212Y00968
X00213Y0102
X0043Y01029
X00528Y01054
X00504Y00978
X00552Y0097
X00583Y00989
X0060532Y0087508
X0064468Y0079823
X0076279Y0083563
X0078244Y0085
X0081228
X0079736Y00834
X00828
X00844Y0085
X01012Y00842
X01101
X01152Y00987
X0118
X01388Y00948
X01426Y00973
X01384Y0104108
X0151283Y0094685
Y0092717
Y0090748
X0144587Y0051378
X0144583Y0048527
X0142Y00455
X0135768Y00485
X01372Y00583
X0136621Y0032803
X0134243Y003282
X0134982Y0028754
X01329Y0029
X0130826Y0028387
X01291Y00308
X0128049Y0026749
X0132126Y0024487
X013276Y00222
X01328Y00197
X0141081Y0018548
Y0020926
Y0023304
Y0025682
Y002806
X0140519Y003037
X0138895Y0032107
X0141081Y001617
Y0013792
Y0011414
X0140498Y0009109
X01271Y00082
X0122226Y0009587
X0122926Y0011387
X0120326Y0004087
X0125226Y0003787
X0117368Y0046
Y00485
Y0051
X01021Y00486
X00987Y0056139
X00959Y00558
X0099Y00618
X01006Y00605
X00859Y00539
X0072146Y0094252
X00765Y00988
Y01008
Y01028
X00927
X00481Y00834
X00158Y00918
X00152Y0132
X00159Y01343
X00165Y01371
X00174Y01395
X00209Y01411
X0020264Y01331
X0028Y01343
X00308Y01254
X0043Y01265
X00441Y01422
X0046913Y0142062
X00469Y01401
X00703Y0141
Y01429
X00695Y0146
X00694Y01542
X00807Y01529
X0078442Y0149687
X00789Y01434
X0083838Y0143316
X0086287Y0143417
X0085913Y0148087
X0087862Y0147862
Y0149938
X0092558Y0148113
X0092Y01542
Y01589
X00888Y01587
X0086724Y0164028
X0086559Y0168651
X00898Y0171
X0090309Y0176151
X00937Y0176
X00941Y01687
X0094992Y0163979
X00994Y01657
X01031Y01673
X01068Y01662
X01133
X01176Y01647
X01242Y01627
X0124059Y0153651
X01307Y0155
X01323Y01533
X0134Y01501
X01301Y01423
X01309Y01403
X01402Y0140331
X01404Y0138397
X0140808Y01365
X0141Y01593
X01414Y01637
X01382Y01675
X01382Y0178
X01414Y01848
X01403Y0192
X01138Y01929
X01087Y01713
X00988Y01716
X01033Y01607
X01009Y01558
X00969Y01569
X0096457Y0144882
X00991Y01418
X01004Y01402
X0103
X01048Y01452
X01157Y01451
X0116927Y0143673
X01169Y0146569
X01157Y0148037
X01169Y0149505
X0109059Y0153651
X01088Y01556
X01109Y01617
X01218Y01724
X01268Y01703
X01127Y01365
X0091974Y0129528
Y0126378
X00715Y01098
X00611Y01093
X00625Y01068
X00496Y01093
X00422Y01085
X00277Y01069
X00204Y01064
X00268Y0157
X00318Y01666
X00253Y01821
X0047Y01856
X00525Y01717
X00562Y01669
X0082809Y0161151
X01353Y01112
X0136Y01093
X0137896Y0109096
X01377Y01066
X0175009Y0150806
X01786Y0150805
M30
