M48
;Layer_Color=9474304
;FILE_FORMAT=2:5
INCH,LZ
;TYPE=PLATED
T2F00S00C0.00591
T3F00S00C0.01200
T5F00S00C0.03543
;TYPE=NON_PLATED
T6F00S00C0.03346
T7F00S00C0.03543
T8F00S00C0.04016
T9F00S00C0.11811
%
T02
X0019059Y0003651
X0026559
X0022809Y0011151
X0026559Y0018651
X00325Y00241
X0032082Y00321
X00261Y00316
X00258Y00381
X00277Y00407
X00264Y00451
X00272Y00496
X00262Y00536
X00284Y0056
X00302Y00572
X00327Y00573
X003585Y0058971
X0042487Y0058571
X0042487Y006487
X0042487Y0071169
Y0077469
X00345Y00755
X00342Y00794
X00341Y00857
X003585Y0085034
X00282Y00833
X00285Y00772
X00273Y00676
X00283Y00644
X0024909Y0063709
X0022831Y00608
X00209Y00613
X00211Y0070731
X0023819Y0070768
X0024016Y0085532
X00211Y0086
X00193Y00854
X00283Y00898
X00303Y00973
X00304Y00997
X0035Y0100023
X0038Y0099
X004Y00975
X00467Y00979
X00458Y00935
X00482Y00873
X00506Y00871
X0053551Y00875
X0054748Y0082456
X0059079
X0061047
X0056791Y0079921
X0056398Y0077469
X0057898Y0071169
X0057898Y006487
X00617Y00679
X0065772Y0071169
Y0077469
X0066437Y008002
X0076772Y0081595
X0075598Y0087898
X00647Y00916
X0062106Y0091437
X0062599Y0089567
X00635Y00962
X00618Y00971
X00622Y01002
X00641Y00993
X00667Y00949
X00597Y01025
X00568Y010227
X00551Y01032
X00754Y0105
X008052Y0077469
Y0071169
Y006487
X0073646
Y0071169
Y0058571
X0065772
X0059206Y0055754
X00573Y00557
X0053961Y0055618
X0057298Y0052272
X0057687Y0048313
X00582Y00426
X0062199Y00424
X0064121
X0066089
X0069Y00404
X00731
X00752
X00775Y00399
X00793Y00393
Y00374
X00792Y00354
X0079204Y0033437
X0084205Y0034216
X00869Y00334
Y00363
Y00382
X00922Y00393
X009432Y004045
X0093483Y0042218
X0095374Y0042421
X0099803Y0041339
X01013Y0039
X01Y0037
X0101559Y0033651
X0102126Y0032
X0104726
X0107226
X0109726
X0109059Y0033651
X0112226Y0032
X0114726
X0117226
Y00295
Y0027
Y00245
Y0022
Y00195
Y0017
Y00145
Y0012
Y00095
Y0007
Y00045
Y000241
X0128778Y0005267
X0130505Y0003632
X0132629Y0002564
X013496Y0002095
X0137338Y0002087
X0139716
X0142094
X0144472
X014685
X01499Y000211
X01487Y00039
X0147284Y0005739
X0144906
X0142528
X014015
X0137772
X0135394Y0005752
X01331Y0006378
X0131693Y0007382
X0132811Y0014002
X0129611Y0013904
X0127642
Y0015872
X0129611
X0130501Y0019514
X0128626
X0126751
X0124326Y0019487
X0122426Y0017565
X0122446Y002153
X0122726Y0023401
Y0026845
X0121526Y0028987
X0127642Y0024974
Y00234
X0129611
Y0024974
X0132811Y0026845
X0137015Y002752
Y0025142
Y0022764
Y0020386
Y0018008
Y001563
X0146559Y0018651
X01499Y00195
Y0022
Y00245
Y0027
Y00295
Y0032
Y00345
Y0037
Y00395
Y0042
Y00445
Y0047
Y00495
Y0052
Y00545
Y0057
Y00595
Y0062
Y00645
Y0067
Y00695
Y0072
Y00745
Y0077
Y00795
Y0082
Y00845
X0146559Y0078651
X01395Y00795
Y0077
Y00745
Y0072
X0142809Y0071151
X013615Y007045
X0135591Y008189
X0133091
X0130591
X0128091
X0125591
X0123Y0082
X01232Y00846
X01215Y008
Y00775
Y0075
X0116559Y0078651
X01164Y00703
X01087
X0096331Y0071169
Y0077469
X00909Y00824
X0089394Y0071169
X0096331Y0052272
X0103893Y0053159
X0104Y00555
X01085Y00552
X01086Y0051
Y00485
Y0046
X01112Y00436
Y00381
X01034Y0044
X01Y00295
Y0027
Y00245
Y0022
Y00195
Y0017
X0099209Y00146
X0096909
X0095402Y0016743
X009532Y0019119
X0093652Y0021748
X0092578Y0023869
X0090604Y0025195
X008825Y0025531
X008583Y0025405
X00828Y00256
X0083858Y002874
X00856Y003
X00919Y00293
X00938Y00289
X00975Y00257
X0089054Y0021689
X0086693Y0021409
X0086559Y0018651
X0087391Y0016638
X0089173Y0015453
X0089665Y0018209
X0090945Y0013681
X00865Y00117
X0083822Y0013222
X00776Y00129
X0075984Y0016317
X0074114
X0072244
X0070374
X0070035Y0012917
X0069894Y0010976
X00735Y00083
X00722Y00024
X00772Y00041
X00899Y00024
Y00076
X0092809Y00083
X0094685Y0010236
X009721Y00103
X01Y0007
Y00045
X00999Y0002987
X00965Y00029
X0094059Y0003651
X00799Y00161
X0081373Y0021189
X00728Y00235
X0069509Y0023713
X0070655Y0034937
X0070665Y0036878
X0064935Y0036617
Y0034517
X0064634Y0031317
X0059Y0031
X0059236Y0028343
X0053108
X0055278Y00234
X0054978Y0015806
X00582Y00157
X00601Y00091
X0062698Y000993
X0052809Y0011151
X00489Y00251
X0052808Y0035543
X00506Y00427
X00438Y00406
Y00344
X0050024Y0058571
Y006487
X0050024Y0071169
X0050984Y0079921
X00648Y00496
X00667
X00723Y00489
X0071893Y0047013
X0073761Y0047113
X00759Y0048
X00775Y0047
X00791Y0048
X0080635Y0046913
X01255Y00445
Y004
X0131Y0039
Y00445
Y00515
X01265Y00513
X01263Y00542
X0127559Y0058661
X0142809Y0056151
X0146457Y0046063
X0145924Y0039687
X0142924Y0041187
X0137224Y0036287
X0131726Y0030787
X0146559Y0033651
X01499Y0017
Y00145
Y0012
Y00095
Y0007
X0126426Y0010487
X0124441Y0014002
X01312Y00843
X0138091Y008189
X01366Y00928
X0147Y00978
X01251Y01025
X0121752Y0101575
X01191Y01027
X0115256Y0106102
X01136Y00846
X0013386Y0081791
X0012205Y007687
Y0069784
Y0065059
X0003839Y0062303
X0003937Y00727
X0006299Y0083071
X0012598Y0097047
X0012573Y0099606
X00096Y00461
X00093Y004
X0011Y00316
X0004059Y0033651
Y0018651
X0004Y00113
X0004059Y0003651
X0011559
X0015Y00241
X0015309Y0026151
X0001673Y005187
X00031Y0117
X0007809Y0116151
X0015Y0118
X00149Y01279
X00073Y01303
X00028Y01335
X0004059Y0138651
X00027Y01423
X0004Y01497
X00042Y01606
X00096Y01607
X00153Y01597
X0015309Y0176151
X0007809
X0003Y01709
X0004059Y0183651
X0007809Y0191151
X0005Y0195
X0015
X00141Y01424
X00082Y01376
X0004059Y0123651
X00157Y01073
X00239Y01305
X0031355Y0142162
Y0147662
X0031055Y0151662
X00309Y01589
X00317Y01606
X00316Y01625
X00345Y01713
X00413Y01732
X00412Y01684
X00477Y01764
X0052809Y0176151
X00533Y01807
X0056559Y0183651
X005Y0183858
X00376Y01846
X0037809Y0191151
X00371Y01963
X00302Y01966
X0030309Y0191151
X00316Y01887
X00242Y01859
X0027Y01782
X0060309Y0176151
X00646Y01754
X0064059Y0168651
X0067809Y0161151
X0066Y01538
X00664Y01419
X00592Y014245
Y014075
X00573
X0057295Y014245
X00575Y01375
X00551Y01276
X00613Y01289
X00648Y01249
X00688Y01292
X00698Y0119
X00694Y01078
X00832Y01089
X0086559Y0108651
X00917Y01074
X0094074Y0117954
X0087303Y0124276
X0086803Y0129876
X0081528Y0130673
X00798Y01278
X0081603Y0123876
X0079851Y0120751
X00814Y01434
X00829Y01487
X00784Y01478
X00748Y01453
X0076946Y0159402
Y0169009
X00718Y01727
X00713Y01807
X00745Y01855
X00809Y01861
X00819Y0192
X0085Y0196
X0075
X0065
X0067809Y0191151
X00632Y01893
X0060309Y0191151
X0055Y0196
X0045
X0064059Y0183651
X00813Y01793
X008423Y0173812
Y0164206
X008433Y0154599
X009671Y0154206
X00966Y01478
X01012Y01438
X01243Y01442
X01237Y01406
X01302Y01443
X01267Y01494
X01386Y01514
X01385Y01547
X01438Y01559
X01499Y01585
X01408Y01617
X01344Y01642
X01307Y01643
X0124289Y0166371
X0120309Y0176151
X01272Y01776
X0124059Y0183651
X0128Y0186
X01303Y01875
X012845Y019205
X01225Y01926
X0125Y0196
X0134Y01968
X014Y0195
X01403Y0192
X0143Y01915
X01434Y01968
X01505Y01966
X01504Y01915
X0119Y0185
X01154Y01966
X0105Y01964
X0096181Y0196
X00936Y0189
X00938Y01843
X0092842Y0181263
X01001Y01797
X009671Y0174206
X00586Y01595
X00566
X0053894Y0158956
Y0160756
X00528Y01569
X0037438Y0147162
X0036738Y01397
X00398Y01401
X0041559Y0123651
X00445Y0118
X00422Y01124
X00357Y01195
X00518Y01193
X0105907Y0111811
X01123Y01068
X0121555Y0111811
X01258Y01318
X01354Y01335
X01424Y01289
X01499Y01295
Y0127
Y01245
Y0122
Y01195
Y0117
Y01145
Y0132
Y01345
T03
X014685Y0090059
Y0093405
T05
X0028543Y001437
X0036417
X0044291
Y0022244
X0036417Y0022244
X0028543
X00259Y0114
Y0124
X00359
Y0114
X00499
Y0124
X00599Y0124
Y0114
X00699Y0114
Y0124
X0106201Y0120472
X0114075
X0121949
X0129823
X0137697
Y0128346
X0129823Y0128347
X0121949
X0114075
X0106201
T06
X0012205Y0061417
X0012205Y0073228
T07
X0009744Y0142598
Y016937
T08
X000937Y0035728
Y0050728
T09
X001378Y001378
Y0185433
X0150709Y014685
M30
