M48
;Layer_Color=9474304
;FILE_FORMAT=2:5
INCH,LZ
;TYPE=PLATED
T1F00S00C0.00394
T2F00S00C0.00591
;TYPE=NON_PLATED
%
T01
X00567Y00166
X0062318Y0014
X0067312Y0019394
Y0020772
Y002215
Y0023528
X0065934Y0024905
X0067312Y0026283
X006869Y0027661
X006869Y0029039
X0070068
X0071446
X0072824
X0074202
X0075579
X0076957
Y0027661
Y0026283
Y0024906
Y0023528
Y0020758
X0075579Y0019394
X0074202Y0018016
X0070068Y0019394
X006869
X00647Y00226
X0063662Y0029943
X0067312Y0029039
X00827Y00302
X00863Y00316
X00841Y00386
X0080835Y0019517
X0079935Y0018317
X0083935Y0016417
X0075096Y0013015
X0124114Y0032382
X0037Y0047154
Y0049122
T02
X00404Y0017306
X0039394Y0033564
X0034571Y0035395
X0038724Y0044713
Y0053059
X0042487Y0052272
X0046087
X0050024
X0053961
X0053961Y0058571
X0057898
X0061835
X0061835Y006487
X0065772
X0069709
X0069709Y0071169
Y0077469
X0073646
X0077583
Y0071169
Y006487
Y0058571
X008152
X0085457
X0089394
X0093331
X0096331
Y006487
X0093331
X0089394
X0085457
X0085457Y0071169
Y0077469
X0093331
Y0071169
X0100693Y0070776
Y0072744
Y0076681
Y007865
X0104713Y0076552
X0107091
X0109469
X0111847
X0114221Y007642
X011653Y0075849
X0118677Y0074828
X0120578Y0073399
X0122259Y0071717
X0123949Y0070044
X012563Y0068362
X0127508
X0127794Y0063629
X0125416
X0123585Y0065148
X0121933Y0066857
X0120251Y0068539
X011857Y007022
X0116712Y0071704
X0114514Y0072613
X0112151Y0072873
X0109773
X0107395
X0105017
X0103893Y0071244
X01043Y0069
X0103693Y006537
X0106035Y00654
X01059Y00604
X0103693Y0060933
X0100693
Y006487
Y0066839
Y0053059
X0093331Y0052272
X0089394
X0085457Y0052672
X008152Y0052872
X0077583
X0073646
X0069709
Y0058571
X0061835Y0052272
X0058882Y0044713
X0051008
X00518Y00388
X0055Y00398
X00532Y00309
X0066756Y0044713
X0068731Y0044706
X00786Y00419
X0084772Y0042713
X0086672Y0042613
X0089461Y003988
X0090378Y0044713
X0096283
X0100693
X0119683Y0045506
Y0043128
Y004075
X0119901Y0038382
X01207Y0036142
X0121991Y0034145
X012687Y0034646
X0125218Y0036627
X0124056Y0038702
X012375Y004106
Y0043438
Y0045816
Y0048194
Y0050572
Y005295
Y0055328
Y0057706
X0123446Y0060065
X0122337Y0062168
X0120613Y0063806
X0118921Y0065477
X0119Y00602
X0119683Y0057396
Y0055018
Y005264
Y0050262
Y0047884
X01158Y00561
X0135762Y0056142
Y0053764
Y0051386
Y0049008
Y004663
Y0044252
Y0041875
X0135581Y0039503
X0137015Y0033063
Y0030685
X0143724Y0030787
Y0028287
X014165Y0027143
Y0024765
Y0019221
Y0016843
Y0014465
Y0012087
X0138756Y00115
X0136378
X0134
X01315Y0012
X0132Y0016
Y0018
X0134378Y0016
X0124126Y00161
X0124226Y0011487
X0124426Y0006987
X0122026Y0004887
X0119626Y0006987
X0120526Y0026487
X0124246Y0028687
X0128839Y0032579
X01325Y0033
X0128937Y0036614
X0143724Y0035787
X0143701Y0037795
X0143724Y0033287
X0146163Y0021654
X0139828Y0044767
Y0047145
Y0049523
Y0051901
Y0054279
Y0056657
Y0059035
X0139735Y0061411
X0139172Y0063722
X0138021Y0065802
X0136958Y006793
X0133929Y0067817
X0134907Y006314
X0135697Y0060897
X0135762Y005852
X01332Y00925
X0135937Y0106
X01499Y01045
Y0102
Y00995
Y0097
Y00945
Y0092
Y00895
Y0087
X01061Y0091
X0101Y0087411
X0100693Y0085028
X010391Y0083869
X0096284Y0085028
X0094315
X0092347
X0090378
X008841
X0086441
X0084472
X0082504
X0080535
X0083Y0087411
X007463Y0085028
X0064787
X0056913
X0049039
X0050394Y0077469
X0053961
Y0071169
Y006487
X0046087
Y0071169
Y0077469
X0038724Y0076681
Y0074713
Y0072744
Y0070776
Y0068807
Y006487
Y0058965
X0046087Y0058571
X0027287Y0060539
X0029158Y0068748
X0032701Y0070284
X0022244Y0073524
X00227Y00809
X0026894Y0091904
X0029453
X0034276Y0090067
X0038724Y0085028
X0061835Y0077469
Y0071169
X00778Y01002
X0095Y0087411
X00247Y01038
X00226Y0103077
X00054Y01058
X00055Y00918
X00133Y00483
X0015748Y0038052
X00162Y01096
X00143Y01105
X00141Y01221
X0018137Y0122047
X00205Y01145
X0017677Y0107839
X00305Y01147
X00214Y01374
X00238Y01439
X00198Y01496
X00283Y01582
X00287Y01663
X00374Y01594
X00404Y01376
X0043265Y01339
X0049Y01325
X00609Y01344
X00722Y01379
X00777Y01261
X00747Y01216
X01022Y01125
X01002Y0141331
X0139Y0143
X0143Y0121
X0142108Y0112204
X01499Y0112
Y01095
Y0107
X0154Y01614
X01506Y01756
X01394Y01817
X01342Y01793
X01336Y0167
X01271Y01609
X01137Y01821
X00685Y0152
X00519Y01477
M30
