G04*
G04 #@! TF.GenerationSoftware,Altium Limited,Altium Designer,23.1.1 (15)*
G04*
G04 Layer_Physical_Order=3*
G04 Layer_Color=16440176*
%FSLAX25Y25*%
%MOIN*%
G70*
G04*
G04 #@! TF.SameCoordinates,57D325FE-50AA-4423-B3C5-F19BAF70027F*
G04*
G04*
G04 #@! TF.FilePolarity,Positive*
G04*
G01*
G75*
%ADD10C,0.00591*%
%ADD11C,0.00787*%
%ADD12C,0.00600*%
%ADD15C,0.01000*%
%ADD16C,0.00492*%
%ADD21C,0.00800*%
%ADD127C,0.05906*%
%ADD133C,0.02000*%
%ADD135C,0.01968*%
%ADD141C,0.03000*%
%ADD143C,0.00900*%
%ADD150O,0.06299X0.03543*%
%ADD151R,0.05906X0.05906*%
%ADD153C,0.05512*%
%ADD156C,0.01378*%
%ADD157C,0.01181*%
%ADD158C,0.00984*%
%ADD159C,0.02400*%
%ADD160C,0.00500*%
%ADD161C,0.01300*%
%ADD162C,0.01100*%
%ADD163C,0.00748*%
%ADD164R,0.02640X0.01200*%
%ADD165R,0.02200X0.01200*%
G36*
X151767Y176129D02*
X151305Y175938D01*
X148330Y178913D01*
X148176Y179045D01*
X148003Y179151D01*
X147816Y179228D01*
X147619Y179276D01*
X147417Y179291D01*
X138918D01*
X138872Y179320D01*
X138658Y179408D01*
X138564Y179431D01*
X138408Y179772D01*
X138393Y179967D01*
X141805Y183379D01*
X141858Y183391D01*
X142072Y183481D01*
X142271Y183602D01*
X142447Y183753D01*
X142598Y183930D01*
X142719Y184128D01*
X142808Y184342D01*
X142863Y184568D01*
X142881Y184800D01*
X142863Y185032D01*
X142808Y185258D01*
X142719Y185472D01*
X142598Y185670D01*
X142447Y185847D01*
X142271Y185998D01*
X142072Y186119D01*
X141858Y186208D01*
X141632Y186263D01*
X141400Y186281D01*
X141168Y186263D01*
X140942Y186208D01*
X140728Y186119D01*
X140530Y185998D01*
X140353Y185847D01*
X140202Y185670D01*
X140080Y185472D01*
X139991Y185258D01*
X139979Y185205D01*
X128465Y173691D01*
X122518D01*
X122472Y173720D01*
X122258Y173809D01*
X122032Y173863D01*
X121800Y173881D01*
X121568Y173863D01*
X121342Y173809D01*
X121128Y173720D01*
X120930Y173598D01*
X120753Y173447D01*
X120602Y173270D01*
X120481Y173072D01*
X120391Y172858D01*
X120337Y172632D01*
X120319Y172400D01*
X120337Y172168D01*
X120391Y171942D01*
X120481Y171728D01*
X120602Y171529D01*
X120753Y171353D01*
X120930Y171202D01*
X121128Y171081D01*
X121342Y170992D01*
X121568Y170937D01*
X121800Y170919D01*
X122032Y170937D01*
X122258Y170992D01*
X122472Y171081D01*
X122518Y171109D01*
X128565D01*
X133647Y166027D01*
X133669Y165887D01*
X133554Y165413D01*
X133529Y165398D01*
X133353Y165247D01*
X133202Y165070D01*
X133080Y164872D01*
X132992Y164658D01*
X132937Y164432D01*
X132919Y164200D01*
X132937Y163968D01*
X132992Y163742D01*
X133080Y163528D01*
X133202Y163330D01*
X133353Y163153D01*
X133529Y163002D01*
X133728Y162881D01*
X133942Y162792D01*
X134074Y162760D01*
X138267Y158567D01*
X138391Y158461D01*
X138529Y158376D01*
X138680Y158314D01*
X138838Y158276D01*
X139000Y158263D01*
X139944D01*
X139953Y158253D01*
X140129Y158102D01*
X140328Y157981D01*
X140542Y157891D01*
X140768Y157837D01*
X141000Y157819D01*
X141232Y157837D01*
X141458Y157891D01*
X141672Y157981D01*
X141870Y158102D01*
X142047Y158253D01*
X142198Y158430D01*
X142320Y158628D01*
X142409Y158842D01*
X142463Y159068D01*
X142481Y159300D01*
X142463Y159532D01*
X142409Y159758D01*
X142320Y159972D01*
X142198Y160170D01*
X142047Y160347D01*
X141870Y160498D01*
X141672Y160619D01*
X141458Y160708D01*
X141232Y160763D01*
X141000Y160781D01*
X140768Y160763D01*
X140542Y160708D01*
X140328Y160619D01*
X140129Y160498D01*
X139953Y160347D01*
X139944Y160337D01*
X139429D01*
X137857Y161909D01*
X138065Y162409D01*
X140682D01*
X140728Y162381D01*
X140942Y162292D01*
X141168Y162237D01*
X141400Y162219D01*
X141632Y162237D01*
X141858Y162292D01*
X142072Y162381D01*
X142271Y162502D01*
X142447Y162653D01*
X142598Y162829D01*
X142719Y163028D01*
X142808Y163242D01*
X142863Y163468D01*
X142881Y163700D01*
X142863Y163932D01*
X142808Y164158D01*
X142719Y164372D01*
X142598Y164570D01*
X142447Y164747D01*
X142271Y164898D01*
X142072Y165020D01*
X141858Y165109D01*
X141632Y165163D01*
X141400Y165181D01*
X141168Y165163D01*
X140942Y165109D01*
X140728Y165020D01*
X140682Y164991D01*
X138335D01*
X137782Y165544D01*
X137954Y165991D01*
X137998Y166035D01*
X138200Y166019D01*
X138432Y166037D01*
X138658Y166092D01*
X138872Y166180D01*
X138918Y166209D01*
X149118D01*
X149310Y165627D01*
X149656Y164694D01*
X150036Y163776D01*
X150451Y162872D01*
X150899Y161984D01*
X151380Y161113D01*
X151893Y160262D01*
X152137Y159889D01*
X151900Y159449D01*
X150590D01*
X150590Y153740D01*
X150217Y153727D01*
X149727Y153674D01*
X149243Y153587D01*
X148766Y153465D01*
X148299Y153310D01*
X147845Y153121D01*
X147405Y152901D01*
X146981Y152650D01*
X146577Y152369D01*
X146194Y152061D01*
X145834Y151725D01*
X145498Y151365D01*
X145190Y150982D01*
X144909Y150578D01*
X144658Y150154D01*
X144438Y149714D01*
X144249Y149260D01*
X144094Y148793D01*
X143972Y148316D01*
X143885Y147831D01*
X143832Y147342D01*
X143815Y146850D01*
X143832Y146359D01*
X143885Y145869D01*
X143972Y145385D01*
X144094Y144908D01*
X144249Y144441D01*
X144438Y143986D01*
X144658Y143546D01*
X144909Y143123D01*
X145190Y142719D01*
X145498Y142336D01*
X145834Y141975D01*
X146194Y141640D01*
X146577Y141331D01*
X146981Y141051D01*
X147405Y140799D01*
X147845Y140579D01*
X148299Y140391D01*
X148766Y140235D01*
X149243Y140114D01*
X149727Y140026D01*
X150217Y139974D01*
X150590Y139961D01*
X150590Y97149D01*
X146412D01*
X146250Y97136D01*
X146092Y97098D01*
X145941Y97036D01*
X145803Y96951D01*
X145679Y96845D01*
X142917Y94083D01*
X142811Y93959D01*
X142726Y93821D01*
X142664Y93670D01*
X142626Y93512D01*
X142613Y93350D01*
Y90679D01*
X141366Y89432D01*
X130836D01*
X130644Y89894D01*
X138639Y97889D01*
X138744Y98012D01*
X138829Y98151D01*
X138891Y98301D01*
X138929Y98460D01*
X138942Y98622D01*
Y102735D01*
X139072Y102788D01*
X139270Y102910D01*
X139447Y103061D01*
X139598Y103238D01*
X139719Y103436D01*
X139808Y103650D01*
X139863Y103876D01*
X139881Y104108D01*
X139863Y104340D01*
X139808Y104566D01*
X139719Y104780D01*
X139598Y104979D01*
X139447Y105155D01*
X139270Y105306D01*
X139220Y105337D01*
X139061Y105531D01*
X139020Y105926D01*
X139033Y105960D01*
X139109Y106142D01*
X139163Y106368D01*
X139181Y106600D01*
X139163Y106832D01*
X139109Y107058D01*
X139020Y107272D01*
X138898Y107471D01*
X138807Y107769D01*
X138944Y108049D01*
X139094Y108226D01*
X139216Y108424D01*
X139305Y108639D01*
X139359Y108865D01*
X139377Y109096D01*
X139359Y109328D01*
X139305Y109554D01*
X139216Y109769D01*
X139094Y109967D01*
X138944Y110143D01*
X138767Y110294D01*
X138569Y110416D01*
X138354Y110505D01*
X138128Y110559D01*
X137896Y110577D01*
X137665Y110559D01*
X137439Y110505D01*
X137224Y110416D01*
X137069Y110321D01*
X137047Y110347D01*
X136871Y110498D01*
X136672Y110619D01*
X136660Y110625D01*
X136708Y110742D01*
X136763Y110968D01*
X136781Y111200D01*
X137200Y111591D01*
X143127D01*
X143289Y111603D01*
X143447Y111641D01*
X143598Y111704D01*
X143737Y111788D01*
X143860Y111894D01*
X148149Y116183D01*
X148254Y116306D01*
X148339Y116445D01*
X148402Y116595D01*
X148440Y116754D01*
X148452Y116916D01*
Y132573D01*
X148440Y132735D01*
X148402Y132893D01*
X148339Y133044D01*
X148254Y133182D01*
X148149Y133306D01*
X145649Y135806D01*
X145525Y135912D01*
X145386Y135996D01*
X145236Y136059D01*
X145078Y136097D01*
X144916Y136109D01*
X142708D01*
X142289Y136500D01*
X142271Y136732D01*
X142216Y136958D01*
X142127Y137172D01*
X142006Y137371D01*
X141855Y137547D01*
X141695Y137684D01*
X141719Y137724D01*
X141808Y137939D01*
X141863Y138165D01*
X141881Y138397D01*
X141863Y138628D01*
X141808Y138855D01*
X141719Y139069D01*
X141598Y139267D01*
X141447Y139444D01*
X141408Y139477D01*
X141519Y139659D01*
X141609Y139874D01*
X141663Y140100D01*
X141681Y140331D01*
X141663Y140563D01*
X141609Y140789D01*
X141519Y141004D01*
X141398Y141202D01*
X141247Y141379D01*
X141070Y141530D01*
X140872Y141651D01*
X140658Y141740D01*
X140432Y141794D01*
X140200Y141812D01*
X139968Y141794D01*
X139742Y141740D01*
X139528Y141651D01*
X139330Y141530D01*
X139315Y141517D01*
X132177Y148654D01*
X132054Y148760D01*
X131915Y148845D01*
X131765Y148907D01*
X131606Y148945D01*
X131444Y148958D01*
X121829D01*
X120549Y150239D01*
X120425Y150344D01*
X120286Y150429D01*
X120136Y150491D01*
X119978Y150529D01*
X119816Y150542D01*
X117956D01*
X117947Y150553D01*
X117771Y150704D01*
X117572Y150825D01*
X117358Y150914D01*
X117132Y150968D01*
X116900Y150987D01*
X116668Y150968D01*
X116442Y150914D01*
X116228Y150825D01*
X116030Y150704D01*
X115853Y150553D01*
X115702Y150376D01*
X115580Y150178D01*
X115491Y149963D01*
X115437Y149737D01*
X115419Y149505D01*
X115420Y149488D01*
X115242Y149445D01*
X115028Y149356D01*
X114830Y149235D01*
X114653Y149084D01*
X114502Y148907D01*
X114381Y148709D01*
X114292Y148495D01*
X114237Y148269D01*
X114219Y148037D01*
X114237Y147805D01*
X114292Y147579D01*
X114381Y147365D01*
X114502Y147167D01*
X114653Y146990D01*
X114830Y146839D01*
X114830Y146298D01*
X114653Y146147D01*
X114502Y145970D01*
X114381Y145772D01*
X114292Y145558D01*
X114237Y145332D01*
X114219Y145100D01*
X114237Y144868D01*
X114292Y144642D01*
X114381Y144428D01*
X114502Y144229D01*
X114653Y144053D01*
X114830Y143902D01*
X115028Y143781D01*
X115242Y143692D01*
X115449Y143642D01*
X115464Y143441D01*
X115519Y143215D01*
X115608Y143000D01*
X115729Y142802D01*
X115880Y142626D01*
X116057Y142475D01*
X116255Y142353D01*
X116470Y142264D01*
X116695Y142210D01*
X116927Y142192D01*
X117159Y142210D01*
X117385Y142264D01*
X117599Y142353D01*
X117798Y142475D01*
X117974Y142626D01*
X117983Y142636D01*
X119606D01*
X120152Y142090D01*
Y137301D01*
X120165Y137139D01*
X120203Y136981D01*
X120265Y136830D01*
X120350Y136692D01*
X120456Y136568D01*
X121868Y135155D01*
X121992Y135050D01*
X122131Y134965D01*
X122281Y134903D01*
X122439Y134865D01*
X122601Y134852D01*
X133956D01*
X134174Y134424D01*
X134190Y134352D01*
X134081Y134172D01*
X133992Y133958D01*
X133937Y133732D01*
X133919Y133500D01*
X133937Y133268D01*
X133992Y133042D01*
X134081Y132828D01*
X134202Y132630D01*
X134353Y132453D01*
X134427Y132390D01*
X134330Y131999D01*
X134258Y131890D01*
X134154D01*
Y124803D01*
X141240D01*
Y131083D01*
X143263D01*
X143426Y130920D01*
Y118568D01*
X141475Y116617D01*
X139498D01*
X139386Y117117D01*
X139470Y117156D01*
X139786Y117346D01*
X140083Y117566D01*
X140356Y117813D01*
X140604Y118087D01*
X140824Y118383D01*
X141013Y118700D01*
X141171Y119033D01*
X141295Y119381D01*
X141385Y119739D01*
X141420Y119972D01*
X133974D01*
X134009Y119739D01*
X134098Y119381D01*
X134223Y119033D01*
X134380Y118700D01*
X134570Y118383D01*
X134790Y118087D01*
X135038Y117813D01*
X135311Y117566D01*
X135608Y117346D01*
X135924Y117156D01*
X136008Y117117D01*
X135895Y116617D01*
X133486D01*
X133324Y116604D01*
X133165Y116566D01*
X133015Y116504D01*
X132876Y116419D01*
X132753Y116313D01*
X129298Y112859D01*
X129193Y112735D01*
X129108Y112596D01*
X129046Y112446D01*
X129008Y112288D01*
X128995Y112126D01*
Y102313D01*
X124973Y98291D01*
X119891D01*
X119481Y98700D01*
X119463Y98932D01*
X119409Y99158D01*
X119319Y99372D01*
X119198Y99571D01*
X119047Y99747D01*
X118870Y99898D01*
X118672Y100020D01*
X118458Y100109D01*
X118405Y100121D01*
X116813Y101713D01*
X116659Y101845D01*
X116486Y101951D01*
X116299Y102028D01*
X116102Y102076D01*
X115900Y102091D01*
X94875D01*
X94787Y102140D01*
X94480Y102561D01*
X94478Y102591D01*
X94491Y102800D01*
X94476Y103034D01*
X94430Y103264D01*
X94355Y103486D01*
X94251Y103696D01*
X94121Y103890D01*
X93967Y104067D01*
X93790Y104221D01*
X93596Y104351D01*
X93385Y104455D01*
X93164Y104530D01*
X92934Y104576D01*
X92700Y104591D01*
X77585D01*
X77351Y104576D01*
X77121Y104530D01*
X76899Y104455D01*
X76689Y104351D01*
X76575Y104275D01*
X76500Y104281D01*
X76268Y104263D01*
X76042Y104209D01*
X75828Y104120D01*
X75630Y103998D01*
X75453Y103847D01*
X75302Y103671D01*
X75181Y103472D01*
X75091Y103258D01*
X75037Y103032D01*
X75019Y102800D01*
X75037Y102568D01*
X75091Y102342D01*
X75181Y102128D01*
X75302Y101929D01*
X75412Y101800D01*
X75302Y101671D01*
X75181Y101472D01*
X75091Y101258D01*
X75037Y101032D01*
X75019Y100800D01*
X75037Y100568D01*
X75091Y100342D01*
X75170Y100153D01*
X75178Y100120D01*
X75072Y99849D01*
X74527Y99737D01*
X73935Y100329D01*
X73812Y100434D01*
X73673Y100519D01*
X73523Y100582D01*
X73364Y100620D01*
X73202Y100632D01*
X66252D01*
X65424Y101460D01*
X65301Y101566D01*
X65162Y101651D01*
X65012Y101713D01*
X64853Y101751D01*
X64691Y101764D01*
X62727D01*
X62565Y101751D01*
X62407Y101713D01*
X62309Y101672D01*
X62200Y101681D01*
X61968Y101663D01*
X61742Y101609D01*
X61528Y101520D01*
X61330Y101398D01*
X61153Y101247D01*
X61002Y101070D01*
X60881Y100872D01*
X60791Y100658D01*
X60737Y100432D01*
X60719Y100200D01*
X60737Y99968D01*
X60791Y99742D01*
X60881Y99528D01*
X61002Y99330D01*
X61153Y99153D01*
X61313Y99016D01*
X61330Y98782D01*
X61244Y98468D01*
X61128Y98419D01*
X60930Y98298D01*
X60753Y98147D01*
X60602Y97970D01*
X60480Y97772D01*
X60391Y97558D01*
X60337Y97332D01*
X60319Y97100D01*
X60337Y96868D01*
X60391Y96642D01*
X60480Y96428D01*
X60602Y96229D01*
X60753Y96053D01*
X60930Y95902D01*
X61128Y95780D01*
X61342Y95692D01*
X61568Y95637D01*
X61800Y95619D01*
X62032Y95637D01*
X62126Y95660D01*
X62181Y95528D01*
X62302Y95329D01*
X62453Y95153D01*
X62629Y95002D01*
X62828Y94880D01*
X63042Y94792D01*
X63268Y94737D01*
X63500Y94719D01*
X63732Y94737D01*
X63958Y94792D01*
X64172Y94880D01*
X64371Y95002D01*
X64547Y95153D01*
X64698Y95329D01*
X64820Y95528D01*
X64846Y95591D01*
X71566D01*
X72590Y94566D01*
X72698Y94050D01*
X71285Y92637D01*
X65756D01*
X65747Y92647D01*
X65570Y92798D01*
X65372Y92919D01*
X65158Y93009D01*
X64932Y93063D01*
X64700Y93081D01*
X64468Y93063D01*
X64242Y93009D01*
X64028Y92919D01*
X63829Y92798D01*
X63653Y92647D01*
X63294Y92530D01*
X63003Y92613D01*
X62977Y92635D01*
X62779Y92756D01*
X62564Y92845D01*
X62338Y92900D01*
X62106Y92918D01*
X61875Y92900D01*
X61649Y92845D01*
X61434Y92756D01*
X61236Y92635D01*
X61059Y92484D01*
X60908Y92308D01*
X60787Y92109D01*
X60698Y91895D01*
X60644Y91669D01*
X60641Y91631D01*
X60167Y91428D01*
X60137Y91428D01*
X56237Y95328D01*
Y95944D01*
X56247Y95953D01*
X56398Y96130D01*
X56520Y96328D01*
X56608Y96542D01*
X56663Y96768D01*
X56681Y97000D01*
X56663Y97232D01*
X56608Y97458D01*
X56520Y97672D01*
X56398Y97870D01*
X56247Y98047D01*
X56071Y98198D01*
X55872Y98320D01*
X55658Y98409D01*
X55432Y98463D01*
X55200Y98481D01*
X54780Y98809D01*
X54721Y98918D01*
Y99401D01*
X54965Y99645D01*
X57230D01*
X57392Y99658D01*
X57550Y99695D01*
X57700Y99758D01*
X57839Y99843D01*
X57963Y99948D01*
X58960Y100946D01*
X59066Y101070D01*
X59151Y101208D01*
X59213Y101359D01*
X59251Y101517D01*
X59264Y101679D01*
Y102861D01*
X59576Y103204D01*
X59705Y103275D01*
X72011D01*
X72174Y103287D01*
X72332Y103325D01*
X72482Y103388D01*
X72621Y103473D01*
X72745Y103578D01*
X78655Y109489D01*
X78761Y109613D01*
X78846Y109752D01*
X78908Y109902D01*
X78946Y110060D01*
X78959Y110222D01*
Y110919D01*
X79459Y111126D01*
X79513Y111072D01*
X79543Y111039D01*
X79576Y111009D01*
X79821Y110764D01*
X79941Y110665D01*
X80078Y110592D01*
X80802Y110293D01*
X80950Y110248D01*
X81104Y110232D01*
X81496Y110230D01*
Y110230D01*
X95276D01*
Y110230D01*
X95344Y110232D01*
X95857D01*
X96012Y110248D01*
X96624Y110370D01*
X96700Y110383D01*
X96724Y110389D01*
X97153Y110475D01*
X97301Y110520D01*
X97301Y110520D01*
X98376Y110965D01*
X98376Y110965D01*
X98513Y111038D01*
X98513Y111038D01*
X98876Y111281D01*
X98897Y111293D01*
X98960Y111337D01*
X99480Y111684D01*
X99600Y111783D01*
X99963Y112146D01*
X100013Y112192D01*
X100059Y112242D01*
X100422Y112605D01*
X100521Y112725D01*
X100868Y113245D01*
X100911Y113307D01*
X100924Y113329D01*
X101167Y113692D01*
X101167Y113692D01*
X101240Y113829D01*
X101240Y113829D01*
X101685Y114904D01*
X101730Y115052D01*
X101815Y115481D01*
X101822Y115505D01*
X101835Y115579D01*
X101957Y116193D01*
X101972Y116348D01*
Y116861D01*
X101975Y116929D01*
X101974D01*
Y130709D01*
X101975D01*
X101972Y130777D01*
Y131290D01*
X101957Y131445D01*
X101835Y132058D01*
X101822Y132133D01*
X101815Y132157D01*
X101730Y132586D01*
X101685Y132734D01*
X101240Y133809D01*
X101240Y133809D01*
X101167Y133946D01*
X101167Y133946D01*
X100924Y134309D01*
X100911Y134330D01*
X100868Y134393D01*
X100521Y134913D01*
X100422Y135033D01*
X100059Y135396D01*
X100013Y135446D01*
X99963Y135492D01*
X99600Y135855D01*
X99480Y135954D01*
X98960Y136301D01*
X98897Y136344D01*
X98876Y136357D01*
X98513Y136600D01*
X98513Y136600D01*
X98376Y136673D01*
X98376Y136673D01*
X98290Y136709D01*
X98389Y137209D01*
X101300D01*
X101502Y137224D01*
X101699Y137272D01*
X101886Y137349D01*
X102059Y137455D01*
X102213Y137587D01*
X103405Y138779D01*
X103458Y138792D01*
X103672Y138881D01*
X103870Y139002D01*
X104047Y139153D01*
X104198Y139330D01*
X104320Y139528D01*
X104409Y139742D01*
X104463Y139968D01*
X104481Y140200D01*
X104463Y140432D01*
X104409Y140658D01*
X104320Y140872D01*
X104198Y141070D01*
X104047Y141247D01*
X103870Y141398D01*
X103672Y141519D01*
X103458Y141609D01*
X103232Y141663D01*
X103000Y141681D01*
X102768Y141663D01*
X102542Y141609D01*
X102328Y141519D01*
X102129Y141398D01*
X102034Y141316D01*
X101911Y141247D01*
X101489D01*
X101366Y141316D01*
X101270Y141398D01*
X101072Y141519D01*
X100858Y141609D01*
X100632Y141663D01*
X100570Y141667D01*
X100581Y141800D01*
X100563Y142032D01*
X100508Y142258D01*
X100419Y142472D01*
X100298Y142671D01*
X100147Y142847D01*
X99971Y142998D01*
X99772Y143120D01*
X99558Y143209D01*
X99332Y143263D01*
X99100Y143281D01*
X98868Y143263D01*
X98642Y143209D01*
X98428Y143120D01*
X98229Y142998D01*
X98095Y142884D01*
X97153D01*
X96863Y143384D01*
X96914Y143473D01*
X97129Y143562D01*
X97327Y143684D01*
X97504Y143835D01*
X97655Y144011D01*
X97776Y144210D01*
X97865Y144424D01*
X97919Y144650D01*
X97938Y144882D01*
X97919Y145114D01*
X97865Y145340D01*
X97776Y145554D01*
X97655Y145752D01*
X97504Y145929D01*
X97327Y146080D01*
X97129Y146201D01*
X96914Y146290D01*
X96688Y146345D01*
X96457Y146363D01*
X96225Y146345D01*
X95999Y146290D01*
X95784Y146201D01*
X95586Y146080D01*
X95410Y145929D01*
X95259Y145752D01*
X95137Y145554D01*
X95048Y145340D01*
X94994Y145114D01*
X94981Y144949D01*
X94423Y144391D01*
X87855D01*
X87852Y144392D01*
X87842Y144409D01*
X88131Y144909D01*
X93200D01*
X93371Y144923D01*
X93537Y144963D01*
X93695Y145028D01*
X93841Y145118D01*
X93971Y145229D01*
X95532Y146789D01*
X95643Y146920D01*
X95732Y147065D01*
X95798Y147224D01*
X95838Y147390D01*
X95851Y147561D01*
Y160439D01*
X95838Y160610D01*
X95798Y160776D01*
X95732Y160934D01*
X95643Y161081D01*
X95532Y161211D01*
X94602Y162141D01*
Y164482D01*
X96329Y166209D01*
X97490D01*
X97617Y166130D01*
X97920Y165709D01*
X97919Y165700D01*
X97937Y165468D01*
X97992Y165242D01*
X98080Y165028D01*
X98202Y164830D01*
X98353Y164653D01*
X98529Y164502D01*
X98728Y164381D01*
X98942Y164292D01*
X99168Y164237D01*
X99400Y164219D01*
X99632Y164237D01*
X99858Y164292D01*
X100072Y164381D01*
X100270Y164502D01*
X100286Y164515D01*
X104073D01*
X104258Y164530D01*
X104439Y164573D01*
X104611Y164644D01*
X104769Y164742D01*
X104911Y164862D01*
X106638Y166590D01*
X122394D01*
X122825Y166160D01*
X122826Y166139D01*
X122880Y165913D01*
X122969Y165699D01*
X123091Y165500D01*
X123242Y165324D01*
X123418Y165173D01*
X123617Y165051D01*
X123831Y164962D01*
X124057Y164908D01*
X124289Y164890D01*
X124521Y164908D01*
X124747Y164962D01*
X124961Y165051D01*
X125160Y165173D01*
X125336Y165324D01*
X125487Y165500D01*
X125609Y165699D01*
X125698Y165913D01*
X125752Y166139D01*
X125770Y166371D01*
X125752Y166602D01*
X125698Y166828D01*
X125609Y167043D01*
X125487Y167241D01*
X125336Y167418D01*
X125160Y167569D01*
X124961Y167690D01*
X124747Y167779D01*
X124521Y167833D01*
X124500Y167835D01*
X123723Y168613D01*
X123581Y168733D01*
X123423Y168830D01*
X123251Y168902D01*
X123070Y168945D01*
X122885Y168960D01*
X113655D01*
X113464Y169422D01*
X115952Y171910D01*
X116064Y172040D01*
X116153Y172186D01*
X116218Y172344D01*
X116258Y172511D01*
X116272Y172681D01*
Y191519D01*
X116258Y191690D01*
X116218Y191856D01*
X116153Y192014D01*
X116064Y192160D01*
X115952Y192290D01*
X115276Y192967D01*
X115263Y193132D01*
X115208Y193358D01*
X115120Y193572D01*
X114998Y193771D01*
X114847Y193947D01*
X114671Y194098D01*
X114472Y194220D01*
X114258Y194308D01*
X114032Y194363D01*
X113800Y194381D01*
X113568Y194363D01*
X113342Y194308D01*
X113128Y194220D01*
X112929Y194098D01*
X112753Y193947D01*
X112602Y193771D01*
X112480Y193572D01*
X112391Y193358D01*
X112337Y193132D01*
X112319Y192900D01*
X112337Y192668D01*
X112391Y192442D01*
X112480Y192228D01*
X112602Y192030D01*
X112753Y191853D01*
X112929Y191702D01*
X113128Y191580D01*
X113342Y191491D01*
X113568Y191437D01*
X113733Y191424D01*
X114090Y191067D01*
Y173133D01*
X111023Y170066D01*
X110245D01*
X110138Y170178D01*
X109982Y170566D01*
X110020Y170628D01*
X110108Y170842D01*
X110163Y171068D01*
X110181Y171300D01*
X110163Y171532D01*
X110108Y171758D01*
X110020Y171972D01*
X109898Y172170D01*
X109747Y172347D01*
X109571Y172498D01*
X109372Y172619D01*
X109158Y172708D01*
X108932Y172763D01*
X108700Y172781D01*
X108468Y172763D01*
X108242Y172708D01*
X108028Y172619D01*
X107829Y172498D01*
X107653Y172347D01*
X107502Y172170D01*
X107380Y171972D01*
X107291Y171758D01*
X107237Y171532D01*
X107224Y171367D01*
X107015Y171158D01*
X97529D01*
X96643Y172045D01*
X96512Y172156D01*
X96367Y172245D01*
X96438Y172561D01*
X96512Y172740D01*
X96710Y172725D01*
X96942Y172743D01*
X97168Y172797D01*
X97382Y172886D01*
X97581Y173008D01*
X97757Y173158D01*
X97908Y173335D01*
X98030Y173533D01*
X98119Y173748D01*
X98173Y173974D01*
X98191Y174206D01*
X98173Y174437D01*
X98119Y174663D01*
X98030Y174878D01*
X97908Y175076D01*
X97757Y175253D01*
X97581Y175404D01*
X97382Y175525D01*
X97168Y175614D01*
X96942Y175668D01*
X96710Y175687D01*
X96478Y175668D01*
X96253Y175614D01*
X96038Y175525D01*
X95840Y175404D01*
X95663Y175253D01*
X95512Y175076D01*
X95391Y174878D01*
X95302Y174663D01*
X95248Y174437D01*
X95229Y174206D01*
X95248Y173974D01*
X95302Y173748D01*
X95391Y173533D01*
X95512Y173335D01*
X95663Y173158D01*
X95840Y173008D01*
X95995Y172912D01*
X96038Y172886D01*
X96074Y172857D01*
X95955Y172372D01*
X95871Y172364D01*
X95853Y172364D01*
X93034D01*
X92864Y172351D01*
X92697Y172311D01*
X92539Y172245D01*
X92393Y172156D01*
X92263Y172045D01*
X88237Y168018D01*
X88125Y167888D01*
X88036Y167742D01*
X87971Y167584D01*
X87931Y167418D01*
X87917Y167247D01*
Y163960D01*
X77671Y153713D01*
X77559Y153583D01*
X77470Y153437D01*
X77404Y153279D01*
X77364Y153112D01*
X77351Y152942D01*
Y150684D01*
X77244Y150558D01*
X77122Y150360D01*
X77033Y150145D01*
X76979Y149919D01*
X76961Y149687D01*
X76979Y149456D01*
X77033Y149230D01*
X77122Y149015D01*
X77244Y148817D01*
X77395Y148640D01*
X77571Y148489D01*
X77769Y148368D01*
X77984Y148279D01*
X78210Y148225D01*
X78442Y148206D01*
X78673Y148225D01*
X78899Y148279D01*
X79114Y148368D01*
X79594Y148120D01*
X79609Y148100D01*
Y145652D01*
X78833Y144876D01*
X78668Y144863D01*
X78442Y144808D01*
X78228Y144720D01*
X78030Y144598D01*
X77853Y144447D01*
X77702Y144271D01*
X77580Y144072D01*
X77491Y143858D01*
X77437Y143632D01*
X77419Y143400D01*
X77420Y143384D01*
X77125Y142969D01*
X76991Y142884D01*
X72943D01*
X72013Y143813D01*
X71859Y143945D01*
X71686Y144051D01*
X71499Y144128D01*
X71302Y144176D01*
X71100Y144191D01*
X71018D01*
X70972Y144220D01*
X70758Y144308D01*
X70532Y144363D01*
X70300Y144381D01*
X70068Y144363D01*
X69842Y144308D01*
X69628Y144220D01*
X69429Y144098D01*
X69253Y143947D01*
X69102Y143771D01*
X68980Y143572D01*
X68892Y143358D01*
X68837Y143132D01*
X68819Y142900D01*
X68837Y142668D01*
X68892Y142442D01*
X68980Y142228D01*
X69102Y142030D01*
X69170Y141950D01*
X69102Y141870D01*
X68980Y141672D01*
X68892Y141458D01*
X68837Y141232D01*
X68819Y141000D01*
X68837Y140768D01*
X68892Y140542D01*
X68980Y140328D01*
X69102Y140129D01*
X69253Y139953D01*
X69429Y139802D01*
X69628Y139681D01*
X69842Y139592D01*
X69895Y139579D01*
X70287Y139187D01*
X70441Y139055D01*
X70614Y138949D01*
X70801Y138872D01*
X70998Y138824D01*
X71200Y138809D01*
X76810D01*
X77002Y138347D01*
X74787Y136132D01*
X74655Y135978D01*
X74549Y135805D01*
X74472Y135618D01*
X74424Y135421D01*
X74409Y135219D01*
Y112086D01*
X74353Y112049D01*
X73853Y112316D01*
Y113500D01*
X65947D01*
Y110047D01*
X69537D01*
X70019Y109800D01*
X70037Y109568D01*
X70091Y109342D01*
X70180Y109128D01*
X70302Y108930D01*
X70453Y108753D01*
X70630Y108602D01*
X70828Y108481D01*
X71042Y108391D01*
X71268Y108337D01*
X71500Y108319D01*
X71732Y108337D01*
X71958Y108391D01*
X72172Y108481D01*
X72218Y108509D01*
X72697D01*
X72889Y108047D01*
X71174Y106332D01*
X55177D01*
X55015Y106320D01*
X54857Y106282D01*
X54707Y106219D01*
X54568Y106134D01*
X54444Y106029D01*
X52940Y104524D01*
X52834Y104401D01*
X52749Y104262D01*
X52687Y104112D01*
X52649Y103953D01*
X52636Y103791D01*
Y102335D01*
X52649Y102173D01*
X52687Y102015D01*
X52749Y101864D01*
X52791Y101795D01*
X51967Y100971D01*
X51861Y100847D01*
X51776Y100708D01*
X51714Y100558D01*
X51676Y100400D01*
X51663Y100238D01*
Y91929D01*
X51676Y91767D01*
X51714Y91609D01*
X51776Y91459D01*
X51861Y91320D01*
X51967Y91196D01*
X53692Y89472D01*
X53600Y89152D01*
X53481Y88975D01*
X53320Y88963D01*
X53093Y88908D01*
X52879Y88820D01*
X52681Y88698D01*
X52504Y88547D01*
X52353Y88371D01*
X52232Y88172D01*
X52186Y88151D01*
X51681Y88108D01*
X51647Y88147D01*
X51471Y88298D01*
X51272Y88420D01*
X51058Y88508D01*
X50832Y88563D01*
X50600Y88581D01*
X50368Y88563D01*
X50142Y88508D01*
X49928Y88420D01*
X49729Y88298D01*
X49553Y88147D01*
X49402Y87971D01*
X49281Y87772D01*
X49191Y87558D01*
X49137Y87332D01*
X49119Y87100D01*
X49137Y86868D01*
X49191Y86642D01*
X49281Y86428D01*
X49402Y86229D01*
X49553Y86053D01*
X49729Y85902D01*
X49928Y85781D01*
X50142Y85691D01*
X50368Y85637D01*
X50600Y85619D01*
X50832Y85637D01*
X51058Y85691D01*
X51272Y85781D01*
X51471Y85902D01*
X51647Y86053D01*
X51798Y86229D01*
X51920Y86428D01*
X51966Y86449D01*
X52470Y86492D01*
X52504Y86453D01*
X52681Y86302D01*
X52879Y86181D01*
X53093Y86092D01*
X53320Y86037D01*
X53551Y86019D01*
X53783Y86037D01*
X54009Y86092D01*
X54224Y86181D01*
X54422Y86302D01*
X54598Y86453D01*
X54749Y86629D01*
X54871Y86828D01*
X54960Y87042D01*
X55014Y87268D01*
X55027Y87429D01*
X55203Y87549D01*
X55523Y87641D01*
X58764Y84399D01*
X58654Y83912D01*
X58621Y83864D01*
X58406Y83775D01*
X58208Y83654D01*
X58031Y83503D01*
X57670Y83295D01*
X57531Y83380D01*
X57381Y83442D01*
X57223Y83480D01*
X57060Y83492D01*
X55804D01*
X55795Y83503D01*
X55619Y83654D01*
X55420Y83775D01*
X55206Y83864D01*
X54980Y83919D01*
X54748Y83937D01*
X54516Y83919D01*
X54290Y83864D01*
X54076Y83775D01*
X53878Y83654D01*
X53701Y83503D01*
X53550Y83326D01*
X53429Y83128D01*
X53339Y82914D01*
X53285Y82687D01*
X53267Y82456D01*
X53285Y82224D01*
X53339Y81998D01*
X53429Y81784D01*
X53550Y81585D01*
X53701Y81409D01*
X53878Y81258D01*
X54076Y81136D01*
X54290Y81047D01*
X54516Y80993D01*
X54748Y80975D01*
X54980Y80993D01*
X55156Y81036D01*
X55274Y80946D01*
X55491Y80624D01*
X55472Y80594D01*
X55383Y80379D01*
X55329Y80153D01*
X55310Y79921D01*
X55329Y79690D01*
X55383Y79464D01*
X55472Y79249D01*
X55593Y79051D01*
X55744Y78874D01*
X55921Y78723D01*
X56119Y78602D01*
X56334Y78513D01*
X56560Y78459D01*
X56791Y78440D01*
X57023Y78459D01*
X57249Y78513D01*
X57464Y78602D01*
X57662Y78723D01*
X57838Y78874D01*
X57990Y79051D01*
X58565Y79163D01*
X58829Y78961D01*
Y71950D01*
X58842Y71788D01*
X58880Y71630D01*
X58943Y71479D01*
X59027Y71341D01*
X59133Y71217D01*
X63583Y66767D01*
X63707Y66661D01*
X63747Y66637D01*
X63686Y66248D01*
X63632Y66137D01*
X62819D01*
X62798Y66171D01*
X62647Y66347D01*
X62471Y66498D01*
X62272Y66619D01*
X62058Y66708D01*
X61832Y66763D01*
X61600Y66781D01*
X61368Y66763D01*
X61142Y66708D01*
X60928Y66619D01*
X60729Y66498D01*
X60553Y66347D01*
X60402Y66171D01*
X60281Y65972D01*
X60192Y65758D01*
X60137Y65532D01*
X60119Y65300D01*
X60137Y65068D01*
X60192Y64842D01*
X60281Y64628D01*
X60008Y64145D01*
X55901D01*
X55898Y64150D01*
X55747Y64327D01*
X55571Y64478D01*
X55372Y64599D01*
X55158Y64688D01*
X54932Y64742D01*
X54700Y64761D01*
X54468Y64742D01*
X54242Y64688D01*
X54028Y64599D01*
X53829Y64478D01*
X53653Y64327D01*
X53502Y64150D01*
X53381Y63952D01*
X53291Y63737D01*
X53237Y63511D01*
X53219Y63280D01*
X53237Y63048D01*
X53291Y62822D01*
X53381Y62607D01*
X53502Y62409D01*
X53561Y62340D01*
X53502Y62270D01*
X53381Y62072D01*
X53291Y61858D01*
X53237Y61632D01*
X53219Y61400D01*
X53237Y61168D01*
X53291Y60942D01*
X53381Y60728D01*
X53502Y60530D01*
X53653Y60353D01*
X53829Y60202D01*
X54028Y60080D01*
X54242Y59992D01*
X54468Y59937D01*
X54700Y59919D01*
X54932Y59937D01*
X55158Y59992D01*
X55372Y60080D01*
X55400Y60097D01*
X55836Y59899D01*
X55900Y59826D01*
X55900Y56500D01*
X55900Y56500D01*
X55858Y56017D01*
X55837Y55932D01*
X55819Y55700D01*
X55837Y55468D01*
X55892Y55242D01*
X55980Y55028D01*
X56102Y54830D01*
X56253Y54653D01*
X56429Y54502D01*
X56628Y54381D01*
X56842Y54291D01*
X57068Y54237D01*
X57300Y54219D01*
X57532Y54237D01*
X57758Y54291D01*
X57972Y54381D01*
X58170Y54502D01*
X58284Y54599D01*
X58335Y54556D01*
X58533Y54435D01*
X58748Y54346D01*
X58974Y54291D01*
X59206Y54273D01*
X59437Y54291D01*
X59663Y54346D01*
X59878Y54435D01*
X60076Y54556D01*
X60253Y54707D01*
X60404Y54883D01*
X60525Y55082D01*
X60614Y55296D01*
X60668Y55522D01*
X60686Y55754D01*
X60668Y55986D01*
X60665Y56000D01*
X60900Y56500D01*
X60900D01*
Y58092D01*
X61029Y58243D01*
X61400Y58454D01*
X61468Y58437D01*
X61700Y58419D01*
X61932Y58437D01*
X62158Y58491D01*
X62372Y58580D01*
X62571Y58702D01*
X62747Y58853D01*
X62898Y59030D01*
X63020Y59228D01*
X63108Y59442D01*
X63135Y59551D01*
X66065D01*
X66132Y59506D01*
X66391Y59058D01*
X66337Y58832D01*
X66319Y58600D01*
X66337Y58368D01*
X66391Y58142D01*
X66480Y57928D01*
X66602Y57730D01*
X66652Y57671D01*
Y56344D01*
X66224Y56126D01*
X66152Y56109D01*
X65972Y56220D01*
X65758Y56309D01*
X65532Y56363D01*
X65300Y56381D01*
X65068Y56363D01*
X64842Y56309D01*
X64628Y56220D01*
X64429Y56098D01*
X64253Y55947D01*
X64102Y55770D01*
X63981Y55572D01*
X63892Y55358D01*
X63837Y55132D01*
X63824Y54960D01*
X58809Y49945D01*
X58699Y49816D01*
X58610Y49670D01*
X58544Y49513D01*
X58504Y49347D01*
X58491Y49177D01*
Y46281D01*
X58434Y46187D01*
X58356Y46001D01*
X58310Y45805D01*
X58294Y45604D01*
X58310Y45404D01*
X58356Y45208D01*
X58434Y45022D01*
X58539Y44850D01*
X58670Y44697D01*
X58823Y44566D01*
X58995Y44461D01*
X59181Y44384D01*
X59288Y44358D01*
X60790Y42856D01*
X60736Y42632D01*
X60718Y42400D01*
X60736Y42168D01*
X60791Y41942D01*
X60880Y41728D01*
X61001Y41530D01*
X61152Y41353D01*
X61223Y41292D01*
X61233Y41280D01*
X61278Y41184D01*
X61305Y40964D01*
X61275Y40653D01*
X60730Y40108D01*
X52270D01*
X48884Y43494D01*
Y80656D01*
X48867Y80866D01*
X48818Y81071D01*
X48737Y81265D01*
X48627Y81445D01*
X48491Y81605D01*
X45276Y84820D01*
Y99247D01*
X45259Y99457D01*
X45210Y99661D01*
X45130Y99856D01*
X45020Y100035D01*
X44883Y100195D01*
X43925Y101153D01*
X43901Y101394D01*
X43985Y101800D01*
X44047Y101853D01*
X44198Y102030D01*
X44319Y102228D01*
X44409Y102442D01*
X44463Y102668D01*
X44481Y102900D01*
X44463Y103132D01*
X44409Y103358D01*
X44319Y103572D01*
X44198Y103770D01*
X44047Y103947D01*
X43870Y104098D01*
X43672Y104219D01*
X43458Y104308D01*
X43232Y104363D01*
X43060Y104376D01*
X41586Y105850D01*
Y117000D01*
X41573Y117170D01*
X41533Y117336D01*
X41468Y117493D01*
X41379Y117638D01*
X41268Y117768D01*
X40268Y118768D01*
X40138Y118879D01*
X39993Y118968D01*
X39836Y119033D01*
X39670Y119073D01*
X39500Y119086D01*
X33350D01*
X31681Y120755D01*
X31551Y120866D01*
X31406Y120955D01*
X31248Y121020D01*
X31082Y121060D01*
X30913Y121073D01*
X28970D01*
X28749Y121573D01*
X28795Y121624D01*
X29014Y121920D01*
X29202Y122235D01*
X29360Y122567D01*
X29483Y122913D01*
X29573Y123269D01*
X29627Y123633D01*
X29645Y124000D01*
X29627Y124367D01*
X29573Y124731D01*
X29483Y125087D01*
X29360Y125433D01*
X29202Y125765D01*
X29014Y126080D01*
X28925Y126200D01*
X29141Y126675D01*
X29169Y126700D01*
X32631D01*
X32659Y126675D01*
X32875Y126200D01*
X32786Y126080D01*
X32598Y125765D01*
X32440Y125433D01*
X32317Y125087D01*
X32227Y124731D01*
X32173Y124367D01*
X32155Y124000D01*
X32173Y123633D01*
X32227Y123269D01*
X32317Y122913D01*
X32440Y122567D01*
X32598Y122235D01*
X32786Y121920D01*
X33005Y121624D01*
X33252Y121352D01*
X33524Y121105D01*
X33820Y120886D01*
X34135Y120697D01*
X34467Y120540D01*
X34813Y120417D01*
X35169Y120327D01*
X35533Y120273D01*
X35900Y120255D01*
X36267Y120273D01*
X36630Y120327D01*
X36987Y120417D01*
X37333Y120540D01*
X37665Y120697D01*
X37980Y120886D01*
X38276Y121105D01*
X38548Y121352D01*
X38795Y121624D01*
X39014Y121920D01*
X39202Y122235D01*
X39360Y122567D01*
X39483Y122913D01*
X39573Y123269D01*
X39627Y123633D01*
X39645Y124000D01*
X39627Y124367D01*
X39573Y124731D01*
X39483Y125087D01*
X39360Y125433D01*
X39202Y125765D01*
X39014Y126080D01*
X38925Y126200D01*
X39141Y126675D01*
X39169Y126700D01*
X39500D01*
Y131213D01*
X39962Y131405D01*
X46309Y125058D01*
X46227Y124731D01*
X46173Y124367D01*
X46155Y124000D01*
X46173Y123633D01*
X46227Y123269D01*
X46317Y122913D01*
X46440Y122567D01*
X46597Y122235D01*
X46786Y121920D01*
X47005Y121624D01*
X47252Y121352D01*
X47524Y121105D01*
X47820Y120886D01*
X48135Y120697D01*
X48467Y120540D01*
X48813Y120417D01*
X49169Y120327D01*
X49533Y120273D01*
X49900Y120255D01*
X50267Y120273D01*
X50630Y120327D01*
X50987Y120417D01*
X51333Y120540D01*
X51665Y120697D01*
X51980Y120886D01*
X52276Y121105D01*
X52548Y121352D01*
X52795Y121624D01*
X53013Y121920D01*
X53202Y122235D01*
X53360Y122567D01*
X53483Y122913D01*
X53573Y123269D01*
X53627Y123633D01*
X53645Y124000D01*
X53627Y124367D01*
X53573Y124731D01*
X53483Y125087D01*
X53360Y125433D01*
X53202Y125765D01*
X53013Y126080D01*
X52795Y126376D01*
X52548Y126648D01*
X52276Y126895D01*
X51980Y127114D01*
X51665Y127303D01*
X51333Y127460D01*
X50987Y127583D01*
X50630Y127673D01*
X50267Y127727D01*
X49900Y127745D01*
X49533Y127727D01*
X49169Y127673D01*
X48842Y127591D01*
X42100Y134333D01*
X42292Y134795D01*
X45639D01*
X46834Y133600D01*
X46957Y133495D01*
X47096Y133410D01*
X47246Y133347D01*
X47404Y133309D01*
X47567Y133297D01*
X51285D01*
X51447Y133309D01*
X51605Y133347D01*
X51756Y133410D01*
X51894Y133495D01*
X52018Y133600D01*
X55555Y137137D01*
X55940Y137069D01*
X56114Y136989D01*
X56181Y136828D01*
X56302Y136629D01*
X56453Y136453D01*
X56630Y136302D01*
X56828Y136180D01*
X57042Y136091D01*
X57268Y136037D01*
X57500Y136019D01*
X57732Y136037D01*
X57958Y136091D01*
X58172Y136180D01*
X58371Y136302D01*
X58547Y136453D01*
X58698Y136629D01*
X58820Y136828D01*
X58908Y137042D01*
X58963Y137268D01*
X58981Y137500D01*
X58963Y137732D01*
X58908Y137958D01*
X58820Y138172D01*
X58698Y138371D01*
X58547Y138547D01*
X58371Y138698D01*
X58172Y138820D01*
X57958Y138909D01*
X57732Y138963D01*
X57500Y138981D01*
X57268Y138963D01*
X57042Y138909D01*
X56905Y138852D01*
X56661Y138949D01*
X56405Y139147D01*
Y147560D01*
X56392Y147722D01*
X56354Y147881D01*
X56292Y148031D01*
X56207Y148170D01*
X56102Y148293D01*
X52595Y151800D01*
X52585D01*
X51904Y152481D01*
Y155500D01*
D01*
X51904Y168862D01*
X51889Y169017D01*
X51844Y169165D01*
X51771Y169302D01*
X51672Y169422D01*
X51552Y169520D01*
X51415Y169593D01*
X51267Y169638D01*
X51113Y169653D01*
X44951D01*
X44885Y169647D01*
X44818Y169642D01*
X44808Y169639D01*
X44797Y169638D01*
X44733Y169619D01*
X44669Y169601D01*
X44659Y169596D01*
X44648Y169593D01*
X44590Y169562D01*
X44530Y169532D01*
X44521Y169525D01*
X44512Y169520D01*
X44460Y169478D01*
X44407Y169437D01*
X44400Y169429D01*
X44392Y169422D01*
X44286Y169465D01*
X44240Y169494D01*
X44040Y169577D01*
X43990Y169589D01*
X43957Y169603D01*
X42317Y171242D01*
X42175Y171364D01*
X42016Y171461D01*
X41843Y171533D01*
X41661Y171576D01*
X41475Y171591D01*
X36100D01*
X35914Y171576D01*
X35732Y171533D01*
X35559Y171461D01*
X35400Y171364D01*
X35258Y171242D01*
X32439Y168423D01*
X32318Y168281D01*
X32220Y168122D01*
X32181Y168027D01*
X32032Y168063D01*
X31800Y168081D01*
X31568Y168063D01*
X31342Y168008D01*
X31128Y167920D01*
X30929Y167798D01*
X30753Y167647D01*
X30602Y167471D01*
X30481Y167272D01*
X30391Y167058D01*
X30337Y166832D01*
X30319Y166600D01*
X30337Y166368D01*
X30391Y166142D01*
X30481Y165928D01*
X30602Y165729D01*
X30753Y165553D01*
X30929Y165402D01*
X31128Y165280D01*
X31342Y165191D01*
X31568Y165137D01*
X31800Y165119D01*
X32090Y164649D01*
Y164415D01*
X32024Y164300D01*
X31600Y163981D01*
X31368Y163963D01*
X31142Y163909D01*
X30928Y163820D01*
X30729Y163698D01*
X30553Y163547D01*
X30402Y163371D01*
X30281Y163172D01*
X30191Y162958D01*
X30137Y162732D01*
X30119Y162500D01*
X30137Y162268D01*
X30191Y162042D01*
X30281Y161828D01*
X30402Y161629D01*
X30520Y161492D01*
X30502Y161470D01*
X30380Y161272D01*
X30292Y161058D01*
X30237Y160832D01*
X30219Y160600D01*
X30237Y160368D01*
X30269Y160237D01*
X30228Y160220D01*
X30029Y160098D01*
X29853Y159947D01*
X29702Y159771D01*
X29581Y159572D01*
X29491Y159358D01*
X29437Y159132D01*
X29419Y158900D01*
X29437Y158668D01*
X29491Y158442D01*
X29581Y158228D01*
X29702Y158029D01*
X29853Y157853D01*
X30029Y157702D01*
X30228Y157580D01*
X30442Y157492D01*
X30668Y157437D01*
X30900Y157419D01*
X31132Y157437D01*
X31358Y157492D01*
X31572Y157580D01*
X31590Y157591D01*
X32041Y157379D01*
X32090Y157320D01*
Y154119D01*
X32105Y153933D01*
X32148Y153751D01*
X32220Y153578D01*
X32318Y153419D01*
X32439Y153277D01*
X36714Y149002D01*
X36732Y148821D01*
X36617Y148391D01*
X36567Y148360D01*
X36391Y148209D01*
X36240Y148033D01*
X36118Y147835D01*
X36029Y147620D01*
X35975Y147394D01*
X35703Y147176D01*
X35479Y147187D01*
X35400Y147192D01*
X21149D01*
X11892Y156449D01*
Y160700D01*
X11873Y160999D01*
X11814Y161293D01*
X11718Y161577D01*
X11585Y161846D01*
X11419Y162095D01*
X11221Y162321D01*
X10995Y162519D01*
X10746Y162685D01*
X10477Y162818D01*
X10193Y162914D01*
X9899Y162973D01*
X9600Y162992D01*
X9301Y162973D01*
X9007Y162914D01*
X8723Y162818D01*
X8454Y162685D01*
X8204Y162519D01*
X7979Y162321D01*
X7781Y162095D01*
X7615Y161846D01*
X7482Y161577D01*
X7386Y161293D01*
X7327Y160999D01*
X7308Y160700D01*
Y155500D01*
X7327Y155201D01*
X7386Y154907D01*
X7482Y154623D01*
X7615Y154354D01*
X7781Y154104D01*
X7979Y153879D01*
X17666Y144192D01*
X10887Y137413D01*
X10755Y137259D01*
X10649Y137086D01*
X10572Y136899D01*
X10525Y136702D01*
X10509Y136500D01*
Y126000D01*
X10525Y125798D01*
X10572Y125601D01*
X10649Y125414D01*
X10755Y125241D01*
X10887Y125087D01*
X18187Y117787D01*
X18341Y117655D01*
X18514Y117549D01*
X18701Y117472D01*
X18898Y117424D01*
X19100Y117409D01*
X22160D01*
Y110260D01*
X25307D01*
X30709Y104858D01*
Y101476D01*
X30400D01*
X30168Y101460D01*
X29941Y101415D01*
X29721Y101340D01*
X29512Y101238D01*
X29319Y101109D01*
X29145Y100955D01*
X28991Y100781D01*
X28862Y100588D01*
X28760Y100379D01*
X28685Y100160D01*
X28640Y99932D01*
X28624Y99700D01*
X28640Y99468D01*
X28685Y99240D01*
X28760Y99021D01*
X28862Y98812D01*
X28991Y98619D01*
X29145Y98445D01*
X29319Y98291D01*
X29512Y98162D01*
X29721Y98060D01*
X29941Y97985D01*
X30168Y97940D01*
X30400Y97925D01*
X30709D01*
Y96342D01*
X29595Y95228D01*
X29441Y95052D01*
X29311Y94857D01*
X29207Y94647D01*
X29132Y94425D01*
X29086Y94196D01*
X29071Y93962D01*
Y68475D01*
X28827Y68365D01*
X28571Y68352D01*
X28498Y68471D01*
X28347Y68647D01*
X28170Y68798D01*
X27972Y68919D01*
X27758Y69008D01*
X27532Y69063D01*
X27300Y69081D01*
X27068Y69063D01*
X26842Y69008D01*
X26628Y68919D01*
X26430Y68798D01*
X26253Y68647D01*
X26102Y68471D01*
X25980Y68272D01*
X25892Y68058D01*
X25837Y67832D01*
X25819Y67600D01*
X25837Y67368D01*
X25892Y67142D01*
X25980Y66928D01*
X26102Y66729D01*
X26253Y66553D01*
X26430Y66402D01*
X26628Y66281D01*
X26842Y66192D01*
X27068Y66137D01*
X27300Y66119D01*
X27326Y66121D01*
X27485Y65632D01*
X27430Y65598D01*
X27253Y65447D01*
X27102Y65271D01*
X26981Y65072D01*
X26891Y64858D01*
X26879Y64805D01*
X26663Y64590D01*
X26357Y64584D01*
X26033Y64666D01*
X25956Y64756D01*
X25780Y64907D01*
X25581Y65029D01*
X25367Y65118D01*
X25141Y65172D01*
X24909Y65190D01*
X24678Y65172D01*
X24452Y65118D01*
X24237Y65029D01*
X24039Y64907D01*
X23862Y64756D01*
X23711Y64580D01*
X23590Y64381D01*
X23501Y64167D01*
X23446Y63941D01*
X23428Y63709D01*
X23446Y63477D01*
X23501Y63252D01*
X23590Y63037D01*
X23711Y62839D01*
X23721Y62827D01*
X23731Y62789D01*
X23650Y62330D01*
X23590Y62237D01*
X23415Y62156D01*
X23288Y62208D01*
X23062Y62263D01*
X22831Y62281D01*
X22599Y62263D01*
X22373Y62208D01*
X22158Y62120D01*
X22137Y62107D01*
X22098Y62170D01*
X21947Y62347D01*
X21770Y62498D01*
X21572Y62620D01*
X21358Y62708D01*
X21132Y62763D01*
X20900Y62781D01*
X20668Y62763D01*
X20442Y62708D01*
X20228Y62620D01*
X20030Y62498D01*
X19853Y62347D01*
X19702Y62170D01*
X19580Y61972D01*
X19491Y61758D01*
X19437Y61532D01*
X19419Y61300D01*
X19437Y61068D01*
X19491Y60842D01*
X19580Y60628D01*
X19702Y60430D01*
X19853Y60253D01*
X20003Y60015D01*
X19881Y59607D01*
X19849Y59556D01*
X19772Y59368D01*
X19725Y59171D01*
X19709Y58969D01*
Y35518D01*
X19681Y35472D01*
X19591Y35258D01*
X19537Y35032D01*
X19519Y34800D01*
X19537Y34568D01*
X19591Y34342D01*
X19681Y34128D01*
X19802Y33929D01*
X19953Y33753D01*
X20130Y33602D01*
X20328Y33481D01*
X20542Y33391D01*
X20768Y33337D01*
X21000Y33319D01*
X21232Y33337D01*
X21458Y33391D01*
X21672Y33481D01*
X21870Y33602D01*
X22047Y33753D01*
X22198Y33929D01*
X22320Y34128D01*
X22409Y34342D01*
X22463Y34568D01*
X22481Y34800D01*
X22463Y35032D01*
X22409Y35258D01*
X22320Y35472D01*
X22291Y35518D01*
Y42322D01*
X22753Y42513D01*
X25833Y39433D01*
X26010Y39279D01*
X26204Y39149D01*
X26414Y39045D01*
X26636Y38970D01*
X26866Y38924D01*
X27100Y38909D01*
X27700D01*
X27934Y38924D01*
X28164Y38970D01*
X28385Y39045D01*
X28596Y39149D01*
X28790Y39279D01*
X28967Y39433D01*
X29121Y39610D01*
X29251Y39804D01*
X29355Y40014D01*
X29430Y40236D01*
X29476Y40466D01*
X29491Y40700D01*
X29476Y40934D01*
X29430Y41164D01*
X29355Y41385D01*
X29251Y41596D01*
X29121Y41790D01*
X28967Y41967D01*
X28790Y42121D01*
X28596Y42251D01*
X28385Y42355D01*
X28164Y42430D01*
X27934Y42476D01*
X27852Y42481D01*
X24991Y45342D01*
Y54658D01*
X26425Y56091D01*
X26650Y56050D01*
X26928Y55888D01*
X26937Y55768D01*
X26992Y55542D01*
X27081Y55328D01*
X27202Y55129D01*
X27353Y54953D01*
X27529Y54802D01*
X27728Y54681D01*
X27942Y54592D01*
X28168Y54537D01*
X28400Y54519D01*
X28632Y54537D01*
X28858Y54592D01*
X29072Y54681D01*
X29270Y54802D01*
X29447Y54953D01*
X29598Y55129D01*
X29719Y55328D01*
X29809Y55542D01*
X29861Y55763D01*
X29968Y55737D01*
X30200Y55719D01*
X30432Y55737D01*
X30658Y55791D01*
X30872Y55880D01*
X31071Y56002D01*
X31247Y56153D01*
X31578Y56234D01*
X31841Y56095D01*
X32028Y55980D01*
X32242Y55892D01*
X32468Y55837D01*
X32700Y55819D01*
X32932Y55837D01*
X33158Y55892D01*
X33372Y55980D01*
X33571Y56102D01*
X33747Y56253D01*
X33898Y56429D01*
X34020Y56628D01*
X34108Y56842D01*
X34163Y57068D01*
X34181Y57300D01*
X34163Y57532D01*
X34108Y57758D01*
X34020Y57972D01*
X33898Y58170D01*
X33747Y58347D01*
X33571Y58498D01*
X33372Y58619D01*
X33158Y58709D01*
X32932Y58763D01*
X32700Y58781D01*
X32468Y58763D01*
X32242Y58709D01*
X32028Y58619D01*
X31830Y58498D01*
X31653Y58347D01*
X31322Y58266D01*
X31059Y58405D01*
X30872Y58520D01*
X30658Y58609D01*
X30432Y58663D01*
X30200Y58681D01*
X29968Y58663D01*
X29742Y58609D01*
X29528Y58520D01*
X29281Y58948D01*
X32128Y61795D01*
X32283Y61971D01*
X32413Y62166D01*
X32517Y62376D01*
X32592Y62598D01*
X32638Y62828D01*
X32653Y63062D01*
Y78168D01*
X33153Y78353D01*
X33329Y78202D01*
X33528Y78080D01*
X33742Y77991D01*
X33968Y77937D01*
X34200Y77919D01*
X34432Y77937D01*
X34658Y77991D01*
X34872Y78080D01*
X35070Y78202D01*
X35247Y78353D01*
X35398Y78530D01*
X35519Y78728D01*
X35609Y78942D01*
X35663Y79168D01*
X35681Y79400D01*
X35663Y79632D01*
X35609Y79858D01*
X35519Y80072D01*
X35398Y80270D01*
X35247Y80447D01*
X35070Y80598D01*
X34872Y80720D01*
X34658Y80809D01*
X34432Y80863D01*
X34292Y80874D01*
X33637Y81529D01*
Y83779D01*
X33687Y83878D01*
X34100Y84219D01*
X34332Y84237D01*
X34558Y84291D01*
X34772Y84381D01*
X34971Y84502D01*
X35147Y84653D01*
X35298Y84829D01*
X35419Y85028D01*
X35508Y85242D01*
X35563Y85468D01*
X35581Y85700D01*
X35563Y85932D01*
X35508Y86158D01*
X35419Y86372D01*
X35298Y86571D01*
X35147Y86747D01*
X34971Y86898D01*
X34772Y87019D01*
X34621Y87082D01*
Y92405D01*
X35956Y93739D01*
X36061Y93863D01*
X36146Y94002D01*
X36208Y94152D01*
X36246Y94310D01*
X36259Y94472D01*
Y97293D01*
X36587Y97621D01*
X36953Y97953D01*
X37130Y97802D01*
X37328Y97680D01*
X37542Y97592D01*
X37768Y97537D01*
X38000Y97519D01*
X38232Y97537D01*
X38458Y97592D01*
X38672Y97680D01*
X38870Y97802D01*
X39047Y97953D01*
X39198Y98129D01*
X39320Y98328D01*
X39408Y98542D01*
X39463Y98768D01*
X39480Y98987D01*
X39512Y99013D01*
X39966Y99208D01*
X41101Y98073D01*
Y83625D01*
X41117Y83423D01*
X41164Y83226D01*
X41241Y83039D01*
X41347Y82866D01*
X41479Y82712D01*
X44709Y79482D01*
Y44800D01*
X44609Y44687D01*
X44209Y44487D01*
X44158Y44508D01*
X43932Y44563D01*
X43700Y44581D01*
X43468Y44563D01*
X43242Y44508D01*
X43028Y44420D01*
X42829Y44298D01*
X42653Y44147D01*
X42502Y43971D01*
X42380Y43772D01*
X42292Y43558D01*
X42237Y43332D01*
X42219Y43100D01*
X42237Y42868D01*
X42292Y42642D01*
X42380Y42428D01*
X42502Y42230D01*
X42653Y42053D01*
X42829Y41902D01*
X43028Y41780D01*
X43242Y41691D01*
X43374Y41660D01*
X44663Y40371D01*
Y39029D01*
X44653Y39020D01*
X44502Y38843D01*
X44381Y38645D01*
X44291Y38431D01*
X44237Y38205D01*
X44219Y37973D01*
X44237Y37741D01*
X44291Y37515D01*
X44381Y37301D01*
X44502Y37102D01*
X44653Y36926D01*
X44829Y36775D01*
X45028Y36653D01*
X45242Y36564D01*
X45468Y36510D01*
X45700Y36492D01*
X45932Y36510D01*
X46158Y36564D01*
X46372Y36653D01*
X46571Y36775D01*
X46747Y36926D01*
X46898Y37102D01*
X47019Y37301D01*
X47109Y37515D01*
X47163Y37741D01*
X47181Y37973D01*
X47163Y38205D01*
X47109Y38431D01*
X47019Y38645D01*
X47012Y38657D01*
X47028Y38738D01*
X47571Y38903D01*
X50162Y36311D01*
X50317Y36180D01*
X50489Y36074D01*
X50676Y35996D01*
X50874Y35949D01*
X51076Y35933D01*
X61924D01*
X62126Y35949D01*
X62324Y35996D01*
X62511Y36074D01*
X62683Y36180D01*
X62838Y36311D01*
X63160Y36634D01*
X63218Y36632D01*
X63666Y36432D01*
X63667Y36416D01*
X63714Y36220D01*
X63791Y36034D01*
X63896Y35862D01*
X64027Y35709D01*
Y35424D01*
X63896Y35271D01*
X63791Y35099D01*
X63714Y34913D01*
X63667Y34717D01*
X63651Y34517D01*
X63667Y34316D01*
X63714Y34120D01*
X63791Y33934D01*
X63896Y33762D01*
X64027Y33609D01*
X64180Y33478D01*
X64352Y33373D01*
X64538Y33296D01*
X64734Y33249D01*
X64935Y33233D01*
X65135Y33249D01*
X65331Y33296D01*
X65469Y33353D01*
X65646Y33289D01*
X65969Y33078D01*
Y31977D01*
X64857Y30865D01*
X60962D01*
X60421Y31405D01*
X60409Y31458D01*
X60320Y31672D01*
X60198Y31870D01*
X60047Y32047D01*
X59870Y32198D01*
X59672Y32320D01*
X59458Y32408D01*
X59232Y32463D01*
X59000Y32481D01*
X58768Y32463D01*
X58542Y32408D01*
X58328Y32320D01*
X58130Y32198D01*
X57953Y32047D01*
X57802Y31870D01*
X57680Y31672D01*
X57591Y31458D01*
X57537Y31232D01*
X57519Y31000D01*
X57537Y30768D01*
X57591Y30542D01*
X57680Y30328D01*
X57802Y30130D01*
X57953Y29953D01*
X58015Y29900D01*
X58110Y29620D01*
X58072Y29253D01*
X58038Y29214D01*
X57916Y29016D01*
X57828Y28801D01*
X57773Y28575D01*
X57755Y28343D01*
X57773Y28112D01*
X57828Y27886D01*
X57916Y27671D01*
X58038Y27473D01*
X58189Y27296D01*
X58233Y27259D01*
X58287Y27195D01*
X58341Y27142D01*
X58501Y27005D01*
X58680Y26895D01*
X58875Y26814D01*
X59079Y26765D01*
X59113Y26763D01*
X59130Y26755D01*
X59335Y26706D01*
X59545Y26690D01*
X66031D01*
X66241Y26706D01*
X66446Y26755D01*
X66640Y26836D01*
X66820Y26946D01*
X66980Y27082D01*
X69752Y29854D01*
X69888Y30014D01*
X69998Y30194D01*
X70079Y30388D01*
X70128Y30593D01*
X70144Y30803D01*
Y33027D01*
X70224Y33155D01*
X70644Y33457D01*
X70655Y33456D01*
X70887Y33474D01*
X71113Y33529D01*
X71182Y33557D01*
X72251Y32488D01*
X72412Y32352D01*
X72591Y32242D01*
X72785Y32161D01*
X72990Y32112D01*
X73200Y32095D01*
X78585D01*
X78746Y32028D01*
X78972Y31974D01*
X79204Y31956D01*
X79435Y31974D01*
X79468Y31982D01*
X79880Y31733D01*
X79968Y31614D01*
Y31466D01*
X79982Y31284D01*
X80025Y31106D01*
X80095Y30937D01*
X80190Y30781D01*
X80309Y30642D01*
X82392Y28559D01*
X82396Y28508D01*
X82450Y28282D01*
X82539Y28068D01*
X82660Y27870D01*
X82811Y27693D01*
X82988Y27542D01*
X83186Y27421D01*
X83320Y27001D01*
X83281Y26835D01*
X83267Y26665D01*
Y21003D01*
X79840Y17576D01*
X79668Y17563D01*
X79442Y17508D01*
X79228Y17420D01*
X79030Y17298D01*
X78853Y17147D01*
X78702Y16971D01*
X78580Y16772D01*
X78491Y16558D01*
X78437Y16332D01*
X78419Y16100D01*
X78437Y15868D01*
X78491Y15642D01*
X78580Y15428D01*
X78702Y15229D01*
X78853Y15053D01*
X79030Y14902D01*
X79228Y14781D01*
X79442Y14692D01*
X79668Y14637D01*
X79900Y14619D01*
X80132Y14637D01*
X80358Y14692D01*
X80572Y14781D01*
X80770Y14902D01*
X80947Y15053D01*
X81098Y15229D01*
X81220Y15428D01*
X81309Y15642D01*
X81363Y15868D01*
X81376Y16040D01*
X85121Y19785D01*
X85232Y19915D01*
X85321Y20060D01*
X85386Y20218D01*
X85426Y20383D01*
X85439Y20553D01*
Y26215D01*
X85961Y26738D01*
X92511D01*
X92681Y26751D01*
X92847Y26791D01*
X93005Y26856D01*
X93150Y26945D01*
X93279Y27056D01*
X93654Y27430D01*
X93800Y27419D01*
X94032Y27437D01*
X94258Y27492D01*
X94472Y27580D01*
X94670Y27702D01*
X94847Y27853D01*
X94998Y28030D01*
X95120Y28228D01*
X95209Y28442D01*
X95263Y28668D01*
X95281Y28900D01*
X95263Y29132D01*
X95209Y29358D01*
X95120Y29572D01*
X94998Y29770D01*
X94847Y29947D01*
X94670Y30098D01*
X94472Y30220D01*
X94258Y30308D01*
X94032Y30363D01*
X93800Y30381D01*
X93568Y30363D01*
X93342Y30308D01*
X93128Y30220D01*
X92930Y30098D01*
X92753Y29947D01*
X92602Y29770D01*
X92480Y29572D01*
X92392Y29358D01*
X92354Y29202D01*
X92062Y28910D01*
X88787D01*
X88595Y29372D01*
X95138Y35914D01*
X98998D01*
X99129Y35802D01*
X99328Y35680D01*
X99542Y35592D01*
X99768Y35537D01*
X100000Y35519D01*
X100232Y35537D01*
X100458Y35592D01*
X100672Y35680D01*
X100871Y35802D01*
X101047Y35953D01*
X101198Y36130D01*
X101320Y36328D01*
X101409Y36542D01*
X101463Y36768D01*
X101481Y37000D01*
X101463Y37232D01*
X101409Y37458D01*
X101320Y37672D01*
X101198Y37870D01*
X101047Y38047D01*
X100871Y38198D01*
X100672Y38320D01*
X100458Y38408D01*
X100232Y38463D01*
X100000Y38481D01*
X99768Y38463D01*
X99542Y38408D01*
X99328Y38320D01*
X99129Y38198D01*
X98998Y38086D01*
X96300D01*
X96093Y38586D01*
X97626Y40119D01*
X97738Y40249D01*
X97827Y40395D01*
X97892Y40553D01*
X97932Y40720D01*
X97946Y40890D01*
Y43733D01*
X98429Y43854D01*
X98515Y43645D01*
X98633Y43453D01*
X98781Y43281D01*
X101980Y40080D01*
X102153Y39933D01*
X102345Y39815D01*
X102554Y39729D01*
X102775Y39676D01*
X103000Y39658D01*
X111617D01*
X122469Y28807D01*
X122474Y28702D01*
X122306Y28262D01*
X122268Y28253D01*
X122054Y28164D01*
X121855Y28043D01*
X121679Y27892D01*
X121528Y27715D01*
X121406Y27517D01*
X121318Y27302D01*
X121263Y27076D01*
X121245Y26845D01*
X121263Y26613D01*
X121318Y26387D01*
X121406Y26172D01*
X121528Y25974D01*
X121679Y25797D01*
X121855Y25646D01*
X122054Y25525D01*
X122268Y25436D01*
X122494Y25382D01*
X122598Y25374D01*
Y24872D01*
X122494Y24864D01*
X122268Y24810D01*
X122054Y24721D01*
X121855Y24599D01*
X121679Y24448D01*
X121528Y24272D01*
X121406Y24074D01*
X121318Y23859D01*
X121263Y23633D01*
X121245Y23401D01*
X121263Y23170D01*
X121318Y22944D01*
X121406Y22729D01*
X121465Y22633D01*
X121399Y22577D01*
X121248Y22400D01*
X121127Y22202D01*
X121038Y21987D01*
X120983Y21761D01*
X120965Y21530D01*
X120983Y21298D01*
X120984Y21295D01*
Y17884D01*
X120963Y17797D01*
X120945Y17565D01*
X120963Y17334D01*
X121018Y17108D01*
X121106Y16893D01*
X121107Y16893D01*
X121245Y16650D01*
Y14350D01*
X119145Y14350D01*
Y9625D01*
X121507Y9625D01*
Y11925D01*
X123607Y11925D01*
Y12208D01*
X123787Y12392D01*
X124107Y12564D01*
X124209Y12539D01*
X124441Y12521D01*
X124673Y12539D01*
X124899Y12593D01*
X125113Y12682D01*
X125312Y12804D01*
X125488Y12955D01*
X125639Y13131D01*
X125761Y13330D01*
X125850Y13544D01*
X125904Y13770D01*
X125922Y14002D01*
X125904Y14234D01*
X125850Y14459D01*
X125761Y14674D01*
X125639Y14872D01*
X125488Y15049D01*
X125312Y15200D01*
X125113Y15321D01*
X124899Y15410D01*
X124673Y15465D01*
X124441Y15483D01*
X124209Y15465D01*
X124107Y15440D01*
X123787Y15611D01*
X123607Y15796D01*
Y16650D01*
X123746Y16893D01*
X123746Y16893D01*
X123834Y17108D01*
X123889Y17334D01*
X123907Y17565D01*
X123889Y17797D01*
X123868Y17884D01*
Y20088D01*
X124568D01*
X124794Y20106D01*
X124881Y20127D01*
X124890Y20123D01*
X125175Y19917D01*
X125289Y19746D01*
X125271Y19514D01*
X125289Y19283D01*
X125343Y19057D01*
X125432Y18842D01*
X125553Y18644D01*
X125704Y18467D01*
X125881Y18316D01*
X126079Y18195D01*
X126294Y18106D01*
X126520Y18052D01*
X126751Y18034D01*
X126983Y18052D01*
X127209Y18106D01*
X127424Y18195D01*
X127622Y18316D01*
X127689Y18374D01*
X127756Y18316D01*
X127954Y18195D01*
X128169Y18106D01*
X128395Y18052D01*
X128626Y18034D01*
X128858Y18052D01*
X129084Y18106D01*
X129299Y18195D01*
X129497Y18316D01*
X129564Y18374D01*
X129631Y18316D01*
X129829Y18195D01*
X130043Y18106D01*
X130269Y18052D01*
X130501Y18034D01*
X130733Y18052D01*
X130959Y18106D01*
X131173Y18195D01*
X131372Y18316D01*
X131548Y18467D01*
X131699Y18644D01*
X131821Y18842D01*
X131910Y19057D01*
X131964Y19283D01*
X131982Y19514D01*
X131964Y19746D01*
X131910Y19972D01*
X131821Y20187D01*
X131699Y20385D01*
X131548Y20562D01*
X131372Y20713D01*
X131173Y20834D01*
X130959Y20923D01*
X130733Y20977D01*
X130501Y20995D01*
X130269Y20977D01*
X130043Y20923D01*
X129829Y20834D01*
X129631Y20713D01*
X129564Y20655D01*
X129497Y20713D01*
X129299Y20834D01*
X129084Y20923D01*
X128858Y20977D01*
X128626Y20995D01*
X128395Y20977D01*
X128169Y20923D01*
X127954Y20834D01*
X127756Y20713D01*
X127689Y20655D01*
X127622Y20713D01*
X127424Y20834D01*
X127209Y20923D01*
X126983Y20977D01*
X126778Y20993D01*
X126727Y21058D01*
X126559Y21482D01*
X126830Y21753D01*
X126977Y21925D01*
X127096Y22118D01*
X127182Y22327D01*
X127235Y22547D01*
X127253Y22772D01*
Y27503D01*
X127235Y27729D01*
X127182Y27949D01*
X127096Y28158D01*
X126977Y28351D01*
X126830Y28523D01*
X113234Y42120D01*
X113062Y42266D01*
X112869Y42385D01*
X112660Y42471D01*
X112440Y42524D01*
X112214Y42542D01*
X103597D01*
X101242Y44897D01*
Y55040D01*
X101224Y55265D01*
X101171Y55485D01*
X101085Y55694D01*
X100967Y55887D01*
X100820Y56059D01*
X99945Y56934D01*
X99898Y57010D01*
X99747Y57187D01*
X99666Y57710D01*
X99700Y57845D01*
X100912Y59057D01*
X101058Y59092D01*
X101272Y59180D01*
X101470Y59302D01*
X101647Y59453D01*
X101798Y59629D01*
X101919Y59828D01*
X102008Y60042D01*
X102063Y60268D01*
X102081Y60500D01*
X102063Y60732D01*
X102008Y60958D01*
X101919Y61172D01*
X101798Y61370D01*
X101647Y61547D01*
X101470Y61698D01*
X101272Y61819D01*
X101058Y61909D01*
X100832Y61963D01*
X100600Y61981D01*
X100368Y61963D01*
X100142Y61909D01*
X99928Y61819D01*
X99730Y61698D01*
X99553Y61547D01*
X99402Y61370D01*
X99281Y61172D01*
X99191Y60958D01*
X99157Y60812D01*
X95803Y57459D01*
X95591Y57442D01*
X95208Y57533D01*
X95190Y57563D01*
X95079Y57693D01*
X87847Y64925D01*
Y80287D01*
X87833Y80458D01*
X87793Y80624D01*
X87728Y80782D01*
X87638Y80928D01*
X87527Y81058D01*
X85491Y83095D01*
Y84004D01*
X85598Y84130D01*
X85720Y84328D01*
X85808Y84542D01*
X85863Y84768D01*
X85881Y85000D01*
X86300Y85391D01*
X99244D01*
X99309Y85343D01*
X99548Y84891D01*
X99545Y84886D01*
X99470Y84664D01*
X99424Y84434D01*
X99409Y84200D01*
X99424Y83966D01*
X99470Y83736D01*
X99545Y83514D01*
X99649Y83304D01*
X99779Y83110D01*
X99933Y82933D01*
X100110Y82779D01*
X100304Y82649D01*
X100514Y82545D01*
X100736Y82470D01*
X100966Y82424D01*
X101200Y82409D01*
X110100D01*
X110334Y82424D01*
X110564Y82470D01*
X110785Y82545D01*
X110996Y82649D01*
X111190Y82779D01*
X111367Y82933D01*
X111521Y83110D01*
X111651Y83304D01*
X111755Y83514D01*
X111830Y83736D01*
X111876Y83966D01*
X111891Y84200D01*
X111876Y84434D01*
X111830Y84664D01*
X111755Y84886D01*
X111752Y84891D01*
X111991Y85343D01*
X112056Y85391D01*
X147490D01*
X147652Y85403D01*
X147811Y85441D01*
X147961Y85504D01*
X148100Y85589D01*
X148223Y85694D01*
X150090Y87561D01*
X150590Y87354D01*
X150590Y4480D01*
X150109Y4358D01*
X150020Y4572D01*
X149898Y4770D01*
X149747Y4947D01*
X149571Y5098D01*
X149372Y5220D01*
X149158Y5308D01*
X148932Y5363D01*
X148700Y5381D01*
X148468Y5363D01*
X148242Y5308D01*
X148028Y5220D01*
X147829Y5098D01*
X147653Y4947D01*
X147502Y4770D01*
X147380Y4572D01*
X147292Y4358D01*
X147237Y4132D01*
X147219Y3900D01*
X147237Y3668D01*
X147292Y3442D01*
X147380Y3228D01*
X147502Y3029D01*
X147653Y2853D01*
X147829Y2702D01*
X148028Y2581D01*
X148242Y2492D01*
X148468Y2437D01*
X148700Y2419D01*
X148932Y2437D01*
X149158Y2492D01*
X149372Y2581D01*
X149571Y2702D01*
X149747Y2853D01*
X149898Y3029D01*
X150020Y3228D01*
X150109Y3442D01*
X150590Y3320D01*
X150590Y1383D01*
X116500D01*
Y30682D01*
X100752D01*
X100752Y7060D01*
Y2062D01*
X100293Y1754D01*
X100076Y1784D01*
X99950Y1928D01*
X99736Y2115D01*
X99500Y2273D01*
X99246Y2398D01*
X98977Y2490D01*
X98698Y2545D01*
X98415Y2564D01*
X98132Y2545D01*
X97853Y2490D01*
X97585Y2398D01*
X97330Y2273D01*
X97094Y2115D01*
X96881Y1928D01*
X96755Y1784D01*
X96447Y1742D01*
X96139Y1784D01*
X96013Y1928D01*
X95799Y2115D01*
X95563Y2273D01*
X95309Y2398D01*
X95040Y2490D01*
X94761Y2545D01*
X94478Y2564D01*
X94195Y2545D01*
X93916Y2490D01*
X93648Y2398D01*
X93393Y2273D01*
X93157Y2115D01*
X92944Y1928D01*
X92756Y1715D01*
X92599Y1479D01*
X92552Y1383D01*
X63981D01*
Y7087D01*
X63962Y7280D01*
X63906Y7465D01*
X63815Y7636D01*
X63692Y7786D01*
X63542Y7909D01*
X63371Y8000D01*
X63263Y8033D01*
X63192Y8291D01*
X63235Y8554D01*
X63371Y8610D01*
X63569Y8732D01*
X63746Y8883D01*
X63897Y9059D01*
X64018Y9258D01*
X64107Y9472D01*
X64161Y9698D01*
X64179Y9930D01*
X64161Y10162D01*
X64107Y10388D01*
X64018Y10602D01*
X63897Y10800D01*
X63746Y10977D01*
X63569Y11128D01*
X63371Y11249D01*
X63156Y11338D01*
X62930Y11393D01*
X62698Y11411D01*
X62467Y11393D01*
X62241Y11338D01*
X62026Y11249D01*
X61828Y11128D01*
X61651Y10977D01*
X61500Y10800D01*
X61379Y10602D01*
X61290Y10388D01*
X61236Y10162D01*
X61217Y9930D01*
X61236Y9698D01*
X61290Y9472D01*
X61379Y9258D01*
X61500Y9059D01*
X61651Y8883D01*
X61828Y8732D01*
X62026Y8610D01*
X62110Y8576D01*
X62011Y8076D01*
X31496D01*
X31303Y8057D01*
X31117Y8000D01*
X30946Y7909D01*
X30797Y7786D01*
X30674Y7636D01*
X30582Y7465D01*
X30526Y7280D01*
X30507Y7087D01*
Y1383D01*
X989D01*
Y37121D01*
X6142D01*
X6168Y37124D01*
X6477Y36801D01*
X6530Y36677D01*
X6448Y36395D01*
X6392Y36064D01*
X6373Y35728D01*
X6392Y35393D01*
X6448Y35061D01*
X6541Y34738D01*
X6670Y34428D01*
X6833Y34134D01*
X7027Y33860D01*
X7251Y33609D01*
X7502Y33385D01*
X7776Y33191D01*
X8070Y33028D01*
X8380Y32900D01*
X8703Y32807D01*
X9035Y32750D01*
X9370Y32732D01*
X9706Y32750D01*
X10037Y32807D01*
X10360Y32900D01*
X10670Y33028D01*
X10965Y33191D01*
X11239Y33385D01*
X11489Y33609D01*
X11713Y33860D01*
X11908Y34134D01*
X12070Y34428D01*
X12199Y34738D01*
X12292Y35061D01*
X12348Y35393D01*
X12367Y35728D01*
X12348Y36064D01*
X12292Y36395D01*
X12199Y36718D01*
X12070Y37029D01*
X11908Y37323D01*
X11713Y37597D01*
X11489Y37847D01*
X11239Y38071D01*
X10965Y38266D01*
X10670Y38428D01*
X10360Y38557D01*
X10037Y38650D01*
X9706Y38706D01*
X9370Y38725D01*
X9035Y38706D01*
X8703Y38650D01*
X8380Y38557D01*
X8070Y38428D01*
X7776Y38266D01*
X7631Y38163D01*
X7243Y38307D01*
X7131Y38411D01*
Y48046D01*
X7243Y48149D01*
X7631Y48294D01*
X7776Y48191D01*
X8070Y48028D01*
X8380Y47900D01*
X8703Y47807D01*
X9035Y47750D01*
X9370Y47732D01*
X9706Y47750D01*
X10037Y47807D01*
X10360Y47900D01*
X10670Y48028D01*
X10965Y48191D01*
X11239Y48385D01*
X11489Y48609D01*
X11713Y48860D01*
X11908Y49134D01*
X12070Y49428D01*
X12199Y49738D01*
X12292Y50062D01*
X12348Y50393D01*
X12367Y50728D01*
X12348Y51064D01*
X12292Y51395D01*
X12199Y51718D01*
X12070Y52029D01*
X11908Y52323D01*
X11713Y52597D01*
X11489Y52847D01*
X11239Y53071D01*
X10965Y53266D01*
X10670Y53428D01*
X10360Y53557D01*
X10037Y53650D01*
X9706Y53706D01*
X9370Y53725D01*
X9035Y53706D01*
X8703Y53650D01*
X8380Y53557D01*
X8070Y53428D01*
X7776Y53266D01*
X7502Y53071D01*
X7251Y52847D01*
X7027Y52597D01*
X6833Y52323D01*
X6670Y52029D01*
X6541Y51718D01*
X6448Y51395D01*
X6392Y51064D01*
X6373Y50728D01*
X6392Y50393D01*
X6448Y50062D01*
X6530Y49780D01*
X6477Y49655D01*
X6168Y49333D01*
X6142Y49335D01*
X989D01*
Y67365D01*
X1085Y67412D01*
X1321Y67570D01*
X1534Y67757D01*
X1722Y67970D01*
X1879Y68206D01*
X2005Y68461D01*
X2096Y68730D01*
X2151Y69008D01*
X2170Y69291D01*
X2151Y69575D01*
X2096Y69853D01*
X2005Y70122D01*
X1879Y70376D01*
X1722Y70612D01*
X1534Y70826D01*
X1390Y70952D01*
X1348Y71260D01*
X1390Y71568D01*
X1534Y71694D01*
X1722Y71907D01*
X1879Y72143D01*
X2005Y72398D01*
X2096Y72667D01*
X2151Y72945D01*
X2170Y73228D01*
X2151Y73512D01*
X2096Y73790D01*
X2005Y74059D01*
X1879Y74313D01*
X1722Y74549D01*
X1534Y74763D01*
X1390Y74889D01*
X1348Y75197D01*
X1390Y75505D01*
X1534Y75631D01*
X1722Y75844D01*
X1879Y76080D01*
X2005Y76335D01*
X2096Y76604D01*
X2151Y76882D01*
X2170Y77165D01*
X2151Y77449D01*
X2096Y77727D01*
X2005Y77996D01*
X1879Y78250D01*
X1722Y78486D01*
X1534Y78700D01*
X1321Y78887D01*
X1085Y79045D01*
X989Y79092D01*
Y197830D01*
X92562D01*
X92609Y197734D01*
X92767Y197498D01*
X92954Y197285D01*
X93167Y197098D01*
X93403Y196940D01*
X93658Y196814D01*
X93927Y196723D01*
X94205Y196668D01*
X94488Y196649D01*
X94771Y196668D01*
X95050Y196723D01*
X95319Y196814D01*
X95573Y196940D01*
X95809Y197098D01*
X96023Y197285D01*
X96149Y197429D01*
X96457Y197471D01*
X96765Y197429D01*
X96891Y197285D01*
X97104Y197098D01*
X97340Y196940D01*
X97595Y196814D01*
X97864Y196723D01*
X98142Y196668D01*
X98425Y196649D01*
X98708Y196668D01*
X98987Y196723D01*
X99256Y196814D01*
X99510Y196940D01*
X99746Y197098D01*
X99960Y197285D01*
X100086Y197429D01*
X100394Y197471D01*
X100702Y197429D01*
X100828Y197285D01*
X101041Y197098D01*
X101277Y196940D01*
X101532Y196814D01*
X101801Y196723D01*
X102079Y196668D01*
X102362Y196649D01*
X102645Y196668D01*
X102924Y196723D01*
X103193Y196814D01*
X103447Y196940D01*
X103683Y197098D01*
X103897Y197285D01*
X104084Y197498D01*
X104242Y197734D01*
X104289Y197830D01*
X151767D01*
Y176129D01*
D02*
G37*
G36*
X51113Y153463D02*
X50613Y153126D01*
X50475Y153153D01*
X50252Y153109D01*
X50179Y153149D01*
X49899Y153428D01*
X49859Y153502D01*
X49904Y153724D01*
X49827Y154108D01*
X49610Y154434D01*
X49442Y154546D01*
X49432Y154561D01*
X43707Y160286D01*
Y163577D01*
X43997Y163635D01*
X44322Y163853D01*
X44540Y164178D01*
X44616Y164562D01*
X44540Y164946D01*
X44322Y165272D01*
X43997Y165489D01*
X43613Y165566D01*
X43229Y165489D01*
X42903Y165272D01*
X42685Y164946D01*
X42671Y164875D01*
X42633Y164856D01*
X42192D01*
X42154Y164875D01*
X42140Y164946D01*
X41922Y165272D01*
X41597Y165489D01*
X41213Y165566D01*
X40829Y165489D01*
X40503Y165272D01*
X40343Y165032D01*
X39976Y164996D01*
X39791Y165025D01*
X39745Y165094D01*
X39557Y165220D01*
X39522Y165272D01*
X39197Y165489D01*
X38813Y165566D01*
X38429Y165489D01*
X38103Y165272D01*
X37885Y164946D01*
X37871Y164875D01*
X37833Y164856D01*
X37392D01*
X37354Y164875D01*
X37340Y164946D01*
X37122Y165272D01*
X36797Y165489D01*
X36413Y165566D01*
X36029Y165489D01*
X35703Y165272D01*
X35486Y164946D01*
X35409Y164562D01*
X35486Y164178D01*
X35703Y163853D01*
X36029Y163635D01*
X36247Y163592D01*
Y157447D01*
X36304Y157158D01*
X36467Y156914D01*
X44914Y148468D01*
X44929Y148458D01*
X45041Y148290D01*
X45366Y148073D01*
X45750Y147996D01*
X46073Y148061D01*
X46213Y148018D01*
X46573Y147764D01*
Y146321D01*
X46630Y146033D01*
X46793Y145789D01*
X47604Y144977D01*
Y141600D01*
X47197Y141245D01*
X46900Y141304D01*
X46439Y141213D01*
X46049Y140952D01*
X46014Y140900D01*
X45180D01*
X45045Y141165D01*
X44986Y141400D01*
X45213Y141739D01*
X45304Y142200D01*
X45213Y142661D01*
X45010Y142965D01*
Y143300D01*
X44940Y143648D01*
X44743Y143943D01*
X34231Y154455D01*
X34231Y167245D01*
X35849Y168862D01*
X39578D01*
X39996Y168400D01*
X40087Y167939D01*
X40349Y167549D01*
X40739Y167287D01*
X41200Y167196D01*
X41661Y167287D01*
X42052Y167549D01*
X42164Y167717D01*
X42391Y167802D01*
X42735Y167780D01*
X42756Y167772D01*
X42903Y167553D01*
X43229Y167335D01*
X43613Y167259D01*
X43997Y167335D01*
X44322Y167553D01*
X44540Y167878D01*
X44616Y168262D01*
X44596Y168362D01*
X44951Y168862D01*
X51113D01*
X51113Y153463D01*
D02*
G37*
G36*
X131127Y143989D02*
X130815Y143593D01*
X130772Y143620D01*
X130558Y143709D01*
X130332Y143763D01*
X130100Y143781D01*
X129868Y143763D01*
X129642Y143709D01*
X129428Y143620D01*
X129229Y143498D01*
X129053Y143347D01*
X128902Y143170D01*
X128780Y142972D01*
X128691Y142758D01*
X128637Y142532D01*
X128619Y142300D01*
X128637Y142068D01*
X128691Y141842D01*
X128780Y141628D01*
X128902Y141429D01*
X129053Y141253D01*
X129229Y141102D01*
X129428Y140981D01*
X129561Y140925D01*
X129491Y140758D01*
X129437Y140532D01*
X129419Y140300D01*
X129437Y140068D01*
X129491Y139842D01*
X129580Y139628D01*
X129702Y139429D01*
X129853Y139253D01*
X130029Y139102D01*
X130228Y138980D01*
X130442Y138891D01*
X130668Y138837D01*
X130900Y138819D01*
X131132Y138837D01*
X131358Y138891D01*
X131572Y138980D01*
X131771Y139102D01*
X131947Y139253D01*
X131956Y139263D01*
X133068D01*
X133960Y138371D01*
X133769Y137909D01*
X123438D01*
X123210Y138138D01*
Y142927D01*
X123197Y143089D01*
X123159Y143247D01*
X123097Y143398D01*
X123012Y143536D01*
X122906Y143660D01*
X122112Y144454D01*
X122303Y144916D01*
X130200D01*
X131127Y143989D01*
D02*
G37*
G36*
X83011Y155271D02*
X82921Y155057D01*
X82867Y154831D01*
X82849Y154599D01*
X82867Y154367D01*
X82921Y154141D01*
X83011Y153927D01*
X83132Y153729D01*
X83283Y153552D01*
X83296Y153541D01*
X83372Y153417D01*
X83492Y153276D01*
X84797Y151971D01*
X84939Y151850D01*
X85097Y151753D01*
X85269Y151682D01*
X85450Y151638D01*
X85635Y151624D01*
X86314D01*
X86570Y151124D01*
X86501Y151029D01*
X85668D01*
X85498Y151015D01*
X85331Y150975D01*
X85173Y150910D01*
X85027Y150820D01*
X84897Y150709D01*
X83610Y149422D01*
X83499Y149292D01*
X83409Y149146D01*
X83344Y148988D01*
X83304Y148821D01*
X83290Y148651D01*
Y144688D01*
X83166Y144636D01*
X82967Y144515D01*
X82791Y144364D01*
X82640Y144187D01*
X82518Y143989D01*
X82429Y143774D01*
X82375Y143548D01*
X82357Y143316D01*
X81959Y142884D01*
X80809D01*
X80660Y142978D01*
X80446Y143246D01*
X80426Y143384D01*
X81471Y144429D01*
X81582Y144559D01*
X81672Y144705D01*
X81737Y144863D01*
X81777Y145029D01*
X81791Y145200D01*
Y151904D01*
X81898Y152030D01*
X82020Y152228D01*
X82108Y152442D01*
X82163Y152668D01*
X82181Y152900D01*
X82163Y153132D01*
X82108Y153358D01*
X82020Y153572D01*
X81898Y153770D01*
X81747Y153947D01*
X81720Y153970D01*
X81635Y154447D01*
X81668Y154625D01*
X82598Y155556D01*
X83011Y155271D01*
D02*
G37*
G36*
X19901Y142627D02*
X20200Y142608D01*
X34451D01*
X35722Y141337D01*
X35691Y140747D01*
X35540Y140570D01*
X35418Y140372D01*
X35329Y140158D01*
X35275Y139932D01*
X35257Y139700D01*
X35275Y139468D01*
X35307Y139337D01*
X35172Y139072D01*
X34956Y138837D01*
X21200D01*
X21038Y138824D01*
X20880Y138786D01*
X20729Y138724D01*
X20591Y138639D01*
X20467Y138533D01*
X17400Y135466D01*
X16947Y135347D01*
X16770Y135498D01*
X16572Y135619D01*
X16358Y135708D01*
X16132Y135763D01*
X15900Y135781D01*
X15668Y135763D01*
X15442Y135708D01*
X15228Y135619D01*
X15030Y135498D01*
X14971Y135448D01*
X14565Y135515D01*
X14414Y135603D01*
X14382Y135726D01*
X16805Y138148D01*
X16942Y138092D01*
X17168Y138037D01*
X17400Y138019D01*
X17632Y138037D01*
X17858Y138092D01*
X18072Y138180D01*
X18271Y138302D01*
X18447Y138453D01*
X18598Y138629D01*
X18720Y138828D01*
X18809Y139042D01*
X18863Y139268D01*
X18881Y139500D01*
X18863Y139732D01*
X18809Y139958D01*
X18720Y140172D01*
X18598Y140371D01*
X18447Y140547D01*
X18411Y140578D01*
X18326Y141037D01*
X18358Y141231D01*
X19778Y142652D01*
X19901Y142627D01*
D02*
G37*
G36*
X25907Y134750D02*
X26217Y134336D01*
X26222Y134295D01*
X26209Y134093D01*
X25788Y133700D01*
X24600D01*
Y132349D01*
X24558Y132273D01*
X24141Y131969D01*
X24100Y131965D01*
X23900Y131981D01*
X23668Y131963D01*
X23442Y131909D01*
X23228Y131819D01*
X23030Y131698D01*
X22853Y131547D01*
X22702Y131370D01*
X22580Y131172D01*
X22491Y130958D01*
X22437Y130732D01*
X22419Y130500D01*
X22437Y130268D01*
X22491Y130042D01*
X22580Y129828D01*
X22702Y129630D01*
X22853Y129453D01*
X23030Y129302D01*
X23228Y129181D01*
X23442Y129092D01*
X23668Y129037D01*
X23900Y129019D01*
X24100Y129035D01*
X24141Y129031D01*
X24558Y128727D01*
X24600Y128651D01*
Y127507D01*
X24467Y127460D01*
X24135Y127303D01*
X23820Y127114D01*
X23524Y126895D01*
X23252Y126648D01*
X23005Y126376D01*
X22786Y126080D01*
X22598Y125765D01*
X22440Y125433D01*
X22317Y125087D01*
X22227Y124731D01*
X22173Y124367D01*
X22155Y124000D01*
X22173Y123633D01*
X22227Y123269D01*
X22317Y122913D01*
X22440Y122567D01*
X22598Y122235D01*
X22786Y121920D01*
X23005Y121624D01*
X23052Y121573D01*
X22830Y121073D01*
X20083D01*
X14173Y126983D01*
Y130311D01*
X14298Y130441D01*
X14673Y130620D01*
X14742Y130591D01*
X14968Y130537D01*
X15200Y130519D01*
X15432Y130537D01*
X15658Y130591D01*
X15872Y130681D01*
X16071Y130802D01*
X16247Y130953D01*
X16256Y130963D01*
X16792D01*
X16954Y130976D01*
X17112Y131014D01*
X17263Y131076D01*
X17401Y131161D01*
X17525Y131267D01*
X18506Y132248D01*
X18927Y132234D01*
X19125Y132160D01*
X19217Y132053D01*
X19394Y131902D01*
X19592Y131781D01*
X19807Y131692D01*
X20033Y131637D01*
X20264Y131619D01*
X20496Y131637D01*
X20722Y131692D01*
X20937Y131781D01*
X21135Y131902D01*
X21312Y132053D01*
X21462Y132229D01*
X21584Y132428D01*
X21673Y132642D01*
X21727Y132868D01*
X21745Y133100D01*
X21744Y133114D01*
X23425Y134795D01*
X25822D01*
X25907Y134750D01*
D02*
G37*
G36*
X149474Y94999D02*
X149619Y94538D01*
X148138Y93056D01*
X148032Y92933D01*
X147948Y92794D01*
X147885Y92644D01*
X147847Y92486D01*
X147835Y92323D01*
Y89629D01*
X146653Y88448D01*
X143967D01*
X143776Y88910D01*
X144383Y89517D01*
X144489Y89641D01*
X144574Y89779D01*
X144636Y89930D01*
X144674Y90088D01*
X144687Y90250D01*
Y92921D01*
X146842Y95076D01*
X149382D01*
X149474Y94999D01*
D02*
G37*
G36*
X74423Y64645D02*
X74216Y64145D01*
X71632D01*
X71563Y64192D01*
X71308Y64642D01*
X71363Y64868D01*
X71381Y65100D01*
X71363Y65332D01*
X71308Y65558D01*
X71219Y65772D01*
X71098Y65970D01*
X71335Y66463D01*
X72605D01*
X74423Y64645D01*
D02*
G37*
G36*
X76999Y83786D02*
X77024Y83764D01*
X77093Y83433D01*
X76772Y83075D01*
X76540Y83057D01*
X76314Y83003D01*
X76099Y82914D01*
X75901Y82793D01*
X75725Y82642D01*
X75573Y82465D01*
X75452Y82267D01*
X75363Y82052D01*
X75309Y81826D01*
X75291Y81595D01*
X75309Y81363D01*
X75363Y81137D01*
X75452Y80922D01*
X75573Y80724D01*
X75725Y80547D01*
X75901Y80396D01*
X76099Y80275D01*
X76314Y80186D01*
X76540Y80132D01*
X76772Y80114D01*
X77003Y80132D01*
X77229Y80186D01*
X77444Y80275D01*
X77642Y80396D01*
X77819Y80547D01*
X78345Y80621D01*
X78471Y80586D01*
X81109Y77948D01*
Y64328D01*
X80647Y64137D01*
X74582Y70201D01*
X74459Y70307D01*
X74320Y70392D01*
X74170Y70454D01*
X74012Y70492D01*
X73849Y70505D01*
X65561D01*
X62871Y73195D01*
Y81669D01*
X62859Y81831D01*
X62821Y81989D01*
X62758Y82139D01*
X62673Y82278D01*
X62568Y82402D01*
X62527Y82442D01*
X62528Y82456D01*
X62510Y82687D01*
X62456Y82914D01*
X62367Y83128D01*
X62245Y83326D01*
X62130Y83461D01*
X62157Y83627D01*
X62328Y83961D01*
X76198D01*
X76360Y83974D01*
X76518Y84012D01*
X76535Y84019D01*
X76999Y83786D01*
D02*
G37*
G36*
X97722Y55033D02*
X97830Y54941D01*
X97906Y54895D01*
X98358Y54442D01*
Y49477D01*
X97892Y49332D01*
X97827Y49490D01*
X97738Y49636D01*
X97626Y49766D01*
X95398Y51994D01*
Y53888D01*
X95471Y54010D01*
X95898Y54319D01*
X95900Y54319D01*
X96132Y54337D01*
X96358Y54391D01*
X96572Y54480D01*
X96771Y54602D01*
X96947Y54753D01*
X97098Y54930D01*
X97117Y54960D01*
X97522Y55060D01*
X97565Y55063D01*
X97722Y55033D01*
D02*
G37*
G36*
X81295Y53099D02*
Y48745D01*
X80926Y48426D01*
X80795Y48381D01*
X80635Y48393D01*
X80404Y48375D01*
X80178Y48321D01*
X79963Y48232D01*
X79765Y48111D01*
X79588Y47960D01*
X79437Y47783D01*
X79364Y47664D01*
X79076Y47627D01*
X78920Y47655D01*
X78814Y47681D01*
X78698Y47870D01*
X78547Y48047D01*
X78370Y48198D01*
X78172Y48320D01*
X77958Y48408D01*
X77732Y48463D01*
X77500Y48481D01*
X77305Y48466D01*
X77219Y48672D01*
X77098Y48871D01*
X76947Y49047D01*
X76771Y49198D01*
X76572Y49319D01*
X76358Y49409D01*
X76132Y49463D01*
X75900Y49481D01*
X75668Y49463D01*
X75442Y49409D01*
X75228Y49319D01*
X75029Y49198D01*
X74853Y49047D01*
X74702Y48871D01*
X74581Y48672D01*
X74455Y48466D01*
X74209Y48524D01*
X73766Y48667D01*
X73781Y48900D01*
X73781Y48900D01*
X73763Y49132D01*
X73708Y49358D01*
X73620Y49572D01*
X73498Y49771D01*
X73347Y49947D01*
X73171Y50098D01*
X72972Y50220D01*
X72758Y50309D01*
X72532Y50363D01*
X72300Y50381D01*
X72068Y50363D01*
X71842Y50309D01*
X71628Y50220D01*
X71430Y50098D01*
X71253Y49947D01*
X71102Y49771D01*
X70981Y49572D01*
X70891Y49358D01*
X70837Y49132D01*
X70819Y48900D01*
X70837Y48668D01*
X70891Y48442D01*
X70942Y48322D01*
X70688Y47979D01*
X70683Y47975D01*
X70221Y48164D01*
Y52000D01*
X70208Y52162D01*
X70170Y52320D01*
X70108Y52470D01*
X70023Y52609D01*
X69917Y52733D01*
X69709Y52940D01*
Y56943D01*
X69960Y57194D01*
X70066Y57318D01*
X70151Y57457D01*
X70213Y57607D01*
X70251Y57765D01*
X70264Y57927D01*
Y59191D01*
X70251Y59353D01*
X70213Y59512D01*
X70151Y59662D01*
X70066Y59800D01*
X69960Y59924D01*
X69811Y60073D01*
X70003Y60535D01*
X73859D01*
X81295Y53099D01*
D02*
G37*
G36*
X72053Y39353D02*
X72229Y39202D01*
X72428Y39081D01*
X72642Y38991D01*
X72868Y38937D01*
X73100Y38919D01*
X73332Y38937D01*
X73558Y38991D01*
X73772Y39081D01*
X73971Y39202D01*
X74147Y39353D01*
X74153D01*
X74330Y39202D01*
X74528Y39081D01*
X74742Y38991D01*
X74968Y38937D01*
X75200Y38919D01*
X75432Y38937D01*
X75658Y38991D01*
X75872Y39081D01*
X76090Y39184D01*
X76444Y38863D01*
X76453Y38853D01*
X76630Y38702D01*
X76828Y38581D01*
X77042Y38491D01*
X77268Y38437D01*
X77500Y38419D01*
X77612Y38428D01*
X77830Y38218D01*
X77939Y37973D01*
X77891Y37858D01*
X77837Y37632D01*
X77819Y37400D01*
X77837Y37168D01*
X77891Y36942D01*
X77981Y36728D01*
X78102Y36529D01*
X78253Y36353D01*
X78430Y36202D01*
X78628Y36081D01*
X78842Y35991D01*
X79068Y35937D01*
X79300Y35919D01*
X79468Y35932D01*
X79576Y35900D01*
X79919Y35614D01*
X79860Y35178D01*
X79435Y34900D01*
X79204Y34918D01*
X78972Y34900D01*
X78746Y34845D01*
X78585Y34778D01*
X73756D01*
X72649Y35886D01*
X72488Y36022D01*
X72309Y36132D01*
X72115Y36213D01*
X71910Y36262D01*
X71700Y36279D01*
X71274D01*
X71113Y36345D01*
X70887Y36400D01*
X70655Y36418D01*
X70644Y36417D01*
X70224Y36719D01*
X70144Y36847D01*
Y37678D01*
X70128Y37888D01*
X70079Y38093D01*
X69998Y38287D01*
X69888Y38467D01*
X69786Y38586D01*
X69763Y38684D01*
X69870Y39201D01*
X69877Y39208D01*
X70047Y39353D01*
X70173Y39500D01*
X71927D01*
X72053Y39353D01*
D02*
G37*
%LPC*%
G36*
X128450Y193531D02*
X128219Y193513D01*
X127993Y193459D01*
X127778Y193370D01*
X127580Y193248D01*
X127403Y193098D01*
X127252Y192921D01*
X127131Y192723D01*
X127042Y192508D01*
X126988Y192282D01*
X126970Y192050D01*
X126988Y191819D01*
X127042Y191593D01*
X127131Y191378D01*
X127252Y191180D01*
X127403Y191003D01*
X127580Y190852D01*
X127778Y190731D01*
X127993Y190642D01*
X128219Y190588D01*
X128450Y190569D01*
X128682Y190588D01*
X128908Y190642D01*
X129123Y190731D01*
X129321Y190852D01*
X129498Y191003D01*
X129648Y191180D01*
X129770Y191378D01*
X129859Y191593D01*
X129913Y191819D01*
X129931Y192050D01*
X129913Y192282D01*
X129859Y192508D01*
X129770Y192723D01*
X129648Y192921D01*
X129498Y193098D01*
X129321Y193248D01*
X129123Y193370D01*
X128908Y193459D01*
X128682Y193513D01*
X128450Y193531D01*
D02*
G37*
G36*
X140300Y193481D02*
X140068Y193463D01*
X139842Y193409D01*
X139628Y193319D01*
X139429Y193198D01*
X139253Y193047D01*
X139102Y192870D01*
X138980Y192672D01*
X138891Y192458D01*
X138837Y192232D01*
X138819Y192000D01*
X138837Y191768D01*
X138891Y191542D01*
X138980Y191328D01*
X139102Y191130D01*
X139253Y190953D01*
X139429Y190802D01*
X139628Y190681D01*
X139842Y190592D01*
X140068Y190537D01*
X140300Y190519D01*
X140532Y190537D01*
X140758Y190592D01*
X140972Y190681D01*
X141171Y190802D01*
X141347Y190953D01*
X141498Y191130D01*
X141620Y191328D01*
X141709Y191542D01*
X141763Y191768D01*
X141781Y192000D01*
X141763Y192232D01*
X141709Y192458D01*
X141620Y192672D01*
X141498Y192870D01*
X141347Y193047D01*
X141171Y193198D01*
X140972Y193319D01*
X140758Y193409D01*
X140532Y193463D01*
X140300Y193481D01*
D02*
G37*
G36*
X93600Y190481D02*
X93368Y190463D01*
X93142Y190409D01*
X92928Y190320D01*
X92730Y190198D01*
X92553Y190047D01*
X92402Y189871D01*
X92281Y189672D01*
X92191Y189458D01*
X92137Y189232D01*
X92119Y189000D01*
X92137Y188768D01*
X92191Y188542D01*
X92281Y188328D01*
X92402Y188129D01*
X92553Y187953D01*
X92730Y187802D01*
X92928Y187680D01*
X93142Y187592D01*
X93368Y187537D01*
X93600Y187519D01*
X93832Y187537D01*
X94058Y187592D01*
X94272Y187680D01*
X94471Y187802D01*
X94647Y187953D01*
X94798Y188129D01*
X94920Y188328D01*
X95008Y188542D01*
X95063Y188768D01*
X95081Y189000D01*
X95063Y189232D01*
X95008Y189458D01*
X94920Y189672D01*
X94798Y189871D01*
X94647Y190047D01*
X94471Y190198D01*
X94272Y190320D01*
X94058Y190409D01*
X93832Y190463D01*
X93600Y190481D01*
D02*
G37*
G36*
X80900Y187581D02*
X80668Y187563D01*
X80442Y187508D01*
X80228Y187419D01*
X80029Y187298D01*
X79853Y187147D01*
X79702Y186970D01*
X79580Y186772D01*
X79492Y186558D01*
X79437Y186332D01*
X79419Y186100D01*
X79437Y185868D01*
X79492Y185642D01*
X79580Y185428D01*
X79702Y185230D01*
X79853Y185053D01*
X80029Y184902D01*
X80228Y184781D01*
X80442Y184692D01*
X80668Y184637D01*
X80900Y184619D01*
X81132Y184637D01*
X81358Y184692D01*
X81572Y184781D01*
X81770Y184902D01*
X81947Y185053D01*
X82098Y185230D01*
X82219Y185428D01*
X82309Y185642D01*
X82363Y185868D01*
X82381Y186100D01*
X82363Y186332D01*
X82309Y186558D01*
X82219Y186772D01*
X82098Y186970D01*
X81947Y187147D01*
X81770Y187298D01*
X81572Y187419D01*
X81358Y187508D01*
X81132Y187563D01*
X80900Y187581D01*
D02*
G37*
G36*
X50000Y185339D02*
X49768Y185321D01*
X49542Y185267D01*
X49328Y185178D01*
X49130Y185056D01*
X48953Y184905D01*
X48802Y184729D01*
X48680Y184530D01*
X48592Y184316D01*
X48537Y184090D01*
X48519Y183858D01*
X48537Y183626D01*
X48592Y183400D01*
X48680Y183186D01*
X48802Y182988D01*
X48953Y182811D01*
X49130Y182660D01*
X49328Y182539D01*
X49542Y182450D01*
X49768Y182396D01*
X50000Y182377D01*
X50232Y182396D01*
X50458Y182450D01*
X50672Y182539D01*
X50871Y182660D01*
X51047Y182811D01*
X51198Y182988D01*
X51319Y183186D01*
X51408Y183400D01*
X51463Y183626D01*
X51481Y183858D01*
X51463Y184090D01*
X51408Y184316D01*
X51319Y184530D01*
X51198Y184729D01*
X51047Y184905D01*
X50871Y185056D01*
X50672Y185178D01*
X50458Y185267D01*
X50232Y185321D01*
X50000Y185339D01*
D02*
G37*
G36*
X13780Y192327D02*
X13288Y192310D01*
X12799Y192257D01*
X12314Y192170D01*
X11837Y192048D01*
X11370Y191893D01*
X10916Y191704D01*
X10476Y191484D01*
X10052Y191233D01*
X9648Y190952D01*
X9265Y190643D01*
X8905Y190308D01*
X8569Y189948D01*
X8261Y189565D01*
X7980Y189160D01*
X7729Y188737D01*
X7508Y188297D01*
X7320Y187842D01*
X7165Y187375D01*
X7043Y186898D01*
X6956Y186414D01*
X6903Y185925D01*
X6886Y185433D01*
X6903Y184941D01*
X6956Y184452D01*
X7043Y183967D01*
X7165Y183491D01*
X7320Y183024D01*
X7508Y182569D01*
X7729Y182129D01*
X7980Y181706D01*
X8261Y181301D01*
X8569Y180918D01*
X8905Y180558D01*
X9265Y180223D01*
X9648Y179914D01*
X10052Y179633D01*
X10476Y179382D01*
X10916Y179162D01*
X11370Y178973D01*
X11837Y178818D01*
X12314Y178696D01*
X12799Y178609D01*
X13288Y178556D01*
X13780Y178539D01*
X14271Y178556D01*
X14761Y178609D01*
X15245Y178696D01*
X15722Y178818D01*
X16189Y178973D01*
X16644Y179162D01*
X17084Y179382D01*
X17507Y179633D01*
X17911Y179914D01*
X18294Y180223D01*
X18654Y180558D01*
X18990Y180918D01*
X19299Y181301D01*
X19579Y181706D01*
X19830Y182129D01*
X20051Y182569D01*
X20239Y183024D01*
X20394Y183491D01*
X20516Y183967D01*
X20604Y184452D01*
X20656Y184941D01*
X20674Y185433D01*
X20656Y185925D01*
X20604Y186414D01*
X20516Y186898D01*
X20394Y187375D01*
X20239Y187842D01*
X20051Y188297D01*
X19830Y188737D01*
X19579Y189160D01*
X19299Y189565D01*
X18990Y189948D01*
X18654Y190308D01*
X18294Y190643D01*
X17911Y190952D01*
X17507Y191233D01*
X17084Y191484D01*
X16644Y191704D01*
X16189Y191893D01*
X15722Y192048D01*
X15245Y192170D01*
X14761Y192257D01*
X14271Y192310D01*
X13780Y192327D01*
D02*
G37*
G36*
X25300Y183581D02*
X25068Y183563D01*
X24842Y183509D01*
X24628Y183420D01*
X24430Y183298D01*
X24253Y183147D01*
X24102Y182970D01*
X23980Y182772D01*
X23891Y182558D01*
X23837Y182332D01*
X23819Y182100D01*
X23837Y181868D01*
X23891Y181642D01*
X23980Y181428D01*
X24102Y181229D01*
X24115Y181214D01*
Y158500D01*
X24130Y158315D01*
X24173Y158134D01*
X24244Y157962D01*
X24341Y157804D01*
X24462Y157662D01*
X25336Y156789D01*
X25337Y156768D01*
X25392Y156542D01*
X25480Y156328D01*
X25602Y156130D01*
X25753Y155953D01*
X25929Y155802D01*
X26128Y155681D01*
X26342Y155591D01*
X26568Y155537D01*
X26800Y155519D01*
X27032Y155537D01*
X27258Y155591D01*
X27472Y155681D01*
X27670Y155802D01*
X27847Y155953D01*
X27998Y156130D01*
X28120Y156328D01*
X28209Y156542D01*
X28263Y156768D01*
X28281Y157000D01*
X28263Y157232D01*
X28209Y157458D01*
X28120Y157672D01*
X27998Y157870D01*
X27847Y158047D01*
X27670Y158198D01*
X27472Y158319D01*
X27258Y158408D01*
X27032Y158463D01*
X27011Y158464D01*
X26485Y158991D01*
Y176291D01*
X26569Y176423D01*
X26985Y176720D01*
X27000Y176719D01*
X27232Y176737D01*
X27458Y176792D01*
X27672Y176881D01*
X27871Y177002D01*
X28047Y177153D01*
X28198Y177330D01*
X28319Y177528D01*
X28409Y177742D01*
X28463Y177968D01*
X28481Y178200D01*
X28463Y178432D01*
X28409Y178658D01*
X28319Y178872D01*
X28198Y179070D01*
X28047Y179247D01*
X27871Y179398D01*
X27672Y179519D01*
X27458Y179609D01*
X27232Y179663D01*
X27000Y179681D01*
X26985Y179680D01*
X26569Y179977D01*
X26485Y180109D01*
Y181214D01*
X26498Y181229D01*
X26619Y181428D01*
X26708Y181642D01*
X26763Y181868D01*
X26781Y182100D01*
X26763Y182332D01*
X26708Y182558D01*
X26619Y182772D01*
X26498Y182970D01*
X26347Y183147D01*
X26171Y183298D01*
X25972Y183420D01*
X25758Y183509D01*
X25532Y183563D01*
X25300Y183581D01*
D02*
G37*
G36*
X84230Y175293D02*
X83998Y175275D01*
X83772Y175220D01*
X83558Y175131D01*
X83359Y175010D01*
X83183Y174859D01*
X83032Y174682D01*
X82911Y174484D01*
X82822Y174269D01*
X82767Y174044D01*
X82749Y173812D01*
X82767Y173580D01*
X82822Y173354D01*
X82911Y173140D01*
X83032Y172941D01*
X83183Y172765D01*
X83359Y172614D01*
X83558Y172492D01*
X83772Y172403D01*
X83998Y172349D01*
X84230Y172331D01*
X84462Y172349D01*
X84688Y172403D01*
X84902Y172492D01*
X85101Y172614D01*
X85277Y172765D01*
X85428Y172941D01*
X85549Y173140D01*
X85638Y173354D01*
X85693Y173580D01*
X85711Y173812D01*
X85693Y174044D01*
X85638Y174269D01*
X85549Y174484D01*
X85428Y174682D01*
X85277Y174859D01*
X85101Y175010D01*
X84902Y175131D01*
X84688Y175220D01*
X84462Y175275D01*
X84230Y175293D01*
D02*
G37*
G36*
X9744Y172130D02*
X9435Y172113D01*
X9130Y172061D01*
X8832Y171975D01*
X8546Y171857D01*
X8275Y171707D01*
X8023Y171528D01*
X7792Y171322D01*
X7586Y171091D01*
X7407Y170839D01*
X7257Y170568D01*
X7139Y170282D01*
X7053Y169984D01*
X7001Y169679D01*
X6984Y169370D01*
X7001Y169061D01*
X7053Y168756D01*
X7139Y168458D01*
X7257Y168173D01*
X7407Y167902D01*
X7586Y167649D01*
X7792Y167418D01*
X8023Y167212D01*
X8275Y167033D01*
X8546Y166883D01*
X8832Y166765D01*
X9130Y166679D01*
X9435Y166627D01*
X9744Y166610D01*
X10053Y166627D01*
X10358Y166679D01*
X10656Y166765D01*
X10942Y166883D01*
X11213Y167033D01*
X11465Y167212D01*
X11696Y167418D01*
X11902Y167649D01*
X12081Y167902D01*
X12231Y168173D01*
X12349Y168458D01*
X12435Y168756D01*
X12487Y169061D01*
X12504Y169370D01*
X12487Y169679D01*
X12435Y169984D01*
X12349Y170282D01*
X12231Y170568D01*
X12081Y170839D01*
X11902Y171091D01*
X11696Y171322D01*
X11465Y171528D01*
X11213Y171707D01*
X10942Y171857D01*
X10656Y171975D01*
X10358Y172061D01*
X10053Y172113D01*
X9744Y172130D01*
D02*
G37*
G36*
X130700Y165781D02*
X130468Y165763D01*
X130242Y165708D01*
X130028Y165620D01*
X129830Y165498D01*
X129653Y165347D01*
X129502Y165171D01*
X129381Y164972D01*
X129291Y164758D01*
X129237Y164532D01*
X129219Y164300D01*
X129237Y164068D01*
X129291Y163842D01*
X129381Y163628D01*
X129502Y163429D01*
X129653Y163253D01*
X129830Y163102D01*
X130028Y162980D01*
X130242Y162891D01*
X130468Y162837D01*
X130700Y162819D01*
X130932Y162837D01*
X131158Y162891D01*
X131372Y162980D01*
X131570Y163102D01*
X131747Y163253D01*
X131898Y163429D01*
X132019Y163628D01*
X132108Y163842D01*
X132163Y164068D01*
X132181Y164300D01*
X132163Y164532D01*
X132108Y164758D01*
X132019Y164972D01*
X131898Y165171D01*
X131747Y165347D01*
X131570Y165498D01*
X131372Y165620D01*
X131158Y165708D01*
X130932Y165763D01*
X130700Y165781D01*
D02*
G37*
G36*
X84230Y165687D02*
X83998Y165668D01*
X83772Y165614D01*
X83558Y165525D01*
X83359Y165404D01*
X83183Y165253D01*
X83032Y165076D01*
X82911Y164878D01*
X82822Y164663D01*
X82767Y164437D01*
X82749Y164206D01*
X82767Y163974D01*
X82822Y163748D01*
X82911Y163533D01*
X83032Y163335D01*
X83183Y163158D01*
X83359Y163007D01*
X83558Y162886D01*
X83772Y162797D01*
X83998Y162743D01*
X84230Y162725D01*
X84462Y162743D01*
X84688Y162797D01*
X84902Y162886D01*
X85101Y163007D01*
X85277Y163158D01*
X85428Y163335D01*
X85549Y163533D01*
X85638Y163748D01*
X85693Y163974D01*
X85711Y164206D01*
X85693Y164437D01*
X85638Y164663D01*
X85549Y164878D01*
X85428Y165076D01*
X85277Y165253D01*
X85101Y165404D01*
X84902Y165525D01*
X84688Y165614D01*
X84462Y165668D01*
X84230Y165687D01*
D02*
G37*
G36*
X15300Y161181D02*
X15068Y161163D01*
X14842Y161109D01*
X14628Y161020D01*
X14430Y160898D01*
X14253Y160747D01*
X14102Y160571D01*
X13981Y160372D01*
X13892Y160158D01*
X13837Y159932D01*
X13819Y159700D01*
X13837Y159468D01*
X13892Y159242D01*
X13981Y159028D01*
X14102Y158829D01*
X14253Y158653D01*
X14430Y158502D01*
X14628Y158380D01*
X14842Y158291D01*
X15068Y158237D01*
X15300Y158219D01*
X15532Y158237D01*
X15758Y158291D01*
X15972Y158380D01*
X16171Y158502D01*
X16347Y158653D01*
X16498Y158829D01*
X16620Y159028D01*
X16709Y159242D01*
X16763Y159468D01*
X16781Y159700D01*
X16763Y159932D01*
X16709Y160158D01*
X16620Y160372D01*
X16498Y160571D01*
X16347Y160747D01*
X16171Y160898D01*
X15972Y161020D01*
X15758Y161109D01*
X15532Y161163D01*
X15300Y161181D01*
D02*
G37*
G36*
X66000Y155281D02*
X65768Y155263D01*
X65542Y155209D01*
X65328Y155120D01*
X65130Y154998D01*
X64953Y154847D01*
X64802Y154671D01*
X64680Y154472D01*
X64591Y154258D01*
X64537Y154032D01*
X64519Y153800D01*
X64537Y153568D01*
X64591Y153342D01*
X64680Y153128D01*
X64802Y152929D01*
X64953Y152753D01*
X65130Y152602D01*
X65328Y152480D01*
X65542Y152392D01*
X65768Y152337D01*
X66000Y152319D01*
X66232Y152337D01*
X66458Y152392D01*
X66672Y152480D01*
X66870Y152602D01*
X67047Y152753D01*
X67198Y152929D01*
X67320Y153128D01*
X67409Y153342D01*
X67463Y153568D01*
X67481Y153800D01*
X67463Y154032D01*
X67409Y154258D01*
X67320Y154472D01*
X67198Y154671D01*
X67047Y154847D01*
X66870Y154998D01*
X66672Y155120D01*
X66458Y155209D01*
X66232Y155263D01*
X66000Y155281D01*
D02*
G37*
G36*
X74800Y146781D02*
X74568Y146763D01*
X74342Y146709D01*
X74128Y146619D01*
X73930Y146498D01*
X73753Y146347D01*
X73602Y146170D01*
X73480Y145972D01*
X73391Y145758D01*
X73337Y145532D01*
X73319Y145300D01*
X73337Y145068D01*
X73391Y144842D01*
X73480Y144628D01*
X73602Y144430D01*
X73753Y144253D01*
X73930Y144102D01*
X74128Y143981D01*
X74342Y143892D01*
X74568Y143837D01*
X74800Y143819D01*
X75032Y143837D01*
X75258Y143892D01*
X75472Y143981D01*
X75670Y144102D01*
X75847Y144253D01*
X75998Y144430D01*
X76120Y144628D01*
X76209Y144842D01*
X76263Y145068D01*
X76281Y145300D01*
X76263Y145532D01*
X76209Y145758D01*
X76120Y145972D01*
X75998Y146170D01*
X75847Y146347D01*
X75670Y146498D01*
X75472Y146619D01*
X75258Y146709D01*
X75032Y146763D01*
X74800Y146781D01*
D02*
G37*
G36*
X66400Y143381D02*
X66168Y143363D01*
X65942Y143308D01*
X65728Y143219D01*
X65530Y143098D01*
X65353Y142947D01*
X65202Y142771D01*
X65080Y142572D01*
X64991Y142358D01*
X64937Y142132D01*
X64919Y141900D01*
X64937Y141668D01*
X64991Y141442D01*
X65080Y141228D01*
X65202Y141030D01*
X65353Y140853D01*
X65530Y140702D01*
X65728Y140580D01*
X65942Y140491D01*
X66168Y140437D01*
X66400Y140419D01*
X66632Y140437D01*
X66858Y140491D01*
X67072Y140580D01*
X67270Y140702D01*
X67447Y140853D01*
X67598Y141030D01*
X67720Y141228D01*
X67809Y141442D01*
X67863Y141668D01*
X67881Y141900D01*
X67863Y142132D01*
X67809Y142358D01*
X67720Y142572D01*
X67598Y142771D01*
X67447Y142947D01*
X67270Y143098D01*
X67072Y143219D01*
X66858Y143308D01*
X66632Y143363D01*
X66400Y143381D01*
D02*
G37*
G36*
X9744Y145359D02*
X9435Y145341D01*
X9130Y145290D01*
X8832Y145204D01*
X8546Y145085D01*
X8275Y144936D01*
X8023Y144756D01*
X7792Y144550D01*
X7586Y144319D01*
X7407Y144067D01*
X7257Y143796D01*
X7139Y143510D01*
X7053Y143213D01*
X7001Y142908D01*
X6984Y142598D01*
X7001Y142289D01*
X7053Y141984D01*
X7139Y141687D01*
X7257Y141401D01*
X7407Y141130D01*
X7586Y140877D01*
X7792Y140647D01*
X8023Y140440D01*
X8275Y140261D01*
X8546Y140111D01*
X8832Y139993D01*
X9130Y139907D01*
X9435Y139856D01*
X9744Y139838D01*
X10053Y139856D01*
X10358Y139907D01*
X10656Y139993D01*
X10942Y140111D01*
X11213Y140261D01*
X11465Y140440D01*
X11696Y140647D01*
X11902Y140877D01*
X12081Y141130D01*
X12231Y141401D01*
X12349Y141687D01*
X12435Y141984D01*
X12487Y142289D01*
X12504Y142598D01*
X12487Y142908D01*
X12435Y143213D01*
X12349Y143510D01*
X12231Y143796D01*
X12081Y144067D01*
X11902Y144319D01*
X11696Y144550D01*
X11465Y144756D01*
X11213Y144936D01*
X10942Y145085D01*
X10656Y145204D01*
X10358Y145290D01*
X10053Y145341D01*
X9744Y145359D01*
D02*
G37*
G36*
X104800Y146681D02*
X104568Y146663D01*
X104342Y146608D01*
X104128Y146519D01*
X103929Y146398D01*
X103753Y146247D01*
X103602Y146071D01*
X103481Y145872D01*
X103392Y145658D01*
X103337Y145432D01*
X103319Y145200D01*
X103337Y144968D01*
X103392Y144742D01*
X103481Y144528D01*
X103602Y144330D01*
X103753Y144153D01*
X103929Y144002D01*
X104128Y143880D01*
X104342Y143791D01*
X104568Y143737D01*
X104800Y143719D01*
X104814Y143720D01*
X111375Y137159D01*
X111292Y136958D01*
X111237Y136732D01*
X111219Y136500D01*
X111237Y136268D01*
X111292Y136042D01*
X111381Y135828D01*
X111502Y135629D01*
X111653Y135453D01*
X111829Y135302D01*
X112028Y135180D01*
X112242Y135091D01*
X112468Y135037D01*
X112700Y135019D01*
X112932Y135037D01*
X113158Y135091D01*
X113372Y135180D01*
X113570Y135302D01*
X113747Y135453D01*
X113898Y135629D01*
X114020Y135828D01*
X114109Y136042D01*
X114163Y136268D01*
X114181Y136500D01*
X114163Y136732D01*
X114109Y136958D01*
X114020Y137172D01*
X113898Y137371D01*
X113747Y137547D01*
X113692Y137594D01*
X113686Y137620D01*
X113624Y137771D01*
X113539Y137909D01*
X113433Y138033D01*
X106280Y145186D01*
X106281Y145200D01*
X106263Y145432D01*
X106209Y145658D01*
X106120Y145872D01*
X105998Y146071D01*
X105847Y146247D01*
X105670Y146398D01*
X105472Y146519D01*
X105258Y146608D01*
X105032Y146663D01*
X104800Y146681D01*
D02*
G37*
G36*
X129823Y131894D02*
X129475Y131877D01*
X129131Y131826D01*
X128793Y131741D01*
X128465Y131624D01*
X128150Y131475D01*
X127852Y131296D01*
X127572Y131089D01*
X127314Y130855D01*
X127081Y130597D01*
X126873Y130317D01*
X126694Y130019D01*
X126545Y129704D01*
X126428Y129376D01*
X126344Y129039D01*
X126292Y128694D01*
X126275Y128347D01*
X126292Y127999D01*
X126344Y127654D01*
X126428Y127317D01*
X126545Y126989D01*
X126694Y126674D01*
X126873Y126375D01*
X127081Y126096D01*
X127314Y125838D01*
X127572Y125604D01*
X127852Y125397D01*
X128150Y125218D01*
X128465Y125069D01*
X128793Y124952D01*
X129131Y124867D01*
X129475Y124816D01*
X129823Y124799D01*
X130171Y124816D01*
X130515Y124867D01*
X130853Y124952D01*
X131181Y125069D01*
X131495Y125218D01*
X131794Y125397D01*
X132073Y125604D01*
X132331Y125838D01*
X132565Y126096D01*
X132773Y126375D01*
X132951Y126674D01*
X133100Y126989D01*
X133218Y127317D01*
X133302Y127654D01*
X133353Y127999D01*
X133370Y128347D01*
X133353Y128694D01*
X133302Y129039D01*
X133218Y129376D01*
X133100Y129704D01*
X132951Y130019D01*
X132773Y130317D01*
X132565Y130597D01*
X132331Y130855D01*
X132073Y131089D01*
X131794Y131296D01*
X131495Y131475D01*
X131181Y131624D01*
X130853Y131741D01*
X130515Y131826D01*
X130171Y131877D01*
X129823Y131894D01*
D02*
G37*
G36*
X121949D02*
X121601Y131877D01*
X121257Y131826D01*
X120919Y131741D01*
X120591Y131624D01*
X120276Y131475D01*
X119978Y131296D01*
X119698Y131089D01*
X119440Y130855D01*
X119207Y130597D01*
X118999Y130317D01*
X118820Y130019D01*
X118671Y129704D01*
X118554Y129376D01*
X118470Y129039D01*
X118418Y128694D01*
X118401Y128347D01*
X118418Y127999D01*
X118470Y127654D01*
X118554Y127317D01*
X118671Y126989D01*
X118820Y126674D01*
X118999Y126375D01*
X119207Y126096D01*
X119440Y125838D01*
X119698Y125604D01*
X119978Y125397D01*
X120276Y125218D01*
X120591Y125069D01*
X120919Y124952D01*
X121257Y124867D01*
X121601Y124816D01*
X121949Y124799D01*
X122297Y124816D01*
X122641Y124867D01*
X122979Y124952D01*
X123306Y125069D01*
X123621Y125218D01*
X123920Y125397D01*
X124199Y125604D01*
X124457Y125838D01*
X124691Y126096D01*
X124899Y126375D01*
X125077Y126674D01*
X125226Y126989D01*
X125344Y127317D01*
X125428Y127654D01*
X125479Y127999D01*
X125496Y128347D01*
X125479Y128694D01*
X125428Y129039D01*
X125344Y129376D01*
X125226Y129704D01*
X125077Y130019D01*
X124899Y130317D01*
X124691Y130597D01*
X124457Y130855D01*
X124199Y131089D01*
X123920Y131296D01*
X123621Y131475D01*
X123306Y131624D01*
X122979Y131741D01*
X122641Y131826D01*
X122297Y131877D01*
X121949Y131894D01*
D02*
G37*
G36*
X114075D02*
X113727Y131877D01*
X113383Y131826D01*
X113045Y131741D01*
X112717Y131624D01*
X112402Y131475D01*
X112104Y131296D01*
X111824Y131089D01*
X111566Y130855D01*
X111332Y130597D01*
X111125Y130317D01*
X110946Y130019D01*
X110797Y129704D01*
X110680Y129376D01*
X110595Y129039D01*
X110544Y128694D01*
X110527Y128347D01*
X110544Y127999D01*
X110595Y127654D01*
X110680Y127317D01*
X110797Y126989D01*
X110946Y126674D01*
X111125Y126375D01*
X111332Y126096D01*
X111566Y125838D01*
X111824Y125604D01*
X112104Y125397D01*
X112402Y125218D01*
X112717Y125069D01*
X113045Y124952D01*
X113383Y124867D01*
X113727Y124816D01*
X114075Y124799D01*
X114423Y124816D01*
X114767Y124867D01*
X115105Y124952D01*
X115432Y125069D01*
X115747Y125218D01*
X116046Y125397D01*
X116325Y125604D01*
X116583Y125838D01*
X116817Y126096D01*
X117025Y126375D01*
X117203Y126674D01*
X117352Y126989D01*
X117470Y127317D01*
X117554Y127654D01*
X117605Y127999D01*
X117622Y128347D01*
X117605Y128694D01*
X117554Y129039D01*
X117470Y129376D01*
X117352Y129704D01*
X117203Y130019D01*
X117025Y130317D01*
X116817Y130597D01*
X116583Y130855D01*
X116325Y131089D01*
X116046Y131296D01*
X115747Y131475D01*
X115432Y131624D01*
X115105Y131741D01*
X114767Y131826D01*
X114423Y131877D01*
X114075Y131894D01*
D02*
G37*
G36*
X106201D02*
X105853Y131877D01*
X105509Y131826D01*
X105171Y131741D01*
X104843Y131624D01*
X104528Y131475D01*
X104230Y131296D01*
X103950Y131089D01*
X103692Y130855D01*
X103458Y130597D01*
X103251Y130317D01*
X103072Y130019D01*
X102923Y129704D01*
X102806Y129376D01*
X102721Y129039D01*
X102670Y128694D01*
X102653Y128347D01*
X102670Y127999D01*
X102721Y127654D01*
X102806Y127317D01*
X102923Y126989D01*
X103072Y126674D01*
X103251Y126375D01*
X103458Y126096D01*
X103692Y125838D01*
X103950Y125604D01*
X104230Y125397D01*
X104528Y125218D01*
X104843Y125069D01*
X105171Y124952D01*
X105509Y124867D01*
X105853Y124816D01*
X106201Y124799D01*
X106549Y124816D01*
X106893Y124867D01*
X107231Y124952D01*
X107558Y125069D01*
X107873Y125218D01*
X108172Y125397D01*
X108451Y125604D01*
X108709Y125838D01*
X108943Y126096D01*
X109151Y126375D01*
X109329Y126674D01*
X109478Y126989D01*
X109596Y127317D01*
X109680Y127654D01*
X109731Y127999D01*
X109748Y128347D01*
X109731Y128694D01*
X109680Y129039D01*
X109596Y129376D01*
X109478Y129704D01*
X109329Y130019D01*
X109151Y130317D01*
X108943Y130597D01*
X108709Y130855D01*
X108451Y131089D01*
X108172Y131296D01*
X107873Y131475D01*
X107558Y131624D01*
X107231Y131741D01*
X106893Y131826D01*
X106549Y131877D01*
X106201Y131894D01*
D02*
G37*
G36*
X138197Y124195D02*
Y120972D01*
X141420D01*
X141385Y121206D01*
X141295Y121564D01*
X141171Y121912D01*
X141013Y122245D01*
X140824Y122562D01*
X140604Y122858D01*
X140356Y123132D01*
X140083Y123379D01*
X139786Y123599D01*
X139470Y123789D01*
X139136Y123947D01*
X138788Y124071D01*
X138431Y124161D01*
X138197Y124195D01*
D02*
G37*
G36*
X137197D02*
X136963Y124161D01*
X136605Y124071D01*
X136258Y123947D01*
X135924Y123789D01*
X135608Y123599D01*
X135311Y123379D01*
X135038Y123132D01*
X134790Y122858D01*
X134570Y122562D01*
X134380Y122245D01*
X134223Y121912D01*
X134098Y121564D01*
X134009Y121206D01*
X133974Y120972D01*
X137197D01*
Y124195D01*
D02*
G37*
G36*
X59900Y127745D02*
X59533Y127727D01*
X59169Y127673D01*
X58813Y127583D01*
X58467Y127460D01*
X58135Y127303D01*
X57820Y127114D01*
X57524Y126895D01*
X57252Y126648D01*
X57005Y126376D01*
X56786Y126080D01*
X56598Y125765D01*
X56440Y125433D01*
X56317Y125087D01*
X56227Y124731D01*
X56173Y124367D01*
X56155Y124000D01*
X56173Y123633D01*
X56227Y123269D01*
X56317Y122913D01*
X56440Y122567D01*
X56598Y122235D01*
X56786Y121920D01*
X57005Y121624D01*
X57252Y121352D01*
X57524Y121105D01*
X57820Y120886D01*
X58135Y120697D01*
X58467Y120540D01*
X58813Y120417D01*
X59169Y120327D01*
X59533Y120273D01*
X59900Y120255D01*
X60267Y120273D01*
X60631Y120327D01*
X60987Y120417D01*
X61333Y120540D01*
X61665Y120697D01*
X61980Y120886D01*
X62276Y121105D01*
X62548Y121352D01*
X62795Y121624D01*
X63014Y121920D01*
X63203Y122235D01*
X63360Y122567D01*
X63483Y122913D01*
X63573Y123269D01*
X63627Y123633D01*
X63645Y124000D01*
X63627Y124367D01*
X63573Y124731D01*
X63483Y125087D01*
X63360Y125433D01*
X63203Y125765D01*
X63014Y126080D01*
X62795Y126376D01*
X62548Y126648D01*
X62276Y126895D01*
X61980Y127114D01*
X61665Y127303D01*
X61333Y127460D01*
X60987Y127583D01*
X60631Y127673D01*
X60267Y127727D01*
X59900Y127745D01*
D02*
G37*
G36*
X68800Y130681D02*
X68568Y130663D01*
X68342Y130608D01*
X68128Y130519D01*
X67930Y130398D01*
X67753Y130247D01*
X67602Y130070D01*
X67480Y129872D01*
X67392Y129658D01*
X67337Y129432D01*
X67319Y129200D01*
X67337Y128968D01*
X67392Y128742D01*
X67480Y128528D01*
X67602Y128330D01*
X67753Y128153D01*
X67930Y128002D01*
X68128Y127881D01*
X68160Y127867D01*
X68192Y127330D01*
X68135Y127303D01*
X67820Y127114D01*
X67524Y126895D01*
X67252Y126648D01*
X67005Y126376D01*
X66786Y126080D01*
X66597Y125765D01*
X66440Y125433D01*
X66317Y125087D01*
X66227Y124731D01*
X66173Y124367D01*
X66155Y124000D01*
X66173Y123633D01*
X66227Y123269D01*
X66317Y122913D01*
X66440Y122567D01*
X66597Y122235D01*
X66786Y121920D01*
X67005Y121624D01*
X67252Y121352D01*
X67524Y121105D01*
X67820Y120886D01*
X68135Y120697D01*
X68467Y120540D01*
X68813Y120417D01*
X69169Y120327D01*
X69533Y120273D01*
X69900Y120255D01*
X70267Y120273D01*
X70631Y120327D01*
X70987Y120417D01*
X71333Y120540D01*
X71665Y120697D01*
X71980Y120886D01*
X72276Y121105D01*
X72548Y121352D01*
X72795Y121624D01*
X73014Y121920D01*
X73203Y122235D01*
X73360Y122567D01*
X73483Y122913D01*
X73573Y123269D01*
X73627Y123633D01*
X73645Y124000D01*
X73627Y124367D01*
X73573Y124731D01*
X73483Y125087D01*
X73360Y125433D01*
X73203Y125765D01*
X73014Y126080D01*
X72795Y126376D01*
X72548Y126648D01*
X72276Y126895D01*
X71980Y127114D01*
X71665Y127303D01*
X71333Y127460D01*
X70987Y127583D01*
X70631Y127673D01*
X70267Y127727D01*
X70126Y127734D01*
X70006Y127914D01*
X69925Y128244D01*
X69998Y128330D01*
X70120Y128528D01*
X70209Y128742D01*
X70263Y128968D01*
X70281Y129200D01*
X70263Y129432D01*
X70209Y129658D01*
X70120Y129872D01*
X69998Y130070D01*
X69847Y130247D01*
X69670Y130398D01*
X69472Y130519D01*
X69258Y130608D01*
X69032Y130663D01*
X68800Y130681D01*
D02*
G37*
G36*
X129823Y124020D02*
X129475Y124003D01*
X129131Y123952D01*
X128793Y123867D01*
X128465Y123750D01*
X128150Y123601D01*
X127852Y123422D01*
X127572Y123215D01*
X127314Y122981D01*
X127081Y122723D01*
X126873Y122443D01*
X126694Y122145D01*
X126545Y121830D01*
X126428Y121502D01*
X126344Y121165D01*
X126292Y120820D01*
X126275Y120472D01*
X126292Y120125D01*
X126344Y119780D01*
X126428Y119443D01*
X126545Y119115D01*
X126694Y118800D01*
X126873Y118501D01*
X127081Y118222D01*
X127314Y117964D01*
X127572Y117730D01*
X127852Y117523D01*
X128150Y117344D01*
X128465Y117195D01*
X128793Y117078D01*
X129131Y116993D01*
X129475Y116942D01*
X129823Y116925D01*
X130171Y116942D01*
X130515Y116993D01*
X130853Y117078D01*
X131181Y117195D01*
X131495Y117344D01*
X131794Y117523D01*
X132073Y117730D01*
X132331Y117964D01*
X132565Y118222D01*
X132773Y118501D01*
X132951Y118800D01*
X133100Y119115D01*
X133218Y119443D01*
X133302Y119780D01*
X133353Y120125D01*
X133370Y120472D01*
X133353Y120820D01*
X133302Y121165D01*
X133218Y121502D01*
X133100Y121830D01*
X132951Y122145D01*
X132773Y122443D01*
X132565Y122723D01*
X132331Y122981D01*
X132073Y123215D01*
X131794Y123422D01*
X131495Y123601D01*
X131181Y123750D01*
X130853Y123867D01*
X130515Y123952D01*
X130171Y124003D01*
X129823Y124020D01*
D02*
G37*
G36*
X121949D02*
X121601Y124003D01*
X121257Y123952D01*
X120919Y123867D01*
X120591Y123750D01*
X120276Y123601D01*
X119978Y123422D01*
X119698Y123215D01*
X119440Y122981D01*
X119207Y122723D01*
X118999Y122443D01*
X118820Y122145D01*
X118671Y121830D01*
X118554Y121502D01*
X118470Y121165D01*
X118418Y120820D01*
X118401Y120472D01*
X118418Y120125D01*
X118470Y119780D01*
X118554Y119443D01*
X118671Y119115D01*
X118820Y118800D01*
X118999Y118501D01*
X119207Y118222D01*
X119440Y117964D01*
X119698Y117730D01*
X119978Y117523D01*
X120276Y117344D01*
X120591Y117195D01*
X120919Y117078D01*
X121257Y116993D01*
X121601Y116942D01*
X121949Y116925D01*
X122297Y116942D01*
X122641Y116993D01*
X122979Y117078D01*
X123306Y117195D01*
X123621Y117344D01*
X123920Y117523D01*
X124199Y117730D01*
X124457Y117964D01*
X124691Y118222D01*
X124899Y118501D01*
X125077Y118800D01*
X125226Y119115D01*
X125344Y119443D01*
X125428Y119780D01*
X125479Y120125D01*
X125496Y120472D01*
X125479Y120820D01*
X125428Y121165D01*
X125344Y121502D01*
X125226Y121830D01*
X125077Y122145D01*
X124899Y122443D01*
X124691Y122723D01*
X124457Y122981D01*
X124199Y123215D01*
X123920Y123422D01*
X123621Y123601D01*
X123306Y123750D01*
X122979Y123867D01*
X122641Y123952D01*
X122297Y124003D01*
X121949Y124020D01*
D02*
G37*
G36*
X114075D02*
X113727Y124003D01*
X113383Y123952D01*
X113045Y123867D01*
X112717Y123750D01*
X112402Y123601D01*
X112104Y123422D01*
X111824Y123215D01*
X111566Y122981D01*
X111332Y122723D01*
X111125Y122443D01*
X110946Y122145D01*
X110797Y121830D01*
X110680Y121502D01*
X110595Y121165D01*
X110544Y120820D01*
X110527Y120472D01*
X110544Y120125D01*
X110595Y119780D01*
X110680Y119443D01*
X110797Y119115D01*
X110946Y118800D01*
X111125Y118501D01*
X111332Y118222D01*
X111566Y117964D01*
X111824Y117730D01*
X112104Y117523D01*
X112402Y117344D01*
X112717Y117195D01*
X113045Y117078D01*
X113383Y116993D01*
X113727Y116942D01*
X114075Y116925D01*
X114423Y116942D01*
X114767Y116993D01*
X115105Y117078D01*
X115432Y117195D01*
X115747Y117344D01*
X116046Y117523D01*
X116325Y117730D01*
X116583Y117964D01*
X116817Y118222D01*
X117025Y118501D01*
X117203Y118800D01*
X117352Y119115D01*
X117470Y119443D01*
X117554Y119780D01*
X117605Y120125D01*
X117622Y120472D01*
X117605Y120820D01*
X117554Y121165D01*
X117470Y121502D01*
X117352Y121830D01*
X117203Y122145D01*
X117025Y122443D01*
X116817Y122723D01*
X116583Y122981D01*
X116325Y123215D01*
X116046Y123422D01*
X115747Y123601D01*
X115432Y123750D01*
X115105Y123867D01*
X114767Y123952D01*
X114423Y124003D01*
X114075Y124020D01*
D02*
G37*
G36*
X106201D02*
X105853Y124003D01*
X105509Y123952D01*
X105171Y123867D01*
X104843Y123750D01*
X104528Y123601D01*
X104230Y123422D01*
X103950Y123215D01*
X103692Y122981D01*
X103458Y122723D01*
X103251Y122443D01*
X103072Y122145D01*
X102923Y121830D01*
X102806Y121502D01*
X102721Y121165D01*
X102670Y120820D01*
X102653Y120472D01*
X102670Y120125D01*
X102721Y119780D01*
X102806Y119443D01*
X102923Y119115D01*
X103072Y118800D01*
X103251Y118501D01*
X103458Y118222D01*
X103692Y117964D01*
X103950Y117730D01*
X104230Y117523D01*
X104528Y117344D01*
X104843Y117195D01*
X105171Y117078D01*
X105509Y116993D01*
X105853Y116942D01*
X106201Y116925D01*
X106549Y116942D01*
X106893Y116993D01*
X107231Y117078D01*
X107558Y117195D01*
X107873Y117344D01*
X108172Y117523D01*
X108451Y117730D01*
X108709Y117964D01*
X108943Y118222D01*
X109151Y118501D01*
X109329Y118800D01*
X109478Y119115D01*
X109596Y119443D01*
X109680Y119780D01*
X109731Y120125D01*
X109748Y120472D01*
X109731Y120820D01*
X109680Y121165D01*
X109596Y121502D01*
X109478Y121830D01*
X109329Y122145D01*
X109151Y122443D01*
X108943Y122723D01*
X108709Y122981D01*
X108451Y123215D01*
X108172Y123422D01*
X107873Y123601D01*
X107558Y123750D01*
X107231Y123867D01*
X106893Y123952D01*
X106549Y124003D01*
X106201Y124020D01*
D02*
G37*
G36*
X53853Y117953D02*
X50400D01*
Y114500D01*
X53853D01*
Y117953D01*
D02*
G37*
G36*
X49400D02*
X45947D01*
Y114500D01*
X49400D01*
Y117953D01*
D02*
G37*
G36*
X73853Y117953D02*
X70400D01*
Y114500D01*
X73853D01*
Y117953D01*
D02*
G37*
G36*
X69400D02*
X65947D01*
Y114500D01*
X69400D01*
Y117953D01*
D02*
G37*
G36*
X63853Y117953D02*
X60400D01*
Y114500D01*
X63853D01*
Y117953D01*
D02*
G37*
G36*
X59400D02*
X55947D01*
Y114500D01*
X59400D01*
Y117953D01*
D02*
G37*
G36*
X7087Y115375D02*
X6209D01*
Y113098D01*
X9813D01*
X9793Y113216D01*
X9707Y113515D01*
X9588Y113803D01*
X9437Y114075D01*
X9257Y114329D01*
X9049Y114561D01*
X8817Y114769D01*
X8563Y114949D01*
X8291Y115100D01*
X8003Y115219D01*
X7704Y115305D01*
X7397Y115357D01*
X7087Y115375D01*
D02*
G37*
G36*
X5209D02*
X4331D01*
X4020Y115357D01*
X3713Y115305D01*
X3414Y115219D01*
X3126Y115100D01*
X2854Y114949D01*
X2600Y114769D01*
X2368Y114561D01*
X2160Y114329D01*
X1980Y114075D01*
X1830Y113803D01*
X1711Y113515D01*
X1624Y113216D01*
X1604Y113098D01*
X5209D01*
Y115375D01*
D02*
G37*
G36*
X121555Y113292D02*
X121324Y113274D01*
X121098Y113219D01*
X120883Y113130D01*
X120685Y113009D01*
X120508Y112858D01*
X120357Y112681D01*
X120236Y112483D01*
X120147Y112269D01*
X120092Y112043D01*
X120074Y111811D01*
X120092Y111579D01*
X120147Y111353D01*
X120236Y111139D01*
X120357Y110941D01*
X120508Y110764D01*
X120685Y110613D01*
X120883Y110492D01*
X121098Y110403D01*
X121324Y110348D01*
X121555Y110330D01*
X121787Y110348D01*
X122013Y110403D01*
X122228Y110492D01*
X122426Y110613D01*
X122602Y110764D01*
X122753Y110941D01*
X122875Y111139D01*
X122964Y111353D01*
X123018Y111579D01*
X123036Y111811D01*
X123018Y112043D01*
X122964Y112269D01*
X122875Y112483D01*
X122753Y112681D01*
X122602Y112858D01*
X122426Y113009D01*
X122228Y113130D01*
X122013Y113219D01*
X121787Y113274D01*
X121555Y113292D01*
D02*
G37*
G36*
X105907D02*
X105675Y113274D01*
X105449Y113219D01*
X105235Y113130D01*
X105037Y113009D01*
X104860Y112858D01*
X104709Y112681D01*
X104588Y112483D01*
X104499Y112269D01*
X104444Y112043D01*
X104426Y111811D01*
X104444Y111579D01*
X104499Y111353D01*
X104588Y111139D01*
X104709Y110941D01*
X104860Y110764D01*
X105037Y110613D01*
X105235Y110492D01*
X105449Y110403D01*
X105675Y110348D01*
X105907Y110330D01*
X106139Y110348D01*
X106365Y110403D01*
X106579Y110492D01*
X106778Y110613D01*
X106954Y110764D01*
X107105Y110941D01*
X107227Y111139D01*
X107316Y111353D01*
X107370Y111579D01*
X107388Y111811D01*
X107370Y112043D01*
X107316Y112269D01*
X107227Y112483D01*
X107105Y112681D01*
X106954Y112858D01*
X106778Y113009D01*
X106579Y113130D01*
X106365Y113219D01*
X106139Y113274D01*
X105907Y113292D01*
D02*
G37*
G36*
X53853Y113500D02*
X50400D01*
Y110047D01*
X53853D01*
Y113500D01*
D02*
G37*
G36*
X49400D02*
X45947D01*
Y110047D01*
X49400D01*
Y113500D01*
D02*
G37*
G36*
X63853Y113500D02*
X60400D01*
Y110047D01*
X63853D01*
Y113500D01*
D02*
G37*
G36*
X59400D02*
X55947D01*
Y110047D01*
X59400D01*
Y113500D01*
D02*
G37*
G36*
X9813Y112098D02*
X6209D01*
Y109822D01*
X7087D01*
X7397Y109840D01*
X7704Y109892D01*
X8003Y109978D01*
X8291Y110097D01*
X8563Y110248D01*
X8817Y110428D01*
X9049Y110635D01*
X9257Y110868D01*
X9437Y111121D01*
X9588Y111394D01*
X9707Y111682D01*
X9793Y111981D01*
X9813Y112098D01*
D02*
G37*
G36*
X5209D02*
X1604D01*
X1624Y111981D01*
X1711Y111682D01*
X1830Y111394D01*
X1980Y111121D01*
X2160Y110868D01*
X2368Y110635D01*
X2600Y110428D01*
X2854Y110248D01*
X3126Y110097D01*
X3414Y109978D01*
X3713Y109892D01*
X4020Y109840D01*
X4331Y109822D01*
X5209D01*
Y112098D01*
D02*
G37*
G36*
X115256Y107583D02*
X115024Y107565D01*
X114798Y107511D01*
X114584Y107422D01*
X114385Y107300D01*
X114209Y107150D01*
X114058Y106973D01*
X113936Y106775D01*
X113847Y106560D01*
X113793Y106334D01*
X113775Y106102D01*
X113793Y105871D01*
X113847Y105645D01*
X113936Y105430D01*
X114058Y105232D01*
X114209Y105055D01*
X114385Y104904D01*
X114584Y104783D01*
X114798Y104694D01*
X115024Y104640D01*
X115256Y104621D01*
X115488Y104640D01*
X115714Y104694D01*
X115928Y104783D01*
X116126Y104904D01*
X116303Y105055D01*
X116454Y105232D01*
X116575Y105430D01*
X116664Y105645D01*
X116719Y105871D01*
X116737Y106102D01*
X116719Y106334D01*
X116664Y106560D01*
X116575Y106775D01*
X116454Y106973D01*
X116303Y107150D01*
X116126Y107300D01*
X115928Y107422D01*
X115714Y107511D01*
X115488Y107565D01*
X115256Y107583D01*
D02*
G37*
G36*
X121752Y103056D02*
X121520Y103038D01*
X121294Y102983D01*
X121080Y102894D01*
X120881Y102773D01*
X120705Y102622D01*
X120554Y102445D01*
X120432Y102247D01*
X120343Y102032D01*
X120289Y101806D01*
X120271Y101575D01*
X120289Y101343D01*
X120343Y101117D01*
X120432Y100902D01*
X120554Y100704D01*
X120705Y100528D01*
X120881Y100377D01*
X121080Y100255D01*
X121294Y100166D01*
X121520Y100112D01*
X121752Y100094D01*
X121984Y100112D01*
X122210Y100166D01*
X122424Y100255D01*
X122622Y100377D01*
X122799Y100528D01*
X122950Y100704D01*
X123072Y100902D01*
X123160Y101117D01*
X123215Y101343D01*
X123233Y101575D01*
X123215Y101806D01*
X123160Y102032D01*
X123072Y102247D01*
X122950Y102445D01*
X122799Y102622D01*
X122622Y102773D01*
X122424Y102894D01*
X122210Y102983D01*
X121984Y103038D01*
X121752Y103056D01*
D02*
G37*
G36*
X12573Y100890D02*
X12372Y100874D01*
X12176Y100827D01*
X11990Y100750D01*
X11819Y100645D01*
X11665Y100514D01*
X11535Y100361D01*
X11429Y100189D01*
X11352Y100003D01*
X11305Y99807D01*
X11289Y99606D01*
X11305Y99406D01*
X11352Y99210D01*
X11429Y99024D01*
X11535Y98852D01*
X11665Y98699D01*
X11760Y98618D01*
X11804Y98338D01*
X11778Y98034D01*
X11774Y98026D01*
X11691Y97955D01*
X11560Y97802D01*
X11455Y97630D01*
X11378Y97444D01*
X11331Y97248D01*
X11315Y97047D01*
X11331Y96846D01*
X11378Y96651D01*
X11455Y96465D01*
X11560Y96293D01*
X11691Y96140D01*
X11844Y96009D01*
X12016Y95904D01*
X12202Y95827D01*
X12398Y95780D01*
X12598Y95764D01*
X12799Y95780D01*
X12995Y95827D01*
X13181Y95904D01*
X13353Y96009D01*
X13506Y96140D01*
X13637Y96293D01*
X13742Y96465D01*
X13819Y96651D01*
X13866Y96846D01*
X13882Y97047D01*
X13866Y97248D01*
X13819Y97444D01*
X13742Y97630D01*
X13637Y97802D01*
X13506Y97955D01*
X13411Y98036D01*
X13367Y98316D01*
X13393Y98620D01*
X13397Y98628D01*
X13480Y98699D01*
X13611Y98852D01*
X13717Y99024D01*
X13794Y99210D01*
X13841Y99406D01*
X13857Y99606D01*
X13841Y99807D01*
X13794Y100003D01*
X13717Y100189D01*
X13611Y100361D01*
X13480Y100514D01*
X13327Y100645D01*
X13156Y100750D01*
X12970Y100827D01*
X12774Y100874D01*
X12573Y100890D01*
D02*
G37*
G36*
X7087Y89390D02*
X6209D01*
Y87114D01*
X9813D01*
X9793Y87232D01*
X9707Y87531D01*
X9588Y87819D01*
X9437Y88091D01*
X9257Y88345D01*
X9049Y88577D01*
X8817Y88785D01*
X8563Y88965D01*
X8291Y89115D01*
X8003Y89234D01*
X7704Y89321D01*
X7397Y89373D01*
X7087Y89390D01*
D02*
G37*
G36*
X5209D02*
X4331D01*
X4020Y89373D01*
X3713Y89321D01*
X3414Y89234D01*
X3126Y89115D01*
X2854Y88965D01*
X2600Y88785D01*
X2368Y88577D01*
X2160Y88345D01*
X1980Y88091D01*
X1830Y87819D01*
X1711Y87531D01*
X1624Y87232D01*
X1604Y87114D01*
X5209D01*
Y89390D01*
D02*
G37*
G36*
X21100Y87481D02*
X20868Y87463D01*
X20642Y87409D01*
X20428Y87319D01*
X20230Y87198D01*
X20053Y87047D01*
X19902Y86870D01*
X19842Y86773D01*
X19758Y86809D01*
X19532Y86863D01*
X19300Y86881D01*
X19068Y86863D01*
X18842Y86809D01*
X18628Y86720D01*
X18429Y86598D01*
X18253Y86447D01*
X18102Y86270D01*
X17980Y86072D01*
X17891Y85858D01*
X17837Y85632D01*
X17819Y85400D01*
X17837Y85168D01*
X17891Y84942D01*
X17980Y84728D01*
X18102Y84530D01*
X18253Y84353D01*
X18429Y84202D01*
X18628Y84080D01*
X18842Y83991D01*
X19068Y83937D01*
X19300Y83919D01*
X19532Y83937D01*
X19758Y83991D01*
X19972Y84080D01*
X20170Y84202D01*
X20347Y84353D01*
X20498Y84530D01*
X20558Y84627D01*
X20642Y84592D01*
X20868Y84537D01*
X21100Y84519D01*
X21332Y84537D01*
X21558Y84592D01*
X21772Y84680D01*
X21971Y84802D01*
X22147Y84953D01*
X22298Y85129D01*
X22420Y85328D01*
X22509Y85542D01*
X22563Y85768D01*
X22581Y86000D01*
X22563Y86232D01*
X22509Y86458D01*
X22420Y86672D01*
X22298Y86870D01*
X22147Y87047D01*
X21971Y87198D01*
X21772Y87319D01*
X21558Y87409D01*
X21332Y87463D01*
X21100Y87481D01*
D02*
G37*
G36*
X9813Y86114D02*
X6209D01*
Y83838D01*
X7087D01*
X7397Y83856D01*
X7704Y83908D01*
X8003Y83994D01*
X8291Y84113D01*
X8563Y84264D01*
X8817Y84444D01*
X9049Y84651D01*
X9257Y84883D01*
X9437Y85137D01*
X9588Y85410D01*
X9707Y85697D01*
X9793Y85997D01*
X9813Y86114D01*
D02*
G37*
G36*
X5209D02*
X1604D01*
X1624Y85997D01*
X1711Y85697D01*
X1830Y85410D01*
X1980Y85137D01*
X2160Y84883D01*
X2368Y84651D01*
X2600Y84444D01*
X2854Y84264D01*
X3126Y84113D01*
X3414Y83994D01*
X3713Y83908D01*
X4020Y83856D01*
X4331Y83838D01*
X5209D01*
Y86114D01*
D02*
G37*
G36*
X50984Y81402D02*
X50753Y81384D01*
X50527Y81330D01*
X50312Y81241D01*
X50114Y81119D01*
X49937Y80968D01*
X49786Y80792D01*
X49665Y80594D01*
X49576Y80379D01*
X49521Y80153D01*
X49503Y79921D01*
X49521Y79690D01*
X49576Y79464D01*
X49665Y79249D01*
X49786Y79051D01*
X49937Y78874D01*
X50114Y78723D01*
X50312Y78602D01*
X50527Y78513D01*
X50753Y78459D01*
X50984Y78440D01*
X51216Y78459D01*
X51442Y78513D01*
X51657Y78602D01*
X51855Y78723D01*
X52031Y78874D01*
X52182Y79051D01*
X52304Y79249D01*
X52393Y79464D01*
X52447Y79690D01*
X52465Y79921D01*
X52447Y80153D01*
X52393Y80379D01*
X52304Y80594D01*
X52182Y80792D01*
X52031Y80968D01*
X51855Y81119D01*
X51657Y81241D01*
X51442Y81330D01*
X51216Y81384D01*
X50984Y81402D01*
D02*
G37*
G36*
X12205Y75890D02*
X11907Y75873D01*
X11612Y75823D01*
X11326Y75741D01*
X11050Y75626D01*
X10789Y75482D01*
X10545Y75309D01*
X10323Y75111D01*
X10124Y74888D01*
X9951Y74645D01*
X9807Y74383D01*
X9692Y74107D01*
X9610Y73821D01*
X9560Y73526D01*
X9543Y73228D01*
X9560Y72930D01*
X9610Y72636D01*
X9692Y72349D01*
X9807Y72074D01*
X9951Y71812D01*
X10124Y71569D01*
X10323Y71346D01*
X10545Y71147D01*
X10789Y70975D01*
X11050Y70830D01*
X11326Y70716D01*
X11612Y70633D01*
X11907Y70583D01*
X12205Y70567D01*
X12503Y70583D01*
X12797Y70633D01*
X13084Y70716D01*
X13360Y70830D01*
X13621Y70975D01*
X13864Y71147D01*
X14087Y71346D01*
X14286Y71569D01*
X14458Y71812D01*
X14603Y72074D01*
X14717Y72349D01*
X14800Y72636D01*
X14850Y72930D01*
X14866Y73228D01*
X14850Y73526D01*
X14800Y73821D01*
X14717Y74107D01*
X14603Y74383D01*
X14458Y74645D01*
X14286Y74888D01*
X14087Y75111D01*
X13864Y75309D01*
X13621Y75482D01*
X13360Y75626D01*
X13084Y75741D01*
X12797Y75823D01*
X12503Y75873D01*
X12205Y75890D01*
D02*
G37*
G36*
X21100Y72212D02*
X20868Y72193D01*
X20642Y72139D01*
X20428Y72050D01*
X20230Y71929D01*
X20053Y71778D01*
X19902Y71601D01*
X19781Y71403D01*
X19692Y71188D01*
X19637Y70962D01*
X19619Y70731D01*
X19637Y70499D01*
X19692Y70273D01*
X19781Y70058D01*
X19902Y69860D01*
X20053Y69683D01*
X20230Y69533D01*
X20428Y69411D01*
X20642Y69322D01*
X20868Y69268D01*
X21100Y69250D01*
X21332Y69268D01*
X21558Y69322D01*
X21772Y69411D01*
X21971Y69533D01*
X22147Y69683D01*
X22298Y69860D01*
X22420Y70058D01*
X22509Y70273D01*
X22563Y70499D01*
X22581Y70731D01*
X22563Y70962D01*
X22509Y71188D01*
X22420Y71403D01*
X22298Y71601D01*
X22147Y71778D01*
X21971Y71929D01*
X21772Y72050D01*
X21558Y72139D01*
X21332Y72193D01*
X21100Y72212D01*
D02*
G37*
G36*
X12205Y64079D02*
X11907Y64062D01*
X11612Y64012D01*
X11326Y63930D01*
X11050Y63815D01*
X10789Y63671D01*
X10545Y63498D01*
X10323Y63299D01*
X10124Y63077D01*
X9951Y62833D01*
X9807Y62572D01*
X9692Y62296D01*
X9610Y62010D01*
X9560Y61715D01*
X9543Y61417D01*
X9560Y61119D01*
X9610Y60825D01*
X9692Y60538D01*
X9807Y60263D01*
X9951Y60001D01*
X10124Y59758D01*
X10323Y59535D01*
X10545Y59336D01*
X10789Y59164D01*
X11050Y59019D01*
X11326Y58905D01*
X11612Y58822D01*
X11907Y58772D01*
X12205Y58756D01*
X12503Y58772D01*
X12797Y58822D01*
X13084Y58905D01*
X13360Y59019D01*
X13621Y59164D01*
X13864Y59336D01*
X14087Y59535D01*
X14286Y59758D01*
X14458Y60001D01*
X14603Y60263D01*
X14717Y60538D01*
X14800Y60825D01*
X14850Y61119D01*
X14866Y61417D01*
X14850Y61715D01*
X14800Y62010D01*
X14717Y62296D01*
X14603Y62572D01*
X14458Y62833D01*
X14286Y63077D01*
X14087Y63299D01*
X13864Y63498D01*
X13621Y63671D01*
X13360Y63815D01*
X13084Y63930D01*
X12797Y64012D01*
X12503Y64062D01*
X12205Y64079D01*
D02*
G37*
G36*
X127559Y60142D02*
X127327Y60124D01*
X127101Y60070D01*
X126887Y59981D01*
X126689Y59860D01*
X126512Y59709D01*
X126361Y59532D01*
X126240Y59334D01*
X126151Y59119D01*
X126096Y58893D01*
X126078Y58661D01*
X126096Y58430D01*
X126151Y58204D01*
X126240Y57989D01*
X126361Y57791D01*
X126512Y57614D01*
X126689Y57463D01*
X126887Y57342D01*
X127101Y57253D01*
X127327Y57199D01*
X127559Y57181D01*
X127791Y57199D01*
X128017Y57253D01*
X128231Y57342D01*
X128429Y57463D01*
X128606Y57614D01*
X128757Y57791D01*
X128879Y57989D01*
X128967Y58204D01*
X129022Y58430D01*
X129040Y58661D01*
X129022Y58893D01*
X128967Y59119D01*
X128879Y59334D01*
X128757Y59532D01*
X128606Y59709D01*
X128429Y59860D01*
X128231Y59981D01*
X128017Y60070D01*
X127791Y60124D01*
X127559Y60142D01*
D02*
G37*
G36*
X39500Y54781D02*
X39268Y54763D01*
X39042Y54708D01*
X38828Y54619D01*
X38629Y54498D01*
X38453Y54347D01*
X38302Y54171D01*
X38181Y53972D01*
X38091Y53758D01*
X38037Y53532D01*
X38019Y53300D01*
X38020Y53286D01*
X35371Y50637D01*
X28256D01*
X28247Y50647D01*
X28071Y50798D01*
X27872Y50920D01*
X27658Y51008D01*
X27432Y51063D01*
X27200Y51081D01*
X26968Y51063D01*
X26742Y51008D01*
X26528Y50920D01*
X26329Y50798D01*
X26153Y50647D01*
X26002Y50471D01*
X25881Y50272D01*
X25791Y50058D01*
X25737Y49832D01*
X25719Y49600D01*
X25737Y49368D01*
X25791Y49142D01*
X25881Y48928D01*
X26002Y48730D01*
X26153Y48553D01*
X26329Y48402D01*
X26528Y48281D01*
X26742Y48191D01*
X26968Y48137D01*
X27200Y48119D01*
X27432Y48137D01*
X27658Y48191D01*
X27872Y48281D01*
X28071Y48402D01*
X28247Y48553D01*
X28256Y48563D01*
X35800D01*
X35962Y48576D01*
X36120Y48614D01*
X36271Y48676D01*
X36409Y48761D01*
X36533Y48867D01*
X39486Y51820D01*
X39500Y51819D01*
X39732Y51837D01*
X39958Y51891D01*
X40172Y51981D01*
X40371Y52102D01*
X40547Y52253D01*
X40698Y52429D01*
X40819Y52628D01*
X40909Y52842D01*
X40963Y53068D01*
X40981Y53300D01*
X40963Y53532D01*
X40909Y53758D01*
X40819Y53972D01*
X40698Y54171D01*
X40547Y54347D01*
X40371Y54498D01*
X40172Y54619D01*
X39958Y54708D01*
X39732Y54763D01*
X39500Y54781D01*
D02*
G37*
G36*
X137200Y59781D02*
X136968Y59763D01*
X136742Y59708D01*
X136528Y59619D01*
X136329Y59498D01*
X136153Y59347D01*
X136002Y59171D01*
X135880Y58972D01*
X135792Y58758D01*
X135737Y58532D01*
X135719Y58300D01*
X135737Y58068D01*
X135792Y57842D01*
X135880Y57628D01*
X136002Y57429D01*
X136153Y57253D01*
X136329Y57102D01*
X136528Y56981D01*
X136742Y56892D01*
X136968Y56837D01*
X137200Y56819D01*
X137432Y56837D01*
X137658Y56892D01*
X137872Y56981D01*
X137918Y57009D01*
X142965D01*
X145009Y54965D01*
Y53262D01*
X144587Y52859D01*
X144355Y52841D01*
X144129Y52786D01*
X143914Y52697D01*
X143716Y52576D01*
X143539Y52425D01*
X143388Y52248D01*
X143267Y52050D01*
X143178Y51836D01*
X143124Y51610D01*
X143106Y51378D01*
X143107Y51364D01*
X142706Y50964D01*
X135177D01*
X135014Y50951D01*
X134856Y50913D01*
X134706Y50851D01*
X134567Y50766D01*
X134443Y50660D01*
X134304Y50521D01*
X119314D01*
X118848Y50986D01*
X118849Y51000D01*
X118831Y51232D01*
X118777Y51458D01*
X118688Y51672D01*
X118567Y51871D01*
X118416Y52047D01*
X118239Y52198D01*
X118041Y52320D01*
X117826Y52408D01*
X117600Y52463D01*
X117368Y52481D01*
X117137Y52463D01*
X116911Y52408D01*
X116696Y52320D01*
X116498Y52198D01*
X116321Y52047D01*
X116170Y51871D01*
X116049Y51672D01*
X115960Y51458D01*
X115906Y51232D01*
X115888Y51000D01*
X115906Y50768D01*
X115960Y50542D01*
X116049Y50328D01*
X116170Y50129D01*
X116208Y50085D01*
X116321Y49934D01*
Y49566D01*
X116208Y49415D01*
X116170Y49371D01*
X116049Y49172D01*
X115960Y48958D01*
X115906Y48732D01*
X115888Y48500D01*
X115906Y48268D01*
X115960Y48042D01*
X116049Y47828D01*
X116170Y47629D01*
X116208Y47585D01*
X116321Y47434D01*
Y47066D01*
X116208Y46915D01*
X116170Y46870D01*
X116049Y46672D01*
X115960Y46458D01*
X115906Y46232D01*
X115888Y46000D01*
X115906Y45768D01*
X115960Y45542D01*
X116049Y45328D01*
X116170Y45129D01*
X116321Y44953D01*
X116498Y44802D01*
X116696Y44681D01*
X116911Y44592D01*
X117137Y44537D01*
X117368Y44519D01*
X117600Y44537D01*
X117826Y44592D01*
X118041Y44681D01*
X118239Y44802D01*
X118416Y44953D01*
X118567Y45129D01*
X118688Y45328D01*
X118777Y45542D01*
X118831Y45768D01*
X118849Y46000D01*
X118848Y46014D01*
X119314Y46479D01*
X134304D01*
X134443Y46340D01*
X134567Y46234D01*
X134706Y46149D01*
X134856Y46087D01*
X135014Y46049D01*
X135177Y46036D01*
X143129D01*
X143291Y46049D01*
X143449Y46087D01*
X143599Y46149D01*
X143738Y46234D01*
X143862Y46340D01*
X144509Y46987D01*
X144677Y46958D01*
X145009Y46645D01*
Y46487D01*
X145016Y46388D01*
X144994Y46295D01*
X144976Y46063D01*
X144994Y45831D01*
X145048Y45605D01*
X145137Y45391D01*
X145259Y45193D01*
X145410Y45016D01*
X145586Y44865D01*
X145784Y44743D01*
X145999Y44655D01*
X146225Y44600D01*
X146457Y44582D01*
X146688Y44600D01*
X146914Y44655D01*
X147129Y44743D01*
X147327Y44865D01*
X147504Y45016D01*
X147655Y45193D01*
X147776Y45391D01*
X147865Y45605D01*
X147919Y45831D01*
X147938Y46063D01*
X147919Y46295D01*
X147865Y46521D01*
X147776Y46735D01*
X147655Y46933D01*
X147591Y47008D01*
Y55500D01*
X147575Y55702D01*
X147528Y55899D01*
X147451Y56086D01*
X147345Y56259D01*
X147213Y56413D01*
X144413Y59213D01*
X144259Y59345D01*
X144086Y59451D01*
X143899Y59528D01*
X143702Y59575D01*
X143500Y59591D01*
X137918D01*
X137872Y59619D01*
X137658Y59708D01*
X137432Y59763D01*
X137200Y59781D01*
D02*
G37*
G36*
X108600Y52481D02*
X108368Y52463D01*
X108142Y52408D01*
X107928Y52320D01*
X107729Y52198D01*
X107553Y52047D01*
X107402Y51871D01*
X107281Y51672D01*
X107192Y51458D01*
X107137Y51232D01*
X107119Y51000D01*
X107137Y50768D01*
X107192Y50542D01*
X107281Y50328D01*
X107402Y50129D01*
X107440Y50085D01*
X107553Y49934D01*
Y49566D01*
X107440Y49415D01*
X107402Y49371D01*
X107281Y49172D01*
X107192Y48958D01*
X107137Y48732D01*
X107119Y48500D01*
X107137Y48268D01*
X107192Y48042D01*
X107281Y47828D01*
X107402Y47629D01*
X107440Y47585D01*
X107553Y47434D01*
Y47066D01*
X107440Y46915D01*
X107402Y46870D01*
X107281Y46672D01*
X107192Y46458D01*
X107137Y46232D01*
X107119Y46000D01*
X107137Y45768D01*
X107192Y45542D01*
X107281Y45328D01*
X107402Y45129D01*
X107553Y44953D01*
X107729Y44802D01*
X107928Y44681D01*
X108142Y44592D01*
X108368Y44537D01*
X108600Y44519D01*
X108832Y44537D01*
X109058Y44592D01*
X109272Y44681D01*
X109470Y44802D01*
X109647Y44953D01*
X109798Y45129D01*
X109920Y45328D01*
X110009Y45542D01*
X110063Y45768D01*
X110081Y46000D01*
X110063Y46232D01*
X110009Y46458D01*
X109920Y46672D01*
X109798Y46870D01*
X109760Y46915D01*
X109647Y47066D01*
Y47434D01*
X109760Y47585D01*
X109798Y47629D01*
X109920Y47828D01*
X110009Y48042D01*
X110063Y48268D01*
X110081Y48500D01*
X110063Y48732D01*
X110009Y48958D01*
X109920Y49172D01*
X109798Y49371D01*
X109760Y49415D01*
X109647Y49566D01*
Y49934D01*
X109760Y50085D01*
X109798Y50129D01*
X109920Y50328D01*
X110009Y50542D01*
X110063Y50768D01*
X110081Y51000D01*
X110063Y51232D01*
X110009Y51458D01*
X109920Y51672D01*
X109798Y51871D01*
X109647Y52047D01*
X109470Y52198D01*
X109272Y52320D01*
X109058Y52408D01*
X108832Y52463D01*
X108600Y52481D01*
D02*
G37*
G36*
X145924Y41168D02*
X145693Y41150D01*
X145467Y41096D01*
X145252Y41007D01*
X145054Y40885D01*
X144877Y40735D01*
X144726Y40558D01*
X144605Y40360D01*
X144516Y40145D01*
X144462Y39919D01*
X144444Y39687D01*
X144462Y39456D01*
X144516Y39230D01*
X144605Y39015D01*
X144726Y38817D01*
X144877Y38640D01*
X145054Y38489D01*
X145252Y38368D01*
X145467Y38279D01*
X145693Y38225D01*
X145924Y38206D01*
X146156Y38225D01*
X146382Y38279D01*
X146597Y38368D01*
X146795Y38489D01*
X146972Y38640D01*
X147123Y38817D01*
X147244Y39015D01*
X147333Y39230D01*
X147387Y39456D01*
X147405Y39687D01*
X147387Y39919D01*
X147333Y40145D01*
X147244Y40360D01*
X147123Y40558D01*
X146972Y40735D01*
X146795Y40885D01*
X146597Y41007D01*
X146382Y41096D01*
X146156Y41150D01*
X145924Y41168D01*
D02*
G37*
G36*
X32082Y33581D02*
X31850Y33563D01*
X31624Y33509D01*
X31409Y33419D01*
X31211Y33298D01*
X31035Y33147D01*
X30884Y32970D01*
X30762Y32772D01*
X30673Y32558D01*
X30619Y32332D01*
X30601Y32100D01*
X30619Y31868D01*
X30673Y31642D01*
X30762Y31428D01*
X30884Y31229D01*
X31035Y31053D01*
X31211Y30902D01*
X31409Y30781D01*
X31624Y30691D01*
X31850Y30637D01*
X32082Y30619D01*
X32313Y30637D01*
X32539Y30691D01*
X32754Y30781D01*
X32952Y30902D01*
X33129Y31053D01*
X33280Y31229D01*
X33401Y31428D01*
X33490Y31642D01*
X33544Y31868D01*
X33563Y32100D01*
X33544Y32332D01*
X33490Y32558D01*
X33401Y32772D01*
X33280Y32970D01*
X33129Y33147D01*
X32952Y33298D01*
X32754Y33419D01*
X32539Y33509D01*
X32313Y33563D01*
X32082Y33581D01*
D02*
G37*
G36*
X26100Y33081D02*
X25868Y33063D01*
X25642Y33008D01*
X25428Y32919D01*
X25229Y32798D01*
X25053Y32647D01*
X24902Y32470D01*
X24780Y32272D01*
X24691Y32058D01*
X24637Y31832D01*
X24619Y31600D01*
X24637Y31368D01*
X24691Y31142D01*
X24780Y30928D01*
X24902Y30729D01*
X25053Y30553D01*
X25229Y30402D01*
X25428Y30281D01*
X25642Y30191D01*
X25868Y30137D01*
X26100Y30119D01*
X26332Y30137D01*
X26558Y30191D01*
X26772Y30281D01*
X26970Y30402D01*
X27147Y30553D01*
X27298Y30729D01*
X27419Y30928D01*
X27509Y31142D01*
X27563Y31368D01*
X27581Y31600D01*
X27563Y31832D01*
X27509Y32058D01*
X27419Y32272D01*
X27298Y32470D01*
X27147Y32647D01*
X26970Y32798D01*
X26772Y32919D01*
X26558Y33008D01*
X26332Y33063D01*
X26100Y33081D01*
D02*
G37*
G36*
X131726Y32268D02*
X131494Y32250D01*
X131268Y32196D01*
X131054Y32107D01*
X130856Y31986D01*
X130679Y31835D01*
X130528Y31658D01*
X130406Y31460D01*
X130317Y31245D01*
X130263Y31019D01*
X130245Y30787D01*
X130263Y30556D01*
X130317Y30330D01*
X130406Y30115D01*
X130528Y29917D01*
X130679Y29740D01*
X130856Y29589D01*
X131054Y29468D01*
X131268Y29379D01*
X131494Y29325D01*
X131726Y29307D01*
X131958Y29325D01*
X132184Y29379D01*
X132398Y29468D01*
X132597Y29589D01*
X132773Y29740D01*
X132924Y29917D01*
X133045Y30115D01*
X133134Y30330D01*
X133189Y30556D01*
X133207Y30787D01*
X133189Y31019D01*
X133134Y31245D01*
X133045Y31460D01*
X132924Y31658D01*
X132773Y31835D01*
X132597Y31986D01*
X132398Y32107D01*
X132184Y32196D01*
X131958Y32250D01*
X131726Y32268D01*
D02*
G37*
G36*
X132811Y28326D02*
X132580Y28307D01*
X132354Y28253D01*
X132139Y28164D01*
X131941Y28043D01*
X131764Y27892D01*
X131613Y27715D01*
X131492Y27517D01*
X131403Y27302D01*
X131349Y27076D01*
X131331Y26845D01*
X131349Y26613D01*
X131403Y26387D01*
X131492Y26172D01*
X131613Y25974D01*
X131764Y25797D01*
X131941Y25646D01*
X132139Y25525D01*
X132354Y25436D01*
X132580Y25382D01*
X132811Y25364D01*
X133043Y25382D01*
X133269Y25436D01*
X133484Y25525D01*
X133682Y25646D01*
X133859Y25797D01*
X134010Y25974D01*
X134131Y26172D01*
X134220Y26387D01*
X134274Y26613D01*
X134292Y26845D01*
X134274Y27076D01*
X134220Y27302D01*
X134131Y27517D01*
X134010Y27715D01*
X133859Y27892D01*
X133682Y28043D01*
X133484Y28164D01*
X133269Y28253D01*
X133043Y28307D01*
X132811Y28326D01*
D02*
G37*
G36*
X36417Y25792D02*
X36070Y25775D01*
X35725Y25723D01*
X35388Y25639D01*
X35060Y25522D01*
X34745Y25373D01*
X34446Y25194D01*
X34167Y24986D01*
X33909Y24753D01*
X33675Y24495D01*
X33468Y24215D01*
X33289Y23916D01*
X33140Y23602D01*
X33022Y23274D01*
X32938Y22936D01*
X32887Y22592D01*
X32870Y22244D01*
X32887Y21896D01*
X32938Y21552D01*
X33022Y21214D01*
X33140Y20887D01*
X33289Y20572D01*
X33468Y20273D01*
X33675Y19994D01*
X33711Y19954D01*
X33489Y19454D01*
X32799D01*
X31675Y20578D01*
X31821Y20887D01*
X31938Y21214D01*
X32023Y21552D01*
X32074Y21896D01*
X32091Y22244D01*
X32074Y22592D01*
X32023Y22936D01*
X31938Y23274D01*
X31821Y23602D01*
X31672Y23916D01*
X31493Y24215D01*
X31286Y24495D01*
X31052Y24753D01*
X30794Y24986D01*
X30514Y25194D01*
X30216Y25373D01*
X29901Y25522D01*
X29573Y25639D01*
X29235Y25723D01*
X28891Y25775D01*
X28543Y25792D01*
X28196Y25775D01*
X27851Y25723D01*
X27514Y25639D01*
X27186Y25522D01*
X26871Y25373D01*
X26572Y25194D01*
X26293Y24986D01*
X26035Y24753D01*
X25801Y24495D01*
X25594Y24215D01*
X25415Y23916D01*
X25266Y23602D01*
X25148Y23274D01*
X25064Y22936D01*
X25013Y22592D01*
X24996Y22244D01*
X25013Y21896D01*
X25064Y21552D01*
X25148Y21214D01*
X25266Y20887D01*
X25415Y20572D01*
X25594Y20273D01*
X25801Y19994D01*
X26035Y19736D01*
X26293Y19502D01*
X26572Y19294D01*
X26871Y19115D01*
X27186Y18967D01*
X27514Y18849D01*
X27851Y18765D01*
X28196Y18714D01*
X28543Y18697D01*
X28891Y18714D01*
X29235Y18765D01*
X29573Y18849D01*
X29901Y18967D01*
X30209Y19112D01*
X31637Y17685D01*
X31760Y17579D01*
X31899Y17494D01*
X32049Y17432D01*
X32208Y17394D01*
X32370Y17381D01*
X33719D01*
X33911Y16881D01*
X33909Y16879D01*
X33675Y16621D01*
X33468Y16341D01*
X33289Y16042D01*
X33140Y15728D01*
X33022Y15400D01*
X32938Y15062D01*
X32887Y14718D01*
X32870Y14370D01*
X32887Y14022D01*
X32938Y13678D01*
X33022Y13340D01*
X33140Y13013D01*
X33289Y12698D01*
X33468Y12399D01*
X33675Y12120D01*
X33811Y11970D01*
X33695Y11593D01*
X33597Y11470D01*
X32910D01*
X31675Y12704D01*
X31821Y13013D01*
X31938Y13340D01*
X32023Y13678D01*
X32074Y14022D01*
X32091Y14370D01*
X32074Y14718D01*
X32023Y15062D01*
X31938Y15400D01*
X31821Y15728D01*
X31672Y16042D01*
X31493Y16341D01*
X31286Y16621D01*
X31052Y16879D01*
X30794Y17112D01*
X30514Y17320D01*
X30216Y17499D01*
X29901Y17648D01*
X29573Y17765D01*
X29235Y17850D01*
X28891Y17901D01*
X28543Y17918D01*
X28196Y17901D01*
X27851Y17850D01*
X27514Y17765D01*
X27186Y17648D01*
X26871Y17499D01*
X26572Y17320D01*
X26293Y17112D01*
X26035Y16879D01*
X25801Y16621D01*
X25594Y16341D01*
X25415Y16042D01*
X25266Y15728D01*
X25148Y15400D01*
X25064Y15062D01*
X25013Y14718D01*
X24996Y14370D01*
X25013Y14022D01*
X25064Y13678D01*
X25148Y13340D01*
X25266Y13013D01*
X25415Y12698D01*
X25594Y12399D01*
X25801Y12120D01*
X26035Y11862D01*
X26293Y11628D01*
X26572Y11420D01*
X26871Y11241D01*
X27186Y11092D01*
X27514Y10975D01*
X27851Y10891D01*
X28196Y10840D01*
X28543Y10823D01*
X28891Y10840D01*
X29235Y10891D01*
X29573Y10975D01*
X29901Y11092D01*
X30209Y11238D01*
X31747Y9700D01*
X31871Y9594D01*
X32010Y9509D01*
X32160Y9447D01*
X32318Y9409D01*
X32480Y9396D01*
X45563D01*
X45725Y9409D01*
X45883Y9447D01*
X46034Y9509D01*
X46172Y9594D01*
X46296Y9700D01*
X52993Y16397D01*
X68409D01*
X68893Y16317D01*
X68911Y16086D01*
X68966Y15860D01*
X69055Y15645D01*
X69176Y15447D01*
X69327Y15270D01*
X69503Y15119D01*
X69702Y14998D01*
X69916Y14909D01*
X70142Y14855D01*
X70374Y14836D01*
X70606Y14855D01*
X70832Y14909D01*
X71046Y14998D01*
X71245Y15119D01*
X71309Y15174D01*
X71374Y15119D01*
X71572Y14998D01*
X71786Y14909D01*
X72012Y14855D01*
X72244Y14836D01*
X72476Y14855D01*
X72702Y14909D01*
X72916Y14998D01*
X73115Y15119D01*
X73179Y15174D01*
X73244Y15119D01*
X73442Y14998D01*
X73656Y14909D01*
X73883Y14855D01*
X74114Y14836D01*
X74346Y14855D01*
X74572Y14909D01*
X74787Y14998D01*
X74985Y15119D01*
X75049Y15174D01*
X75114Y15119D01*
X75312Y14998D01*
X75527Y14909D01*
X75753Y14855D01*
X75984Y14836D01*
X76216Y14855D01*
X76442Y14909D01*
X76657Y14998D01*
X76855Y15119D01*
X77031Y15270D01*
X77182Y15447D01*
X77304Y15645D01*
X77393Y15860D01*
X77447Y16086D01*
X77465Y16317D01*
X77447Y16549D01*
X77393Y16775D01*
X77304Y16990D01*
X77182Y17188D01*
X77031Y17365D01*
X76855Y17515D01*
X76657Y17637D01*
X76442Y17726D01*
X76216Y17780D01*
X76129Y17787D01*
X72797Y21119D01*
X72673Y21225D01*
X72534Y21310D01*
X72384Y21372D01*
X72226Y21410D01*
X72064Y21423D01*
X54846D01*
X53645Y22624D01*
X53646Y22638D01*
X53628Y22870D01*
X53574Y23095D01*
X53485Y23310D01*
X53364Y23508D01*
X53212Y23685D01*
X53036Y23836D01*
X52838Y23957D01*
X52623Y24046D01*
X52397Y24101D01*
X52165Y24119D01*
X51934Y24101D01*
X51708Y24046D01*
X51493Y23957D01*
X51295Y23836D01*
X51118Y23685D01*
X50967Y23508D01*
X50846Y23310D01*
X50757Y23095D01*
X50703Y22870D01*
X50684Y22638D01*
X50703Y22406D01*
X50757Y22180D01*
X50846Y21966D01*
X50967Y21767D01*
X51118Y21591D01*
X51295Y21440D01*
X51493Y21318D01*
X51708Y21229D01*
X51934Y21175D01*
X52049Y21166D01*
X52219Y20939D01*
X51972Y20439D01*
X51100D01*
X50694Y20669D01*
X50675Y20901D01*
X50621Y21127D01*
X50532Y21342D01*
X50411Y21540D01*
X50260Y21716D01*
X50083Y21867D01*
X49885Y21989D01*
X49670Y22078D01*
X49444Y22132D01*
X49213Y22150D01*
X48981Y22132D01*
X48755Y22078D01*
X48540Y21989D01*
X48342Y21867D01*
X48335Y21861D01*
X47835Y22085D01*
Y25787D01*
X40748D01*
Y19454D01*
X39346D01*
X39124Y19954D01*
X39160Y19994D01*
X39367Y20273D01*
X39546Y20572D01*
X39695Y20887D01*
X39812Y21214D01*
X39897Y21552D01*
X39948Y21896D01*
X39965Y22244D01*
X39948Y22592D01*
X39897Y22936D01*
X39812Y23274D01*
X39695Y23602D01*
X39546Y23916D01*
X39367Y24215D01*
X39160Y24495D01*
X38926Y24753D01*
X38668Y24986D01*
X38388Y25194D01*
X38090Y25373D01*
X37775Y25522D01*
X37447Y25639D01*
X37109Y25723D01*
X36765Y25775D01*
X36417Y25792D01*
D02*
G37*
G36*
X133445Y17850D02*
Y15854D01*
X133165Y15583D01*
X132945Y15472D01*
X132811Y15483D01*
X132580Y15465D01*
X132354Y15410D01*
X132139Y15321D01*
X131941Y15200D01*
X131764Y15049D01*
X131613Y14872D01*
X131492Y14674D01*
X131403Y14459D01*
X131349Y14234D01*
X131331Y14002D01*
X131349Y13770D01*
X131403Y13544D01*
X131492Y13330D01*
X131613Y13131D01*
X131764Y12955D01*
X131941Y12804D01*
X132139Y12682D01*
X132354Y12593D01*
X132580Y12539D01*
X132811Y12521D01*
X132863Y12525D01*
X133243Y12266D01*
X133363Y12102D01*
Y11007D01*
X137058Y11007D01*
Y10184D01*
X132576D01*
X132576Y7822D01*
X137058Y7822D01*
Y6425D01*
X139420Y6425D01*
Y11150D01*
X138088Y11150D01*
X138088Y13369D01*
X135807D01*
Y17850D01*
X133445Y17850D01*
D02*
G37*
G36*
X83822Y14703D02*
X83590Y14685D01*
X83364Y14630D01*
X83150Y14541D01*
X82951Y14420D01*
X82775Y14269D01*
X82624Y14093D01*
X82503Y13894D01*
X82414Y13680D01*
X82359Y13454D01*
X82341Y13222D01*
X82359Y12990D01*
X82414Y12764D01*
X82503Y12550D01*
X82624Y12352D01*
X82775Y12175D01*
X82951Y12024D01*
X83150Y11902D01*
X83364Y11813D01*
X83590Y11759D01*
X83822Y11741D01*
X84054Y11759D01*
X84280Y11813D01*
X84494Y11902D01*
X84693Y12024D01*
X84869Y12175D01*
X85020Y12352D01*
X85141Y12550D01*
X85230Y12764D01*
X85285Y12990D01*
X85303Y13222D01*
X85285Y13454D01*
X85230Y13680D01*
X85141Y13894D01*
X85020Y14093D01*
X84869Y14269D01*
X84693Y14420D01*
X84494Y14541D01*
X84280Y14630D01*
X84054Y14685D01*
X83822Y14703D01*
D02*
G37*
G36*
X126426Y11968D02*
X126194Y11950D01*
X125968Y11896D01*
X125754Y11807D01*
X125556Y11686D01*
X125379Y11535D01*
X125228Y11358D01*
X125107Y11160D01*
X125017Y10945D01*
X124963Y10719D01*
X124945Y10487D01*
X124963Y10256D01*
X125017Y10030D01*
X125107Y9815D01*
X125228Y9617D01*
X125379Y9440D01*
X125485Y9350D01*
X125447Y9092D01*
X125316Y8850D01*
X123645Y8850D01*
Y8768D01*
X119164D01*
X119164Y6406D01*
X123645Y6406D01*
Y4126D01*
X126007Y4126D01*
Y8555D01*
X126037Y8630D01*
X126418Y8999D01*
X126442Y9008D01*
X126658Y9025D01*
X126884Y9079D01*
X127098Y9168D01*
X127296Y9289D01*
X127473Y9440D01*
X127624Y9617D01*
X127745Y9815D01*
X127834Y10030D01*
X127889Y10256D01*
X127907Y10487D01*
X127889Y10719D01*
X127834Y10945D01*
X127745Y11160D01*
X127624Y11358D01*
X127473Y11535D01*
X127296Y11686D01*
X127098Y11807D01*
X126884Y11896D01*
X126658Y11950D01*
X126426Y11968D01*
D02*
G37*
G36*
X13780Y20674D02*
X13288Y20656D01*
X12799Y20604D01*
X12314Y20516D01*
X11837Y20394D01*
X11370Y20239D01*
X10916Y20051D01*
X10476Y19830D01*
X10052Y19579D01*
X9648Y19299D01*
X9265Y18990D01*
X8905Y18654D01*
X8569Y18294D01*
X8261Y17911D01*
X7980Y17507D01*
X7729Y17084D01*
X7508Y16644D01*
X7320Y16189D01*
X7165Y15722D01*
X7043Y15245D01*
X6956Y14761D01*
X6903Y14271D01*
X6886Y13780D01*
X6903Y13288D01*
X6956Y12798D01*
X7043Y12314D01*
X7165Y11837D01*
X7320Y11370D01*
X7508Y10916D01*
X7729Y10476D01*
X7980Y10052D01*
X8261Y9648D01*
X8569Y9265D01*
X8905Y8905D01*
X9265Y8569D01*
X9648Y8260D01*
X10052Y7980D01*
X10476Y7729D01*
X10916Y7508D01*
X11370Y7320D01*
X11837Y7165D01*
X12314Y7043D01*
X12799Y6956D01*
X13288Y6903D01*
X13780Y6885D01*
X14271Y6903D01*
X14761Y6956D01*
X15245Y7043D01*
X15722Y7165D01*
X16189Y7320D01*
X16644Y7508D01*
X17084Y7729D01*
X17507Y7980D01*
X17911Y8260D01*
X18294Y8569D01*
X18654Y8905D01*
X18990Y9265D01*
X19299Y9648D01*
X19579Y10052D01*
X19830Y10476D01*
X20051Y10916D01*
X20239Y11370D01*
X20394Y11837D01*
X20516Y12314D01*
X20604Y12798D01*
X20656Y13288D01*
X20674Y13780D01*
X20656Y14271D01*
X20604Y14761D01*
X20516Y15245D01*
X20394Y15722D01*
X20239Y16189D01*
X20051Y16644D01*
X19830Y17084D01*
X19579Y17507D01*
X19299Y17911D01*
X18990Y18294D01*
X18654Y18654D01*
X18294Y18990D01*
X17911Y19299D01*
X17507Y19579D01*
X17084Y19830D01*
X16644Y20051D01*
X16189Y20239D01*
X15722Y20394D01*
X15245Y20516D01*
X14761Y20604D01*
X14271Y20656D01*
X13780Y20674D01*
D02*
G37*
%LPD*%
D10*
X40500Y105400D02*
X43000Y102900D01*
X40500Y105400D02*
Y117000D01*
X39500Y118000D02*
X40500Y117000D01*
X32900Y118000D02*
X39500D01*
X30913Y119987D02*
X32900Y118000D01*
X19633Y119987D02*
X30913D01*
X13087Y126533D02*
X19633Y119987D01*
X13087Y126533D02*
Y135967D01*
X16621Y139500D01*
X17400D01*
X94688Y37000D02*
X100000D01*
X85511Y27824D02*
X94688Y37000D01*
X84353Y26665D02*
X85511Y27824D01*
X92511D01*
X84353Y20553D02*
Y26665D01*
X92511Y27824D02*
X93588Y28900D01*
X79900Y16100D02*
X84353Y20553D01*
X93588Y28900D02*
X93800D01*
X59577Y45604D02*
X62199Y42983D01*
Y42400D02*
Y42983D01*
X59577Y45604D02*
Y49177D01*
X65300Y54900D01*
X65500D01*
D11*
X82800Y82566D02*
X85570Y79796D01*
X82800Y82566D02*
Y83400D01*
X85570Y63982D02*
Y79796D01*
Y63982D02*
X92947Y56606D01*
Y51226D02*
Y56606D01*
Y51226D02*
X95374Y48799D01*
Y42421D02*
Y48799D01*
X94100Y167200D02*
Y168700D01*
X92325Y165425D02*
X94100Y167200D01*
X92325Y160975D02*
Y165425D01*
Y160975D02*
X93575Y159725D01*
Y149129D02*
Y159725D01*
X92558Y148113D02*
X93575Y149129D01*
X99400Y165700D02*
X104073D01*
X106148Y167775D01*
X122885D01*
X124289Y166371D01*
X84230Y154599D02*
X84280Y154649D01*
X84330Y154114D02*
Y154599D01*
Y154114D02*
X85635Y152809D01*
X87709D01*
X92000Y157100D01*
Y158900D01*
Y150800D02*
Y154200D01*
X89062Y147862D02*
X92000Y150800D01*
X87862Y147862D02*
X89062D01*
X25300Y158500D02*
X26800Y157000D01*
X25300Y158500D02*
Y182100D01*
D12*
X92200Y39300D02*
X92532Y38969D01*
X94933D01*
X96855Y40890D01*
Y48994D01*
X94307Y51542D02*
X96855Y48994D01*
X94307Y51542D02*
Y56922D01*
X86756Y64473D02*
X94307Y56922D01*
X86756Y64473D02*
Y80287D01*
X84400Y82643D02*
X86756Y80287D01*
X84400Y82643D02*
Y85000D01*
X95877Y167300D02*
X103100D01*
X93511Y164934D02*
X95877Y167300D01*
X93511Y161689D02*
Y164934D01*
Y161689D02*
X94761Y160439D01*
Y147561D02*
Y160439D01*
X93200Y146000D02*
X94761Y147561D01*
X87630Y146000D02*
X93200D01*
X85913Y147717D02*
X87630Y146000D01*
X85913Y147717D02*
Y148087D01*
X78244Y82356D02*
Y84600D01*
X78644Y85000D01*
X78244Y84600D02*
Y85000D01*
Y82356D02*
X82200Y78400D01*
Y62586D02*
Y78400D01*
Y62586D02*
X89577Y55210D01*
Y49830D02*
Y55210D01*
Y49830D02*
X90909Y48497D01*
Y42117D02*
Y48497D01*
X86992Y38200D02*
X90909Y42117D01*
X86900Y38200D02*
X86992D01*
X107467Y170067D02*
X108700Y171300D01*
X97077Y170067D02*
X107467D01*
X95871Y171273D02*
X97077Y170067D01*
X93034Y171273D02*
X95871D01*
X89008Y167247D02*
X93034Y171273D01*
X89008Y163508D02*
Y167247D01*
X78442Y152942D02*
X89008Y163508D01*
X78442Y149687D02*
Y152942D01*
X86404Y143300D02*
X94875D01*
X86287Y143417D02*
X86404Y143300D01*
X94875D02*
X96457Y144882D01*
X93483Y42218D02*
Y49013D01*
X91761Y50735D02*
X93483Y49013D01*
X91761Y50735D02*
Y56114D01*
X84384Y63491D02*
X91761Y56114D01*
X84384Y63491D02*
Y79305D01*
X81228Y82461D02*
X84384Y79305D01*
X81228Y82461D02*
Y85000D01*
X84381Y143860D02*
Y148651D01*
X83838Y143316D02*
X84381Y143860D01*
Y148651D02*
X85668Y149938D01*
X87862D01*
X113800Y192900D02*
X115181Y191519D01*
Y172681D02*
Y191519D01*
X111475Y168975D02*
X115181Y172681D01*
X96625Y168975D02*
X111475D01*
X95419Y170181D02*
X96625Y168975D01*
X93486Y170181D02*
X95419D01*
X90100Y166795D02*
X93486Y170181D01*
X90100Y163056D02*
Y166795D01*
X88800Y161756D02*
X90100Y163056D01*
X88800Y158700D02*
Y161756D01*
X94320Y40650D02*
X94520D01*
X93157Y40450D02*
X94320D01*
X92002Y41605D02*
X93157Y40450D01*
X92002Y41605D02*
Y48950D01*
X90669Y50282D02*
X92002Y48950D01*
X90669Y50282D02*
Y55662D01*
X83292Y63039D02*
X90669Y55662D01*
X83292Y63039D02*
Y78852D01*
X79736Y82408D02*
X83292Y78852D01*
X79736Y82408D02*
Y83400D01*
X78900Y143400D02*
X80700Y145200D01*
Y152900D01*
D15*
X150909Y174409D02*
G03*
X174409Y150909I23500J0D01*
G01*
X150080Y167470D02*
G03*
X174409Y149109I24330J6940D01*
G01*
X24700Y60800D02*
X28300Y64400D01*
X22831Y60800D02*
X24700D01*
X21000Y58969D02*
X22831Y60800D01*
X21000Y34800D02*
Y58969D01*
X137200Y58300D02*
X143500D01*
X146300Y55500D01*
Y46487D02*
Y55500D01*
X146384Y46135D02*
X146457Y46063D01*
X146300Y46487D02*
X146384Y46403D01*
Y46135D02*
Y46403D01*
X72408Y141592D02*
X98892D01*
X99100Y141800D01*
X71100Y142900D02*
X72408Y141592D01*
X70300Y142900D02*
X71100D01*
X76500Y102800D02*
X77585D01*
X137800Y163700D02*
X141400D01*
X129100Y172400D02*
X137800Y163700D01*
X121800Y172400D02*
X129000D01*
X129100D01*
X129000D02*
X141400Y184800D01*
X101300Y138500D02*
X103000Y140200D01*
X78981Y138500D02*
X101300D01*
X75700Y135219D02*
X78981Y138500D01*
X75700Y111143D02*
Y135219D01*
X74357Y109800D02*
X75700Y111143D01*
X71500Y109800D02*
X74357D01*
X11800Y136500D02*
X20200Y144900D01*
X11800Y126000D02*
Y136500D01*
Y126000D02*
X19100Y118700D01*
X30000D01*
X30900Y117800D01*
Y110100D02*
Y117800D01*
Y110100D02*
X42392Y98608D01*
Y83625D02*
Y98608D01*
Y83625D02*
X46000Y80017D01*
Y42300D02*
Y80017D01*
Y42300D02*
X51076Y37225D01*
X61924D01*
X63035Y38335D01*
X65965D01*
X67261Y37039D01*
Y31442D02*
Y37039D01*
X65392Y29573D02*
X67261Y31442D01*
X60427Y29573D02*
X65392D01*
X59000Y31000D02*
X60427Y29573D01*
X138200Y178000D02*
X147417D01*
X150858Y174558D01*
X174409Y150909D02*
X174409D01*
X174705D01*
X174907Y150707D01*
X175009D01*
X71200Y140100D02*
X100300D01*
X100400Y140200D01*
X70300Y141000D02*
X71200Y140100D01*
X115900Y100800D02*
X118000Y98700D01*
X76500Y100800D02*
X115900D01*
X76500Y98800D02*
X115100D01*
X115200Y98700D01*
X178450Y150857D02*
X178600Y151007D01*
X177017Y149125D02*
X178600Y150707D01*
X174409Y149125D02*
X177017D01*
X138200Y167500D02*
X150000D01*
D16*
X55691Y101773D02*
X56019Y102101D01*
X55000Y101773D02*
X55691D01*
X54235Y101773D02*
X55000D01*
X52700Y100238D02*
X54235Y101773D01*
X53673Y102335D02*
X54235Y101773D01*
X52700Y91929D02*
Y100238D01*
X53673Y102335D02*
Y103791D01*
X52700Y91929D02*
X59631Y84998D01*
X53673Y103791D02*
X55177Y105296D01*
X59631Y84998D02*
X76198D01*
X55177Y105296D02*
X71604D01*
X76198Y84998D02*
X77627Y86427D01*
X71604Y105296D02*
X76938Y110630D01*
X77627Y86427D02*
X147490D01*
X76938Y110630D02*
Y115130D01*
X147490Y86427D02*
X149855Y88792D01*
X76938Y115130D02*
X80692Y118884D01*
X149855Y88792D02*
Y91339D01*
X80692Y118884D02*
X89330D01*
X149855Y91339D02*
X151233Y92717D01*
X89330Y118884D02*
X91974Y121528D01*
X151233Y92717D02*
X151283D01*
X91974Y121528D02*
Y126378D01*
X130100Y142300D02*
X132890D01*
X140117Y135073D01*
X144916D01*
X147416Y132573D01*
Y116916D02*
Y132573D01*
X143127Y112627D02*
X147416Y116916D01*
X134709Y112627D02*
X143127D01*
X132984Y110903D02*
X134709Y112627D01*
X132984Y100660D02*
Y110903D01*
X126625Y94301D02*
X132984Y100660D01*
X74321Y94301D02*
X126625D01*
X71995Y96627D02*
X74321Y94301D01*
X63927Y96627D02*
X71995D01*
X63500Y96200D02*
X63927Y96627D01*
X34238Y99338D02*
X35000Y100100D01*
Y100023D02*
Y100100D01*
X34238Y94880D02*
Y99338D01*
X32600Y93242D02*
X34238Y94880D01*
X32600Y81100D02*
Y93242D01*
Y81100D02*
X34200Y79500D01*
Y79400D02*
Y79500D01*
X39313Y157917D02*
Y161762D01*
Y157917D02*
X45080Y152150D01*
X45750D01*
X40641Y159503D02*
Y162891D01*
Y159503D02*
X45750Y154394D01*
Y153724D02*
Y154394D01*
X91974Y129528D02*
X93638Y127864D01*
Y121800D02*
Y127864D01*
X89738Y117900D02*
X93638Y121800D01*
X81100Y117900D02*
X89738D01*
X77922Y114723D02*
X81100Y117900D01*
X77922Y110222D02*
Y114723D01*
X72011Y104311D02*
X77922Y110222D01*
X58000Y104311D02*
X72011D01*
X57389Y103700D02*
X58000Y104311D01*
X55600Y103700D02*
X57389D01*
X58227Y102861D01*
X55100Y103200D02*
X55600Y103700D01*
X58227Y101679D02*
Y102861D01*
X57230Y100681D02*
X58227Y101679D01*
X54536Y100681D02*
X57230D01*
X53684Y99830D02*
X54536Y100681D01*
X53684Y92337D02*
Y99830D01*
Y92337D02*
X60039Y85982D01*
X75790D01*
X77219Y87411D01*
X147083D01*
X148871Y89200D01*
Y92323D01*
X151233Y94685D01*
X151283D01*
X43700Y42800D02*
Y43100D01*
Y42800D02*
X45700Y40800D01*
Y37973D02*
Y40800D01*
X68100Y41300D02*
X69000Y40400D01*
X68100Y41300D02*
Y46800D01*
X69184Y47884D01*
Y52000D01*
X68673Y52511D02*
X69184Y52000D01*
X68673Y52511D02*
Y57373D01*
X69227Y57927D01*
Y59191D01*
X67830Y60588D02*
X69227Y59191D01*
X62388Y60588D02*
X67830D01*
X61700Y59900D02*
X62388Y60588D01*
X67689Y58489D02*
X67800Y58600D01*
X67689Y52103D02*
Y58489D01*
Y52103D02*
X68200Y51592D01*
Y48292D02*
Y51592D01*
X64121Y44213D02*
X68200Y48292D01*
X64121Y42400D02*
Y44213D01*
X59079Y82406D02*
Y82456D01*
Y82406D02*
X60850Y80634D01*
Y72358D02*
Y80634D01*
Y72358D02*
X64724Y68484D01*
X73442D01*
X87533Y54393D01*
Y42725D02*
Y54393D01*
X84469Y39661D02*
X87533Y42725D01*
X84469Y35969D02*
Y39661D01*
Y35969D02*
X86839Y33600D01*
X86900D01*
X61800Y97100D02*
X62327Y97627D01*
X72387D01*
X74729Y95285D01*
X126218D01*
X132000Y101068D01*
Y111310D01*
X134301Y113611D01*
X142719D01*
X146432Y117323D01*
Y132165D01*
X144508Y134089D02*
X146432Y132165D01*
X139709Y134089D02*
X144508D01*
X133498Y140300D02*
X139709Y134089D01*
X130900Y140300D02*
X133498D01*
X61047Y82456D02*
X61835Y81669D01*
Y72765D02*
Y81669D01*
Y72765D02*
X65131Y69468D01*
X73849D01*
X88517Y54801D01*
Y42317D02*
Y54801D01*
X85454Y39254D02*
X88517Y42317D01*
X85454Y37628D02*
Y39254D01*
Y37628D02*
X86782Y36300D01*
X86900D01*
X137906Y98622D02*
Y103614D01*
X138400Y104108D01*
X128664Y89380D02*
X137906Y98622D01*
X75062Y89380D02*
X128664D01*
X72648Y86967D02*
X75062Y89380D01*
X61740Y86967D02*
X72648D01*
X61368Y87338D02*
X61740Y86967D01*
X60701Y87338D02*
X61368D01*
X60532Y87508D02*
X60701Y87338D01*
X62599Y89567D02*
X62977Y89189D01*
X72086D01*
X74246Y91348D01*
X127848D01*
X135937Y99437D01*
Y107137D01*
X137896Y109096D01*
X139034Y140331D02*
X140200D01*
X131444Y147921D02*
X139034Y140331D01*
X121400Y147921D02*
X131444D01*
X119816Y149505D02*
X121400Y147921D01*
X116900Y149505D02*
X119816D01*
X143136Y49927D02*
X144587Y51378D01*
X135177Y49927D02*
X143136D01*
X134734Y49484D02*
X135177Y49927D01*
X118884Y49484D02*
X134734D01*
X117368Y51000D02*
X118884Y49484D01*
X20264Y133100D02*
X22996Y135831D01*
X46069D01*
X47567Y134333D01*
X51285D01*
X55369Y138417D01*
Y147560D01*
X50779Y152150D02*
X55369Y147560D01*
X50475Y152150D02*
X50779D01*
X70292Y18418D02*
X72244Y16466D01*
Y16317D02*
Y16466D01*
X32370Y18418D02*
X70292D01*
X28543Y22244D02*
X32370Y18418D01*
X48900Y153724D02*
Y154029D01*
X42954Y159974D02*
X48900Y154029D01*
X42954Y159974D02*
Y163904D01*
X43613Y164562D01*
X151283Y90748D02*
X151332D01*
X152710Y92125D01*
Y95300D01*
X151898Y96112D02*
X152710Y95300D01*
X146412Y96112D02*
X151898D01*
X143650Y93350D02*
X146412Y96112D01*
X143650Y90250D02*
Y93350D01*
X141796Y88396D02*
X143650Y90250D01*
X76096Y88396D02*
X141796D01*
X75598Y87898D02*
X76096Y88396D01*
X117368Y46000D02*
X118884Y47516D01*
X134734D01*
X135177Y47073D01*
X143129D01*
X144583Y48527D01*
X45263Y150575D02*
X45750D01*
X37984Y157854D02*
X45263Y150575D01*
X37984Y157854D02*
Y163733D01*
X38813Y164562D01*
X39013Y164362D02*
X39213Y164562D01*
X49341Y140641D02*
Y146184D01*
X48900Y146625D02*
X49341Y146184D01*
X48235Y139535D02*
X49341Y140641D01*
X48235Y138362D02*
Y139535D01*
X62100Y48500D02*
X63700D01*
X64800Y49600D01*
X130629Y145953D02*
X140082Y136500D01*
X120585Y145953D02*
X130629D01*
X119969Y146569D02*
X120585Y145953D01*
X116900Y146569D02*
X119969D01*
X133968Y109869D02*
X135300Y111200D01*
X133968Y100252D02*
Y109869D01*
X127033Y93317D02*
X133968Y100252D01*
X73431Y93317D02*
X127033D01*
X71714Y91600D02*
X73431Y93317D01*
X64700Y91600D02*
X71714D01*
X36500Y99000D02*
X38000D01*
X35223Y97723D02*
X36500Y99000D01*
X35223Y94472D02*
Y97723D01*
X33584Y92834D02*
X35223Y94472D01*
X33584Y86216D02*
Y92834D01*
Y86216D02*
X34100Y85700D01*
X47325Y146321D02*
Y149000D01*
Y146321D02*
X48357Y145289D01*
Y141157D02*
Y145289D01*
X45000Y137800D02*
X48357Y141157D01*
X21200Y137800D02*
X45000D01*
X17700Y134300D02*
X21200Y137800D01*
X15900Y134300D02*
X17700D01*
X48806Y135662D02*
X53400Y140257D01*
X48235Y135662D02*
X48806D01*
X53400Y140257D02*
Y146075D01*
X50475Y149000D02*
X53400Y146075D01*
X27200Y49600D02*
X35800D01*
X39500Y53300D01*
X62106Y91437D02*
X62254Y91289D01*
X62993D01*
X64109Y90173D01*
X71679D01*
X73839Y92333D01*
X127441D01*
X134953Y99845D01*
Y108253D01*
X136000Y109300D01*
X139588Y138386D02*
X140214D01*
X131037Y146937D02*
X139588Y138386D01*
X120992Y146937D02*
X131037D01*
X119892Y148037D02*
X120992Y146937D01*
X115700Y148037D02*
X119892D01*
X139000Y159300D02*
X141000D01*
X134100Y164200D02*
X139000Y159300D01*
X104800Y145200D02*
X112700Y137300D01*
Y136500D02*
Y137300D01*
X117368Y48500D02*
X135768D01*
X74114Y16317D02*
Y16466D01*
X71178Y19402D02*
X74114Y16466D01*
X50480Y19402D02*
X71178D01*
X49213Y20669D02*
X50480Y19402D01*
X41970Y159567D02*
X47334Y154202D01*
Y153620D02*
Y154202D01*
X41970Y159567D02*
Y163805D01*
X41213Y164562D02*
X41970Y163805D01*
X15200Y132000D02*
X16792D01*
X21608Y136816D01*
X47382D01*
X47600Y137033D02*
X48785D01*
X47382Y136816D02*
X47600Y137033D01*
X48785D02*
X49563Y137812D01*
Y139263D01*
X50413Y140113D01*
Y146992D01*
X48900Y148504D02*
X50413Y146992D01*
X48900Y148504D02*
Y149000D01*
X83485Y34935D02*
X84205Y34216D01*
X83485Y34935D02*
Y40200D01*
X86549Y43264D01*
Y53985D01*
X73034Y67500D02*
X86549Y53985D01*
X64316Y67500D02*
X73034D01*
X59866Y71950D02*
X64316Y67500D01*
X59866Y71950D02*
Y79650D01*
X57060Y82456D02*
X59866Y79650D01*
X54748Y82456D02*
X57060D01*
X45446Y149000D02*
X45750D01*
X37000Y157447D02*
X45446Y149000D01*
X37000Y157447D02*
Y163975D01*
X36413Y164562D02*
X37000Y163975D01*
X55200Y94898D02*
Y97000D01*
Y94898D02*
X62148Y87951D01*
X72241D01*
X74654Y90364D01*
X128256D01*
X136921Y99029D01*
Y105821D01*
X137700Y106600D01*
X61800Y65100D02*
X69900D01*
X61600Y65300D02*
X61800Y65100D01*
X115700Y145100D02*
X120000D01*
X122173Y142927D01*
Y137709D02*
Y142927D01*
Y137709D02*
X123009Y136873D01*
X135533D01*
X139302Y133104D01*
X144100D01*
X145447Y131757D01*
Y117731D02*
Y131757D01*
X142312Y114596D02*
X145447Y117731D01*
X133894Y114596D02*
X142312D01*
X131016Y111718D02*
X133894Y114596D01*
X131016Y101476D02*
Y111718D01*
X125810Y96270D02*
X131016Y101476D01*
X75136Y96270D02*
X125810D01*
X72795Y98611D02*
X75136Y96270D01*
X64789Y98611D02*
X72795D01*
X64100Y99300D02*
X64789Y98611D01*
X28543Y14370D02*
X32480Y10433D01*
X45563D01*
X52563Y17434D01*
X69258D01*
X70374Y16317D01*
X62727Y100727D02*
X64691D01*
X62200Y100200D02*
X62727Y100727D01*
X64691D02*
X65823Y99596D01*
X73202D01*
X75544Y97254D01*
X125402D01*
X130032Y101883D01*
Y112126D01*
X133486Y115580D01*
X141904D01*
X144463Y118139D01*
Y131350D01*
X143693Y132120D02*
X144463Y131350D01*
X138894Y132120D02*
X143693D01*
X135125Y135889D02*
X138894Y132120D01*
X122601Y135889D02*
X135125D01*
X121189Y137301D02*
X122601Y135889D01*
X121189Y137301D02*
Y142519D01*
X120035Y143673D02*
X121189Y142519D01*
X116927Y143673D02*
X120035D01*
X52165Y22638D02*
X54417Y20386D01*
X72064D01*
X75984Y16466D01*
Y16317D02*
Y16466D01*
X51013Y135940D02*
X54384Y139312D01*
Y146970D01*
X50779Y150575D02*
X54384Y146970D01*
X50475Y150575D02*
X50779D01*
D21*
X31800Y166600D02*
X33181D01*
X33281Y154119D02*
Y166700D01*
Y167581D01*
X33181Y166600D02*
X33281Y166700D01*
Y154119D02*
X44100Y143300D01*
X33281Y167581D02*
X36100Y170400D01*
X44100Y142200D02*
Y143300D01*
X36100Y170400D02*
X41475D01*
X43613Y168262D01*
D127*
X49900Y124000D02*
D03*
D133*
X32500Y95600D02*
Y105600D01*
X25900Y112200D02*
X32500Y105600D01*
X30862Y93962D02*
X32500Y95600D01*
X25900Y112200D02*
Y114000D01*
X30862Y63062D02*
Y93962D01*
X23200Y55400D02*
X30862Y63062D01*
X23200Y44600D02*
Y55400D01*
Y44600D02*
X27100Y40700D01*
X27700D01*
X77585Y102800D02*
X92700D01*
X28000Y134093D02*
X39807D01*
X49900Y124000D01*
X101200Y84200D02*
X110100D01*
D135*
X30400Y99700D02*
X32400D01*
D141*
X35400Y144900D02*
X39800Y140500D01*
Y140100D02*
Y140500D01*
X20200Y144900D02*
X35400D01*
X9600Y155500D02*
X20200Y144900D01*
X9600Y155500D02*
Y160700D01*
D143*
X95900Y55800D02*
X100600Y60500D01*
D150*
X5709Y86614D02*
D03*
Y112598D02*
D03*
D151*
X25900Y114000D02*
D03*
X35900D02*
D03*
X49900D02*
D03*
X59900Y114000D02*
D03*
X69900Y114000D02*
D03*
D153*
X28543Y22244D02*
D03*
Y14370D02*
D03*
X137697Y120472D02*
D03*
D156*
X81373Y21189D02*
D03*
X72800Y23500D02*
D03*
X69509Y23713D02*
D03*
X28300Y64400D02*
D03*
X95900Y55800D02*
D03*
X22831Y60800D02*
D03*
X100600Y60500D02*
D03*
X21000Y34800D02*
D03*
X56800Y102270D02*
D03*
X151283Y92717D02*
D03*
X91974Y126378D02*
D03*
X130100Y142300D02*
D03*
X63500Y96200D02*
D03*
X35000Y100023D02*
D03*
X34200Y79400D02*
D03*
X137200Y58300D02*
D03*
X98700Y56139D02*
D03*
X146457Y46063D02*
D03*
X122446Y21530D02*
D03*
X122426Y17565D02*
D03*
X76946Y159402D02*
D03*
X134000Y150100D02*
D03*
X30400Y99700D02*
D03*
X27700Y40700D02*
D03*
X96710Y154206D02*
D03*
X140300Y192000D02*
D03*
X46913Y142062D02*
D03*
X91974Y129528D02*
D03*
X55100Y103200D02*
D03*
X151283Y94685D02*
D03*
X43700Y43100D02*
D03*
X45700Y37973D02*
D03*
X48200Y87300D02*
D03*
X35850Y58971D02*
D03*
X57898Y71169D02*
D03*
X50024D02*
D03*
X57898Y64870D02*
D03*
X50024D02*
D03*
X56398Y77469D02*
D03*
X61700Y67900D02*
D03*
X65772Y71169D02*
D03*
X42487D02*
D03*
X50024Y58571D02*
D03*
X53961Y55618D02*
D03*
X42487Y77469D02*
D03*
X65772D02*
D03*
X42487Y64870D02*
D03*
X57298Y52272D02*
D03*
X65772Y58571D02*
D03*
X73646Y71169D02*
D03*
X42487Y58571D02*
D03*
X73646Y64870D02*
D03*
Y58571D02*
D03*
X80520Y71169D02*
D03*
Y77469D02*
D03*
Y64870D02*
D03*
X89394Y71169D02*
D03*
X96331Y77469D02*
D03*
Y71169D02*
D03*
Y52272D02*
D03*
X69000Y40400D02*
D03*
X61700Y59900D02*
D03*
X67800Y58600D02*
D03*
X64121Y42400D02*
D03*
X99100Y141800D02*
D03*
X70300Y142900D02*
D03*
X56600Y159500D02*
D03*
X58600D02*
D03*
X53894Y158956D02*
D03*
Y160756D02*
D03*
X52800Y156900D02*
D03*
X59079Y82456D02*
D03*
X86900Y33400D02*
D03*
X79204Y33437D02*
D03*
X70655Y34937D02*
D03*
X59236Y28343D02*
D03*
X92700Y102800D02*
D03*
X76500D02*
D03*
X54700Y63280D02*
D03*
X85600Y30000D02*
D03*
X61800Y97100D02*
D03*
X130900Y140300D02*
D03*
X141400Y163700D02*
D03*
X121800Y172400D02*
D03*
X141400Y184800D02*
D03*
X103000Y140200D02*
D03*
X71500Y109800D02*
D03*
X28000Y134300D02*
D03*
X99803Y41339D02*
D03*
X61047Y82456D02*
D03*
X86900Y36300D02*
D03*
X92200Y39300D02*
D03*
X84400Y85000D02*
D03*
X103100Y167300D02*
D03*
X85913Y148087D02*
D03*
X117226Y7000D02*
D03*
Y9500D02*
D03*
X138400Y104108D02*
D03*
X60532Y87508D02*
D03*
X82800Y83400D02*
D03*
X95374Y42421D02*
D03*
X62599Y89567D02*
D03*
X137896Y109096D02*
D03*
X140200Y140331D02*
D03*
X116900Y149505D02*
D03*
X144587Y51378D02*
D03*
X117368Y51000D02*
D03*
X20264Y133100D02*
D03*
X72244Y16317D02*
D03*
X78244Y85000D02*
D03*
X86900Y38200D02*
D03*
X70665Y36878D02*
D03*
X79200Y35400D02*
D03*
X73500Y8300D02*
D03*
X151283Y90748D02*
D03*
X75598Y87898D02*
D03*
X58200Y15700D02*
D03*
X117368Y46000D02*
D03*
X144583Y48527D02*
D03*
X43000Y102900D02*
D03*
X17400Y139500D02*
D03*
X64800Y49600D02*
D03*
X100000Y37000D02*
D03*
X93800Y28900D02*
D03*
X79900Y16100D02*
D03*
X140808Y136500D02*
D03*
X116900Y146569D02*
D03*
X135300Y111200D02*
D03*
X64700Y91600D02*
D03*
X38000Y99000D02*
D03*
X34100Y85700D02*
D03*
X46900Y140100D02*
D03*
X15900Y134300D02*
D03*
X39800Y140100D02*
D03*
X9600Y160700D02*
D03*
X59000Y31000D02*
D03*
X130200Y144300D02*
D03*
X76946Y169009D02*
D03*
X138200Y178000D02*
D03*
X175009Y150806D02*
D03*
X31800Y166600D02*
D03*
X44100Y142200D02*
D03*
X103893Y53159D02*
D03*
X86724Y164028D02*
D03*
X94992Y163979D02*
D03*
X140000Y195000D02*
D03*
X27200Y49600D02*
D03*
X39500Y53300D02*
D03*
X59200Y140750D02*
D03*
Y142450D02*
D03*
X57300Y140750D02*
D03*
X57295Y142450D02*
D03*
X54700Y61400D02*
D03*
X83858Y28740D02*
D03*
X100400Y140200D02*
D03*
X70300Y141000D02*
D03*
X94100Y168700D02*
D03*
X92558Y148113D02*
D03*
X62106Y91437D02*
D03*
X136000Y109300D02*
D03*
X140400Y138397D02*
D03*
X115700Y148037D02*
D03*
X127642Y24974D02*
D03*
X129611Y23400D02*
D03*
Y24974D02*
D03*
X127642Y23400D02*
D03*
X118000Y98700D02*
D03*
X76500Y100800D02*
D03*
X141000Y159300D02*
D03*
X134400Y164200D02*
D03*
X104800Y145200D02*
D03*
X112700Y136500D02*
D03*
X108700Y171300D02*
D03*
X78442Y149687D02*
D03*
X135768Y48500D02*
D03*
X117368D02*
D03*
X86287Y143417D02*
D03*
X96457Y144882D02*
D03*
X89665Y18209D02*
D03*
X74114Y16317D02*
D03*
X49213Y20669D02*
D03*
X115200Y98700D02*
D03*
X76500Y98800D02*
D03*
X77600Y12900D02*
D03*
X15200Y132000D02*
D03*
X84205Y34216D02*
D03*
X85900Y53900D02*
D03*
X54748Y82456D02*
D03*
X99400Y165700D02*
D03*
X124289Y166371D02*
D03*
X84330Y154599D02*
D03*
X92000Y158900D02*
D03*
Y154200D02*
D03*
X87862Y147862D02*
D03*
X142924Y41187D02*
D03*
X55200Y97000D02*
D03*
X137700Y106600D02*
D03*
X137224Y36287D02*
D03*
X69900Y65100D02*
D03*
X61600Y65300D02*
D03*
X130700Y155000D02*
D03*
X178600Y150805D02*
D03*
X138200Y167500D02*
D03*
X93483Y42218D02*
D03*
X81228Y85000D02*
D03*
X83838Y143316D02*
D03*
X87862Y149938D02*
D03*
X115700Y145100D02*
D03*
X64100Y99300D02*
D03*
X113800Y192900D02*
D03*
X88800Y158700D02*
D03*
X124326Y19487D02*
D03*
X70374Y16317D02*
D03*
X127642Y13904D02*
D03*
X129611Y15872D02*
D03*
Y13904D02*
D03*
X127642Y15872D02*
D03*
X100000Y7000D02*
D03*
X142000Y45500D02*
D03*
X62199Y42400D02*
D03*
X65300Y54900D02*
D03*
X78400Y147800D02*
D03*
X82900Y148700D02*
D03*
X57687Y48313D02*
D03*
X101200Y84200D02*
D03*
X110100D02*
D03*
X64634Y31317D02*
D03*
X62200Y100200D02*
D03*
X116927Y143673D02*
D03*
X52165Y22638D02*
D03*
X75984Y16317D02*
D03*
X128000Y186000D02*
D03*
X100900Y155800D02*
D03*
X26800Y157000D02*
D03*
X25300Y182100D02*
D03*
X50600Y42700D02*
D03*
X55278Y23400D02*
D03*
X28300Y89800D02*
D03*
X130300Y187500D02*
D03*
X35850Y85034D02*
D03*
X110900Y161700D02*
D03*
X103400Y44000D02*
D03*
X94320Y40450D02*
D03*
X79736Y83400D02*
D03*
X78900Y143400D02*
D03*
X80700Y152900D02*
D03*
X117226Y14500D02*
D03*
Y12000D02*
D03*
X79100Y48000D02*
D03*
X58200Y42600D02*
D03*
X126700Y149400D02*
D03*
X96909Y14600D02*
D03*
X99209D02*
D03*
X97210Y10300D02*
D03*
X92809Y8300D02*
D03*
X89900Y7600D02*
D03*
Y2400D02*
D03*
X96500Y2900D02*
D03*
X77200Y4100D02*
D03*
X86500Y11700D02*
D03*
X54978Y15806D02*
D03*
X138500Y154700D02*
D03*
X58300Y98900D02*
D03*
X59700Y102500D02*
D03*
X90900Y82400D02*
D03*
X124300Y144200D02*
D03*
X61100Y109300D02*
D03*
X62500Y106800D02*
D03*
X95320Y19119D02*
D03*
X95402Y16743D02*
D03*
X89173Y15453D02*
D03*
X90945Y13681D02*
D03*
X21200Y96800D02*
D03*
X21300Y102000D02*
D03*
X123700Y140600D02*
D03*
X4059Y3651D02*
D03*
Y18651D02*
D03*
Y33651D02*
D03*
X7809Y116151D02*
D03*
X4059Y123651D02*
D03*
Y138651D02*
D03*
X7809Y176151D02*
D03*
X4059Y183651D02*
D03*
X7809Y191151D02*
D03*
X11559Y3651D02*
D03*
X15309Y26151D02*
D03*
Y176151D02*
D03*
X19059Y3651D02*
D03*
X22809Y11151D02*
D03*
X26559Y3651D02*
D03*
Y18651D02*
D03*
X30309Y191151D02*
D03*
X37809D02*
D03*
X41559Y123651D02*
D03*
X52809Y11151D02*
D03*
Y176151D02*
D03*
X60309D02*
D03*
X56559Y183651D02*
D03*
X60309Y191151D02*
D03*
X67809Y161151D02*
D03*
X64059Y168651D02*
D03*
Y183651D02*
D03*
X67809Y191151D02*
D03*
X82809Y161151D02*
D03*
X86559Y18651D02*
D03*
Y108651D02*
D03*
Y168651D02*
D03*
X90309Y176151D02*
D03*
X94059Y3651D02*
D03*
X101559Y33651D02*
D03*
X109059D02*
D03*
Y153651D02*
D03*
X116559Y78651D02*
D03*
X120309Y176151D02*
D03*
X124059Y153651D02*
D03*
Y183651D02*
D03*
X142809Y56151D02*
D03*
Y71151D02*
D03*
X146559Y18651D02*
D03*
Y33651D02*
D03*
Y78651D02*
D03*
X60100Y9100D02*
D03*
X82800Y25600D02*
D03*
X111200Y38100D02*
D03*
X101300Y39000D02*
D03*
X111200Y43600D02*
D03*
X126500Y51300D02*
D03*
X123200Y84600D02*
D03*
X131200Y84300D02*
D03*
X136600Y92800D02*
D03*
X142600Y97300D02*
D03*
X112300Y106800D02*
D03*
X83200Y108900D02*
D03*
X75400Y105000D02*
D03*
X69400Y107800D02*
D03*
X69800Y119000D02*
D03*
X64800Y124900D02*
D03*
X61300Y128900D02*
D03*
X55100Y127600D02*
D03*
X51800Y119300D02*
D03*
X35700Y119500D02*
D03*
X9600Y46100D02*
D03*
X9300Y40000D02*
D03*
X11000Y31600D02*
D03*
X32500Y24100D02*
D03*
X48900Y25100D02*
D03*
X125800Y131800D02*
D03*
X127200Y177600D02*
D03*
X122500Y192600D02*
D03*
X150500Y196600D02*
D03*
X150400Y191500D02*
D03*
X143000D02*
D03*
X134000Y196800D02*
D03*
X81900Y192000D02*
D03*
X81300Y179300D02*
D03*
X71800Y172700D02*
D03*
X71300Y180700D02*
D03*
X64600Y175400D02*
D03*
X47700Y176400D02*
D03*
X41300Y173200D02*
D03*
X34500Y171300D02*
D03*
X37600Y184600D02*
D03*
X14100Y142400D02*
D03*
X2700Y142300D02*
D03*
X8200Y137600D02*
D03*
X7300Y130300D02*
D03*
X14900Y127900D02*
D03*
X27700Y106900D02*
D03*
X72200Y2400D02*
D03*
X99000Y61800D02*
D03*
X76400Y37500D02*
D03*
X38200Y31400D02*
D03*
X50400Y97800D02*
D03*
X126800Y170300D02*
D03*
X124200Y162700D02*
D03*
X103300Y160700D02*
D03*
X69500Y146000D02*
D03*
X69400Y154200D02*
D03*
X56200Y166900D02*
D03*
X52500Y171700D02*
D03*
X47000Y185600D02*
D03*
X16500Y137100D02*
D03*
X20900Y141100D02*
D03*
X30800Y125400D02*
D03*
X43000Y126500D02*
D03*
X52800Y105400D02*
D03*
X46700Y97900D02*
D03*
X64468Y79823D02*
D03*
X76279Y83563D02*
D03*
X70200Y54300D02*
D03*
X51400Y50300D02*
D03*
X71400Y31400D02*
D03*
X63600Y24600D02*
D03*
X46100Y9100D02*
D03*
X88250Y25531D02*
D03*
X90604Y25195D02*
D03*
X92578Y23869D02*
D03*
X93652Y21748D02*
D03*
X89054Y21689D02*
D03*
X86693Y21409D02*
D03*
X85830Y25405D02*
D03*
X146850Y2087D02*
D03*
X144472D02*
D03*
X142094D02*
D03*
X139716D02*
D03*
X137338D02*
D03*
X134960Y2095D02*
D03*
X132629Y2564D02*
D03*
X130505Y3632D02*
D03*
X128778Y5267D02*
D03*
X133100Y6378D02*
D03*
X135394Y5752D02*
D03*
X137772Y5739D02*
D03*
X140150D02*
D03*
X142528D02*
D03*
X144906D02*
D03*
X147284D02*
D03*
X94685Y10236D02*
D03*
X66700Y94900D02*
D03*
X142400Y128900D02*
D03*
X6299Y83071D02*
D03*
X12205Y69784D02*
D03*
Y76870D02*
D03*
X31600Y188700D02*
D03*
X42200Y112400D02*
D03*
Y108500D02*
D03*
X49600Y109300D02*
D03*
X44500Y118000D02*
D03*
X102100Y48600D02*
D03*
X23819Y70768D02*
D03*
X24016Y85532D02*
D03*
X13386Y81791D02*
D03*
X12205Y65059D02*
D03*
X97500Y25700D02*
D03*
X91900Y29300D02*
D03*
X131693Y7382D02*
D03*
X98800Y171600D02*
D03*
X89800Y171000D02*
D03*
X93700Y176000D02*
D03*
X96600Y147800D02*
D03*
X81400Y143400D02*
D03*
X134243Y32820D02*
D03*
X136621Y32803D02*
D03*
X138895Y32107D02*
D03*
X140519Y30370D02*
D03*
X141081Y28060D02*
D03*
Y25682D02*
D03*
Y23304D02*
D03*
Y20926D02*
D03*
Y18548D02*
D03*
Y16170D02*
D03*
Y13792D02*
D03*
Y11414D02*
D03*
X140498Y9109D02*
D03*
X137015Y20386D02*
D03*
Y22764D02*
D03*
Y25142D02*
D03*
Y27520D02*
D03*
X134982Y28754D02*
D03*
X132900Y29000D02*
D03*
X128049Y26749D02*
D03*
X132800Y19700D02*
D03*
X132760Y22200D02*
D03*
X127100Y8200D02*
D03*
X137015Y18008D02*
D03*
Y15630D02*
D03*
X136150Y70450D02*
D03*
X139500Y72000D02*
D03*
Y74500D02*
D03*
Y77000D02*
D03*
Y79500D02*
D03*
X125591Y81890D02*
D03*
X123000Y82000D02*
D03*
X121500Y75000D02*
D03*
Y77500D02*
D03*
Y80000D02*
D03*
X128091Y81890D02*
D03*
X130591D02*
D03*
X133091D02*
D03*
X135591D02*
D03*
X138091D02*
D03*
X131000Y51500D02*
D03*
X125500Y44500D02*
D03*
Y40000D02*
D03*
X131000Y44500D02*
D03*
Y39000D02*
D03*
X43800Y40600D02*
D03*
Y34400D02*
D03*
X26400Y45100D02*
D03*
X45800Y93500D02*
D03*
X40000Y97500D02*
D03*
X26200Y53600D02*
D03*
X48100Y83400D02*
D03*
X66437Y80020D02*
D03*
X101200Y143800D02*
D03*
X72146Y94252D02*
D03*
X24012Y66000D02*
D03*
X76340Y52400D02*
D03*
X63200Y189300D02*
D03*
X3000Y170900D02*
D03*
X3100Y117000D02*
D03*
X15000Y118000D02*
D03*
X20400Y106400D02*
D03*
X1673Y51870D02*
D03*
X15000Y24100D02*
D03*
X138800Y94800D02*
D03*
X5000Y195000D02*
D03*
X15000D02*
D03*
X37100Y196300D02*
D03*
X45000Y196000D02*
D03*
X55000D02*
D03*
X65000D02*
D03*
X75000D02*
D03*
X85000D02*
D03*
X96181D02*
D03*
X105000Y196400D02*
D03*
X115400Y196600D02*
D03*
X125000Y196000D02*
D03*
X143400Y196800D02*
D03*
X100100Y179700D02*
D03*
X93800Y184300D02*
D03*
X92842Y181263D02*
D03*
X74500Y185500D02*
D03*
X96900Y156900D02*
D03*
X143800Y155900D02*
D03*
X52808Y35543D02*
D03*
X53108Y28343D02*
D03*
X87391Y16638D02*
D03*
X91700Y107400D02*
D03*
X113600Y84600D02*
D03*
X108800Y155600D02*
D03*
X117600Y164700D02*
D03*
X2800Y133500D02*
D03*
X30300Y97300D02*
D03*
X140800Y161700D02*
D03*
X147000Y97800D02*
D03*
X25800Y38100D02*
D03*
X25700Y50900D02*
D03*
X31055Y151662D02*
D03*
X31355Y147662D02*
D03*
Y142162D02*
D03*
X117226Y17000D02*
D03*
Y2410D02*
D03*
Y4500D02*
D03*
X114726Y32000D02*
D03*
X117226Y27000D02*
D03*
Y32000D02*
D03*
Y24500D02*
D03*
Y22000D02*
D03*
Y29500D02*
D03*
Y19500D02*
D03*
X100000D02*
D03*
Y29500D02*
D03*
Y22000D02*
D03*
Y24500D02*
D03*
Y27000D02*
D03*
Y4500D02*
D03*
X99900Y2987D02*
D03*
X100000Y17000D02*
D03*
X112226Y32000D02*
D03*
X109726D02*
D03*
X107226D02*
D03*
X104726D02*
D03*
X102126D02*
D03*
X149900Y19500D02*
D03*
Y29500D02*
D03*
Y22000D02*
D03*
Y24500D02*
D03*
Y32000D02*
D03*
Y27000D02*
D03*
Y14500D02*
D03*
Y12000D02*
D03*
Y9500D02*
D03*
Y7000D02*
D03*
Y2110D02*
D03*
Y17000D02*
D03*
Y42000D02*
D03*
Y34500D02*
D03*
Y37000D02*
D03*
Y39500D02*
D03*
Y52000D02*
D03*
Y57000D02*
D03*
Y49500D02*
D03*
Y47000D02*
D03*
Y54500D02*
D03*
Y44500D02*
D03*
Y67000D02*
D03*
Y59500D02*
D03*
Y62000D02*
D03*
Y64500D02*
D03*
Y77000D02*
D03*
Y82000D02*
D03*
Y74500D02*
D03*
Y72000D02*
D03*
Y79500D02*
D03*
Y69500D02*
D03*
Y84500D02*
D03*
Y117000D02*
D03*
Y114500D02*
D03*
Y127000D02*
D03*
Y124500D02*
D03*
Y122000D02*
D03*
Y129500D02*
D03*
Y119500D02*
D03*
Y158500D02*
D03*
X126300Y54200D02*
D03*
X122226Y9587D02*
D03*
X121526Y28987D02*
D03*
X108700Y70300D02*
D03*
X120326Y4087D02*
D03*
X125226Y3787D02*
D03*
X130826Y28387D02*
D03*
X132126Y24487D02*
D03*
X129100Y30800D02*
D03*
X116400Y70300D02*
D03*
X108500Y55200D02*
D03*
X104000Y55500D02*
D03*
X4000Y11300D02*
D03*
X28500Y77200D02*
D03*
X34500Y75500D02*
D03*
X28200Y83300D02*
D03*
X3937Y72700D02*
D03*
X3839Y62303D02*
D03*
X15800Y91800D02*
D03*
X15700Y107300D02*
D03*
X4000Y149700D02*
D03*
X4200Y160600D02*
D03*
X24200Y185900D02*
D03*
X30200Y196600D02*
D03*
X53300Y180700D02*
D03*
X122926Y11387D02*
D03*
X125100Y102500D02*
D03*
X119000Y185000D02*
D03*
X69894Y10976D02*
D03*
X70035Y12917D02*
D03*
X138600Y151400D02*
D03*
X132300Y153300D02*
D03*
X113300Y166200D02*
D03*
X106800D02*
D03*
X149900Y134500D02*
D03*
Y132000D02*
D03*
X119100Y102700D02*
D03*
D157*
X39313Y161762D02*
D03*
X45750Y152150D02*
D03*
X40641Y162891D02*
D03*
X45750Y153724D02*
D03*
X50475Y152150D02*
D03*
X48900Y153724D02*
D03*
X43613Y164562D02*
D03*
X45750Y150575D02*
D03*
X38813Y164562D02*
D03*
X48900Y146625D02*
D03*
X48235Y138362D02*
D03*
X47325Y149000D02*
D03*
X50475Y153724D02*
D03*
X43613Y168262D02*
D03*
X48235Y135662D02*
D03*
X50475Y149000D02*
D03*
X38813Y168262D02*
D03*
X47325Y153724D02*
D03*
X41213Y164562D02*
D03*
X48900Y149000D02*
D03*
X45750D02*
D03*
X36413Y164562D02*
D03*
X46013Y168262D02*
D03*
X51013Y135940D02*
D03*
X50475Y150575D02*
D03*
X36413Y168262D02*
D03*
D158*
X62100Y48500D02*
D03*
X59577Y45604D02*
D03*
D159*
X146850Y93405D02*
D03*
Y90059D02*
D03*
D160*
X50700Y153900D02*
D03*
X52100D02*
D03*
D161*
X98700Y56139D02*
X99800Y55040D01*
Y44300D02*
Y55040D01*
Y44300D02*
X103000Y41100D01*
X112214D01*
X125811Y27503D01*
Y22772D02*
Y27503D01*
X124568Y21530D02*
X125811Y22772D01*
X122446Y21530D02*
X124568D01*
X122426Y17565D02*
Y21509D01*
X122446Y21530D01*
D162*
X73200Y33437D02*
X79204D01*
X71700Y34937D02*
X73200Y33437D01*
X68866Y34937D02*
X70655D01*
X71700D01*
X68803Y30803D02*
Y35000D01*
Y37678D01*
Y35000D02*
X68866Y34937D01*
X66031Y28031D02*
X68803Y30803D01*
X66604Y39877D02*
X68803Y37678D01*
X59545Y28031D02*
X66031D01*
X62396Y39877D02*
X66604D01*
X59236Y28143D02*
X59289Y28090D01*
X59486D02*
X59545Y28031D01*
X59289Y28090D02*
X59486D01*
X61286Y38767D02*
X62396Y39877D01*
X51714Y38767D02*
X61286D01*
X47542Y42939D02*
X51714Y38767D01*
X47542Y42939D02*
Y80656D01*
X43934Y84264D02*
X47542Y80656D01*
X43934Y84264D02*
Y99247D01*
X35900Y107281D02*
X43934Y99247D01*
X35900Y107281D02*
Y114000D01*
D163*
X54700Y63280D02*
X55000Y62980D01*
X74816D01*
X83700Y54095D01*
Y41988D02*
Y54095D01*
X82373Y40661D02*
X83700Y41988D01*
X82373Y33227D02*
Y40661D01*
Y33227D02*
X85600Y30000D01*
X54700Y61400D02*
X55000Y61700D01*
X74341D01*
X82460Y53582D01*
Y42502D02*
Y53582D01*
X81133Y41174D02*
X82460Y42502D01*
X81133Y31466D02*
Y41174D01*
Y31466D02*
X83858Y28740D01*
D164*
X51620Y153900D02*
D03*
D165*
X51400D02*
D03*
M02*
