G04*
G04 #@! TF.GenerationSoftware,Altium Limited,Altium Designer,23.1.1 (15)*
G04*
G04 Layer_Color=32768*
%FSLAX25Y25*%
%MOIN*%
G70*
G04*
G04 #@! TF.SameCoordinates,57D325FE-50AA-4423-B3C5-F19BAF70027F*
G04*
G04*
G04 #@! TF.FilePolarity,Positive*
G04*
G01*
G75*
%ADD10C,0.00591*%
%ADD14C,0.01181*%
%ADD266C,0.00394*%
%ADD275C,0.00118*%
%ADD276C,0.00300*%
%ADD277C,0.00200*%
%ADD278C,0.00201*%
%ADD279R,0.03304X0.03310*%
%ADD280R,0.03304X0.03304*%
%ADD281R,0.03310X0.03304*%
%ADD282R,0.01101X0.01101*%
%ADD283R,0.01101X0.07719*%
%ADD284R,0.07719X0.01101*%
%ADD285R,0.07719X0.01101*%
%ADD286R,0.01101X0.02203*%
%ADD287R,0.07719X0.01101*%
G36*
X164701Y52324D02*
X163600D01*
Y53425D01*
X161397D01*
Y52324D01*
X162499D01*
Y51223D01*
X161397D01*
Y52324D01*
X160296D01*
Y54532D01*
X164701D01*
Y52324D01*
D02*
G37*
G36*
X170213Y51223D02*
X169112D01*
Y53425D01*
X170213D01*
Y51223D01*
D02*
G37*
G36*
Y46813D02*
X169112D01*
Y49020D01*
X170213D01*
Y46813D01*
D02*
G37*
G36*
X161397Y49020D02*
X163600D01*
Y46813D01*
X162499D01*
Y47915D01*
X162497Y47913D01*
X161397D01*
Y46813D01*
X162499D01*
Y44611D01*
X161397D01*
Y43510D01*
X163600D01*
Y42408D01*
X164701D01*
Y44611D01*
X163600D01*
Y45712D01*
X165808D01*
Y44611D01*
X166910D01*
Y42408D01*
X168011D01*
Y41301D01*
X169112D01*
Y42408D01*
X168011D01*
Y44611D01*
X169112D01*
Y45712D01*
X174623D01*
Y44611D01*
X175724D01*
Y43510D01*
X176831D01*
Y42408D01*
X175724D01*
Y41301D01*
X174623D01*
Y44611D01*
X173521D01*
Y43510D01*
X172420D01*
Y42408D01*
X173521D01*
Y41301D01*
X172420D01*
Y40200D01*
X173521D01*
Y39099D01*
X171319D01*
Y40200D01*
X170213D01*
Y37997D01*
X169112D01*
Y36896D01*
X171319D01*
Y37997D01*
X173521D01*
Y36896D01*
X174623D01*
Y35789D01*
Y34688D01*
X175724D01*
Y33587D01*
X174623D01*
Y32485D01*
X175724D01*
Y31384D01*
X176831D01*
Y32485D01*
X177932D01*
Y30277D01*
X179034D01*
Y29176D01*
X176831D01*
Y30277D01*
X174623D01*
Y28074D01*
X175724D01*
Y26973D01*
X174623D01*
Y28074D01*
X171319D01*
Y26973D01*
X169112D01*
Y29176D01*
X170213D01*
Y30277D01*
X168011D01*
Y33587D01*
X169112D01*
Y34688D01*
X168011D01*
Y35789D01*
X166910D01*
Y37997D01*
X165808D01*
Y40200D01*
X164701D01*
Y41301D01*
X163600D01*
Y39099D01*
X164701D01*
Y37997D01*
X165808D01*
Y35789D01*
X166910D01*
Y34688D01*
X165808D01*
Y35789D01*
X164701D01*
Y36896D01*
X162499D01*
Y37997D01*
X163600D01*
Y39099D01*
X161397D01*
Y37997D01*
X160296D01*
Y39099D01*
X159195D01*
Y40200D01*
X154784D01*
Y41301D01*
X153683D01*
Y44611D01*
X151474D01*
Y45712D01*
X154784D01*
Y42408D01*
X155885D01*
Y41301D01*
X159195D01*
Y40200D01*
X161397D01*
Y41301D01*
X160296D01*
Y42408D01*
X156987D01*
Y43510D01*
X155885D01*
Y44611D01*
X156987D01*
Y45712D01*
X159195D01*
Y44611D01*
X158088D01*
Y43510D01*
X160296D01*
Y50121D01*
X161397D01*
Y49020D01*
D02*
G37*
G36*
X166910Y51223D02*
X168011D01*
Y45712D01*
X166910D01*
Y49020D01*
X165808D01*
Y46813D01*
X164701D01*
Y49020D01*
X163600D01*
Y51223D01*
X165808D01*
Y54532D01*
X166910D01*
Y51223D01*
D02*
G37*
G36*
X179034Y42408D02*
X177932D01*
Y43510D01*
X176831D01*
Y45712D01*
X179034D01*
Y42408D01*
D02*
G37*
G36*
X152576D02*
X151474D01*
Y43510D01*
X152576D01*
Y42408D01*
D02*
G37*
G36*
X153683Y40200D02*
X154784D01*
Y39099D01*
X151474D01*
Y41301D01*
X153683D01*
Y40200D01*
D02*
G37*
G36*
X179034Y37997D02*
X177932D01*
Y39099D01*
X176831D01*
Y40200D01*
X177932D01*
Y41301D01*
X179034D01*
Y37997D01*
D02*
G37*
G36*
X176831D02*
X174623D01*
Y39099D01*
X176831D01*
Y37997D01*
D02*
G37*
G36*
X155885Y36896D02*
X156987D01*
Y35789D01*
X153683D01*
Y36896D01*
X151474D01*
Y37997D01*
X155885D01*
Y36896D01*
D02*
G37*
G36*
X176831Y34688D02*
X175724D01*
Y35789D01*
X176831D01*
Y34688D01*
D02*
G37*
G36*
X177932Y35789D02*
X179034D01*
Y32485D01*
X177932D01*
Y35789D01*
X176831D01*
Y36896D01*
X177932D01*
Y35789D01*
D02*
G37*
G36*
X179034Y26973D02*
X177932D01*
Y28074D01*
X179034D01*
Y26973D01*
D02*
G37*
G36*
X159195Y37997D02*
X160296D01*
Y36896D01*
X162499D01*
Y35789D01*
X161397D01*
Y34688D01*
X162499D01*
Y33587D01*
X163600D01*
Y31384D01*
X164701D01*
Y33587D01*
X163600D01*
Y35789D01*
X164701D01*
Y33587D01*
X165808D01*
Y30277D01*
X164701D01*
Y29176D01*
X165808D01*
Y26973D01*
X164701D01*
Y28074D01*
X163600D01*
Y31384D01*
X162499D01*
Y32485D01*
X160296D01*
Y33587D01*
X161397D01*
Y34688D01*
X160296D01*
Y35789D01*
X158088D01*
Y36896D01*
X156987D01*
Y37997D01*
X155885D01*
Y39099D01*
X159195D01*
Y37997D01*
D02*
G37*
G36*
X161397Y28074D02*
X162499D01*
Y26973D01*
X160296D01*
Y30277D01*
X161397D01*
Y28074D01*
D02*
G37*
%LPC*%
G36*
X171319Y43510D02*
X170213D01*
Y42410D01*
X170212Y42408D01*
X171319D01*
Y43510D01*
D02*
G37*
G36*
X162499Y42408D02*
X161397D01*
Y41301D01*
X162499D01*
Y42408D01*
D02*
G37*
G36*
X166910D02*
X165808D01*
Y40200D01*
X166910D01*
Y39099D01*
X168011D01*
Y41301D01*
X166910D01*
Y42408D01*
D02*
G37*
G36*
X173521Y35789D02*
X170213D01*
Y32485D01*
X173521D01*
Y35789D01*
D02*
G37*
G36*
X172420Y31384D02*
X171319D01*
Y30277D01*
Y29176D01*
X173521D01*
Y30277D01*
X172420D01*
Y31384D01*
D02*
G37*
G36*
X159195Y37997D02*
X158088D01*
Y36896D01*
X159195D01*
Y37997D01*
D02*
G37*
%LPD*%
D10*
X90847Y21161D02*
G03*
X90847Y21161I-197J0D01*
G01*
D14*
X44709Y79634D02*
G03*
X44709Y79634I-591J0D01*
G01*
D266*
X19488Y43307D02*
G03*
X19488Y43307I-3740J0D01*
G01*
X18701D02*
G03*
X18701Y43307I-2953J0D01*
G01*
X15551Y122047D02*
G03*
X15551Y122047I-3740J0D01*
G01*
X14764D02*
G03*
X14764Y122047I-2953J0D01*
G01*
X15551Y133858D02*
G03*
X15551Y133858I-3740J0D01*
G01*
X14764D02*
G03*
X14764Y133858I-2953J0D01*
G01*
X110039Y37402D02*
G03*
X110039Y37402I-3740J0D01*
G01*
X109252D02*
G03*
X109252Y37402I-2953J0D01*
G01*
X30512Y33465D02*
G03*
X30512Y33465I-2953J0D01*
G01*
X31299D02*
G03*
X31299Y33465I-3740J0D01*
G01*
X19488D02*
G03*
X19488Y33465I-3740J0D01*
G01*
X18701D02*
G03*
X18701Y33465I-2953J0D01*
G01*
X76748Y20502D02*
G03*
X76748Y20502I-394J0D01*
G01*
X124803Y103189D02*
G03*
X124803Y96024I5753J-3582D01*
G01*
X100394Y97869D02*
G03*
X100394Y101344I-925J1738D01*
G01*
X118504Y99606D02*
G03*
X118504Y99606I-5906J0D01*
G01*
X119375D02*
G03*
X119375Y99606I-6777J0D01*
G01*
X46063Y22244D02*
G03*
X46063Y22244I-1772J0D01*
G01*
X38189Y22244D02*
G03*
X38189Y22244I-1772J0D01*
G01*
X39173D02*
G03*
X39173Y22244I-2756J0D01*
G01*
X30315D02*
G03*
X30315Y22244I-1772J0D01*
G01*
X31299D02*
G03*
X31299Y22244I-2756J0D01*
G01*
X30315Y14370D02*
G03*
X30315Y14370I-1772J0D01*
G01*
X31299D02*
G03*
X31299Y14370I-2756J0D01*
G01*
X38189D02*
G03*
X38189Y14370I-1772J0D01*
G01*
X39173D02*
G03*
X39173Y14370I-2756J0D01*
G01*
X46063D02*
G03*
X46063Y14370I-1772J0D01*
G01*
X47047D02*
G03*
X47047Y14370I-2756J0D01*
G01*
X62853Y124000D02*
G03*
X62853Y124000I-2953J0D01*
G01*
X61672Y114000D02*
G03*
X61672Y114000I-1772J0D01*
G01*
Y124000D02*
G03*
X61672Y124000I-1772J0D01*
G01*
X52853Y124000D02*
G03*
X52853Y124000I-2953J0D01*
G01*
X51672Y114000D02*
G03*
X51672Y114000I-1772J0D01*
G01*
Y124000D02*
G03*
X51672Y124000I-1772J0D01*
G01*
X27672D02*
G03*
X27672Y124000I-1772J0D01*
G01*
Y114000D02*
G03*
X27672Y114000I-1772J0D01*
G01*
X28853Y124000D02*
G03*
X28853Y124000I-2953J0D01*
G01*
X35316Y137807D02*
G03*
X35316Y134193I319J-1807D01*
G01*
X36484D02*
G03*
X36484Y137807I-319J1807D01*
G01*
X89567Y188976D02*
G03*
X89567Y188976I-2953J0D01*
G01*
X90354D02*
G03*
X90354Y188976I-3740J0D01*
G01*
X46260Y188976D02*
G03*
X46260Y188976I-2953J0D01*
G01*
X47047D02*
G03*
X47047Y188976I-3740J0D01*
G01*
X58071D02*
G03*
X58071Y188976I-2953J0D01*
G01*
X58858D02*
G03*
X58858Y188976I-3740J0D01*
G01*
Y133858D02*
G03*
X58858Y133858I-3740J0D01*
G01*
X58071D02*
G03*
X58071Y133858I-2953J0D01*
G01*
X101378Y188976D02*
G03*
X101378Y188976I-2953J0D01*
G01*
X102165D02*
G03*
X102165Y188976I-3740J0D01*
G01*
X47047Y133858D02*
G03*
X47047Y133858I-3740J0D01*
G01*
X46260D02*
G03*
X46260Y133858I-2953J0D01*
G01*
X137598Y188976D02*
G03*
X137598Y188976I-3740J0D01*
G01*
X136811D02*
G03*
X136811Y188976I-2953J0D01*
G01*
X37672Y124000D02*
G03*
X37672Y124000I-1772J0D01*
G01*
Y114000D02*
G03*
X37672Y114000I-1772J0D01*
G01*
X38853Y124000D02*
G03*
X38853Y124000I-2953J0D01*
G01*
X196358Y117717D02*
G03*
X196358Y117717I-886J0D01*
G01*
X189272D02*
G03*
X189272Y117717I-886J0D01*
G01*
X196358Y61024D02*
G03*
X196358Y61024I-886J0D01*
G01*
Y4331D02*
G03*
X196358Y4331I-886J0D01*
G01*
X189272Y61024D02*
G03*
X189272Y61024I-886J0D01*
G01*
Y4331D02*
G03*
X189272Y4331I-886J0D01*
G01*
X196358Y17717D02*
G03*
X196358Y17717I-886J0D01*
G01*
X189272D02*
G03*
X189272Y17717I-886J0D01*
G01*
X196358Y104331D02*
G03*
X196358Y104331I-886J0D01*
G01*
X189272D02*
G03*
X189272Y104331I-886J0D01*
G01*
X126960Y26549D02*
G03*
X126960Y26549I-696J0D01*
G01*
X71672Y124000D02*
G03*
X71672Y124000I-1772J0D01*
G01*
Y114000D02*
G03*
X71672Y114000I-1772J0D01*
G01*
X72853Y124000D02*
G03*
X72853Y124000I-2953J0D01*
G01*
X108957Y120472D02*
G03*
X108957Y120472I-2756J0D01*
G01*
X107973D02*
G03*
X107973Y120472I-1772J0D01*
G01*
X108957Y128347D02*
G03*
X108957Y128347I-2756J0D01*
G01*
X107973D02*
G03*
X107973Y128347I-1772J0D01*
G01*
X139469Y128346D02*
G03*
X139469Y128346I-1772J0D01*
G01*
X131595Y128347D02*
G03*
X131595Y128347I-1772J0D01*
G01*
X132579D02*
G03*
X132579Y128347I-2756J0D01*
G01*
X123721D02*
G03*
X123721Y128347I-1772J0D01*
G01*
X124705D02*
G03*
X124705Y128347I-2756J0D01*
G01*
X115847D02*
G03*
X115847Y128347I-1772J0D01*
G01*
X116831D02*
G03*
X116831Y128347I-2756J0D01*
G01*
X115847Y120472D02*
G03*
X115847Y120472I-1772J0D01*
G01*
X116831D02*
G03*
X116831Y120472I-2756J0D01*
G01*
X123721D02*
G03*
X123721Y120472I-1772J0D01*
G01*
X124705D02*
G03*
X124705Y120472I-2756J0D01*
G01*
X131595D02*
G03*
X131595Y120472I-1772J0D01*
G01*
X132579D02*
G03*
X132579Y120472I-2756J0D01*
G01*
X139469D02*
G03*
X139469Y120472I-1772J0D01*
G01*
X140453D02*
G03*
X140453Y120472I-2756J0D01*
G01*
X86532Y2862D02*
G03*
X86925Y3256I0J394D01*
G01*
X80075D02*
G03*
X80468Y2862I394J0D01*
G01*
X86925Y7744D02*
G03*
X86532Y8138I-394J0D01*
G01*
X80468D02*
G03*
X80075Y7744I0J-394D01*
G01*
X87437Y2744D02*
G03*
X87043Y2350I0J-394D01*
G01*
X87043Y8650D02*
G03*
X87437Y8256I394J0D01*
G01*
X79563D02*
G03*
X79957Y8650I0J394D01*
G01*
Y2350D02*
G03*
X79563Y2744I-394J0D01*
G01*
X71000Y39581D02*
G03*
X71000Y39581I-3000J0D01*
G01*
X69968D02*
G03*
X69968Y39581I-1969J0D01*
G01*
X15551Y105512D02*
G03*
X15551Y105512I-3740J0D01*
G01*
X14764D02*
G03*
X14764Y105512I-2953J0D01*
G01*
Y93701D02*
G03*
X14764Y93701I-2953J0D01*
G01*
X15551D02*
G03*
X15551Y93701I-3740J0D01*
G01*
X69882Y133858D02*
G03*
X69882Y133858I-2953J0D01*
G01*
X70669D02*
G03*
X70669Y133858I-3740J0D01*
G01*
X25316Y137807D02*
G03*
X25316Y134193I319J-1807D01*
G01*
X26484D02*
G03*
X26484Y137807I-319J1807D01*
G01*
X88386Y104331D02*
G03*
X88386Y104331I-3740J0D01*
G01*
X87598D02*
G03*
X87598Y104331I-2953J0D01*
G01*
X143504D02*
G03*
X143504Y104331I-3740J0D01*
G01*
X142717D02*
G03*
X142717Y104331I-2953J0D01*
G01*
X52803Y91535D02*
G03*
X52803Y91535I-3000J0D01*
G01*
X51772D02*
G03*
X51772Y91535I-1969J0D01*
G01*
X62055D02*
G03*
X62055Y91535I-3000J0D01*
G01*
X61024D02*
G03*
X61024Y91535I-1969J0D01*
G01*
X71307D02*
G03*
X71307Y91535I-3000J0D01*
G01*
X70276D02*
G03*
X70276Y91535I-1969J0D01*
G01*
X33071Y84646D02*
G03*
X33071Y84646I-1969J0D01*
G01*
X34102D02*
G03*
X34102Y84646I-3000J0D01*
G01*
X33071Y74803D02*
G03*
X33071Y74803I-1969J0D01*
G01*
X34102D02*
G03*
X34102Y74803I-3000J0D01*
G01*
X19685Y185433D02*
G03*
X19685Y185433I-5906J0D01*
G01*
X156614Y146850D02*
G03*
X156614Y146850I-5906J0D01*
G01*
X19685Y13780D02*
G03*
X19685Y13780I-5906J0D01*
G01*
X62254Y29672D02*
Y33215D01*
X55561Y29672D02*
Y33215D01*
Y29672D02*
X62254D01*
X55561Y33215D02*
X62254D01*
X59732Y23930D02*
X63669D01*
X59732Y17630D02*
Y23930D01*
Y17630D02*
X63669D01*
Y23930D01*
X79111Y16958D02*
Y31159D01*
X65158Y16958D02*
Y31159D01*
Y16958D02*
X79111D01*
X65158Y31159D02*
X79111D01*
X72382Y33376D02*
X73681D01*
X72382Y35857D02*
X73681D01*
X72382Y33376D02*
Y35857D01*
X73681Y33376D02*
Y35857D01*
X82701Y30973D02*
X83620Y30054D01*
X84455Y32727D02*
X85374Y31808D01*
X82701Y30973D02*
X84455Y32727D01*
X83620Y30054D02*
X85374Y31808D01*
X77088Y33376D02*
X78387D01*
X77088Y35857D02*
X78387Y35857D01*
X77088Y33376D02*
Y35857D01*
X78387Y33376D02*
Y35857D01*
X55561Y28615D02*
X62254D01*
X55561Y25072D02*
X62254D01*
X55561D02*
Y28615D01*
X62254Y25072D02*
Y28615D01*
X60294Y16466D02*
X62775D01*
X60294Y15167D02*
X62775D01*
X60294D02*
Y16466D01*
X62775Y15167D02*
Y16466D01*
X58740Y17550D02*
Y18850D01*
X56260Y17550D02*
X56260Y18850D01*
X56260Y17550D02*
X58740D01*
X56260Y18850D02*
X58740D01*
X58740Y22750D02*
X58740Y24050D01*
X56260Y22750D02*
Y24050D01*
Y22750D02*
X58740D01*
X56260Y24050D02*
X58740D01*
X62254Y34272D02*
Y37815D01*
X55561Y34272D02*
Y37815D01*
Y34272D02*
X62254D01*
X55561Y37815D02*
X62254D01*
X80471Y22878D02*
Y24178D01*
X82951Y22878D02*
Y24178D01*
X80471D02*
X82951D01*
X80471Y22878D02*
X82951D01*
X84511Y18988D02*
Y21468D01*
X83211Y18988D02*
Y21468D01*
X84511D01*
X83211Y18988D02*
X84511D01*
X84771Y22879D02*
Y24178D01*
X87251Y22879D02*
Y24178D01*
X84771D02*
X87251D01*
X84771Y22879D02*
X87251D01*
X82904Y14007D02*
X85384D01*
X82904Y15306D02*
X85384D01*
Y14007D02*
Y15306D01*
X82904Y14007D02*
Y15306D01*
X99606Y90184D02*
Y93282D01*
X98425Y90184D02*
Y93282D01*
X100394D01*
X98425Y90184D02*
X100394D01*
X99606Y105931D02*
Y109029D01*
X98425Y105931D02*
Y109029D01*
Y105931D02*
X100394D01*
X98425Y109029D02*
X100394D01*
X125591Y90184D02*
Y93282D01*
X126772Y90184D02*
Y93282D01*
X124803D02*
X126772D01*
X124803Y90184D02*
X126772D01*
X125591Y105931D02*
Y109029D01*
X126772Y105931D02*
Y109029D01*
X124803Y105931D02*
X126772D01*
X124803Y109029D02*
X126772D01*
X124803Y87205D02*
Y112008D01*
X100394Y87205D02*
X124803D01*
X100394D02*
Y112008D01*
X124803D01*
X104273Y11773D02*
X106237D01*
Y9806D02*
Y11773D01*
X104273Y9806D02*
X106237Y9806D01*
X104273Y9806D02*
Y11773D01*
X112957Y8831D02*
X114926D01*
X102327Y12768D02*
X104296D01*
X112957Y7650D02*
Y8831D01*
Y12768D02*
Y13949D01*
X104296D02*
X104296Y12768D01*
X104296Y8831D02*
X104296Y7650D01*
X112957Y12768D02*
X114926Y12768D01*
X102327Y8831D02*
X104296Y8831D01*
X102327Y13949D02*
X102327Y7650D01*
X114926Y7650D01*
Y13949D01*
X102327D02*
X114926D01*
X92160Y12740D02*
X93459D01*
X92160Y10260D02*
X93459D01*
Y12740D01*
X92160Y10260D02*
Y12740D01*
X98760Y12740D02*
X100059D01*
X98760Y10260D02*
X100059D01*
Y12740D01*
X98760Y10260D02*
Y12740D01*
X94869Y13150D02*
X94869Y11850D01*
X97350D02*
X97350Y13150D01*
X94869D02*
X97350D01*
X94869Y11850D02*
X97350D01*
X24606Y10433D02*
X48228D01*
X24606Y26181D02*
X48228D01*
X24606Y10433D02*
Y26181D01*
X48228Y10433D02*
Y26181D01*
X47047Y19488D02*
Y25000D01*
X41535Y19488D02*
X47047D01*
X41535D02*
Y25000D01*
X47047D01*
X54900Y109000D02*
Y129000D01*
Y109000D02*
X64900D01*
X54900Y119000D02*
X57900D01*
X54900Y129000D02*
X64900D01*
X56947Y111047D02*
X62853D01*
X56947D02*
Y116953D01*
X62853Y111047D02*
Y116953D01*
X64900Y109000D02*
Y129000D01*
X56947Y116953D02*
X62853D01*
X61900Y119000D02*
X64900D01*
X44900Y109000D02*
Y129000D01*
Y109000D02*
X54900D01*
X44900Y119000D02*
X47900D01*
X44900Y129000D02*
X54900D01*
X46947Y111047D02*
X52853D01*
X46947D02*
Y116953D01*
X52853Y111047D02*
Y116953D01*
X54900Y109000D02*
Y129000D01*
X46947Y116953D02*
X52853D01*
X51900Y119000D02*
X54900D01*
X27900D02*
X30900D01*
X22947Y116953D02*
X28853D01*
X30900Y109000D02*
Y129000D01*
X28853Y111047D02*
Y116953D01*
X22947Y111047D02*
Y116953D01*
Y111047D02*
X28853D01*
X20900Y129000D02*
X30900D01*
X20900Y119000D02*
X23900D01*
X20900Y109000D02*
X30900D01*
X20900D02*
Y129000D01*
X35316Y134193D02*
Y135606D01*
X36484Y134193D02*
Y135606D01*
X35316D02*
X36484D01*
X35316Y136394D02*
X36484D01*
X35316D02*
Y137807D01*
X36484Y136394D02*
Y137807D01*
X37900Y119000D02*
X40900D01*
X32947Y116953D02*
X38853D01*
X40900Y109000D02*
Y129000D01*
X38853Y111047D02*
Y116953D01*
X32947Y111047D02*
Y116953D01*
Y111047D02*
X38853D01*
X30900Y129000D02*
X40900D01*
X30900Y119000D02*
X33900D01*
X30900Y109000D02*
X40900D01*
X30900D02*
Y129000D01*
X38016Y44004D02*
Y85736D01*
Y44004D02*
X101402D01*
Y85736D01*
X38016D02*
X101402D01*
X140000Y24350D02*
Y26831D01*
X138701Y24350D02*
X138701Y26831D01*
X140000Y26831D01*
X138701Y24350D02*
X140000D01*
X197835Y1969D02*
Y120079D01*
X186024Y1969D02*
X197835D01*
X186024D02*
Y120079D01*
X197835D01*
X187992Y87323D02*
X193051D01*
X190807Y77244D02*
X195866D01*
X187992Y88583D02*
X195866D01*
X187992Y75984D02*
X195866D01*
X187992Y81654D02*
X193051D01*
X190807Y82913D02*
X195866D01*
Y75984D02*
Y77244D01*
X187992Y87323D02*
Y88583D01*
Y81654D02*
X193051Y87323D01*
X187992Y75984D02*
X193051Y81654D01*
X190807Y77244D02*
X195866Y82913D01*
X190807D02*
X195866Y88583D01*
X123076Y19247D02*
Y21728D01*
X121776Y19247D02*
Y21728D01*
X123076D01*
X121776Y19247D02*
X123076D01*
X121808Y9937D02*
X124289D01*
X121808Y8638D02*
X124289D01*
X121808D02*
Y9937D01*
X124289Y8638D02*
Y9937D01*
X184083Y12733D02*
Y16867D01*
X181917Y12733D02*
Y16867D01*
X184083D01*
X181917Y12733D02*
X184083D01*
X125676Y6948D02*
X126975D01*
X125676Y9428D02*
X126975Y9428D01*
X125676Y6948D02*
Y9428D01*
X126975Y6948D02*
Y9428D01*
X122576Y11447D02*
Y13928D01*
X121276Y11447D02*
Y13928D01*
X122576D01*
X121276Y11447D02*
X122576D01*
X177428Y11453D02*
X180972D01*
X177428Y18146D02*
X180972D01*
X177428Y11453D02*
Y18146D01*
X180972Y11453D02*
Y18146D01*
X104260Y50350D02*
X106740D01*
X104260Y51650D02*
X106740D01*
Y50350D02*
Y51650D01*
X104260Y50350D02*
Y51650D01*
Y47850D02*
X106740D01*
X104260Y49150D02*
X106740D01*
Y47850D02*
Y49150D01*
X104260Y47850D02*
Y49150D01*
Y45350D02*
X106740D01*
X104260Y46650D02*
X106740D01*
Y45350D02*
Y46650D01*
X104260Y45350D02*
Y46650D01*
X124591Y20152D02*
X132662Y20152D01*
X124591Y28223D02*
X132662D01*
X132662Y20152D02*
X132662Y28223D01*
X124591Y20152D02*
Y28223D01*
X138598Y29346D02*
Y36039D01*
X142142Y29346D02*
Y36039D01*
X138598Y29346D02*
X142142D01*
X138598Y36039D02*
X142142D01*
X71900Y119000D02*
X74900D01*
X66947Y116953D02*
X72853D01*
X74900Y109000D02*
Y129000D01*
X72853Y111047D02*
Y116953D01*
X66947Y111047D02*
Y116953D01*
Y111047D02*
X72853D01*
X64900Y129000D02*
X74900D01*
X64900Y119000D02*
X67900D01*
X64900Y109000D02*
X74900D01*
X64900D02*
Y129000D01*
X140453Y125591D02*
Y131102D01*
X134941Y125591D02*
X140453D01*
X134941D02*
Y131102D01*
X140453D01*
X141634Y116535D02*
Y132283D01*
X102264Y116535D02*
Y132283D01*
X141634D01*
X102264Y116535D02*
X141634D01*
X139465Y22764D02*
X143598D01*
X139465Y20598D02*
X143598D01*
X139465D02*
Y22764D01*
X143598Y20598D02*
Y22764D01*
X138268Y14120D02*
Y18254D01*
X140433Y14120D02*
Y18254D01*
X138268Y14120D02*
X140433D01*
X138268Y18254D02*
X140433D01*
X90394Y14902D02*
Y16201D01*
X92874Y14902D02*
Y16201D01*
X90394D02*
X92874D01*
X90394Y14902D02*
X92874D01*
X89862Y21949D02*
X93405D01*
X89862Y17618D02*
X93405D01*
X89862D02*
Y21949D01*
X93405Y17618D02*
Y21949D01*
X68106Y7470D02*
Y14163D01*
X64563Y7470D02*
Y14163D01*
X68106D01*
X64563Y7470D02*
X68106D01*
X69879Y2934D02*
Y5099D01*
X65745Y2934D02*
Y5099D01*
Y2934D02*
X69879D01*
X65745Y5099D02*
X69879D01*
X55554Y14172D02*
X62247D01*
X55554Y10628D02*
X62247D01*
X55554D02*
Y14172D01*
X62247Y10628D02*
Y14172D01*
X70188Y6145D02*
Y9688D01*
X76881Y6145D02*
Y9688D01*
X70188D02*
X76881D01*
X70188Y6145D02*
X76881D01*
X80075Y3256D02*
Y7744D01*
X86925Y3256D02*
Y7744D01*
X80468Y2862D02*
X86532Y2862D01*
X80468Y8138D02*
X86532D01*
X79957Y2350D02*
X87043Y2350D01*
X79563Y2744D02*
Y8256D01*
X79957Y8650D02*
X87043D01*
X87437Y2744D02*
Y8256D01*
X89050Y12040D02*
X90350D01*
Y9560D02*
Y12040D01*
X89050Y9560D02*
Y12040D01*
Y9560D02*
X90350D01*
X73694Y12342D02*
X76175Y12342D01*
X73694Y11043D02*
X76175Y11043D01*
X73694Y11043D02*
X73694Y12342D01*
X76175Y11043D02*
Y12342D01*
X81240Y11043D02*
Y12342D01*
X78760Y11043D02*
Y12342D01*
Y11043D02*
X81240Y11043D01*
X78760Y12342D02*
X81240Y12342D01*
X26484Y136394D02*
Y137807D01*
X25316Y134193D02*
Y135606D01*
X26484D01*
Y134193D02*
Y135606D01*
X25316Y136394D02*
X26484D01*
X25316D02*
Y137807D01*
X17896Y53148D02*
Y81491D01*
X6221Y53148D02*
Y81491D01*
X2362Y67319D02*
Y73228D01*
Y67319D02*
X6221D01*
X22942Y66317D02*
Y68320D01*
X19874Y66317D02*
Y68320D01*
X7704Y63914D02*
Y70724D01*
X17896Y56302D02*
X22942D01*
X17896Y58305D02*
X22942D01*
X10113Y53548D02*
X14004D01*
X17896Y66317D02*
X22942D01*
X17896Y68320D02*
X22942D01*
X2362Y73228D02*
X6221D01*
X17896Y76332D02*
X22942D01*
X17896Y78335D02*
X22942D01*
X10113Y81090D02*
X14004D01*
X22942Y56302D02*
Y58305D01*
X19874Y56302D02*
Y58305D01*
X14004Y53949D02*
X17896D01*
X14004Y54750D02*
X17896D01*
X14004Y53548D02*
Y54750D01*
Y53148D02*
Y53548D01*
Y53148D02*
X17896D01*
X6221Y53949D02*
X10113D01*
X6221Y54751D02*
X10113D01*
Y53548D02*
Y54751D01*
X6221Y53148D02*
X10113D01*
Y53548D01*
X6221Y62412D02*
X7704Y63914D01*
X6221Y72227D02*
X7704Y70724D01*
X22942Y76332D02*
Y78335D01*
X19874Y76332D02*
Y78335D01*
X14004Y80689D02*
X17896D01*
X14004Y79888D02*
X17896D01*
X14004D02*
Y81090D01*
Y81491D02*
X17896D01*
X14004Y81090D02*
Y81491D01*
X6221Y80689D02*
X10113D01*
X6221Y79888D02*
X10113D01*
Y81090D01*
Y81491D01*
X6221D02*
X10113D01*
X129626Y61713D02*
X131791D01*
X129626Y65847D02*
X131791D01*
X129626Y61713D02*
Y65847D01*
X131791D02*
X131791Y61713D01*
X133405Y65098D02*
Y66398D01*
X135886Y65098D02*
Y66398D01*
X133405D02*
X135886D01*
X133405Y65098D02*
X135886D01*
X130053Y56173D02*
X131352D01*
X130053Y58653D02*
X131352D01*
X130053Y56173D02*
X130053Y58653D01*
X131352D02*
X131352Y56173D01*
X125525Y65098D02*
Y66398D01*
X128006Y65098D02*
Y66398D01*
X125525Y66398D02*
X128006Y66398D01*
X125525Y65098D02*
X128006Y65098D01*
X137106Y38169D02*
Y41122D01*
X141634Y38169D02*
Y41122D01*
X137106Y38169D02*
X141634D01*
X137106Y41122D02*
X141634D01*
X141584Y44337D02*
X144065D01*
X141584Y43038D02*
X144065Y43038D01*
X141584Y44337D02*
X141584Y43038D01*
X144065Y43038D02*
Y44337D01*
X31421Y88689D02*
Y97350D01*
X37130Y88689D02*
Y97350D01*
X31421Y88689D02*
X37130D01*
X31421Y97350D02*
X37130D01*
X38409Y88886D02*
Y93020D01*
X40575Y88886D02*
Y93020D01*
X38409Y88886D02*
X40575D01*
X38409Y93020D02*
X40575D01*
X42090Y87646D02*
Y88945D01*
X44571Y87646D02*
Y88945D01*
X42090D02*
X44571D01*
X42090Y87646D02*
X44571D01*
X33291Y58768D02*
Y62311D01*
X26598Y58768D02*
Y62311D01*
Y58768D02*
X33291D01*
X26598Y62311D02*
X33291D01*
X30929Y64280D02*
X34472D01*
X30929Y70973D02*
X34472D01*
X30929Y64280D02*
Y70973D01*
X34472Y64280D02*
Y70973D01*
X36539Y32193D02*
Y40854D01*
X42248Y32193D02*
Y40854D01*
X36539Y32193D02*
X42248D01*
X36539Y40854D02*
X42248D01*
X31362Y35283D02*
Y37764D01*
X32661Y35283D02*
Y37764D01*
X31362Y35283D02*
X32661D01*
X31362Y37764D02*
X32661D01*
X33921Y35283D02*
Y37764D01*
X35221Y35283D02*
Y37764D01*
X33921Y35283D02*
X35221D01*
X33921Y37764D02*
X35221D01*
X28508Y66386D02*
X29807D01*
X28508Y68866D02*
X29807D01*
X28508Y66386D02*
Y68866D01*
X29807Y66386D02*
Y68866D01*
X26244Y94267D02*
X27543D01*
X26244Y91786D02*
X27543D01*
Y94267D01*
X26244Y91786D02*
Y94267D01*
X28803D02*
X30102D01*
X28803Y91786D02*
X30102D01*
Y94267D01*
X28803Y91786D02*
Y94267D01*
X56660Y40350D02*
X59140D01*
X56660Y39050D02*
X59140D01*
X56660D02*
Y40350D01*
X59140Y39050D02*
Y40350D01*
X63540Y39050D02*
Y40350D01*
X61060Y39050D02*
Y40350D01*
Y39050D02*
X63540D01*
X61060Y40350D02*
X63540D01*
D275*
X113746Y62901D02*
G03*
X112553Y64094I-1192J0D01*
G01*
Y64094D02*
G03*
X111361Y62901I0J-1193D01*
G01*
Y62901D02*
G03*
X112553Y61709I1193J0D01*
G01*
Y61709D02*
G03*
X113746Y62901I0J1192D01*
G01*
X111759Y62013D02*
G03*
X112553Y61709I793J881D01*
G01*
X112553Y61709D02*
G03*
X113746Y62901I-0J1193D01*
G01*
D02*
G03*
X112553Y64094I-1192J0D01*
G01*
X112553D02*
G03*
X111759Y63791I-2J-1187D01*
G01*
Y62013D02*
G03*
X112553Y61709I793J881D01*
G01*
X112553Y61709D02*
G03*
X113746Y62901I-0J1193D01*
G01*
D02*
G03*
X112553Y64094I-1192J0D01*
G01*
X112553D02*
G03*
X111759Y63791I-2J-1187D01*
G01*
X107436Y62404D02*
G03*
X107933Y62901I-0J497D01*
G01*
X107933Y62901D02*
G03*
X107436Y63398I-497J0D01*
G01*
Y62404D02*
G03*
X107933Y62901I-0J497D01*
G01*
X107933Y62901D02*
G03*
X107436Y63398I-497J0D01*
G01*
X117270Y62405D02*
G03*
X117075Y62209I0J-196D01*
G01*
Y63594D02*
G03*
X117270Y63398I196J0D01*
G01*
Y62405D02*
G03*
X117075Y62209I0J-196D01*
G01*
Y63594D02*
G03*
X117270Y63398I196J0D01*
G01*
X116081Y62901D02*
G03*
X112554Y66429I-3528J0D01*
G01*
Y66429D02*
G03*
X109026Y62901I0J-3528D01*
G01*
X109026Y62901D02*
G03*
X112554Y59374I3528J0D01*
G01*
D02*
G03*
X116081Y62901I-0J3528D01*
G01*
Y62901D02*
G03*
X112554Y66429I-3528J0D01*
G01*
Y66429D02*
G03*
X109026Y62901I0J-3528D01*
G01*
X109026Y62901D02*
G03*
X112554Y59374I3528J0D01*
G01*
D02*
G03*
X116081Y62901I-0J3528D01*
G01*
X116363D02*
G03*
X112554Y66710I-3809J-0D01*
G01*
Y66710D02*
G03*
X108745Y62901I-0J-3809D01*
G01*
Y62901D02*
G03*
X112554Y59092I3809J-0D01*
G01*
Y59092D02*
G03*
X116363Y62901I-0J3809D01*
G01*
X116694D02*
G03*
X112554Y67042I-4140J0D01*
G01*
D02*
G03*
X108413Y62901I-0J-4140D01*
G01*
D02*
G03*
X112554Y58761I4140J0D01*
G01*
Y58761D02*
G03*
X116694Y62901I0J4140D01*
G01*
X110029Y58447D02*
G03*
X109986Y58330I126J-112D01*
G01*
X110057Y58472D02*
G03*
X110029Y58447I96J-139D01*
G01*
X110091Y58491D02*
G03*
X110057Y58472I78J-181D01*
G01*
X110285Y58496D02*
G03*
X110091Y58491I-90J-258D01*
G01*
X110679Y58313D02*
G03*
X110649Y58330I-218J-353D01*
G01*
X110705Y58296D02*
G03*
X110679Y58313I-189J-247D01*
G01*
X110725Y58277D02*
G03*
X110705Y58296I-167J-173D01*
G01*
X110766Y58219D02*
G03*
X110725Y58278I-160J-69D01*
G01*
X110773Y58199D02*
G03*
X110766Y58219I-167J-46D01*
G01*
X110778Y58177D02*
G03*
X110773Y58199I-197J-32D01*
G01*
X110781Y58131D02*
G03*
X110778Y58177I-286J2D01*
G01*
X110029Y58447D02*
G03*
X109986Y58330I126J-112D01*
G01*
X110057Y58472D02*
G03*
X110029Y58447I96J-139D01*
G01*
X110091Y58491D02*
G03*
X110057Y58472I78J-181D01*
G01*
X110285Y58496D02*
G03*
X110091Y58491I-90J-258D01*
G01*
X110679Y58313D02*
G03*
X110649Y58330I-218J-353D01*
G01*
X110705Y58296D02*
G03*
X110679Y58313I-189J-247D01*
G01*
X110725Y58277D02*
G03*
X110705Y58296I-167J-173D01*
G01*
X110766Y58219D02*
G03*
X110725Y58278I-160J-69D01*
G01*
X110773Y58199D02*
G03*
X110766Y58219I-167J-46D01*
G01*
X110778Y58177D02*
G03*
X110773Y58199I-197J-32D01*
G01*
X110781Y58131D02*
G03*
X110778Y58177I-286J2D01*
G01*
X115120Y58330D02*
G03*
X115078Y58447I-168J6D01*
G01*
X115078Y58447D02*
G03*
X115049Y58472I-125J-114D01*
G01*
D02*
G03*
X115015Y58491I-112J-162D01*
G01*
Y58491D02*
G03*
X114822Y58496I-103J-253D01*
G01*
X114458Y58330D02*
G03*
X114428Y58313I188J-370D01*
G01*
Y58313D02*
G03*
X114402Y58296I163J-265D01*
G01*
Y58296D02*
G03*
X114381Y58277I146J-191D01*
G01*
X114381D02*
G03*
X114341Y58219I120J-127D01*
G01*
D02*
G03*
X114333Y58199I159J-67D01*
G01*
X114333D02*
G03*
X114329Y58177I192J-53D01*
G01*
X114329D02*
G03*
X114325Y58131I282J-43D01*
G01*
X115120Y58330D02*
G03*
X115078Y58447I-168J6D01*
G01*
X115078Y58447D02*
G03*
X115049Y58472I-125J-114D01*
G01*
D02*
G03*
X115015Y58491I-112J-162D01*
G01*
Y58491D02*
G03*
X114822Y58496I-103J-253D01*
G01*
X114458Y58330D02*
G03*
X114428Y58313I188J-370D01*
G01*
Y58313D02*
G03*
X114402Y58296I163J-265D01*
G01*
Y58296D02*
G03*
X114381Y58277I146J-191D01*
G01*
X114381D02*
G03*
X114341Y58219I120J-127D01*
G01*
D02*
G03*
X114333Y58199I159J-67D01*
G01*
X114333D02*
G03*
X114329Y58177I192J-53D01*
G01*
X114329D02*
G03*
X114325Y58131I282J-43D01*
G01*
X109986Y67472D02*
G03*
X110029Y67355I168J-6D01*
G01*
X110029D02*
G03*
X110057Y67330I125J114D01*
G01*
Y67330D02*
G03*
X110091Y67312I112J163D01*
G01*
D02*
G03*
X110285Y67307I103J255D01*
G01*
X110649Y67472D02*
G03*
X110679Y67489I-188J370D01*
G01*
D02*
G03*
X110705Y67507I-163J265D01*
G01*
D02*
G03*
X110725Y67525I-146J191D01*
G01*
D02*
G03*
X110766Y67583I-120J127D01*
G01*
D02*
G03*
X110773Y67604I-159J67D01*
G01*
D02*
G03*
X110778Y67625I-192J53D01*
G01*
D02*
G03*
X110781Y67671I-282J43D01*
G01*
X109986Y67472D02*
G03*
X110029Y67355I168J-6D01*
G01*
X110029D02*
G03*
X110057Y67330I125J114D01*
G01*
Y67330D02*
G03*
X110091Y67312I112J163D01*
G01*
D02*
G03*
X110285Y67307I103J255D01*
G01*
X110649Y67472D02*
G03*
X110679Y67489I-188J370D01*
G01*
D02*
G03*
X110705Y67507I-163J265D01*
G01*
D02*
G03*
X110725Y67525I-146J191D01*
G01*
D02*
G03*
X110766Y67583I-120J127D01*
G01*
D02*
G03*
X110773Y67604I-159J67D01*
G01*
D02*
G03*
X110778Y67625I-192J53D01*
G01*
D02*
G03*
X110781Y67671I-282J43D01*
G01*
X115078Y67355D02*
G03*
X115120Y67472I-126J112D01*
G01*
X115049Y67330D02*
G03*
X115078Y67355I-96J139D01*
G01*
X115015Y67312D02*
G03*
X115049Y67330I-78J181D01*
G01*
X114822Y67307D02*
G03*
X115015Y67312I90J259D01*
G01*
X114428Y67489D02*
G03*
X114458Y67472I218J353D01*
G01*
X114402Y67507D02*
G03*
X114428Y67489I189J247D01*
G01*
X114381Y67525D02*
G03*
X114402Y67507I167J173D01*
G01*
X114341Y67583D02*
G03*
X114381Y67525I160J69D01*
G01*
X114333Y67604D02*
G03*
X114341Y67583I167J46D01*
G01*
X114329Y67625D02*
G03*
X114333Y67604I197J32D01*
G01*
X114325Y67671D02*
G03*
X114329Y67625I286J-2D01*
G01*
X115078Y67355D02*
G03*
X115120Y67472I-126J112D01*
G01*
X115049Y67330D02*
G03*
X115078Y67355I-96J139D01*
G01*
X115015Y67312D02*
G03*
X115049Y67330I-78J181D01*
G01*
X114822Y67307D02*
G03*
X115015Y67312I90J259D01*
G01*
X114428Y67489D02*
G03*
X114458Y67472I218J353D01*
G01*
X114402Y67507D02*
G03*
X114428Y67489I189J247D01*
G01*
X114381Y67525D02*
G03*
X114402Y67507I167J173D01*
G01*
X114341Y67583D02*
G03*
X114381Y67525I160J69D01*
G01*
X114333Y67604D02*
G03*
X114341Y67583I167J46D01*
G01*
X114329Y67625D02*
G03*
X114333Y67604I197J32D01*
G01*
X114325Y67671D02*
G03*
X114329Y67625I286J-2D01*
G01*
X117472Y64988D02*
G03*
X117075Y64596I-0J-398D01*
G01*
Y61206D02*
G03*
X117472Y60814I398J7D01*
G01*
X107635Y59920D02*
G03*
X108032Y60312I-0J398D01*
G01*
Y65491D02*
G03*
X107635Y65882I-398J-7D01*
G01*
X117472Y64988D02*
G03*
X117075Y64596I-0J-398D01*
G01*
Y61206D02*
G03*
X117472Y60814I398J7D01*
G01*
X107635Y59920D02*
G03*
X108032Y60312I-0J398D01*
G01*
Y65491D02*
G03*
X107635Y65882I-398J-7D01*
G01*
X117247Y157363D02*
G03*
X115013Y155128I-1123J-1111D01*
G01*
X90900Y154527D02*
G03*
X90900Y154527I-2165J0D01*
G01*
X74195Y149761D02*
G03*
X76160Y147085I2805J0D01*
G01*
X116114Y172088D02*
G03*
X116114Y166183I0J-2953D01*
G01*
X90900Y173734D02*
G03*
X90900Y173734I-2165J0D01*
G01*
Y164132D02*
G03*
X90900Y164132I-2165J0D01*
G01*
X74192Y180666D02*
G03*
X74825Y179309I1772J0D01*
G01*
X115814Y154361D02*
G03*
X118014Y156562I1111J1090D01*
G01*
X116085Y157830D02*
G03*
X115480Y155795I1097J-1433D01*
G01*
X116597Y157763D02*
G03*
X115747Y155962I637J-1402D01*
G01*
X111276Y154127D02*
G03*
X111276Y154127I-2165J0D01*
G01*
X103821D02*
G03*
X103821Y154127I-2165J0D01*
G01*
X89967Y155510D02*
G03*
X88735Y156104I-1233J-980D01*
G01*
X88376Y156465D02*
G03*
X88376Y152594I359J-1936D01*
G01*
X81262Y154127D02*
G03*
X81262Y154127I-2165J0D01*
G01*
X118082Y166183D02*
G03*
X118082Y172088I0J2953D01*
G01*
X111276Y164132D02*
G03*
X111276Y164132I-2165J0D01*
G01*
Y174136D02*
G03*
X111276Y174136I-2165J0D01*
G01*
X107343Y163365D02*
G03*
X107343Y164899I-1669J767D01*
G01*
X103821Y174136D02*
G03*
X103821Y174136I-2165J0D01*
G01*
X101248Y165653D02*
G03*
X101248Y162610I408J-1521D01*
G01*
X101252Y165242D02*
G03*
X101252Y163022I404J-1110D01*
G01*
X103821Y164132D02*
G03*
X103821Y164132I-2165J0D01*
G01*
X98389Y169136D02*
G03*
X98389Y169136I-2953J0D01*
G01*
X88376Y175670D02*
G03*
X88376Y171799I359J-1936D01*
G01*
X89752Y164731D02*
G03*
X89752Y163532I-1018J-599D01*
G01*
X88376Y166067D02*
G03*
X88376Y162196I359J-1936D01*
G01*
X81262Y164132D02*
G03*
X81262Y164132I-2165J0D01*
G01*
Y174136D02*
G03*
X81262Y174136I-2165J0D01*
G01*
X76963Y163699D02*
G03*
X76963Y164532I-17J417D01*
G01*
X78467Y164793D02*
G03*
X78030Y163966I1142J-1132D01*
G01*
X78030Y164299D02*
G03*
X78464Y163499I1496J293D01*
G01*
X107310Y145024D02*
G03*
X106676Y144791I-88J-739D01*
G01*
X107310Y145224D02*
G03*
X106543Y144957I71J-1440D01*
G01*
X114946Y144824D02*
G03*
X114546Y145224I-400J0D01*
G01*
Y143957D02*
G03*
X114946Y144357I0J400D01*
G01*
X114546Y145824D02*
G03*
X114946Y146224I0J400D01*
G01*
X98406Y140389D02*
G03*
X99573Y141573I-8J1175D01*
G01*
X122880Y155258D02*
G03*
X124047Y152882I1502J-737D01*
G01*
X100624Y139387D02*
G03*
X101390Y139388I383J234D01*
G01*
X129721Y140540D02*
G03*
X129519Y140977I-575J0D01*
G01*
X125384Y145591D02*
G03*
X123417Y147558I-1967J-0D01*
G01*
X124084Y143790D02*
G03*
X124584Y143990I-72J905D01*
G01*
X125384Y142970D02*
G03*
X124943Y142423I53J-494D01*
G01*
X125384Y142970D02*
G03*
X124786Y142419I-24J-575D01*
G01*
X124943Y142423D02*
G03*
X124584Y142970I-453J94D01*
G01*
X125258Y142423D02*
G03*
X124584Y142823I-537J-137D01*
G01*
X116873Y146792D02*
G03*
X118577Y147554I-462J3317D01*
G01*
X117514Y146224D02*
G03*
X119353Y147558I-635J2810D01*
G01*
X117532Y145834D02*
G03*
X117876Y146071I-8J381D01*
G01*
X119638Y146799D02*
G03*
X121469Y147558I-90J2803D01*
G01*
X120485Y146224D02*
G03*
X122296Y147558I-462J2524D01*
G01*
X121105Y143790D02*
G03*
X121666Y143990I-435J2105D01*
G01*
X121469Y143984D02*
G03*
X121950Y143790I554J681D01*
G01*
X118497Y143990D02*
G03*
X119015Y143790I543J636D01*
G01*
X117714Y144824D02*
G03*
X117514Y145024I-200J0D01*
G01*
Y144157D02*
G03*
X117714Y144357I-0J200D01*
G01*
X117881Y144874D02*
G03*
X117514Y145224I-359J-8D01*
G01*
Y143957D02*
G03*
X117876Y144230I5J370D01*
G01*
X108310Y144157D02*
G03*
X106922Y143623I-104J-1804D01*
G01*
X108310Y143957D02*
G03*
X107207Y143623I-67J-1769D01*
G01*
X114746Y144824D02*
G03*
X114546Y145024I-200J-0D01*
G01*
Y144157D02*
G03*
X114746Y144357I0J200D01*
G01*
X99173Y143957D02*
G03*
X99573Y144299I29J371D01*
G01*
X99173Y145824D02*
G03*
X99573Y146108I10J410D01*
G01*
X104323Y147558D02*
G03*
X102341Y145591I-7J-1975D01*
G01*
X102502Y146356D02*
G03*
X103959Y147527I-471J2077D01*
G01*
X104353Y145024D02*
G03*
X103743Y144831I57J-1238D01*
G01*
X104342Y145222D02*
G03*
X103592Y144957I-21J-1135D01*
G01*
X103162Y143970D02*
G03*
X103641Y143790I514J643D01*
G01*
X105342Y144157D02*
G03*
X103929Y143623I61J-2297D01*
G01*
X105307Y143955D02*
G03*
X104235Y143623I82J-2169D01*
G01*
X103132Y142970D02*
G03*
X102640Y142429I25J-517D01*
G01*
X105770Y143790D02*
G03*
X106259Y143974I-109J1034D01*
G01*
X93937Y142223D02*
G03*
X94894Y143226I-203J1152D01*
G01*
X91936Y143757D02*
G03*
X93008Y144572I-52J1181D01*
G01*
X98127Y144116D02*
G03*
X98389Y145207I12J574D01*
G01*
X88989Y145024D02*
G03*
X88335Y144791I8J-1055D01*
G01*
X89002Y145224D02*
G03*
X88235Y144957I29J-1319D01*
G01*
X85600Y141222D02*
G03*
X85600Y140389I6J-417D01*
G01*
X87568Y140510D02*
G03*
X87301Y140722I-240J-27D01*
G01*
X75096Y144557D02*
G03*
X76163Y145624I0J1067D01*
G01*
X77930Y142190D02*
G03*
X76930Y143190I-1001J-0D01*
G01*
X77730Y142190D02*
G03*
X76930Y142990I-800J0D01*
G01*
Y140822D02*
G03*
X77730Y141589I17J784D01*
G01*
X76930Y140622D02*
G03*
X77930Y141589I17J984D01*
G01*
X75362Y143390D02*
G03*
X75362Y142134I822J-628D01*
G01*
X78130Y144525D02*
G03*
X78841Y143767I734J-24D01*
G01*
X78997Y144724D02*
G03*
X78709Y144297I249J-479D01*
G01*
X79898Y145824D02*
G03*
X79631Y145724I4J-418D01*
G01*
X79898Y146224D02*
G03*
X79382Y146031I23J-845D01*
G01*
X123250Y155262D02*
G03*
X124117Y153194I1133J-740D01*
G01*
X116114Y155462D02*
G03*
X116514Y155062I400J0D01*
G01*
X101252Y155238D02*
G03*
X101252Y153018I404J-1110D01*
G01*
X101248Y155649D02*
G03*
X101248Y152606I408J-1521D01*
G01*
X89752Y155129D02*
G03*
X89752Y153930I-1018J-599D01*
G01*
X88735Y152954D02*
G03*
X89967Y153549I0J1575D01*
G01*
X75162Y151869D02*
G03*
X75871Y151160I709J0D01*
G01*
X75763Y152454D02*
G03*
X76150Y151822I709J0D01*
G01*
Y153751D02*
G03*
X75763Y153119I321J-632D01*
G01*
X75762Y155864D02*
G03*
X76149Y155232I709J0D01*
G01*
X80447Y153728D02*
G03*
X80665Y153946I0J217D01*
G01*
X80665Y154311D02*
G03*
X80448Y154529I-217J0D01*
G01*
X76930Y153961D02*
G03*
X77030Y154795I13J421D01*
G01*
X78030Y154295D02*
G03*
X78349Y153542I1898J360D01*
G01*
X78330Y153961D02*
G03*
X78464Y153594I532J-14D01*
G01*
X78506Y154899D02*
G03*
X78330Y154361I1163J-678D01*
G01*
X78580Y154828D02*
G03*
X78047Y153978I647J-998D01*
G01*
X78312Y154728D02*
G03*
X78297Y154722I0J-21D01*
G01*
X110178Y163432D02*
G03*
X110546Y163801I0J368D01*
G01*
X109944Y163432D02*
G03*
X110278Y163766I-0J334D01*
G01*
X107543D02*
G03*
X107718Y163429I619J108D01*
G01*
X88735Y162557D02*
G03*
X89967Y163151I0J1575D01*
G01*
X75153Y161506D02*
G03*
X75862Y160798I709J0D01*
G01*
X75754Y162092D02*
G03*
X76142Y161460I709J0D01*
G01*
Y163389D02*
G03*
X75754Y162757I321J-632D01*
G01*
X76149Y157161D02*
G03*
X75762Y156529I321J-632D01*
G01*
X75870Y157823D02*
G03*
X75161Y157115I0J-709D01*
G01*
X80447Y163733D02*
G03*
X80665Y163950I0J217D01*
G01*
X78330Y163899D02*
G03*
X78531Y163499I505J2D01*
G01*
X110546Y164466D02*
G03*
X110178Y164834I-368J0D01*
G01*
X110278Y164474D02*
G03*
X109924Y164833I-356J2D01*
G01*
X107723Y164834D02*
G03*
X107547Y164496I473J-461D01*
G01*
X95905Y167400D02*
G03*
X95638Y167667I-267J0D01*
G01*
X97172D02*
G03*
X96905Y167400I0J-267D01*
G01*
Y170872D02*
G03*
X97172Y170605I267J0D01*
G01*
X95638D02*
G03*
X95905Y170872I0J267D01*
G01*
X89967Y165112D02*
G03*
X88735Y165706I-1233J-980D01*
G01*
X75764Y171695D02*
G03*
X76151Y171063I709J0D01*
G01*
X75163Y171110D02*
G03*
X75872Y170401I709J0D01*
G01*
X75753Y165502D02*
G03*
X76140Y164870I709J0D01*
G01*
Y166799D02*
G03*
X75753Y166167I321J-632D01*
G01*
X75861Y167461D02*
G03*
X75152Y166752I0J-709D01*
G01*
X80665Y164316D02*
G03*
X80448Y164533I-217J0D01*
G01*
X78495Y164781D02*
G03*
X78330Y164366I346J-377D01*
G01*
X101252Y175245D02*
G03*
X101252Y173026I404J-1110D01*
G01*
X101248Y175657D02*
G03*
X101248Y172614I408J-1521D01*
G01*
X88735Y172159D02*
G03*
X89967Y172754I0J1575D01*
G01*
X89752Y174333D02*
G03*
X89752Y173135I-1018J-599D01*
G01*
X89967Y174714D02*
G03*
X88735Y175309I-1233J-980D01*
G01*
X75871Y177065D02*
G03*
X75162Y176356I0J-709D01*
G01*
X76150Y176402D02*
G03*
X75763Y175771I321J-632D01*
G01*
Y175105D02*
G03*
X76150Y174474I709J0D01*
G01*
X76151Y172992D02*
G03*
X75764Y172361I321J-632D01*
G01*
X76163Y177595D02*
G03*
X75741Y178500I-1181J0D01*
G01*
X80665Y174320D02*
G03*
X80448Y174538I-217J0D01*
G01*
X80447Y173737D02*
G03*
X80665Y173954I0J217D01*
G01*
X78030Y174303D02*
G03*
X78397Y173336I4412J1120D01*
G01*
X78467Y174688D02*
G03*
X78531Y173403I1060J-592D01*
G01*
X78418Y174703D02*
G03*
X78030Y173970I767J-874D01*
G01*
X77030Y173470D02*
G03*
X76930Y174303I-88J412D01*
G01*
X117038Y180549D02*
G03*
X114913Y181473I-2261J-2293D01*
G01*
X78130Y181840D02*
G03*
X78661Y182087I-62J826D01*
G01*
X79254Y182337D02*
G03*
X78661Y182087I0J-828D01*
G01*
X79437Y181970D02*
G03*
X78844Y181720I0J-828D01*
G01*
X78314Y181473D02*
G03*
X78844Y181720I-62J826D01*
G01*
X76416D02*
G03*
X76947Y181473I593J579D01*
G01*
X76416Y181720D02*
G03*
X75823Y181970I-593J-579D01*
G01*
X76599Y182087D02*
G03*
X76007Y182337I-593J-579D01*
G01*
X76599Y182087D02*
G03*
X77130Y181840I593J579D01*
G01*
X97886Y28728D02*
G03*
X98280Y29122I0J394D01*
G01*
X97886Y29191D02*
G03*
X98280Y29584I0J394D01*
G01*
X94815Y28447D02*
G03*
X95346Y28979I0J532D01*
G01*
X95878Y29510D02*
G03*
X95346Y28979I0J-532D01*
G01*
X95898Y29191D02*
G03*
X95366Y28659I0J-532D01*
G01*
X94972Y28246D02*
G03*
X95366Y28639I0J394D01*
G01*
X95898Y28856D02*
G03*
X95490Y28666I0J-532D01*
G01*
X94929Y28249D02*
G03*
X95337Y28439I0J532D01*
G01*
X97487Y29510D02*
G03*
X98078Y30101I0J591D01*
G01*
X88324D02*
G03*
X88914Y29510I591J0D01*
G01*
X91065Y28439D02*
G03*
X91472Y28249I407J342D01*
G01*
X90911Y28666D02*
G03*
X90504Y28856I-407J-342D01*
G01*
X91035Y28639D02*
G03*
X91429Y28246I394J0D01*
G01*
X91035Y28659D02*
G03*
X90504Y29191I-532J0D01*
G01*
X91055Y28979D02*
G03*
X90524Y29510I-532J0D01*
G01*
X91055Y28979D02*
G03*
X91587Y28447I532J0D01*
G01*
X88122Y29584D02*
G03*
X88516Y29191I394J0D01*
G01*
X88122Y29122D02*
G03*
X88516Y28728I394J0D01*
G01*
X98078Y38044D02*
G03*
X97487Y38635I-591J0D01*
G01*
X95337Y39706D02*
G03*
X94929Y39896I-407J-342D01*
G01*
X95490Y39479D02*
G03*
X95898Y39289I407J342D01*
G01*
X95366Y39505D02*
G03*
X94972Y39899I-394J0D01*
G01*
X95366Y39486D02*
G03*
X95898Y38954I532J0D01*
G01*
X95346Y39166D02*
G03*
X95878Y38635I532J0D01*
G01*
X95346Y39166D02*
G03*
X94815Y39698I-532J0D01*
G01*
X98280Y38561D02*
G03*
X97886Y38954I-394J0D01*
G01*
X98280Y39023D02*
G03*
X97886Y39417I-394J0D01*
G01*
X88516D02*
G03*
X88122Y39023I0J-394D01*
G01*
X88516Y38954D02*
G03*
X88122Y38561I0J-394D01*
G01*
X91587Y39698D02*
G03*
X91055Y39166I0J-532D01*
G01*
X90524Y38635D02*
G03*
X91055Y39166I0J532D01*
G01*
X90504Y38954D02*
G03*
X91035Y39486I0J532D01*
G01*
X91429Y39899D02*
G03*
X91035Y39505I0J-394D01*
G01*
X90504Y39289D02*
G03*
X90911Y39479I0J532D01*
G01*
X91472Y39896D02*
G03*
X91065Y39706I0J-532D01*
G01*
X88914Y38635D02*
G03*
X88324Y38044I0J-591D01*
G01*
X94811Y34072D02*
G03*
X94811Y34072I-1610J0D01*
G01*
X97296D02*
G03*
X97296Y34072I-4095J0D01*
G01*
X134352Y75984D02*
G03*
X134352Y75984I-3643J0D01*
G01*
X134646D02*
G03*
X134646Y75984I-3937J0D01*
G01*
X134057D02*
G03*
X134057Y75984I-3348J0D01*
G01*
X132392Y77347D02*
G03*
X129026Y77347I-1683J-1363D01*
G01*
Y74621D02*
G03*
X132392Y74621I1683J1363D01*
G01*
X131693Y75984D02*
G03*
X131693Y75984I-984J0D01*
G01*
X135827Y79724D02*
G03*
X134449Y81102I-1378J-0D01*
G01*
X134449Y70866D02*
G03*
X135827Y72244I-0J1378D01*
G01*
X126969Y81102D02*
G03*
X125591Y79724I0J-1378D01*
G01*
Y72244D02*
G03*
X126969Y70866I1378J0D01*
G01*
X111759Y62013D02*
Y63791D01*
Y62013D02*
Y63791D01*
X107436Y63795D02*
X108032D01*
Y62007D02*
Y63795D01*
X107436Y62007D02*
X108032D01*
X107436D02*
Y62404D01*
Y63398D02*
Y63795D01*
Y63398D02*
Y63795D01*
X108032Y62007D02*
Y63795D01*
X107436Y62007D02*
X108032D01*
X107436D02*
Y62404D01*
Y63398D02*
Y63795D01*
X117270Y62405D02*
X117671D01*
X117075Y62209D02*
Y63594D01*
X117270Y63398D02*
X117671D01*
Y62405D02*
Y63398D01*
X117270Y62405D02*
X117671D01*
X117075Y62209D02*
Y63594D01*
X117270Y63398D02*
X117671D01*
Y62405D02*
Y63398D01*
X109986Y57933D02*
X110781D01*
X109986D02*
Y58330D01*
X110284Y58496D02*
X110649Y58330D01*
X110284Y58496D02*
X110649Y58330D01*
X110781Y57933D02*
Y58131D01*
Y57933D02*
Y58131D01*
X109986Y57933D02*
Y58330D01*
X110284Y58496D02*
X110649Y58330D01*
X110781Y57933D02*
Y58131D01*
X114325Y57933D02*
X115120D01*
Y58330D01*
X114458D02*
X114822Y58496D01*
X114458Y58330D02*
X114822Y58496D01*
X114325Y57933D02*
Y58131D01*
Y57933D02*
Y58131D01*
X115120Y57933D02*
Y58330D01*
X114458D02*
X114822Y58496D01*
X114325Y57933D02*
Y58131D01*
X109986Y67870D02*
X110781D01*
X109986Y67472D02*
Y67870D01*
X110284Y67307D02*
X110649Y67472D01*
X110284Y67307D02*
X110649Y67472D01*
X110781Y67671D02*
Y67870D01*
Y67671D02*
Y67870D01*
X109986Y67472D02*
Y67870D01*
X110284Y67307D02*
X110649Y67472D01*
X110781Y67671D02*
Y67870D01*
X114325D02*
X115120D01*
Y67472D02*
Y67870D01*
X114458Y67472D02*
X114822Y67307D01*
X114458Y67472D02*
X114822Y67307D01*
X114325Y67671D02*
Y67870D01*
Y67671D02*
Y67870D01*
X115120Y67472D02*
Y67870D01*
X114458Y67472D02*
X114822Y67307D01*
X114325Y67671D02*
Y67870D01*
X107635D02*
X117473D01*
Y64988D02*
Y67870D01*
X117075Y61206D02*
Y64597D01*
Y61206D02*
Y64597D01*
X117473Y57933D02*
Y60815D01*
X107635Y57933D02*
X117473D01*
X107635D02*
Y59920D01*
X108032Y60312D02*
Y65491D01*
Y60312D02*
Y65491D01*
X107635Y65882D02*
Y67870D01*
Y65882D02*
Y67870D01*
X117473Y64988D02*
Y67870D01*
X117075Y61206D02*
Y64597D01*
X117473Y57933D02*
Y60815D01*
X107635Y57933D02*
X117473D01*
X107635D02*
Y59920D01*
X108032Y60312D02*
Y65491D01*
X107635Y65882D02*
Y67870D01*
X76163Y145624D02*
Y177605D01*
X74195Y160097D02*
Y168134D01*
X74695Y160097D02*
Y168134D01*
X114546Y180940D02*
X119081Y177705D01*
X128152Y151827D02*
Y158030D01*
X128919Y151827D02*
Y158030D01*
X129719Y152694D02*
Y158230D01*
X128919Y147792D02*
Y149258D01*
X128152Y147792D02*
Y148859D01*
X129519Y139888D02*
Y143023D01*
X129786Y139888D02*
Y142856D01*
X129986Y139888D02*
Y142856D01*
X130120Y139888D02*
Y142856D01*
X130320Y139887D02*
Y140655D01*
X130687Y138988D02*
Y140289D01*
X129719Y139888D02*
Y140541D01*
X116114Y155462D02*
Y157396D01*
X101252Y155238D02*
Y156244D01*
X99773Y138988D02*
Y146091D01*
X75161Y151870D02*
Y157115D01*
X75762Y155863D02*
Y156524D01*
X74962Y139222D02*
Y140422D01*
X78130Y138988D02*
Y146091D01*
X78164Y156062D02*
X78864Y155895D01*
X78130Y156062D02*
X78797Y155895D01*
X74195Y147992D02*
Y158530D01*
X74695Y150360D02*
Y158530D01*
Y145691D02*
Y147992D01*
Y148359D01*
X74195Y147992D02*
X74695D01*
X74195Y139222D02*
Y140422D01*
X128152Y162365D02*
Y180373D01*
X128919Y162365D02*
Y180373D01*
X124584Y177705D02*
Y180740D01*
X123017Y179306D02*
Y180940D01*
X123617Y177705D02*
Y180873D01*
X129719Y170035D02*
Y175537D01*
X119081Y179372D02*
Y180940D01*
X119682Y179372D02*
Y180940D01*
X117047Y180540D02*
X119682Y177905D01*
X117714Y179372D02*
Y180940D01*
X117981Y179372D02*
Y180940D01*
X116514Y179539D02*
Y180940D01*
X116114Y172088D02*
X118082D01*
X107343Y163365D02*
Y164899D01*
X107543Y163816D02*
Y164466D01*
X110545Y163832D02*
Y164427D01*
X110278Y163770D02*
Y164474D01*
X101252Y172019D02*
Y173026D01*
X103475Y162980D02*
Y165293D01*
X103208Y162632D02*
Y165628D01*
X94738Y170205D02*
Y172006D01*
X88376Y171799D02*
X88735Y172159D01*
Y171569D02*
Y172159D01*
X75764Y171701D02*
Y172362D01*
X75162Y171111D02*
Y176356D01*
X75152Y161507D02*
Y166752D01*
X77530Y163132D02*
Y165133D01*
X77630Y163199D02*
Y165066D01*
X80665Y163950D02*
Y164299D01*
X80031Y163732D02*
Y164532D01*
X79097Y163732D02*
Y164532D01*
X78330Y163899D02*
Y164366D01*
X74195Y169735D02*
Y182340D01*
X74695Y169735D02*
Y177905D01*
X101541Y138221D02*
X119483D01*
X101541Y138988D02*
X119081D01*
X97039Y137421D02*
X104508D01*
X102474Y146224D02*
X107476D01*
X102774Y146792D02*
X108644D01*
X97039Y183107D02*
X104508D01*
X85000Y181540D02*
X108043D01*
X85000Y182340D02*
X108043D01*
X116314Y137421D02*
X125785D01*
X121683Y138221D02*
X123018D01*
X122216Y138621D02*
X123018D01*
X122316Y138755D02*
X123018D01*
X122316Y139088D02*
X123017D01*
X122216Y139188D02*
X122783D01*
X122216Y139388D02*
X123017D01*
X122817Y139155D02*
Y139321D01*
Y139155D02*
X123017D01*
X122216Y139288D02*
X123017D01*
X122216Y139388D02*
X123017D01*
X122216Y139188D02*
X122783D01*
X122316Y139088D02*
X122817D01*
X83632Y138221D02*
X99973D01*
X80865Y138421D02*
X83233D01*
X82699Y138221D02*
X83633D01*
X78130Y138988D02*
X99975D01*
X74695Y138755D02*
X76163D01*
X74195Y138221D02*
X75963D01*
Y137421D02*
X87368D01*
X82632Y138188D02*
X82899Y138421D01*
X74195Y139222D02*
X76163D01*
X74695Y138755D02*
X75096Y139155D01*
X104308Y147558D02*
X123417D01*
X107076Y146224D02*
X125284D01*
X103141Y142823D02*
X124584D01*
X104342Y145024D02*
X106943D01*
X103141Y143623D02*
X124584D01*
X106676Y143957D02*
X111011D01*
X113646Y146792D02*
X119632D01*
X112145D02*
X116514D01*
X114546Y143957D02*
X114913Y143623D01*
X114546Y145224D02*
X115147Y145824D01*
X114546Y145224D02*
X117514D01*
X114546Y143957D02*
X117514D01*
X121950Y143790D02*
X124084D01*
X105342Y144157D02*
X107443D01*
X106276Y143990D02*
X107076D01*
X114746Y144824D02*
X114946D01*
X114746Y144357D02*
X114946D01*
X74695Y145691D02*
X75096Y146091D01*
X74195Y143390D02*
X74963D01*
X74195Y140422D02*
X75362D01*
X74195Y144557D02*
X75097D01*
X78897Y145224D02*
X93237D01*
X78130Y146091D02*
X99773D01*
X78897Y143757D02*
X86601D01*
X80198Y145024D02*
X83033D01*
X80298Y145824D02*
X92503D01*
X80298Y146391D02*
X92503D01*
X95638Y146025D02*
X98806D01*
X85600Y140389D02*
X98406D01*
X98806Y146792D02*
X99573D01*
X98806Y145423D02*
Y146792D01*
X80665Y143757D02*
X93104Y144857D01*
X87501Y141222D02*
X93937Y142223D01*
X86601Y143757D02*
X91936D01*
X95638Y143223D02*
X99573D01*
X96838Y143390D02*
X99573D01*
X95638Y145424D02*
X98806D01*
X94904Y145224D02*
X99573D01*
X96505Y143957D02*
X99173D01*
X98806Y146224D02*
X99573D01*
X98806Y145824D02*
X99173D01*
X89002Y145024D02*
X93170D01*
X89535Y144491D02*
X93070Y144757D01*
X81032Y143757D02*
X84566Y144057D01*
X82366Y143957D02*
X83399D01*
X122616Y150927D02*
X125384D01*
X122016Y151927D02*
X123817D01*
X122016Y153094D02*
X123817D01*
X122616Y151727D02*
X125384D01*
X122016Y155262D02*
X125985D01*
X74562Y150026D02*
X74796D01*
Y148359D02*
Y150026D01*
X74862Y148359D02*
Y150360D01*
X74695Y148359D02*
X75563D01*
X74695Y150360D02*
X75563D01*
X74695Y158530D02*
X74929D01*
X74695Y160097D02*
X74929D01*
X74695Y169735D02*
X74929D01*
X74695Y168134D02*
X74929D01*
X119682Y178105D02*
X123017D01*
X120049Y179306D02*
X123017D01*
X119682Y178905D02*
X123017D01*
X74562Y178238D02*
X74796D01*
Y179306D01*
X74695Y177905D02*
X75563D01*
X74862D02*
Y179272D01*
X74825Y179309D02*
X75741Y178500D01*
X114546Y181640D02*
X121649D01*
X122416D02*
X125251D01*
X119682Y180940D02*
X123017D01*
X114546Y181473D02*
X121649D01*
X114546Y181773D02*
X121649D01*
X114546Y182340D02*
X128919D01*
X81865Y182140D02*
X84233D01*
X82466Y182374D02*
X83633D01*
X75963Y183107D02*
X87368D01*
X74195Y182340D02*
X75763D01*
X74195Y181540D02*
X75763D01*
X129519Y139888D02*
X130687D01*
X129920Y138988D02*
Y139888D01*
X130687Y138221D02*
Y138988D01*
X129519Y138221D02*
X130687D01*
X129519Y138988D02*
X130687D01*
X125785Y137421D02*
Y138221D01*
X123017D02*
X129519D01*
X123017Y138988D02*
X129519D01*
Y138222D02*
Y138990D01*
X123017Y138222D02*
Y139388D01*
X122883Y138888D02*
X123017D01*
X122883Y138755D02*
Y138888D01*
X122616Y138221D02*
Y138621D01*
X122216Y138755D02*
X122316D01*
Y139088D01*
X122216Y138421D02*
Y139388D01*
Y139088D02*
X122316D01*
X122216Y139321D02*
X122550D01*
X119882Y138421D02*
X122216D01*
X121649Y138188D02*
X121883Y138421D01*
X120449Y138188D02*
X121649D01*
X120215Y138421D02*
X120449Y138188D01*
X119482Y138221D02*
X120415D01*
X119482D02*
Y138621D01*
X117814Y138988D02*
X119081D01*
Y138222D02*
Y139388D01*
X119182Y138755D02*
Y138888D01*
X119081D02*
X119182D01*
X119882Y138421D02*
Y139388D01*
X119081Y139088D02*
X119782D01*
X119081Y138755D02*
X119880D01*
X119081Y138621D02*
X119882D01*
X119782Y138755D02*
Y139088D01*
X116314Y137421D02*
Y138221D01*
X119081Y139388D02*
X119882D01*
X119315Y139188D02*
X119882D01*
X119682Y139321D02*
X119882D01*
X119282Y139155D02*
Y139321D01*
X119081Y139388D02*
X119849D01*
X119548Y139321D02*
X119849D01*
X119081Y139288D02*
X119849D01*
X119081Y139155D02*
X119282D01*
Y139188D02*
X119849D01*
X119782Y139088D02*
X119849D01*
X119081D02*
X119782D01*
X104508Y137421D02*
Y138221D01*
X99973D02*
X101541D01*
Y138222D02*
Y139388D01*
X99973Y138222D02*
Y139388D01*
Y138621D02*
X101541D01*
X99973Y138755D02*
X101541D01*
X99973Y138888D02*
X101541D01*
X99973Y139088D02*
X101541D01*
X99973Y139188D02*
X100807D01*
X101207D02*
X101541D01*
X99973Y139288D02*
X101541D01*
X99973Y139388D02*
X101541D01*
X99673Y138988D02*
X99773Y139088D01*
X97039Y137421D02*
Y138221D01*
X87368Y137421D02*
Y138221D01*
X84033Y138222D02*
Y139388D01*
X83233Y138421D02*
Y139388D01*
X83231Y138755D02*
X84034D01*
X83231Y138621D02*
X84034D01*
X83633Y138221D02*
Y138621D01*
X83333Y139088D02*
X83833D01*
X83233Y139188D02*
X83799D01*
X83233Y139388D02*
X84033D01*
X83333Y138755D02*
Y139088D01*
X83833Y138755D02*
Y139088D01*
X83233Y139288D02*
X84033D01*
X83833Y139155D02*
X84033D01*
X83833D02*
Y139321D01*
X76163Y138221D02*
X80098D01*
X75963Y137421D02*
Y138755D01*
X80865Y138421D02*
Y139388D01*
X80098Y138221D02*
Y139388D01*
Y138221D02*
X80465D01*
X81432D01*
X81465Y138188D02*
X82632D01*
X81232Y138421D02*
X81465Y138188D01*
X75096Y139155D02*
X76163D01*
X75096D02*
Y139222D01*
X76163Y138222D02*
Y139222D01*
Y138988D02*
X80098D01*
X80097Y138621D02*
X80865D01*
X80198Y138755D02*
Y138888D01*
X80098D02*
X80198D01*
X80098Y138755D02*
X80198D01*
X80798D01*
X80865D01*
X80798D02*
Y139088D01*
X80098D02*
X80798D01*
X80865D01*
X80298Y139188D02*
X80865D01*
X80098Y139155D02*
X80298D01*
X80098Y139288D02*
X80865D01*
X80565Y139321D02*
X80865D01*
X80098Y139388D02*
X80865D01*
X80465Y138221D02*
Y138621D01*
X80298Y139155D02*
Y139321D01*
X74695Y138755D02*
Y139222D01*
X74195Y138221D02*
Y139222D01*
X127752Y147792D02*
X128920D01*
X127752Y146992D02*
Y147792D01*
X128019Y147325D02*
Y147792D01*
X128419Y144757D02*
Y147792D01*
X128919Y147659D02*
Y147792D01*
Y147659D02*
X130687D01*
Y144224D02*
Y147659D01*
X129719Y144757D02*
Y145157D01*
X128819Y146958D02*
X129719Y145157D01*
X128419Y146958D02*
X128819D01*
X128019Y144757D02*
Y147325D01*
X127819Y147125D02*
X128019Y147325D01*
X127752D02*
X128019D01*
X127752Y147125D02*
X127819D01*
Y146992D02*
Y147125D01*
X127752Y146992D02*
X127952D01*
Y145024D02*
Y146992D01*
X127752Y145024D02*
X127952D01*
X127819Y144957D02*
Y145024D01*
X127752Y144957D02*
X127819D01*
X127752Y144224D02*
Y145024D01*
X127819Y144957D02*
X128019Y144757D01*
X127752D02*
X128019D01*
X129719D01*
X127752Y144224D02*
X130687D01*
X129719Y144757D02*
X129786Y144657D01*
Y144224D02*
Y144657D01*
X130120Y144357D01*
X129519Y144224D02*
Y144757D01*
X130120Y144224D02*
Y144357D01*
X129920Y143023D02*
Y144224D01*
X130687Y142655D02*
Y144224D01*
Y141823D02*
Y142656D01*
Y141056D02*
Y141823D01*
X130120Y142423D02*
X130687Y141823D01*
X130120Y140455D02*
X130687Y141056D01*
X130320Y142223D02*
Y143021D01*
Y142656D02*
X130687D01*
X129519Y143023D02*
X130687D01*
X129519Y142623D02*
X129786D01*
X129519Y142023D02*
X129786D01*
Y142856D02*
Y143023D01*
Y142856D02*
X129986D01*
X130120D01*
Y143023D01*
X130320Y140289D02*
X130687D01*
Y141056D01*
X129519Y140422D02*
X129719D01*
X124584Y143990D02*
Y147158D01*
Y143990D02*
X125384D01*
Y142423D02*
Y145591D01*
X124584Y143223D02*
X125384Y143623D01*
X124584Y142423D02*
Y143624D01*
Y142423D02*
X125384D01*
X114946Y143623D02*
Y143990D01*
Y146224D01*
X115147Y145824D02*
X117514D01*
X115747Y143990D02*
Y146224D01*
X114913Y145024D02*
X117514D01*
X115413Y144157D02*
X117514D01*
X114946Y143990D02*
X115747D01*
X118281D01*
X117881Y143623D02*
Y143990D01*
Y146224D01*
X117714Y144357D02*
Y144824D01*
X117514Y145824D02*
Y146224D01*
X118281Y143990D02*
Y146491D01*
X118481Y143990D02*
Y146625D01*
X118681Y143990D02*
Y146224D01*
Y143990D02*
X121249D01*
X117881D02*
X118681D01*
X119015Y143790D02*
X121116D01*
X121249Y143990D02*
Y146491D01*
Y143990D02*
X121449D01*
Y146625D01*
X121649Y143990D02*
Y147558D01*
Y143990D02*
X122416D01*
Y143624D02*
Y147558D01*
X117714Y144824D02*
X117881Y144821D01*
X117714Y144357D02*
X117864D01*
X117514Y145024D02*
Y145224D01*
X117502Y143957D02*
X117514Y144157D01*
X109611Y143957D02*
X113946D01*
X112445Y144157D02*
X114546D01*
X111411D02*
X112412D01*
X110444D02*
X111445D01*
X108310D02*
X110411D01*
X107310Y145024D02*
X109911D01*
X109944D02*
X110945D01*
X110911D02*
X111912D01*
X111945D02*
X114546D01*
X110945Y145224D02*
X114546D01*
X109477D02*
X111612D01*
X108944D02*
X109944D01*
X107476D02*
X108477D01*
X108143Y146792D02*
X109144D01*
X109644D02*
X110644D01*
X110144D02*
X111145D01*
X111645D02*
X112645D01*
X111612Y145224D02*
X112179Y145824D01*
X114546D01*
X111612Y143957D02*
X111945Y143623D01*
X111011D02*
Y143957D01*
X113946Y143623D02*
Y143957D01*
X111612D02*
X114546D01*
Y145824D02*
Y146224D01*
X114746Y144357D02*
Y144824D01*
X109611Y143623D02*
Y143957D01*
X106943Y145224D02*
X107943D01*
X107076Y143990D02*
Y147558D01*
Y143623D02*
Y143990D01*
X108310Y143957D02*
Y144157D01*
X107310Y145024D02*
Y145214D01*
X114546Y145024D02*
Y145224D01*
Y143957D02*
Y144157D01*
X99573Y141556D02*
Y146792D01*
X102341Y142790D02*
X103141D01*
X102341Y142423D02*
X103141D01*
X102341D02*
Y145591D01*
X103141Y142423D02*
Y143624D01*
X102341Y143223D02*
X103141D01*
X102408Y143690D02*
X103708Y144791D01*
X102441Y143957D02*
X103575Y144957D01*
X102341Y143890D02*
X102441Y143957D01*
X102341D02*
X104642D01*
X102941Y143990D02*
X103141D01*
X102341D02*
X102941D01*
Y146491D01*
X103141Y143990D02*
Y146625D01*
X102341Y145224D02*
X105942D01*
X105476D02*
X106476D01*
X106676Y143623D02*
Y143957D01*
X104707D02*
X106676D01*
X106276Y143990D02*
Y147558D01*
X105376Y143690D02*
X106676Y144791D01*
X103641Y143790D02*
X105742D01*
X102408Y143690D02*
X103075Y142890D01*
X99173Y145824D02*
Y146224D01*
X104709Y143957D02*
Y145222D01*
X102341Y145024D02*
X104709D01*
X104342D02*
Y145222D01*
X102841Y142423D02*
X103141Y142690D01*
X103565Y144968D02*
X103733Y144803D01*
X105357Y143964D02*
Y144157D01*
X105409Y143957D02*
X106543Y144957D01*
X105022Y143623D02*
X105417Y143964D01*
X104914Y143623D02*
Y143790D01*
X106533Y144949D02*
X106676Y144791D01*
X92503Y145825D02*
Y146792D01*
X95638D01*
Y145423D02*
Y146792D01*
X94271Y146224D02*
X95638D01*
X93704Y145924D02*
X94271Y146224D01*
X92503D02*
X94271D01*
Y145924D02*
Y146224D01*
X93537Y145924D02*
X94904D01*
Y143222D02*
Y145924D01*
Y143824D02*
X98127Y144116D01*
X94904Y143723D02*
X97105Y143890D01*
X94904Y145224D02*
X96238D01*
X94904Y143223D02*
X95638D01*
X94904Y143323D02*
X97139D01*
X98406Y143957D02*
Y145024D01*
X95538D02*
X98406D01*
X94904Y144924D02*
X97005Y145091D01*
X94904Y145024D02*
X97005Y145191D01*
X94904Y144857D02*
X96305Y145224D01*
X94904Y145024D02*
X96338D01*
X96438Y145224D02*
Y145424D01*
X96238Y145224D02*
X96438Y145424D01*
X93037Y144557D02*
X93537Y145924D01*
X93003Y144557D02*
X93504Y145924D01*
X83033Y143957D02*
Y145222D01*
Y145024D02*
X86401D01*
X86380D02*
X88335D01*
X86380Y144260D02*
Y145222D01*
X86601Y141222D02*
Y143757D01*
X86000Y141222D02*
Y143757D01*
X86601Y141222D02*
X87501D01*
X85200Y140722D02*
X87301D01*
X85600Y141222D02*
X86601D01*
X87768Y140655D02*
X89135D01*
X89335D01*
X89135Y140389D02*
Y140655D01*
X89335Y140389D02*
Y140655D01*
Y141489D01*
X87768Y140389D02*
Y140655D01*
X87568D02*
X87768D01*
X87568Y140389D02*
Y140655D01*
X87534Y144324D02*
X88535Y144390D01*
X87801Y144324D02*
X88335Y144791D01*
X87468Y144290D02*
X88235Y144957D01*
X89002Y145025D02*
Y145224D01*
X88243Y144916D02*
X88335Y144824D01*
X85200Y140889D02*
X85467Y140722D01*
X85273Y140562D02*
X85425Y140713D01*
X74962Y143390D02*
Y144557D01*
X75096D02*
Y146091D01*
X75196Y146224D02*
X76163D01*
X75096Y146091D02*
X75196Y146224D01*
X74962Y144557D02*
X75029D01*
X74962Y143390D02*
X75362D01*
X75096Y140422D02*
Y143390D01*
X75362Y140822D02*
Y142990D01*
Y143190D01*
Y143390D01*
Y140622D02*
Y140822D01*
Y140422D02*
Y140622D01*
X78130Y146792D02*
X80298D01*
X75362Y143190D02*
X76930D01*
X75362Y142990D02*
X76930D01*
X75362Y140822D02*
X76930D01*
X75362Y140622D02*
X76930D01*
Y140822D01*
Y142990D02*
Y143190D01*
X77730Y141589D02*
Y142190D01*
X77930Y141589D02*
Y142190D01*
X77730D02*
X77930D01*
X77730Y141589D02*
X77930D01*
X78130Y144557D02*
Y146792D01*
X80298Y145825D02*
Y146792D01*
X78130Y146224D02*
X78897D01*
X78130D02*
X79898D01*
X80298D01*
X78130Y145824D02*
X78897Y146224D01*
X78130Y145224D02*
X78897D01*
Y146224D01*
Y145624D02*
X79164Y145324D01*
X79631Y145724D01*
X78897Y145624D02*
X79364Y146025D01*
X79631Y145724D01*
X79031Y143757D02*
Y144724D01*
X78697Y143790D02*
Y144324D01*
X78997Y144724D02*
X80965Y145224D01*
X79898Y145824D02*
X80298D01*
X79898D02*
Y146224D01*
X82065Y143957D02*
X82366D01*
X80965Y143757D02*
X81732Y143957D01*
X82065D01*
X81432Y143790D02*
X82065Y143957D01*
X74695Y144557D02*
Y145691D01*
X74362Y147192D02*
X74695D01*
X74362Y145224D02*
Y147192D01*
Y145224D02*
X74695D01*
X74262Y146792D02*
X74362D01*
X74195Y144557D02*
Y146792D01*
Y143390D02*
Y144557D01*
Y142990D02*
X74562D01*
Y142856D02*
Y143392D01*
X74229Y140889D02*
Y142856D01*
X74695D01*
X74195Y140423D02*
Y143392D01*
X74229Y140889D02*
X74695D01*
X74195Y140822D02*
X74562D01*
X74695Y140422D02*
Y143390D01*
X74562Y140423D02*
Y140889D01*
X125384Y150526D02*
Y151727D01*
X123817D02*
Y153094D01*
Y151727D02*
Y152961D01*
X125384Y150526D02*
X125985D01*
X125785D02*
Y155262D01*
X125985Y150526D02*
Y155262D01*
X124047Y152882D02*
X124117Y153194D01*
X128919Y152694D02*
X129719D01*
X127752Y148859D02*
Y151827D01*
X128920D01*
X128919Y149359D02*
Y151829D01*
X128419Y148860D02*
Y151727D01*
X127952Y148959D02*
Y151727D01*
X128319Y148959D02*
Y151727D01*
X128419Y151327D02*
X128852D01*
Y149359D02*
Y151327D01*
X128419Y149359D02*
X128852D01*
X128519Y151427D02*
X128919D01*
X128519Y151327D02*
Y151829D01*
X127752Y151727D02*
X128419D01*
Y151827D01*
X128019Y148959D02*
X128419D01*
X127752D02*
X128019D01*
Y148859D02*
Y148959D01*
X127752Y148859D02*
X128920D01*
X128519Y148860D02*
Y149359D01*
Y149259D02*
X128919D01*
Y149359D01*
X122350Y150526D02*
X122416Y150593D01*
Y150526D02*
Y150593D01*
X122016D02*
X122416D01*
X122616Y150526D02*
Y150927D01*
X122016Y150526D02*
X122616D01*
X122016Y150726D02*
X122616D01*
X122016Y151327D02*
X122616D01*
X122016Y150526D02*
Y155262D01*
X122616Y150943D02*
Y155262D01*
X122016Y152527D02*
X122616D01*
X122016Y152294D02*
X122616D01*
X116514Y155062D02*
X117514D01*
Y154295D02*
Y155462D01*
X118081D01*
Y154428D02*
Y155462D01*
X118481D01*
X117514Y154295D02*
X117681Y154095D01*
X115880Y154295D02*
X117514D01*
X115013Y155128D02*
X115813Y154361D01*
X115747Y155462D02*
X115980Y155662D01*
X115747Y155962D02*
X115980Y155662D01*
X115480Y155795D02*
X115747Y155462D01*
X103208Y152628D02*
Y155624D01*
X103475Y152976D02*
Y155289D01*
X101252Y152012D02*
Y153018D01*
X89752Y153930D02*
X90534D01*
X89967Y153549D02*
X90534D01*
X88376Y152395D02*
Y152594D01*
X88735Y152364D02*
Y152954D01*
X89335Y152659D02*
X89829D01*
X89335Y152447D02*
Y152659D01*
X90534Y153324D02*
Y153930D01*
Y153726D02*
X90746D01*
X89752Y155129D02*
X89967Y155510D01*
X89752Y155129D02*
X90534D01*
X89967Y155510D02*
X90534D01*
X88376Y152594D02*
X88735Y152954D01*
X89752Y153930D02*
X89967Y153549D01*
X90534Y155129D02*
Y155734D01*
Y155332D02*
X90746D01*
X75029Y148359D02*
Y150360D01*
X75229Y148359D02*
Y150360D01*
X75563Y148359D02*
Y150360D01*
X75763Y152459D02*
Y153121D01*
X75871Y151160D02*
X76163D01*
X78864Y153128D02*
X80798D01*
Y152794D02*
Y153128D01*
X78364Y152360D02*
X80331D01*
X78164Y152194D02*
X78831Y152360D01*
X77997Y152260D02*
X78364Y152360D01*
X77497Y152794D02*
X78797Y153128D01*
X77563Y152794D02*
X78864Y153128D01*
X77563Y152627D02*
Y152794D01*
X77397D02*
X77497D01*
X78797Y153128D02*
X78864D01*
Y155895D02*
X80331D01*
X77530Y153361D02*
Y155362D01*
X77630Y153394D02*
Y155295D01*
X77430Y155495D02*
X77663Y155362D01*
X77363Y155429D02*
X77530Y155362D01*
X77663D01*
X77763Y155329D01*
X77830Y155295D01*
X77530Y155362D02*
X77597Y155329D01*
X77630Y155295D01*
X78030Y155028D01*
X77830Y155295D02*
X78531Y154862D01*
X77630Y155295D02*
X77830D01*
X77130Y153261D02*
X77663Y153361D01*
X77097Y153294D02*
X77530Y153361D01*
X77597Y153394D02*
X77630D01*
X77530Y153361D02*
X77597Y153394D01*
X77530Y153361D02*
X77663D01*
X77630Y153394D02*
X78030Y153494D01*
X77630Y153394D02*
X77830D01*
X77763D02*
X77830D01*
X77663Y153361D02*
X77763Y153394D01*
X77830D02*
X78531Y153594D01*
X80665Y153946D02*
Y154295D01*
X80031Y153728D02*
Y154528D01*
X79097Y153728D02*
X80431D01*
X79097D02*
Y154528D01*
X78997D02*
X80465D01*
X78531Y154862D02*
X78997Y154528D01*
X78531Y153594D02*
X79097Y153728D01*
X78330Y153961D02*
Y154361D01*
X78030Y154295D02*
Y155028D01*
Y154462D02*
X78197D01*
Y154962D01*
X78297Y154628D02*
Y154928D01*
X78030Y153494D02*
Y153961D01*
X78197Y153561D02*
Y153795D01*
X78030Y153761D02*
X78197D01*
X78330Y154728D02*
X78397Y154928D01*
X78312Y154728D02*
X78697D01*
X77995Y155052D02*
X78264Y154899D01*
X80798Y153128D02*
X81006Y153128D01*
X74562Y150026D02*
Y150360D01*
Y148359D02*
Y150026D01*
Y150360D02*
X74695D01*
X74562Y148359D02*
X74695D01*
X127619Y158030D02*
Y162365D01*
X127952Y158030D02*
Y162365D01*
X124017D02*
X128920D01*
X124017Y161565D02*
Y162365D01*
X124384Y158797D02*
Y161565D01*
X124017Y158797D02*
X125183D01*
X124017Y158030D02*
Y158797D01*
X128919Y158030D02*
Y162365D01*
X124017Y161565D02*
X125183D01*
X124017Y158030D02*
X128920D01*
X125184Y158797D02*
Y161565D01*
X128519Y158030D02*
Y162365D01*
X125584Y158030D02*
Y162365D01*
X128919Y158230D02*
X129719D01*
X127952D02*
X128519D01*
X124317Y158530D02*
Y158797D01*
X124384Y158497D02*
Y158797D01*
X124017Y158063D02*
X124384Y158497D01*
X124351D02*
X124384D01*
X124317Y158530D02*
X124351Y158497D01*
X124017Y158163D02*
X124317Y158530D01*
X124017Y158697D02*
X124084Y158797D01*
X124017Y158530D02*
X124084Y158030D01*
X124050D02*
X124084D01*
X124484Y158463D01*
Y158797D01*
X124451Y158463D02*
Y158797D01*
X124084Y158030D02*
X124451Y158463D01*
X117247Y157363D02*
X118014Y156562D01*
X109110Y162565D02*
X110611D01*
X108010Y162265D02*
X109110Y162565D01*
X107110Y163299D02*
X107343Y163365D01*
X107143Y163265D02*
X107443Y163365D01*
X107543Y163432D02*
X110207D01*
X107143Y163232D02*
X107610Y163365D01*
X107143Y163232D02*
X107643Y163332D01*
X107628Y163329D02*
X107880Y163432D01*
X107369Y163364D02*
X107543Y163432D01*
X101252Y162015D02*
Y163022D01*
X89752Y163532D02*
X90534D01*
X89967Y163151D02*
X90534D01*
X88376Y161998D02*
Y162196D01*
X88735Y161966D02*
Y162557D01*
X89335Y162262D02*
X89829D01*
X89335Y162049D02*
Y162262D01*
X90534Y162927D02*
Y163532D01*
Y163329D02*
X90746D01*
X88376Y162196D02*
X88735Y162557D01*
X89752Y163532D02*
X89967Y163151D01*
X88376Y156465D02*
X88735Y156104D01*
X88376Y156465D02*
Y156663D01*
X88735Y156104D02*
Y156695D01*
X89335Y156399D02*
X89829D01*
X89335D02*
Y156612D01*
X76063Y158530D02*
Y160097D01*
X75663Y158530D02*
Y160097D01*
X75463Y158530D02*
Y160097D01*
X75096D02*
X76063D01*
X75096Y158530D02*
X76063D01*
X75096D02*
Y160097D01*
X74929Y158530D02*
Y160097D01*
X75754Y162097D02*
Y162758D01*
X75862Y160798D02*
X76154D01*
X75870Y157823D02*
X76162D01*
X77697Y162465D02*
X78797Y162765D01*
X77730Y162465D02*
X78864Y162765D01*
X78797D02*
X78864D01*
X80765D01*
X77263Y162998D02*
X77663Y163132D01*
X77230Y163032D02*
X77530Y163132D01*
X77663D01*
X77763Y163165D02*
X77830Y163199D01*
X77663Y163132D02*
X77763Y163165D01*
X77597D02*
X77630Y163199D01*
X77530Y163132D02*
X77597Y163165D01*
X77630Y163199D02*
X78030Y163365D01*
X77630Y163199D02*
X77830D01*
X78531Y163499D01*
X79097Y163732D02*
X80431D01*
X78531Y163499D02*
X79097Y163732D01*
X78030Y163365D02*
X78664Y163549D01*
X78030Y163365D02*
Y163966D01*
Y163766D02*
X78197D01*
Y163432D02*
Y163832D01*
X78297Y163465D02*
Y163665D01*
X74195Y156629D02*
Y161631D01*
X74429Y158530D02*
Y160097D01*
X74195Y158530D02*
X74695D01*
X74195Y160097D02*
X74695D01*
X128919Y170035D02*
X129719D01*
X116114Y166183D02*
X118082D01*
X119682Y166661D02*
Y171602D01*
X120049Y168067D02*
Y171335D01*
X118881Y166900D02*
X120049Y168067D01*
X118615Y166233D02*
X118881Y166900D01*
X120049Y169268D02*
X121006D01*
X120049Y169235D02*
X121006D01*
X108010Y166000D02*
X109110Y165700D01*
X110611D01*
X107110Y164966D02*
X107343Y164899D01*
X107143Y164999D02*
X107443Y164899D01*
X107143Y165033D02*
X107610Y164899D01*
X107210Y165033D02*
X107829Y164834D01*
X107510Y164833D02*
X110211D01*
X110311Y164132D02*
X110545D01*
X101252Y165242D02*
Y166248D01*
X94738Y166267D02*
Y168067D01*
X98181D01*
X94738Y167667D02*
X95638D01*
X95905Y167067D02*
X96905D01*
X95905D02*
Y167400D01*
X96905Y167067D02*
Y167400D01*
X97172Y167667D02*
X97995D01*
X97172Y170605D02*
X97995D01*
X96905Y170872D02*
Y171205D01*
X95905Y170872D02*
Y171205D01*
X96905D01*
X94738Y170605D02*
X95638D01*
X94738Y170205D02*
X98181D01*
X89335Y171651D02*
Y171864D01*
X89829D01*
X88376Y171600D02*
Y171799D01*
Y166067D02*
X88735Y165706D01*
X89752Y164731D02*
X89967Y165112D01*
X89752Y164731D02*
X90534D01*
X89967Y165112D02*
X90534D01*
X88376Y166067D02*
Y166265D01*
X88735Y165706D02*
Y166297D01*
X89335Y166002D02*
X89829D01*
X89335D02*
Y166214D01*
X90534Y164731D02*
Y165336D01*
Y164935D02*
X90746D01*
X74929Y168134D02*
Y169735D01*
X75096D02*
X76063D01*
X75096Y168134D02*
Y169735D01*
Y168134D02*
X76063D01*
Y169735D01*
X75663Y168134D02*
Y169735D01*
X75463Y168134D02*
Y169735D01*
X75872Y170401D02*
X76164D01*
X75861Y167461D02*
X76153D01*
X75753Y165500D02*
Y166162D01*
X77697Y165800D02*
X78797Y165500D01*
X78864D01*
X77730Y165800D02*
X78864Y165500D01*
X80765D01*
X77263Y165266D02*
X77663Y165133D01*
X77230Y165233D02*
X77530Y165133D01*
X77663D01*
X77763Y165099D01*
X77830Y165066D01*
X77530Y165133D02*
X77597Y165099D01*
X77630Y165066D01*
X78030Y164899D01*
X77830Y165066D02*
X78531Y164766D01*
X77630Y165066D02*
X77830D01*
X78997Y164532D02*
X80465D01*
X78531Y164766D02*
X78997Y164532D01*
X78030Y164299D02*
Y164899D01*
Y164466D02*
X78197D01*
Y164833D01*
X78030Y164899D02*
X78531Y164766D01*
X78297Y164599D02*
Y164799D01*
X74195Y169735D02*
X74695D01*
X74429Y168134D02*
Y169735D01*
X74195Y168134D02*
Y169735D01*
Y168134D02*
X74695D01*
X123017Y177705D02*
X124584D01*
X123017Y177905D02*
X123617D01*
X123017Y177705D02*
Y179305D01*
X128919Y175537D02*
X129719D01*
X120049Y178907D02*
Y179372D01*
X119682D02*
X120049D01*
X117715D02*
X119684D01*
X119682Y178905D02*
Y179372D01*
Y177705D02*
Y178907D01*
X119081Y177705D02*
X119682D01*
X118815Y177905D02*
X119682D01*
X118481Y178772D02*
Y179372D01*
X117581Y178772D02*
X118481D01*
X116747Y179372D02*
X117714D01*
X103208Y172636D02*
Y175632D01*
X103475Y172984D02*
Y175297D01*
X101252Y175245D02*
Y176252D01*
X90534Y174537D02*
X90746D01*
X90534Y174333D02*
Y174939D01*
X89335Y175604D02*
Y175817D01*
Y175604D02*
X89829D01*
X89752Y173135D02*
X89967Y172754D01*
X88735Y175309D02*
Y175899D01*
X88376Y175670D02*
Y175868D01*
X89967Y174714D02*
X90534D01*
X89752Y174333D02*
X90534D01*
X89752D02*
X89967Y174714D01*
X88376Y175670D02*
X88735Y175309D01*
X90534Y172931D02*
X90746D01*
X90534Y172529D02*
Y173135D01*
X89967Y172754D02*
X90534D01*
X89752Y173135D02*
X90534D01*
X75763Y175104D02*
Y175766D01*
X75871Y177065D02*
X76163D01*
X75029Y177905D02*
Y179105D01*
X75229Y177905D02*
Y178939D01*
X75563Y177905D02*
Y178639D01*
X78997Y174537D02*
X80465D01*
X79097Y173737D02*
Y174537D01*
Y173737D02*
X80431D01*
X80031D02*
Y174537D01*
X78864Y175104D02*
X81036D01*
X78364Y175904D02*
X80331D01*
X80798Y175104D02*
Y175471D01*
X77497Y175437D02*
X78797Y175104D01*
X77563Y175437D02*
X78864Y175104D01*
X78797D02*
X78864D01*
X78030Y176004D02*
X78097Y176071D01*
X78030Y176004D02*
X78097Y176071D01*
X77997Y176004D02*
X78364Y175904D01*
X78164Y176071D02*
X78831Y175904D01*
X77497Y175437D02*
X77563D01*
X77430Y175471D02*
X77563Y175437D01*
Y175637D01*
X78130Y172203D02*
X78797Y172369D01*
X78164Y172169D02*
X78864Y172369D01*
X80331D01*
X78797D02*
X78864D01*
X77530Y172903D02*
Y174870D01*
X77630Y172969D02*
Y174870D01*
X77130Y175004D02*
X77663Y174870D01*
X77097Y174970D02*
X77530Y174870D01*
X77663D01*
X77630D02*
X78030Y174737D01*
X77830Y174870D02*
X78531Y174670D01*
X77663Y174870D02*
X77763D01*
X77830D01*
X77630Y172969D02*
X78030Y173203D01*
X77363Y172836D02*
X77530Y172903D01*
X77430Y172769D02*
X77663Y172903D01*
X77830Y172969D02*
X78531Y173403D01*
X77630Y172969D02*
X77830D01*
X77530Y172903D02*
X77663D01*
X77763Y172936D02*
X77830Y172969D01*
X77663Y172903D02*
X77763Y172936D01*
X77597D02*
X77630Y172969D01*
X77530Y172903D02*
X77597Y172936D01*
X78531Y174670D02*
X78997Y174537D01*
X78531Y173403D02*
X79097Y173737D01*
X78030Y173203D02*
X78397Y173336D01*
X78030Y174737D02*
X78418Y174703D01*
X80665Y173954D02*
Y174303D01*
X78330Y173537D02*
X78747Y173536D01*
X78297Y173336D02*
Y173670D01*
X78197Y173206D02*
Y173837D01*
X78030Y173135D02*
Y173970D01*
Y174303D02*
Y174737D01*
Y174470D02*
X78197D01*
Y174704D01*
X78030Y173770D02*
X78172D01*
X74562Y177905D02*
Y178238D01*
Y179572D01*
Y177905D02*
X74695D01*
X74186Y178807D02*
X74491Y179673D01*
X126952Y180373D02*
Y180740D01*
Y180373D02*
X128920D01*
X128019D02*
Y180873D01*
X128419D01*
Y180373D02*
Y180873D01*
X128919Y180373D02*
Y182340D01*
X124584Y180740D02*
X126952D01*
X125251Y180873D02*
Y181640D01*
X123617Y180873D02*
X128019D01*
X122416Y180940D02*
Y181640D01*
X121649Y180940D02*
Y181773D01*
X119682Y181373D02*
X121649D01*
X119682Y180940D02*
Y181474D01*
X118481Y180940D02*
Y181473D01*
X117715Y180940D02*
X119684D01*
X116547D02*
X117714D01*
X115747Y180106D02*
Y181473D01*
X111978Y181540D02*
X114546D01*
X111211Y181773D02*
X111278D01*
X111211Y181140D02*
Y182140D01*
Y181940D02*
X111979D01*
X111411Y181773D02*
Y181940D01*
X111278Y181473D02*
Y181773D01*
X111411Y181140D02*
Y181473D01*
X111211D02*
X111978D01*
X111878Y181640D02*
X111978D01*
X111878D02*
Y181773D01*
X111978D01*
X111278D02*
X111878D01*
X111978Y181140D02*
Y182340D01*
X111211Y181140D02*
X111978D01*
Y182340D02*
X114546D01*
X111612Y181940D02*
Y182340D01*
X110644D02*
X111979D01*
X110611Y182374D02*
X110845Y182140D01*
X109444Y182374D02*
X110611D01*
X109177Y182140D02*
X109444Y182374D01*
X108844Y182140D02*
X111211D01*
X108744Y181773D02*
X108844D01*
X108644D02*
Y181940D01*
X108444D02*
Y182340D01*
X108042Y181940D02*
X108844D01*
X108042Y181773D02*
X108744D01*
Y181473D02*
Y181773D01*
X108644Y181140D02*
Y181473D01*
X108043D02*
X108844D01*
Y181140D02*
Y182140D01*
X108043Y181140D02*
Y182340D01*
Y181140D02*
X108844D01*
X108042Y182340D02*
X109377D01*
X108177Y181640D02*
Y181773D01*
X108043Y181640D02*
X108177D01*
X114546Y180940D02*
Y182340D01*
X104508D02*
Y183107D01*
X97039Y182340D02*
Y183107D01*
X84233Y181140D02*
X85000D01*
X84233D02*
Y182140D01*
X84600Y181940D02*
Y182340D01*
X83666D02*
X84999D01*
X83633Y182374D02*
X83866Y182140D01*
X87368Y182340D02*
Y183107D01*
X85000Y181140D02*
Y182340D01*
X84233Y181940D02*
X84999D01*
X84300Y181773D02*
X84900D01*
X84300Y181473D02*
Y181773D01*
X84233Y181473D02*
X85000D01*
X84900Y181640D02*
Y181773D01*
Y181640D02*
X85000D01*
X84900Y181773D02*
X85000D01*
X84233Y181240D02*
X84668D01*
X84533Y181140D02*
Y181240D01*
X84800Y181140D02*
Y181474D01*
Y181373D02*
X85000D01*
X84668Y181240D02*
X84800Y181340D01*
X82199Y182140D02*
X82466Y182374D01*
X81097Y182340D02*
X82399D01*
X81065Y181140D02*
X81865D01*
X79231Y182340D02*
X79498D01*
X81065D01*
X79498Y181540D02*
X81065D01*
X79498Y181140D02*
Y182340D01*
X76796Y181940D02*
X78464D01*
X75763Y181473D02*
X79498D01*
X75963D02*
Y181940D01*
X75763Y181140D02*
Y182340D01*
Y181140D02*
X79498D01*
X75963Y182340D02*
Y183107D01*
X75763Y182340D02*
X75996D01*
X79231D01*
X77130Y181840D02*
X78130D01*
X81298Y181340D02*
X81431Y181240D01*
X81098Y181373D02*
X81298D01*
Y181140D02*
Y181474D01*
X81565Y181140D02*
Y181240D01*
X81431D02*
X81865D01*
X81098Y181773D02*
X81198D01*
X81098Y181640D02*
X81198D01*
Y181773D01*
X81098Y181473D02*
X81865D01*
X81799D02*
Y181773D01*
X81198D02*
X81799D01*
X81100Y181940D02*
X81865D01*
X81498D02*
Y182340D01*
X81865Y181140D02*
Y182140D01*
X81065Y181140D02*
Y182340D01*
X75763Y181940D02*
X75996D01*
X76063D01*
X75963Y181140D02*
X76912Y181474D01*
X95366Y28639D02*
Y28659D01*
X95337Y28439D02*
X95490Y28666D01*
X95878Y29510D02*
X97487D01*
X95898Y29191D02*
X97886D01*
X95898Y28856D02*
X97866D01*
Y27419D02*
Y28856D01*
X95937Y27419D02*
X97866D01*
X95937D02*
Y28856D01*
Y27793D02*
X97866D01*
X93811Y28246D02*
X95937D01*
X94165Y28049D02*
Y28246D01*
X92590Y28049D02*
Y28246D01*
X90465D02*
X92590D01*
X88535Y27793D02*
X90465D01*
Y27419D02*
Y28856D01*
X88535Y27419D02*
X90465D01*
X88535D02*
Y28856D01*
X90504D01*
X88516Y29191D02*
X90504D01*
X88914Y29510D02*
X90524D01*
X90911Y28666D02*
X91065Y28439D01*
X91035Y28639D02*
Y28659D01*
X93811Y39899D02*
X95937D01*
Y40352D02*
X97866D01*
X95937Y39289D02*
Y40726D01*
X97866D01*
Y39289D02*
Y40726D01*
X95898Y39289D02*
X97866D01*
X95898Y38954D02*
X97886D01*
X95878Y38635D02*
X97487D01*
X95337Y39706D02*
X95490Y39479D01*
X95366Y39486D02*
Y39505D01*
X94165Y39899D02*
Y40096D01*
X91035Y39486D02*
Y39505D01*
X90911Y39479D02*
X91065Y39706D01*
X88914Y38635D02*
X90524D01*
X88516Y38954D02*
X90504D01*
X88535Y39289D02*
X90504D01*
X88535D02*
Y40726D01*
X90465D01*
Y39289D02*
Y40726D01*
X88535Y40352D02*
X90465D01*
Y39899D02*
X92590D01*
Y40096D01*
X91587Y28447D02*
X94815D01*
X92590Y28246D02*
X94165D01*
X92590Y28049D02*
X94165D01*
X91587Y39698D02*
X94815D01*
X92590Y40096D02*
X94165D01*
X92590Y39899D02*
X94165D01*
X98280Y29122D02*
Y39023D01*
X98078Y30101D02*
Y38044D01*
X88324Y30101D02*
Y38044D01*
X88122Y29122D02*
Y39023D01*
X127657Y77347D02*
X129026D01*
X126969Y81102D02*
X129528D01*
X127657Y74622D02*
X129026D01*
X126969Y70866D02*
X134449D01*
X136614Y72441D02*
X136614Y79527D01*
X135827Y79724D02*
X135827Y72244D01*
X124803Y72441D02*
X124803Y79527D01*
X125591Y72244D02*
Y79724D01*
X132392Y77347D02*
X133760D01*
X135827Y79527D02*
X136614D01*
X129528Y82087D02*
X131890D01*
X131890Y79764D02*
X131890Y82087D01*
X129528Y79764D02*
X129528Y82087D01*
X131890Y81102D02*
X134449Y81102D01*
X132392Y74621D02*
X133760Y74622D01*
X129528Y69882D02*
Y70866D01*
X131890Y69882D02*
Y70866D01*
X135827Y72441D02*
X136614D01*
X129528Y69882D02*
X131890D01*
X124803Y79527D02*
X125591D01*
X124803Y72441D02*
X125591D01*
D276*
X12205Y49433D02*
X13204D01*
X12705D01*
Y47933D01*
X13704D02*
Y49433D01*
X14454D01*
X14704Y49183D01*
Y48683D01*
X14454Y48433D01*
X13704D01*
X16204Y47933D02*
X15204D01*
X16204Y48933D01*
Y49183D01*
X15954Y49433D01*
X15454D01*
X15204Y49183D01*
X16703D02*
X16953Y49433D01*
X17453D01*
X17703Y49183D01*
Y48933D01*
X17453Y48683D01*
X17703Y48433D01*
Y48183D01*
X17453Y47933D01*
X16953D01*
X16703Y48183D01*
Y48433D01*
X16953Y48683D01*
X16703Y48933D01*
Y49183D01*
X16953Y48683D02*
X17453D01*
X8268Y128173D02*
X9267D01*
X8767D01*
Y126673D01*
X9767D02*
Y128173D01*
X10517D01*
X10767Y127923D01*
Y127423D01*
X10517Y127173D01*
X9767D01*
X11267Y126923D02*
X11517Y126673D01*
X12016D01*
X12266Y126923D01*
Y127923D01*
X12016Y128173D01*
X11517D01*
X11267Y127923D01*
Y127673D01*
X11517Y127423D01*
X12266D01*
X8268Y139984D02*
X9267D01*
X8767D01*
Y138484D01*
X9767D02*
Y139984D01*
X10517D01*
X10767Y139734D01*
Y139234D01*
X10517Y138984D01*
X9767D01*
X11267Y138484D02*
X11767D01*
X11517D01*
Y139984D01*
X11267Y139734D01*
X12516D02*
X12766Y139984D01*
X13266D01*
X13516Y139734D01*
Y138734D01*
X13266Y138484D01*
X12766D01*
X12516Y138734D01*
Y139734D01*
X102756Y43527D02*
X103756D01*
X103256D01*
Y42028D01*
X104255D02*
Y43527D01*
X105005D01*
X105255Y43277D01*
Y42777D01*
X105005Y42527D01*
X104255D01*
X105755Y42028D02*
X106255D01*
X106005D01*
Y43527D01*
X105755Y43277D01*
X108004Y43527D02*
X107004D01*
Y42777D01*
X107504Y43027D01*
X107754D01*
X108004Y42777D01*
Y42278D01*
X107754Y42028D01*
X107255D01*
X107004Y42278D01*
X24016Y39590D02*
X25015D01*
X24516D01*
Y38091D01*
X25515D02*
Y39590D01*
X26265D01*
X26515Y39340D01*
Y38840D01*
X26265Y38590D01*
X25515D01*
X28014Y38091D02*
X27015D01*
X28014Y39090D01*
Y39340D01*
X27765Y39590D01*
X27265D01*
X27015Y39340D01*
X28514Y38340D02*
X28764Y38091D01*
X29264D01*
X29514Y38340D01*
Y39340D01*
X29264Y39590D01*
X28764D01*
X28514Y39340D01*
Y39090D01*
X28764Y38840D01*
X29514D01*
X12205Y39590D02*
X13204D01*
X12705D01*
Y38091D01*
X13704D02*
Y39590D01*
X14454D01*
X14704Y39340D01*
Y38840D01*
X14454Y38590D01*
X13704D01*
X16203Y38091D02*
X15204D01*
X16203Y39090D01*
Y39340D01*
X15954Y39590D01*
X15454D01*
X15204Y39340D01*
X16703Y39590D02*
X17703D01*
Y39340D01*
X16703Y38340D01*
Y38091D01*
X60605Y30751D02*
X60855Y30501D01*
X61355D01*
X61604Y30751D01*
Y31751D01*
X61355Y32001D01*
X60855D01*
X60605Y31751D01*
X60105Y30751D02*
X59855Y30501D01*
X59355D01*
X59105Y30751D01*
Y31001D01*
X59355Y31251D01*
X59605D01*
X59355D01*
X59105Y31501D01*
Y31751D01*
X59355Y32001D01*
X59855D01*
X60105Y31751D01*
X58605Y30751D02*
X58355Y30501D01*
X57856D01*
X57606Y30751D01*
Y31001D01*
X57856Y31251D01*
X58106D01*
X57856D01*
X57606Y31501D01*
Y31751D01*
X57856Y32001D01*
X58355D01*
X58605Y31751D01*
X60988Y18024D02*
X62487Y19024D01*
X60988D02*
X62487Y18024D01*
Y20523D02*
Y19524D01*
X61488Y20523D01*
X61238D01*
X60988Y20273D01*
Y19773D01*
X61238Y19524D01*
X74891Y23248D02*
Y24498D01*
X74641Y24748D01*
X74141D01*
X73891Y24498D01*
Y23248D01*
X72391D02*
X72891Y23498D01*
X73391Y23998D01*
Y24498D01*
X73141Y24748D01*
X72641D01*
X72391Y24498D01*
Y24248D01*
X72641Y23998D01*
X73391D01*
X60605Y26151D02*
X60855Y25901D01*
X61355D01*
X61604Y26151D01*
Y27151D01*
X61355Y27401D01*
X60855D01*
X60605Y27151D01*
X59105Y27401D02*
X60105D01*
X59105Y26401D01*
Y26151D01*
X59355Y25901D01*
X59855D01*
X60105Y26151D01*
X57606Y27401D02*
X58605D01*
X57606Y26401D01*
Y26151D01*
X57856Y25901D01*
X58355D01*
X58605Y26151D01*
X60605Y35351D02*
X60855Y35101D01*
X61355D01*
X61604Y35351D01*
Y36351D01*
X61355Y36601D01*
X60855D01*
X60605Y36351D01*
X60105Y35351D02*
X59855Y35101D01*
X59355D01*
X59105Y35351D01*
Y35601D01*
X59355Y35851D01*
X59605D01*
X59355D01*
X59105Y36101D01*
Y36351D01*
X59355Y36601D01*
X59855D01*
X60105Y36351D01*
X57606Y36601D02*
X58605D01*
X57606Y35601D01*
Y35351D01*
X57856Y35101D01*
X58355D01*
X58605Y35351D01*
X113810Y60811D02*
Y60311D01*
Y60561D01*
X115059D01*
X115309Y60311D01*
Y60061D01*
X115059Y59811D01*
X115309Y61311D02*
Y61810D01*
Y61560D01*
X113810D01*
X114060Y61311D01*
X111728Y100265D02*
X111478Y100515D01*
X110978D01*
X110728Y100265D01*
Y100015D01*
X110978Y99765D01*
X111478D01*
X111728Y99516D01*
Y99266D01*
X111478Y99016D01*
X110978D01*
X110728Y99266D01*
X112228Y100515D02*
Y99016D01*
X112728Y99516D01*
X113227Y99016D01*
Y100515D01*
X113727Y100265D02*
X113977Y100515D01*
X114477D01*
X114727Y100265D01*
Y100015D01*
X114477Y99765D01*
X114227D01*
X114477D01*
X114727Y99516D01*
Y99266D01*
X114477Y99016D01*
X113977D01*
X113727Y99266D01*
X112201Y11587D02*
Y10587D01*
X111701Y10088D01*
X111201Y10587D01*
Y11587D01*
Y10837D01*
X112201D01*
X109702Y11587D02*
X110702D01*
X109702Y10587D01*
Y10338D01*
X109952Y10088D01*
X110452D01*
X110702Y10338D01*
X60687Y117425D02*
X59188D01*
Y118175D01*
X59438Y118425D01*
X59938D01*
X60188Y118175D01*
Y117425D01*
X60687Y119675D02*
X59188D01*
X59938Y118925D01*
Y119924D01*
X50687Y117425D02*
X49188D01*
Y118175D01*
X49438Y118425D01*
X49938D01*
X50187Y118175D01*
Y117425D01*
X49438Y118925D02*
X49188Y119175D01*
Y119675D01*
X49438Y119924D01*
X49688D01*
X49938Y119675D01*
Y119425D01*
Y119675D01*
X50187Y119924D01*
X50437D01*
X50687Y119675D01*
Y119175D01*
X50437Y118925D01*
X26687Y117425D02*
X25188D01*
Y118175D01*
X25438Y118425D01*
X25938D01*
X26188Y118175D01*
Y117425D01*
X26687Y118925D02*
Y119425D01*
Y119175D01*
X25188D01*
X25438Y118925D01*
X34400Y139750D02*
X34150Y139999D01*
X33650D01*
X33400Y139750D01*
Y139500D01*
X33650Y139250D01*
X34150D01*
X34400Y139000D01*
Y138750D01*
X34150Y138500D01*
X33650D01*
X33400Y138750D01*
X34900Y139999D02*
Y138500D01*
X35649D01*
X35899Y138750D01*
Y139000D01*
X35649Y139250D01*
X34900D01*
X35649D01*
X35899Y139500D01*
Y139750D01*
X35649Y139999D01*
X34900D01*
X37149Y138500D02*
Y139999D01*
X36399Y139250D01*
X37399D01*
X83071Y195102D02*
X84070D01*
X83571D01*
Y193602D01*
X84570D02*
Y195102D01*
X85320D01*
X85570Y194852D01*
Y194352D01*
X85320Y194102D01*
X84570D01*
X86070Y193602D02*
X86570D01*
X86320D01*
Y195102D01*
X86070Y194852D01*
X87319D02*
X87569Y195102D01*
X88069D01*
X88319Y194852D01*
Y194602D01*
X88069Y194352D01*
X88319Y194102D01*
Y193852D01*
X88069Y193602D01*
X87569D01*
X87319Y193852D01*
Y194102D01*
X87569Y194352D01*
X87319Y194602D01*
Y194852D01*
X87569Y194352D02*
X88069D01*
X39764Y195102D02*
X40764D01*
X40264D01*
Y193602D01*
X41263D02*
Y195102D01*
X42013D01*
X42263Y194852D01*
Y194352D01*
X42013Y194102D01*
X41263D01*
X42763Y193602D02*
X43263D01*
X43013D01*
Y195102D01*
X42763Y194852D01*
X44012D02*
X44262Y195102D01*
X44762D01*
X45012Y194852D01*
Y194602D01*
X44762Y194352D01*
X44512D01*
X44762D01*
X45012Y194102D01*
Y193852D01*
X44762Y193602D01*
X44262D01*
X44012Y193852D01*
X51575Y195102D02*
X52574D01*
X52075D01*
Y193602D01*
X53074D02*
Y195102D01*
X53824D01*
X54074Y194852D01*
Y194352D01*
X53824Y194102D01*
X53074D01*
X54574Y193602D02*
X55074D01*
X54824D01*
Y195102D01*
X54574Y194852D01*
X56573Y193602D02*
Y195102D01*
X55823Y194352D01*
X56823D01*
X51575Y139984D02*
X52574D01*
X52075D01*
Y138484D01*
X53074D02*
Y139984D01*
X53824D01*
X54074Y139734D01*
Y139234D01*
X53824Y138984D01*
X53074D01*
X54574Y138484D02*
X55074D01*
X54824D01*
Y139984D01*
X54574Y139734D01*
X56823Y138484D02*
X55823D01*
X56823Y139484D01*
Y139734D01*
X56573Y139984D01*
X56073D01*
X55823Y139734D01*
X94882Y195102D02*
X95882D01*
X95382D01*
Y193602D01*
X96381D02*
Y195102D01*
X97131D01*
X97381Y194852D01*
Y194352D01*
X97131Y194102D01*
X96381D01*
X97881Y193602D02*
X98381D01*
X98131D01*
Y195102D01*
X97881Y194852D01*
X99130Y193852D02*
X99380Y193602D01*
X99880D01*
X100130Y193852D01*
Y194852D01*
X99880Y195102D01*
X99380D01*
X99130Y194852D01*
Y194602D01*
X99380Y194352D01*
X100130D01*
X39764Y139984D02*
X40764D01*
X40264D01*
Y138484D01*
X41263D02*
Y139984D01*
X42013D01*
X42263Y139734D01*
Y139234D01*
X42013Y138984D01*
X41263D01*
X42763Y138484D02*
X43263D01*
X43013D01*
Y139984D01*
X42763Y139734D01*
X44012Y138484D02*
X44512D01*
X44262D01*
Y139984D01*
X44012Y139734D01*
X130315Y195102D02*
X131315D01*
X130815D01*
Y193602D01*
X131815D02*
Y195102D01*
X132564D01*
X132814Y194852D01*
Y194352D01*
X132564Y194102D01*
X131815D01*
X133314Y193602D02*
X133814D01*
X133564D01*
Y195102D01*
X133314Y194852D01*
X135563Y195102D02*
X135063Y194852D01*
X134564Y194352D01*
Y193852D01*
X134813Y193602D01*
X135313D01*
X135563Y193852D01*
Y194102D01*
X135313Y194352D01*
X134564D01*
X36687Y117425D02*
X35188D01*
Y118175D01*
X35438Y118425D01*
X35938D01*
X36187Y118175D01*
Y117425D01*
X36687Y119924D02*
Y118925D01*
X35688Y119924D01*
X35438D01*
X35188Y119675D01*
Y119175D01*
X35438Y118925D01*
X95770Y161765D02*
Y162265D01*
Y162015D01*
X94521D01*
X94271Y162265D01*
Y162515D01*
X94521Y162765D01*
X94271Y160516D02*
X95770D01*
X95021Y161266D01*
Y160266D01*
X71677Y65976D02*
Y64726D01*
X71927Y64476D01*
X72427D01*
X72677Y64726D01*
Y65976D01*
X73177Y64476D02*
X73677D01*
X73427D01*
Y65976D01*
X73177Y65726D01*
X191240Y62303D02*
X192240D01*
X192740Y61803D01*
X192240Y61304D01*
X191240D01*
X191990D01*
Y62303D01*
X191240Y60804D02*
Y60304D01*
Y60554D01*
X192740D01*
X192490Y60804D01*
X70687Y117425D02*
X69188D01*
Y118175D01*
X69438Y118425D01*
X69938D01*
X70188Y118175D01*
Y117425D01*
X69188Y119924D02*
Y118925D01*
X69938D01*
X69688Y119424D01*
Y119675D01*
X69938Y119924D01*
X70438D01*
X70687Y119675D01*
Y119175D01*
X70438Y118925D01*
X65623Y8061D02*
X67122D01*
Y9060D01*
Y9560D02*
Y10060D01*
Y9810D01*
X65623D01*
X65872Y9560D01*
X67122Y10810D02*
Y11310D01*
Y11060D01*
X65623D01*
X65872Y10810D01*
X60597Y11708D02*
X60847Y11458D01*
X61347D01*
X61597Y11708D01*
Y12708D01*
X61347Y12958D01*
X60847D01*
X60597Y12708D01*
X59097Y12958D02*
X60097D01*
X59097Y11958D01*
Y11708D01*
X59347Y11458D01*
X59847D01*
X60097Y11708D01*
X58598Y11458D02*
X57598D01*
Y11708D01*
X58598Y12708D01*
Y12958D01*
X71838Y8609D02*
X71588Y8858D01*
X71088D01*
X70838Y8609D01*
Y7609D01*
X71088Y7359D01*
X71588D01*
X71838Y7609D01*
X73337Y7359D02*
X72338D01*
X73337Y8359D01*
Y8609D01*
X73087Y8858D01*
X72587D01*
X72338Y8609D01*
X73837D02*
X74087Y8858D01*
X74587D01*
X74837Y8609D01*
Y8359D01*
X74587Y8109D01*
X74837Y7859D01*
Y7609D01*
X74587Y7359D01*
X74087D01*
X73837Y7609D01*
Y7859D01*
X74087Y8109D01*
X73837Y8359D01*
Y8609D01*
X74087Y8109D02*
X74587D01*
X86256Y4788D02*
X85256Y6287D01*
Y4788D02*
X86256Y6287D01*
X84756D02*
X84257D01*
X84506D01*
Y4788D01*
X84756Y5038D01*
X65507Y44694D02*
X66507D01*
X66007D01*
Y43195D01*
X67007D02*
Y44694D01*
X67756D01*
X68006Y44444D01*
Y43944D01*
X67756Y43695D01*
X67007D01*
X68506Y44444D02*
X68756Y44694D01*
X69256D01*
X69506Y44444D01*
Y44194D01*
X69256Y43944D01*
X69506Y43695D01*
Y43445D01*
X69256Y43195D01*
X68756D01*
X68506Y43445D01*
Y43695D01*
X68756Y43944D01*
X68506Y44194D01*
Y44444D01*
X68756Y43944D02*
X69256D01*
X8268Y111637D02*
X9267D01*
X8767D01*
Y110138D01*
X9767D02*
Y111637D01*
X10517D01*
X10767Y111387D01*
Y110888D01*
X10517Y110638D01*
X9767D01*
X11267Y111387D02*
X11517Y111637D01*
X12016D01*
X12266Y111387D01*
Y111137D01*
X12016Y110888D01*
X11767D01*
X12016D01*
X12266Y110638D01*
Y110388D01*
X12016Y110138D01*
X11517D01*
X11267Y110388D01*
X12766Y110138D02*
X13266D01*
X13016D01*
Y111637D01*
X12766Y111387D01*
X8268Y99826D02*
X9267D01*
X8767D01*
Y98327D01*
X9767D02*
Y99826D01*
X10517D01*
X10767Y99576D01*
Y99076D01*
X10517Y98827D01*
X9767D01*
X11267Y99576D02*
X11517Y99826D01*
X12016D01*
X12266Y99576D01*
Y99326D01*
X12016Y99076D01*
X11767D01*
X12016D01*
X12266Y98827D01*
Y98577D01*
X12016Y98327D01*
X11517D01*
X11267Y98577D01*
X12766Y99576D02*
X13016Y99826D01*
X13516D01*
X13766Y99576D01*
Y98577D01*
X13516Y98327D01*
X13016D01*
X12766Y98577D01*
Y99576D01*
X63386Y139984D02*
X64385D01*
X63886D01*
Y138484D01*
X64885D02*
Y139984D01*
X65635D01*
X65885Y139734D01*
Y139234D01*
X65635Y138984D01*
X64885D01*
X66385Y138484D02*
X66885D01*
X66635D01*
Y139984D01*
X66385Y139734D01*
X67634Y139984D02*
X68634D01*
Y139734D01*
X67634Y138734D01*
Y138484D01*
X24400Y139750D02*
X24150Y139999D01*
X23650D01*
X23400Y139750D01*
Y139500D01*
X23650Y139250D01*
X24150D01*
X24400Y139000D01*
Y138750D01*
X24150Y138500D01*
X23650D01*
X23400Y138750D01*
X24900Y139999D02*
Y138500D01*
X25649D01*
X25899Y138750D01*
Y139000D01*
X25649Y139250D01*
X24900D01*
X25649D01*
X25899Y139500D01*
Y139750D01*
X25649Y139999D01*
X24900D01*
X26399Y139750D02*
X26649Y139999D01*
X27149D01*
X27399Y139750D01*
Y139500D01*
X27149Y139250D01*
X26899D01*
X27149D01*
X27399Y139000D01*
Y138750D01*
X27149Y138500D01*
X26649D01*
X26399Y138750D01*
X81102Y110456D02*
X82102D01*
X81602D01*
Y108957D01*
X82602D02*
Y110456D01*
X83352D01*
X83602Y110206D01*
Y109706D01*
X83352Y109457D01*
X82602D01*
X84101Y110206D02*
X84351Y110456D01*
X84851D01*
X85101Y110206D01*
Y109956D01*
X84851Y109706D01*
X84601D01*
X84851D01*
X85101Y109457D01*
Y109207D01*
X84851Y108957D01*
X84351D01*
X84101Y109207D01*
X85601Y110206D02*
X85851Y110456D01*
X86351D01*
X86601Y110206D01*
Y109956D01*
X86351Y109706D01*
X86101D01*
X86351D01*
X86601Y109457D01*
Y109207D01*
X86351Y108957D01*
X85851D01*
X85601Y109207D01*
X136221Y110456D02*
X137220D01*
X136720D01*
Y108957D01*
X137720D02*
Y110456D01*
X138470D01*
X138720Y110206D01*
Y109706D01*
X138470Y109457D01*
X137720D01*
X139219Y110206D02*
X139469Y110456D01*
X139969D01*
X140219Y110206D01*
Y109956D01*
X139969Y109706D01*
X139719D01*
X139969D01*
X140219Y109457D01*
Y109207D01*
X139969Y108957D01*
X139469D01*
X139219Y109207D01*
X141719Y108957D02*
X140719D01*
X141719Y109956D01*
Y110206D01*
X141469Y110456D01*
X140969D01*
X140719Y110206D01*
X44690Y89043D02*
Y90042D01*
Y89542D01*
X46189D01*
Y90542D02*
X44690D01*
Y91292D01*
X44940Y91542D01*
X45439D01*
X45689Y91292D01*
Y90542D01*
X44940Y92042D02*
X44690Y92291D01*
Y92791D01*
X44940Y93041D01*
X45189D01*
X45439Y92791D01*
Y92541D01*
Y92791D01*
X45689Y93041D01*
X45939D01*
X46189Y92791D01*
Y92291D01*
X45939Y92042D01*
X46189Y94291D02*
X44690D01*
X45439Y93541D01*
Y94541D01*
X53942Y89043D02*
Y90042D01*
Y89542D01*
X55441D01*
Y90542D02*
X53942D01*
Y91292D01*
X54191Y91542D01*
X54691D01*
X54941Y91292D01*
Y90542D01*
X54191Y92042D02*
X53942Y92291D01*
Y92791D01*
X54191Y93041D01*
X54441D01*
X54691Y92791D01*
Y92541D01*
Y92791D01*
X54941Y93041D01*
X55191D01*
X55441Y92791D01*
Y92291D01*
X55191Y92042D01*
X53942Y94541D02*
Y93541D01*
X54691D01*
X54441Y94041D01*
Y94291D01*
X54691Y94541D01*
X55191D01*
X55441Y94291D01*
Y93791D01*
X55191Y93541D01*
X63194Y89043D02*
Y90042D01*
Y89542D01*
X64693D01*
Y90542D02*
X63194D01*
Y91292D01*
X63443Y91542D01*
X63943D01*
X64193Y91292D01*
Y90542D01*
X63443Y92042D02*
X63194Y92291D01*
Y92791D01*
X63443Y93041D01*
X63693D01*
X63943Y92791D01*
Y92541D01*
Y92791D01*
X64193Y93041D01*
X64443D01*
X64693Y92791D01*
Y92291D01*
X64443Y92042D01*
X63194Y94541D02*
X63443Y94041D01*
X63943Y93541D01*
X64443D01*
X64693Y93791D01*
Y94291D01*
X64443Y94541D01*
X64193D01*
X63943Y94291D01*
Y93541D01*
X28609Y89759D02*
X29609D01*
X29109D01*
Y88260D01*
X30109D02*
Y89759D01*
X30859D01*
X31109Y89509D01*
Y89009D01*
X30859Y88759D01*
X30109D01*
X31609Y89509D02*
X31858Y89759D01*
X32358D01*
X32608Y89509D01*
Y89259D01*
X32358Y89009D01*
X32108D01*
X32358D01*
X32608Y88759D01*
Y88510D01*
X32358Y88260D01*
X31858D01*
X31609Y88510D01*
X33108Y89759D02*
X34108D01*
Y89509D01*
X33108Y88510D01*
Y88260D01*
X28609Y79917D02*
X29609D01*
X29109D01*
Y78417D01*
X30109D02*
Y79917D01*
X30859D01*
X31109Y79667D01*
Y79167D01*
X30859Y78917D01*
X30109D01*
X31609Y79667D02*
X31858Y79917D01*
X32358D01*
X32608Y79667D01*
Y79417D01*
X32358Y79167D01*
X32108D01*
X32358D01*
X32608Y78917D01*
Y78667D01*
X32358Y78417D01*
X31858D01*
X31609Y78667D01*
X33108Y79667D02*
X33358Y79917D01*
X33858D01*
X34108Y79667D01*
Y79417D01*
X33858Y79167D01*
X34108Y78917D01*
Y78667D01*
X33858Y78417D01*
X33358D01*
X33108Y78667D01*
Y78917D01*
X33358Y79167D01*
X33108Y79417D01*
Y79667D01*
X33358Y79167D02*
X33858D01*
X12864Y70752D02*
X13114Y71002D01*
Y71502D01*
X12864Y71752D01*
X12614D01*
X12364Y71502D01*
Y71002D01*
X12114Y70752D01*
X11864D01*
X11614Y71002D01*
Y71502D01*
X11864Y71752D01*
X13114Y70253D02*
X11614D01*
X12114Y69753D01*
X11614Y69253D01*
X13114D01*
X11614Y67753D02*
Y68753D01*
X12614Y67753D01*
X12864D01*
X13114Y68003D01*
Y68503D01*
X12864Y68753D01*
X95396Y32710D02*
X95146Y32460D01*
Y31960D01*
X95396Y31710D01*
X95646D01*
X95896Y31960D01*
Y32460D01*
X96146Y32710D01*
X96396D01*
X96646Y32460D01*
Y31960D01*
X96396Y31710D01*
X95146Y33210D02*
X96646D01*
X96146Y33710D01*
X96646Y34209D01*
X95146D01*
X96646Y35459D02*
X95146D01*
X95896Y34709D01*
Y35709D01*
X130232Y76992D02*
X129732D01*
X129982D01*
Y75742D01*
X129732Y75492D01*
X129482D01*
X129232Y75742D01*
X131731Y75492D02*
X130732D01*
X131731Y76492D01*
Y76742D01*
X131482Y76992D01*
X130982D01*
X130732Y76742D01*
D277*
X70978Y34210D02*
X70778Y34010D01*
Y33610D01*
X70978Y33410D01*
X71777D01*
X71977Y33610D01*
Y34010D01*
X71777Y34210D01*
X71977Y35410D02*
Y34610D01*
X71178Y35410D01*
X70978D01*
X70778Y35210D01*
Y34810D01*
X70978Y34610D01*
Y35809D02*
X70778Y36009D01*
Y36409D01*
X70978Y36609D01*
X71178D01*
X71378Y36409D01*
Y36209D01*
Y36409D01*
X71578Y36609D01*
X71777D01*
X71977Y36409D01*
Y36009D01*
X71777Y35809D01*
X82298Y32555D02*
X82015D01*
X81733Y32273D01*
X81733Y31990D01*
X82298Y31424D01*
X82581D01*
X82864Y31707D01*
X82864Y31990D01*
X83853Y32697D02*
X83288Y32131D01*
Y33262D01*
X83146Y33404D01*
X82864D01*
X82581Y33121D01*
X82581Y32838D01*
X83853Y34393D02*
X83288Y33828D01*
X83712Y33404D01*
X83853Y33828D01*
X83995Y33969D01*
X84277D01*
X84560Y33686D01*
Y33404D01*
X84277Y33121D01*
X83995D01*
X75684Y34210D02*
X75484Y34010D01*
Y33610D01*
X75684Y33410D01*
X76484D01*
X76684Y33610D01*
Y34010D01*
X76484Y34210D01*
X76684Y35410D02*
Y34610D01*
X75884Y35410D01*
X75684D01*
X75484Y35210D01*
Y34810D01*
X75684Y34610D01*
X76684Y36409D02*
X75484D01*
X76084Y35809D01*
Y36609D01*
X61941Y13763D02*
X62141Y13563D01*
X62541D01*
X62741Y13763D01*
Y14562D01*
X62541Y14762D01*
X62141D01*
X61941Y14562D01*
X60742Y14762D02*
X61541D01*
X60742Y13963D01*
Y13763D01*
X60941Y13563D01*
X61341D01*
X61541Y13763D01*
X60342Y14762D02*
X59942D01*
X60142D01*
Y13563D01*
X60342Y13763D01*
X57907Y16146D02*
X58106Y15946D01*
X58506D01*
X58706Y16146D01*
Y16946D01*
X58506Y17146D01*
X58106D01*
X57907Y16946D01*
X57507Y16146D02*
X57307Y15946D01*
X56907D01*
X56707Y16146D01*
Y16346D01*
X56907Y16546D01*
X57107D01*
X56907D01*
X56707Y16746D01*
Y16946D01*
X56907Y17146D01*
X57307D01*
X57507Y16946D01*
X56307Y16146D02*
X56107Y15946D01*
X55707D01*
X55507Y16146D01*
Y16946D01*
X55707Y17146D01*
X56107D01*
X56307Y16946D01*
Y16146D01*
X57907Y21346D02*
X58106Y21146D01*
X58506D01*
X58706Y21346D01*
Y22146D01*
X58506Y22346D01*
X58106D01*
X57907Y22146D01*
X57507Y21346D02*
X57307Y21146D01*
X56907D01*
X56707Y21346D01*
Y21546D01*
X56907Y21746D01*
X57107D01*
X56907D01*
X56707Y21946D01*
Y22146D01*
X56907Y22346D01*
X57307D01*
X57507Y22146D01*
X56307Y22346D02*
X55907D01*
X56107D01*
Y21146D01*
X56307Y21346D01*
X80505Y25782D02*
Y24582D01*
X81305D01*
X81705Y24782D02*
X81905Y24582D01*
X82304D01*
X82504Y24782D01*
Y25582D01*
X82304Y25782D01*
X81905D01*
X81705Y25582D01*
Y25382D01*
X81905Y25182D01*
X82504D01*
X81807Y19821D02*
X81607Y19621D01*
Y19221D01*
X81807Y19022D01*
X82607D01*
X82807Y19221D01*
Y19621D01*
X82607Y19821D01*
X82807Y21021D02*
Y20221D01*
X82007Y21021D01*
X81807D01*
X81607Y20821D01*
Y20421D01*
X81807Y20221D01*
Y21421D02*
X81607Y21621D01*
Y22021D01*
X81807Y22220D01*
X82607D01*
X82807Y22021D01*
Y21621D01*
X82607Y21421D01*
X81807D01*
X84805Y25782D02*
Y24582D01*
X85605D01*
X86005D02*
X86405D01*
X86205D01*
Y25782D01*
X86005Y25582D01*
X87004D02*
X87204Y25782D01*
X87604D01*
X87804Y25582D01*
Y24782D01*
X87604Y24582D01*
X87204D01*
X87004Y24782D01*
Y25582D01*
X83737Y16710D02*
X83538Y16910D01*
X83138D01*
X82938Y16710D01*
Y15911D01*
X83138Y15711D01*
X83538D01*
X83737Y15911D01*
X84937Y15711D02*
X84137D01*
X84937Y16511D01*
Y16710D01*
X84737Y16910D01*
X84337D01*
X84137Y16710D01*
X86137Y16910D02*
X85737Y16710D01*
X85337Y16311D01*
Y15911D01*
X85537Y15711D01*
X85937D01*
X86137Y15911D01*
Y16111D01*
X85937Y16311D01*
X85337D01*
X95063Y12706D02*
X93864D01*
Y11906D01*
Y11506D02*
Y11107D01*
Y11306D01*
X95063D01*
X94863Y11506D01*
X95063Y9707D02*
Y10507D01*
X94464D01*
X94664Y10107D01*
Y9907D01*
X94464Y9707D01*
X94064D01*
X93864Y9907D01*
Y10307D01*
X94064Y10507D01*
X101463Y11907D02*
X101663Y12106D01*
Y12506D01*
X101463Y12706D01*
X100663D01*
X100463Y12506D01*
Y12106D01*
X100663Y11907D01*
X101463Y11507D02*
X101663Y11307D01*
Y10907D01*
X101463Y10707D01*
X101263D01*
X101063Y10907D01*
Y11107D01*
Y10907D01*
X100863Y10707D01*
X100663D01*
X100463Y10907D01*
Y11307D01*
X100663Y11507D01*
X101663Y9507D02*
Y10307D01*
X101063D01*
X101263Y9907D01*
Y9707D01*
X101063Y9507D01*
X100663D01*
X100463Y9707D01*
Y10107D01*
X100663Y10307D01*
X94903Y13554D02*
Y14754D01*
X95503D01*
X95703Y14554D01*
Y14154D01*
X95503Y13954D01*
X94903D01*
X95303D02*
X95703Y13554D01*
X96103D02*
X96503D01*
X96303D01*
Y14754D01*
X96103Y14554D01*
X97102Y13554D02*
X97502D01*
X97302D01*
Y14754D01*
X97102Y14554D01*
X137297Y25184D02*
X137097Y24984D01*
Y24584D01*
X137297Y24384D01*
X138097D01*
X138297Y24584D01*
Y24984D01*
X138097Y25184D01*
X137097Y26384D02*
Y25584D01*
X137697D01*
X137497Y25984D01*
Y26184D01*
X137697Y26384D01*
X138097D01*
X138297Y26184D01*
Y25784D01*
X138097Y25584D01*
X120372Y20081D02*
X120172Y19881D01*
Y19481D01*
X120372Y19281D01*
X121172D01*
X121372Y19481D01*
Y19881D01*
X121172Y20081D01*
X121372Y20481D02*
Y20881D01*
Y20681D01*
X120172D01*
X120372Y20481D01*
X120172Y22280D02*
X120372Y21880D01*
X120772Y21480D01*
X121172D01*
X121372Y21680D01*
Y22080D01*
X121172Y22280D01*
X120972D01*
X120772Y22080D01*
Y21480D01*
X124255Y8233D02*
Y7034D01*
X123655D01*
X123455Y7234D01*
Y7633D01*
X123655Y7834D01*
X124255D01*
X123855D02*
X123455Y8233D01*
X123055D02*
X122655D01*
X122855D01*
Y7034D01*
X123055Y7234D01*
X122055D02*
X121855Y7034D01*
X121456D01*
X121256Y7234D01*
Y8033D01*
X121456Y8233D01*
X121855D01*
X122055Y8033D01*
Y7234D01*
X182600Y13900D02*
X182400Y13700D01*
Y13300D01*
X182600Y13100D01*
X183400D01*
X183600Y13300D01*
Y13700D01*
X183400Y13900D01*
X183600Y14300D02*
Y14699D01*
Y14500D01*
X182400D01*
X182600Y14300D01*
X182400Y16099D02*
Y15299D01*
X183000D01*
X182800Y15699D01*
Y15899D01*
X183000Y16099D01*
X183400D01*
X183600Y15899D01*
Y15499D01*
X183400Y15299D01*
X124072Y6981D02*
X125272D01*
Y7781D01*
X124072Y8181D02*
Y8981D01*
X124272D01*
X125072Y8181D01*
X125272D01*
X119872Y12281D02*
X119672Y12081D01*
Y11681D01*
X119872Y11481D01*
X120672D01*
X120872Y11681D01*
Y12081D01*
X120672Y12281D01*
X120872Y12681D02*
Y13081D01*
Y12881D01*
X119672D01*
X119872Y12681D01*
X120872Y14480D02*
Y13680D01*
X120072Y14480D01*
X119872D01*
X119672Y14280D01*
Y13880D01*
X119872Y13680D01*
X178600Y12000D02*
X179800D01*
Y12800D01*
X178800Y13200D02*
X178600Y13399D01*
Y13799D01*
X178800Y13999D01*
X179000D01*
X179200Y13799D01*
X179400Y13999D01*
X179600D01*
X179800Y13799D01*
Y13399D01*
X179600Y13200D01*
X179400D01*
X179200Y13399D01*
X179000Y13200D01*
X178800D01*
X179200Y13399D02*
Y13799D01*
X104294Y52054D02*
Y53254D01*
X104894D01*
X105094Y53054D01*
Y52654D01*
X104894Y52454D01*
X104294D01*
X104694D02*
X105094Y52054D01*
X105493D02*
X105893D01*
X105693D01*
Y53254D01*
X105493Y53054D01*
X104294Y49554D02*
Y50754D01*
X104894D01*
X105094Y50554D01*
Y50154D01*
X104894Y49954D01*
X104294D01*
X104694D02*
X105094Y49554D01*
X106293D02*
X105493D01*
X106293Y50354D01*
Y50554D01*
X106093Y50754D01*
X105693D01*
X105493Y50554D01*
X104294Y47054D02*
Y48254D01*
X104894D01*
X105094Y48054D01*
Y47654D01*
X104894Y47454D01*
X104294D01*
X104694D02*
X105094Y47054D01*
X105493Y48054D02*
X105693Y48254D01*
X106093D01*
X106293Y48054D01*
Y47854D01*
X106093Y47654D01*
X105893D01*
X106093D01*
X106293Y47454D01*
Y47254D01*
X106093Y47054D01*
X105693D01*
X105493Y47254D01*
X140970Y35493D02*
X139770D01*
Y34693D01*
Y34293D02*
Y33893D01*
Y34093D01*
X140970D01*
X140770Y34293D01*
X142432Y21281D02*
X142632Y21081D01*
X143032D01*
X143231Y21281D01*
Y22081D01*
X143032Y22281D01*
X142632D01*
X142432Y22081D01*
X142032Y22281D02*
X141632D01*
X141832D01*
Y21081D01*
X142032Y21281D01*
X141032D02*
X140832Y21081D01*
X140432D01*
X140233Y21281D01*
Y21481D01*
X140432Y21681D01*
X140632D01*
X140432D01*
X140233Y21881D01*
Y22081D01*
X140432Y22281D01*
X140832D01*
X141032Y22081D01*
X139950Y17887D02*
X138750D01*
Y17088D01*
X139750Y16688D02*
X139950Y16488D01*
Y16088D01*
X139750Y15888D01*
X139550D01*
X139350Y16088D01*
Y16288D01*
Y16088D01*
X139150Y15888D01*
X138950D01*
X138750Y16088D01*
Y16488D01*
X138950Y16688D01*
X91227Y17605D02*
X91027Y17805D01*
X90627D01*
X90428Y17605D01*
Y16805D01*
X90627Y16605D01*
X91027D01*
X91227Y16805D01*
X91627Y16605D02*
Y17805D01*
X92227D01*
X92427Y17605D01*
Y17205D01*
X92227Y17005D01*
X91627D01*
X92027D02*
X92427Y16605D01*
X92827D02*
X93227D01*
X93027D01*
Y17805D01*
X92827Y17605D01*
X92834Y20559D02*
Y21358D01*
X92234D01*
Y20958D01*
Y21358D01*
X91634D01*
Y20159D02*
Y19759D01*
Y19959D01*
X92834D01*
X92633Y20159D01*
X69512Y3417D02*
Y4617D01*
X68712D01*
X68312D02*
X67912D01*
X68112D01*
Y3417D01*
X68312Y3617D01*
X66513Y4617D02*
X67313D01*
X66513Y3817D01*
Y3617D01*
X66713Y3417D01*
X67112D01*
X67313Y3617D01*
X87646Y10394D02*
X87446Y10194D01*
Y9794D01*
X87646Y9594D01*
X88446D01*
X88646Y9794D01*
Y10194D01*
X88446Y10394D01*
X88646Y10793D02*
Y11193D01*
Y10993D01*
X87446D01*
X87646Y10793D01*
Y11793D02*
X87446Y11993D01*
Y12393D01*
X87646Y12593D01*
X87846D01*
X88046Y12393D01*
X88246Y12593D01*
X88446D01*
X88646Y12393D01*
Y11993D01*
X88446Y11793D01*
X88246D01*
X88046Y11993D01*
X87846Y11793D01*
X87646D01*
X88046Y11993D02*
Y12393D01*
X75341Y9639D02*
X75541Y9439D01*
X75941D01*
X76141Y9639D01*
Y10439D01*
X75941Y10639D01*
X75541D01*
X75341Y10439D01*
X74142Y10639D02*
X74941D01*
X74142Y9839D01*
Y9639D01*
X74341Y9439D01*
X74741D01*
X74941Y9639D01*
X73742Y10439D02*
X73542Y10639D01*
X73142D01*
X72942Y10439D01*
Y9639D01*
X73142Y9439D01*
X73542D01*
X73742Y9639D01*
Y9839D01*
X73542Y10039D01*
X72942D01*
X80406Y9639D02*
X80606Y9439D01*
X81006D01*
X81206Y9639D01*
Y10439D01*
X81006Y10639D01*
X80606D01*
X80406Y10439D01*
X80007Y10639D02*
X79607D01*
X79807D01*
Y9439D01*
X80007Y9639D01*
X79007Y10439D02*
X78807Y10639D01*
X78407D01*
X78207Y10439D01*
Y9639D01*
X78407Y9439D01*
X78807D01*
X79007Y9639D01*
Y9839D01*
X78807Y10039D01*
X78207D01*
X130109Y62080D02*
X131309D01*
Y62879D01*
Y64079D02*
Y63279D01*
X130509Y64079D01*
X130309D01*
X130109Y63879D01*
Y63479D01*
X130309Y63279D01*
X134239Y67802D02*
X134039Y68002D01*
X133639D01*
X133439Y67802D01*
Y67002D01*
X133639Y66802D01*
X134039D01*
X134239Y67002D01*
X135439Y68002D02*
X135039Y67802D01*
X134639Y67402D01*
Y67002D01*
X134839Y66802D01*
X135239D01*
X135439Y67002D01*
Y67202D01*
X135239Y67402D01*
X134639D01*
X135839Y66802D02*
X136239D01*
X136039D01*
Y68002D01*
X135839Y67802D01*
X128649Y57006D02*
X128449Y56806D01*
Y56406D01*
X128649Y56206D01*
X129448D01*
X129648Y56406D01*
Y56806D01*
X129448Y57006D01*
X128449Y58206D02*
X128649Y57806D01*
X129049Y57406D01*
X129448D01*
X129648Y57606D01*
Y58006D01*
X129448Y58206D01*
X129248D01*
X129049Y58006D01*
Y57406D01*
X128649Y58606D02*
X128449Y58806D01*
Y59205D01*
X128649Y59405D01*
X129448D01*
X129648Y59205D01*
Y58806D01*
X129448Y58606D01*
X128649D01*
X126359Y67802D02*
X126159Y68002D01*
X125759D01*
X125559Y67802D01*
Y67002D01*
X125759Y66802D01*
X126159D01*
X126359Y67002D01*
X127559Y68002D02*
X127159Y67802D01*
X126759Y67402D01*
Y67002D01*
X126959Y66802D01*
X127358D01*
X127559Y67002D01*
Y67202D01*
X127358Y67402D01*
X126759D01*
X128758Y66802D02*
X127958D01*
X128758Y67602D01*
Y67802D01*
X128558Y68002D01*
X128158D01*
X127958Y67802D01*
X137795Y40255D02*
Y39255D01*
X137995Y39055D01*
X138395D01*
X138595Y39255D01*
Y40255D01*
X139595Y39055D02*
Y40255D01*
X138995Y39655D01*
X139795D01*
X143231Y41634D02*
X143431Y41434D01*
X143831D01*
X144031Y41634D01*
Y42433D01*
X143831Y42633D01*
X143431D01*
X143231Y42433D01*
X142031Y41434D02*
X142431Y41634D01*
X142831Y42033D01*
Y42433D01*
X142631Y42633D01*
X142231D01*
X142031Y42433D01*
Y42233D01*
X142231Y42033D01*
X142831D01*
X34675Y95020D02*
X34875Y95220D01*
Y95620D01*
X34675Y95820D01*
X33876D01*
X33676Y95620D01*
Y95220D01*
X33876Y95020D01*
X34675Y94620D02*
X34875Y94420D01*
Y94020D01*
X34675Y93820D01*
X34475D01*
X34275Y94020D01*
Y94220D01*
Y94020D01*
X34075Y93820D01*
X33876D01*
X33676Y94020D01*
Y94420D01*
X33876Y94620D01*
X40092Y91853D02*
Y92653D01*
X39492D01*
Y92253D01*
Y92653D01*
X38892D01*
X40092Y91453D02*
X38892D01*
Y90853D01*
X39092Y90653D01*
X39292D01*
X39492Y90853D01*
Y91453D01*
Y90853D01*
X39692Y90653D01*
X39892D01*
X40092Y90853D01*
Y91453D01*
X38892Y90254D02*
Y89854D01*
Y90054D01*
X40092D01*
X39892Y90254D01*
X42124Y89349D02*
Y90549D01*
X42724D01*
X42924Y90349D01*
Y89949D01*
X42724Y89749D01*
X42124D01*
X42524D02*
X42924Y89349D01*
X43324Y90549D02*
X44124D01*
Y90349D01*
X43324Y89549D01*
Y89349D01*
X31945Y60140D02*
X32145Y59940D01*
X32545D01*
X32745Y60140D01*
Y60939D01*
X32545Y61139D01*
X32145D01*
X31945Y60939D01*
X30746Y59940D02*
X31145Y60140D01*
X31545Y60540D01*
Y60939D01*
X31345Y61139D01*
X30946D01*
X30746Y60939D01*
Y60739D01*
X30946Y60540D01*
X31545D01*
X29746Y61139D02*
Y59940D01*
X30346Y60540D01*
X29546D01*
X32301Y65626D02*
X32101Y65426D01*
Y65026D01*
X32301Y64826D01*
X33101D01*
X33301Y65026D01*
Y65426D01*
X33101Y65626D01*
X32101Y66825D02*
X32301Y66426D01*
X32701Y66026D01*
X33101D01*
X33301Y66225D01*
Y66625D01*
X33101Y66825D01*
X32901D01*
X32701Y66625D01*
Y66026D01*
X32301Y67225D02*
X32101Y67425D01*
Y67825D01*
X32301Y68025D01*
X32501D01*
X32701Y67825D01*
Y67625D01*
Y67825D01*
X32901Y68025D01*
X33101D01*
X33301Y67825D01*
Y67425D01*
X33101Y67225D01*
X39793Y38524D02*
X39993Y38724D01*
Y39124D01*
X39793Y39324D01*
X38994D01*
X38794Y39124D01*
Y38724D01*
X38994Y38524D01*
X39993Y37324D02*
X39793Y37724D01*
X39393Y38124D01*
X38994D01*
X38794Y37924D01*
Y37524D01*
X38994Y37324D01*
X39194D01*
X39393Y37524D01*
Y38124D01*
X39993Y36924D02*
Y36125D01*
X39793D01*
X38994Y36924D01*
X38794D01*
X34065Y36930D02*
X34266Y37130D01*
Y37530D01*
X34065Y37730D01*
X33266D01*
X33066Y37530D01*
Y37130D01*
X33266Y36930D01*
X34266Y35730D02*
X34065Y36130D01*
X33666Y36530D01*
X33266D01*
X33066Y36330D01*
Y35930D01*
X33266Y35730D01*
X33466D01*
X33666Y35930D01*
Y36530D01*
X34266Y34531D02*
Y35331D01*
X33666D01*
X33866Y34931D01*
Y34731D01*
X33666Y34531D01*
X33266D01*
X33066Y34731D01*
Y35131D01*
X33266Y35331D01*
X36625Y36930D02*
X36825Y37130D01*
Y37530D01*
X36625Y37730D01*
X35825D01*
X35625Y37530D01*
Y37130D01*
X35825Y36930D01*
X36825Y35730D02*
X36625Y36130D01*
X36225Y36530D01*
X35825D01*
X35625Y36330D01*
Y35930D01*
X35825Y35730D01*
X36025D01*
X36225Y35930D01*
Y36530D01*
X36825Y34531D02*
X36625Y34931D01*
X36225Y35331D01*
X35825D01*
X35625Y35131D01*
Y34731D01*
X35825Y34531D01*
X36025D01*
X36225Y34731D01*
Y35331D01*
X27104Y67220D02*
X26904Y67019D01*
Y66620D01*
X27104Y66420D01*
X27904D01*
X28103Y66620D01*
Y67019D01*
X27904Y67220D01*
X28103Y68219D02*
X26904D01*
X27504Y67619D01*
Y68419D01*
X28947Y93433D02*
X29147Y93633D01*
Y94033D01*
X28947Y94233D01*
X28148D01*
X27948Y94033D01*
Y93633D01*
X28148Y93433D01*
X27948Y93033D02*
Y92633D01*
Y92833D01*
X29147D01*
X28947Y93033D01*
X31506Y93433D02*
X31706Y93633D01*
Y94033D01*
X31506Y94233D01*
X30707D01*
X30507Y94033D01*
Y93633D01*
X30707Y93433D01*
X30507Y92233D02*
Y93033D01*
X31306Y92233D01*
X31506D01*
X31706Y92433D01*
Y92833D01*
X31506Y93033D01*
X58306Y37646D02*
X58506Y37446D01*
X58906D01*
X59106Y37646D01*
Y38446D01*
X58906Y38646D01*
X58506D01*
X58306Y38446D01*
X57107Y37446D02*
X57507Y37646D01*
X57907Y38046D01*
Y38446D01*
X57707Y38646D01*
X57307D01*
X57107Y38446D01*
Y38246D01*
X57307Y38046D01*
X57907D01*
X56707Y37646D02*
X56507Y37446D01*
X56107D01*
X55907Y37646D01*
Y37846D01*
X56107Y38046D01*
X55907Y38246D01*
Y38446D01*
X56107Y38646D01*
X56507D01*
X56707Y38446D01*
Y38246D01*
X56507Y38046D01*
X56707Y37846D01*
Y37646D01*
X56507Y38046D02*
X56107D01*
X63506Y38646D02*
Y37446D01*
X62906D01*
X62707Y37646D01*
Y38046D01*
X62906Y38246D01*
X63506D01*
X63106D02*
X62707Y38646D01*
X62307Y37646D02*
X62107Y37446D01*
X61707D01*
X61507Y37646D01*
Y37846D01*
X61707Y38046D01*
X61507Y38246D01*
Y38446D01*
X61707Y38646D01*
X62107D01*
X62307Y38446D01*
Y38246D01*
X62107Y38046D01*
X62307Y37846D01*
Y37646D01*
X62107Y38046D02*
X61707D01*
D278*
X34744Y18799D02*
Y17599D01*
X34144D01*
X33944Y17799D01*
Y18199D01*
X34144Y18399D01*
X34744D01*
X32743Y17599D02*
X33144Y17799D01*
X33544Y18199D01*
Y18599D01*
X33344Y18799D01*
X32943D01*
X32743Y18599D01*
Y18399D01*
X32943Y18199D01*
X33544D01*
X128150Y124902D02*
Y123701D01*
X127549D01*
X127349Y123901D01*
Y124301D01*
X127549Y124502D01*
X128150D01*
X126949Y123701D02*
X126149D01*
Y123901D01*
X126949Y124701D01*
Y124902D01*
D279*
X155335Y30831D02*
D03*
D280*
Y50672D02*
D03*
D281*
X175176D02*
D03*
D282*
X171870Y34137D02*
D03*
D283*
X152025Y50673D02*
D03*
X158644D02*
D03*
X171870D02*
D03*
X178483D02*
D03*
X152025Y30833D02*
D03*
X158639D02*
D03*
D284*
X175178Y53982D02*
D03*
Y47364D02*
D03*
D285*
X155334Y27524D02*
D03*
Y34137D02*
D03*
Y53976D02*
D03*
D286*
X167460Y29176D02*
D03*
D287*
X155334Y47364D02*
D03*
M02*
