G04*
G04 #@! TF.GenerationSoftware,Altium Limited,Altium Designer,23.1.1 (15)*
G04*
G04 Layer_Color=16711935*
%FSLAX25Y25*%
%MOIN*%
G70*
G04*
G04 #@! TF.SameCoordinates,57D325FE-50AA-4423-B3C5-F19BAF70027F*
G04*
G04*
G04 #@! TF.FilePolarity,Positive*
G04*
G01*
G75*
%ADD10C,0.00591*%
%ADD12C,0.00600*%
D10*
X152756Y174409D02*
G03*
X174409Y152756I21654J0D01*
G01*
X200000Y394D02*
Y152756D01*
X0Y198819D02*
X152756D01*
X174409Y152756D02*
X200000D01*
X152756Y174409D02*
Y198819D01*
X0Y394D02*
Y38110D01*
Y48346D02*
Y198819D01*
X6142Y38110D02*
Y48346D01*
X0Y38110D02*
X6142D01*
X0Y48346D02*
X6142D01*
X62992Y394D02*
X200000D01*
X0D02*
X31496D01*
X62992D02*
Y7087D01*
X31496Y394D02*
Y7087D01*
X62992D01*
D12*
X101181Y130709D02*
G03*
X95276Y136614I-5906J0D01*
G01*
Y111024D02*
G03*
X101181Y116929I0J5906D01*
G01*
X95276Y114961D02*
G03*
X97244Y116929I0J1969D01*
G01*
Y130709D02*
G03*
X95276Y132677I-1969J0D01*
G01*
X81496Y114961D02*
G03*
X81496Y111024I0J-1969D01*
G01*
Y136614D02*
G03*
X81496Y132677I0J-1969D01*
G01*
X97244Y116929D02*
Y130709D01*
X81496Y132677D02*
X95276D01*
X81496Y114961D02*
X95276D01*
X81496Y111024D02*
X95276D01*
X101181Y116929D02*
Y130709D01*
X81496Y136614D02*
X95276D01*
M02*
