G04*
G04 #@! TF.GenerationSoftware,Altium Limited,Altium Designer,23.1.1 (15)*
G04*
G04 Layer_Color=8388736*
%FSLAX25Y25*%
%MOIN*%
G70*
G04*
G04 #@! TF.SameCoordinates,57D325FE-50AA-4423-B3C5-F19BAF70027F*
G04*
G04*
G04 #@! TF.FilePolarity,Negative*
G04*
G01*
G75*
%ADD66C,0.02400*%
%ADD67R,0.12411X0.12411*%
%ADD68R,0.12411X0.08474*%
%ADD69R,0.04337X0.02762*%
%ADD70R,0.01575X0.01457*%
%ADD71R,0.06112X0.04931*%
%ADD72R,0.01781X0.01663*%
%ADD73R,0.01663X0.01781*%
%ADD74R,0.02962X0.02568*%
%ADD75R,0.02568X0.02962*%
%ADD76R,0.03553X0.03750*%
G04:AMPARAMS|DCode=77|XSize=17.81mil|YSize=16.63mil|CornerRadius=0mil|HoleSize=0mil|Usage=FLASHONLY|Rotation=135.000|XOffset=0mil|YOffset=0mil|HoleType=Round|Shape=Rectangle|*
%AMROTATEDRECTD77*
4,1,4,0.01218,-0.00042,0.00042,-0.01218,-0.01218,0.00042,-0.00042,0.01218,0.01218,-0.00042,0.0*
%
%ADD77ROTATEDRECTD77*%

%ADD78R,0.01457X0.01575*%
%ADD79R,0.03750X0.03553*%
%ADD80R,0.01584X0.01387*%
%ADD81R,0.02568X0.03159*%
%ADD82R,0.02884X0.02568*%
%ADD83R,0.03750X0.03553*%
%ADD84R,0.04537X0.04734*%
%ADD85R,0.04734X0.09261*%
%ADD86R,0.02962X0.01781*%
%ADD87R,0.12017X0.02372*%
%ADD88R,0.08080X0.02372*%
%ADD89R,0.03356X0.03553*%
%ADD90R,0.02568X0.06112*%
%ADD91R,0.10049X0.02372*%
%ADD92R,0.03356X0.04143*%
%ADD93R,0.02962X0.02962*%
%ADD94R,0.03159X0.05324*%
%ADD95R,0.03159X0.02568*%
%ADD96C,0.01387*%
%ADD97R,0.05324X0.04537*%
%ADD98R,0.11427X0.06112*%
%ADD99R,0.11427X0.06072*%
%ADD100R,0.03356X0.03159*%
%ADD101C,0.04537*%
%ADD102C,0.06506*%
%ADD103R,0.02520X0.02520*%
%ADD104R,0.02520X0.01575*%
%ADD105R,0.01575X0.02520*%
%ADD106R,0.03543X0.03543*%
%ADD107R,0.01575X0.01575*%
%ADD108R,0.01378X0.01457*%
%ADD109R,0.01457X0.01378*%
%ADD110R,0.04409X0.04409*%
%ADD111R,0.01378X0.01378*%
%ADD112C,0.01102*%
%ADD113R,0.04340X0.03947*%
%ADD114R,0.04537X0.02568*%
%ADD115R,0.07874X0.07874*%
%ADD116R,0.07874X0.07874*%
%ADD117O,0.06899X0.04143*%
%ADD118R,0.06506X0.06506*%
%ADD119R,0.06112X0.06112*%
%ADD120C,0.06112*%
%ADD121C,0.11811*%
%ADD122C,0.04616*%
%ADD123C,0.03543*%
%ADD124C,0.03947*%
D66*
X36890Y136000D02*
G03*
X36890Y136000I-1100J0D01*
G01*
X37110D02*
G03*
X37110Y136000I-1100J0D01*
G01*
X27110D02*
G03*
X27110Y136000I-1100J0D01*
G01*
X26890D02*
G03*
X26890Y136000I-1100J0D01*
G01*
D67*
X191929Y7874D02*
D03*
Y114173D02*
D03*
D68*
Y19685D02*
D03*
Y61024D02*
D03*
Y102362D02*
D03*
D69*
X102721Y13359D02*
D03*
Y8241D02*
D03*
X114532D02*
D03*
Y13359D02*
D03*
D70*
X26894Y94149D02*
D03*
Y91904D02*
D03*
X29453Y94149D02*
D03*
Y91904D02*
D03*
X29158Y66504D02*
D03*
Y68748D02*
D03*
X130702Y56291D02*
D03*
X32012Y37646D02*
D03*
Y35402D02*
D03*
X34571Y37646D02*
D03*
Y35402D02*
D03*
X130702Y58535D02*
D03*
D71*
X34276Y95973D02*
D03*
Y90067D02*
D03*
X39394Y39476D02*
D03*
Y33571D02*
D03*
D72*
X139351Y24468D02*
D03*
Y26713D02*
D03*
X121926Y11565D02*
D03*
Y13809D02*
D03*
X122426Y19365D02*
D03*
X89700Y9678D02*
D03*
Y11922D02*
D03*
X83861Y19106D02*
D03*
Y21350D02*
D03*
X73031Y33495D02*
D03*
Y35739D02*
D03*
X77738Y33495D02*
D03*
Y35739D02*
D03*
X99410Y12622D02*
D03*
Y10378D02*
D03*
X126326Y7066D02*
D03*
X126326Y9310D02*
D03*
X92810Y12622D02*
D03*
Y10378D02*
D03*
X122426Y21609D02*
D03*
D73*
X143946Y43687D02*
D03*
X81122Y11693D02*
D03*
X78878D02*
D03*
X62657Y15816D02*
D03*
X60413D02*
D03*
X83022Y14657D02*
D03*
X85266D02*
D03*
X76057Y11693D02*
D03*
X73813Y11693D02*
D03*
X58622Y18200D02*
D03*
X56378D02*
D03*
X58622Y23400D02*
D03*
X56378D02*
D03*
X90512Y15551D02*
D03*
X92756D02*
D03*
X80589Y23528D02*
D03*
X82833D02*
D03*
X84889Y23528D02*
D03*
X87133D02*
D03*
X104378Y51000D02*
D03*
X106622D02*
D03*
X104378Y48500D02*
D03*
X106622D02*
D03*
X104378Y46000D02*
D03*
X106622D02*
D03*
X42209Y88295D02*
D03*
X44453D02*
D03*
X63422Y39700D02*
D03*
X61178D02*
D03*
X124170Y9287D02*
D03*
X121926D02*
D03*
X94987Y12500D02*
D03*
X97231D02*
D03*
X141702Y43687D02*
D03*
D74*
X143500Y21681D02*
D03*
X139563D02*
D03*
D75*
X183000Y12832D02*
D03*
Y16769D02*
D03*
D76*
X61565Y26843D02*
D03*
X56250D02*
D03*
X61558Y12400D02*
D03*
X56243D02*
D03*
X70877Y7917D02*
D03*
X76192D02*
D03*
X61565Y36043D02*
D03*
X56250D02*
D03*
X61565Y31443D02*
D03*
X56250D02*
D03*
X32602Y60539D02*
D03*
X27287D02*
D03*
D77*
X83244Y30597D02*
D03*
X84831Y32184D02*
D03*
D78*
X133524Y65748D02*
D03*
X135768D02*
D03*
X125643D02*
D03*
X127887D02*
D03*
X59022Y39700D02*
D03*
X56778D02*
D03*
D79*
X32701Y64969D02*
D03*
Y70284D02*
D03*
X140370Y35350D02*
D03*
Y30035D02*
D03*
X179200Y12143D02*
D03*
Y17458D02*
D03*
X66335Y8159D02*
D03*
Y13474D02*
D03*
D80*
X91632Y21358D02*
D03*
X90650Y19783D02*
D03*
Y18209D02*
D03*
X92618D02*
D03*
Y19783D02*
D03*
D81*
X39492Y92823D02*
D03*
Y89083D02*
D03*
X130709Y65650D02*
D03*
X139350Y18057D02*
D03*
Y14317D02*
D03*
X130709Y61909D02*
D03*
D82*
X107986Y62902D02*
D03*
X117120D02*
D03*
D83*
X108813Y58866D02*
D03*
Y66937D02*
D03*
X116294D02*
D03*
Y58866D02*
D03*
D84*
X130709Y69980D02*
D03*
D85*
X136516Y75984D02*
D03*
X124902Y75984D02*
D03*
D86*
X76947Y169009D02*
D03*
Y159402D02*
D03*
D87*
X81474Y182296D02*
D03*
Y138300D02*
D03*
D88*
X100568Y182296D02*
D03*
Y138300D02*
D03*
D89*
X116907Y180328D02*
D03*
D90*
X128521Y172867D02*
D03*
Y155544D02*
D03*
D91*
X120844Y138300D02*
D03*
D92*
X84230Y154599D02*
D03*
Y164206D02*
D03*
Y173812D02*
D03*
X96710Y154206D02*
D03*
Y174206D02*
D03*
Y164206D02*
D03*
D93*
X109820Y181410D02*
D03*
D94*
X124289Y166371D02*
D03*
D95*
X69682Y4017D02*
D03*
X65942D02*
D03*
D96*
X24570Y136000D02*
D03*
X27230D02*
D03*
X34570Y136000D02*
D03*
X37230D02*
D03*
D97*
X22441Y77165D02*
D03*
Y67323D02*
D03*
Y57480D02*
D03*
D98*
X125886Y107480D02*
D03*
Y91732D02*
D03*
X99311D02*
D03*
D99*
Y107480D02*
D03*
D100*
X89461Y39880D02*
D03*
Y28265D02*
D03*
X96941Y39880D02*
D03*
Y28265D02*
D03*
D101*
X68000Y39581D02*
D03*
X49803Y91535D02*
D03*
X59055D02*
D03*
X68307D02*
D03*
X31102Y84646D02*
D03*
Y74803D02*
D03*
D102*
X11811Y122047D02*
D03*
X11811Y133858D02*
D03*
X43307Y133858D02*
D03*
X55118D02*
D03*
X43307Y188976D02*
D03*
X55118D02*
D03*
X106299Y37402D02*
D03*
X133858Y188976D02*
D03*
X66929Y133858D02*
D03*
X86614Y188976D02*
D03*
X98425D02*
D03*
X15748Y33465D02*
D03*
X15748Y43307D02*
D03*
X27559Y33465D02*
D03*
X11811Y93701D02*
D03*
Y105512D02*
D03*
X139764Y104331D02*
D03*
X84646D02*
D03*
X25900Y124000D02*
D03*
X35900D02*
D03*
X49900D02*
D03*
X59900Y124000D02*
D03*
X69900Y124000D02*
D03*
D103*
X38724Y85028D02*
D03*
Y44713D02*
D03*
X100693D02*
D03*
Y85028D02*
D03*
D104*
X38724Y82587D02*
D03*
Y80618D02*
D03*
Y78650D02*
D03*
Y76681D02*
D03*
Y74713D02*
D03*
Y72744D02*
D03*
Y70776D02*
D03*
Y68807D02*
D03*
Y64870D02*
D03*
Y62902D02*
D03*
Y60933D02*
D03*
Y58965D02*
D03*
Y56996D02*
D03*
Y55028D02*
D03*
Y53059D02*
D03*
Y51091D02*
D03*
Y49122D02*
D03*
Y47154D02*
D03*
X100693Y47153D02*
D03*
Y49122D02*
D03*
Y51091D02*
D03*
Y53059D02*
D03*
Y56996D02*
D03*
Y58965D02*
D03*
Y60933D02*
D03*
Y62902D02*
D03*
Y64870D02*
D03*
Y66839D02*
D03*
Y70776D02*
D03*
Y72744D02*
D03*
Y74713D02*
D03*
Y76681D02*
D03*
Y78650D02*
D03*
Y82587D02*
D03*
Y80618D02*
D03*
Y68807D02*
D03*
Y55028D02*
D03*
X38724Y66839D02*
D03*
D105*
X41165Y44713D02*
D03*
X43134D02*
D03*
X45102D02*
D03*
X47071D02*
D03*
X49039D02*
D03*
X51008D02*
D03*
X52976D02*
D03*
X54945D02*
D03*
X56913D02*
D03*
X58882D02*
D03*
X60850D02*
D03*
X62819D02*
D03*
X64787D02*
D03*
X66756D02*
D03*
X68724D02*
D03*
X70693D02*
D03*
X72661D02*
D03*
X74630D02*
D03*
X76598D02*
D03*
X78567D02*
D03*
X80535D02*
D03*
X82504D02*
D03*
X84472D02*
D03*
X86441D02*
D03*
X88409D02*
D03*
X90378D02*
D03*
X92346D02*
D03*
X94315D02*
D03*
X96283D02*
D03*
X96284Y85028D02*
D03*
X94315D02*
D03*
X92347D02*
D03*
X90378D02*
D03*
X88410D02*
D03*
X86441D02*
D03*
X84472D02*
D03*
X82504D02*
D03*
X80535D02*
D03*
X78567D02*
D03*
X76598D02*
D03*
X74630D02*
D03*
X72661D02*
D03*
X70693D02*
D03*
X68724D02*
D03*
X66756D02*
D03*
X64787D02*
D03*
X62819D02*
D03*
X60850D02*
D03*
X58882D02*
D03*
X56913D02*
D03*
X54945D02*
D03*
X52976D02*
D03*
X51008D02*
D03*
X49039D02*
D03*
X47071D02*
D03*
X45102D02*
D03*
X43134D02*
D03*
X41165D02*
D03*
X98252D02*
D03*
X98252Y44713D02*
D03*
D106*
X93331Y77469D02*
D03*
Y52272D02*
D03*
Y64870D02*
D03*
Y58571D02*
D03*
Y71169D02*
D03*
X85457Y52272D02*
D03*
Y64870D02*
D03*
Y58571D02*
D03*
Y71169D02*
D03*
Y77469D02*
D03*
X69709Y52272D02*
D03*
Y64870D02*
D03*
Y58571D02*
D03*
Y71169D02*
D03*
Y77469D02*
D03*
X77583Y52272D02*
D03*
Y64870D02*
D03*
Y58571D02*
D03*
Y71169D02*
D03*
Y77469D02*
D03*
X61835Y52272D02*
D03*
Y64870D02*
D03*
Y58571D02*
D03*
Y71169D02*
D03*
Y77469D02*
D03*
X53961D02*
D03*
Y71169D02*
D03*
Y58571D02*
D03*
Y64870D02*
D03*
Y52272D02*
D03*
X46087D02*
D03*
Y64870D02*
D03*
Y58571D02*
D03*
Y71169D02*
D03*
Y77469D02*
D03*
D107*
X52976Y81996D02*
D03*
X51008D02*
D03*
X47071D02*
D03*
X49039D02*
D03*
X68724D02*
D03*
X64787D02*
D03*
X66756D02*
D03*
X62819D02*
D03*
X82504D02*
D03*
X88410D02*
D03*
X84472D02*
D03*
X86441D02*
D03*
X47071Y47744D02*
D03*
X51008D02*
D03*
X49039D02*
D03*
X52976D02*
D03*
X68724D02*
D03*
X64787D02*
D03*
X66756D02*
D03*
X62819D02*
D03*
X82504D02*
D03*
X88410D02*
D03*
X84472D02*
D03*
X86441D02*
D03*
D108*
X125300Y26845D02*
D03*
X125300Y25073D02*
D03*
X125300Y23301D02*
D03*
X131953Y26845D02*
D03*
X125300Y21530D02*
D03*
X131953D02*
D03*
Y23301D02*
D03*
Y25073D02*
D03*
D109*
X127051Y20860D02*
D03*
X128626D02*
D03*
X130201D02*
D03*
Y27514D02*
D03*
X128626D02*
D03*
X127051D02*
D03*
D110*
X128626Y24187D02*
D03*
D111*
X140945Y40433D02*
D03*
X137795D02*
D03*
Y38858D02*
D03*
X139370Y38858D02*
D03*
X140945Y38858D02*
D03*
X139370Y40433D02*
D03*
D112*
X78335Y18016D02*
D03*
X76957D02*
D03*
X75580D02*
D03*
X74202D02*
D03*
X72824D02*
D03*
X71446D02*
D03*
X70068D02*
D03*
X68690D02*
D03*
X67312D02*
D03*
X65934D02*
D03*
X75580Y19394D02*
D03*
X70068D02*
D03*
X68690D02*
D03*
X67312D02*
D03*
X65934D02*
D03*
X78335Y20772D02*
D03*
X76957D02*
D03*
X74202D02*
D03*
X67312D02*
D03*
X75580Y22150D02*
D03*
X74202D02*
D03*
X72824D02*
D03*
X71446D02*
D03*
X70068D02*
D03*
X68690D02*
D03*
X67312D02*
D03*
X65934D02*
D03*
X78335Y23528D02*
D03*
X76957D02*
D03*
X74202D02*
D03*
X72824D02*
D03*
X71446D02*
D03*
X70068D02*
D03*
X68690D02*
D03*
X67312D02*
D03*
X78335Y24905D02*
D03*
X76957D02*
D03*
X74202D02*
D03*
X72824D02*
D03*
X71446D02*
D03*
X70068D02*
D03*
X68690D02*
D03*
X65934D02*
D03*
X78335Y26283D02*
D03*
X76957D02*
D03*
X74202D02*
D03*
X72824D02*
D03*
X71446D02*
D03*
X70068D02*
D03*
X68690D02*
D03*
X67312D02*
D03*
X78335Y27661D02*
D03*
X76957D02*
D03*
X68690D02*
D03*
X65934D02*
D03*
X78335Y29039D02*
D03*
X76957D02*
D03*
X75580D02*
D03*
X74202D02*
D03*
X72824D02*
D03*
X71446D02*
D03*
X70068D02*
D03*
X68690D02*
D03*
X67312D02*
D03*
X65934D02*
D03*
X78335Y30417D02*
D03*
X76957D02*
D03*
X75580D02*
D03*
X74202D02*
D03*
X72824D02*
D03*
X71446D02*
D03*
X70068D02*
D03*
X68690D02*
D03*
X67312D02*
D03*
X65934Y30417D02*
D03*
X67312Y27661D02*
D03*
X70068D02*
D03*
X71446D02*
D03*
X72824D02*
D03*
X74202D02*
D03*
X65934Y26283D02*
D03*
X75580D02*
D03*
X67312Y24905D02*
D03*
X75580D02*
D03*
X65934Y23528D02*
D03*
X75580D02*
D03*
X65934Y20772D02*
D03*
X68690D02*
D03*
X70068D02*
D03*
X71446D02*
D03*
X72824D02*
D03*
X71446Y19394D02*
D03*
X72824D02*
D03*
X74202D02*
D03*
D113*
X86354Y7764D02*
D03*
X80646Y7764D02*
D03*
X80646Y3236D02*
D03*
X86354D02*
D03*
D114*
X61700Y18615D02*
D03*
Y22945D02*
D03*
D115*
X24016Y192913D02*
D03*
D116*
X7874Y25591D02*
D03*
X191732Y139370D02*
D03*
D117*
X5709Y86614D02*
D03*
Y112598D02*
D03*
D118*
X25900Y114000D02*
D03*
X35900D02*
D03*
X49900D02*
D03*
X59900Y114000D02*
D03*
X69900Y114000D02*
D03*
D119*
X44291Y22244D02*
D03*
X137697Y128346D02*
D03*
D120*
X44291Y14370D02*
D03*
X36417Y22244D02*
D03*
Y14370D02*
D03*
X28543Y22244D02*
D03*
Y14370D02*
D03*
X137697Y120472D02*
D03*
X129823Y128347D02*
D03*
Y120472D02*
D03*
X121949Y128347D02*
D03*
Y120472D02*
D03*
X114075Y128347D02*
D03*
Y120472D02*
D03*
X106201Y128347D02*
D03*
Y120472D02*
D03*
D121*
X13780Y13780D02*
D03*
X150709Y146850D02*
D03*
X13780Y185433D02*
D03*
D122*
X9370Y50728D02*
D03*
Y35728D02*
D03*
D123*
X9744Y169370D02*
D03*
Y142598D02*
D03*
D124*
X12205Y61417D02*
D03*
X12205Y73228D02*
D03*
M02*
