G04*
G04 #@! TF.GenerationSoftware,Altium Limited,Altium Designer,23.1.1 (15)*
G04*
G04 Layer_Color=8421504*
%FSLAX25Y25*%
%MOIN*%
G70*
G04*
G04 #@! TF.SameCoordinates,57D325FE-50AA-4423-B3C5-F19BAF70027F*
G04*
G04*
G04 #@! TF.FilePolarity,Positive*
G04*
G01*
G75*
G04:AMPARAMS|DCode=23|XSize=33.47mil|YSize=33.47mil|CornerRadius=4.18mil|HoleSize=0mil|Usage=FLASHONLY|Rotation=180.000|XOffset=0mil|YOffset=0mil|HoleType=Round|Shape=RoundedRectangle|*
%AMROUNDEDRECTD23*
21,1,0.03347,0.02510,0,0,180.0*
21,1,0.02510,0.03347,0,0,180.0*
1,1,0.00837,-0.01255,0.01255*
1,1,0.00837,0.01255,0.01255*
1,1,0.00837,0.01255,-0.01255*
1,1,0.00837,-0.01255,-0.01255*
%
%ADD23ROUNDEDRECTD23*%
%ADD24O,0.00984X0.00906*%
%ADD25O,0.00906X0.00984*%
%ADD26R,0.11811X0.11811*%
%ADD27R,0.11811X0.07874*%
%ADD28R,0.03937X0.02362*%
%ADD29R,0.01181X0.01063*%
%ADD30R,0.05512X0.04331*%
%ADD31R,0.01063X0.01181*%
%ADD32R,0.02362X0.01968*%
%ADD33R,0.01968X0.02362*%
%ADD34R,0.02953X0.03150*%
G04:AMPARAMS|DCode=35|XSize=11.81mil|YSize=10.63mil|CornerRadius=0mil|HoleSize=0mil|Usage=FLASHONLY|Rotation=135.000|XOffset=0mil|YOffset=0mil|HoleType=Round|Shape=Rectangle|*
%AMROTATEDRECTD35*
4,1,4,0.00793,-0.00042,0.00042,-0.00793,-0.00793,0.00042,-0.00042,0.00793,0.00793,-0.00042,0.0*
%
%ADD35ROTATEDRECTD35*%

%ADD36R,0.03150X0.02953*%
%ADD37R,0.00984X0.00787*%
%ADD38R,0.01968X0.02559*%
%ADD39R,0.02284X0.01968*%
%ADD40R,0.03150X0.02953*%
%ADD41R,0.03937X0.04134*%
%ADD42R,0.04134X0.08661*%
%ADD43R,0.02362X0.01181*%
%ADD44R,0.11417X0.01772*%
%ADD45R,0.07480X0.01772*%
%ADD46R,0.02756X0.02953*%
%ADD47R,0.01968X0.05512*%
%ADD48R,0.09449X0.01772*%
%ADD49R,0.02756X0.03543*%
%ADD50R,0.02362X0.02362*%
%ADD51R,0.02559X0.04724*%
%ADD52R,0.02559X0.01968*%
%ADD53R,0.04724X0.03937*%
%ADD54R,0.10827X0.05512*%
%ADD55R,0.10827X0.05472*%
%ADD56R,0.02756X0.02559*%
%ADD57R,0.02126X0.02126*%
%ADD58R,0.02126X0.01181*%
%ADD59R,0.01181X0.02126*%
%ADD60R,0.03150X0.03150*%
%ADD61R,0.01181X0.01181*%
%ADD62R,0.00984X0.00984*%
%ADD63C,0.00787*%
%ADD64R,0.03740X0.03347*%
%ADD65R,0.03937X0.01968*%
D23*
X128626Y24187D02*
D03*
D24*
X127051Y20860D02*
D03*
X128626D02*
D03*
X130201D02*
D03*
Y27514D02*
D03*
X128626D02*
D03*
X127051D02*
D03*
D25*
X125300Y21530D02*
D03*
Y23301D02*
D03*
X125300Y25073D02*
D03*
X125300Y26845D02*
D03*
X131953Y21530D02*
D03*
Y23301D02*
D03*
Y25073D02*
D03*
Y26845D02*
D03*
D26*
X191929Y7874D02*
D03*
Y114173D02*
D03*
D27*
Y19685D02*
D03*
Y61024D02*
D03*
Y102362D02*
D03*
D28*
X102721Y13359D02*
D03*
Y8241D02*
D03*
X114532D02*
D03*
Y13359D02*
D03*
D29*
X26894Y94149D02*
D03*
Y91904D02*
D03*
X29453Y94149D02*
D03*
Y91904D02*
D03*
X29158Y66504D02*
D03*
Y68748D02*
D03*
X139351Y24468D02*
D03*
Y26713D02*
D03*
X121926Y11565D02*
D03*
Y13809D02*
D03*
X122426Y19365D02*
D03*
X89700Y9678D02*
D03*
Y11922D02*
D03*
X83861Y19106D02*
D03*
Y21350D02*
D03*
X73031Y33495D02*
D03*
Y35739D02*
D03*
X77738Y33495D02*
D03*
Y35739D02*
D03*
X99410Y12622D02*
D03*
Y10378D02*
D03*
X130702Y56291D02*
D03*
X32012Y37646D02*
D03*
Y35402D02*
D03*
X34571Y37646D02*
D03*
Y35402D02*
D03*
X126326Y7066D02*
D03*
X126326Y9310D02*
D03*
X92810Y12622D02*
D03*
Y10378D02*
D03*
X122426Y21609D02*
D03*
X130702Y58535D02*
D03*
D30*
X34276Y95973D02*
D03*
Y90067D02*
D03*
X39394Y39476D02*
D03*
Y33571D02*
D03*
D31*
X143946Y43687D02*
D03*
X81122Y11693D02*
D03*
X78878D02*
D03*
X62657Y15816D02*
D03*
X60413D02*
D03*
X83022Y14657D02*
D03*
X85266D02*
D03*
X76057Y11693D02*
D03*
X73813Y11693D02*
D03*
X58622Y18200D02*
D03*
X56378D02*
D03*
X58622Y23400D02*
D03*
X56378D02*
D03*
X133524Y65748D02*
D03*
X135768D02*
D03*
X125643D02*
D03*
X127887D02*
D03*
X59022Y39700D02*
D03*
X56778D02*
D03*
X90512Y15551D02*
D03*
X92756D02*
D03*
X80589Y23528D02*
D03*
X82833D02*
D03*
X84889Y23528D02*
D03*
X87133D02*
D03*
X104378Y51000D02*
D03*
X106622D02*
D03*
X104378Y48500D02*
D03*
X106622D02*
D03*
X104378Y46000D02*
D03*
X106622D02*
D03*
X42209Y88295D02*
D03*
X44453D02*
D03*
X63422Y39700D02*
D03*
X61178D02*
D03*
X124170Y9287D02*
D03*
X121926D02*
D03*
X94987Y12500D02*
D03*
X97231D02*
D03*
X141702Y43687D02*
D03*
D32*
X143500Y21681D02*
D03*
X139563D02*
D03*
D33*
X183000Y12832D02*
D03*
Y16769D02*
D03*
D34*
X61565Y26843D02*
D03*
X56250D02*
D03*
X61558Y12400D02*
D03*
X56243D02*
D03*
X70877Y7917D02*
D03*
X76192D02*
D03*
X61565Y36043D02*
D03*
X56250D02*
D03*
X61565Y31443D02*
D03*
X56250D02*
D03*
X32602Y60539D02*
D03*
X27287D02*
D03*
D35*
X83244Y30597D02*
D03*
X84831Y32184D02*
D03*
D36*
X32701Y64969D02*
D03*
Y70284D02*
D03*
X140370Y35350D02*
D03*
Y30035D02*
D03*
X179200Y12143D02*
D03*
Y17458D02*
D03*
X66335Y8159D02*
D03*
Y13474D02*
D03*
D37*
X91632Y21358D02*
D03*
X90650Y19783D02*
D03*
Y18209D02*
D03*
X92618D02*
D03*
Y19783D02*
D03*
D38*
X39492Y92823D02*
D03*
Y89083D02*
D03*
X130709Y65650D02*
D03*
X139350Y18057D02*
D03*
Y14317D02*
D03*
X130709Y61909D02*
D03*
D39*
X107986Y62902D02*
D03*
X117120D02*
D03*
D40*
X108813Y58866D02*
D03*
Y66937D02*
D03*
X116294D02*
D03*
Y58866D02*
D03*
D41*
X130709Y69980D02*
D03*
D42*
X136516Y75984D02*
D03*
X124902Y75984D02*
D03*
D43*
X76947Y169009D02*
D03*
Y159402D02*
D03*
D44*
X81474Y182296D02*
D03*
Y138300D02*
D03*
D45*
X100568Y182296D02*
D03*
Y138300D02*
D03*
D46*
X116907Y180328D02*
D03*
D47*
X128521Y172867D02*
D03*
Y155544D02*
D03*
D48*
X120844Y138300D02*
D03*
D49*
X84230Y154599D02*
D03*
Y164206D02*
D03*
Y173812D02*
D03*
X96710Y154206D02*
D03*
Y174206D02*
D03*
Y164206D02*
D03*
D50*
X109820Y181410D02*
D03*
D51*
X124289Y166371D02*
D03*
D52*
X69682Y4017D02*
D03*
X65942D02*
D03*
D53*
X22441Y77165D02*
D03*
Y67323D02*
D03*
Y57480D02*
D03*
D54*
X125886Y107480D02*
D03*
Y91732D02*
D03*
X99311D02*
D03*
D55*
Y107480D02*
D03*
D56*
X89461Y39880D02*
D03*
Y28265D02*
D03*
X96941Y39880D02*
D03*
Y28265D02*
D03*
D57*
X38724Y85028D02*
D03*
Y44713D02*
D03*
X100693D02*
D03*
Y85028D02*
D03*
D58*
X38724Y82587D02*
D03*
Y80618D02*
D03*
Y78650D02*
D03*
Y76681D02*
D03*
Y74713D02*
D03*
Y72744D02*
D03*
Y70776D02*
D03*
Y68807D02*
D03*
Y64870D02*
D03*
Y62902D02*
D03*
Y60933D02*
D03*
Y58965D02*
D03*
Y56996D02*
D03*
Y55028D02*
D03*
Y53059D02*
D03*
Y51091D02*
D03*
Y49122D02*
D03*
Y47154D02*
D03*
X100693Y47153D02*
D03*
Y49122D02*
D03*
Y51091D02*
D03*
Y53059D02*
D03*
Y56996D02*
D03*
Y58965D02*
D03*
Y60933D02*
D03*
Y62902D02*
D03*
Y64870D02*
D03*
Y66839D02*
D03*
Y70776D02*
D03*
Y72744D02*
D03*
Y74713D02*
D03*
Y76681D02*
D03*
Y78650D02*
D03*
Y82587D02*
D03*
Y80618D02*
D03*
Y68807D02*
D03*
Y55028D02*
D03*
X38724Y66839D02*
D03*
D59*
X41165Y44713D02*
D03*
X43134D02*
D03*
X45102D02*
D03*
X47071D02*
D03*
X49039D02*
D03*
X51008D02*
D03*
X52976D02*
D03*
X54945D02*
D03*
X56913D02*
D03*
X58882D02*
D03*
X60850D02*
D03*
X62819D02*
D03*
X64787D02*
D03*
X66756D02*
D03*
X68724D02*
D03*
X70693D02*
D03*
X72661D02*
D03*
X74630D02*
D03*
X76598D02*
D03*
X78567D02*
D03*
X80535D02*
D03*
X82504D02*
D03*
X84472D02*
D03*
X86441D02*
D03*
X88409D02*
D03*
X90378D02*
D03*
X92346D02*
D03*
X94315D02*
D03*
X96283D02*
D03*
X96284Y85028D02*
D03*
X94315D02*
D03*
X92347D02*
D03*
X90378D02*
D03*
X88410D02*
D03*
X86441D02*
D03*
X84472D02*
D03*
X82504D02*
D03*
X80535D02*
D03*
X78567D02*
D03*
X76598D02*
D03*
X74630D02*
D03*
X72661D02*
D03*
X70693D02*
D03*
X68724D02*
D03*
X66756D02*
D03*
X64787D02*
D03*
X62819D02*
D03*
X60850D02*
D03*
X58882D02*
D03*
X56913D02*
D03*
X54945D02*
D03*
X52976D02*
D03*
X51008D02*
D03*
X49039D02*
D03*
X47071D02*
D03*
X45102D02*
D03*
X43134D02*
D03*
X41165D02*
D03*
X98252D02*
D03*
X98252Y44713D02*
D03*
D60*
X93331Y77469D02*
D03*
Y52272D02*
D03*
Y64870D02*
D03*
Y58571D02*
D03*
Y71169D02*
D03*
X85457Y52272D02*
D03*
Y64870D02*
D03*
Y58571D02*
D03*
Y71169D02*
D03*
Y77469D02*
D03*
X69709Y52272D02*
D03*
Y64870D02*
D03*
Y58571D02*
D03*
Y71169D02*
D03*
Y77469D02*
D03*
X77583Y52272D02*
D03*
Y64870D02*
D03*
Y58571D02*
D03*
Y71169D02*
D03*
Y77469D02*
D03*
X61835Y52272D02*
D03*
Y64870D02*
D03*
Y58571D02*
D03*
Y71169D02*
D03*
Y77469D02*
D03*
X53961D02*
D03*
Y71169D02*
D03*
Y58571D02*
D03*
Y64870D02*
D03*
Y52272D02*
D03*
X46087D02*
D03*
Y64870D02*
D03*
Y58571D02*
D03*
Y71169D02*
D03*
Y77469D02*
D03*
D61*
X52976Y81996D02*
D03*
X51008D02*
D03*
X47071D02*
D03*
X49039D02*
D03*
X68724D02*
D03*
X64787D02*
D03*
X66756D02*
D03*
X62819D02*
D03*
X82504D02*
D03*
X88410D02*
D03*
X84472D02*
D03*
X86441D02*
D03*
X47071Y47744D02*
D03*
X51008D02*
D03*
X49039D02*
D03*
X52976D02*
D03*
X68724D02*
D03*
X64787D02*
D03*
X66756D02*
D03*
X62819D02*
D03*
X82504D02*
D03*
X88410D02*
D03*
X84472D02*
D03*
X86441D02*
D03*
D62*
X140945Y40433D02*
D03*
X137795D02*
D03*
Y38858D02*
D03*
X139370Y38858D02*
D03*
X140945Y38858D02*
D03*
X139370Y40433D02*
D03*
D63*
X78335Y18016D02*
D03*
X76957D02*
D03*
X75580D02*
D03*
X74202D02*
D03*
X72824D02*
D03*
X71446D02*
D03*
X70068D02*
D03*
X68690D02*
D03*
X67312D02*
D03*
X65934D02*
D03*
X75580Y19394D02*
D03*
X70068D02*
D03*
X68690D02*
D03*
X67312D02*
D03*
X65934D02*
D03*
X78335Y20772D02*
D03*
X76957D02*
D03*
X74202D02*
D03*
X67312D02*
D03*
X75580Y22150D02*
D03*
X74202D02*
D03*
X72824D02*
D03*
X71446D02*
D03*
X70068D02*
D03*
X68690D02*
D03*
X67312D02*
D03*
X65934D02*
D03*
X78335Y23528D02*
D03*
X76957D02*
D03*
X74202D02*
D03*
X72824D02*
D03*
X71446D02*
D03*
X70068D02*
D03*
X68690D02*
D03*
X67312D02*
D03*
X78335Y24905D02*
D03*
X76957D02*
D03*
X74202D02*
D03*
X72824D02*
D03*
X71446D02*
D03*
X70068D02*
D03*
X68690D02*
D03*
X65934D02*
D03*
X78335Y26283D02*
D03*
X76957D02*
D03*
X74202D02*
D03*
X72824D02*
D03*
X71446D02*
D03*
X70068D02*
D03*
X68690D02*
D03*
X67312D02*
D03*
X78335Y27661D02*
D03*
X76957D02*
D03*
X68690D02*
D03*
X65934D02*
D03*
X78335Y29039D02*
D03*
X76957D02*
D03*
X75580D02*
D03*
X74202D02*
D03*
X72824D02*
D03*
X71446D02*
D03*
X70068D02*
D03*
X68690D02*
D03*
X67312D02*
D03*
X65934D02*
D03*
X78335Y30417D02*
D03*
X76957D02*
D03*
X75580D02*
D03*
X74202D02*
D03*
X72824D02*
D03*
X71446D02*
D03*
X70068D02*
D03*
X68690D02*
D03*
X67312D02*
D03*
X65934Y30417D02*
D03*
X67312Y27661D02*
D03*
X70068D02*
D03*
X71446D02*
D03*
X72824D02*
D03*
X74202D02*
D03*
X65934Y26283D02*
D03*
X75580D02*
D03*
X67312Y24905D02*
D03*
X75580D02*
D03*
X65934Y23528D02*
D03*
X75580D02*
D03*
X65934Y20772D02*
D03*
X68690D02*
D03*
X70068D02*
D03*
X71446D02*
D03*
X72824D02*
D03*
X71446Y19394D02*
D03*
X72824D02*
D03*
X74202D02*
D03*
D64*
X86354Y7764D02*
D03*
X80646Y7764D02*
D03*
X80646Y3236D02*
D03*
X86354D02*
D03*
D65*
X61700Y18615D02*
D03*
Y22945D02*
D03*
M02*
