G04*
G04 #@! TF.GenerationSoftware,Altium Limited,Altium Designer,23.1.1 (15)*
G04*
G04 Layer_Color=255*
%FSLAX25Y25*%
%MOIN*%
G70*
G04*
G04 #@! TF.SameCoordinates,57D325FE-50AA-4423-B3C5-F19BAF70027F*
G04*
G04*
G04 #@! TF.FilePolarity,Positive*
G04*
G01*
G75*
%ADD29R,0.01181X0.01063*%
%ADD31R,0.01063X0.01181*%
%ADD32R,0.02362X0.01968*%
%ADD34R,0.02953X0.03150*%
%ADD36R,0.03150X0.02953*%
%ADD63C,0.00787*%
%ADD121C,0.11811*%
%ADD123C,0.03543*%
%ADD126C,0.03937*%
%ADD127C,0.05906*%
%ADD128R,0.00906X0.00984*%
%ADD129R,0.00984X0.00906*%
%ADD130R,0.03937X0.03937*%
%ADD150O,0.06299X0.03543*%
%ADD151R,0.05906X0.05906*%
%ADD152R,0.05512X0.05512*%
%ADD153C,0.05512*%
%ADD154C,0.04016*%
%ADD155C,0.03347*%
%ADD158C,0.00984*%
%ADD160C,0.00500*%
%ADD166R,0.08661X0.08661*%
%ADD167R,0.01417X0.00984*%
%ADD168R,0.04800X0.03600*%
%ADD169R,0.06102X0.02362*%
%ADD170R,0.01181X0.03150*%
%ADD171R,0.05315X0.01575*%
%ADD172R,0.05512X0.06299*%
%ADD173R,0.06102X0.07480*%
%ADD174R,0.03937X0.07087*%
%ADD175R,0.07087X0.03937*%
%ADD176R,0.02559X0.03347*%
%ADD177R,0.06221X0.04173*%
%ADD178R,0.08583X0.02362*%
%ADD179R,0.04173X0.06221*%
%ADD180R,0.02362X0.08583*%
%ADD181R,0.07992X0.02992*%
%ADD182R,0.02165X0.01654*%
%ADD183R,0.03622X0.02795*%
%ADD184R,0.04000X0.03000*%
%ADD185R,0.01575X0.00984*%
%ADD186R,0.01575X0.02756*%
%ADD187R,0.02362X0.02165*%
%ADD188R,0.02165X0.02362*%
%ADD189R,0.06299X0.03937*%
%ADD190C,0.02756*%
%ADD191R,0.00984X0.02067*%
%ADD192R,0.03642X0.01181*%
%ADD193R,0.01575X0.01575*%
%ADD194R,0.02559X0.00984*%
%ADD195R,0.02953X0.05906*%
%ADD196C,0.00827*%
%ADD197O,0.00866X0.02559*%
%ADD198O,0.02559X0.00866*%
%ADD199R,0.05709X0.02165*%
%ADD200R,0.05709X0.02165*%
%ADD201R,0.01181X0.02047*%
%ADD202R,0.01181X0.01929*%
%ADD203R,0.01968X0.04331*%
%ADD204C,0.00925*%
%ADD205R,0.02362X0.10236*%
%ADD206R,0.07087X0.04724*%
%ADD207R,0.02756X0.05906*%
%ADD208R,0.01378X0.05906*%
D29*
X35500Y81075D02*
D03*
Y83319D02*
D03*
X122426Y15409D02*
D03*
Y13165D02*
D03*
Y19809D02*
D03*
X130100Y152922D02*
D03*
Y150678D02*
D03*
X136600Y152922D02*
D03*
Y150678D02*
D03*
X106800Y164422D02*
D03*
Y162178D02*
D03*
X113300Y164422D02*
D03*
Y162178D02*
D03*
X81496Y129075D02*
D03*
X81496Y126831D02*
D03*
Y121988D02*
D03*
X81496Y119744D02*
D03*
X138800Y93022D02*
D03*
Y90778D02*
D03*
X52700Y61122D02*
D03*
Y58878D02*
D03*
Y65822D02*
D03*
Y63578D02*
D03*
X96600Y171022D02*
D03*
Y168778D02*
D03*
X120326Y10866D02*
D03*
Y13110D02*
D03*
X138239Y7666D02*
D03*
X138239Y9910D02*
D03*
X124826Y5366D02*
D03*
X124826Y7610D02*
D03*
X134626Y14365D02*
D03*
Y16609D02*
D03*
X50513Y135940D02*
D03*
Y138184D02*
D03*
X33700Y166822D02*
D03*
Y164578D02*
D03*
X41213Y166806D02*
D03*
Y164562D02*
D03*
X43613Y164562D02*
D03*
Y166806D02*
D03*
X46013Y166806D02*
D03*
Y164562D02*
D03*
X38813Y164562D02*
D03*
Y166806D02*
D03*
X36413Y164562D02*
D03*
Y166806D02*
D03*
X99400Y163734D02*
D03*
X21100Y65322D02*
D03*
Y63078D02*
D03*
X63100Y55678D02*
D03*
Y57922D02*
D03*
X141779Y195731D02*
D03*
Y193487D02*
D03*
X126300Y188378D02*
D03*
Y190622D02*
D03*
X141779Y155619D02*
D03*
Y157863D02*
D03*
X126339Y155619D02*
D03*
Y157863D02*
D03*
X60820Y95181D02*
D03*
Y92937D02*
D03*
X45880Y90563D02*
D03*
Y88319D02*
D03*
X38400Y104722D02*
D03*
Y102478D02*
D03*
X68012Y87736D02*
D03*
Y85492D02*
D03*
X94468Y140847D02*
D03*
X99400Y161491D02*
D03*
X94468Y143090D02*
D03*
X72244Y82815D02*
D03*
X122426Y17565D02*
D03*
X72244Y80571D02*
D03*
D31*
X143001Y54297D02*
D03*
X140757Y54297D02*
D03*
X122648Y7587D02*
D03*
X120404D02*
D03*
X133817Y9003D02*
D03*
X136061D02*
D03*
X136848Y12187D02*
D03*
X134604D02*
D03*
X95622Y150100D02*
D03*
X93378D02*
D03*
X25278Y98600D02*
D03*
X27522D02*
D03*
X92278Y156600D02*
D03*
X94522D02*
D03*
X72078Y52200D02*
D03*
X74322D02*
D03*
X65822Y66600D02*
D03*
X63578D02*
D03*
X104378Y46000D02*
D03*
X106622D02*
D03*
X104378Y48500D02*
D03*
X106622D02*
D03*
X104378Y51000D02*
D03*
X106622D02*
D03*
X139678Y111988D02*
D03*
X141922D02*
D03*
X139678Y109288D02*
D03*
X141922D02*
D03*
X139678Y106588D02*
D03*
X141922D02*
D03*
X84222Y80100D02*
D03*
X81978D02*
D03*
X50878Y103000D02*
D03*
X53122Y103000D02*
D03*
X50878Y100500D02*
D03*
X53122D02*
D03*
X32478Y169000D02*
D03*
X34722D02*
D03*
X45991Y138362D02*
D03*
X48235D02*
D03*
X45991Y135962D02*
D03*
X48235D02*
D03*
X43378Y140500D02*
D03*
X45622D02*
D03*
X48422Y105700D02*
D03*
X46178D02*
D03*
X88622Y141100D02*
D03*
X86378D02*
D03*
D32*
X55120Y142148D02*
D03*
X51183D02*
D03*
X48034Y144098D02*
D03*
X44097D02*
D03*
D34*
X24643Y94400D02*
D03*
X29957D02*
D03*
X62843Y103500D02*
D03*
X68158D02*
D03*
X58664Y141558D02*
D03*
X63979D02*
D03*
X53070Y159862D02*
D03*
X47755D02*
D03*
X33855Y151662D02*
D03*
X39170D02*
D03*
X33855Y147162D02*
D03*
X39170D02*
D03*
X33855Y142662D02*
D03*
X39170D02*
D03*
D36*
X57713Y159620D02*
D03*
Y154305D02*
D03*
D63*
X36000Y128970D02*
D03*
Y131630D02*
D03*
X28000Y129070D02*
D03*
Y131530D02*
D03*
X121000Y133770D02*
D03*
Y136230D02*
D03*
X115500Y133770D02*
D03*
Y136230D02*
D03*
X71793Y42068D02*
D03*
Y44728D02*
D03*
X76293Y42068D02*
D03*
Y44728D02*
D03*
X89793Y42068D02*
D03*
Y44728D02*
D03*
X80793Y42068D02*
D03*
Y44728D02*
D03*
X85293Y42068D02*
D03*
Y44728D02*
D03*
X128591Y55118D02*
D03*
X131251D02*
D03*
X137057D02*
D03*
X134597D02*
D03*
X57070Y59000D02*
D03*
X59730D02*
D03*
D121*
X13780Y13780D02*
D03*
X150709Y146850D02*
D03*
X13780Y185433D02*
D03*
D123*
X9744Y169370D02*
D03*
Y142598D02*
D03*
D126*
X39300Y71400D02*
D03*
X115058Y54404D02*
D03*
Y48499D02*
D03*
Y42593D02*
D03*
X106201Y135000D02*
D03*
X18500Y130000D02*
D03*
X11000D02*
D03*
X3500D02*
D03*
X52165Y14370D02*
D03*
Y22244D02*
D03*
X51968Y83071D02*
D03*
X57874Y83071D02*
D03*
X63779Y83071D02*
D03*
X24016Y192913D02*
D03*
X7874Y25591D02*
D03*
X191732Y139370D02*
D03*
D127*
X27559Y169291D02*
D03*
Y161417D02*
D03*
X25900Y124000D02*
D03*
X35900D02*
D03*
X49900D02*
D03*
X59900Y124000D02*
D03*
X69900Y124000D02*
D03*
D128*
X125300Y12230D02*
D03*
X125300Y14002D02*
D03*
X125300Y15774D02*
D03*
X131953Y14002D02*
D03*
Y12230D02*
D03*
X125300Y17545D02*
D03*
X131953Y15774D02*
D03*
Y17545D02*
D03*
D129*
X127051Y18214D02*
D03*
X128626D02*
D03*
X130201D02*
D03*
Y11561D02*
D03*
X128626D02*
D03*
X127051D02*
D03*
D130*
X128626Y14888D02*
D03*
D150*
X5709Y86614D02*
D03*
Y112598D02*
D03*
D151*
X25900Y114000D02*
D03*
X35900D02*
D03*
X49900D02*
D03*
X59900Y114000D02*
D03*
X69900Y114000D02*
D03*
D152*
X44291Y22244D02*
D03*
X137697Y128346D02*
D03*
D153*
X44291Y14370D02*
D03*
X36417Y22244D02*
D03*
Y14370D02*
D03*
X28543Y22244D02*
D03*
Y14370D02*
D03*
X137697Y120472D02*
D03*
X129823Y128347D02*
D03*
Y120472D02*
D03*
X121949Y128347D02*
D03*
Y120472D02*
D03*
X114075Y128347D02*
D03*
Y120472D02*
D03*
X106201Y128347D02*
D03*
Y120472D02*
D03*
D154*
X9370Y50728D02*
D03*
Y35728D02*
D03*
D155*
X12205Y61417D02*
D03*
X12205Y73228D02*
D03*
D158*
X87906Y162266D02*
D03*
X89874D02*
D03*
X91843D02*
D03*
X93811D02*
D03*
X88890Y163979D02*
D03*
X92827D02*
D03*
X87906Y165691D02*
D03*
X89874D02*
D03*
X91843D02*
D03*
X93811D02*
D03*
D160*
X69638Y98100D02*
D03*
X72700Y98800D02*
D03*
X74300D02*
D03*
X72700Y100800D02*
D03*
X74300D02*
D03*
X71500Y106000D02*
D03*
Y107600D02*
D03*
X72700Y102800D02*
D03*
X74300D02*
D03*
X67200Y141000D02*
D03*
X68800D02*
D03*
X67229Y142829D02*
D03*
X68829D02*
D03*
X66334Y140466D02*
D03*
X67466Y139334D02*
D03*
X24300Y156500D02*
D03*
X22700D02*
D03*
X69638Y96500D02*
D03*
D166*
X106299Y76378D02*
D03*
X106299Y100787D02*
D03*
D167*
X39753Y65900D02*
D03*
X36446D02*
D03*
D168*
X96850Y91425D02*
D03*
Y105425D02*
D03*
D169*
X31496Y186055D02*
D03*
Y182118D02*
D03*
Y178181D02*
D03*
D170*
X49449Y54331D02*
D03*
X45512D02*
D03*
X134069Y137280D02*
D03*
X132100D02*
D03*
X130131D02*
D03*
Y147320D02*
D03*
X134069D02*
D03*
X110768Y148780D02*
D03*
X108800D02*
D03*
X106832D02*
D03*
Y158820D02*
D03*
X110768D02*
D03*
X43543Y54331D02*
D03*
X51417D02*
D03*
X47480D02*
D03*
X132100Y147320D02*
D03*
X108800Y158820D02*
D03*
D171*
X16240Y94488D02*
D03*
Y97047D02*
D03*
Y99606D02*
D03*
Y104724D02*
D03*
Y102165D02*
D03*
D172*
X15354Y87008D02*
D03*
Y112205D02*
D03*
D173*
X5709Y104331D02*
D03*
Y94882D02*
D03*
D174*
X57497Y147777D02*
D03*
X64583D02*
D03*
D175*
X64013Y157928D02*
D03*
Y165015D02*
D03*
D176*
X148524Y110335D02*
D03*
X145177D02*
D03*
Y104626D02*
D03*
X148524D02*
D03*
D177*
X145834Y186134D02*
D03*
Y162906D02*
D03*
D178*
X144653Y181606D02*
D03*
Y178063D02*
D03*
Y174520D02*
D03*
Y170976D02*
D03*
Y167433D02*
D03*
D179*
X186713Y145866D02*
D03*
X163484D02*
D03*
D180*
X168012Y144685D02*
D03*
X171555D02*
D03*
X175098D02*
D03*
X178642D02*
D03*
X182185D02*
D03*
D181*
X20374Y33228D02*
D03*
X32382D02*
D03*
X20374Y38228D02*
D03*
X32382D02*
D03*
X20374Y43228D02*
D03*
Y53228D02*
D03*
X32382D02*
D03*
Y48228D02*
D03*
Y43228D02*
D03*
X20374Y48228D02*
D03*
D182*
X130339Y189491D02*
D03*
Y192050D02*
D03*
Y194609D02*
D03*
X137779D02*
D03*
Y192050D02*
D03*
Y189491D02*
D03*
X130339Y156741D02*
D03*
Y159300D02*
D03*
Y161859D02*
D03*
X137779D02*
D03*
Y159300D02*
D03*
Y156741D02*
D03*
X57320Y94559D02*
D03*
Y92000D02*
D03*
Y89441D02*
D03*
X49880D02*
D03*
Y92000D02*
D03*
Y94559D02*
D03*
X130787Y114370D02*
D03*
Y111811D02*
D03*
Y109252D02*
D03*
X123346D02*
D03*
Y111811D02*
D03*
Y114370D02*
D03*
X114842D02*
D03*
Y111811D02*
D03*
Y109252D02*
D03*
X107402D02*
D03*
Y111811D02*
D03*
Y114370D02*
D03*
D183*
X134059Y193921D02*
D03*
Y190180D02*
D03*
Y161170D02*
D03*
Y157430D02*
D03*
X53600Y90130D02*
D03*
Y93870D02*
D03*
X127067Y109941D02*
D03*
Y113681D02*
D03*
X111122Y109941D02*
D03*
Y113681D02*
D03*
D184*
X88600Y78500D02*
D03*
Y85980D02*
D03*
X96868Y82240D02*
D03*
D185*
X41022Y104714D02*
D03*
Y106486D02*
D03*
D186*
X43778Y105600D02*
D03*
D187*
X131532Y174500D02*
D03*
X135469D02*
D03*
X131532Y181500D02*
D03*
X135469D02*
D03*
X131532Y171000D02*
D03*
X135469D02*
D03*
X131532Y178000D02*
D03*
X135469D02*
D03*
X131532Y185000D02*
D03*
X135469D02*
D03*
X131532Y167500D02*
D03*
X135469D02*
D03*
X61831Y153800D02*
D03*
X65768D02*
D03*
D188*
X32100Y134632D02*
D03*
Y138568D02*
D03*
X53400Y137469D02*
D03*
Y133531D02*
D03*
D189*
X4232Y155984D02*
D03*
Y165827D02*
D03*
X15256Y146142D02*
D03*
Y155984D02*
D03*
Y165827D02*
D03*
X4232Y146142D02*
D03*
D190*
X59055Y77264D02*
D03*
X51181D02*
D03*
D191*
X142747Y48527D02*
D03*
X140779D02*
D03*
X138810D02*
D03*
X138810Y51381D02*
D03*
X140779D02*
D03*
X142747D02*
D03*
D192*
X137169Y146237D02*
D03*
Y140331D02*
D03*
X127031Y138363D02*
D03*
Y142300D02*
D03*
Y144269D02*
D03*
Y146237D02*
D03*
X113869Y157737D02*
D03*
Y151831D02*
D03*
X103731Y149863D02*
D03*
Y153800D02*
D03*
Y155769D02*
D03*
Y157737D02*
D03*
X137169Y144269D02*
D03*
Y142300D02*
D03*
Y138363D02*
D03*
X127031Y140331D02*
D03*
X103731Y151831D02*
D03*
X113869Y149863D02*
D03*
Y153800D02*
D03*
Y155769D02*
D03*
D193*
X94095Y120079D02*
D03*
Y123228D02*
D03*
Y126378D02*
D03*
Y129528D02*
D03*
X84646D02*
D03*
Y126378D02*
D03*
Y123228D02*
D03*
Y120079D02*
D03*
D194*
X142618Y88779D02*
D03*
Y90748D02*
D03*
Y92716D02*
D03*
Y94685D02*
D03*
X151083D02*
D03*
Y92716D02*
D03*
Y90748D02*
D03*
Y88779D02*
D03*
D195*
X146850Y91732D02*
D03*
D196*
X52050Y155299D02*
D03*
X50475D02*
D03*
X48900D02*
D03*
X47325D02*
D03*
X45750D02*
D03*
X44176D02*
D03*
X52050Y153724D02*
D03*
X50475D02*
D03*
X48900D02*
D03*
X47325D02*
D03*
X45750D02*
D03*
X44176D02*
D03*
X52050Y152150D02*
D03*
X50475D02*
D03*
X45750D02*
D03*
X44176D02*
D03*
X52050Y150575D02*
D03*
X50475D02*
D03*
X45750D02*
D03*
X44176D02*
D03*
X52050Y149000D02*
D03*
X50475D02*
D03*
X48900D02*
D03*
X47325D02*
D03*
X45750D02*
D03*
X44176D02*
D03*
X52050Y147425D02*
D03*
X50475D02*
D03*
X48900D02*
D03*
X47325D02*
D03*
X45750D02*
D03*
X44176D02*
D03*
D197*
X66762Y45852D02*
D03*
X65187D02*
D03*
X63613D02*
D03*
X62038D02*
D03*
X63613Y52348D02*
D03*
X65187D02*
D03*
X66762D02*
D03*
X87862Y145652D02*
D03*
X84713D02*
D03*
X83138Y145652D02*
D03*
Y152148D02*
D03*
X86287D02*
D03*
X87862D02*
D03*
X86287Y145652D02*
D03*
X62038Y52348D02*
D03*
X84713Y152148D02*
D03*
D198*
X59577Y46738D02*
D03*
Y48313D02*
D03*
Y49887D02*
D03*
Y51462D02*
D03*
X69223Y49887D02*
D03*
Y48313D02*
D03*
Y46738D02*
D03*
X80677Y146538D02*
D03*
Y148113D02*
D03*
Y149687D02*
D03*
Y151262D02*
D03*
X90323D02*
D03*
Y149687D02*
D03*
Y148113D02*
D03*
Y146538D02*
D03*
X69223Y51462D02*
D03*
D199*
X21668Y73460D02*
D03*
D200*
X21668Y77200D02*
D03*
Y80940D02*
D03*
X30132D02*
D03*
Y73460D02*
D03*
D201*
X63832Y63796D02*
D03*
D202*
X65800Y63776D02*
D03*
X67769D02*
D03*
Y60824D02*
D03*
X65800D02*
D03*
X63832D02*
D03*
D203*
X101299Y192927D02*
D03*
X111299D02*
D03*
Y171273D02*
D03*
X106299D02*
D03*
X101299D02*
D03*
X106299Y192927D02*
D03*
X116299D02*
D03*
Y171273D02*
D03*
D204*
X68110Y80709D02*
D03*
Y82284D02*
D03*
X69685D02*
D03*
Y80709D02*
D03*
D205*
X54961Y45276D02*
D03*
X40000D02*
D03*
D206*
X46752Y171882D02*
D03*
Y192354D02*
D03*
D207*
X111299Y185840D02*
D03*
Y178359D02*
D03*
X106299Y185840D02*
D03*
Y178359D02*
D03*
D208*
X101988Y185840D02*
D03*
Y178359D02*
D03*
X115610D02*
D03*
Y185840D02*
D03*
M02*
