G04*
G04 #@! TF.GenerationSoftware,Altium Limited,Altium Designer,23.1.1 (15)*
G04*
G04 Layer_Physical_Order=2*
G04 Layer_Color=36540*
%FSLAX25Y25*%
%MOIN*%
G70*
G04*
G04 #@! TF.SameCoordinates,57D325FE-50AA-4423-B3C5-F19BAF70027F*
G04*
G04*
G04 #@! TF.FilePolarity,Positive*
G04*
G01*
G75*
%ADD10C,0.00591*%
%ADD11C,0.00787*%
%ADD12C,0.00600*%
%ADD16C,0.00492*%
%ADD132C,0.01500*%
%ADD133C,0.02000*%
%ADD140C,0.00650*%
%ADD142C,0.00700*%
%ADD150O,0.06299X0.03543*%
%ADD151R,0.05906X0.05906*%
%ADD152R,0.05512X0.05512*%
%ADD153C,0.05512*%
%ADD156C,0.01378*%
%ADD157C,0.01181*%
%ADD158C,0.00984*%
%ADD159C,0.02400*%
G36*
X151767Y174410D02*
X151767Y174409D01*
X151767D01*
X151786Y173474D01*
X151844Y172540D01*
X151941Y171609D01*
X152076Y170683D01*
X152249Y169763D01*
X152460Y168851D01*
X152708Y167949D01*
X152994Y167057D01*
X153316Y166179D01*
X153674Y165314D01*
X154068Y164465D01*
X154496Y163633D01*
X154958Y162819D01*
X155454Y162025D01*
X155982Y161252D01*
X156541Y160502D01*
X156991Y159949D01*
X156764Y159449D01*
X150590Y159449D01*
X150590Y153740D01*
X150217Y153727D01*
X149727Y153674D01*
X149243Y153587D01*
X148766Y153465D01*
X148299Y153310D01*
X147845Y153121D01*
X147405Y152901D01*
X146981Y152650D01*
X146577Y152369D01*
X146194Y152061D01*
X145834Y151725D01*
X145498Y151365D01*
X145190Y150982D01*
X144909Y150578D01*
X144658Y150154D01*
X144438Y149714D01*
X144249Y149260D01*
X144094Y148793D01*
X143972Y148316D01*
X143885Y147831D01*
X143832Y147342D01*
X143815Y146850D01*
X143832Y146359D01*
X143885Y145869D01*
X143972Y145385D01*
X144094Y144908D01*
X144249Y144441D01*
X144438Y143986D01*
X144658Y143546D01*
X144909Y143123D01*
X145190Y142719D01*
X145498Y142336D01*
X145834Y141975D01*
X146194Y141640D01*
X146577Y141331D01*
X146981Y141051D01*
X147405Y140799D01*
X147845Y140579D01*
X148299Y140391D01*
X148766Y140235D01*
X149243Y140114D01*
X149727Y140026D01*
X150217Y139974D01*
X150590Y139960D01*
X150591Y4480D01*
X150109Y4358D01*
X150020Y4572D01*
X149898Y4770D01*
X149747Y4947D01*
X149571Y5098D01*
X149372Y5220D01*
X149158Y5308D01*
X148932Y5363D01*
X148700Y5381D01*
X148468Y5363D01*
X148242Y5308D01*
X148028Y5220D01*
X147829Y5098D01*
X147653Y4947D01*
X147502Y4770D01*
X147380Y4572D01*
X147292Y4358D01*
X147237Y4132D01*
X147219Y3900D01*
X147237Y3668D01*
X147292Y3442D01*
X147380Y3228D01*
X147502Y3029D01*
X147653Y2853D01*
X147829Y2702D01*
X148028Y2581D01*
X148242Y2492D01*
X148468Y2437D01*
X148700Y2419D01*
X148932Y2437D01*
X149158Y2492D01*
X149372Y2581D01*
X149571Y2702D01*
X149747Y2853D01*
X149898Y3029D01*
X150020Y3228D01*
X150109Y3442D01*
X150591Y3320D01*
X150591Y1383D01*
X116500D01*
Y30682D01*
X100752D01*
X100752Y7060D01*
Y2062D01*
X100293Y1754D01*
X100076Y1784D01*
X99950Y1928D01*
X99736Y2115D01*
X99500Y2273D01*
X99246Y2398D01*
X98977Y2490D01*
X98698Y2545D01*
X98415Y2564D01*
X98132Y2545D01*
X97853Y2490D01*
X97585Y2398D01*
X97330Y2273D01*
X97094Y2115D01*
X96881Y1928D01*
X96755Y1784D01*
X96447Y1742D01*
X96139Y1784D01*
X96013Y1928D01*
X95799Y2115D01*
X95563Y2273D01*
X95309Y2398D01*
X95040Y2490D01*
X94761Y2545D01*
X94478Y2564D01*
X94195Y2545D01*
X93916Y2490D01*
X93648Y2398D01*
X93393Y2273D01*
X93157Y2115D01*
X92944Y1928D01*
X92756Y1715D01*
X92599Y1479D01*
X92552Y1383D01*
X63981D01*
Y7087D01*
X63962Y7280D01*
X63906Y7465D01*
X63815Y7636D01*
X63692Y7786D01*
X63542Y7909D01*
X63371Y8000D01*
X63263Y8033D01*
X63192Y8291D01*
X63235Y8554D01*
X63371Y8610D01*
X63569Y8732D01*
X63746Y8883D01*
X63897Y9059D01*
X64018Y9258D01*
X64107Y9472D01*
X64161Y9698D01*
X64179Y9930D01*
X64161Y10162D01*
X64107Y10388D01*
X64018Y10602D01*
X63897Y10800D01*
X63746Y10977D01*
X63569Y11128D01*
X63371Y11249D01*
X63156Y11338D01*
X62930Y11393D01*
X62698Y11411D01*
X62467Y11393D01*
X62241Y11338D01*
X62026Y11249D01*
X61828Y11128D01*
X61651Y10977D01*
X61500Y10800D01*
X61379Y10602D01*
X61290Y10388D01*
X61236Y10162D01*
X61217Y9930D01*
X61236Y9698D01*
X61290Y9472D01*
X61379Y9258D01*
X61500Y9059D01*
X61651Y8883D01*
X61828Y8732D01*
X62026Y8610D01*
X62110Y8576D01*
X62011Y8076D01*
X46645D01*
X46541Y8305D01*
X46524Y8576D01*
X46580Y8610D01*
X46704Y8716D01*
X50233Y12245D01*
X50339Y12369D01*
X50424Y12507D01*
X50486Y12658D01*
X50524Y12816D01*
X50537Y12978D01*
Y16365D01*
X52155Y17983D01*
X55580D01*
X55760Y17581D01*
X55772Y17483D01*
X55662Y17354D01*
X55556Y17183D01*
X55479Y16997D01*
X55432Y16801D01*
X55417Y16600D01*
X55432Y16399D01*
X55479Y16203D01*
X55556Y16017D01*
X55662Y15846D01*
X55792Y15692D01*
X55946Y15562D01*
X56117Y15456D01*
X56303Y15379D01*
X56499Y15332D01*
X56700Y15316D01*
X56901Y15332D01*
X57097Y15379D01*
X57283Y15456D01*
X57454Y15562D01*
X57608Y15692D01*
X57738Y15846D01*
X57844Y16017D01*
X57921Y16203D01*
X57968Y16399D01*
X57969Y16411D01*
X59915Y18357D01*
X64346D01*
X64538Y17895D01*
X61822Y15179D01*
X61735Y15144D01*
X61564Y15038D01*
X61410Y14908D01*
X61280Y14754D01*
X61174Y14583D01*
X61097Y14397D01*
X61050Y14201D01*
X61035Y14000D01*
X61050Y13799D01*
X61097Y13603D01*
X61174Y13417D01*
X61280Y13246D01*
X61410Y13092D01*
X61564Y12962D01*
X61735Y12856D01*
X61921Y12779D01*
X62117Y12732D01*
X62318Y12717D01*
X62519Y12732D01*
X62715Y12779D01*
X62901Y12856D01*
X63072Y12962D01*
X63226Y13092D01*
X63356Y13246D01*
X63462Y13417D01*
X63498Y13504D01*
X66752Y16759D01*
X67810D01*
X67996Y16773D01*
X68176Y16817D01*
X68348Y16888D01*
X68507Y16985D01*
X68514Y16991D01*
X68824Y16842D01*
X68949Y16705D01*
X68911Y16549D01*
X68893Y16317D01*
X68911Y16086D01*
X68966Y15860D01*
X69055Y15645D01*
X69176Y15447D01*
X69327Y15270D01*
X69503Y15119D01*
X69702Y14998D01*
X69916Y14909D01*
X70142Y14855D01*
X70374Y14836D01*
X70606Y14855D01*
X70832Y14909D01*
X71046Y14998D01*
X71245Y15119D01*
X71309Y15174D01*
X71374Y15119D01*
X71572Y14998D01*
X71786Y14909D01*
X72012Y14855D01*
X72244Y14836D01*
X72476Y14855D01*
X72702Y14909D01*
X72916Y14998D01*
X73115Y15119D01*
X73179Y15174D01*
X73244Y15119D01*
X73442Y14998D01*
X73656Y14909D01*
X73883Y14855D01*
X74114Y14836D01*
X74346Y14855D01*
X74496Y14891D01*
X74657Y14724D01*
X74780Y14454D01*
X74574Y14184D01*
X74514Y14159D01*
X74342Y14053D01*
X74189Y13923D01*
X74058Y13769D01*
X73953Y13598D01*
X73876Y13412D01*
X73829Y13216D01*
X73813Y13015D01*
X73829Y12814D01*
X73876Y12618D01*
X73953Y12432D01*
X74058Y12261D01*
X74189Y12107D01*
X74342Y11977D01*
X74514Y11871D01*
X74700Y11794D01*
X74896Y11747D01*
X75096Y11732D01*
X75297Y11747D01*
X75493Y11794D01*
X75679Y11871D01*
X75851Y11977D01*
X76004Y12107D01*
X76135Y12261D01*
X76240Y12432D01*
X76276Y12519D01*
X77047Y13290D01*
X81845D01*
X82023Y13266D01*
X82310Y13031D01*
X82389Y12866D01*
X82414Y12764D01*
X82503Y12550D01*
X82624Y12352D01*
X82775Y12175D01*
X82951Y12024D01*
X83150Y11902D01*
X83364Y11813D01*
X83590Y11759D01*
X83822Y11741D01*
X84054Y11759D01*
X84280Y11813D01*
X84494Y11902D01*
X84693Y12024D01*
X84869Y12175D01*
X85020Y12352D01*
X85141Y12550D01*
X85230Y12764D01*
X85285Y12990D01*
X85303Y13222D01*
X85285Y13454D01*
X85230Y13680D01*
X85141Y13894D01*
X85020Y14093D01*
X84869Y14269D01*
X84693Y14420D01*
X84494Y14541D01*
X84457Y14557D01*
X84315Y15003D01*
X84327Y15133D01*
X84431Y15237D01*
X84517Y15273D01*
X84689Y15378D01*
X84842Y15509D01*
X84973Y15662D01*
X85078Y15834D01*
X85155Y16020D01*
X85202Y16216D01*
X85218Y16417D01*
X85202Y16617D01*
X85155Y16813D01*
X85078Y16999D01*
X84973Y17171D01*
X84842Y17324D01*
X84689Y17455D01*
X84517Y17560D01*
X84331Y17637D01*
X84135Y17684D01*
X83935Y17700D01*
X83734Y17684D01*
X83538Y17637D01*
X83352Y17560D01*
X83180Y17455D01*
X83027Y17324D01*
X82896Y17171D01*
X82791Y16999D01*
X82755Y16913D01*
X81877Y16035D01*
X81699Y16058D01*
X81370Y16235D01*
X81363Y16332D01*
X81309Y16558D01*
X81220Y16772D01*
X81098Y16971D01*
X80848Y17399D01*
X80973Y17562D01*
X81078Y17734D01*
X81155Y17920D01*
X81202Y18116D01*
X81216Y18292D01*
X81231Y18296D01*
X81417Y18373D01*
X81589Y18478D01*
X81742Y18609D01*
X81873Y18762D01*
X81978Y18934D01*
X82055Y19120D01*
X82102Y19316D01*
X82118Y19517D01*
X82102Y19717D01*
X82055Y19913D01*
X81978Y20099D01*
X81873Y20271D01*
X81742Y20424D01*
X81589Y20555D01*
X81417Y20660D01*
X81231Y20737D01*
X81124Y20763D01*
X80361Y21526D01*
X80232Y21636D01*
X80087Y21725D01*
X79929Y21790D01*
X79764Y21830D01*
X79594Y21844D01*
X78063D01*
X78001Y21939D01*
X78021Y22052D01*
X78239Y22399D01*
X78257Y22401D01*
X78431Y22443D01*
X78597Y22511D01*
X78749Y22605D01*
X78886Y22721D01*
X83478Y27313D01*
X83627Y27277D01*
X83858Y27259D01*
X84090Y27277D01*
X84316Y27332D01*
X84531Y27421D01*
X84729Y27542D01*
X84905Y27693D01*
X85056Y27870D01*
X85178Y28068D01*
X85267Y28282D01*
X85368Y28537D01*
X85600Y28519D01*
X85832Y28537D01*
X86058Y28591D01*
X86272Y28681D01*
X86471Y28802D01*
X86647Y28953D01*
X86798Y29129D01*
X86919Y29328D01*
X87009Y29542D01*
X87063Y29768D01*
X87081Y30000D01*
X87063Y30232D01*
X87009Y30458D01*
X86919Y30672D01*
X86798Y30871D01*
X86647Y31047D01*
X86471Y31198D01*
X86272Y31319D01*
X86058Y31409D01*
X85832Y31463D01*
X85600Y31481D01*
X85368Y31463D01*
X85142Y31409D01*
X84928Y31319D01*
X84729Y31198D01*
X84553Y31047D01*
X84431Y30904D01*
X83943Y30855D01*
X83908Y30854D01*
X83608Y31136D01*
X83612Y31403D01*
X83697Y31542D01*
X83759Y31692D01*
X83797Y31851D01*
X83810Y32013D01*
Y32318D01*
X84205Y32735D01*
X84436Y32753D01*
X84662Y32807D01*
X84877Y32896D01*
X84974Y32956D01*
X85174Y32950D01*
X85251Y32930D01*
X85561Y32775D01*
X85580Y32728D01*
X85702Y32530D01*
X85853Y32353D01*
X86029Y32202D01*
X86228Y32081D01*
X86442Y31991D01*
X86668Y31937D01*
X86900Y31919D01*
X87132Y31937D01*
X87358Y31991D01*
X87572Y32081D01*
X87770Y32202D01*
X87947Y32353D01*
X88098Y32530D01*
X88219Y32728D01*
X88309Y32942D01*
X88363Y33168D01*
X88381Y33400D01*
X88363Y33632D01*
X88309Y33858D01*
X88219Y34072D01*
X88098Y34271D01*
X87947Y34447D01*
X87824Y34553D01*
X87784Y34850D01*
X87824Y35147D01*
X87947Y35253D01*
X88098Y35429D01*
X88219Y35628D01*
X88309Y35842D01*
X88363Y36068D01*
X88381Y36300D01*
X88363Y36532D01*
X88309Y36758D01*
X88219Y36972D01*
X88098Y37170D01*
X88030Y37250D01*
X88098Y37330D01*
X88219Y37528D01*
X88309Y37742D01*
X88363Y37968D01*
X88381Y38200D01*
X88363Y38432D01*
X88309Y38658D01*
X88219Y38872D01*
X88098Y39070D01*
X87947Y39247D01*
X87770Y39398D01*
X87572Y39520D01*
X87358Y39608D01*
X87132Y39663D01*
X86900Y39681D01*
X86668Y39663D01*
X86442Y39608D01*
X86228Y39520D01*
X86029Y39398D01*
X85853Y39247D01*
X85702Y39070D01*
X85580Y38872D01*
X85492Y38658D01*
X85437Y38432D01*
X85419Y38200D01*
X85437Y37968D01*
X85492Y37742D01*
X85580Y37528D01*
X85702Y37330D01*
X85770Y37250D01*
X85702Y37170D01*
X85580Y36972D01*
X85492Y36758D01*
X85437Y36532D01*
X85419Y36300D01*
X85437Y36068D01*
X85492Y35842D01*
X85580Y35628D01*
X85180Y35324D01*
X85075Y35414D01*
X84877Y35535D01*
X84662Y35624D01*
X84436Y35678D01*
X84205Y35697D01*
X83810Y36114D01*
Y43587D01*
X84901Y44679D01*
X85007Y44803D01*
X85092Y44942D01*
X85154Y45092D01*
X85192Y45250D01*
X85205Y45412D01*
Y49136D01*
X85192Y49298D01*
X85154Y49456D01*
X85092Y49606D01*
X85007Y49745D01*
X84901Y49869D01*
X82593Y52178D01*
X82469Y52283D01*
X82331Y52368D01*
X82180Y52430D01*
X82022Y52468D01*
X81860Y52481D01*
X68545D01*
X68382Y52468D01*
X68224Y52430D01*
X68074Y52368D01*
X67935Y52283D01*
X67811Y52178D01*
X66714Y51080D01*
X66700Y51081D01*
X66468Y51063D01*
X66242Y51008D01*
X66028Y50920D01*
X65829Y50798D01*
X65750Y50730D01*
X65671Y50798D01*
X65472Y50920D01*
X65258Y51008D01*
X65032Y51063D01*
X64800Y51081D01*
X64568Y51063D01*
X64342Y51008D01*
X64128Y50920D01*
X63929Y50798D01*
X63753Y50647D01*
X63602Y50471D01*
X63481Y50272D01*
X63392Y50058D01*
X63337Y49832D01*
X63319Y49600D01*
X63337Y49368D01*
X63392Y49142D01*
X63481Y48928D01*
X63602Y48730D01*
X63753Y48553D01*
X63929Y48402D01*
X64128Y48281D01*
X64342Y48191D01*
X64568Y48137D01*
X64599Y48135D01*
X65294Y47440D01*
X65418Y47334D01*
X65557Y47249D01*
X65707Y47187D01*
X65865Y47149D01*
X66027Y47136D01*
X67673D01*
X67835Y47149D01*
X67993Y47187D01*
X68143Y47249D01*
X68282Y47334D01*
X68406Y47440D01*
X70103Y49137D01*
X70728Y49055D01*
X70821Y48924D01*
X70819Y48900D01*
X70837Y48668D01*
X70891Y48442D01*
X70981Y48228D01*
X71002Y48193D01*
X70846Y48060D01*
X70695Y47883D01*
X70573Y47685D01*
X70484Y47470D01*
X70430Y47244D01*
X70412Y47013D01*
X70430Y46781D01*
X70484Y46555D01*
X70573Y46340D01*
X70695Y46142D01*
X70846Y45965D01*
X71022Y45814D01*
X71220Y45693D01*
X71435Y45604D01*
X71661Y45550D01*
X71893Y45532D01*
X72124Y45550D01*
X72351Y45604D01*
X72565Y45693D01*
X72763Y45814D01*
X72886Y45919D01*
X72891Y45915D01*
X73089Y45793D01*
X73304Y45704D01*
X73530Y45650D01*
X73761Y45632D01*
X73993Y45650D01*
X74219Y45704D01*
X74434Y45793D01*
X74632Y45915D01*
X74809Y46065D01*
X74959Y46242D01*
X75081Y46440D01*
X75207Y46646D01*
X75656Y46540D01*
X75668Y46537D01*
X75900Y46519D01*
X76095Y46534D01*
X76180Y46328D01*
X76302Y46130D01*
X76453Y45953D01*
X76630Y45802D01*
X76828Y45680D01*
X77042Y45592D01*
X77268Y45537D01*
X77500Y45519D01*
X77732Y45537D01*
X77958Y45592D01*
X78172Y45680D01*
X78370Y45802D01*
X78547Y45953D01*
X78698Y46130D01*
X78771Y46249D01*
X79059Y46286D01*
X79215Y46258D01*
X79321Y46232D01*
X79437Y46042D01*
X79588Y45865D01*
X79636Y45825D01*
X79928Y45485D01*
X79818Y45152D01*
X79780Y44994D01*
X79768Y44832D01*
Y41220D01*
X79715Y41118D01*
X79300Y40781D01*
X79068Y40763D01*
X78842Y40709D01*
X78758Y40673D01*
X78698Y40771D01*
X78547Y40947D01*
X78370Y41098D01*
X78172Y41219D01*
X77958Y41309D01*
X77732Y41363D01*
X77500Y41381D01*
X77268Y41363D01*
X77042Y41309D01*
X76828Y41219D01*
X76610Y41116D01*
X76256Y41437D01*
X76247Y41447D01*
X76070Y41598D01*
X75872Y41719D01*
X75658Y41809D01*
X75432Y41863D01*
X75200Y41881D01*
X74968Y41863D01*
X74742Y41809D01*
X74528Y41719D01*
X74330Y41598D01*
X74153Y41447D01*
X74147D01*
X73971Y41598D01*
X73772Y41719D01*
X73558Y41809D01*
X73332Y41863D01*
X73100Y41881D01*
X72868Y41863D01*
X72642Y41809D01*
X72428Y41719D01*
X72229Y41598D01*
X72053Y41447D01*
X71902Y41271D01*
X71781Y41072D01*
X71692Y40858D01*
X71637Y40632D01*
X71619Y40400D01*
X71637Y40168D01*
X71683Y39980D01*
X71549Y39794D01*
X71284Y39620D01*
X71223Y39645D01*
X71065Y39683D01*
X70903Y39696D01*
X70847D01*
X70769Y39740D01*
X70468Y40162D01*
X70465Y40196D01*
X70481Y40400D01*
X70463Y40632D01*
X70408Y40858D01*
X70319Y41072D01*
X70198Y41271D01*
X70047Y41447D01*
X69871Y41598D01*
X69672Y41719D01*
X69458Y41809D01*
X69232Y41863D01*
X69000Y41881D01*
X68553Y42271D01*
Y43952D01*
X68540Y44115D01*
X68502Y44273D01*
X68440Y44423D01*
X68355Y44562D01*
X68249Y44686D01*
X68236Y44699D01*
X68237Y44713D01*
X68218Y44944D01*
X68164Y45170D01*
X68075Y45385D01*
X67954Y45583D01*
X67803Y45760D01*
X67626Y45911D01*
X67428Y46032D01*
X67213Y46121D01*
X66988Y46175D01*
X66756Y46194D01*
X66524Y46175D01*
X66298Y46121D01*
X66084Y46032D01*
X65885Y45911D01*
X65709Y45760D01*
X65558Y45583D01*
X65436Y45385D01*
X65347Y45170D01*
X65293Y44944D01*
X65275Y44713D01*
X65293Y44481D01*
X65347Y44255D01*
X65436Y44040D01*
X65427Y43884D01*
X65062Y43644D01*
X64975Y43608D01*
X64794Y43720D01*
X64579Y43808D01*
X64353Y43863D01*
X64121Y43881D01*
X63890Y43863D01*
X63664Y43808D01*
X63449Y43720D01*
X63251Y43598D01*
X63160Y43521D01*
X63070Y43598D01*
X62871Y43720D01*
X62657Y43808D01*
X62431Y43863D01*
X62199Y43881D01*
X61967Y43863D01*
X61742Y43808D01*
X61527Y43720D01*
X61329Y43598D01*
X61152Y43447D01*
X61001Y43270D01*
X60880Y43072D01*
X60791Y42858D01*
X60736Y42632D01*
X60718Y42400D01*
X60736Y42168D01*
X60791Y41942D01*
X60880Y41728D01*
X61001Y41530D01*
X61152Y41353D01*
X61329Y41202D01*
X61527Y41080D01*
X61742Y40992D01*
X61967Y40937D01*
X62199Y40919D01*
X62431Y40937D01*
X62657Y40992D01*
X62871Y41080D01*
X63070Y41202D01*
X63160Y41279D01*
X63251Y41202D01*
X63449Y41080D01*
X63664Y40992D01*
X63890Y40937D01*
X64121Y40919D01*
X64353Y40937D01*
X64579Y40992D01*
X64794Y41080D01*
X64992Y41202D01*
X65105Y41299D01*
X65218Y41202D01*
X65417Y41080D01*
X65631Y40992D01*
X65857Y40937D01*
X66018Y40925D01*
X66329Y40512D01*
X66197Y40121D01*
X60070D01*
X57212Y42979D01*
Y48546D01*
X59939Y51273D01*
X60044Y51396D01*
X60129Y51535D01*
X60192Y51685D01*
X60229Y51843D01*
X60242Y52006D01*
Y54698D01*
X60253Y54707D01*
X60404Y54883D01*
X60525Y55082D01*
X60614Y55296D01*
X60668Y55522D01*
X60686Y55754D01*
X60668Y55986D01*
X60614Y56212D01*
X60525Y56426D01*
X60404Y56625D01*
X60253Y56801D01*
X60076Y56952D01*
X59878Y57073D01*
X59663Y57162D01*
X59437Y57217D01*
X59206Y57235D01*
X58974Y57217D01*
X58748Y57162D01*
X58533Y57073D01*
X58335Y56952D01*
X58221Y56855D01*
X58170Y56898D01*
X57972Y57020D01*
X57758Y57108D01*
X57532Y57163D01*
X57300Y57181D01*
X57068Y57163D01*
X56842Y57108D01*
X56628Y57020D01*
X56429Y56898D01*
X56253Y56747D01*
X56102Y56571D01*
X55980Y56372D01*
X55892Y56158D01*
X55837Y55932D01*
X55819Y55700D01*
X55837Y55468D01*
X55892Y55242D01*
X55946Y55112D01*
X54767Y53933D01*
X54661Y53809D01*
X54576Y53671D01*
X54514Y53520D01*
X54476Y53362D01*
X54463Y53200D01*
Y51729D01*
X54458Y51724D01*
X54352Y51600D01*
X54267Y51461D01*
X54205Y51311D01*
X54167Y51153D01*
X54154Y50991D01*
Y42109D01*
X54167Y41947D01*
X54205Y41789D01*
X54267Y41638D01*
X54352Y41500D01*
X54458Y41376D01*
X58467Y37367D01*
X58591Y37261D01*
X58729Y37176D01*
X58880Y37114D01*
X59038Y37076D01*
X59200Y37063D01*
X63212D01*
X63326Y37002D01*
X63651Y36617D01*
X63667Y36416D01*
X63714Y36220D01*
X63791Y36034D01*
X63896Y35862D01*
X64027Y35709D01*
Y35424D01*
X63896Y35271D01*
X63791Y35099D01*
X63714Y34913D01*
X63667Y34717D01*
X63651Y34517D01*
X63667Y34316D01*
X63714Y34120D01*
X63791Y33934D01*
X63896Y33762D01*
X64027Y33609D01*
X64180Y33478D01*
X64352Y33373D01*
X64538Y33296D01*
X64734Y33249D01*
X64935Y33233D01*
X65135Y33249D01*
X65316Y33292D01*
X65332Y33296D01*
X65753Y33054D01*
X65816Y32970D01*
Y32154D01*
X65834Y31974D01*
X65886Y31802D01*
X65971Y31642D01*
X66085Y31503D01*
X66639Y30950D01*
X66834Y30755D01*
X66852Y30643D01*
X66561Y30224D01*
X65157D01*
X64728Y30653D01*
X64701Y30698D01*
X64570Y30851D01*
X64417Y30982D01*
X64245Y31087D01*
X64059Y31164D01*
X63863Y31211D01*
X63855Y31212D01*
X63848Y31214D01*
X63662Y31228D01*
X63477Y31214D01*
X63469Y31212D01*
X63461Y31211D01*
X63266Y31164D01*
X63080Y31087D01*
X62908Y30982D01*
X62755Y30851D01*
X62624Y30698D01*
X62519Y30526D01*
X62441Y30340D01*
X62394Y30144D01*
X62379Y29943D01*
X62394Y29743D01*
X62441Y29547D01*
X62519Y29361D01*
X62624Y29189D01*
X62660Y29146D01*
X62677Y29023D01*
X62618Y28693D01*
X62599Y28645D01*
X62539Y28563D01*
X62436Y28500D01*
X62313Y28394D01*
X61798Y27880D01*
X61157D01*
X61058Y27930D01*
X60717Y28343D01*
X60699Y28575D01*
X60645Y28801D01*
X60555Y29016D01*
X60434Y29214D01*
X60283Y29391D01*
X60221Y29444D01*
X60126Y29723D01*
X60164Y30090D01*
X60198Y30130D01*
X60320Y30328D01*
X60409Y30542D01*
X60463Y30768D01*
X60481Y31000D01*
X60463Y31232D01*
X60409Y31458D01*
X60320Y31672D01*
X60198Y31870D01*
X60047Y32047D01*
X59870Y32198D01*
X59672Y32320D01*
X59458Y32408D01*
X59232Y32463D01*
X59000Y32481D01*
X58768Y32463D01*
X58542Y32408D01*
X58328Y32320D01*
X58130Y32198D01*
X57953Y32047D01*
X57802Y31870D01*
X57680Y31672D01*
X57591Y31458D01*
X57537Y31232D01*
X57519Y31000D01*
X57537Y30768D01*
X57591Y30542D01*
X57680Y30328D01*
X57802Y30130D01*
X57953Y29953D01*
X58015Y29900D01*
X58110Y29620D01*
X58072Y29253D01*
X58038Y29214D01*
X57916Y29016D01*
X57828Y28801D01*
X57773Y28575D01*
X57755Y28343D01*
X57415Y27930D01*
X57315Y27880D01*
X53005D01*
X51021Y29864D01*
Y36555D01*
X51786Y37320D01*
X51800Y37319D01*
X52032Y37337D01*
X52258Y37391D01*
X52472Y37481D01*
X52671Y37602D01*
X52847Y37753D01*
X52998Y37929D01*
X53119Y38128D01*
X53209Y38342D01*
X53263Y38568D01*
X53281Y38800D01*
X53263Y39032D01*
X53209Y39258D01*
X53119Y39472D01*
X52998Y39671D01*
X52847Y39847D01*
X52671Y39998D01*
X52472Y40119D01*
X52258Y40209D01*
X52032Y40263D01*
X51800Y40281D01*
X51568Y40263D01*
X51342Y40209D01*
X51128Y40119D01*
X50929Y39998D01*
X50753Y39847D01*
X50602Y39671D01*
X50527Y39548D01*
X50238Y39549D01*
X50007Y39635D01*
X49986Y39720D01*
X49924Y39871D01*
X49839Y40009D01*
X49733Y40133D01*
X40011Y49855D01*
X39887Y49961D01*
X39748Y50046D01*
X39598Y50108D01*
X39440Y50146D01*
X39278Y50159D01*
X37908D01*
X37812Y50240D01*
X37628Y50354D01*
X37427Y50437D01*
X37216Y50487D01*
X37000Y50504D01*
X36784Y50487D01*
X36573Y50437D01*
X36373Y50354D01*
X36188Y50240D01*
X36023Y50099D01*
X35882Y49935D01*
X35768Y49750D01*
X35685Y49549D01*
X35635Y49338D01*
X35618Y49122D01*
X35635Y48906D01*
X35685Y48695D01*
X35768Y48495D01*
X35882Y48310D01*
X36017Y48138D01*
X35882Y47966D01*
X35768Y47781D01*
X35685Y47581D01*
X35635Y47370D01*
X35618Y47154D01*
X35635Y46937D01*
X35685Y46727D01*
X35768Y46526D01*
X35882Y46341D01*
X36023Y46176D01*
X36188Y46035D01*
X36373Y45922D01*
X36573Y45839D01*
X36784Y45788D01*
X37000Y45771D01*
X37216Y45788D01*
X37427Y45839D01*
X37628Y45922D01*
X37812Y46035D01*
X37908Y46117D01*
X39425D01*
X46979Y38563D01*
Y28620D01*
X46992Y28457D01*
X47030Y28299D01*
X47092Y28149D01*
X47177Y28010D01*
X47283Y27886D01*
X51027Y24142D01*
X51151Y24036D01*
X51290Y23951D01*
X51440Y23889D01*
X51598Y23851D01*
X51760Y23838D01*
X56243D01*
X56434Y23376D01*
X56068Y23009D01*
X47835D01*
Y25787D01*
X40748D01*
Y18701D01*
X46503D01*
X46694Y18239D01*
X45957Y17502D01*
X45649Y17648D01*
X45321Y17765D01*
X44983Y17850D01*
X44639Y17901D01*
X44291Y17918D01*
X43944Y17901D01*
X43599Y17850D01*
X43262Y17765D01*
X42934Y17648D01*
X42619Y17499D01*
X42320Y17320D01*
X42041Y17112D01*
X41783Y16879D01*
X41549Y16621D01*
X41342Y16341D01*
X41163Y16042D01*
X41014Y15728D01*
X40896Y15400D01*
X40812Y15062D01*
X40761Y14718D01*
X40744Y14370D01*
X40761Y14022D01*
X40812Y13678D01*
X40896Y13340D01*
X41014Y13013D01*
X41163Y12698D01*
X41342Y12399D01*
X41549Y12120D01*
X41685Y11970D01*
X41569Y11593D01*
X41471Y11470D01*
X40784D01*
X39549Y12704D01*
X39695Y13013D01*
X39812Y13340D01*
X39897Y13678D01*
X39948Y14022D01*
X39965Y14370D01*
X39948Y14718D01*
X39897Y15062D01*
X39812Y15400D01*
X39695Y15728D01*
X39546Y16042D01*
X39367Y16341D01*
X39160Y16621D01*
X38926Y16879D01*
X38668Y17112D01*
X38388Y17320D01*
X38090Y17499D01*
X37775Y17648D01*
X37447Y17765D01*
X37109Y17850D01*
X36765Y17901D01*
X36417Y17918D01*
X36070Y17901D01*
X35725Y17850D01*
X35388Y17765D01*
X35060Y17648D01*
X34745Y17499D01*
X34446Y17320D01*
X34167Y17112D01*
X34017Y16977D01*
X33640Y17093D01*
X33517Y17191D01*
Y17878D01*
X34752Y19112D01*
X35060Y18967D01*
X35388Y18849D01*
X35725Y18765D01*
X36070Y18714D01*
X36417Y18697D01*
X36765Y18714D01*
X37109Y18765D01*
X37447Y18849D01*
X37775Y18967D01*
X38090Y19115D01*
X38388Y19294D01*
X38668Y19502D01*
X38926Y19736D01*
X39160Y19994D01*
X39367Y20273D01*
X39546Y20572D01*
X39695Y20887D01*
X39812Y21214D01*
X39897Y21552D01*
X39948Y21896D01*
X39965Y22244D01*
X39948Y22592D01*
X39897Y22936D01*
X39812Y23274D01*
X39695Y23602D01*
X39546Y23916D01*
X39367Y24215D01*
X39160Y24495D01*
X38926Y24753D01*
X38668Y24986D01*
X38388Y25194D01*
X38090Y25373D01*
X37775Y25522D01*
X37447Y25639D01*
X37109Y25723D01*
X36765Y25775D01*
X36417Y25792D01*
X36070Y25775D01*
X35725Y25723D01*
X35388Y25639D01*
X35060Y25522D01*
X34745Y25373D01*
X34446Y25194D01*
X34167Y24986D01*
X33909Y24753D01*
X33675Y24495D01*
X33468Y24215D01*
X33289Y23916D01*
X33140Y23602D01*
X33022Y23274D01*
X32938Y22936D01*
X32887Y22592D01*
X32870Y22244D01*
X32887Y21896D01*
X32938Y21552D01*
X33022Y21214D01*
X33140Y20887D01*
X33285Y20578D01*
X31747Y19040D01*
X31642Y18916D01*
X31557Y18778D01*
X31494Y18627D01*
X31456Y18469D01*
X31444Y18307D01*
Y17191D01*
X31320Y17093D01*
X30944Y16977D01*
X30794Y17112D01*
X30514Y17320D01*
X30216Y17499D01*
X29901Y17648D01*
X29573Y17765D01*
X29235Y17850D01*
X28891Y17901D01*
X28543Y17918D01*
X28196Y17901D01*
X27851Y17850D01*
X27514Y17765D01*
X27186Y17648D01*
X26871Y17499D01*
X26572Y17320D01*
X26293Y17112D01*
X26035Y16879D01*
X25801Y16621D01*
X25594Y16341D01*
X25415Y16042D01*
X25266Y15728D01*
X25148Y15400D01*
X25064Y15062D01*
X25013Y14718D01*
X24996Y14370D01*
X25013Y14022D01*
X25064Y13678D01*
X25148Y13340D01*
X25266Y13013D01*
X25415Y12698D01*
X25594Y12399D01*
X25801Y12120D01*
X26035Y11862D01*
X26293Y11628D01*
X26572Y11420D01*
X26871Y11241D01*
X27186Y11092D01*
X27514Y10975D01*
X27851Y10891D01*
X28196Y10840D01*
X28543Y10823D01*
X28891Y10840D01*
X29235Y10891D01*
X29573Y10975D01*
X29901Y11092D01*
X30216Y11241D01*
X30514Y11420D01*
X30794Y11628D01*
X31052Y11862D01*
X31207Y11883D01*
X31642Y11792D01*
X31747Y11669D01*
X34700Y8716D01*
X34824Y8610D01*
X34880Y8576D01*
X34863Y8305D01*
X34759Y8076D01*
X31496D01*
X31303Y8057D01*
X31117Y8000D01*
X30946Y7909D01*
X30797Y7786D01*
X30674Y7636D01*
X30582Y7465D01*
X30526Y7280D01*
X30507Y7087D01*
Y1383D01*
X989D01*
Y37121D01*
X6142D01*
X6168Y37124D01*
X6477Y36801D01*
X6530Y36677D01*
X6448Y36395D01*
X6392Y36064D01*
X6373Y35728D01*
X6392Y35393D01*
X6448Y35061D01*
X6541Y34738D01*
X6670Y34428D01*
X6833Y34134D01*
X7027Y33860D01*
X7251Y33609D01*
X7502Y33385D01*
X7776Y33191D01*
X8070Y33028D01*
X8380Y32900D01*
X8703Y32807D01*
X9035Y32750D01*
X9370Y32732D01*
X9706Y32750D01*
X10037Y32807D01*
X10360Y32900D01*
X10670Y33028D01*
X10965Y33191D01*
X11239Y33385D01*
X11489Y33609D01*
X11713Y33860D01*
X11908Y34134D01*
X12070Y34428D01*
X12199Y34738D01*
X12292Y35061D01*
X12348Y35393D01*
X12367Y35728D01*
X12348Y36064D01*
X12292Y36395D01*
X12199Y36718D01*
X12070Y37029D01*
X11908Y37323D01*
X11713Y37597D01*
X11489Y37847D01*
X11239Y38071D01*
X10965Y38266D01*
X10670Y38428D01*
X10360Y38557D01*
X10037Y38650D01*
X9706Y38706D01*
X9370Y38725D01*
X9035Y38706D01*
X8703Y38650D01*
X8380Y38557D01*
X8070Y38428D01*
X7776Y38266D01*
X7631Y38163D01*
X7243Y38307D01*
X7131Y38411D01*
Y48046D01*
X7243Y48149D01*
X7631Y48294D01*
X7776Y48191D01*
X8070Y48028D01*
X8380Y47900D01*
X8703Y47807D01*
X9035Y47750D01*
X9370Y47732D01*
X9706Y47750D01*
X10037Y47807D01*
X10360Y47900D01*
X10670Y48028D01*
X10965Y48191D01*
X11239Y48385D01*
X11331Y48468D01*
X11671Y48351D01*
X11824Y48239D01*
X11837Y48068D01*
X11891Y47842D01*
X11981Y47628D01*
X12102Y47429D01*
X12253Y47253D01*
X12430Y47102D01*
X12628Y46981D01*
X12842Y46891D01*
X13068Y46837D01*
X13300Y46819D01*
X13532Y46837D01*
X13758Y46891D01*
X13972Y46981D01*
X14171Y47102D01*
X14347Y47253D01*
X14498Y47429D01*
X14619Y47628D01*
X14708Y47842D01*
X14763Y48068D01*
X14781Y48300D01*
X14763Y48532D01*
X14708Y48758D01*
X14619Y48972D01*
X14498Y49171D01*
X14347Y49347D01*
X14337Y49356D01*
Y53271D01*
X20886Y59820D01*
X20900Y59819D01*
X21132Y59837D01*
X21358Y59891D01*
X21572Y59980D01*
X21594Y59993D01*
X21633Y59930D01*
X21783Y59753D01*
X21960Y59602D01*
X22158Y59481D01*
X22373Y59391D01*
X22599Y59337D01*
X22831Y59319D01*
X23062Y59337D01*
X23288Y59391D01*
X23503Y59481D01*
X23701Y59602D01*
X23878Y59753D01*
X24029Y59930D01*
X24150Y60128D01*
X24239Y60342D01*
X24293Y60568D01*
X24312Y60800D01*
X24293Y61032D01*
X24239Y61258D01*
X24150Y61472D01*
X24029Y61671D01*
X23878Y61847D01*
X23701Y61998D01*
X23503Y62120D01*
X23288Y62208D01*
X23062Y62263D01*
X22831Y62281D01*
X22599Y62263D01*
X22373Y62208D01*
X22158Y62120D01*
X22137Y62107D01*
X22098Y62170D01*
X21947Y62347D01*
X21770Y62498D01*
X21572Y62620D01*
X21358Y62708D01*
X21132Y62763D01*
X20900Y62781D01*
X20668Y62763D01*
X20442Y62708D01*
X20228Y62620D01*
X20030Y62498D01*
X19853Y62347D01*
X19702Y62170D01*
X19580Y61972D01*
X19491Y61758D01*
X19437Y61532D01*
X19419Y61300D01*
X19420Y61286D01*
X12567Y54433D01*
X12461Y54309D01*
X12376Y54171D01*
X12314Y54020D01*
X12276Y53862D01*
X12263Y53700D01*
Y52685D01*
X11763Y52526D01*
X11713Y52597D01*
X11489Y52847D01*
X11239Y53071D01*
X10965Y53266D01*
X10670Y53428D01*
X10360Y53557D01*
X10037Y53650D01*
X9706Y53706D01*
X9370Y53725D01*
X9035Y53706D01*
X8703Y53650D01*
X8380Y53557D01*
X8070Y53428D01*
X7776Y53266D01*
X7502Y53071D01*
X7251Y52847D01*
X7027Y52597D01*
X6833Y52323D01*
X6670Y52029D01*
X6541Y51718D01*
X6448Y51395D01*
X6392Y51064D01*
X6373Y50728D01*
X6392Y50393D01*
X6448Y50062D01*
X6530Y49780D01*
X6477Y49655D01*
X6168Y49333D01*
X6142Y49335D01*
X989D01*
Y67365D01*
X1085Y67412D01*
X1321Y67570D01*
X1534Y67757D01*
X1722Y67970D01*
X1879Y68206D01*
X2005Y68461D01*
X2096Y68730D01*
X2151Y69008D01*
X2170Y69291D01*
X2151Y69575D01*
X2096Y69853D01*
X2005Y70122D01*
X1879Y70376D01*
X1722Y70612D01*
X1534Y70826D01*
X1390Y70952D01*
X1348Y71260D01*
X1390Y71568D01*
X1534Y71694D01*
X1722Y71907D01*
X1879Y72143D01*
X2005Y72398D01*
X2096Y72667D01*
X2151Y72945D01*
X2170Y73228D01*
X2151Y73512D01*
X2096Y73790D01*
X2005Y74059D01*
X1879Y74313D01*
X1722Y74549D01*
X1534Y74763D01*
X1390Y74889D01*
X1348Y75197D01*
X1390Y75505D01*
X1534Y75631D01*
X1722Y75844D01*
X1879Y76080D01*
X2005Y76335D01*
X2096Y76604D01*
X2151Y76882D01*
X2170Y77165D01*
X2151Y77449D01*
X2096Y77727D01*
X2005Y77996D01*
X1879Y78250D01*
X1722Y78486D01*
X1534Y78700D01*
X1321Y78887D01*
X1085Y79045D01*
X989Y79092D01*
Y197830D01*
X92562D01*
X92609Y197734D01*
X92767Y197498D01*
X92954Y197285D01*
X93167Y197098D01*
X93403Y196940D01*
X93658Y196814D01*
X93927Y196723D01*
X94205Y196668D01*
X94488Y196649D01*
X94771Y196668D01*
X95050Y196723D01*
X95319Y196814D01*
X95573Y196940D01*
X95809Y197098D01*
X96023Y197285D01*
X96149Y197429D01*
X96457Y197471D01*
X96765Y197429D01*
X96891Y197285D01*
X97104Y197098D01*
X97340Y196940D01*
X97595Y196814D01*
X97864Y196723D01*
X98142Y196668D01*
X98425Y196649D01*
X98708Y196668D01*
X98987Y196723D01*
X99256Y196814D01*
X99510Y196940D01*
X99746Y197098D01*
X99960Y197285D01*
X100086Y197429D01*
X100394Y197471D01*
X100702Y197429D01*
X100828Y197285D01*
X101041Y197098D01*
X101277Y196940D01*
X101532Y196814D01*
X101801Y196723D01*
X102079Y196668D01*
X102362Y196649D01*
X102645Y196668D01*
X102924Y196723D01*
X103193Y196814D01*
X103447Y196940D01*
X103683Y197098D01*
X103897Y197285D01*
X104084Y197498D01*
X104242Y197734D01*
X104289Y197830D01*
X151767D01*
Y174410D01*
D02*
G37*
G36*
X58169Y53696D02*
Y52435D01*
X57037Y51303D01*
X56537Y51510D01*
Y52771D01*
X57669Y53903D01*
X58169Y53696D01*
D02*
G37*
G36*
X76444Y38863D02*
X76453Y38853D01*
X76630Y38702D01*
X76828Y38581D01*
X77042Y38491D01*
X77268Y38437D01*
X77500Y38419D01*
X77612Y38428D01*
X77830Y38218D01*
X77939Y37973D01*
X77891Y37858D01*
X77837Y37632D01*
X77819Y37400D01*
X77837Y37168D01*
X77891Y36942D01*
X77981Y36728D01*
X78102Y36529D01*
X78253Y36353D01*
X78430Y36202D01*
X78628Y36081D01*
X78842Y35991D01*
X79068Y35937D01*
X79282Y35921D01*
X79646Y35580D01*
X79598Y35135D01*
X79268Y34913D01*
X79204Y34918D01*
X78972Y34900D01*
X78746Y34845D01*
X78531Y34756D01*
X78333Y34635D01*
X78157Y34484D01*
X78006Y34308D01*
X77884Y34109D01*
X77795Y33895D01*
X77741Y33669D01*
X77723Y33437D01*
X77741Y33205D01*
X77795Y32979D01*
X77884Y32765D01*
X78006Y32566D01*
X78157Y32390D01*
X78176Y32373D01*
X78261Y31883D01*
X78227Y31717D01*
X76822Y30312D01*
X76757Y30307D01*
X76561Y30260D01*
X76375Y30183D01*
X76373Y30182D01*
X76312Y30254D01*
X75397Y31169D01*
Y38935D01*
X75432Y38937D01*
X75658Y38991D01*
X75872Y39081D01*
X76090Y39184D01*
X76444Y38863D01*
D02*
G37*
G36*
X73619Y27896D02*
X73805Y27819D01*
X74001Y27772D01*
X74202Y27756D01*
X74402Y27772D01*
X74598Y27819D01*
X74784Y27896D01*
X74891Y27961D01*
X74997Y27896D01*
X75183Y27819D01*
X75379Y27772D01*
X75674Y27661D01*
X75690Y27461D01*
X75737Y27265D01*
X75814Y27079D01*
X75879Y26972D01*
X75814Y26866D01*
X75737Y26680D01*
X75690Y26484D01*
X75674Y26283D01*
X75690Y26083D01*
X75737Y25887D01*
X75814Y25701D01*
X75879Y25594D01*
X75814Y25488D01*
X75737Y25302D01*
X75690Y25106D01*
X75674Y24906D01*
X75690Y24705D01*
X75737Y24509D01*
X75814Y24323D01*
X75879Y24217D01*
X75814Y24110D01*
X75737Y23924D01*
X75690Y23728D01*
X75674Y23528D01*
X75690Y23327D01*
X75737Y23131D01*
X75814Y22945D01*
X75919Y22773D01*
X76050Y22620D01*
X76203Y22489D01*
X76318Y22419D01*
X76363Y22143D01*
X76318Y21866D01*
X76203Y21796D01*
X76050Y21665D01*
X75919Y21512D01*
X75814Y21340D01*
X75737Y21154D01*
X75690Y20958D01*
X75579Y20677D01*
X75379Y20662D01*
X75183Y20614D01*
X74997Y20537D01*
X74825Y20432D01*
X74672Y20301D01*
X74541Y20148D01*
X74436Y19976D01*
X74359Y19790D01*
X74312Y19595D01*
X74296Y19394D01*
X74296Y19394D01*
X74202Y19299D01*
X74001Y19283D01*
X73805Y19236D01*
X73619Y19159D01*
X73447Y19054D01*
X73294Y18923D01*
X73163Y18770D01*
X73058Y18598D01*
X72981Y18412D01*
X72934Y18216D01*
X72930Y18172D01*
X72896Y18106D01*
X72594Y17843D01*
X72510Y17798D01*
X72435Y17783D01*
X72244Y17798D01*
X72012Y17780D01*
X71786Y17726D01*
X71572Y17637D01*
X71374Y17515D01*
X71309Y17460D01*
X71245Y17515D01*
X71046Y17637D01*
X70832Y17726D01*
X70606Y17780D01*
X70374Y17798D01*
X70142Y17780D01*
X69976Y17740D01*
X69819Y17872D01*
X69727Y18008D01*
X69672Y18166D01*
X69745Y18285D01*
X69817Y18457D01*
X69860Y18638D01*
X69875Y18823D01*
Y18911D01*
X69911Y18997D01*
X69958Y19193D01*
X69973Y19394D01*
X69958Y19595D01*
X69911Y19790D01*
X69833Y19976D01*
X69728Y20148D01*
X69597Y20301D01*
X69444Y20432D01*
X69273Y20537D01*
X69086Y20614D01*
X68891Y20662D01*
X68690Y20677D01*
X68580Y20972D01*
X68533Y21168D01*
X68455Y21354D01*
X68390Y21461D01*
X68455Y21567D01*
X68533Y21753D01*
X68580Y21949D01*
X68595Y22150D01*
X68580Y22350D01*
X68533Y22546D01*
X68455Y22732D01*
X68390Y22839D01*
X68455Y22945D01*
X68533Y23131D01*
X68580Y23327D01*
X68595Y23528D01*
X68580Y23728D01*
X68533Y23924D01*
X68455Y24110D01*
X68350Y24282D01*
X68219Y24435D01*
X68066Y24566D01*
X67965Y24628D01*
X67926Y24905D01*
X67965Y25183D01*
X68066Y25245D01*
X68219Y25376D01*
X68350Y25529D01*
X68455Y25701D01*
X68532Y25887D01*
X68579Y26083D01*
X68595Y26283D01*
X68891Y26394D01*
X69086Y26441D01*
X69272Y26518D01*
X69444Y26623D01*
X69597Y26754D01*
X69728Y26907D01*
X69833Y27079D01*
X69910Y27265D01*
X69957Y27461D01*
X70068Y27756D01*
X70268Y27772D01*
X70464Y27819D01*
X70650Y27896D01*
X70757Y27961D01*
X70863Y27896D01*
X71049Y27819D01*
X71245Y27772D01*
X71446Y27756D01*
X71646Y27772D01*
X71842Y27819D01*
X72028Y27896D01*
X72135Y27961D01*
X72241Y27896D01*
X72427Y27819D01*
X72623Y27772D01*
X72824Y27756D01*
X73024Y27772D01*
X73220Y27819D01*
X73406Y27896D01*
X73513Y27961D01*
X73619Y27896D01*
D02*
G37*
%LPC*%
G36*
X128450Y193531D02*
X128219Y193513D01*
X127993Y193459D01*
X127778Y193370D01*
X127580Y193248D01*
X127403Y193098D01*
X127252Y192921D01*
X127131Y192723D01*
X127042Y192508D01*
X126988Y192282D01*
X126970Y192050D01*
X126988Y191819D01*
X127042Y191593D01*
X127131Y191378D01*
X127252Y191180D01*
X127403Y191003D01*
X127580Y190852D01*
X127778Y190731D01*
X127993Y190642D01*
X128219Y190588D01*
X128450Y190569D01*
X128682Y190588D01*
X128908Y190642D01*
X129123Y190731D01*
X129321Y190852D01*
X129498Y191003D01*
X129648Y191180D01*
X129770Y191378D01*
X129859Y191593D01*
X129913Y191819D01*
X129931Y192050D01*
X129913Y192282D01*
X129859Y192508D01*
X129770Y192723D01*
X129648Y192921D01*
X129498Y193098D01*
X129321Y193248D01*
X129123Y193370D01*
X128908Y193459D01*
X128682Y193513D01*
X128450Y193531D01*
D02*
G37*
G36*
X140300Y193481D02*
X140068Y193463D01*
X139842Y193409D01*
X139628Y193319D01*
X139429Y193198D01*
X139253Y193047D01*
X139102Y192870D01*
X138980Y192672D01*
X138891Y192458D01*
X138837Y192232D01*
X138819Y192000D01*
X138837Y191768D01*
X138891Y191542D01*
X138980Y191328D01*
X139102Y191130D01*
X139253Y190953D01*
X139429Y190802D01*
X139628Y190681D01*
X139842Y190592D01*
X140068Y190537D01*
X140300Y190519D01*
X140532Y190537D01*
X140758Y190592D01*
X140972Y190681D01*
X141171Y190802D01*
X141347Y190953D01*
X141498Y191130D01*
X141620Y191328D01*
X141709Y191542D01*
X141763Y191768D01*
X141781Y192000D01*
X141763Y192232D01*
X141709Y192458D01*
X141620Y192672D01*
X141498Y192870D01*
X141347Y193047D01*
X141171Y193198D01*
X140972Y193319D01*
X140758Y193409D01*
X140532Y193463D01*
X140300Y193481D01*
D02*
G37*
G36*
X93600Y190481D02*
X93368Y190463D01*
X93142Y190409D01*
X92928Y190320D01*
X92730Y190198D01*
X92553Y190047D01*
X92402Y189871D01*
X92281Y189672D01*
X92191Y189458D01*
X92137Y189232D01*
X92119Y189000D01*
X92137Y188768D01*
X92191Y188542D01*
X92281Y188328D01*
X92402Y188129D01*
X92553Y187953D01*
X92730Y187802D01*
X92928Y187680D01*
X93142Y187592D01*
X93368Y187537D01*
X93600Y187519D01*
X93832Y187537D01*
X94058Y187592D01*
X94272Y187680D01*
X94471Y187802D01*
X94647Y187953D01*
X94798Y188129D01*
X94920Y188328D01*
X95008Y188542D01*
X95063Y188768D01*
X95081Y189000D01*
X95063Y189232D01*
X95008Y189458D01*
X94920Y189672D01*
X94798Y189871D01*
X94647Y190047D01*
X94471Y190198D01*
X94272Y190320D01*
X94058Y190409D01*
X93832Y190463D01*
X93600Y190481D01*
D02*
G37*
G36*
X80900Y187581D02*
X80668Y187563D01*
X80442Y187508D01*
X80228Y187419D01*
X80029Y187298D01*
X79853Y187147D01*
X79702Y186970D01*
X79580Y186772D01*
X79492Y186558D01*
X79437Y186332D01*
X79419Y186100D01*
X79437Y185868D01*
X79492Y185642D01*
X79580Y185428D01*
X79702Y185230D01*
X79853Y185053D01*
X80029Y184902D01*
X80228Y184781D01*
X80442Y184692D01*
X80668Y184637D01*
X80900Y184619D01*
X81132Y184637D01*
X81358Y184692D01*
X81572Y184781D01*
X81770Y184902D01*
X81947Y185053D01*
X82098Y185230D01*
X82219Y185428D01*
X82309Y185642D01*
X82363Y185868D01*
X82381Y186100D01*
X82363Y186332D01*
X82309Y186558D01*
X82219Y186772D01*
X82098Y186970D01*
X81947Y187147D01*
X81770Y187298D01*
X81572Y187419D01*
X81358Y187508D01*
X81132Y187563D01*
X80900Y187581D01*
D02*
G37*
G36*
X50000Y185339D02*
X49768Y185321D01*
X49542Y185267D01*
X49328Y185178D01*
X49130Y185056D01*
X48953Y184905D01*
X48802Y184729D01*
X48680Y184530D01*
X48592Y184316D01*
X48537Y184090D01*
X48519Y183858D01*
X48537Y183626D01*
X48592Y183400D01*
X48680Y183186D01*
X48802Y182988D01*
X48953Y182811D01*
X49130Y182660D01*
X49328Y182539D01*
X49542Y182450D01*
X49768Y182396D01*
X50000Y182377D01*
X50232Y182396D01*
X50458Y182450D01*
X50672Y182539D01*
X50871Y182660D01*
X51047Y182811D01*
X51198Y182988D01*
X51319Y183186D01*
X51408Y183400D01*
X51463Y183626D01*
X51481Y183858D01*
X51463Y184090D01*
X51408Y184316D01*
X51319Y184530D01*
X51198Y184729D01*
X51047Y184905D01*
X50871Y185056D01*
X50672Y185178D01*
X50458Y185267D01*
X50232Y185321D01*
X50000Y185339D01*
D02*
G37*
G36*
X13780Y192327D02*
X13288Y192310D01*
X12799Y192257D01*
X12314Y192170D01*
X11837Y192048D01*
X11370Y191893D01*
X10916Y191704D01*
X10476Y191484D01*
X10052Y191233D01*
X9648Y190952D01*
X9265Y190643D01*
X8905Y190308D01*
X8569Y189948D01*
X8261Y189565D01*
X7980Y189160D01*
X7729Y188737D01*
X7508Y188297D01*
X7320Y187842D01*
X7165Y187375D01*
X7043Y186898D01*
X6956Y186414D01*
X6903Y185925D01*
X6886Y185433D01*
X6903Y184941D01*
X6956Y184452D01*
X7043Y183967D01*
X7165Y183491D01*
X7320Y183024D01*
X7508Y182569D01*
X7729Y182129D01*
X7980Y181706D01*
X8261Y181301D01*
X8569Y180918D01*
X8905Y180558D01*
X9265Y180223D01*
X9648Y179914D01*
X10052Y179633D01*
X10476Y179382D01*
X10916Y179162D01*
X11370Y178973D01*
X11837Y178818D01*
X12314Y178696D01*
X12799Y178609D01*
X13288Y178556D01*
X13780Y178539D01*
X14271Y178556D01*
X14761Y178609D01*
X15245Y178696D01*
X15722Y178818D01*
X16189Y178973D01*
X16644Y179162D01*
X17084Y179382D01*
X17507Y179633D01*
X17911Y179914D01*
X18294Y180223D01*
X18654Y180558D01*
X18990Y180918D01*
X19299Y181301D01*
X19579Y181706D01*
X19830Y182129D01*
X20051Y182569D01*
X20239Y183024D01*
X20394Y183491D01*
X20516Y183967D01*
X20604Y184452D01*
X20656Y184941D01*
X20674Y185433D01*
X20656Y185925D01*
X20604Y186414D01*
X20516Y186898D01*
X20394Y187375D01*
X20239Y187842D01*
X20051Y188297D01*
X19830Y188737D01*
X19579Y189160D01*
X19299Y189565D01*
X18990Y189948D01*
X18654Y190308D01*
X18294Y190643D01*
X17911Y190952D01*
X17507Y191233D01*
X17084Y191484D01*
X16644Y191704D01*
X16189Y191893D01*
X15722Y192048D01*
X15245Y192170D01*
X14761Y192257D01*
X14271Y192310D01*
X13780Y192327D01*
D02*
G37*
G36*
X27000Y179681D02*
X26768Y179663D01*
X26542Y179609D01*
X26328Y179519D01*
X26129Y179398D01*
X25953Y179247D01*
X25802Y179070D01*
X25681Y178872D01*
X25591Y178658D01*
X25537Y178432D01*
X25519Y178200D01*
X25537Y177968D01*
X25591Y177742D01*
X25681Y177528D01*
X25802Y177330D01*
X25953Y177153D01*
X26129Y177002D01*
X26328Y176881D01*
X26542Y176792D01*
X26768Y176737D01*
X27000Y176719D01*
X27232Y176737D01*
X27458Y176792D01*
X27672Y176881D01*
X27871Y177002D01*
X28047Y177153D01*
X28198Y177330D01*
X28319Y177528D01*
X28409Y177742D01*
X28463Y177968D01*
X28481Y178200D01*
X28463Y178432D01*
X28409Y178658D01*
X28319Y178872D01*
X28198Y179070D01*
X28047Y179247D01*
X27871Y179398D01*
X27672Y179519D01*
X27458Y179609D01*
X27232Y179663D01*
X27000Y179681D01*
D02*
G37*
G36*
X96710Y175687D02*
X96478Y175668D01*
X96253Y175614D01*
X96038Y175525D01*
X95840Y175404D01*
X95663Y175253D01*
X95512Y175076D01*
X95391Y174878D01*
X95302Y174663D01*
X95248Y174437D01*
X95229Y174206D01*
X95248Y173974D01*
X95302Y173748D01*
X95391Y173533D01*
X95512Y173335D01*
X95663Y173158D01*
X95840Y173008D01*
X96038Y172886D01*
X96253Y172797D01*
X96478Y172743D01*
X96710Y172725D01*
X96942Y172743D01*
X97168Y172797D01*
X97382Y172886D01*
X97581Y173008D01*
X97757Y173158D01*
X97908Y173335D01*
X98030Y173533D01*
X98119Y173748D01*
X98173Y173974D01*
X98191Y174206D01*
X98173Y174437D01*
X98119Y174663D01*
X98030Y174878D01*
X97908Y175076D01*
X97757Y175253D01*
X97581Y175404D01*
X97382Y175525D01*
X97168Y175614D01*
X96942Y175668D01*
X96710Y175687D01*
D02*
G37*
G36*
X84230Y175293D02*
X83998Y175275D01*
X83772Y175220D01*
X83558Y175131D01*
X83359Y175010D01*
X83183Y174859D01*
X83032Y174682D01*
X82911Y174484D01*
X82822Y174269D01*
X82767Y174044D01*
X82749Y173812D01*
X82767Y173580D01*
X82822Y173354D01*
X82911Y173140D01*
X83032Y172941D01*
X83183Y172765D01*
X83359Y172614D01*
X83558Y172492D01*
X83772Y172403D01*
X83998Y172349D01*
X84230Y172331D01*
X84462Y172349D01*
X84688Y172403D01*
X84902Y172492D01*
X85101Y172614D01*
X85277Y172765D01*
X85428Y172941D01*
X85549Y173140D01*
X85638Y173354D01*
X85693Y173580D01*
X85711Y173812D01*
X85693Y174044D01*
X85638Y174269D01*
X85549Y174484D01*
X85428Y174682D01*
X85277Y174859D01*
X85101Y175010D01*
X84902Y175131D01*
X84688Y175220D01*
X84462Y175275D01*
X84230Y175293D01*
D02*
G37*
G36*
X9744Y172130D02*
X9435Y172113D01*
X9130Y172061D01*
X8832Y171975D01*
X8546Y171857D01*
X8275Y171707D01*
X8023Y171528D01*
X7792Y171322D01*
X7586Y171091D01*
X7407Y170839D01*
X7257Y170568D01*
X7139Y170282D01*
X7053Y169984D01*
X7001Y169679D01*
X6984Y169370D01*
X7001Y169061D01*
X7053Y168756D01*
X7139Y168458D01*
X7257Y168173D01*
X7407Y167902D01*
X7586Y167649D01*
X7792Y167418D01*
X8023Y167212D01*
X8275Y167033D01*
X8546Y166883D01*
X8832Y166765D01*
X9130Y166679D01*
X9435Y166627D01*
X9744Y166610D01*
X10053Y166627D01*
X10358Y166679D01*
X10656Y166765D01*
X10942Y166883D01*
X11213Y167033D01*
X11465Y167212D01*
X11696Y167418D01*
X11902Y167649D01*
X12081Y167902D01*
X12231Y168173D01*
X12349Y168458D01*
X12435Y168756D01*
X12487Y169061D01*
X12504Y169370D01*
X12487Y169679D01*
X12435Y169984D01*
X12349Y170282D01*
X12231Y170568D01*
X12081Y170839D01*
X11902Y171091D01*
X11696Y171322D01*
X11465Y171528D01*
X11213Y171707D01*
X10942Y171857D01*
X10656Y171975D01*
X10358Y172061D01*
X10053Y172113D01*
X9744Y172130D01*
D02*
G37*
G36*
X124289Y167852D02*
X124057Y167833D01*
X123831Y167779D01*
X123617Y167690D01*
X123418Y167569D01*
X123242Y167418D01*
X123091Y167241D01*
X122969Y167043D01*
X122880Y166828D01*
X122826Y166602D01*
X122808Y166371D01*
X122826Y166139D01*
X122880Y165913D01*
X122969Y165699D01*
X123091Y165500D01*
X123242Y165324D01*
X123418Y165173D01*
X123617Y165051D01*
X123831Y164962D01*
X124057Y164908D01*
X124289Y164890D01*
X124521Y164908D01*
X124747Y164962D01*
X124961Y165051D01*
X125160Y165173D01*
X125336Y165324D01*
X125487Y165500D01*
X125609Y165699D01*
X125698Y165913D01*
X125752Y166139D01*
X125770Y166371D01*
X125752Y166602D01*
X125698Y166828D01*
X125609Y167043D01*
X125487Y167241D01*
X125336Y167418D01*
X125160Y167569D01*
X124961Y167690D01*
X124747Y167779D01*
X124521Y167833D01*
X124289Y167852D01*
D02*
G37*
G36*
X130700Y165781D02*
X130468Y165763D01*
X130242Y165708D01*
X130028Y165620D01*
X129830Y165498D01*
X129653Y165347D01*
X129502Y165171D01*
X129381Y164972D01*
X129291Y164758D01*
X129237Y164532D01*
X129219Y164300D01*
X129237Y164068D01*
X129291Y163842D01*
X129381Y163628D01*
X129502Y163429D01*
X129653Y163253D01*
X129830Y163102D01*
X130028Y162980D01*
X130242Y162891D01*
X130468Y162837D01*
X130700Y162819D01*
X130932Y162837D01*
X131158Y162891D01*
X131372Y162980D01*
X131570Y163102D01*
X131747Y163253D01*
X131898Y163429D01*
X132019Y163628D01*
X132108Y163842D01*
X132163Y164068D01*
X132181Y164300D01*
X132163Y164532D01*
X132108Y164758D01*
X132019Y164972D01*
X131898Y165171D01*
X131747Y165347D01*
X131570Y165498D01*
X131372Y165620D01*
X131158Y165708D01*
X130932Y165763D01*
X130700Y165781D01*
D02*
G37*
G36*
X84230Y165687D02*
X83998Y165668D01*
X83772Y165614D01*
X83558Y165525D01*
X83359Y165404D01*
X83183Y165253D01*
X83032Y165076D01*
X82911Y164878D01*
X82822Y164663D01*
X82767Y164437D01*
X82749Y164206D01*
X82767Y163974D01*
X82822Y163748D01*
X82911Y163533D01*
X83032Y163335D01*
X83183Y163158D01*
X83359Y163007D01*
X83558Y162886D01*
X83772Y162797D01*
X83998Y162743D01*
X84230Y162725D01*
X84462Y162743D01*
X84688Y162797D01*
X84902Y162886D01*
X85101Y163007D01*
X85277Y163158D01*
X85428Y163335D01*
X85549Y163533D01*
X85638Y163748D01*
X85693Y163974D01*
X85711Y164206D01*
X85693Y164437D01*
X85638Y164663D01*
X85549Y164878D01*
X85428Y165076D01*
X85277Y165253D01*
X85101Y165404D01*
X84902Y165525D01*
X84688Y165614D01*
X84462Y165668D01*
X84230Y165687D01*
D02*
G37*
G36*
X134400Y165681D02*
X134168Y165663D01*
X133942Y165609D01*
X133728Y165519D01*
X133529Y165398D01*
X133353Y165247D01*
X133202Y165070D01*
X133080Y164872D01*
X132992Y164658D01*
X132937Y164432D01*
X132919Y164200D01*
X132937Y163968D01*
X132992Y163742D01*
X133080Y163528D01*
X133202Y163330D01*
X133353Y163153D01*
X133529Y163002D01*
X133728Y162881D01*
X133942Y162792D01*
X134168Y162737D01*
X134400Y162719D01*
X134632Y162737D01*
X134858Y162792D01*
X135072Y162881D01*
X135271Y163002D01*
X135447Y163153D01*
X135598Y163330D01*
X135720Y163528D01*
X135809Y163742D01*
X135863Y163968D01*
X135881Y164200D01*
X135863Y164432D01*
X135809Y164658D01*
X135720Y164872D01*
X135598Y165070D01*
X135447Y165247D01*
X135271Y165398D01*
X135072Y165519D01*
X134858Y165609D01*
X134632Y165663D01*
X134400Y165681D01*
D02*
G37*
G36*
X9600Y162181D02*
X9368Y162163D01*
X9142Y162109D01*
X8928Y162020D01*
X8730Y161898D01*
X8553Y161747D01*
X8402Y161571D01*
X8281Y161372D01*
X8191Y161158D01*
X8137Y160932D01*
X8119Y160700D01*
X8137Y160468D01*
X8191Y160242D01*
X8281Y160028D01*
X8402Y159829D01*
X8553Y159653D01*
X8730Y159502D01*
X8928Y159380D01*
X9142Y159292D01*
X9368Y159237D01*
X9600Y159219D01*
X9832Y159237D01*
X10058Y159292D01*
X10272Y159380D01*
X10470Y159502D01*
X10647Y159653D01*
X10798Y159829D01*
X10920Y160028D01*
X11009Y160242D01*
X11063Y160468D01*
X11081Y160700D01*
X11063Y160932D01*
X11009Y161158D01*
X10920Y161372D01*
X10798Y161571D01*
X10647Y161747D01*
X10470Y161898D01*
X10272Y162020D01*
X10058Y162109D01*
X9832Y162163D01*
X9600Y162181D01*
D02*
G37*
G36*
X15300Y161181D02*
X15068Y161163D01*
X14842Y161109D01*
X14628Y161020D01*
X14430Y160898D01*
X14253Y160747D01*
X14102Y160571D01*
X13981Y160372D01*
X13892Y160158D01*
X13837Y159932D01*
X13819Y159700D01*
X13837Y159468D01*
X13892Y159242D01*
X13981Y159028D01*
X14102Y158829D01*
X14253Y158653D01*
X14430Y158502D01*
X14628Y158380D01*
X14842Y158291D01*
X15068Y158237D01*
X15300Y158219D01*
X15532Y158237D01*
X15758Y158291D01*
X15972Y158380D01*
X16171Y158502D01*
X16347Y158653D01*
X16498Y158829D01*
X16620Y159028D01*
X16709Y159242D01*
X16763Y159468D01*
X16781Y159700D01*
X16763Y159932D01*
X16709Y160158D01*
X16620Y160372D01*
X16498Y160571D01*
X16347Y160747D01*
X16171Y160898D01*
X15972Y161020D01*
X15758Y161109D01*
X15532Y161163D01*
X15300Y161181D01*
D02*
G37*
G36*
X31600Y163981D02*
X31368Y163963D01*
X31142Y163909D01*
X30928Y163820D01*
X30729Y163698D01*
X30553Y163547D01*
X30402Y163371D01*
X30281Y163172D01*
X30191Y162958D01*
X30137Y162732D01*
X30119Y162500D01*
X30137Y162268D01*
X30191Y162042D01*
X30281Y161828D01*
X30402Y161629D01*
X30520Y161492D01*
X30502Y161470D01*
X30380Y161272D01*
X30292Y161058D01*
X30237Y160832D01*
X30219Y160600D01*
X30237Y160368D01*
X30269Y160237D01*
X30228Y160220D01*
X30029Y160098D01*
X29853Y159947D01*
X29702Y159771D01*
X29581Y159572D01*
X29491Y159358D01*
X29437Y159132D01*
X29419Y158900D01*
X29437Y158668D01*
X29491Y158442D01*
X29581Y158228D01*
X29702Y158029D01*
X29853Y157853D01*
X30029Y157702D01*
X30228Y157580D01*
X30442Y157492D01*
X30668Y157437D01*
X30900Y157419D01*
X31132Y157437D01*
X31358Y157492D01*
X31572Y157580D01*
X31771Y157702D01*
X31947Y157853D01*
X32098Y158029D01*
X32219Y158228D01*
X32309Y158442D01*
X32363Y158668D01*
X32381Y158900D01*
X32363Y159132D01*
X32331Y159263D01*
X32372Y159281D01*
X32570Y159402D01*
X32747Y159553D01*
X32898Y159730D01*
X33020Y159928D01*
X33108Y160142D01*
X33163Y160368D01*
X33181Y160600D01*
X33163Y160832D01*
X33108Y161058D01*
X33020Y161272D01*
X32898Y161470D01*
X32780Y161609D01*
X32798Y161629D01*
X32919Y161828D01*
X33009Y162042D01*
X33063Y162268D01*
X33081Y162500D01*
X33063Y162732D01*
X33009Y162958D01*
X32919Y163172D01*
X32798Y163371D01*
X32647Y163547D01*
X32471Y163698D01*
X32272Y163820D01*
X32058Y163909D01*
X31832Y163963D01*
X31600Y163981D01*
D02*
G37*
G36*
X84330Y156080D02*
X84098Y156062D01*
X83872Y156008D01*
X83658Y155919D01*
X83460Y155797D01*
X83283Y155646D01*
X83132Y155470D01*
X83011Y155271D01*
X82921Y155057D01*
X82867Y154831D01*
X82849Y154599D01*
X82867Y154367D01*
X82921Y154141D01*
X83011Y153927D01*
X83132Y153729D01*
X83283Y153552D01*
X83460Y153401D01*
X83658Y153280D01*
X83872Y153191D01*
X84098Y153137D01*
X84330Y153118D01*
X84562Y153137D01*
X84788Y153191D01*
X85002Y153280D01*
X85201Y153401D01*
X85377Y153552D01*
X85528Y153729D01*
X85650Y153927D01*
X85738Y154141D01*
X85793Y154367D01*
X85811Y154599D01*
X85793Y154831D01*
X85738Y155057D01*
X85650Y155271D01*
X85528Y155470D01*
X85377Y155646D01*
X85201Y155797D01*
X85002Y155919D01*
X84788Y156008D01*
X84562Y156062D01*
X84330Y156080D01*
D02*
G37*
G36*
X66000Y155281D02*
X65768Y155263D01*
X65542Y155209D01*
X65328Y155120D01*
X65130Y154998D01*
X64953Y154847D01*
X64802Y154671D01*
X64680Y154472D01*
X64591Y154258D01*
X64537Y154032D01*
X64519Y153800D01*
X64537Y153568D01*
X64591Y153342D01*
X64680Y153128D01*
X64802Y152929D01*
X64953Y152753D01*
X65130Y152602D01*
X65328Y152480D01*
X65542Y152392D01*
X65768Y152337D01*
X66000Y152319D01*
X66232Y152337D01*
X66458Y152392D01*
X66672Y152480D01*
X66870Y152602D01*
X67047Y152753D01*
X67198Y152929D01*
X67320Y153128D01*
X67409Y153342D01*
X67463Y153568D01*
X67481Y153800D01*
X67463Y154032D01*
X67409Y154258D01*
X67320Y154472D01*
X67198Y154671D01*
X67047Y154847D01*
X66870Y154998D01*
X66672Y155120D01*
X66458Y155209D01*
X66232Y155263D01*
X66000Y155281D01*
D02*
G37*
G36*
X37438Y148643D02*
X37206Y148625D01*
X36980Y148571D01*
X36766Y148482D01*
X36567Y148360D01*
X36391Y148209D01*
X36240Y148033D01*
X36118Y147835D01*
X36029Y147620D01*
X35975Y147394D01*
X35957Y147162D01*
X35975Y146931D01*
X36029Y146704D01*
X36118Y146490D01*
X36240Y146292D01*
X36391Y146115D01*
X36567Y145964D01*
X36766Y145843D01*
X36980Y145754D01*
X37206Y145700D01*
X37438Y145681D01*
X37670Y145700D01*
X37896Y145754D01*
X38110Y145843D01*
X38308Y145964D01*
X38485Y146115D01*
X38636Y146292D01*
X38757Y146490D01*
X38846Y146704D01*
X38901Y146931D01*
X38919Y147162D01*
X38901Y147394D01*
X38846Y147620D01*
X38757Y147835D01*
X38636Y148033D01*
X38485Y148209D01*
X38308Y148360D01*
X38110Y148482D01*
X37896Y148571D01*
X37670Y148625D01*
X37438Y148643D01*
D02*
G37*
G36*
X74800Y146781D02*
X74568Y146763D01*
X74342Y146709D01*
X74128Y146619D01*
X73930Y146498D01*
X73753Y146347D01*
X73602Y146170D01*
X73480Y145972D01*
X73391Y145758D01*
X73337Y145532D01*
X73319Y145300D01*
X73337Y145068D01*
X73391Y144842D01*
X73480Y144628D01*
X73602Y144430D01*
X73753Y144253D01*
X73930Y144102D01*
X74128Y143981D01*
X74342Y143892D01*
X74568Y143837D01*
X74800Y143819D01*
X75032Y143837D01*
X75258Y143892D01*
X75472Y143981D01*
X75670Y144102D01*
X75847Y144253D01*
X75998Y144430D01*
X76120Y144628D01*
X76209Y144842D01*
X76263Y145068D01*
X76281Y145300D01*
X76263Y145532D01*
X76209Y145758D01*
X76120Y145972D01*
X75998Y146170D01*
X75847Y146347D01*
X75670Y146498D01*
X75472Y146619D01*
X75258Y146709D01*
X75032Y146763D01*
X74800Y146781D01*
D02*
G37*
G36*
X39800Y141581D02*
X39568Y141563D01*
X39342Y141508D01*
X39128Y141419D01*
X38930Y141298D01*
X38753Y141147D01*
X38602Y140971D01*
X38480Y140772D01*
X38447Y140693D01*
X38059Y140600D01*
X37893Y140621D01*
X37785Y140747D01*
X37608Y140898D01*
X37410Y141019D01*
X37196Y141109D01*
X36970Y141163D01*
X36738Y141181D01*
X36506Y141163D01*
X36280Y141109D01*
X36066Y141019D01*
X35867Y140898D01*
X35691Y140747D01*
X35540Y140570D01*
X35418Y140372D01*
X35329Y140158D01*
X35275Y139932D01*
X35257Y139700D01*
X34774Y139466D01*
X22389D01*
Y132466D01*
X22725D01*
X22877Y131966D01*
X22810Y131921D01*
X22633Y131767D01*
X22479Y131590D01*
X22349Y131396D01*
X22245Y131185D01*
X22170Y130964D01*
X22124Y130734D01*
X22109Y130500D01*
X22124Y130266D01*
X22170Y130036D01*
X22245Y129815D01*
X22349Y129604D01*
X22479Y129410D01*
X22633Y129233D01*
X22810Y129079D01*
X23004Y128949D01*
X23214Y128845D01*
X23436Y128770D01*
X23666Y128724D01*
X23900Y128709D01*
X39865D01*
X40099Y128724D01*
X40329Y128770D01*
X40551Y128845D01*
X40761Y128949D01*
X40956Y129079D01*
X41132Y129233D01*
X44532Y132633D01*
X44686Y132810D01*
X44816Y133004D01*
X44920Y133214D01*
X44995Y133436D01*
X45041Y133666D01*
X45056Y133900D01*
X45041Y134134D01*
X44995Y134364D01*
X44920Y134585D01*
X44816Y134796D01*
X44686Y134991D01*
X44532Y135167D01*
X44356Y135321D01*
X44161Y135451D01*
X43951Y135555D01*
X43729Y135630D01*
X43499Y135676D01*
X43265Y135691D01*
X43031Y135676D01*
X42802Y135630D01*
X42580Y135555D01*
X42370Y135451D01*
X42175Y135321D01*
X41999Y135167D01*
X39500Y132668D01*
X39000Y132875D01*
Y138292D01*
X39129Y138443D01*
X39500Y138654D01*
X39568Y138637D01*
X39800Y138619D01*
X40032Y138637D01*
X40258Y138691D01*
X40472Y138780D01*
X40670Y138902D01*
X40847Y139053D01*
X40998Y139230D01*
X41120Y139428D01*
X41208Y139642D01*
X41263Y139868D01*
X41281Y140100D01*
X41263Y140332D01*
X41208Y140558D01*
X41120Y140772D01*
X40998Y140971D01*
X40847Y141147D01*
X40670Y141298D01*
X40472Y141419D01*
X40258Y141508D01*
X40032Y141563D01*
X39800Y141581D01*
D02*
G37*
G36*
X66400Y143381D02*
X66168Y143363D01*
X65942Y143308D01*
X65728Y143219D01*
X65530Y143098D01*
X65353Y142947D01*
X65202Y142771D01*
X65080Y142572D01*
X64991Y142358D01*
X64937Y142132D01*
X64919Y141900D01*
X64937Y141668D01*
X64991Y141442D01*
X65080Y141228D01*
X65202Y141030D01*
X65353Y140853D01*
X65530Y140702D01*
X65728Y140580D01*
X65942Y140491D01*
X66168Y140437D01*
X66400Y140419D01*
X66632Y140437D01*
X66858Y140491D01*
X67072Y140580D01*
X67270Y140702D01*
X67447Y140853D01*
X67598Y141030D01*
X67720Y141228D01*
X67809Y141442D01*
X67863Y141668D01*
X67881Y141900D01*
X67863Y142132D01*
X67809Y142358D01*
X67720Y142572D01*
X67598Y142771D01*
X67447Y142947D01*
X67270Y143098D01*
X67072Y143219D01*
X66858Y143308D01*
X66632Y143363D01*
X66400Y143381D01*
D02*
G37*
G36*
X9744Y145359D02*
X9435Y145341D01*
X9130Y145290D01*
X8832Y145204D01*
X8546Y145085D01*
X8275Y144936D01*
X8023Y144756D01*
X7792Y144550D01*
X7586Y144319D01*
X7407Y144067D01*
X7257Y143796D01*
X7139Y143510D01*
X7053Y143213D01*
X7001Y142908D01*
X6984Y142598D01*
X7001Y142289D01*
X7053Y141984D01*
X7139Y141687D01*
X7257Y141401D01*
X7407Y141130D01*
X7586Y140877D01*
X7792Y140647D01*
X8023Y140440D01*
X8275Y140261D01*
X8546Y140111D01*
X8832Y139993D01*
X9130Y139907D01*
X9435Y139856D01*
X9744Y139838D01*
X10053Y139856D01*
X10358Y139907D01*
X10656Y139993D01*
X10942Y140111D01*
X11213Y140261D01*
X11465Y140440D01*
X11696Y140647D01*
X11902Y140877D01*
X12081Y141130D01*
X12231Y141401D01*
X12349Y141687D01*
X12435Y141984D01*
X12487Y142289D01*
X12504Y142598D01*
X12487Y142908D01*
X12435Y143213D01*
X12349Y143510D01*
X12231Y143796D01*
X12081Y144067D01*
X11902Y144319D01*
X11696Y144550D01*
X11465Y144756D01*
X11213Y144936D01*
X10942Y145085D01*
X10656Y145204D01*
X10358Y145290D01*
X10053Y145341D01*
X9744Y145359D01*
D02*
G37*
G36*
X57500Y138981D02*
X57268Y138963D01*
X57042Y138909D01*
X56828Y138820D01*
X56630Y138698D01*
X56453Y138547D01*
X56302Y138371D01*
X56181Y138172D01*
X56091Y137958D01*
X56037Y137732D01*
X56019Y137500D01*
X56037Y137268D01*
X56091Y137042D01*
X56181Y136828D01*
X56302Y136629D01*
X56453Y136453D01*
X56630Y136302D01*
X56828Y136180D01*
X57042Y136091D01*
X57268Y136037D01*
X57500Y136019D01*
X57732Y136037D01*
X57958Y136091D01*
X58172Y136180D01*
X58371Y136302D01*
X58547Y136453D01*
X58698Y136629D01*
X58820Y136828D01*
X58908Y137042D01*
X58963Y137268D01*
X58981Y137500D01*
X58963Y137732D01*
X58908Y137958D01*
X58820Y138172D01*
X58698Y138371D01*
X58547Y138547D01*
X58371Y138698D01*
X58172Y138820D01*
X57958Y138909D01*
X57732Y138963D01*
X57500Y138981D01*
D02*
G37*
G36*
X135400Y134981D02*
X135168Y134963D01*
X134942Y134908D01*
X134728Y134819D01*
X134529Y134698D01*
X134353Y134547D01*
X134202Y134371D01*
X134081Y134172D01*
X133992Y133958D01*
X133937Y133732D01*
X133919Y133500D01*
X133937Y133268D01*
X133992Y133042D01*
X134081Y132828D01*
X134202Y132630D01*
X134353Y132453D01*
X134427Y132390D01*
X134330Y131999D01*
X134258Y131890D01*
X134154D01*
Y124803D01*
X141240D01*
Y131890D01*
X136542D01*
X136470Y131999D01*
X136373Y132390D01*
X136447Y132453D01*
X136598Y132630D01*
X136720Y132828D01*
X136809Y133042D01*
X136863Y133268D01*
X136881Y133500D01*
X136863Y133732D01*
X136809Y133958D01*
X136720Y134172D01*
X136598Y134371D01*
X136447Y134547D01*
X136270Y134698D01*
X136072Y134819D01*
X135858Y134908D01*
X135632Y134963D01*
X135400Y134981D01*
D02*
G37*
G36*
X129823Y131894D02*
X129475Y131877D01*
X129131Y131826D01*
X128793Y131741D01*
X128465Y131624D01*
X128150Y131475D01*
X127852Y131296D01*
X127572Y131089D01*
X127314Y130855D01*
X127081Y130597D01*
X126873Y130317D01*
X126694Y130019D01*
X126545Y129704D01*
X126428Y129376D01*
X126344Y129039D01*
X126292Y128694D01*
X126275Y128347D01*
X126292Y127999D01*
X126344Y127654D01*
X126428Y127317D01*
X126545Y126989D01*
X126694Y126674D01*
X126873Y126375D01*
X127081Y126096D01*
X127314Y125838D01*
X127572Y125604D01*
X127852Y125397D01*
X128150Y125218D01*
X128465Y125069D01*
X128793Y124952D01*
X129131Y124867D01*
X129475Y124816D01*
X129823Y124799D01*
X130171Y124816D01*
X130515Y124867D01*
X130853Y124952D01*
X131181Y125069D01*
X131495Y125218D01*
X131794Y125397D01*
X132073Y125604D01*
X132331Y125838D01*
X132565Y126096D01*
X132773Y126375D01*
X132951Y126674D01*
X133100Y126989D01*
X133218Y127317D01*
X133302Y127654D01*
X133353Y127999D01*
X133370Y128347D01*
X133353Y128694D01*
X133302Y129039D01*
X133218Y129376D01*
X133100Y129704D01*
X132951Y130019D01*
X132773Y130317D01*
X132565Y130597D01*
X132331Y130855D01*
X132073Y131089D01*
X131794Y131296D01*
X131495Y131475D01*
X131181Y131624D01*
X130853Y131741D01*
X130515Y131826D01*
X130171Y131877D01*
X129823Y131894D01*
D02*
G37*
G36*
X121949D02*
X121601Y131877D01*
X121257Y131826D01*
X120919Y131741D01*
X120591Y131624D01*
X120276Y131475D01*
X119978Y131296D01*
X119698Y131089D01*
X119440Y130855D01*
X119207Y130597D01*
X118999Y130317D01*
X118820Y130019D01*
X118671Y129704D01*
X118554Y129376D01*
X118470Y129039D01*
X118418Y128694D01*
X118401Y128347D01*
X118418Y127999D01*
X118470Y127654D01*
X118554Y127317D01*
X118671Y126989D01*
X118820Y126674D01*
X118999Y126375D01*
X119207Y126096D01*
X119440Y125838D01*
X119698Y125604D01*
X119978Y125397D01*
X120276Y125218D01*
X120591Y125069D01*
X120919Y124952D01*
X121257Y124867D01*
X121601Y124816D01*
X121949Y124799D01*
X122297Y124816D01*
X122641Y124867D01*
X122979Y124952D01*
X123306Y125069D01*
X123621Y125218D01*
X123920Y125397D01*
X124199Y125604D01*
X124457Y125838D01*
X124691Y126096D01*
X124899Y126375D01*
X125077Y126674D01*
X125226Y126989D01*
X125344Y127317D01*
X125428Y127654D01*
X125479Y127999D01*
X125496Y128347D01*
X125479Y128694D01*
X125428Y129039D01*
X125344Y129376D01*
X125226Y129704D01*
X125077Y130019D01*
X124899Y130317D01*
X124691Y130597D01*
X124457Y130855D01*
X124199Y131089D01*
X123920Y131296D01*
X123621Y131475D01*
X123306Y131624D01*
X122979Y131741D01*
X122641Y131826D01*
X122297Y131877D01*
X121949Y131894D01*
D02*
G37*
G36*
X114075D02*
X113727Y131877D01*
X113383Y131826D01*
X113045Y131741D01*
X112717Y131624D01*
X112402Y131475D01*
X112104Y131296D01*
X111824Y131089D01*
X111566Y130855D01*
X111332Y130597D01*
X111125Y130317D01*
X110946Y130019D01*
X110797Y129704D01*
X110680Y129376D01*
X110595Y129039D01*
X110544Y128694D01*
X110527Y128347D01*
X110544Y127999D01*
X110595Y127654D01*
X110680Y127317D01*
X110797Y126989D01*
X110946Y126674D01*
X111125Y126375D01*
X111332Y126096D01*
X111566Y125838D01*
X111824Y125604D01*
X112104Y125397D01*
X112402Y125218D01*
X112717Y125069D01*
X113045Y124952D01*
X113383Y124867D01*
X113727Y124816D01*
X114075Y124799D01*
X114423Y124816D01*
X114767Y124867D01*
X115105Y124952D01*
X115432Y125069D01*
X115747Y125218D01*
X116046Y125397D01*
X116325Y125604D01*
X116583Y125838D01*
X116817Y126096D01*
X117025Y126375D01*
X117203Y126674D01*
X117352Y126989D01*
X117470Y127317D01*
X117554Y127654D01*
X117605Y127999D01*
X117622Y128347D01*
X117605Y128694D01*
X117554Y129039D01*
X117470Y129376D01*
X117352Y129704D01*
X117203Y130019D01*
X117025Y130317D01*
X116817Y130597D01*
X116583Y130855D01*
X116325Y131089D01*
X116046Y131296D01*
X115747Y131475D01*
X115432Y131624D01*
X115105Y131741D01*
X114767Y131826D01*
X114423Y131877D01*
X114075Y131894D01*
D02*
G37*
G36*
X106201D02*
X105853Y131877D01*
X105509Y131826D01*
X105171Y131741D01*
X104843Y131624D01*
X104528Y131475D01*
X104230Y131296D01*
X103950Y131089D01*
X103692Y130855D01*
X103458Y130597D01*
X103251Y130317D01*
X103072Y130019D01*
X102923Y129704D01*
X102806Y129376D01*
X102721Y129039D01*
X102670Y128694D01*
X102653Y128347D01*
X102670Y127999D01*
X102721Y127654D01*
X102806Y127317D01*
X102923Y126989D01*
X103072Y126674D01*
X103251Y126375D01*
X103458Y126096D01*
X103692Y125838D01*
X103950Y125604D01*
X104230Y125397D01*
X104528Y125218D01*
X104843Y125069D01*
X105171Y124952D01*
X105509Y124867D01*
X105853Y124816D01*
X106201Y124799D01*
X106549Y124816D01*
X106893Y124867D01*
X107231Y124952D01*
X107558Y125069D01*
X107873Y125218D01*
X108172Y125397D01*
X108451Y125604D01*
X108709Y125838D01*
X108943Y126096D01*
X109151Y126375D01*
X109329Y126674D01*
X109478Y126989D01*
X109596Y127317D01*
X109680Y127654D01*
X109731Y127999D01*
X109748Y128347D01*
X109731Y128694D01*
X109680Y129039D01*
X109596Y129376D01*
X109478Y129704D01*
X109329Y130019D01*
X109151Y130317D01*
X108943Y130597D01*
X108709Y130855D01*
X108451Y131089D01*
X108172Y131296D01*
X107873Y131475D01*
X107558Y131624D01*
X107231Y131741D01*
X106893Y131826D01*
X106549Y131877D01*
X106201Y131894D01*
D02*
G37*
G36*
X138197Y124195D02*
Y120972D01*
X141420D01*
X141385Y121206D01*
X141295Y121564D01*
X141171Y121912D01*
X141013Y122245D01*
X140824Y122562D01*
X140604Y122858D01*
X140356Y123132D01*
X140083Y123379D01*
X139786Y123599D01*
X139470Y123789D01*
X139136Y123947D01*
X138788Y124071D01*
X138431Y124161D01*
X138197Y124195D01*
D02*
G37*
G36*
X137197D02*
X136963Y124161D01*
X136605Y124071D01*
X136258Y123947D01*
X135924Y123789D01*
X135608Y123599D01*
X135311Y123379D01*
X135038Y123132D01*
X134790Y122858D01*
X134570Y122562D01*
X134380Y122245D01*
X134223Y121912D01*
X134098Y121564D01*
X134009Y121206D01*
X133974Y120972D01*
X137197D01*
Y124195D01*
D02*
G37*
G36*
X14100Y123581D02*
X13868Y123563D01*
X13642Y123509D01*
X13428Y123419D01*
X13229Y123298D01*
X13053Y123147D01*
X12902Y122970D01*
X12780Y122772D01*
X12691Y122558D01*
X12637Y122332D01*
X12619Y122100D01*
X12637Y121868D01*
X12691Y121642D01*
X12780Y121428D01*
X12902Y121230D01*
X13053Y121053D01*
X13229Y120902D01*
X13428Y120781D01*
X13642Y120692D01*
X13868Y120637D01*
X14100Y120619D01*
X14332Y120637D01*
X14558Y120692D01*
X14772Y120781D01*
X14970Y120902D01*
X15147Y121053D01*
X15156Y121063D01*
X17036D01*
X17090Y121000D01*
X17267Y120849D01*
X17465Y120728D01*
X17680Y120639D01*
X17905Y120584D01*
X18137Y120566D01*
X18369Y120584D01*
X18595Y120639D01*
X18809Y120728D01*
X19008Y120849D01*
X19184Y121000D01*
X19335Y121177D01*
X19457Y121375D01*
X19546Y121590D01*
X19600Y121816D01*
X19618Y122047D01*
X19600Y122279D01*
X19546Y122505D01*
X19457Y122720D01*
X19335Y122918D01*
X19184Y123094D01*
X19008Y123245D01*
X18809Y123367D01*
X18595Y123456D01*
X18369Y123510D01*
X18137Y123528D01*
X17905Y123510D01*
X17680Y123456D01*
X17465Y123367D01*
X17267Y123245D01*
X17140Y123137D01*
X15156D01*
X15147Y123147D01*
X14970Y123298D01*
X14772Y123419D01*
X14558Y123509D01*
X14332Y123563D01*
X14100Y123581D01*
D02*
G37*
G36*
X49900Y127745D02*
X49533Y127727D01*
X49169Y127673D01*
X48813Y127583D01*
X48467Y127460D01*
X48135Y127303D01*
X47820Y127114D01*
X47524Y126895D01*
X47252Y126648D01*
X47005Y126376D01*
X46786Y126080D01*
X46597Y125765D01*
X46440Y125433D01*
X46317Y125087D01*
X46227Y124731D01*
X46173Y124367D01*
X46155Y124000D01*
X46173Y123633D01*
X46227Y123269D01*
X46317Y122913D01*
X46440Y122567D01*
X46597Y122235D01*
X46786Y121920D01*
X47005Y121624D01*
X47252Y121352D01*
X47524Y121105D01*
X47820Y120886D01*
X48135Y120697D01*
X48467Y120540D01*
X48813Y120417D01*
X49169Y120327D01*
X49533Y120273D01*
X49900Y120255D01*
X50267Y120273D01*
X50630Y120327D01*
X50987Y120417D01*
X51333Y120540D01*
X51665Y120697D01*
X51980Y120886D01*
X52276Y121105D01*
X52548Y121352D01*
X52795Y121624D01*
X53013Y121920D01*
X53202Y122235D01*
X53360Y122567D01*
X53483Y122913D01*
X53573Y123269D01*
X53627Y123633D01*
X53645Y124000D01*
X53627Y124367D01*
X53573Y124731D01*
X53483Y125087D01*
X53360Y125433D01*
X53202Y125765D01*
X53013Y126080D01*
X52795Y126376D01*
X52548Y126648D01*
X52276Y126895D01*
X51980Y127114D01*
X51665Y127303D01*
X51333Y127460D01*
X50987Y127583D01*
X50630Y127673D01*
X50267Y127727D01*
X49900Y127745D01*
D02*
G37*
G36*
X35900D02*
X35533Y127727D01*
X35169Y127673D01*
X34813Y127583D01*
X34467Y127460D01*
X34135Y127303D01*
X33820Y127114D01*
X33524Y126895D01*
X33252Y126648D01*
X33005Y126376D01*
X32786Y126080D01*
X32598Y125765D01*
X32440Y125433D01*
X32317Y125087D01*
X32227Y124731D01*
X32173Y124367D01*
X32155Y124000D01*
X32173Y123633D01*
X32227Y123269D01*
X32317Y122913D01*
X32440Y122567D01*
X32598Y122235D01*
X32786Y121920D01*
X33005Y121624D01*
X33252Y121352D01*
X33524Y121105D01*
X33820Y120886D01*
X34135Y120697D01*
X34467Y120540D01*
X34813Y120417D01*
X35169Y120327D01*
X35533Y120273D01*
X35900Y120255D01*
X36267Y120273D01*
X36630Y120327D01*
X36987Y120417D01*
X37333Y120540D01*
X37665Y120697D01*
X37980Y120886D01*
X38276Y121105D01*
X38548Y121352D01*
X38795Y121624D01*
X39014Y121920D01*
X39202Y122235D01*
X39360Y122567D01*
X39483Y122913D01*
X39573Y123269D01*
X39627Y123633D01*
X39645Y124000D01*
X39627Y124367D01*
X39573Y124731D01*
X39483Y125087D01*
X39360Y125433D01*
X39202Y125765D01*
X39014Y126080D01*
X38795Y126376D01*
X38548Y126648D01*
X38276Y126895D01*
X37980Y127114D01*
X37665Y127303D01*
X37333Y127460D01*
X36987Y127583D01*
X36630Y127673D01*
X36267Y127727D01*
X35900Y127745D01*
D02*
G37*
G36*
X25900D02*
X25533Y127727D01*
X25169Y127673D01*
X24813Y127583D01*
X24467Y127460D01*
X24135Y127303D01*
X23820Y127114D01*
X23524Y126895D01*
X23252Y126648D01*
X23005Y126376D01*
X22786Y126080D01*
X22598Y125765D01*
X22440Y125433D01*
X22317Y125087D01*
X22227Y124731D01*
X22173Y124367D01*
X22155Y124000D01*
X22173Y123633D01*
X22227Y123269D01*
X22317Y122913D01*
X22440Y122567D01*
X22598Y122235D01*
X22786Y121920D01*
X23005Y121624D01*
X23252Y121352D01*
X23524Y121105D01*
X23820Y120886D01*
X24135Y120697D01*
X24467Y120540D01*
X24813Y120417D01*
X25169Y120327D01*
X25533Y120273D01*
X25900Y120255D01*
X26267Y120273D01*
X26630Y120327D01*
X26987Y120417D01*
X27333Y120540D01*
X27665Y120697D01*
X27980Y120886D01*
X28276Y121105D01*
X28548Y121352D01*
X28795Y121624D01*
X29014Y121920D01*
X29202Y122235D01*
X29360Y122567D01*
X29483Y122913D01*
X29573Y123269D01*
X29627Y123633D01*
X29645Y124000D01*
X29627Y124367D01*
X29573Y124731D01*
X29483Y125087D01*
X29360Y125433D01*
X29202Y125765D01*
X29014Y126080D01*
X28795Y126376D01*
X28548Y126648D01*
X28276Y126895D01*
X27980Y127114D01*
X27665Y127303D01*
X27333Y127460D01*
X26987Y127583D01*
X26630Y127673D01*
X26267Y127727D01*
X25900Y127745D01*
D02*
G37*
G36*
X59900Y127745D02*
X59533Y127727D01*
X59169Y127673D01*
X58813Y127583D01*
X58467Y127460D01*
X58135Y127303D01*
X57820Y127114D01*
X57524Y126895D01*
X57252Y126648D01*
X57005Y126376D01*
X56786Y126080D01*
X56598Y125765D01*
X56440Y125433D01*
X56317Y125087D01*
X56227Y124731D01*
X56173Y124367D01*
X56155Y124000D01*
X56173Y123633D01*
X56227Y123269D01*
X56317Y122913D01*
X56440Y122567D01*
X56598Y122235D01*
X56786Y121920D01*
X57005Y121624D01*
X57252Y121352D01*
X57524Y121105D01*
X57820Y120886D01*
X58135Y120697D01*
X58467Y120540D01*
X58813Y120417D01*
X59169Y120327D01*
X59533Y120273D01*
X59900Y120255D01*
X60267Y120273D01*
X60631Y120327D01*
X60987Y120417D01*
X61333Y120540D01*
X61665Y120697D01*
X61980Y120886D01*
X62276Y121105D01*
X62548Y121352D01*
X62795Y121624D01*
X63014Y121920D01*
X63203Y122235D01*
X63360Y122567D01*
X63483Y122913D01*
X63573Y123269D01*
X63627Y123633D01*
X63645Y124000D01*
X63627Y124367D01*
X63573Y124731D01*
X63483Y125087D01*
X63360Y125433D01*
X63203Y125765D01*
X63014Y126080D01*
X62795Y126376D01*
X62548Y126648D01*
X62276Y126895D01*
X61980Y127114D01*
X61665Y127303D01*
X61333Y127460D01*
X60987Y127583D01*
X60631Y127673D01*
X60267Y127727D01*
X59900Y127745D01*
D02*
G37*
G36*
X68800Y130681D02*
X68568Y130663D01*
X68342Y130608D01*
X68128Y130519D01*
X67930Y130398D01*
X67753Y130247D01*
X67602Y130070D01*
X67480Y129872D01*
X67392Y129658D01*
X67337Y129432D01*
X67319Y129200D01*
X67337Y128968D01*
X67392Y128742D01*
X67480Y128528D01*
X67602Y128330D01*
X67753Y128153D01*
X67930Y128002D01*
X68128Y127881D01*
X68160Y127867D01*
X68192Y127330D01*
X68135Y127303D01*
X67820Y127114D01*
X67524Y126895D01*
X67252Y126648D01*
X67005Y126376D01*
X66786Y126080D01*
X66597Y125765D01*
X66440Y125433D01*
X66317Y125087D01*
X66227Y124731D01*
X66173Y124367D01*
X66155Y124000D01*
X66173Y123633D01*
X66227Y123269D01*
X66317Y122913D01*
X66440Y122567D01*
X66597Y122235D01*
X66786Y121920D01*
X67005Y121624D01*
X67252Y121352D01*
X67524Y121105D01*
X67820Y120886D01*
X68135Y120697D01*
X68467Y120540D01*
X68813Y120417D01*
X69169Y120327D01*
X69533Y120273D01*
X69900Y120255D01*
X70267Y120273D01*
X70631Y120327D01*
X70987Y120417D01*
X71333Y120540D01*
X71665Y120697D01*
X71980Y120886D01*
X72276Y121105D01*
X72548Y121352D01*
X72795Y121624D01*
X73014Y121920D01*
X73203Y122235D01*
X73360Y122567D01*
X73483Y122913D01*
X73573Y123269D01*
X73627Y123633D01*
X73645Y124000D01*
X73627Y124367D01*
X73573Y124731D01*
X73483Y125087D01*
X73360Y125433D01*
X73203Y125765D01*
X73014Y126080D01*
X72795Y126376D01*
X72548Y126648D01*
X72276Y126895D01*
X71980Y127114D01*
X71665Y127303D01*
X71333Y127460D01*
X70987Y127583D01*
X70631Y127673D01*
X70267Y127727D01*
X70126Y127734D01*
X70006Y127914D01*
X69925Y128244D01*
X69998Y128330D01*
X70120Y128528D01*
X70209Y128742D01*
X70263Y128968D01*
X70281Y129200D01*
X70263Y129432D01*
X70209Y129658D01*
X70120Y129872D01*
X69998Y130070D01*
X69847Y130247D01*
X69670Y130398D01*
X69472Y130519D01*
X69258Y130608D01*
X69032Y130663D01*
X68800Y130681D01*
D02*
G37*
G36*
X129823Y124020D02*
X129475Y124003D01*
X129131Y123952D01*
X128793Y123867D01*
X128465Y123750D01*
X128150Y123601D01*
X127852Y123422D01*
X127572Y123215D01*
X127314Y122981D01*
X127081Y122723D01*
X126873Y122443D01*
X126694Y122145D01*
X126545Y121830D01*
X126428Y121502D01*
X126344Y121165D01*
X126292Y120820D01*
X126275Y120472D01*
X126292Y120125D01*
X126344Y119780D01*
X126428Y119443D01*
X126545Y119115D01*
X126694Y118800D01*
X126873Y118501D01*
X127081Y118222D01*
X127314Y117964D01*
X127572Y117730D01*
X127852Y117523D01*
X128150Y117344D01*
X128465Y117195D01*
X128793Y117078D01*
X129131Y116993D01*
X129475Y116942D01*
X129823Y116925D01*
X130171Y116942D01*
X130515Y116993D01*
X130853Y117078D01*
X131181Y117195D01*
X131495Y117344D01*
X131794Y117523D01*
X132073Y117730D01*
X132331Y117964D01*
X132565Y118222D01*
X132773Y118501D01*
X132951Y118800D01*
X133100Y119115D01*
X133218Y119443D01*
X133302Y119780D01*
X133353Y120125D01*
X133370Y120472D01*
X133353Y120820D01*
X133302Y121165D01*
X133218Y121502D01*
X133100Y121830D01*
X132951Y122145D01*
X132773Y122443D01*
X132565Y122723D01*
X132331Y122981D01*
X132073Y123215D01*
X131794Y123422D01*
X131495Y123601D01*
X131181Y123750D01*
X130853Y123867D01*
X130515Y123952D01*
X130171Y124003D01*
X129823Y124020D01*
D02*
G37*
G36*
X121949D02*
X121601Y124003D01*
X121257Y123952D01*
X120919Y123867D01*
X120591Y123750D01*
X120276Y123601D01*
X119978Y123422D01*
X119698Y123215D01*
X119440Y122981D01*
X119207Y122723D01*
X118999Y122443D01*
X118820Y122145D01*
X118671Y121830D01*
X118554Y121502D01*
X118470Y121165D01*
X118418Y120820D01*
X118401Y120472D01*
X118418Y120125D01*
X118470Y119780D01*
X118554Y119443D01*
X118671Y119115D01*
X118820Y118800D01*
X118999Y118501D01*
X119207Y118222D01*
X119440Y117964D01*
X119698Y117730D01*
X119978Y117523D01*
X120276Y117344D01*
X120591Y117195D01*
X120919Y117078D01*
X121257Y116993D01*
X121601Y116942D01*
X121949Y116925D01*
X122297Y116942D01*
X122641Y116993D01*
X122979Y117078D01*
X123306Y117195D01*
X123621Y117344D01*
X123920Y117523D01*
X124199Y117730D01*
X124457Y117964D01*
X124691Y118222D01*
X124899Y118501D01*
X125077Y118800D01*
X125226Y119115D01*
X125344Y119443D01*
X125428Y119780D01*
X125479Y120125D01*
X125496Y120472D01*
X125479Y120820D01*
X125428Y121165D01*
X125344Y121502D01*
X125226Y121830D01*
X125077Y122145D01*
X124899Y122443D01*
X124691Y122723D01*
X124457Y122981D01*
X124199Y123215D01*
X123920Y123422D01*
X123621Y123601D01*
X123306Y123750D01*
X122979Y123867D01*
X122641Y123952D01*
X122297Y124003D01*
X121949Y124020D01*
D02*
G37*
G36*
X114075D02*
X113727Y124003D01*
X113383Y123952D01*
X113045Y123867D01*
X112717Y123750D01*
X112402Y123601D01*
X112104Y123422D01*
X111824Y123215D01*
X111566Y122981D01*
X111332Y122723D01*
X111125Y122443D01*
X110946Y122145D01*
X110797Y121830D01*
X110680Y121502D01*
X110595Y121165D01*
X110544Y120820D01*
X110527Y120472D01*
X110544Y120125D01*
X110595Y119780D01*
X110680Y119443D01*
X110797Y119115D01*
X110946Y118800D01*
X111125Y118501D01*
X111332Y118222D01*
X111566Y117964D01*
X111824Y117730D01*
X112104Y117523D01*
X112402Y117344D01*
X112717Y117195D01*
X113045Y117078D01*
X113383Y116993D01*
X113727Y116942D01*
X114075Y116925D01*
X114423Y116942D01*
X114767Y116993D01*
X115105Y117078D01*
X115432Y117195D01*
X115747Y117344D01*
X116046Y117523D01*
X116325Y117730D01*
X116583Y117964D01*
X116817Y118222D01*
X117025Y118501D01*
X117203Y118800D01*
X117352Y119115D01*
X117470Y119443D01*
X117554Y119780D01*
X117605Y120125D01*
X117622Y120472D01*
X117605Y120820D01*
X117554Y121165D01*
X117470Y121502D01*
X117352Y121830D01*
X117203Y122145D01*
X117025Y122443D01*
X116817Y122723D01*
X116583Y122981D01*
X116325Y123215D01*
X116046Y123422D01*
X115747Y123601D01*
X115432Y123750D01*
X115105Y123867D01*
X114767Y123952D01*
X114423Y124003D01*
X114075Y124020D01*
D02*
G37*
G36*
X106201D02*
X105853Y124003D01*
X105509Y123952D01*
X105171Y123867D01*
X104843Y123750D01*
X104528Y123601D01*
X104230Y123422D01*
X103950Y123215D01*
X103692Y122981D01*
X103458Y122723D01*
X103251Y122443D01*
X103072Y122145D01*
X102923Y121830D01*
X102806Y121502D01*
X102721Y121165D01*
X102670Y120820D01*
X102653Y120472D01*
X102670Y120125D01*
X102721Y119780D01*
X102806Y119443D01*
X102923Y119115D01*
X103072Y118800D01*
X103251Y118501D01*
X103458Y118222D01*
X103692Y117964D01*
X103950Y117730D01*
X104230Y117523D01*
X104528Y117344D01*
X104843Y117195D01*
X105171Y117078D01*
X105509Y116993D01*
X105853Y116942D01*
X106201Y116925D01*
X106549Y116942D01*
X106893Y116993D01*
X107231Y117078D01*
X107558Y117195D01*
X107873Y117344D01*
X108172Y117523D01*
X108451Y117730D01*
X108709Y117964D01*
X108943Y118222D01*
X109151Y118501D01*
X109329Y118800D01*
X109478Y119115D01*
X109596Y119443D01*
X109680Y119780D01*
X109731Y120125D01*
X109748Y120472D01*
X109731Y120820D01*
X109680Y121165D01*
X109596Y121502D01*
X109478Y121830D01*
X109329Y122145D01*
X109151Y122443D01*
X108943Y122723D01*
X108709Y122981D01*
X108451Y123215D01*
X108172Y123422D01*
X107873Y123601D01*
X107558Y123750D01*
X107231Y123867D01*
X106893Y123952D01*
X106549Y124003D01*
X106201Y124020D01*
D02*
G37*
G36*
X141420Y119972D02*
X138197D01*
Y116750D01*
X138431Y116784D01*
X138788Y116874D01*
X139136Y116998D01*
X139470Y117156D01*
X139786Y117346D01*
X140083Y117566D01*
X140356Y117813D01*
X140604Y118087D01*
X140824Y118383D01*
X141013Y118700D01*
X141171Y119033D01*
X141295Y119381D01*
X141385Y119739D01*
X141420Y119972D01*
D02*
G37*
G36*
X137197D02*
X133974D01*
X134009Y119739D01*
X134098Y119381D01*
X134223Y119033D01*
X134380Y118700D01*
X134570Y118383D01*
X134790Y118087D01*
X135038Y117813D01*
X135311Y117566D01*
X135608Y117346D01*
X135924Y117156D01*
X136258Y116998D01*
X136605Y116874D01*
X136963Y116784D01*
X137197Y116750D01*
Y119972D01*
D02*
G37*
G36*
X53853Y117953D02*
X50400D01*
Y114500D01*
X53853D01*
Y117953D01*
D02*
G37*
G36*
X49400D02*
X45947D01*
Y114500D01*
X49400D01*
Y117953D01*
D02*
G37*
G36*
X73853Y117953D02*
X70400D01*
Y114500D01*
X73853D01*
Y117953D01*
D02*
G37*
G36*
X69400D02*
X65947D01*
Y114500D01*
X69400D01*
Y117953D01*
D02*
G37*
G36*
X63853Y117953D02*
X60400D01*
Y114500D01*
X63853D01*
Y117953D01*
D02*
G37*
G36*
X59400D02*
X55947D01*
Y114500D01*
X59400D01*
Y117953D01*
D02*
G37*
G36*
X7087Y115375D02*
X6209D01*
Y113098D01*
X9813D01*
X9793Y113216D01*
X9707Y113515D01*
X9588Y113803D01*
X9437Y114075D01*
X9257Y114329D01*
X9049Y114561D01*
X8817Y114769D01*
X8563Y114949D01*
X8291Y115100D01*
X8003Y115219D01*
X7704Y115305D01*
X7397Y115357D01*
X7087Y115375D01*
D02*
G37*
G36*
X5209D02*
X4331D01*
X4020Y115357D01*
X3713Y115305D01*
X3414Y115219D01*
X3126Y115100D01*
X2854Y114949D01*
X2600Y114769D01*
X2368Y114561D01*
X2160Y114329D01*
X1980Y114075D01*
X1830Y113803D01*
X1711Y113515D01*
X1624Y113216D01*
X1604Y113098D01*
X5209D01*
Y115375D01*
D02*
G37*
G36*
X121555Y113292D02*
X121324Y113274D01*
X121098Y113219D01*
X120883Y113130D01*
X120685Y113009D01*
X120508Y112858D01*
X120357Y112681D01*
X120236Y112483D01*
X120147Y112269D01*
X120092Y112043D01*
X120074Y111811D01*
X120092Y111579D01*
X120147Y111353D01*
X120236Y111139D01*
X120357Y110941D01*
X120508Y110764D01*
X120685Y110613D01*
X120883Y110492D01*
X121098Y110403D01*
X121324Y110348D01*
X121555Y110330D01*
X121787Y110348D01*
X122013Y110403D01*
X122228Y110492D01*
X122426Y110613D01*
X122602Y110764D01*
X122753Y110941D01*
X122875Y111139D01*
X122964Y111353D01*
X123018Y111579D01*
X123036Y111811D01*
X123018Y112043D01*
X122964Y112269D01*
X122875Y112483D01*
X122753Y112681D01*
X122602Y112858D01*
X122426Y113009D01*
X122228Y113130D01*
X122013Y113219D01*
X121787Y113274D01*
X121555Y113292D01*
D02*
G37*
G36*
X105907D02*
X105675Y113274D01*
X105449Y113219D01*
X105235Y113130D01*
X105037Y113009D01*
X104860Y112858D01*
X104709Y112681D01*
X104588Y112483D01*
X104499Y112269D01*
X104444Y112043D01*
X104426Y111811D01*
X104444Y111579D01*
X104499Y111353D01*
X104588Y111139D01*
X104709Y110941D01*
X104860Y110764D01*
X105037Y110613D01*
X105235Y110492D01*
X105449Y110403D01*
X105675Y110348D01*
X105907Y110330D01*
X106139Y110348D01*
X106365Y110403D01*
X106579Y110492D01*
X106778Y110613D01*
X106954Y110764D01*
X107105Y110941D01*
X107227Y111139D01*
X107316Y111353D01*
X107370Y111579D01*
X107388Y111811D01*
X107370Y112043D01*
X107316Y112269D01*
X107227Y112483D01*
X107105Y112681D01*
X106954Y112858D01*
X106778Y113009D01*
X106579Y113130D01*
X106365Y113219D01*
X106139Y113274D01*
X105907Y113292D01*
D02*
G37*
G36*
X39640Y117740D02*
X32160D01*
Y110260D01*
X39640D01*
Y117740D01*
D02*
G37*
G36*
X29640D02*
X22160D01*
Y110260D01*
X29640D01*
Y117740D01*
D02*
G37*
G36*
X81496Y137408D02*
X81104Y137405D01*
X80950Y137390D01*
X80802Y137345D01*
X80078Y137046D01*
X79941Y136972D01*
X79821Y136874D01*
X79576Y136629D01*
X79543Y136599D01*
X79513Y136566D01*
X79268Y136320D01*
X79169Y136200D01*
X79096Y136064D01*
X78797Y135340D01*
X78751Y135192D01*
X78736Y135037D01*
Y134690D01*
X78734Y134646D01*
X78736Y134601D01*
Y134254D01*
X78740Y134215D01*
Y121724D01*
X78653Y121622D01*
X78532Y121423D01*
X78443Y121209D01*
X78389Y120983D01*
X78370Y120751D01*
X78389Y120519D01*
X78443Y120294D01*
X78532Y120079D01*
X78653Y119881D01*
X78740Y119779D01*
Y113422D01*
X78736Y113384D01*
Y113037D01*
X78734Y112992D01*
X78736Y112947D01*
Y112601D01*
X78751Y112446D01*
X78797Y112298D01*
X79096Y111574D01*
X79169Y111437D01*
X79268Y111318D01*
X79513Y111072D01*
X79543Y111039D01*
X79576Y111009D01*
X79821Y110764D01*
X79941Y110665D01*
X80078Y110592D01*
X80802Y110293D01*
X80950Y110248D01*
X81104Y110232D01*
X81496Y110230D01*
Y110230D01*
X95276D01*
Y110230D01*
X95344Y110232D01*
X95857D01*
X96012Y110248D01*
X96624Y110370D01*
X96700Y110383D01*
X96724Y110389D01*
X97153Y110475D01*
X97301Y110520D01*
X97301Y110520D01*
X98376Y110965D01*
X98376Y110965D01*
X98513Y111038D01*
X98513Y111038D01*
X98876Y111281D01*
X98897Y111293D01*
X98960Y111337D01*
X99480Y111684D01*
X99600Y111783D01*
X99963Y112146D01*
X100013Y112192D01*
X100059Y112242D01*
X100422Y112605D01*
X100521Y112725D01*
X100868Y113245D01*
X100911Y113307D01*
X100924Y113329D01*
X101167Y113692D01*
X101167Y113692D01*
X101240Y113829D01*
X101240Y113829D01*
X101685Y114904D01*
X101730Y115052D01*
X101815Y115481D01*
X101822Y115505D01*
X101835Y115579D01*
X101957Y116193D01*
X101972Y116348D01*
Y116861D01*
X101975Y116929D01*
X101974D01*
Y130709D01*
X101975D01*
X101972Y130777D01*
Y131290D01*
X101957Y131445D01*
X101835Y132058D01*
X101822Y132133D01*
X101815Y132157D01*
X101730Y132586D01*
X101685Y132734D01*
X101240Y133809D01*
X101240Y133809D01*
X101167Y133946D01*
X101167Y133946D01*
X100924Y134309D01*
X100911Y134330D01*
X100868Y134393D01*
X100521Y134913D01*
X100422Y135033D01*
X100059Y135396D01*
X100013Y135446D01*
X99963Y135492D01*
X99600Y135855D01*
X99480Y135954D01*
X98960Y136301D01*
X98897Y136344D01*
X98876Y136357D01*
X98513Y136600D01*
X98513Y136600D01*
X98376Y136673D01*
X98376Y136673D01*
X97301Y137118D01*
X97153Y137163D01*
X96724Y137249D01*
X96700Y137255D01*
X96626Y137268D01*
X96012Y137390D01*
X95857Y137405D01*
X95343D01*
X95276Y137408D01*
Y137407D01*
X81496D01*
X81496Y137407D01*
Y137408D01*
D02*
G37*
G36*
X53853Y113500D02*
X50400D01*
Y110047D01*
X53853D01*
Y113500D01*
D02*
G37*
G36*
X49400D02*
X45947D01*
Y110047D01*
X49400D01*
Y113500D01*
D02*
G37*
G36*
X63853Y113500D02*
X60400D01*
Y110047D01*
X63853D01*
Y113500D01*
D02*
G37*
G36*
X59400D02*
X55947D01*
Y110047D01*
X59400D01*
Y113500D01*
D02*
G37*
G36*
X73853Y113500D02*
X70400D01*
Y110047D01*
X73853D01*
Y113500D01*
D02*
G37*
G36*
X69400D02*
X65947D01*
Y110047D01*
X69400D01*
Y113500D01*
D02*
G37*
G36*
X9813Y112098D02*
X6209D01*
Y109822D01*
X7087D01*
X7397Y109840D01*
X7704Y109892D01*
X8003Y109978D01*
X8291Y110097D01*
X8563Y110248D01*
X8817Y110428D01*
X9049Y110635D01*
X9257Y110868D01*
X9437Y111121D01*
X9588Y111394D01*
X9707Y111682D01*
X9793Y111981D01*
X9813Y112098D01*
D02*
G37*
G36*
X5209D02*
X1604D01*
X1624Y111981D01*
X1711Y111682D01*
X1830Y111394D01*
X1980Y111121D01*
X2160Y110868D01*
X2368Y110635D01*
X2600Y110428D01*
X2854Y110248D01*
X3126Y110097D01*
X3414Y109978D01*
X3713Y109892D01*
X4020Y109840D01*
X4331Y109822D01*
X5209D01*
Y112098D01*
D02*
G37*
G36*
X115256Y107583D02*
X115024Y107565D01*
X114798Y107511D01*
X114584Y107422D01*
X114385Y107300D01*
X114209Y107150D01*
X114058Y106973D01*
X113936Y106775D01*
X113847Y106560D01*
X113793Y106334D01*
X113775Y106102D01*
X113793Y105871D01*
X113847Y105645D01*
X113936Y105430D01*
X114058Y105232D01*
X114209Y105055D01*
X114385Y104904D01*
X114584Y104783D01*
X114798Y104694D01*
X115024Y104640D01*
X115256Y104621D01*
X115488Y104640D01*
X115714Y104694D01*
X115928Y104783D01*
X116126Y104904D01*
X116303Y105055D01*
X116454Y105232D01*
X116575Y105430D01*
X116664Y105645D01*
X116719Y105871D01*
X116737Y106102D01*
X116719Y106334D01*
X116664Y106560D01*
X116575Y106775D01*
X116454Y106973D01*
X116303Y107150D01*
X116126Y107300D01*
X115928Y107422D01*
X115714Y107511D01*
X115488Y107565D01*
X115256Y107583D01*
D02*
G37*
G36*
X16200Y111081D02*
X15968Y111063D01*
X15742Y111009D01*
X15528Y110919D01*
X15329Y110798D01*
X15153Y110647D01*
X15002Y110470D01*
X14881Y110272D01*
X14792Y110058D01*
X14737Y109832D01*
X14719Y109600D01*
X14737Y109368D01*
X14792Y109142D01*
X14881Y108928D01*
X15002Y108730D01*
X15153Y108553D01*
X15329Y108402D01*
X15528Y108281D01*
X15742Y108192D01*
X15968Y108137D01*
X16199Y108074D01*
X16196Y107839D01*
X16215Y107607D01*
X16269Y107381D01*
X16358Y107166D01*
X16479Y106968D01*
X16630Y106791D01*
X16807Y106641D01*
X17005Y106519D01*
X17220Y106430D01*
X17446Y106376D01*
X17677Y106358D01*
X17909Y106376D01*
X18135Y106430D01*
X18350Y106519D01*
X18548Y106641D01*
X18724Y106791D01*
X19126Y106516D01*
X21537Y104105D01*
X21402Y103948D01*
X21281Y103750D01*
X21192Y103535D01*
X21137Y103309D01*
X21119Y103077D01*
X21137Y102846D01*
X21192Y102620D01*
X21281Y102405D01*
X21402Y102207D01*
X21553Y102030D01*
X21730Y101879D01*
X21928Y101758D01*
X22142Y101669D01*
X22368Y101615D01*
X22600Y101596D01*
X22832Y101615D01*
X23058Y101669D01*
X23272Y101758D01*
X23471Y101879D01*
X23647Y102030D01*
X23798Y102207D01*
X24028Y102480D01*
X24242Y102392D01*
X24468Y102337D01*
X24700Y102319D01*
X24932Y102337D01*
X25158Y102392D01*
X25372Y102480D01*
X25570Y102602D01*
X25747Y102753D01*
X25898Y102929D01*
X26019Y103128D01*
X26109Y103342D01*
X26163Y103568D01*
X26181Y103800D01*
X26163Y104032D01*
X26109Y104258D01*
X26019Y104472D01*
X25898Y104671D01*
X25747Y104847D01*
X25570Y104998D01*
X25372Y105120D01*
X25158Y105209D01*
X24932Y105263D01*
X24700Y105281D01*
X24686Y105280D01*
X19633Y110333D01*
X19509Y110439D01*
X19371Y110524D01*
X19220Y110586D01*
X19062Y110624D01*
X18900Y110637D01*
X17256D01*
X17247Y110647D01*
X17071Y110798D01*
X16872Y110919D01*
X16658Y111009D01*
X16432Y111063D01*
X16200Y111081D01*
D02*
G37*
G36*
X55100Y104681D02*
X54868Y104663D01*
X54642Y104609D01*
X54428Y104519D01*
X54229Y104398D01*
X54053Y104247D01*
X53902Y104070D01*
X53781Y103872D01*
X53692Y103658D01*
X53637Y103432D01*
X53619Y103200D01*
X53637Y102968D01*
X53692Y102742D01*
X53781Y102528D01*
X53902Y102330D01*
X54053Y102153D01*
X54229Y102002D01*
X54428Y101881D01*
X54642Y101792D01*
X54868Y101737D01*
X55100Y101719D01*
X55332Y101737D01*
X55414Y101757D01*
X55480Y101598D01*
X55602Y101400D01*
X55753Y101223D01*
X55929Y101072D01*
X56128Y100951D01*
X56342Y100862D01*
X56568Y100807D01*
X56800Y100789D01*
X57032Y100807D01*
X57258Y100862D01*
X57472Y100951D01*
X57670Y101072D01*
X57847Y101223D01*
X57998Y101400D01*
X58119Y101598D01*
X58209Y101813D01*
X58263Y102039D01*
X58281Y102270D01*
X58263Y102502D01*
X58209Y102728D01*
X58119Y102943D01*
X57998Y103141D01*
X57847Y103317D01*
X57670Y103468D01*
X57472Y103590D01*
X57258Y103679D01*
X57032Y103733D01*
X56800Y103751D01*
X56568Y103733D01*
X56485Y103713D01*
X56419Y103872D01*
X56298Y104070D01*
X56147Y104247D01*
X55971Y104398D01*
X55772Y104519D01*
X55558Y104609D01*
X55332Y104663D01*
X55100Y104681D01*
D02*
G37*
G36*
X121752Y103056D02*
X121520Y103038D01*
X121294Y102983D01*
X121080Y102894D01*
X120881Y102773D01*
X120705Y102622D01*
X120554Y102445D01*
X120432Y102247D01*
X120343Y102032D01*
X120289Y101806D01*
X120271Y101575D01*
X120289Y101343D01*
X120343Y101117D01*
X120432Y100902D01*
X120554Y100704D01*
X120705Y100528D01*
X120881Y100377D01*
X121080Y100255D01*
X121294Y100166D01*
X121520Y100112D01*
X121752Y100094D01*
X121984Y100112D01*
X122210Y100166D01*
X122424Y100255D01*
X122622Y100377D01*
X122799Y100528D01*
X122950Y100704D01*
X123072Y100902D01*
X123160Y101117D01*
X123215Y101343D01*
X123233Y101575D01*
X123215Y101806D01*
X123160Y102032D01*
X123072Y102247D01*
X122950Y102445D01*
X122799Y102622D01*
X122622Y102773D01*
X122424Y102894D01*
X122210Y102983D01*
X121984Y103038D01*
X121752Y103056D01*
D02*
G37*
G36*
X30400Y101181D02*
X30168Y101163D01*
X29942Y101109D01*
X29728Y101020D01*
X29530Y100898D01*
X29353Y100747D01*
X29202Y100570D01*
X29081Y100372D01*
X28991Y100158D01*
X28937Y99932D01*
X28919Y99700D01*
X28937Y99468D01*
X28991Y99242D01*
X29081Y99028D01*
X29202Y98830D01*
X29353Y98653D01*
X29530Y98502D01*
X29728Y98381D01*
X29942Y98291D01*
X30168Y98237D01*
X30400Y98219D01*
X30632Y98237D01*
X30858Y98291D01*
X31072Y98381D01*
X31271Y98502D01*
X31447Y98653D01*
X31598Y98830D01*
X31719Y99028D01*
X31809Y99242D01*
X31863Y99468D01*
X31881Y99700D01*
X31863Y99932D01*
X31809Y100158D01*
X31719Y100372D01*
X31598Y100570D01*
X31447Y100747D01*
X31271Y100898D01*
X31072Y101020D01*
X30858Y101109D01*
X30632Y101163D01*
X30400Y101181D01*
D02*
G37*
G36*
X35000Y101505D02*
X34768Y101486D01*
X34542Y101432D01*
X34328Y101343D01*
X34130Y101222D01*
X33953Y101071D01*
X33802Y100894D01*
X33680Y100696D01*
X33591Y100481D01*
X33537Y100255D01*
X33519Y100023D01*
X33537Y99792D01*
X33591Y99566D01*
X33680Y99351D01*
X33802Y99153D01*
X33953Y98976D01*
X34130Y98825D01*
X34328Y98704D01*
X34542Y98615D01*
X34768Y98561D01*
X35000Y98543D01*
X35232Y98561D01*
X35458Y98615D01*
X35672Y98704D01*
X35871Y98825D01*
X36021Y98954D01*
X36132Y98942D01*
X36536Y98779D01*
X36537Y98768D01*
X36592Y98542D01*
X36680Y98328D01*
X36802Y98129D01*
X36953Y97953D01*
X37130Y97802D01*
X37328Y97680D01*
X37542Y97592D01*
X37768Y97537D01*
X38000Y97519D01*
X38232Y97537D01*
X38458Y97592D01*
X38672Y97680D01*
X38870Y97802D01*
X39047Y97953D01*
X39198Y98129D01*
X39320Y98328D01*
X39408Y98542D01*
X39463Y98768D01*
X39481Y99000D01*
X39463Y99232D01*
X39408Y99458D01*
X39320Y99672D01*
X39198Y99871D01*
X39047Y100047D01*
X38870Y100198D01*
X38672Y100320D01*
X38458Y100408D01*
X38232Y100463D01*
X38000Y100481D01*
X37768Y100463D01*
X37542Y100408D01*
X37328Y100320D01*
X37130Y100198D01*
X36979Y100069D01*
X36868Y100081D01*
X36464Y100244D01*
X36463Y100255D01*
X36408Y100481D01*
X36320Y100696D01*
X36198Y100894D01*
X36047Y101071D01*
X35871Y101222D01*
X35672Y101343D01*
X35458Y101432D01*
X35232Y101486D01*
X35000Y101505D01*
D02*
G37*
G36*
X12573Y100890D02*
X12372Y100874D01*
X12176Y100827D01*
X11990Y100750D01*
X11819Y100645D01*
X11665Y100514D01*
X11535Y100361D01*
X11429Y100189D01*
X11352Y100003D01*
X11305Y99807D01*
X11289Y99606D01*
X11305Y99406D01*
X11352Y99210D01*
X11429Y99024D01*
X11535Y98852D01*
X11665Y98699D01*
X11760Y98618D01*
X11804Y98338D01*
X11778Y98034D01*
X11774Y98026D01*
X11691Y97955D01*
X11560Y97802D01*
X11455Y97630D01*
X11378Y97444D01*
X11331Y97248D01*
X11315Y97047D01*
X11331Y96846D01*
X11378Y96651D01*
X11455Y96465D01*
X11560Y96293D01*
X11691Y96140D01*
X11844Y96009D01*
X12016Y95904D01*
X12202Y95827D01*
X12398Y95780D01*
X12598Y95764D01*
X12799Y95780D01*
X12995Y95827D01*
X13181Y95904D01*
X13353Y96009D01*
X13506Y96140D01*
X13637Y96293D01*
X13742Y96465D01*
X13819Y96651D01*
X13866Y96846D01*
X13882Y97047D01*
X13866Y97248D01*
X13819Y97444D01*
X13742Y97630D01*
X13637Y97802D01*
X13506Y97955D01*
X13411Y98036D01*
X13367Y98316D01*
X13393Y98620D01*
X13397Y98628D01*
X13480Y98699D01*
X13611Y98852D01*
X13717Y99024D01*
X13794Y99210D01*
X13841Y99406D01*
X13857Y99606D01*
X13841Y99807D01*
X13794Y100003D01*
X13717Y100189D01*
X13611Y100361D01*
X13480Y100514D01*
X13327Y100645D01*
X13156Y100750D01*
X12970Y100827D01*
X12774Y100874D01*
X12573Y100890D01*
D02*
G37*
G36*
X62200Y101681D02*
X61968Y101663D01*
X61742Y101609D01*
X61528Y101520D01*
X61330Y101398D01*
X61153Y101247D01*
X61002Y101070D01*
X60881Y100872D01*
X60791Y100658D01*
X60737Y100432D01*
X60719Y100200D01*
X60737Y99968D01*
X60791Y99742D01*
X60881Y99528D01*
X61002Y99330D01*
X61153Y99153D01*
X61313Y99016D01*
X61330Y98782D01*
X61244Y98468D01*
X61128Y98419D01*
X60930Y98298D01*
X60753Y98147D01*
X60602Y97970D01*
X60480Y97772D01*
X60391Y97558D01*
X60337Y97332D01*
X60319Y97100D01*
X60337Y96868D01*
X60391Y96642D01*
X60480Y96428D01*
X60602Y96229D01*
X60753Y96053D01*
X60930Y95902D01*
X61128Y95780D01*
X61342Y95692D01*
X61568Y95637D01*
X61800Y95619D01*
X62032Y95637D01*
X62126Y95660D01*
X62181Y95528D01*
X62302Y95329D01*
X62453Y95153D01*
X62629Y95002D01*
X62828Y94880D01*
X63042Y94792D01*
X63268Y94737D01*
X63500Y94719D01*
X63732Y94737D01*
X63958Y94792D01*
X64172Y94880D01*
X64371Y95002D01*
X64547Y95153D01*
X64698Y95329D01*
X64820Y95528D01*
X64908Y95742D01*
X64963Y95968D01*
X64981Y96200D01*
X64963Y96432D01*
X64908Y96658D01*
X64820Y96872D01*
X64698Y97070D01*
X64547Y97247D01*
X64420Y97356D01*
X64427Y97569D01*
X64532Y97885D01*
X64558Y97891D01*
X64772Y97980D01*
X64970Y98102D01*
X65147Y98253D01*
X65298Y98430D01*
X65420Y98628D01*
X65509Y98842D01*
X65563Y99068D01*
X65581Y99300D01*
X65563Y99532D01*
X65509Y99758D01*
X65420Y99972D01*
X65298Y100171D01*
X65147Y100347D01*
X64970Y100498D01*
X64772Y100619D01*
X64558Y100708D01*
X64332Y100763D01*
X64100Y100781D01*
X63868Y100763D01*
X63642Y100708D01*
X63595Y100689D01*
X63520Y100872D01*
X63398Y101070D01*
X63247Y101247D01*
X63070Y101398D01*
X62872Y101520D01*
X62658Y101609D01*
X62432Y101663D01*
X62200Y101681D01*
D02*
G37*
G36*
X64700Y93081D02*
X64468Y93063D01*
X64242Y93009D01*
X64028Y92919D01*
X63829Y92798D01*
X63653Y92647D01*
X63294Y92530D01*
X63003Y92613D01*
X62977Y92635D01*
X62779Y92756D01*
X62564Y92845D01*
X62338Y92900D01*
X62106Y92918D01*
X61875Y92900D01*
X61649Y92845D01*
X61434Y92756D01*
X61236Y92635D01*
X61059Y92484D01*
X60908Y92308D01*
X60787Y92109D01*
X60698Y91895D01*
X60644Y91669D01*
X60625Y91437D01*
X60644Y91205D01*
X60698Y90979D01*
X60787Y90765D01*
X60908Y90566D01*
X61059Y90390D01*
X61236Y90239D01*
X61270Y90218D01*
X61190Y90025D01*
X61136Y89799D01*
X61118Y89567D01*
X61136Y89335D01*
X61190Y89109D01*
X61279Y88895D01*
X61400Y88696D01*
X61551Y88520D01*
X61728Y88369D01*
X61926Y88247D01*
X62141Y88159D01*
X62367Y88104D01*
X62599Y88086D01*
X62830Y88104D01*
X63056Y88159D01*
X63271Y88247D01*
X63469Y88369D01*
X63646Y88520D01*
X63797Y88696D01*
X63918Y88895D01*
X64007Y89109D01*
X64061Y89335D01*
X64079Y89567D01*
X64067Y89730D01*
X64082Y89770D01*
X64202Y89916D01*
X64468Y90137D01*
X64700Y90119D01*
X64932Y90137D01*
X65158Y90192D01*
X65372Y90280D01*
X65570Y90402D01*
X65747Y90553D01*
X65898Y90729D01*
X66019Y90928D01*
X66109Y91142D01*
X66163Y91368D01*
X66181Y91600D01*
X66163Y91832D01*
X66109Y92058D01*
X66019Y92272D01*
X65898Y92471D01*
X65747Y92647D01*
X65570Y92798D01*
X65372Y92919D01*
X65158Y93009D01*
X64932Y93063D01*
X64700Y93081D01*
D02*
G37*
G36*
X53551Y88981D02*
X53320Y88963D01*
X53093Y88908D01*
X52879Y88820D01*
X52681Y88698D01*
X52504Y88547D01*
X52353Y88371D01*
X52232Y88172D01*
X52186Y88151D01*
X51681Y88108D01*
X51647Y88147D01*
X51471Y88298D01*
X51272Y88420D01*
X51058Y88508D01*
X50832Y88563D01*
X50600Y88581D01*
X50368Y88563D01*
X50142Y88508D01*
X49928Y88420D01*
X49729Y88298D01*
X49553Y88147D01*
X49402Y87971D01*
X49281Y87772D01*
X49191Y87558D01*
X49137Y87332D01*
X49119Y87100D01*
X49137Y86868D01*
X49191Y86642D01*
X49281Y86428D01*
X49402Y86229D01*
X49553Y86053D01*
X49729Y85902D01*
X49928Y85781D01*
X50142Y85691D01*
X50368Y85637D01*
X50600Y85619D01*
X50832Y85637D01*
X51058Y85691D01*
X51272Y85781D01*
X51471Y85902D01*
X51647Y86053D01*
X51798Y86229D01*
X51920Y86428D01*
X51966Y86449D01*
X52470Y86492D01*
X52504Y86453D01*
X52681Y86302D01*
X52879Y86181D01*
X53093Y86092D01*
X53320Y86037D01*
X53551Y86019D01*
X53783Y86037D01*
X54009Y86092D01*
X54224Y86181D01*
X54422Y86302D01*
X54598Y86453D01*
X54749Y86629D01*
X54871Y86828D01*
X54960Y87042D01*
X55014Y87268D01*
X55032Y87500D01*
X55014Y87732D01*
X54960Y87958D01*
X54871Y88172D01*
X54749Y88371D01*
X54598Y88547D01*
X54422Y88698D01*
X54224Y88820D01*
X54009Y88908D01*
X53783Y88963D01*
X53551Y88981D01*
D02*
G37*
G36*
X7087Y89390D02*
X6209D01*
Y87114D01*
X9813D01*
X9793Y87232D01*
X9707Y87531D01*
X9588Y87819D01*
X9437Y88091D01*
X9257Y88345D01*
X9049Y88577D01*
X8817Y88785D01*
X8563Y88965D01*
X8291Y89115D01*
X8003Y89234D01*
X7704Y89321D01*
X7397Y89373D01*
X7087Y89390D01*
D02*
G37*
G36*
X5209D02*
X4331D01*
X4020Y89373D01*
X3713Y89321D01*
X3414Y89234D01*
X3126Y89115D01*
X2854Y88965D01*
X2600Y88785D01*
X2368Y88577D01*
X2160Y88345D01*
X1980Y88091D01*
X1830Y87819D01*
X1711Y87531D01*
X1624Y87232D01*
X1604Y87114D01*
X5209D01*
Y89390D01*
D02*
G37*
G36*
X21100Y87481D02*
X20868Y87463D01*
X20642Y87409D01*
X20428Y87319D01*
X20230Y87198D01*
X20053Y87047D01*
X19902Y86870D01*
X19842Y86773D01*
X19758Y86809D01*
X19532Y86863D01*
X19300Y86881D01*
X19068Y86863D01*
X18842Y86809D01*
X18628Y86720D01*
X18429Y86598D01*
X18253Y86447D01*
X18102Y86270D01*
X17980Y86072D01*
X17891Y85858D01*
X17837Y85632D01*
X17819Y85400D01*
X17837Y85168D01*
X17891Y84942D01*
X17980Y84728D01*
X18102Y84530D01*
X18253Y84353D01*
X18429Y84202D01*
X18628Y84080D01*
X18842Y83991D01*
X19068Y83937D01*
X19300Y83919D01*
X19532Y83937D01*
X19758Y83991D01*
X19972Y84080D01*
X20170Y84202D01*
X20347Y84353D01*
X20498Y84530D01*
X20558Y84627D01*
X20642Y84592D01*
X20868Y84537D01*
X21100Y84519D01*
X21332Y84537D01*
X21558Y84592D01*
X21772Y84680D01*
X21971Y84802D01*
X22147Y84953D01*
X22298Y85129D01*
X22420Y85328D01*
X22509Y85542D01*
X22563Y85768D01*
X22581Y86000D01*
X22563Y86232D01*
X22509Y86458D01*
X22420Y86672D01*
X22298Y86870D01*
X22147Y87047D01*
X21971Y87198D01*
X21772Y87319D01*
X21558Y87409D01*
X21332Y87463D01*
X21100Y87481D01*
D02*
G37*
G36*
X75598Y89379D02*
X75367Y89361D01*
X75141Y89307D01*
X74926Y89218D01*
X74728Y89096D01*
X74551Y88946D01*
X74400Y88769D01*
X74279Y88571D01*
X74190Y88356D01*
X74136Y88130D01*
X74117Y87898D01*
X74136Y87667D01*
X74190Y87441D01*
X74279Y87226D01*
X74400Y87028D01*
X74551Y86851D01*
X74728Y86700D01*
X74926Y86579D01*
X75141Y86490D01*
X75367Y86436D01*
X75598Y86418D01*
X75830Y86436D01*
X76056Y86490D01*
X76271Y86579D01*
X76469Y86700D01*
X76646Y86851D01*
X76797Y87028D01*
X76918Y87226D01*
X77007Y87441D01*
X77061Y87667D01*
X77079Y87898D01*
X77061Y88130D01*
X77007Y88356D01*
X76918Y88571D01*
X76797Y88769D01*
X76646Y88946D01*
X76469Y89096D01*
X76271Y89218D01*
X76056Y89307D01*
X75830Y89361D01*
X75598Y89379D01*
D02*
G37*
G36*
X34100Y87181D02*
X33868Y87163D01*
X33642Y87108D01*
X33428Y87019D01*
X33230Y86898D01*
X33053Y86747D01*
X32902Y86571D01*
X32781Y86372D01*
X32691Y86158D01*
X32637Y85932D01*
X32619Y85700D01*
X32637Y85468D01*
X32691Y85242D01*
X32781Y85028D01*
X32902Y84829D01*
X33053Y84653D01*
X33230Y84502D01*
X33428Y84381D01*
X33642Y84291D01*
X33868Y84237D01*
X34100Y84219D01*
X34332Y84237D01*
X34558Y84291D01*
X34772Y84381D01*
X34971Y84502D01*
X35147Y84653D01*
X35298Y84829D01*
X35419Y85028D01*
X35508Y85242D01*
X35563Y85468D01*
X35581Y85700D01*
X35563Y85932D01*
X35508Y86158D01*
X35419Y86372D01*
X35298Y86571D01*
X35147Y86747D01*
X34971Y86898D01*
X34772Y87019D01*
X34558Y87108D01*
X34332Y87163D01*
X34100Y87181D01*
D02*
G37*
G36*
X9813Y86114D02*
X6209D01*
Y83838D01*
X7087D01*
X7397Y83856D01*
X7704Y83908D01*
X8003Y83994D01*
X8291Y84113D01*
X8563Y84264D01*
X8817Y84444D01*
X9049Y84651D01*
X9257Y84883D01*
X9437Y85137D01*
X9588Y85410D01*
X9707Y85697D01*
X9793Y85997D01*
X9813Y86114D01*
D02*
G37*
G36*
X5209D02*
X1604D01*
X1624Y85997D01*
X1711Y85697D01*
X1830Y85410D01*
X1980Y85137D01*
X2160Y84883D01*
X2368Y84651D01*
X2600Y84444D01*
X2854Y84264D01*
X3126Y84113D01*
X3414Y83994D01*
X3713Y83908D01*
X4020Y83856D01*
X4331Y83838D01*
X5209D01*
Y86114D01*
D02*
G37*
G36*
X61047Y83937D02*
X60816Y83919D01*
X60590Y83864D01*
X60375Y83775D01*
X60177Y83654D01*
X60063Y83557D01*
X59949Y83654D01*
X59751Y83775D01*
X59536Y83864D01*
X59310Y83919D01*
X59079Y83937D01*
X58847Y83919D01*
X58621Y83864D01*
X58406Y83775D01*
X58208Y83654D01*
X58031Y83503D01*
X57881Y83326D01*
X57759Y83128D01*
X57670Y82914D01*
X57616Y82687D01*
X57598Y82456D01*
X57616Y82224D01*
X57670Y81998D01*
X57759Y81784D01*
X57881Y81585D01*
X57905Y81557D01*
X57576Y81172D01*
X57464Y81241D01*
X57249Y81330D01*
X57023Y81384D01*
X56791Y81402D01*
X56560Y81384D01*
X56383Y81342D01*
X56265Y81431D01*
X56049Y81753D01*
X56068Y81784D01*
X56156Y81998D01*
X56211Y82224D01*
X56229Y82456D01*
X56211Y82687D01*
X56156Y82914D01*
X56068Y83128D01*
X55946Y83326D01*
X55795Y83503D01*
X55619Y83654D01*
X55420Y83775D01*
X55206Y83864D01*
X54980Y83919D01*
X54748Y83937D01*
X54516Y83919D01*
X54290Y83864D01*
X54076Y83775D01*
X53878Y83654D01*
X53701Y83503D01*
X53550Y83326D01*
X53429Y83128D01*
X53339Y82914D01*
X53285Y82687D01*
X53267Y82456D01*
X53285Y82224D01*
X53339Y81998D01*
X53429Y81784D01*
X53550Y81585D01*
X53701Y81409D01*
X53878Y81258D01*
X54076Y81136D01*
X54290Y81047D01*
X54516Y80993D01*
X54748Y80975D01*
X54980Y80993D01*
X55156Y81036D01*
X55274Y80946D01*
X55491Y80624D01*
X55472Y80594D01*
X55383Y80379D01*
X55329Y80153D01*
X55310Y79921D01*
X55329Y79690D01*
X55383Y79464D01*
X55472Y79249D01*
X55593Y79051D01*
X55744Y78874D01*
X55921Y78723D01*
X56119Y78602D01*
X56334Y78513D01*
X56560Y78459D01*
X56791Y78440D01*
X57023Y78459D01*
X57249Y78513D01*
X57464Y78602D01*
X57662Y78723D01*
X57838Y78874D01*
X57990Y79051D01*
X58111Y79249D01*
X58200Y79464D01*
X58254Y79690D01*
X58272Y79921D01*
X58254Y80153D01*
X58200Y80379D01*
X58111Y80594D01*
X57990Y80792D01*
X57965Y80821D01*
X58294Y81205D01*
X58406Y81136D01*
X58621Y81047D01*
X58847Y80993D01*
X59079Y80975D01*
X59310Y80993D01*
X59536Y81047D01*
X59751Y81136D01*
X59949Y81258D01*
X60063Y81355D01*
X60177Y81258D01*
X60375Y81136D01*
X60590Y81047D01*
X60816Y80993D01*
X61047Y80975D01*
X61279Y80993D01*
X61505Y81047D01*
X61720Y81136D01*
X61918Y81258D01*
X62094Y81409D01*
X62245Y81585D01*
X62367Y81784D01*
X62456Y81998D01*
X62510Y82224D01*
X62528Y82456D01*
X62510Y82687D01*
X62456Y82914D01*
X62367Y83128D01*
X62245Y83326D01*
X62094Y83503D01*
X61918Y83654D01*
X61720Y83775D01*
X61505Y83864D01*
X61279Y83919D01*
X61047Y83937D01*
D02*
G37*
G36*
X76772Y83075D02*
X76540Y83057D01*
X76314Y83003D01*
X76099Y82914D01*
X75901Y82793D01*
X75725Y82642D01*
X75573Y82465D01*
X75452Y82267D01*
X75363Y82052D01*
X75309Y81826D01*
X75291Y81595D01*
X75309Y81363D01*
X75363Y81137D01*
X75452Y80922D01*
X75573Y80724D01*
X75725Y80547D01*
X75901Y80396D01*
X76099Y80275D01*
X76314Y80186D01*
X76540Y80132D01*
X76772Y80114D01*
X77003Y80132D01*
X77229Y80186D01*
X77444Y80275D01*
X77642Y80396D01*
X77819Y80547D01*
X77970Y80724D01*
X78091Y80922D01*
X78180Y81137D01*
X78234Y81363D01*
X78253Y81595D01*
X78234Y81826D01*
X78180Y82052D01*
X78091Y82267D01*
X77970Y82465D01*
X77819Y82642D01*
X77642Y82793D01*
X77444Y82914D01*
X77229Y83003D01*
X77003Y83057D01*
X76772Y83075D01*
D02*
G37*
G36*
X50984Y81402D02*
X50753Y81384D01*
X50527Y81330D01*
X50312Y81241D01*
X50114Y81119D01*
X49937Y80968D01*
X49786Y80792D01*
X49665Y80594D01*
X49576Y80379D01*
X49521Y80153D01*
X49503Y79921D01*
X49521Y79690D01*
X49576Y79464D01*
X49665Y79249D01*
X49786Y79051D01*
X49937Y78874D01*
X50114Y78723D01*
X50312Y78602D01*
X50527Y78513D01*
X50753Y78459D01*
X50984Y78440D01*
X51216Y78459D01*
X51442Y78513D01*
X51657Y78602D01*
X51855Y78723D01*
X52031Y78874D01*
X52182Y79051D01*
X52304Y79249D01*
X52393Y79464D01*
X52447Y79690D01*
X52465Y79921D01*
X52447Y80153D01*
X52393Y80379D01*
X52304Y80594D01*
X52182Y80792D01*
X52031Y80968D01*
X51855Y81119D01*
X51657Y81241D01*
X51442Y81330D01*
X51216Y81384D01*
X50984Y81402D01*
D02*
G37*
G36*
X34200Y80881D02*
X33968Y80863D01*
X33742Y80809D01*
X33528Y80720D01*
X33329Y80598D01*
X33153Y80447D01*
X33002Y80270D01*
X32880Y80072D01*
X32792Y79858D01*
X32737Y79632D01*
X32719Y79400D01*
X32737Y79168D01*
X32792Y78942D01*
X32880Y78728D01*
X33002Y78530D01*
X33153Y78353D01*
X33329Y78202D01*
X33528Y78080D01*
X33742Y77991D01*
X33968Y77937D01*
X34200Y77919D01*
X34432Y77937D01*
X34658Y77991D01*
X34872Y78080D01*
X35070Y78202D01*
X35247Y78353D01*
X35398Y78530D01*
X35519Y78728D01*
X35609Y78942D01*
X35663Y79168D01*
X35681Y79400D01*
X35663Y79632D01*
X35609Y79858D01*
X35519Y80072D01*
X35398Y80270D01*
X35247Y80447D01*
X35070Y80598D01*
X34872Y80720D01*
X34658Y80809D01*
X34432Y80863D01*
X34200Y80881D01*
D02*
G37*
G36*
X102247Y76063D02*
X99147D01*
Y73363D01*
X102247D01*
Y76063D01*
D02*
G37*
G36*
X12205Y75890D02*
X11907Y75873D01*
X11612Y75823D01*
X11326Y75741D01*
X11050Y75626D01*
X10789Y75482D01*
X10545Y75309D01*
X10323Y75111D01*
X10124Y74888D01*
X9951Y74645D01*
X9807Y74383D01*
X9692Y74107D01*
X9610Y73821D01*
X9560Y73526D01*
X9543Y73228D01*
X9560Y72930D01*
X9610Y72636D01*
X9692Y72349D01*
X9807Y72074D01*
X9951Y71812D01*
X10124Y71569D01*
X10323Y71346D01*
X10545Y71147D01*
X10789Y70975D01*
X11050Y70830D01*
X11326Y70716D01*
X11612Y70633D01*
X11907Y70583D01*
X12205Y70567D01*
X12503Y70583D01*
X12797Y70633D01*
X13084Y70716D01*
X13360Y70830D01*
X13621Y70975D01*
X13864Y71147D01*
X14087Y71346D01*
X14286Y71569D01*
X14458Y71812D01*
X14603Y72074D01*
X14717Y72349D01*
X14800Y72636D01*
X14850Y72930D01*
X14866Y73228D01*
X14850Y73526D01*
X14800Y73821D01*
X14717Y74107D01*
X14603Y74383D01*
X14458Y74645D01*
X14286Y74888D01*
X14087Y75111D01*
X13864Y75309D01*
X13621Y75482D01*
X13360Y75626D01*
X13084Y75741D01*
X12797Y75823D01*
X12503Y75873D01*
X12205Y75890D01*
D02*
G37*
G36*
X21100Y72212D02*
X20868Y72193D01*
X20642Y72139D01*
X20428Y72050D01*
X20230Y71929D01*
X20053Y71778D01*
X19902Y71601D01*
X19781Y71403D01*
X19692Y71188D01*
X19637Y70962D01*
X19619Y70731D01*
X19637Y70499D01*
X19692Y70273D01*
X19781Y70058D01*
X19902Y69860D01*
X20053Y69683D01*
X20230Y69533D01*
X20428Y69411D01*
X20642Y69322D01*
X20868Y69268D01*
X21100Y69250D01*
X21332Y69268D01*
X21558Y69322D01*
X21772Y69411D01*
X21971Y69533D01*
X22147Y69683D01*
X22298Y69860D01*
X22420Y70058D01*
X22509Y70273D01*
X22563Y70499D01*
X22581Y70731D01*
X22563Y70962D01*
X22509Y71188D01*
X22420Y71403D01*
X22298Y71601D01*
X22147Y71778D01*
X21971Y71929D01*
X21772Y72050D01*
X21558Y72139D01*
X21332Y72193D01*
X21100Y72212D01*
D02*
G37*
G36*
X27300Y69081D02*
X27068Y69063D01*
X26842Y69008D01*
X26628Y68919D01*
X26430Y68798D01*
X26253Y68647D01*
X26102Y68471D01*
X25980Y68272D01*
X25892Y68058D01*
X25837Y67832D01*
X25819Y67600D01*
X25837Y67368D01*
X25892Y67142D01*
X25980Y66928D01*
X26102Y66729D01*
X26253Y66553D01*
X26430Y66402D01*
X26628Y66281D01*
X26842Y66192D01*
X27068Y66137D01*
X27300Y66119D01*
X27326Y66121D01*
X27485Y65632D01*
X27430Y65598D01*
X27253Y65447D01*
X27102Y65271D01*
X26981Y65072D01*
X26891Y64858D01*
X26837Y64632D01*
X26819Y64400D01*
X26837Y64168D01*
X26891Y63942D01*
X26981Y63728D01*
X27102Y63529D01*
X27253Y63353D01*
X27430Y63202D01*
X27628Y63081D01*
X27842Y62991D01*
X28068Y62937D01*
X28300Y62919D01*
X28532Y62937D01*
X28758Y62991D01*
X28972Y63081D01*
X29171Y63202D01*
X29347Y63353D01*
X29498Y63529D01*
X29620Y63728D01*
X29708Y63942D01*
X29763Y64168D01*
X29781Y64400D01*
X29763Y64632D01*
X29708Y64858D01*
X29620Y65072D01*
X29498Y65271D01*
X29347Y65447D01*
X29171Y65598D01*
X28972Y65719D01*
X28758Y65808D01*
X28532Y65863D01*
X28300Y65881D01*
X28274Y65879D01*
X28115Y66368D01*
X28170Y66402D01*
X28347Y66553D01*
X28498Y66729D01*
X28620Y66928D01*
X28708Y67142D01*
X28763Y67368D01*
X28781Y67600D01*
X28763Y67832D01*
X28708Y68058D01*
X28620Y68272D01*
X28498Y68471D01*
X28347Y68647D01*
X28170Y68798D01*
X27972Y68919D01*
X27758Y69008D01*
X27532Y69063D01*
X27300Y69081D01*
D02*
G37*
G36*
X24909Y65190D02*
X24678Y65172D01*
X24452Y65118D01*
X24237Y65029D01*
X24039Y64907D01*
X23862Y64756D01*
X23711Y64580D01*
X23590Y64381D01*
X23501Y64167D01*
X23446Y63941D01*
X23428Y63709D01*
X23446Y63477D01*
X23501Y63252D01*
X23590Y63037D01*
X23711Y62839D01*
X23862Y62662D01*
X24039Y62511D01*
X24237Y62390D01*
X24452Y62301D01*
X24678Y62247D01*
X24909Y62228D01*
X25141Y62247D01*
X25367Y62301D01*
X25581Y62390D01*
X25780Y62511D01*
X25956Y62662D01*
X26107Y62839D01*
X26229Y63037D01*
X26318Y63252D01*
X26372Y63477D01*
X26390Y63709D01*
X26372Y63941D01*
X26318Y64167D01*
X26229Y64381D01*
X26107Y64580D01*
X25956Y64756D01*
X25780Y64907D01*
X25581Y65029D01*
X25367Y65118D01*
X25141Y65172D01*
X24909Y65190D01*
D02*
G37*
G36*
X102247Y64252D02*
X99147D01*
Y61552D01*
X102247D01*
Y64252D01*
D02*
G37*
G36*
X133268Y81102D02*
X128051Y81102D01*
X128051Y67224D01*
X127672Y66932D01*
X124404Y66932D01*
X124404Y64570D01*
X129042D01*
Y60290D01*
X129038Y60152D01*
X129033Y60131D01*
X128546Y59825D01*
X128435Y59855D01*
X128429Y59860D01*
X128231Y59981D01*
X128017Y60070D01*
X127791Y60124D01*
X127559Y60142D01*
X127327Y60124D01*
X127101Y60070D01*
X126887Y59981D01*
X126689Y59860D01*
X126512Y59709D01*
X126361Y59532D01*
X126240Y59334D01*
X126151Y59119D01*
X126096Y58893D01*
X126078Y58661D01*
X126096Y58430D01*
X126151Y58204D01*
X126240Y57989D01*
X126361Y57791D01*
X126512Y57614D01*
X126689Y57463D01*
X126887Y57342D01*
X127101Y57253D01*
X127327Y57199D01*
X127559Y57181D01*
X127791Y57199D01*
X128017Y57253D01*
X128231Y57342D01*
X128429Y57463D01*
X128606Y57614D01*
X128757Y57791D01*
X128879Y57989D01*
X128967Y58204D01*
X129017Y58409D01*
X129022Y58430D01*
X129264Y58411D01*
X129520Y58017D01*
X129520Y55051D01*
X131882Y55051D01*
Y59380D01*
X132339Y59879D01*
X132542D01*
X132542Y64570D01*
X137008D01*
X137008Y66932D01*
X133647Y66932D01*
X133268Y67432D01*
X133268Y81102D01*
D02*
G37*
G36*
X12205Y64079D02*
X11907Y64062D01*
X11612Y64012D01*
X11326Y63930D01*
X11050Y63815D01*
X10789Y63671D01*
X10545Y63498D01*
X10323Y63299D01*
X10124Y63077D01*
X9951Y62833D01*
X9807Y62572D01*
X9692Y62296D01*
X9610Y62010D01*
X9560Y61715D01*
X9543Y61417D01*
X9560Y61119D01*
X9610Y60825D01*
X9692Y60538D01*
X9807Y60263D01*
X9951Y60001D01*
X10124Y59758D01*
X10323Y59535D01*
X10545Y59336D01*
X10789Y59164D01*
X11050Y59019D01*
X11326Y58905D01*
X11612Y58822D01*
X11907Y58772D01*
X12205Y58756D01*
X12503Y58772D01*
X12797Y58822D01*
X13084Y58905D01*
X13360Y59019D01*
X13621Y59164D01*
X13864Y59336D01*
X14087Y59535D01*
X14286Y59758D01*
X14458Y60001D01*
X14603Y60263D01*
X14717Y60538D01*
X14800Y60825D01*
X14850Y61119D01*
X14866Y61417D01*
X14850Y61715D01*
X14800Y62010D01*
X14717Y62296D01*
X14603Y62572D01*
X14458Y62833D01*
X14286Y63077D01*
X14087Y63299D01*
X13864Y63498D01*
X13621Y63671D01*
X13360Y63815D01*
X13084Y63930D01*
X12797Y64012D01*
X12503Y64062D01*
X12205Y64079D01*
D02*
G37*
G36*
X32700Y58781D02*
X32468Y58763D01*
X32242Y58709D01*
X32028Y58619D01*
X31830Y58498D01*
X31653Y58347D01*
X31322Y58266D01*
X31059Y58405D01*
X30872Y58520D01*
X30658Y58609D01*
X30432Y58663D01*
X30200Y58681D01*
X29968Y58663D01*
X29742Y58609D01*
X29528Y58520D01*
X29329Y58398D01*
X29153Y58247D01*
X29002Y58070D01*
X28881Y57872D01*
X28791Y57658D01*
X28739Y57437D01*
X28632Y57463D01*
X28400Y57481D01*
X28168Y57463D01*
X27942Y57408D01*
X27728Y57319D01*
X27529Y57198D01*
X27353Y57047D01*
X27202Y56871D01*
X27081Y56672D01*
X26992Y56458D01*
X26937Y56232D01*
X26919Y56000D01*
X26937Y55768D01*
X26992Y55542D01*
X27081Y55328D01*
X27202Y55129D01*
X27353Y54953D01*
X27529Y54802D01*
X27728Y54681D01*
X27942Y54592D01*
X28168Y54537D01*
X28400Y54519D01*
X28632Y54537D01*
X28858Y54592D01*
X29072Y54681D01*
X29270Y54802D01*
X29447Y54953D01*
X29598Y55129D01*
X29719Y55328D01*
X29809Y55542D01*
X29861Y55763D01*
X29968Y55737D01*
X30200Y55719D01*
X30432Y55737D01*
X30658Y55791D01*
X30872Y55880D01*
X31071Y56002D01*
X31247Y56153D01*
X31578Y56234D01*
X31841Y56095D01*
X32028Y55980D01*
X32242Y55892D01*
X32468Y55837D01*
X32700Y55819D01*
X32932Y55837D01*
X33158Y55892D01*
X33372Y55980D01*
X33571Y56102D01*
X33747Y56253D01*
X33898Y56429D01*
X34020Y56628D01*
X34108Y56842D01*
X34163Y57068D01*
X34181Y57300D01*
X34163Y57532D01*
X34108Y57758D01*
X34020Y57972D01*
X33898Y58170D01*
X33747Y58347D01*
X33571Y58498D01*
X33372Y58619D01*
X33158Y58709D01*
X32932Y58763D01*
X32700Y58781D01*
D02*
G37*
G36*
X118262Y68413D02*
X106844D01*
Y57389D01*
X118262D01*
Y68413D01*
D02*
G37*
G36*
X27200Y51081D02*
X26968Y51063D01*
X26742Y51008D01*
X26528Y50920D01*
X26329Y50798D01*
X26153Y50647D01*
X26002Y50471D01*
X25881Y50272D01*
X25791Y50058D01*
X25737Y49832D01*
X25719Y49600D01*
X25737Y49368D01*
X25791Y49142D01*
X25881Y48928D01*
X26002Y48730D01*
X26153Y48553D01*
X26329Y48402D01*
X26528Y48281D01*
X26742Y48191D01*
X26968Y48137D01*
X27200Y48119D01*
X27432Y48137D01*
X27658Y48191D01*
X27872Y48281D01*
X28071Y48402D01*
X28247Y48553D01*
X28398Y48730D01*
X28519Y48928D01*
X28609Y49142D01*
X28663Y49368D01*
X28681Y49600D01*
X28663Y49832D01*
X28609Y50058D01*
X28519Y50272D01*
X28398Y50471D01*
X28247Y50647D01*
X28071Y50798D01*
X27872Y50920D01*
X27658Y51008D01*
X27432Y51063D01*
X27200Y51081D01*
D02*
G37*
G36*
X146457Y47544D02*
X146225Y47526D01*
X145999Y47471D01*
X145784Y47383D01*
X145586Y47261D01*
X145410Y47110D01*
X145259Y46933D01*
X145137Y46735D01*
X145048Y46521D01*
X144994Y46295D01*
X144976Y46063D01*
X144994Y45831D01*
X145048Y45605D01*
X145137Y45391D01*
X145259Y45193D01*
X145410Y45016D01*
X145586Y44865D01*
X145784Y44743D01*
X145999Y44655D01*
X146225Y44600D01*
X146457Y44582D01*
X146688Y44600D01*
X146914Y44655D01*
X147129Y44743D01*
X147327Y44865D01*
X147504Y45016D01*
X147655Y45193D01*
X147776Y45391D01*
X147865Y45605D01*
X147919Y45831D01*
X147938Y46063D01*
X147919Y46295D01*
X147865Y46521D01*
X147776Y46735D01*
X147655Y46933D01*
X147504Y47110D01*
X147327Y47261D01*
X147129Y47383D01*
X146914Y47471D01*
X146688Y47526D01*
X146457Y47544D01*
D02*
G37*
G36*
X108600Y52481D02*
X108368Y52463D01*
X108142Y52408D01*
X107928Y52320D01*
X107729Y52198D01*
X107553Y52047D01*
X107402Y51871D01*
X107281Y51672D01*
X107192Y51458D01*
X107137Y51232D01*
X107119Y51000D01*
X107137Y50768D01*
X107192Y50542D01*
X107281Y50328D01*
X107402Y50129D01*
X107440Y50085D01*
X107553Y49934D01*
Y49566D01*
X107440Y49415D01*
X107402Y49371D01*
X107281Y49172D01*
X107192Y48958D01*
X107137Y48732D01*
X107119Y48500D01*
X107137Y48268D01*
X107192Y48042D01*
X107281Y47828D01*
X107402Y47629D01*
X107440Y47585D01*
X107553Y47434D01*
Y47066D01*
X107440Y46915D01*
X107402Y46870D01*
X107281Y46672D01*
X107192Y46458D01*
X107137Y46232D01*
X107119Y46000D01*
X107137Y45768D01*
X107192Y45542D01*
X107281Y45328D01*
X107402Y45129D01*
X107553Y44953D01*
X107729Y44802D01*
X107928Y44681D01*
X108142Y44592D01*
X108368Y44537D01*
X108600Y44519D01*
X108832Y44537D01*
X109058Y44592D01*
X109272Y44681D01*
X109470Y44802D01*
X109647Y44953D01*
X109798Y45129D01*
X109920Y45328D01*
X110009Y45542D01*
X110063Y45768D01*
X110081Y46000D01*
X110063Y46232D01*
X110009Y46458D01*
X109920Y46672D01*
X109798Y46870D01*
X109760Y46915D01*
X109647Y47066D01*
Y47434D01*
X109760Y47585D01*
X109798Y47629D01*
X109920Y47828D01*
X110009Y48042D01*
X110063Y48268D01*
X110081Y48500D01*
X110063Y48732D01*
X110009Y48958D01*
X109920Y49172D01*
X109798Y49371D01*
X109760Y49415D01*
X109647Y49566D01*
Y49934D01*
X109760Y50085D01*
X109798Y50129D01*
X109920Y50328D01*
X110009Y50542D01*
X110063Y50768D01*
X110081Y51000D01*
X110063Y51232D01*
X110009Y51458D01*
X109920Y51672D01*
X109798Y51871D01*
X109647Y52047D01*
X109470Y52198D01*
X109272Y52320D01*
X109058Y52408D01*
X108832Y52463D01*
X108600Y52481D01*
D02*
G37*
G36*
X27700Y42181D02*
X27468Y42163D01*
X27242Y42109D01*
X27028Y42020D01*
X26829Y41898D01*
X26653Y41747D01*
X26502Y41570D01*
X26381Y41372D01*
X26291Y41158D01*
X26237Y40932D01*
X26219Y40700D01*
X26237Y40468D01*
X26291Y40242D01*
X26381Y40028D01*
X26502Y39829D01*
X26653Y39653D01*
X26829Y39502D01*
X27028Y39380D01*
X27242Y39292D01*
X27468Y39237D01*
X27700Y39219D01*
X27932Y39237D01*
X28158Y39292D01*
X28372Y39380D01*
X28571Y39502D01*
X28747Y39653D01*
X28898Y39829D01*
X29019Y40028D01*
X29109Y40242D01*
X29163Y40468D01*
X29181Y40700D01*
X29163Y40932D01*
X29109Y41158D01*
X29019Y41372D01*
X28898Y41570D01*
X28747Y41747D01*
X28571Y41898D01*
X28372Y42020D01*
X28158Y42109D01*
X27932Y42163D01*
X27700Y42181D01*
D02*
G37*
G36*
X86672Y44093D02*
X86441Y44075D01*
X86215Y44021D01*
X86000Y43932D01*
X85802Y43811D01*
X85625Y43660D01*
X85474Y43483D01*
X85353Y43285D01*
X85264Y43070D01*
X85210Y42844D01*
X85191Y42613D01*
X85210Y42381D01*
X85264Y42155D01*
X85353Y41940D01*
X85474Y41742D01*
X85625Y41565D01*
X85802Y41414D01*
X86000Y41293D01*
X86215Y41204D01*
X86441Y41150D01*
X86672Y41132D01*
X86904Y41150D01*
X87130Y41204D01*
X87345Y41293D01*
X87543Y41414D01*
X87669Y41522D01*
X88436D01*
X90724Y39233D01*
X90737Y39068D01*
X90791Y38842D01*
X90881Y38628D01*
X91002Y38429D01*
X91153Y38253D01*
X91329Y38102D01*
X91528Y37980D01*
X91742Y37892D01*
X91968Y37837D01*
X92200Y37819D01*
X92432Y37837D01*
X92658Y37892D01*
X92872Y37980D01*
X93071Y38102D01*
X93247Y38253D01*
X93398Y38429D01*
X93520Y38628D01*
X93524Y38640D01*
X93854Y39032D01*
X94088Y38987D01*
X94320Y38969D01*
X94551Y38987D01*
X94777Y39041D01*
X94992Y39130D01*
X95190Y39252D01*
X95367Y39402D01*
X95518Y39579D01*
X95639Y39777D01*
X95728Y39992D01*
X95782Y40218D01*
X95801Y40450D01*
X95782Y40681D01*
X95825Y40966D01*
X96046Y41102D01*
X96245Y41223D01*
X96421Y41374D01*
X96572Y41551D01*
X96694Y41749D01*
X96782Y41964D01*
X96837Y42190D01*
X96855Y42421D01*
X96837Y42653D01*
X96782Y42879D01*
X96694Y43094D01*
X96572Y43292D01*
X96421Y43468D01*
X96245Y43619D01*
X96046Y43741D01*
X95832Y43830D01*
X95606Y43884D01*
X95374Y43902D01*
X95142Y43884D01*
X94916Y43830D01*
X94702Y43741D01*
X94503Y43619D01*
X94327Y43468D01*
X94307Y43445D01*
X94155Y43538D01*
X93940Y43627D01*
X93714Y43681D01*
X93483Y43699D01*
X93251Y43681D01*
X93025Y43627D01*
X92810Y43538D01*
X92612Y43416D01*
X92436Y43265D01*
X92285Y43089D01*
X92163Y42891D01*
X92074Y42676D01*
X92020Y42450D01*
X92002Y42218D01*
X92020Y41987D01*
X92074Y41761D01*
X92163Y41546D01*
X91733Y41310D01*
X89659Y43384D01*
X89529Y43495D01*
X89383Y43584D01*
X89224Y43650D01*
X89058Y43690D01*
X88887Y43703D01*
X87669D01*
X87543Y43811D01*
X87345Y43932D01*
X87130Y44021D01*
X86904Y44075D01*
X86672Y44093D01*
D02*
G37*
G36*
X145924Y41168D02*
X145693Y41150D01*
X145467Y41096D01*
X145252Y41007D01*
X145054Y40885D01*
X144877Y40735D01*
X144726Y40558D01*
X144605Y40360D01*
X144516Y40145D01*
X144462Y39919D01*
X144444Y39687D01*
X144462Y39456D01*
X144516Y39230D01*
X144605Y39015D01*
X144726Y38817D01*
X144877Y38640D01*
X145054Y38489D01*
X145252Y38368D01*
X145467Y38279D01*
X145693Y38225D01*
X145924Y38206D01*
X146156Y38225D01*
X146382Y38279D01*
X146597Y38368D01*
X146795Y38489D01*
X146972Y38640D01*
X147123Y38817D01*
X147244Y39015D01*
X147333Y39230D01*
X147387Y39456D01*
X147405Y39687D01*
X147387Y39919D01*
X147333Y40145D01*
X147244Y40360D01*
X147123Y40558D01*
X146972Y40735D01*
X146795Y40885D01*
X146597Y41007D01*
X146382Y41096D01*
X146156Y41150D01*
X145924Y41168D01*
D02*
G37*
G36*
X137065Y41204D02*
X137065Y39704D01*
X138168Y39704D01*
X138561Y39603D01*
X138620Y39235D01*
X138620Y38087D01*
X140100Y38087D01*
X140100Y39587D01*
X139070Y39587D01*
X139030Y39587D01*
X138996Y39589D01*
X138546Y40056D01*
X138545Y40081D01*
X138545Y40123D01*
X138545Y41204D01*
X137065Y41204D01*
D02*
G37*
G36*
X100000Y38481D02*
X99768Y38463D01*
X99542Y38408D01*
X99328Y38320D01*
X99129Y38198D01*
X98953Y38047D01*
X98802Y37870D01*
X98681Y37672D01*
X98592Y37458D01*
X98537Y37232D01*
X98519Y37000D01*
X98537Y36768D01*
X98592Y36542D01*
X98681Y36328D01*
X98802Y36130D01*
X98953Y35953D01*
X99129Y35802D01*
X99328Y35680D01*
X99542Y35592D01*
X99768Y35537D01*
X100000Y35519D01*
X100232Y35537D01*
X100458Y35592D01*
X100672Y35680D01*
X100871Y35802D01*
X101047Y35953D01*
X101198Y36130D01*
X101320Y36328D01*
X101409Y36542D01*
X101463Y36768D01*
X101481Y37000D01*
X101463Y37232D01*
X101409Y37458D01*
X101320Y37672D01*
X101198Y37870D01*
X101047Y38047D01*
X100871Y38198D01*
X100672Y38320D01*
X100458Y38408D01*
X100232Y38463D01*
X100000Y38481D01*
D02*
G37*
G36*
X15748Y39533D02*
X15516Y39515D01*
X15290Y39461D01*
X15076Y39371D01*
X14877Y39250D01*
X14701Y39099D01*
X14550Y38923D01*
X14428Y38724D01*
X14340Y38510D01*
X14285Y38284D01*
X14267Y38052D01*
X14285Y37820D01*
X14340Y37594D01*
X14428Y37380D01*
X14550Y37181D01*
X14701Y37005D01*
X14877Y36854D01*
X15076Y36733D01*
X15290Y36643D01*
X15516Y36589D01*
X15748Y36571D01*
X15762Y36572D01*
X19667Y32667D01*
X19791Y32561D01*
X19929Y32476D01*
X20080Y32414D01*
X20238Y32376D01*
X20400Y32363D01*
X24277D01*
X24396Y32276D01*
X24645Y31863D01*
X24637Y31832D01*
X24619Y31600D01*
X24637Y31368D01*
X24691Y31142D01*
X24780Y30928D01*
X24902Y30729D01*
X25053Y30553D01*
X25229Y30402D01*
X25428Y30281D01*
X25642Y30191D01*
X25868Y30137D01*
X26100Y30119D01*
X26332Y30137D01*
X26558Y30191D01*
X26772Y30281D01*
X26970Y30402D01*
X27147Y30553D01*
X27298Y30729D01*
X27419Y30928D01*
X27509Y31142D01*
X27563Y31368D01*
X27581Y31600D01*
X27563Y31832D01*
X27555Y31863D01*
X27804Y32276D01*
X27923Y32363D01*
X30211D01*
X30601Y32100D01*
X30619Y31868D01*
X30673Y31642D01*
X30762Y31428D01*
X30884Y31229D01*
X31035Y31053D01*
X31211Y30902D01*
X31409Y30781D01*
X31624Y30691D01*
X31850Y30637D01*
X32082Y30619D01*
X32313Y30637D01*
X32539Y30691D01*
X32754Y30781D01*
X32952Y30902D01*
X33129Y31053D01*
X33280Y31229D01*
X33401Y31428D01*
X33490Y31642D01*
X33544Y31868D01*
X33563Y32100D01*
X33544Y32332D01*
X33490Y32558D01*
X33401Y32772D01*
X33280Y32970D01*
X33129Y33147D01*
X32952Y33298D01*
X32754Y33419D01*
X32539Y33509D01*
X32313Y33563D01*
X32082Y33581D01*
X32068Y33580D01*
X31515Y34133D01*
X31391Y34239D01*
X31252Y34324D01*
X31102Y34386D01*
X30944Y34424D01*
X30782Y34437D01*
X20829D01*
X17228Y38038D01*
X17229Y38052D01*
X17211Y38284D01*
X17156Y38510D01*
X17067Y38724D01*
X16946Y38923D01*
X16795Y39099D01*
X16619Y39250D01*
X16420Y39371D01*
X16206Y39461D01*
X15980Y39515D01*
X15748Y39533D01*
D02*
G37*
G36*
X131726Y32268D02*
X131494Y32250D01*
X131268Y32196D01*
X131054Y32107D01*
X130856Y31986D01*
X130679Y31835D01*
X130528Y31658D01*
X130406Y31460D01*
X130317Y31245D01*
X130263Y31019D01*
X130245Y30787D01*
X130263Y30556D01*
X130317Y30330D01*
X130406Y30115D01*
X130528Y29917D01*
X130679Y29740D01*
X130856Y29589D01*
X131054Y29468D01*
X131268Y29379D01*
X131494Y29325D01*
X131726Y29307D01*
X131958Y29325D01*
X132184Y29379D01*
X132398Y29468D01*
X132597Y29589D01*
X132773Y29740D01*
X132924Y29917D01*
X133045Y30115D01*
X133134Y30330D01*
X133189Y30556D01*
X133207Y30787D01*
X133189Y31019D01*
X133134Y31245D01*
X133045Y31460D01*
X132924Y31658D01*
X132773Y31835D01*
X132597Y31986D01*
X132398Y32107D01*
X132184Y32196D01*
X131958Y32250D01*
X131726Y32268D01*
D02*
G37*
G36*
X138724Y36887D02*
X138724Y28487D01*
X142024Y28487D01*
X142024Y36887D01*
X138724Y36887D01*
D02*
G37*
G36*
X93800Y30381D02*
X93568Y30363D01*
X93342Y30308D01*
X93128Y30220D01*
X92930Y30098D01*
X92753Y29947D01*
X92602Y29770D01*
X92480Y29572D01*
X92392Y29358D01*
X92337Y29132D01*
X92319Y28900D01*
X92337Y28668D01*
X92392Y28442D01*
X92480Y28228D01*
X92602Y28030D01*
X92753Y27853D01*
X92930Y27702D01*
X93128Y27580D01*
X93342Y27492D01*
X93568Y27437D01*
X93800Y27419D01*
X94032Y27437D01*
X94258Y27492D01*
X94472Y27580D01*
X94670Y27702D01*
X94847Y27853D01*
X94998Y28030D01*
X95120Y28228D01*
X95209Y28442D01*
X95263Y28668D01*
X95281Y28900D01*
X95263Y29132D01*
X95209Y29358D01*
X95120Y29572D01*
X94998Y29770D01*
X94847Y29947D01*
X94670Y30098D01*
X94472Y30220D01*
X94258Y30308D01*
X94032Y30363D01*
X93800Y30381D01*
D02*
G37*
G36*
X132811Y28326D02*
X132580Y28307D01*
X132354Y28253D01*
X132139Y28164D01*
X131941Y28043D01*
X131764Y27892D01*
X131613Y27715D01*
X131492Y27517D01*
X131403Y27302D01*
X131349Y27076D01*
X131331Y26845D01*
X131349Y26613D01*
X131403Y26387D01*
X131492Y26172D01*
X131613Y25974D01*
X131764Y25797D01*
X131941Y25646D01*
X132139Y25525D01*
X132354Y25436D01*
X132580Y25382D01*
X132811Y25364D01*
X133043Y25382D01*
X133269Y25436D01*
X133484Y25525D01*
X133682Y25646D01*
X133859Y25797D01*
X134010Y25974D01*
X134131Y26172D01*
X134220Y26387D01*
X134274Y26613D01*
X134292Y26845D01*
X134274Y27076D01*
X134220Y27302D01*
X134131Y27517D01*
X134010Y27715D01*
X133859Y27892D01*
X133682Y28043D01*
X133484Y28164D01*
X133269Y28253D01*
X133043Y28307D01*
X132811Y28326D01*
D02*
G37*
G36*
X130501Y20995D02*
X130269Y20977D01*
X130043Y20923D01*
X129829Y20834D01*
X129631Y20713D01*
X129564Y20655D01*
X129497Y20713D01*
X129299Y20834D01*
X129084Y20923D01*
X128858Y20977D01*
X128626Y20995D01*
X128395Y20977D01*
X128169Y20923D01*
X127954Y20834D01*
X127756Y20713D01*
X127689Y20655D01*
X127622Y20713D01*
X127424Y20834D01*
X127209Y20923D01*
X126983Y20977D01*
X126751Y20995D01*
X126520Y20977D01*
X126294Y20923D01*
X126079Y20834D01*
X125881Y20713D01*
X125704Y20562D01*
X125553Y20385D01*
X125432Y20187D01*
X125343Y19972D01*
X125289Y19746D01*
X125271Y19514D01*
X125289Y19283D01*
X125343Y19057D01*
X125432Y18842D01*
X125553Y18644D01*
X125704Y18467D01*
X125881Y18316D01*
X126079Y18195D01*
X126294Y18106D01*
X126520Y18052D01*
X126751Y18034D01*
X126983Y18052D01*
X127209Y18106D01*
X127424Y18195D01*
X127622Y18316D01*
X127689Y18374D01*
X127756Y18316D01*
X127954Y18195D01*
X128169Y18106D01*
X128395Y18052D01*
X128626Y18034D01*
X128858Y18052D01*
X129084Y18106D01*
X129299Y18195D01*
X129497Y18316D01*
X129564Y18374D01*
X129631Y18316D01*
X129829Y18195D01*
X130043Y18106D01*
X130269Y18052D01*
X130501Y18034D01*
X130733Y18052D01*
X130959Y18106D01*
X131173Y18195D01*
X131372Y18316D01*
X131548Y18467D01*
X131699Y18644D01*
X131821Y18842D01*
X131910Y19057D01*
X131964Y19283D01*
X131982Y19514D01*
X131964Y19746D01*
X131910Y19972D01*
X131821Y20187D01*
X131699Y20385D01*
X131548Y20562D01*
X131372Y20713D01*
X131173Y20834D01*
X130959Y20923D01*
X130733Y20977D01*
X130501Y20995D01*
D02*
G37*
G36*
X138170Y27952D02*
Y23455D01*
X137717D01*
X137717Y20100D01*
X137624D01*
X137624Y12300D01*
X141124Y12300D01*
X141124Y19955D01*
X145517Y19955D01*
X145517Y23455D01*
X140532Y23455D01*
X140532Y27952D01*
X138170Y27952D01*
D02*
G37*
G36*
X122726Y28326D02*
X122494Y28307D01*
X122268Y28253D01*
X122054Y28164D01*
X121855Y28043D01*
X121679Y27892D01*
X121528Y27715D01*
X121406Y27517D01*
X121318Y27302D01*
X121263Y27076D01*
X121245Y26845D01*
X121263Y26613D01*
X121318Y26387D01*
X121406Y26172D01*
X121528Y25974D01*
X121679Y25797D01*
X121855Y25646D01*
X122054Y25525D01*
X122268Y25436D01*
X122462Y25390D01*
X122494Y25254D01*
Y24992D01*
X122462Y24856D01*
X122268Y24810D01*
X122054Y24721D01*
X121855Y24599D01*
X121679Y24448D01*
X121528Y24272D01*
X121406Y24074D01*
X121318Y23859D01*
X121263Y23633D01*
X121245Y23401D01*
X121263Y23170D01*
X121318Y22944D01*
X121406Y22729D01*
X121465Y22633D01*
X121399Y22577D01*
X121248Y22400D01*
X121127Y22202D01*
X121038Y21987D01*
X120983Y21761D01*
X120965Y21530D01*
X120983Y21298D01*
X121038Y21072D01*
X121127Y20857D01*
X121248Y20659D01*
X121399Y20482D01*
X121576Y20332D01*
X121774Y20210D01*
X121988Y20121D01*
X122214Y20067D01*
X122446Y20049D01*
X122678Y20067D01*
X122904Y20121D01*
X123118Y20210D01*
X123317Y20332D01*
X123493Y20482D01*
X123644Y20659D01*
X123766Y20857D01*
X123855Y21072D01*
X123909Y21298D01*
X123927Y21530D01*
X123909Y21761D01*
X123855Y21987D01*
X123766Y22202D01*
X123707Y22298D01*
X123773Y22354D01*
X123924Y22531D01*
X124046Y22729D01*
X124134Y22944D01*
X124189Y23170D01*
X124207Y23401D01*
X124189Y23633D01*
X124134Y23859D01*
X124046Y24074D01*
X123924Y24272D01*
X123773Y24448D01*
X123597Y24599D01*
X123398Y24721D01*
X123184Y24810D01*
X122990Y24856D01*
X122958Y24992D01*
Y25254D01*
X122990Y25390D01*
X123184Y25436D01*
X123398Y25525D01*
X123597Y25646D01*
X123773Y25797D01*
X123924Y25974D01*
X124046Y26172D01*
X124134Y26387D01*
X124189Y26613D01*
X124207Y26845D01*
X124189Y27076D01*
X124134Y27302D01*
X124046Y27517D01*
X123924Y27715D01*
X123773Y27892D01*
X123597Y28043D01*
X123398Y28164D01*
X123184Y28253D01*
X122958Y28307D01*
X122726Y28326D01*
D02*
G37*
G36*
X28543Y25792D02*
X28196Y25775D01*
X27851Y25723D01*
X27514Y25639D01*
X27186Y25522D01*
X26871Y25373D01*
X26572Y25194D01*
X26293Y24986D01*
X26035Y24753D01*
X25801Y24495D01*
X25594Y24215D01*
X25415Y23916D01*
X25266Y23602D01*
X25148Y23274D01*
X25064Y22936D01*
X25013Y22592D01*
X24996Y22244D01*
X25013Y21896D01*
X25064Y21552D01*
X25148Y21214D01*
X25266Y20887D01*
X25415Y20572D01*
X25594Y20273D01*
X25801Y19994D01*
X26035Y19736D01*
X26293Y19502D01*
X26572Y19294D01*
X26871Y19115D01*
X27186Y18967D01*
X27514Y18849D01*
X27851Y18765D01*
X28196Y18714D01*
X28543Y18697D01*
X28891Y18714D01*
X29235Y18765D01*
X29573Y18849D01*
X29901Y18967D01*
X30216Y19115D01*
X30514Y19294D01*
X30794Y19502D01*
X31052Y19736D01*
X31286Y19994D01*
X31493Y20273D01*
X31672Y20572D01*
X31821Y20887D01*
X31938Y21214D01*
X32023Y21552D01*
X32074Y21896D01*
X32091Y22244D01*
X32074Y22592D01*
X32023Y22936D01*
X31938Y23274D01*
X31821Y23602D01*
X31672Y23916D01*
X31493Y24215D01*
X31286Y24495D01*
X31052Y24753D01*
X30794Y24986D01*
X30514Y25194D01*
X30216Y25373D01*
X29901Y25522D01*
X29573Y25639D01*
X29235Y25723D01*
X28891Y25775D01*
X28543Y25792D01*
D02*
G37*
G36*
X122426Y19046D02*
X122194Y19028D01*
X121968Y18974D01*
X121754Y18885D01*
X121555Y18764D01*
X121379Y18612D01*
X121228Y18436D01*
X121107Y18238D01*
X121018Y18023D01*
X120963Y17797D01*
X120945Y17565D01*
X120963Y17334D01*
X121018Y17108D01*
X121107Y16893D01*
X121228Y16695D01*
X121379Y16518D01*
X121555Y16367D01*
X121754Y16246D01*
X121968Y16157D01*
X122194Y16103D01*
X122426Y16084D01*
X122658Y16103D01*
X122884Y16157D01*
X123098Y16246D01*
X123296Y16367D01*
X123473Y16518D01*
X123624Y16695D01*
X123746Y16893D01*
X123834Y17108D01*
X123889Y17334D01*
X123907Y17565D01*
X123889Y17797D01*
X123834Y18023D01*
X123746Y18238D01*
X123624Y18436D01*
X123473Y18612D01*
X123296Y18764D01*
X123098Y18885D01*
X122884Y18974D01*
X122658Y19028D01*
X122426Y19046D01*
D02*
G37*
G36*
X124441Y15483D02*
X124209Y15465D01*
X123984Y15410D01*
X123769Y15321D01*
X123571Y15200D01*
X123551Y15184D01*
X123107Y15050D01*
X123107Y15050D01*
X120745Y15050D01*
Y10469D01*
X120686D01*
X120686Y8106D01*
X125145Y8106D01*
Y5825D01*
X127507Y5825D01*
X127507Y9480D01*
X127624Y9617D01*
X127745Y9815D01*
X127834Y10030D01*
X127889Y10256D01*
X127907Y10487D01*
X127889Y10719D01*
X127834Y10945D01*
X127745Y11160D01*
X127624Y11358D01*
X127473Y11535D01*
X127296Y11686D01*
X127098Y11807D01*
X126884Y11896D01*
X126658Y11950D01*
X126426Y11968D01*
X126194Y11950D01*
X125968Y11896D01*
X125754Y11807D01*
X125556Y11686D01*
X125379Y11535D01*
X125228Y11358D01*
X125107Y11160D01*
X125017Y10945D01*
X124963Y10719D01*
X124945Y10487D01*
X124928Y10469D01*
X123107D01*
Y12542D01*
X123471Y12748D01*
X123607Y12782D01*
X123769Y12682D01*
X123984Y12593D01*
X124209Y12539D01*
X124441Y12521D01*
X124673Y12539D01*
X124899Y12593D01*
X125113Y12682D01*
X125312Y12804D01*
X125488Y12955D01*
X125639Y13131D01*
X125761Y13330D01*
X125850Y13544D01*
X125904Y13770D01*
X125922Y14002D01*
X125904Y14234D01*
X125850Y14459D01*
X125761Y14674D01*
X125639Y14872D01*
X125488Y15049D01*
X125312Y15200D01*
X125113Y15321D01*
X124899Y15410D01*
X124673Y15465D01*
X124441Y15483D01*
D02*
G37*
G36*
X132811D02*
X132580Y15465D01*
X132354Y15410D01*
X132139Y15321D01*
X131941Y15200D01*
X131764Y15049D01*
X131613Y14872D01*
X131492Y14674D01*
X131403Y14459D01*
X131349Y14234D01*
X131331Y14002D01*
X131349Y13770D01*
X131403Y13544D01*
X131492Y13330D01*
X131613Y13131D01*
X131764Y12955D01*
X131941Y12804D01*
X132139Y12682D01*
X132354Y12593D01*
X132580Y12539D01*
X132811Y12521D01*
X133043Y12539D01*
X133269Y12593D01*
X133484Y12682D01*
X133682Y12804D01*
X133859Y12955D01*
X134010Y13131D01*
X134131Y13330D01*
X134220Y13544D01*
X134274Y13770D01*
X134292Y14002D01*
X134274Y14234D01*
X134220Y14459D01*
X134131Y14674D01*
X134010Y14872D01*
X133859Y15049D01*
X133682Y15200D01*
X133484Y15321D01*
X133269Y15410D01*
X133043Y15465D01*
X132811Y15483D01*
D02*
G37*
G36*
X13780Y20674D02*
X13288Y20656D01*
X12799Y20604D01*
X12314Y20516D01*
X11837Y20394D01*
X11370Y20239D01*
X10916Y20051D01*
X10476Y19830D01*
X10052Y19579D01*
X9648Y19299D01*
X9265Y18990D01*
X8905Y18654D01*
X8569Y18294D01*
X8261Y17911D01*
X7980Y17507D01*
X7729Y17084D01*
X7508Y16644D01*
X7320Y16189D01*
X7165Y15722D01*
X7043Y15245D01*
X6956Y14761D01*
X6903Y14271D01*
X6886Y13780D01*
X6903Y13288D01*
X6956Y12798D01*
X7043Y12314D01*
X7165Y11837D01*
X7320Y11370D01*
X7508Y10916D01*
X7729Y10476D01*
X7980Y10052D01*
X8261Y9648D01*
X8569Y9265D01*
X8905Y8905D01*
X9265Y8569D01*
X9648Y8260D01*
X10052Y7980D01*
X10476Y7729D01*
X10916Y7508D01*
X11370Y7320D01*
X11837Y7165D01*
X12314Y7043D01*
X12799Y6956D01*
X13288Y6903D01*
X13780Y6885D01*
X14271Y6903D01*
X14761Y6956D01*
X15245Y7043D01*
X15722Y7165D01*
X16189Y7320D01*
X16644Y7508D01*
X17084Y7729D01*
X17507Y7980D01*
X17911Y8260D01*
X18294Y8569D01*
X18654Y8905D01*
X18990Y9265D01*
X19299Y9648D01*
X19579Y10052D01*
X19830Y10476D01*
X20051Y10916D01*
X20239Y11370D01*
X20394Y11837D01*
X20516Y12314D01*
X20604Y12798D01*
X20656Y13288D01*
X20674Y13780D01*
X20656Y14271D01*
X20604Y14761D01*
X20516Y15245D01*
X20394Y15722D01*
X20239Y16189D01*
X20051Y16644D01*
X19830Y17084D01*
X19579Y17507D01*
X19299Y17911D01*
X18990Y18294D01*
X18654Y18654D01*
X18294Y18990D01*
X17911Y19299D01*
X17507Y19579D01*
X17084Y19830D01*
X16644Y20051D01*
X16189Y20239D01*
X15722Y20394D01*
X15245Y20516D01*
X14761Y20604D01*
X14271Y20656D01*
X13780Y20674D01*
D02*
G37*
%LPD*%
D10*
X76957Y20758D02*
X79594D01*
X80835Y19517D01*
X78857Y19394D02*
X79935Y18317D01*
X75579Y19394D02*
X78857D01*
X78290Y16100D02*
X79900D01*
X76374Y18016D02*
X78290Y16100D01*
X74202Y18016D02*
X76374D01*
D11*
X80402Y22150D02*
X80993Y21559D01*
X74150Y22150D02*
X80402D01*
X72800Y23500D02*
X74150Y22150D01*
X81993Y14475D02*
X83735Y16217D01*
X76556Y14475D02*
X81993D01*
X75096Y13015D02*
X76556Y14475D01*
X62318Y14000D02*
X66261Y17943D01*
X67810D01*
X68690Y18823D01*
Y19394D01*
X63662Y30043D02*
X64666Y29039D01*
X67312D01*
X77647Y24906D02*
X82700Y29958D01*
X76957Y24906D02*
X77647D01*
X82700Y29958D02*
Y30000D01*
X70068Y18368D02*
Y19394D01*
X68100Y16400D02*
X70068Y18368D01*
X68100Y14400D02*
Y16400D01*
D12*
X86672Y42613D02*
X88887D01*
X92200Y39300D01*
D16*
X16200Y109600D02*
X18900D01*
X24700Y103800D01*
X37000Y49122D02*
X39278D01*
X49000Y39400D01*
Y29027D02*
Y39400D01*
Y29027D02*
X52168Y25859D01*
X62635D01*
X63060Y26283D01*
X67312D01*
X22600Y103077D02*
Y104508D01*
X19269Y107839D02*
X22600Y104508D01*
X17677Y107839D02*
X19269D01*
X14100Y122100D02*
X18137D01*
X37000Y47154D02*
X39854D01*
X48016Y38992D01*
Y28620D02*
Y38992D01*
Y28620D02*
X51760Y24875D01*
X65903D01*
X65934Y24905D01*
X13300Y53700D02*
X20900Y61300D01*
X13300Y48300D02*
Y53700D01*
X59206Y52006D02*
Y55754D01*
X56175Y48975D02*
X59206Y52006D01*
X56175Y42550D02*
Y48975D01*
Y42550D02*
X59641Y39084D01*
X66716D01*
X68882Y36918D01*
Y33818D02*
Y36918D01*
Y33818D02*
X71400Y31300D01*
Y29289D02*
Y31300D01*
X71298Y29187D02*
X71400Y29289D01*
X71298Y29187D02*
X71446Y29039D01*
X44291Y22638D02*
X44956Y21973D01*
X56497D01*
X58415Y23890D01*
X65209D01*
X65572Y23528D01*
X67312D01*
X66756Y44713D02*
X67516Y43952D01*
Y39676D02*
Y43952D01*
Y39676D02*
X68533Y38659D01*
X70903D01*
X72392Y37170D01*
Y29833D02*
Y37170D01*
Y29833D02*
X72824Y29401D01*
Y29039D02*
Y29401D01*
X55500Y53200D02*
X57300Y55000D01*
Y55700D01*
X55500Y51300D02*
Y53200D01*
X55191Y42109D02*
Y50991D01*
X55500Y51300D01*
X55191Y42109D02*
X59200Y38100D01*
X66308D01*
X67898Y36510D01*
Y33410D02*
Y36510D01*
Y33410D02*
X68692Y32616D01*
X68692D01*
X69208Y32100D01*
X70068Y31240D01*
Y29039D02*
Y31240D01*
X64800Y49400D02*
Y49600D01*
Y49400D02*
X66027Y48173D01*
X67673D01*
X69960Y50460D01*
X81452D01*
X83184Y48728D01*
Y45820D02*
Y48728D01*
X81789Y44424D02*
X83184Y45820D01*
X81789Y32420D02*
Y44424D01*
X78284Y28916D02*
X81789Y32420D01*
X78188Y28820D02*
X78284Y28916D01*
Y28626D02*
Y28916D01*
X78188Y28745D02*
Y28820D01*
X77319Y27661D02*
X78284Y28626D01*
X76957Y27661D02*
X77319D01*
Y26283D02*
X77713Y26677D01*
X76957Y26283D02*
X77319D01*
X77727Y26677D02*
X78762Y27712D01*
X77713Y26677D02*
X77727D01*
X78762Y27712D02*
X79268Y28219D01*
Y28508D02*
X82773Y32013D01*
X79268Y28219D02*
Y28508D01*
X82773Y32013D02*
Y44017D01*
X84168Y45412D01*
Y49136D01*
X81860Y51445D02*
X84168Y49136D01*
X68545Y51445D02*
X81860D01*
X66700Y49600D02*
X68545Y51445D01*
X32480Y18307D02*
X36417Y22244D01*
X32480Y12402D02*
Y18307D01*
Y12402D02*
X35433Y9449D01*
X45971D01*
X49500Y12978D01*
Y16795D01*
X51725Y19020D01*
X57720D01*
X59078Y20378D01*
X65770D01*
X66082Y20689D01*
X67230D01*
X67312Y20772D01*
X49984Y36984D02*
X51800Y38800D01*
X49984Y29435D02*
Y36984D01*
Y29435D02*
X52576Y26843D01*
X62227D01*
X63046Y27661D01*
X68690D01*
X30782Y33400D02*
X32082Y32100D01*
X20400Y33400D02*
X30782D01*
X15748Y38052D02*
X20400Y33400D01*
X56700Y16600D02*
Y16608D01*
X59486Y19394D01*
X67312D01*
X74202Y29039D02*
Y29415D01*
X73376Y30240D02*
X74202Y29415D01*
X73376Y30240D02*
Y40124D01*
X73100Y40400D02*
X73376Y40124D01*
X58516Y22600D02*
X64700D01*
X56905Y20989D02*
X58516Y22600D01*
X50910Y20989D02*
X56905D01*
X44291Y14370D02*
X50910Y20989D01*
X74361Y30739D02*
X75579Y29521D01*
Y29039D02*
Y29521D01*
X74361Y30739D02*
Y39561D01*
X75200Y40400D01*
X36417Y14370D02*
X40354Y10433D01*
X45563D01*
X48516Y13386D01*
Y17202D01*
X51318Y20004D01*
X57312D01*
X58670Y21362D01*
X65362D01*
X66055Y22055D01*
X67218D01*
X67312Y22150D01*
X72300Y48900D02*
X73418D01*
X73994Y49476D01*
X81044D01*
X82200Y48320D01*
Y46228D02*
Y48320D01*
X80804Y44832D02*
X82200Y46228D01*
X80804Y32828D02*
Y44832D01*
X77016Y29039D02*
X80804Y32828D01*
X76957Y29039D02*
X77016D01*
D132*
X76700Y127800D02*
X79800D01*
X76500Y128000D02*
X76700Y127800D01*
D133*
X39865Y130500D02*
X43265Y133900D01*
X23900Y130500D02*
X39865D01*
D140*
X65383Y36617D02*
X66736Y35264D01*
X64935Y36617D02*
X65383D01*
X66736Y32154D02*
Y35264D01*
Y32154D02*
X67290Y31600D01*
X68690Y30200D01*
Y29039D02*
Y30200D01*
D142*
X83291Y28740D02*
X83858D01*
X78079Y23528D02*
X83291Y28740D01*
X76957Y23528D02*
X78079D01*
D150*
X5709Y86614D02*
D03*
Y112598D02*
D03*
D151*
X49900Y114000D02*
D03*
X59900Y114000D02*
D03*
X69900Y114000D02*
D03*
D152*
X44291Y22244D02*
D03*
D153*
Y14370D02*
D03*
X36417Y22244D02*
D03*
Y14370D02*
D03*
X137697Y120472D02*
D03*
D156*
X81373Y21189D02*
D03*
X72800Y23500D02*
D03*
X69509Y23713D02*
D03*
X32701Y70284D02*
D03*
X16200Y109600D02*
D03*
X24700Y103800D02*
D03*
X100693Y66839D02*
D03*
X34571Y35395D02*
D03*
X76946Y159402D02*
D03*
X96710Y154206D02*
D03*
X22600Y103077D02*
D03*
X17677Y107839D02*
D03*
X18137Y122047D02*
D03*
X14100Y122100D02*
D03*
X20900Y61300D02*
D03*
X13300Y48300D02*
D03*
X34276Y90067D02*
D03*
X48200Y87300D02*
D03*
X49039Y85028D02*
D03*
X38724Y58965D02*
D03*
X35850Y58971D02*
D03*
X53961Y71169D02*
D03*
X57898D02*
D03*
X50024D02*
D03*
X53961Y64870D02*
D03*
Y77469D02*
D03*
X61835Y71169D02*
D03*
X46087D02*
D03*
X57898Y64870D02*
D03*
X50024D02*
D03*
X53961Y58571D02*
D03*
X50394Y77469D02*
D03*
X46087D02*
D03*
X56398D02*
D03*
X61835D02*
D03*
X61835Y64870D02*
D03*
X61700Y67900D02*
D03*
X65772Y71169D02*
D03*
X42487D02*
D03*
X46087Y64870D02*
D03*
X57898Y58571D02*
D03*
X50024D02*
D03*
X53961Y55618D02*
D03*
X53961Y52272D02*
D03*
X42487Y77469D02*
D03*
X65772D02*
D03*
X61835Y58571D02*
D03*
X65772Y64870D02*
D03*
X69709Y71169D02*
D03*
X42487Y64870D02*
D03*
X46087Y58571D02*
D03*
X61835Y52272D02*
D03*
X57298D02*
D03*
X50024D02*
D03*
X69709Y77469D02*
D03*
X65772Y58571D02*
D03*
X69709Y64870D02*
D03*
X73646Y71169D02*
D03*
X42487Y58571D02*
D03*
X46087Y52272D02*
D03*
X69709Y52872D02*
D03*
X73646Y77469D02*
D03*
X69709Y58571D02*
D03*
X73646Y64870D02*
D03*
X77583Y71169D02*
D03*
X42487Y52272D02*
D03*
X73646Y52872D02*
D03*
X77583Y77469D02*
D03*
X73646Y58571D02*
D03*
X77583Y64870D02*
D03*
X80520Y71169D02*
D03*
X77583Y52872D02*
D03*
X80520Y77469D02*
D03*
X77583Y58571D02*
D03*
X80520Y64870D02*
D03*
X85457Y71169D02*
D03*
Y52672D02*
D03*
X81520Y52872D02*
D03*
X85457Y77469D02*
D03*
X81520Y58571D02*
D03*
X85457Y64870D02*
D03*
X89394Y71169D02*
D03*
Y52272D02*
D03*
X85457Y58571D02*
D03*
X93331Y77469D02*
D03*
X89394Y64870D02*
D03*
X93331Y71169D02*
D03*
Y52272D02*
D03*
X89394Y58571D02*
D03*
X96331Y77469D02*
D03*
X93331Y64870D02*
D03*
X96331Y71169D02*
D03*
Y52272D02*
D03*
X93331Y58571D02*
D03*
X96331Y64870D02*
D03*
Y58571D02*
D03*
X56600Y159500D02*
D03*
X58600D02*
D03*
X53894Y158956D02*
D03*
Y160756D02*
D03*
X52800Y156900D02*
D03*
X59206Y55754D02*
D03*
X43265Y133900D02*
D03*
X23900Y130500D02*
D03*
X38724Y68807D02*
D03*
X96283Y44713D02*
D03*
X99803Y41339D02*
D03*
X86672Y42613D02*
D03*
X92200Y39300D02*
D03*
X117226Y7000D02*
D03*
Y9500D02*
D03*
X82504Y85028D02*
D03*
X83000Y87411D02*
D03*
X66756Y44713D02*
D03*
X92347Y85028D02*
D03*
X79200Y35400D02*
D03*
X73500Y8300D02*
D03*
X57300Y55700D02*
D03*
X58200Y15700D02*
D03*
X64800Y49600D02*
D03*
X79900Y16100D02*
D03*
X66700Y49600D02*
D03*
X39394Y33564D02*
D03*
X100693Y64870D02*
D03*
X103693Y65370D02*
D03*
X130200Y144300D02*
D03*
X76946Y169009D02*
D03*
X100693Y53059D02*
D03*
X103893Y53159D02*
D03*
X29453Y91904D02*
D03*
X140000Y195000D02*
D03*
X59200Y140750D02*
D03*
Y142450D02*
D03*
X57300Y140750D02*
D03*
X57295Y142450D02*
D03*
X83858Y28740D02*
D03*
X38724Y70776D02*
D03*
X127642Y24974D02*
D03*
X129611Y23400D02*
D03*
Y24974D02*
D03*
X127642Y23400D02*
D03*
X64787Y85028D02*
D03*
X84772Y42713D02*
D03*
X74630Y85028D02*
D03*
X84472D02*
D03*
X89665Y18209D02*
D03*
X94315Y85028D02*
D03*
X95000Y87411D02*
D03*
X77600Y12900D02*
D03*
X51800Y38800D02*
D03*
X100693Y72744D02*
D03*
X32082Y32100D02*
D03*
X15748Y38052D02*
D03*
X29158Y68748D02*
D03*
X41200Y168400D02*
D03*
X142924Y41187D02*
D03*
X79800Y127800D02*
D03*
X38724Y53059D02*
D03*
X137224Y36287D02*
D03*
X64935Y36617D02*
D03*
X38724Y72744D02*
D03*
X56913Y85028D02*
D03*
X73100Y40400D02*
D03*
X124326Y19487D02*
D03*
X127642Y13904D02*
D03*
X129611Y15872D02*
D03*
Y13904D02*
D03*
X127642Y15872D02*
D03*
X100000Y7000D02*
D03*
X86441Y85028D02*
D03*
X96284D02*
D03*
X78400Y147800D02*
D03*
X82900Y148700D02*
D03*
X57687Y48313D02*
D03*
X27287Y60539D02*
D03*
X100693Y70776D02*
D03*
X103893Y71244D02*
D03*
X64634Y31317D02*
D03*
X38724Y64870D02*
D03*
Y74713D02*
D03*
X128000Y186000D02*
D03*
X38724Y44713D02*
D03*
X75200Y40400D02*
D03*
X90378Y44713D02*
D03*
X88410Y85028D02*
D03*
X72300Y48900D02*
D03*
X51008Y44713D02*
D03*
X50600Y42700D02*
D03*
X55278Y23400D02*
D03*
X100693Y78650D02*
D03*
X122259Y71717D02*
D03*
X26894Y91904D02*
D03*
X28300Y89800D02*
D03*
X55000Y39800D02*
D03*
X130300Y187500D02*
D03*
X38724Y85028D02*
D03*
X35850Y85034D02*
D03*
X38724Y76681D02*
D03*
X100693Y44713D02*
D03*
X103400Y44000D02*
D03*
X117226Y14500D02*
D03*
Y12000D02*
D03*
X78600Y41900D02*
D03*
X80535Y85028D02*
D03*
X68731Y44706D02*
D03*
X90378Y85028D02*
D03*
X58882Y44713D02*
D03*
X58200Y42600D02*
D03*
X100693Y60933D02*
D03*
X103693D02*
D03*
X100693Y85028D02*
D03*
X101000Y87411D02*
D03*
X89461Y39880D02*
D03*
X100693Y76681D02*
D03*
X126700Y149400D02*
D03*
X96909Y14600D02*
D03*
X99209D02*
D03*
X97210Y10300D02*
D03*
X92809Y8300D02*
D03*
X89900Y7600D02*
D03*
Y2400D02*
D03*
X96500Y2900D02*
D03*
X77200Y4100D02*
D03*
X86500Y11700D02*
D03*
X54978Y15806D02*
D03*
X138500Y154700D02*
D03*
X59700Y102500D02*
D03*
X90900Y82400D02*
D03*
X124300Y144200D02*
D03*
X95320Y19119D02*
D03*
X95402Y16743D02*
D03*
X89173Y15453D02*
D03*
X90945Y13681D02*
D03*
X123700Y140600D02*
D03*
X4059Y3651D02*
D03*
Y18651D02*
D03*
Y33651D02*
D03*
X7809Y116151D02*
D03*
X4059Y123651D02*
D03*
Y138651D02*
D03*
X7809Y176151D02*
D03*
X4059Y183651D02*
D03*
X7809Y191151D02*
D03*
X11559Y3651D02*
D03*
X15309Y26151D02*
D03*
Y176151D02*
D03*
X19059Y3651D02*
D03*
X22809Y11151D02*
D03*
X26559Y3651D02*
D03*
Y18651D02*
D03*
X30309Y191151D02*
D03*
X37809D02*
D03*
X41559Y123651D02*
D03*
X52809Y11151D02*
D03*
Y176151D02*
D03*
X60309D02*
D03*
X56559Y183651D02*
D03*
X60309Y191151D02*
D03*
X67809Y161151D02*
D03*
X64059Y168651D02*
D03*
Y183651D02*
D03*
X67809Y191151D02*
D03*
X86559Y18651D02*
D03*
Y108651D02*
D03*
X94059Y3651D02*
D03*
X101559Y33651D02*
D03*
X109059D02*
D03*
X116559Y78651D02*
D03*
X120309Y176151D02*
D03*
X124059Y183651D02*
D03*
X142809Y56151D02*
D03*
Y71151D02*
D03*
X146559Y18651D02*
D03*
Y33651D02*
D03*
Y78651D02*
D03*
X60100Y9100D02*
D03*
X82800Y25600D02*
D03*
X111200Y38100D02*
D03*
X101300Y39000D02*
D03*
X111200Y43600D02*
D03*
X126500Y51300D02*
D03*
X123200Y84600D02*
D03*
X131200Y84300D02*
D03*
X136600Y92800D02*
D03*
X112300Y106800D02*
D03*
X83200Y108900D02*
D03*
X75400Y105000D02*
D03*
X69400Y107800D02*
D03*
X69800Y119000D02*
D03*
X64800Y124900D02*
D03*
X61300Y128900D02*
D03*
X55100Y127600D02*
D03*
X51800Y119300D02*
D03*
X35700Y119500D02*
D03*
X9600Y46100D02*
D03*
X9300Y40000D02*
D03*
X11000Y31600D02*
D03*
X32500Y24100D02*
D03*
X48900Y25100D02*
D03*
X125800Y131800D02*
D03*
X127200Y177600D02*
D03*
X122500Y192600D02*
D03*
X150500Y196600D02*
D03*
X150400Y191500D02*
D03*
X143000D02*
D03*
X134000Y196800D02*
D03*
X81900Y192000D02*
D03*
X81300Y179300D02*
D03*
X71800Y172700D02*
D03*
X71300Y180700D02*
D03*
X64600Y175400D02*
D03*
X47700Y176400D02*
D03*
X41300Y173200D02*
D03*
X34500Y171300D02*
D03*
X37600Y184600D02*
D03*
X14100Y142400D02*
D03*
X2700Y142300D02*
D03*
X8200Y137600D02*
D03*
X7300Y130300D02*
D03*
X14900Y127900D02*
D03*
X40400Y17306D02*
D03*
X72200Y2400D02*
D03*
X127100Y160900D02*
D03*
X133600Y167000D02*
D03*
X134200Y179300D02*
D03*
X21400Y137400D02*
D03*
X23800Y143900D02*
D03*
X40400Y137600D02*
D03*
X49000Y132500D02*
D03*
X60900Y134400D02*
D03*
X20500Y114500D02*
D03*
X30500Y114700D02*
D03*
X77800Y100200D02*
D03*
X102200Y112500D02*
D03*
X14300Y110500D02*
D03*
X5500Y91800D02*
D03*
X5400Y105800D02*
D03*
X19800Y149600D02*
D03*
X28300Y158200D02*
D03*
X28700Y166300D02*
D03*
X37400Y159400D02*
D03*
X154000Y161400D02*
D03*
X150600Y175600D02*
D03*
X139400Y181700D02*
D03*
X77700Y126100D02*
D03*
X74700Y121600D02*
D03*
X72200Y137900D02*
D03*
X51900Y147700D02*
D03*
X68500Y152000D02*
D03*
X46700Y97900D02*
D03*
X135937Y106000D02*
D03*
X142108Y112204D02*
D03*
X143000Y121000D02*
D03*
X139000Y143000D02*
D03*
X88250Y25531D02*
D03*
X90604Y25195D02*
D03*
X92578Y23869D02*
D03*
X93652Y21748D02*
D03*
X89054Y21689D02*
D03*
X86693Y21409D02*
D03*
X85830Y25405D02*
D03*
X146850Y2087D02*
D03*
X144472D02*
D03*
X142094D02*
D03*
X139716D02*
D03*
X137338D02*
D03*
X134960Y2095D02*
D03*
X132629Y2564D02*
D03*
X130505Y3632D02*
D03*
X128778Y5267D02*
D03*
X133100Y6378D02*
D03*
X135394Y5752D02*
D03*
X137772Y5739D02*
D03*
X140150D02*
D03*
X142528D02*
D03*
X144906D02*
D03*
X147284D02*
D03*
X128839Y32579D02*
D03*
X119000Y60200D02*
D03*
X94685Y10236D02*
D03*
X66700Y94900D02*
D03*
X142400Y128900D02*
D03*
X6299Y83071D02*
D03*
X12205Y69784D02*
D03*
Y76870D02*
D03*
X31600Y188700D02*
D03*
X42200Y112400D02*
D03*
X44500Y118000D02*
D03*
X23819Y70768D02*
D03*
X22244Y73524D02*
D03*
X22700Y80900D02*
D03*
X24016Y85532D02*
D03*
X13386Y81791D02*
D03*
X12205Y65059D02*
D03*
X97500Y25700D02*
D03*
X91900Y29300D02*
D03*
X131693Y7382D02*
D03*
X96600Y147800D02*
D03*
X81400Y143400D02*
D03*
X137015Y20386D02*
D03*
Y22764D02*
D03*
Y25142D02*
D03*
Y27520D02*
D03*
X143724Y28287D02*
D03*
Y33287D02*
D03*
X132500Y33000D02*
D03*
X132000Y18000D02*
D03*
X131500Y12000D02*
D03*
X134000Y11500D02*
D03*
X137015Y18008D02*
D03*
X141650Y12087D02*
D03*
Y16843D02*
D03*
Y19221D02*
D03*
Y24765D02*
D03*
Y27143D02*
D03*
X137015Y30685D02*
D03*
Y33063D02*
D03*
Y15630D02*
D03*
X136378Y11500D02*
D03*
X138756D02*
D03*
X134378Y16000D02*
D03*
X104713Y76552D02*
D03*
X107091D02*
D03*
X109469D02*
D03*
X111847D02*
D03*
X114221Y76420D02*
D03*
X116530Y75849D02*
D03*
X118677Y74828D02*
D03*
X120578Y73399D02*
D03*
X123949Y70044D02*
D03*
X125630Y68362D02*
D03*
X125416Y63629D02*
D03*
X123585Y65148D02*
D03*
X121933Y66857D02*
D03*
X120251Y68539D02*
D03*
X118570Y70220D02*
D03*
X116712Y71704D02*
D03*
X114514Y72613D02*
D03*
X112151Y72873D02*
D03*
X109773D02*
D03*
X107395D02*
D03*
X105017D02*
D03*
X127794Y63629D02*
D03*
X127508Y68362D02*
D03*
X136150Y70450D02*
D03*
X139500Y72000D02*
D03*
Y74500D02*
D03*
Y77000D02*
D03*
Y79500D02*
D03*
X125591Y81890D02*
D03*
X123000Y82000D02*
D03*
X121500Y75000D02*
D03*
Y77500D02*
D03*
Y80000D02*
D03*
X128091Y81890D02*
D03*
X130591D02*
D03*
X133091D02*
D03*
X135591D02*
D03*
X138091D02*
D03*
X118921Y65477D02*
D03*
X120613Y63806D02*
D03*
X122337Y62168D02*
D03*
X123446Y60065D02*
D03*
X123750Y57706D02*
D03*
Y55328D02*
D03*
Y52950D02*
D03*
Y50572D02*
D03*
Y48194D02*
D03*
Y45816D02*
D03*
Y43438D02*
D03*
Y41060D02*
D03*
X124056Y38702D02*
D03*
X125218Y36627D02*
D03*
X121991Y34145D02*
D03*
X120700Y36142D02*
D03*
X119901Y38382D02*
D03*
X119683Y40750D02*
D03*
Y43128D02*
D03*
Y45506D02*
D03*
Y47884D02*
D03*
Y50262D02*
D03*
Y52640D02*
D03*
Y55018D02*
D03*
Y57396D02*
D03*
X131000Y51500D02*
D03*
X125500Y44500D02*
D03*
Y40000D02*
D03*
X131000Y44500D02*
D03*
Y39000D02*
D03*
X136958Y67930D02*
D03*
X138021Y65802D02*
D03*
X139172Y63722D02*
D03*
X139735Y61411D02*
D03*
X139828Y59035D02*
D03*
Y56657D02*
D03*
Y54279D02*
D03*
Y51901D02*
D03*
Y49523D02*
D03*
Y47145D02*
D03*
Y44767D02*
D03*
X135581Y39503D02*
D03*
X135762Y41875D02*
D03*
Y44252D02*
D03*
Y46630D02*
D03*
Y49008D02*
D03*
Y51386D02*
D03*
Y53764D02*
D03*
Y56142D02*
D03*
Y58520D02*
D03*
X135697Y60897D02*
D03*
X134907Y63140D02*
D03*
X133929Y67817D02*
D03*
X143701Y37795D02*
D03*
X146163Y21654D02*
D03*
X43800Y40600D02*
D03*
Y34400D02*
D03*
X26400Y45100D02*
D03*
X45800Y93500D02*
D03*
X40000Y97500D02*
D03*
X26200Y53600D02*
D03*
X66437Y80020D02*
D03*
X101200Y143800D02*
D03*
X133200Y92500D02*
D03*
X100200Y141331D02*
D03*
X63200Y189300D02*
D03*
X3000Y170900D02*
D03*
X3100Y117000D02*
D03*
X15000Y118000D02*
D03*
X1673Y51870D02*
D03*
X15000Y24100D02*
D03*
X5000Y195000D02*
D03*
X15000D02*
D03*
X37100Y196300D02*
D03*
X45000Y196000D02*
D03*
X55000D02*
D03*
X65000D02*
D03*
X75000D02*
D03*
X85000D02*
D03*
X96181D02*
D03*
X105000Y196400D02*
D03*
X115400Y196600D02*
D03*
X125000Y196000D02*
D03*
X143400Y196800D02*
D03*
X113700Y182100D02*
D03*
X100100Y179700D02*
D03*
X93800Y184300D02*
D03*
X92842Y181263D02*
D03*
X74500Y185500D02*
D03*
X143800Y155900D02*
D03*
X52808Y35543D02*
D03*
X53108Y28343D02*
D03*
X87391Y16638D02*
D03*
X103910Y83869D02*
D03*
X91700Y107400D02*
D03*
X113600Y84600D02*
D03*
X106100Y91000D02*
D03*
X53200Y30900D02*
D03*
X2800Y133500D02*
D03*
X30300Y97300D02*
D03*
X140800Y161700D02*
D03*
X147000Y97800D02*
D03*
X25800Y38100D02*
D03*
X31055Y151662D02*
D03*
X31355Y147662D02*
D03*
Y142162D02*
D03*
X117226Y17000D02*
D03*
Y2410D02*
D03*
Y4500D02*
D03*
X114726Y32000D02*
D03*
X117226Y27000D02*
D03*
Y32000D02*
D03*
Y24500D02*
D03*
Y22000D02*
D03*
Y29500D02*
D03*
Y19500D02*
D03*
X100000D02*
D03*
Y29500D02*
D03*
Y22000D02*
D03*
Y24500D02*
D03*
Y27000D02*
D03*
Y4500D02*
D03*
X99900Y2987D02*
D03*
X100000Y17000D02*
D03*
X112226Y32000D02*
D03*
X109726D02*
D03*
X107226D02*
D03*
X104726D02*
D03*
X102126D02*
D03*
X149900Y19500D02*
D03*
Y29500D02*
D03*
Y22000D02*
D03*
Y24500D02*
D03*
Y32000D02*
D03*
Y27000D02*
D03*
Y14500D02*
D03*
Y12000D02*
D03*
Y9500D02*
D03*
Y7000D02*
D03*
Y2110D02*
D03*
Y17000D02*
D03*
Y42000D02*
D03*
Y34500D02*
D03*
Y37000D02*
D03*
Y39500D02*
D03*
Y52000D02*
D03*
Y57000D02*
D03*
Y49500D02*
D03*
Y47000D02*
D03*
Y54500D02*
D03*
Y44500D02*
D03*
Y67000D02*
D03*
Y59500D02*
D03*
Y62000D02*
D03*
Y64500D02*
D03*
Y77000D02*
D03*
Y82000D02*
D03*
Y74500D02*
D03*
Y72000D02*
D03*
Y79500D02*
D03*
Y69500D02*
D03*
Y84500D02*
D03*
Y87000D02*
D03*
Y117000D02*
D03*
Y114500D02*
D03*
Y127000D02*
D03*
Y124500D02*
D03*
Y122000D02*
D03*
Y129500D02*
D03*
Y119500D02*
D03*
Y158500D02*
D03*
X126300Y54200D02*
D03*
X121526Y28987D02*
D03*
X108700Y70300D02*
D03*
X141650Y14465D02*
D03*
X143724Y30787D02*
D03*
X132000Y16000D02*
D03*
X120526Y26487D02*
D03*
X124126Y16100D02*
D03*
X122026Y4887D02*
D03*
X124226Y11487D02*
D03*
X124426Y6987D02*
D03*
X119626D02*
D03*
X106035Y65400D02*
D03*
X105900Y60400D02*
D03*
X143724Y35787D02*
D03*
X116400Y70300D02*
D03*
X115800Y56100D02*
D03*
X108500Y55200D02*
D03*
X104000Y55500D02*
D03*
X104300Y69000D02*
D03*
X4000Y11300D02*
D03*
X28500Y77200D02*
D03*
X34500Y75500D02*
D03*
X28200Y83300D02*
D03*
X3937Y72700D02*
D03*
X3839Y62303D02*
D03*
X15700Y107300D02*
D03*
X4000Y149700D02*
D03*
X4200Y160600D02*
D03*
X24200Y185900D02*
D03*
X30200Y196600D02*
D03*
X53300Y180700D02*
D03*
X125100Y102500D02*
D03*
X119000Y185000D02*
D03*
X128937Y36614D02*
D03*
X126870Y34646D02*
D03*
X124246Y28687D02*
D03*
X69894Y10976D02*
D03*
X70035Y12917D02*
D03*
X138600Y151400D02*
D03*
X149900Y112000D02*
D03*
Y109500D02*
D03*
Y94500D02*
D03*
Y104500D02*
D03*
Y97000D02*
D03*
Y99500D02*
D03*
Y107000D02*
D03*
Y102000D02*
D03*
Y89500D02*
D03*
Y92000D02*
D03*
Y134500D02*
D03*
Y132000D02*
D03*
X119100Y102700D02*
D03*
D157*
X37000Y49122D02*
D03*
Y47154D02*
D03*
X124114Y32382D02*
D03*
D158*
X67312Y26283D02*
D03*
X76957Y20758D02*
D03*
X80835Y19517D02*
D03*
X83935Y16417D02*
D03*
X75096Y13015D02*
D03*
X65934Y24905D02*
D03*
X71446Y29039D02*
D03*
X62318Y14000D02*
D03*
X68690Y19394D02*
D03*
X79935Y18317D02*
D03*
X75579Y19394D02*
D03*
X67312Y23528D02*
D03*
X72824Y29039D02*
D03*
X70068D02*
D03*
X76957Y27661D02*
D03*
X74202Y18016D02*
D03*
X76957Y26283D02*
D03*
X63662Y29943D02*
D03*
X67312Y29039D02*
D03*
X76957Y24906D02*
D03*
X82700Y30200D02*
D03*
X76957Y23528D02*
D03*
X70068Y19394D02*
D03*
X67312Y20772D02*
D03*
X68690Y27661D02*
D03*
X56700Y16600D02*
D03*
X67312Y19394D02*
D03*
X68690Y29039D02*
D03*
X74202D02*
D03*
X64700Y22600D02*
D03*
X75579Y29039D02*
D03*
X67312Y22150D02*
D03*
X76957Y29039D02*
D03*
X86300Y31600D02*
D03*
X84100Y38600D02*
D03*
D159*
X146850Y93405D02*
D03*
Y90059D02*
D03*
M02*
