G04*
G04 #@! TF.GenerationSoftware,Altium Limited,Altium Designer,23.1.1 (15)*
G04*
G04 Layer_Color=32896*
%FSLAX25Y25*%
%MOIN*%
G70*
G04*
G04 #@! TF.SameCoordinates,57D325FE-50AA-4423-B3C5-F19BAF70027F*
G04*
G04*
G04 #@! TF.FilePolarity,Positive*
G04*
G01*
G75*
%ADD10C,0.00591*%
%ADD11C,0.00787*%
%ADD12C,0.00600*%
%ADD13C,0.00984*%
%ADD15C,0.01000*%
%ADD16C,0.00492*%
%ADD266C,0.00394*%
%ADD267C,0.01772*%
%ADD268C,0.00827*%
%ADD269C,0.00598*%
%ADD270R,0.01968X0.15748*%
%ADD271R,0.01378X0.00492*%
%ADD272R,0.01378X0.00591*%
%ADD273R,0.00394X0.00591*%
%ADD274R,0.11495X0.02891*%
G36*
X100492Y92618D02*
X99705D01*
Y93701D01*
X93996D01*
Y92618D01*
X93209D01*
Y95965D01*
X100492D01*
Y92618D01*
D02*
G37*
G36*
X23303Y151125D02*
X18919D01*
Y151849D01*
X20780D01*
Y153356D01*
X21524D01*
Y151849D01*
X22559D01*
Y153589D01*
X23303D01*
Y151125D01*
D02*
G37*
G36*
Y148058D02*
X18919D01*
Y148782D01*
X20780D01*
Y150289D01*
X21524D01*
Y148782D01*
X22559D01*
Y150522D01*
X23303D01*
Y148058D01*
D02*
G37*
G36*
X21310Y147480D02*
X21495Y147465D01*
X21670Y147441D01*
X21830Y147407D01*
X21981Y147373D01*
X22117Y147329D01*
X22243Y147285D01*
X22355Y147242D01*
X22452Y147198D01*
X22540Y147154D01*
X22613Y147110D01*
X22676Y147076D01*
X22719Y147042D01*
X22753Y147018D01*
X22778Y147003D01*
X22783Y146999D01*
X22889Y146906D01*
X22977Y146804D01*
X23060Y146702D01*
X23128Y146595D01*
X23181Y146493D01*
X23230Y146386D01*
X23269Y146284D01*
X23303Y146187D01*
X23327Y146095D01*
X23346Y146012D01*
X23356Y145934D01*
X23366Y145866D01*
X23371Y145813D01*
X23376Y145774D01*
Y145740D01*
X23371Y145643D01*
X23366Y145550D01*
X23351Y145458D01*
X23337Y145375D01*
X23317Y145298D01*
X23298Y145220D01*
X23273Y145152D01*
X23249Y145089D01*
X23225Y145030D01*
X23201Y144982D01*
X23181Y144938D01*
X23162Y144904D01*
X23147Y144875D01*
X23133Y144855D01*
X23128Y144841D01*
X23123Y144836D01*
X23074Y144768D01*
X23021Y144705D01*
X22899Y144583D01*
X22778Y144481D01*
X22651Y144394D01*
X22598Y144355D01*
X22545Y144321D01*
X22496Y144297D01*
X22452Y144272D01*
X22418Y144253D01*
X22394Y144238D01*
X22374Y144233D01*
X22369Y144228D01*
X22272Y144190D01*
X22170Y144156D01*
X21956Y144097D01*
X21738Y144058D01*
X21636Y144039D01*
X21538Y144029D01*
X21441Y144019D01*
X21354Y144015D01*
X21281Y144005D01*
X21213D01*
X21159Y144000D01*
X21116D01*
X21091D01*
X21082D01*
X20887Y144005D01*
X20698Y144024D01*
X20523Y144049D01*
X20362Y144078D01*
X20212Y144117D01*
X20071Y144160D01*
X19944Y144209D01*
X19828Y144258D01*
X19726Y144301D01*
X19638Y144350D01*
X19560Y144394D01*
X19497Y144432D01*
X19449Y144462D01*
X19415Y144491D01*
X19395Y144505D01*
X19386Y144510D01*
X19288Y144598D01*
X19206Y144695D01*
X19138Y144792D01*
X19074Y144894D01*
X19021Y144996D01*
X18977Y145098D01*
X18943Y145200D01*
X18914Y145298D01*
X18890Y145390D01*
X18875Y145473D01*
X18861Y145550D01*
X18856Y145614D01*
X18851Y145672D01*
X18846Y145711D01*
Y145745D01*
X18851Y145886D01*
X18870Y146022D01*
X18895Y146143D01*
X18934Y146260D01*
X18972Y146372D01*
X19016Y146474D01*
X19070Y146566D01*
X19118Y146649D01*
X19167Y146722D01*
X19220Y146785D01*
X19264Y146843D01*
X19308Y146887D01*
X19342Y146921D01*
X19366Y146950D01*
X19386Y146965D01*
X19390Y146969D01*
X19512Y147062D01*
X19643Y147140D01*
X19779Y147208D01*
X19920Y147266D01*
X20061Y147319D01*
X20207Y147358D01*
X20348Y147392D01*
X20484Y147421D01*
X20610Y147441D01*
X20732Y147456D01*
X20839Y147470D01*
X20931Y147475D01*
X21004Y147480D01*
X21038Y147485D01*
X21062D01*
X21082D01*
X21096D01*
X21106D01*
X21111D01*
X21310Y147480D01*
D02*
G37*
G36*
X23303Y166945D02*
X20372D01*
X23303Y165472D01*
Y164768D01*
X18919D01*
Y165443D01*
X21777D01*
X18919Y166887D01*
Y167621D01*
X23303D01*
Y166945D01*
D02*
G37*
G36*
X21310Y164180D02*
X21495Y164165D01*
X21670Y164141D01*
X21830Y164107D01*
X21981Y164073D01*
X22117Y164029D01*
X22243Y163985D01*
X22355Y163942D01*
X22452Y163898D01*
X22540Y163854D01*
X22613Y163810D01*
X22676Y163776D01*
X22719Y163742D01*
X22753Y163718D01*
X22778Y163704D01*
X22783Y163699D01*
X22889Y163606D01*
X22977Y163504D01*
X23060Y163402D01*
X23128Y163295D01*
X23181Y163193D01*
X23230Y163086D01*
X23269Y162984D01*
X23303Y162887D01*
X23327Y162795D01*
X23346Y162712D01*
X23356Y162634D01*
X23366Y162566D01*
X23371Y162513D01*
X23376Y162474D01*
Y162440D01*
X23371Y162343D01*
X23366Y162250D01*
X23351Y162158D01*
X23337Y162075D01*
X23317Y161998D01*
X23298Y161920D01*
X23273Y161852D01*
X23249Y161789D01*
X23225Y161730D01*
X23201Y161682D01*
X23181Y161638D01*
X23162Y161604D01*
X23147Y161575D01*
X23133Y161555D01*
X23128Y161541D01*
X23123Y161536D01*
X23074Y161468D01*
X23021Y161405D01*
X22899Y161283D01*
X22778Y161181D01*
X22651Y161094D01*
X22598Y161055D01*
X22545Y161021D01*
X22496Y160996D01*
X22452Y160972D01*
X22418Y160953D01*
X22394Y160938D01*
X22374Y160933D01*
X22369Y160928D01*
X22272Y160889D01*
X22170Y160855D01*
X21956Y160797D01*
X21738Y160758D01*
X21636Y160739D01*
X21538Y160729D01*
X21441Y160719D01*
X21354Y160715D01*
X21281Y160705D01*
X21213D01*
X21159Y160700D01*
X21116D01*
X21091D01*
X21082D01*
X20887Y160705D01*
X20698Y160724D01*
X20523Y160749D01*
X20362Y160778D01*
X20212Y160817D01*
X20071Y160860D01*
X19944Y160909D01*
X19828Y160958D01*
X19726Y161001D01*
X19638Y161050D01*
X19560Y161094D01*
X19497Y161133D01*
X19449Y161162D01*
X19415Y161191D01*
X19395Y161205D01*
X19386Y161210D01*
X19288Y161298D01*
X19206Y161395D01*
X19138Y161492D01*
X19074Y161594D01*
X19021Y161696D01*
X18977Y161798D01*
X18943Y161900D01*
X18914Y161998D01*
X18890Y162090D01*
X18875Y162173D01*
X18861Y162250D01*
X18856Y162313D01*
X18851Y162372D01*
X18846Y162411D01*
Y162445D01*
X18851Y162586D01*
X18870Y162722D01*
X18895Y162843D01*
X18934Y162960D01*
X18972Y163072D01*
X19016Y163174D01*
X19070Y163266D01*
X19118Y163349D01*
X19167Y163422D01*
X19220Y163485D01*
X19264Y163543D01*
X19308Y163587D01*
X19342Y163621D01*
X19366Y163650D01*
X19386Y163665D01*
X19390Y163670D01*
X19512Y163762D01*
X19643Y163840D01*
X19779Y163908D01*
X19920Y163966D01*
X20061Y164019D01*
X20207Y164058D01*
X20348Y164092D01*
X20484Y164121D01*
X20610Y164141D01*
X20732Y164155D01*
X20839Y164170D01*
X20931Y164175D01*
X21004Y164180D01*
X21038Y164185D01*
X21062D01*
X21082D01*
X21096D01*
X21106D01*
X21111D01*
X21310Y164180D01*
D02*
G37*
G36*
X10119Y174700D02*
X9359D01*
X8854Y177025D01*
X8343Y174700D01*
X7583D01*
X6628Y178324D01*
X7405D01*
X7977Y175949D01*
X8471Y178324D01*
X9225D01*
X9742Y175949D01*
X10302Y178324D01*
X11062D01*
X10119Y174700D01*
D02*
G37*
G36*
X5191Y178402D02*
X5291Y178385D01*
X5385Y178363D01*
X5474Y178335D01*
X5557Y178302D01*
X5635Y178258D01*
X5701Y178219D01*
X5768Y178174D01*
X5823Y178130D01*
X5879Y178091D01*
X5923Y178052D01*
X5957Y178013D01*
X5984Y177986D01*
X6007Y177963D01*
X6018Y177947D01*
X6023Y177941D01*
X6095Y177836D01*
X6162Y177725D01*
X6217Y177603D01*
X6267Y177486D01*
X6306Y177364D01*
X6340Y177242D01*
X6367Y177125D01*
X6389Y177009D01*
X6412Y176903D01*
X6423Y176803D01*
X6434Y176715D01*
X6439Y176637D01*
Y176576D01*
X6445Y176526D01*
Y176498D01*
Y176487D01*
X6439Y176321D01*
X6428Y176160D01*
X6406Y176015D01*
X6378Y175877D01*
X6345Y175749D01*
X6312Y175627D01*
X6273Y175521D01*
X6234Y175427D01*
X6195Y175338D01*
X6156Y175266D01*
X6123Y175199D01*
X6090Y175150D01*
X6062Y175111D01*
X6040Y175077D01*
X6029Y175061D01*
X6023Y175055D01*
X5951Y174978D01*
X5879Y174911D01*
X5796Y174850D01*
X5712Y174800D01*
X5629Y174761D01*
X5546Y174722D01*
X5463Y174695D01*
X5379Y174672D01*
X5307Y174656D01*
X5235Y174639D01*
X5174Y174628D01*
X5118Y174622D01*
X5068D01*
X5035Y174617D01*
X5007D01*
X4919Y174622D01*
X4835Y174628D01*
X4680Y174656D01*
X4541Y174700D01*
X4480Y174722D01*
X4425Y174750D01*
X4375Y174772D01*
X4330Y174794D01*
X4292Y174817D01*
X4264Y174839D01*
X4236Y174855D01*
X4219Y174866D01*
X4208Y174878D01*
X4203D01*
X4142Y174933D01*
X4086Y174989D01*
X3986Y175116D01*
X3897Y175255D01*
X3831Y175388D01*
X3803Y175449D01*
X3775Y175505D01*
X3759Y175560D01*
X3737Y175605D01*
X3725Y175644D01*
X3714Y175671D01*
X3709Y175688D01*
Y175694D01*
X4491Y175854D01*
X4519Y175760D01*
X4552Y175682D01*
X4586Y175610D01*
X4625Y175555D01*
X4663Y175505D01*
X4708Y175460D01*
X4752Y175427D01*
X4797Y175399D01*
X4835Y175377D01*
X4874Y175360D01*
X4941Y175344D01*
X4963Y175338D01*
X4985Y175333D01*
X5002D01*
X5096Y175344D01*
X5179Y175372D01*
X5257Y175405D01*
X5324Y175449D01*
X5379Y175494D01*
X5418Y175527D01*
X5440Y175555D01*
X5451Y175566D01*
X5513Y175666D01*
X5557Y175771D01*
X5590Y175882D01*
X5612Y175993D01*
X5629Y176087D01*
X5635Y176132D01*
Y176165D01*
X5640Y176198D01*
Y176221D01*
Y176232D01*
Y176237D01*
X3670D01*
Y176343D01*
X3675Y176537D01*
X3686Y176715D01*
X3709Y176881D01*
X3737Y177037D01*
X3764Y177181D01*
X3803Y177308D01*
X3836Y177431D01*
X3875Y177536D01*
X3914Y177630D01*
X3953Y177708D01*
X3992Y177780D01*
X4020Y177836D01*
X4047Y177880D01*
X4070Y177908D01*
X4081Y177930D01*
X4086Y177936D01*
X4158Y178019D01*
X4230Y178091D01*
X4314Y178152D01*
X4397Y178208D01*
X4480Y178252D01*
X4558Y178291D01*
X4641Y178324D01*
X4719Y178346D01*
X4797Y178369D01*
X4863Y178385D01*
X4924Y178391D01*
X4980Y178402D01*
X5024D01*
X5057Y178407D01*
X5085D01*
X5191Y178402D01*
D02*
G37*
G36*
X18000Y174700D02*
X17173D01*
Y176587D01*
X16496D01*
X16374Y176593D01*
X16257Y176598D01*
X16152Y176609D01*
X16052Y176620D01*
X15969Y176631D01*
X15891Y176648D01*
X15819Y176659D01*
X15763Y176670D01*
X15713Y176687D01*
X15669Y176698D01*
X15636Y176709D01*
X15608Y176720D01*
X15591Y176726D01*
X15580Y176731D01*
X15575D01*
X15464Y176798D01*
X15364Y176876D01*
X15275Y176959D01*
X15197Y177048D01*
X15142Y177125D01*
X15097Y177186D01*
X15081Y177214D01*
X15070Y177231D01*
X15058Y177242D01*
Y177248D01*
X14992Y177392D01*
X14942Y177547D01*
X14903Y177697D01*
X14881Y177841D01*
X14870Y177908D01*
X14864Y177969D01*
X14859Y178019D01*
Y178069D01*
X14853Y178108D01*
Y178135D01*
Y178152D01*
Y178158D01*
Y178269D01*
X14864Y178374D01*
X14875Y178469D01*
X14892Y178563D01*
X14909Y178652D01*
X14931Y178729D01*
X14947Y178801D01*
X14970Y178874D01*
X14992Y178929D01*
X15014Y178985D01*
X15036Y179029D01*
X15053Y179068D01*
X15070Y179096D01*
X15081Y179118D01*
X15086Y179129D01*
X15092Y179134D01*
X15136Y179201D01*
X15186Y179268D01*
X15236Y179323D01*
X15286Y179373D01*
X15386Y179462D01*
X15486Y179528D01*
X15569Y179578D01*
X15602Y179595D01*
X15636Y179612D01*
X15664Y179623D01*
X15680Y179628D01*
X15691Y179634D01*
X15697D01*
X15747Y179645D01*
X15802Y179656D01*
X15869Y179667D01*
X15947Y179678D01*
X16102Y179690D01*
X16268Y179695D01*
X16346Y179701D01*
X16418D01*
X16490Y179706D01*
X18000D01*
Y174700D01*
D02*
G37*
G36*
X1722Y178402D02*
X1783Y178391D01*
X1844Y178369D01*
X1894Y178346D01*
X1938Y178324D01*
X1966Y178302D01*
X1988Y178291D01*
X1994Y178285D01*
X2021Y178263D01*
X2049Y178230D01*
X2110Y178163D01*
X2166Y178085D01*
X2216Y178002D01*
X2260Y177930D01*
X2293Y177869D01*
X2310Y177841D01*
X2316Y177825D01*
X2327Y177814D01*
Y178324D01*
X3059D01*
Y174700D01*
X2271D01*
Y175816D01*
Y175971D01*
Y176110D01*
X2266Y176237D01*
Y176354D01*
X2260Y176465D01*
X2255Y176559D01*
X2249Y176643D01*
X2244Y176715D01*
Y176781D01*
X2238Y176837D01*
X2232Y176881D01*
X2227Y176920D01*
Y176948D01*
X2221Y176964D01*
Y176976D01*
Y176981D01*
X2199Y177092D01*
X2171Y177186D01*
X2138Y177264D01*
X2110Y177325D01*
X2083Y177370D01*
X2060Y177403D01*
X2044Y177419D01*
X2038Y177425D01*
X1988Y177464D01*
X1938Y177497D01*
X1888Y177519D01*
X1844Y177531D01*
X1805Y177542D01*
X1777Y177547D01*
X1750D01*
X1683Y177542D01*
X1616Y177525D01*
X1555Y177497D01*
X1494Y177470D01*
X1450Y177436D01*
X1411Y177414D01*
X1389Y177392D01*
X1378Y177386D01*
X1128Y178224D01*
X1222Y178285D01*
X1317Y178330D01*
X1400Y178363D01*
X1483Y178385D01*
X1550Y178396D01*
X1605Y178407D01*
X1650D01*
X1722Y178402D01*
D02*
G37*
G36*
X12994Y178396D02*
X13138Y178374D01*
X13271Y178335D01*
X13382Y178296D01*
X13432Y178274D01*
X13477Y178258D01*
X13516Y178235D01*
X13549Y178219D01*
X13577Y178208D01*
X13593Y178197D01*
X13604Y178185D01*
X13610D01*
X13732Y178097D01*
X13837Y177991D01*
X13932Y177886D01*
X14009Y177775D01*
X14076Y177680D01*
X14098Y177641D01*
X14121Y177603D01*
X14137Y177575D01*
X14148Y177553D01*
X14159Y177536D01*
Y177531D01*
X14232Y177364D01*
X14281Y177192D01*
X14320Y177031D01*
X14343Y176881D01*
X14354Y176815D01*
X14359Y176753D01*
X14365Y176698D01*
Y176648D01*
X14370Y176609D01*
Y176581D01*
Y176565D01*
Y176559D01*
X14365Y176387D01*
X14354Y176232D01*
X14332Y176082D01*
X14304Y175943D01*
X14270Y175816D01*
X14232Y175694D01*
X14193Y175588D01*
X14154Y175494D01*
X14115Y175405D01*
X14076Y175333D01*
X14037Y175266D01*
X14004Y175216D01*
X13976Y175177D01*
X13954Y175144D01*
X13943Y175127D01*
X13937Y175122D01*
X13854Y175033D01*
X13765Y174955D01*
X13671Y174889D01*
X13582Y174828D01*
X13488Y174783D01*
X13399Y174739D01*
X13310Y174706D01*
X13221Y174678D01*
X13144Y174661D01*
X13072Y174644D01*
X13005Y174633D01*
X12949Y174622D01*
X12900D01*
X12866Y174617D01*
X12839D01*
X12689Y174628D01*
X12544Y174650D01*
X12417Y174689D01*
X12300Y174728D01*
X12250Y174750D01*
X12211Y174767D01*
X12173Y174789D01*
X12139Y174805D01*
X12111Y174817D01*
X12095Y174828D01*
X12084Y174839D01*
X12078D01*
X11956Y174933D01*
X11845Y175039D01*
X11745Y175155D01*
X11667Y175260D01*
X11601Y175360D01*
X11579Y175405D01*
X11556Y175444D01*
X11540Y175471D01*
X11529Y175494D01*
X11518Y175510D01*
Y175516D01*
X11445Y175688D01*
X11390Y175865D01*
X11351Y176038D01*
X11329Y176193D01*
X11318Y176265D01*
X11312Y176332D01*
X11307Y176387D01*
Y176437D01*
X11301Y176476D01*
Y176509D01*
Y176526D01*
Y176532D01*
X11307Y176670D01*
X11318Y176803D01*
X11340Y176931D01*
X11368Y177053D01*
X11395Y177170D01*
X11429Y177275D01*
X11468Y177375D01*
X11507Y177470D01*
X11545Y177553D01*
X11584Y177625D01*
X11618Y177686D01*
X11645Y177741D01*
X11673Y177786D01*
X11695Y177814D01*
X11706Y177836D01*
X11712Y177841D01*
X11789Y177941D01*
X11878Y178030D01*
X11967Y178102D01*
X12061Y178169D01*
X12156Y178224D01*
X12250Y178269D01*
X12339Y178307D01*
X12428Y178335D01*
X12511Y178357D01*
X12589Y178380D01*
X12661Y178391D01*
X12722Y178396D01*
X12772Y178402D01*
X12805Y178407D01*
X12839D01*
X12994Y178396D01*
D02*
G37*
%LPC*%
G36*
X21198Y146736D02*
X21159D01*
X21135D01*
X21125D01*
X20984Y146731D01*
X20853Y146727D01*
X20732Y146712D01*
X20620Y146692D01*
X20518Y146673D01*
X20421Y146649D01*
X20338Y146619D01*
X20260Y146595D01*
X20197Y146571D01*
X20139Y146542D01*
X20090Y146518D01*
X20051Y146498D01*
X20017Y146479D01*
X19998Y146469D01*
X19983Y146459D01*
X19978Y146454D01*
X19910Y146401D01*
X19857Y146343D01*
X19803Y146284D01*
X19764Y146226D01*
X19726Y146163D01*
X19696Y146104D01*
X19672Y146051D01*
X19653Y145993D01*
X19633Y145944D01*
X19624Y145895D01*
X19614Y145852D01*
X19609Y145818D01*
Y145789D01*
X19604Y145764D01*
Y145745D01*
X19609Y145667D01*
X19619Y145594D01*
X19638Y145521D01*
X19662Y145458D01*
X19721Y145336D01*
X19755Y145283D01*
X19794Y145230D01*
X19828Y145186D01*
X19862Y145147D01*
X19891Y145113D01*
X19920Y145089D01*
X19944Y145064D01*
X19964Y145050D01*
X19974Y145040D01*
X19978Y145035D01*
X20056Y144987D01*
X20134Y144943D01*
X20221Y144904D01*
X20314Y144870D01*
X20411Y144841D01*
X20503Y144817D01*
X20688Y144782D01*
X20771Y144773D01*
X20853Y144763D01*
X20926Y144758D01*
X20989Y144753D01*
X21038Y144748D01*
X21077D01*
X21101D01*
X21111D01*
X21252Y144753D01*
X21378Y144758D01*
X21500Y144773D01*
X21611Y144792D01*
X21713Y144812D01*
X21811Y144836D01*
X21893Y144860D01*
X21966Y144889D01*
X22034Y144914D01*
X22093Y144938D01*
X22141Y144962D01*
X22180Y144982D01*
X22209Y145001D01*
X22229Y145016D01*
X22243Y145021D01*
X22248Y145026D01*
X22311Y145079D01*
X22369Y145137D01*
X22418Y145196D01*
X22462Y145254D01*
X22496Y145317D01*
X22525Y145375D01*
X22554Y145434D01*
X22574Y145487D01*
X22588Y145541D01*
X22598Y145589D01*
X22608Y145633D01*
X22613Y145672D01*
X22617Y145701D01*
Y145745D01*
X22613Y145827D01*
X22603Y145900D01*
X22583Y145973D01*
X22559Y146041D01*
X22535Y146104D01*
X22501Y146168D01*
X22472Y146221D01*
X22437Y146270D01*
X22403Y146313D01*
X22369Y146352D01*
X22335Y146381D01*
X22311Y146411D01*
X22287Y146430D01*
X22267Y146445D01*
X22258Y146454D01*
X22253Y146459D01*
X22180Y146508D01*
X22102Y146552D01*
X22015Y146586D01*
X21922Y146619D01*
X21830Y146649D01*
X21738Y146668D01*
X21553Y146702D01*
X21465Y146712D01*
X21388Y146722D01*
X21315Y146727D01*
X21252Y146731D01*
X21198Y146736D01*
D02*
G37*
G36*
Y163436D02*
X21159D01*
X21135D01*
X21125D01*
X20984Y163431D01*
X20853Y163426D01*
X20732Y163412D01*
X20620Y163392D01*
X20518Y163373D01*
X20421Y163349D01*
X20338Y163320D01*
X20260Y163295D01*
X20197Y163271D01*
X20139Y163242D01*
X20090Y163217D01*
X20051Y163198D01*
X20017Y163179D01*
X19998Y163169D01*
X19983Y163159D01*
X19978Y163154D01*
X19910Y163101D01*
X19857Y163042D01*
X19803Y162984D01*
X19764Y162926D01*
X19726Y162863D01*
X19696Y162804D01*
X19672Y162751D01*
X19653Y162693D01*
X19633Y162644D01*
X19624Y162595D01*
X19614Y162552D01*
X19609Y162518D01*
Y162488D01*
X19604Y162464D01*
Y162445D01*
X19609Y162367D01*
X19619Y162294D01*
X19638Y162221D01*
X19662Y162158D01*
X19721Y162037D01*
X19755Y161983D01*
X19794Y161930D01*
X19828Y161886D01*
X19862Y161847D01*
X19891Y161813D01*
X19920Y161789D01*
X19944Y161764D01*
X19964Y161750D01*
X19974Y161740D01*
X19978Y161735D01*
X20056Y161687D01*
X20134Y161643D01*
X20221Y161604D01*
X20314Y161570D01*
X20411Y161541D01*
X20503Y161516D01*
X20688Y161483D01*
X20771Y161473D01*
X20853Y161463D01*
X20926Y161458D01*
X20989Y161453D01*
X21038Y161448D01*
X21077D01*
X21101D01*
X21111D01*
X21252Y161453D01*
X21378Y161458D01*
X21500Y161473D01*
X21611Y161492D01*
X21713Y161512D01*
X21811Y161536D01*
X21893Y161560D01*
X21966Y161589D01*
X22034Y161614D01*
X22093Y161638D01*
X22141Y161662D01*
X22180Y161682D01*
X22209Y161701D01*
X22229Y161716D01*
X22243Y161721D01*
X22248Y161725D01*
X22311Y161779D01*
X22369Y161837D01*
X22418Y161896D01*
X22462Y161954D01*
X22496Y162017D01*
X22525Y162075D01*
X22554Y162134D01*
X22574Y162187D01*
X22588Y162241D01*
X22598Y162289D01*
X22608Y162333D01*
X22613Y162372D01*
X22617Y162401D01*
Y162445D01*
X22613Y162527D01*
X22603Y162600D01*
X22583Y162673D01*
X22559Y162741D01*
X22535Y162804D01*
X22501Y162868D01*
X22472Y162921D01*
X22437Y162970D01*
X22403Y163013D01*
X22369Y163052D01*
X22335Y163081D01*
X22311Y163111D01*
X22287Y163130D01*
X22267Y163145D01*
X22258Y163154D01*
X22253Y163159D01*
X22180Y163208D01*
X22102Y163251D01*
X22015Y163286D01*
X21922Y163320D01*
X21830Y163349D01*
X21738Y163368D01*
X21553Y163402D01*
X21465Y163412D01*
X21388Y163422D01*
X21315Y163426D01*
X21252Y163431D01*
X21198Y163436D01*
D02*
G37*
G36*
X5046Y177675D02*
X5035D01*
X4952Y177664D01*
X4874Y177641D01*
X4802Y177608D01*
X4747Y177569D01*
X4697Y177525D01*
X4658Y177492D01*
X4636Y177470D01*
X4630Y177458D01*
X4575Y177370D01*
X4530Y177270D01*
X4497Y177164D01*
X4475Y177064D01*
X4458Y176970D01*
X4453Y176931D01*
Y176898D01*
X4447Y176865D01*
Y176842D01*
Y176831D01*
Y176826D01*
X5629D01*
X5624Y176970D01*
X5607Y177092D01*
X5579Y177198D01*
X5546Y177292D01*
X5513Y177358D01*
X5485Y177414D01*
X5463Y177442D01*
X5457Y177453D01*
X5390Y177525D01*
X5318Y177580D01*
X5246Y177619D01*
X5179Y177647D01*
X5124Y177664D01*
X5074Y177669D01*
X5046Y177675D01*
D02*
G37*
G36*
X17173Y178857D02*
X16596D01*
X16518Y178851D01*
X16446Y178846D01*
X16385Y178840D01*
X16329D01*
X16280Y178835D01*
X16235Y178829D01*
X16202Y178824D01*
X16169Y178818D01*
X16124Y178807D01*
X16096Y178801D01*
X16091Y178796D01*
X16035Y178768D01*
X15980Y178735D01*
X15935Y178701D01*
X15897Y178663D01*
X15863Y178624D01*
X15841Y178596D01*
X15824Y178574D01*
X15819Y178568D01*
X15780Y178502D01*
X15752Y178430D01*
X15736Y178357D01*
X15719Y178291D01*
X15713Y178235D01*
X15708Y178191D01*
Y178158D01*
Y178152D01*
Y178147D01*
X15713Y178058D01*
X15724Y177980D01*
X15741Y177908D01*
X15763Y177847D01*
X15786Y177797D01*
X15802Y177764D01*
X15813Y177736D01*
X15819Y177730D01*
X15863Y177675D01*
X15908Y177625D01*
X15952Y177586D01*
X15996Y177553D01*
X16030Y177525D01*
X16063Y177508D01*
X16085Y177503D01*
X16091Y177497D01*
X16124Y177486D01*
X16163Y177475D01*
X16257Y177464D01*
X16363Y177453D01*
X16468Y177442D01*
X16563D01*
X16607Y177436D01*
X17173D01*
Y178857D01*
D02*
G37*
G36*
X12872Y177625D02*
X12844D01*
X12788Y177619D01*
X12733Y177614D01*
X12633Y177580D01*
X12544Y177536D01*
X12467Y177480D01*
X12406Y177425D01*
X12361Y177381D01*
X12333Y177347D01*
X12322Y177342D01*
Y177336D01*
X12284Y177281D01*
X12250Y177220D01*
X12195Y177086D01*
X12156Y176953D01*
X12134Y176820D01*
X12122Y176759D01*
X12117Y176698D01*
X12111Y176648D01*
Y176604D01*
X12106Y176565D01*
Y176537D01*
Y176520D01*
Y176515D01*
Y176415D01*
X12117Y176321D01*
X12128Y176232D01*
X12139Y176154D01*
X12156Y176076D01*
X12173Y176010D01*
X12195Y175949D01*
X12211Y175893D01*
X12234Y175843D01*
X12256Y175799D01*
X12272Y175766D01*
X12289Y175738D01*
X12300Y175710D01*
X12311Y175694D01*
X12322Y175688D01*
Y175682D01*
X12361Y175632D01*
X12406Y175588D01*
X12450Y175549D01*
X12489Y175521D01*
X12578Y175466D01*
X12655Y175433D01*
X12728Y175416D01*
X12783Y175405D01*
X12805Y175399D01*
X12833D01*
X12889Y175405D01*
X12944Y175410D01*
X13044Y175444D01*
X13133Y175488D01*
X13210Y175538D01*
X13271Y175588D01*
X13316Y175632D01*
X13343Y175666D01*
X13355Y175671D01*
Y175677D01*
X13394Y175732D01*
X13427Y175793D01*
X13477Y175926D01*
X13516Y176065D01*
X13538Y176198D01*
X13549Y176260D01*
X13554Y176321D01*
X13560Y176376D01*
Y176420D01*
X13566Y176459D01*
Y176487D01*
Y176504D01*
Y176509D01*
Y176609D01*
X13554Y176704D01*
X13543Y176787D01*
X13532Y176870D01*
X13516Y176942D01*
X13499Y177009D01*
X13482Y177070D01*
X13460Y177125D01*
X13438Y177175D01*
X13421Y177220D01*
X13405Y177253D01*
X13388Y177286D01*
X13371Y177308D01*
X13366Y177325D01*
X13355Y177331D01*
Y177336D01*
X13316Y177386D01*
X13271Y177431D01*
X13227Y177470D01*
X13183Y177503D01*
X13099Y177553D01*
X13016Y177592D01*
X12949Y177608D01*
X12894Y177619D01*
X12872Y177625D01*
D02*
G37*
%LPD*%
D10*
X117735Y42593D02*
G03*
X117735Y42593I-2677J0D01*
G01*
Y54404D02*
G03*
X117735Y54404I-2677J0D01*
G01*
Y48499D02*
G03*
X117735Y48499I-2677J0D01*
G01*
X92421Y120079D02*
G03*
X92421Y120079I-295J0D01*
G01*
X88386Y127165D02*
G03*
X88386Y127165I-1378J0D01*
G01*
X144567Y47170D02*
G03*
X144567Y47170I-197J0D01*
G01*
X53228Y77264D02*
G03*
X53228Y77264I-2047J0D01*
G01*
X61102D02*
G03*
X61102Y77264I-2047J0D01*
G01*
X31299Y169291D02*
G03*
X31299Y169291I-3740J0D01*
G01*
Y161417D02*
G03*
X31299Y161417I-3740J0D01*
G01*
X6177Y130000D02*
G03*
X6177Y130000I-2677J0D01*
G01*
X41977Y71400D02*
G03*
X41977Y71400I-2677J0D01*
G01*
X13677Y130000D02*
G03*
X13677Y130000I-2677J0D01*
G01*
X54843Y14370D02*
G03*
X54843Y14370I-2677J0D01*
G01*
Y22244D02*
G03*
X54843Y22244I-2677J0D01*
G01*
X21177Y130000D02*
G03*
X21177Y130000I-2677J0D01*
G01*
X108878Y135000D02*
G03*
X108878Y135000I-2677J0D01*
G01*
X54646Y83071D02*
G03*
X54646Y83071I-2677J0D01*
G01*
X60551Y83071D02*
G03*
X60551Y83071I-2677J0D01*
G01*
X66457Y83071D02*
G03*
X66457Y83071I-2677J0D01*
G01*
X143898Y104331D02*
X149803D01*
X143898Y110630D02*
X149803D01*
X54370Y54626D02*
X56831D01*
X52697Y53347D02*
X54370D01*
X54370Y54626D02*
X54370Y53347D01*
X40591D02*
X40591Y54626D01*
X40591Y53347D02*
X42264D01*
X38130Y54626D02*
X40591D01*
X38130Y51378D02*
Y54626D01*
X56831Y51378D02*
Y54626D01*
X38721Y38878D02*
X56339D01*
X138891Y147910D02*
Y148698D01*
X135742D02*
X138891D01*
X125309D02*
X128458D01*
X125309Y147910D02*
Y148698D01*
Y135902D02*
Y136690D01*
Y135902D02*
X128458D01*
X138891D02*
Y136690D01*
X135742Y135902D02*
X138891D01*
X83169Y118602D02*
Y131004D01*
X95571D01*
Y118602D02*
Y131004D01*
X83169Y118602D02*
X95571D01*
X32677Y171980D02*
X42520D01*
X49925Y174835D02*
Y189402D01*
X32677Y192256D02*
X42520D01*
X32677Y171980D02*
Y176213D01*
Y188023D02*
Y192256D01*
X132760Y10754D02*
Y19022D01*
X124493Y10753D02*
Y19022D01*
X132760D01*
X124493Y10754D02*
X132760D01*
X112442Y147402D02*
X115591D01*
Y148190D01*
X102009Y147402D02*
X105158D01*
X102009D02*
Y148190D01*
Y159410D02*
Y160198D01*
X105158D01*
X112442D02*
X115591D01*
Y159410D02*
Y160198D01*
X100492Y92618D02*
Y104232D01*
X93209Y92618D02*
Y104232D01*
Y92618D02*
X93701D01*
X100000D02*
X100492D01*
X100000Y104232D02*
X100492D01*
X93209D02*
X93701D01*
X90175Y80862D02*
Y83618D01*
X91356Y87949D02*
X96474D01*
X91356Y76531D02*
X96474D01*
Y84405D02*
Y87949D01*
Y76531D02*
Y80075D01*
X133858Y81102D02*
Y96063D01*
X111024Y104331D02*
X125984D01*
X102756Y81102D02*
Y96063D01*
X111024Y73228D02*
X125984D01*
X98661Y194206D02*
X99744D01*
X117854Y194206D02*
X118937D01*
X98661Y169994D02*
X99744D01*
X117854D02*
X118937D01*
X98661Y191037D02*
Y194206D01*
Y169994D02*
Y173163D01*
X118937Y191037D02*
Y194206D01*
X118937Y169994D02*
Y173163D01*
X152067Y103051D02*
X150493D01*
X151280Y103838D02*
Y102264D01*
D11*
X86213Y160376D02*
G03*
X86213Y160376I-197J0D01*
G01*
X53979Y157032D02*
G03*
X53979Y157032I-197J0D01*
G01*
X123803Y9770D02*
G03*
X123803Y9770I-295J0D01*
G01*
X58888Y45163D02*
X60660D01*
X58888Y53037D02*
X60660Y53037D01*
X68140D02*
X69912Y53037D01*
X68140Y45163D02*
X69912D01*
Y45655D01*
X58888Y45163D02*
Y45655D01*
Y52545D02*
Y53037D01*
X69912Y52545D02*
Y53037D01*
X26906Y93219D02*
X27694D01*
X26906Y95581D02*
X27694D01*
X142520Y96260D02*
X151181D01*
X142520Y87205D02*
X151181D01*
X36119Y141481D02*
X36906D01*
X36119Y143843D02*
X36906D01*
X36119Y148343D02*
X36906D01*
X36119Y145981D02*
X36906D01*
X36119Y150481D02*
X36906D01*
X36119Y152843D02*
X36906D01*
X60928Y142739D02*
X61715D01*
X60928Y140377D02*
X61715D01*
X50019Y158681D02*
X50806D01*
X50019Y161043D02*
X50806D01*
X58894Y156569D02*
Y157356D01*
X56532Y156569D02*
Y157356D01*
X65106Y104681D02*
X65894D01*
X65106Y102319D02*
X65894D01*
X22357Y83105D02*
Y83302D01*
X29443Y83105D02*
Y83302D01*
X22357Y71098D02*
Y71294D01*
X29443Y71098D02*
Y71294D01*
X22357Y71098D02*
X29443D01*
X22357Y83302D02*
X29443D01*
X91012Y152345D02*
Y152837D01*
X79988Y152345D02*
Y152837D01*
Y144963D02*
Y145455D01*
X91012Y144963D02*
Y145455D01*
X89240Y144963D02*
X91012D01*
X89240Y152837D02*
X91012Y152837D01*
X79988D02*
X81760Y152837D01*
X79988Y144963D02*
X81760D01*
D12*
X31926Y92432D02*
Y96369D01*
X22674Y92432D02*
Y96369D01*
Y92432D02*
X26316D01*
X28284D02*
X31926D01*
X22674Y96369D02*
X26316D01*
X28284D02*
X31926D01*
X42522Y142720D02*
X45081D01*
X47050D02*
X49609D01*
X42522Y145476D02*
X45081D01*
X47050D02*
X49609D01*
Y142720D02*
Y145476D01*
X42522Y142720D02*
Y145476D01*
X136945Y169524D02*
Y172476D01*
X130055Y169524D02*
Y172476D01*
Y169524D02*
X132516D01*
X134484D02*
X136945D01*
X130055Y172476D02*
X132516D01*
X134484D02*
X136945D01*
Y180024D02*
Y182976D01*
X130055Y180024D02*
Y182976D01*
Y180024D02*
X132516D01*
X134484D02*
X136945D01*
X130055Y182976D02*
X132516D01*
X134484D02*
X136945D01*
X17224Y84842D02*
Y86713D01*
Y112500D02*
Y114370D01*
X-2165Y84842D02*
Y114370D01*
X136945Y173024D02*
Y175976D01*
X130055Y173024D02*
Y175976D01*
Y173024D02*
X132516D01*
X134484D02*
X136945D01*
X130055Y175976D02*
X132516D01*
X134484D02*
X136945D01*
X16634Y138268D02*
Y173701D01*
X2854D02*
X16634D01*
X2854Y138268D02*
Y173701D01*
Y138268D02*
X16634D01*
X-5217Y160709D02*
Y161890D01*
X1476Y156968D02*
X2854D01*
X-728D02*
X453D01*
X-5217Y158307D02*
Y159291D01*
X-728Y162874D02*
X453D01*
X1476D02*
X2854D01*
X-2933D02*
X-1752D01*
X-2933Y156968D02*
X-1752D01*
X-5217Y160669D02*
Y161653D01*
Y156968D02*
X-4035D01*
X-5217Y162874D02*
X-4035D01*
X-5217Y155000D02*
X2854D01*
X-5217Y149094D02*
Y155000D01*
Y149094D02*
X2854D01*
X136945Y183524D02*
Y186476D01*
X130055Y183524D02*
Y186476D01*
Y183524D02*
X132516D01*
X134484D02*
X136945D01*
X130055Y186476D02*
X132516D01*
X134484D02*
X136945D01*
Y166024D02*
Y168976D01*
X130055Y166024D02*
Y168976D01*
Y166024D02*
X132516D01*
X134484D02*
X136945D01*
X130055Y168976D02*
X132516D01*
X134484D02*
X136945D01*
X134484Y179476D02*
X136945D01*
X130055D02*
X132516D01*
X134484Y176524D02*
X136945D01*
X130055D02*
X132516D01*
X130055D02*
Y179476D01*
X136945Y176524D02*
Y179476D01*
X149803Y104331D02*
Y110630D01*
X143898Y104331D02*
Y110630D01*
X41139Y140694D02*
Y144631D01*
X31887Y140694D02*
Y144631D01*
Y140694D02*
X35528D01*
X37497D02*
X41139D01*
X31887Y144631D02*
X35528D01*
X37497D02*
X41139D01*
X37497Y149131D02*
X41139D01*
X31887D02*
X35528D01*
X37497Y145194D02*
X41139D01*
X31887D02*
X35528D01*
X31887D02*
Y149131D01*
X41139Y145194D02*
Y149131D01*
Y149694D02*
Y153631D01*
X31887Y149694D02*
Y153631D01*
Y149694D02*
X35528D01*
X37497D02*
X41139D01*
X31887Y153631D02*
X35528D01*
X37497D02*
X41139D01*
X62305Y143526D02*
X65947D01*
X56695D02*
X60337D01*
X62305Y139589D02*
X65947D01*
X56695D02*
X60337D01*
X56695D02*
Y143526D01*
X65947Y139589D02*
Y143526D01*
X49609Y140770D02*
Y143526D01*
X56696Y140770D02*
Y143526D01*
X54137D02*
X56696D01*
X49609D02*
X52168D01*
X54137Y140770D02*
X56696D01*
X49609D02*
X52168D01*
X45787Y157894D02*
X49428D01*
X51397D02*
X55039D01*
X45787Y161831D02*
X49428D01*
X51397D02*
X55039D01*
Y157894D02*
Y161831D01*
X45787Y157894D02*
Y161831D01*
X59681Y152336D02*
Y155978D01*
Y157947D02*
Y161588D01*
X55744Y152336D02*
Y155978D01*
Y157947D02*
Y161588D01*
X59681D01*
X55744Y152336D02*
X59681D01*
X66484Y105468D02*
X70126D01*
X60874D02*
X64516D01*
X66484Y101532D02*
X70126D01*
X60874D02*
X64516D01*
X60874D02*
Y105468D01*
X70126Y101532D02*
Y105468D01*
X64784Y155276D02*
X67245D01*
X60355D02*
X62816D01*
X64784Y152324D02*
X67245D01*
X60355D02*
X62816D01*
X60355D02*
Y155276D01*
X67245Y152324D02*
Y155276D01*
X54876Y132055D02*
Y134516D01*
Y136484D02*
Y138945D01*
X51924Y132055D02*
Y134516D01*
Y136484D02*
Y138945D01*
X54876D01*
X51924Y132055D02*
X54876D01*
X30624Y140045D02*
X33576D01*
X30624Y133155D02*
X33576D01*
Y135616D01*
Y137584D02*
Y140045D01*
X30624Y133155D02*
Y135616D01*
Y137584D02*
Y140045D01*
X67121Y79720D02*
X70674D01*
X67121D02*
Y83272D01*
X70674D01*
Y79720D02*
Y83272D01*
X40500Y136400D02*
X42400Y138300D01*
X44500D01*
X40800Y134200D02*
X42600Y136000D01*
X44400D01*
X40600Y139000D02*
X41600Y140000D01*
X41900D01*
X55100Y139900D02*
X56450Y138550D01*
X18661Y28740D02*
Y30073D01*
Y29407D01*
X22660D01*
X21994Y28740D01*
D13*
X68701Y43588D02*
G03*
X68701Y43588I-197J0D01*
G01*
X141240Y85630D02*
G03*
X141240Y85630I-492J0D01*
G01*
X128646Y187228D02*
G03*
X128646Y187228I-197J0D01*
G01*
Y154477D02*
G03*
X128646Y154477I-197J0D01*
G01*
X141943Y148402D02*
G03*
X141943Y148402I-492J0D01*
G01*
X96555Y117815D02*
G03*
X96555Y117815I-197J0D01*
G01*
X59407Y96823D02*
G03*
X59407Y96823I-197J0D01*
G01*
X118642Y159902D02*
G03*
X118642Y159902I-492J0D01*
G01*
X88994Y74957D02*
G03*
X88994Y74957I-394J0D01*
G01*
X132874Y116634D02*
G03*
X132874Y116634I-197J0D01*
G01*
X116929D02*
G03*
X116929Y116634I-197J0D01*
G01*
X98858Y195879D02*
G03*
X98858Y195879I-394J0D01*
G01*
X90815Y143388D02*
G03*
X90815Y143388I-197J0D01*
G01*
D15*
X71800Y78791D02*
G03*
X71800Y78791I-197J0D01*
G01*
X4449Y55709D02*
X14291D01*
Y30748D02*
Y55709D01*
X4449Y30748D02*
X14291D01*
X4449D02*
Y55709D01*
D16*
X185878Y10341D02*
G03*
X185878Y10341I-295J0D01*
G01*
X184660Y19750D02*
G03*
X184660Y19750I-519J0D01*
G01*
X186522Y10340D02*
G03*
X186522Y10340I-939J0D01*
G01*
X190170Y20284D02*
G03*
X190159Y20293I-422J-501D01*
G01*
D02*
G03*
X190149Y20301I-415J-515D01*
G01*
X21966Y62271D02*
Y63511D01*
Y64889D02*
Y66129D01*
X20234Y62271D02*
Y63511D01*
Y64889D02*
Y66129D01*
X21966D01*
X20234Y62271D02*
X21966D01*
X73889Y53066D02*
X75129D01*
X71271D02*
X72511Y53066D01*
X73889Y51334D02*
X75129D01*
X71271D02*
X72511Y51334D01*
X71271Y51334D02*
Y53066D01*
X75129Y51334D02*
Y53066D01*
X86754Y161115D02*
Y166843D01*
X94963D01*
X86754Y161115D02*
X94963D01*
Y166843D01*
X98534Y160684D02*
X100266D01*
X98534Y164542D02*
X100266D01*
X98534D02*
X98534Y163302D01*
X98534Y160684D02*
X98534Y161924D01*
X100266Y164542D02*
X100266Y163302D01*
X100266Y160684D02*
X100266Y161924D01*
X95329Y155734D02*
Y157466D01*
X91471Y155734D02*
Y157466D01*
Y155734D02*
X92711D01*
X94089D02*
X95329D01*
X91471Y157466D02*
X92711D01*
X94089D02*
X95329D01*
X27089Y99466D02*
X28329D01*
X24471D02*
X25711D01*
X27089Y97734D02*
X28329D01*
X24471D02*
X25711D01*
X24471D02*
Y99466D01*
X28329Y97734D02*
Y99466D01*
X35546Y167613D02*
X37279D01*
X35546Y163755D02*
X37279D01*
Y164995D01*
Y166373D02*
Y167613D01*
X35546Y163755D02*
Y164995D01*
Y166373D02*
Y167613D01*
X142729Y105722D02*
Y107454D01*
X138871Y105722D02*
Y107454D01*
Y105722D02*
X140111D01*
X141489D02*
X142729D01*
X138871Y107454D02*
X140111D01*
X141489D02*
X142729D01*
Y108422D02*
Y110154D01*
X138871Y108422D02*
Y110154D01*
Y108422D02*
X140111D01*
X141489D02*
X142729D01*
X138871Y110154D02*
X140111D01*
X141489D02*
X142729D01*
Y111122D02*
Y112854D01*
X138871Y111122D02*
Y112854D01*
Y111122D02*
X140111D01*
X141489D02*
X142729D01*
X138871Y112854D02*
X140111D01*
X141489D02*
X142729D01*
X82362Y126023D02*
Y127264D01*
X82362Y129882D02*
X82362Y128642D01*
X80630Y126024D02*
X80630Y127264D01*
X80630Y129882D02*
X80630Y128642D01*
X80630Y129882D02*
X82362Y129882D01*
X80630Y126024D02*
X82362Y126023D01*
X82362Y118937D02*
Y120177D01*
Y122795D02*
X82362Y121555D01*
X80630Y118937D02*
Y120177D01*
Y121555D02*
Y122795D01*
X82362Y122795D01*
X80630Y118937D02*
X82362Y118937D01*
X53566Y62771D02*
Y64011D01*
Y65389D02*
Y66629D01*
X51834Y62771D02*
Y64011D01*
Y65389D02*
Y66629D01*
X53566D01*
X51834Y62771D02*
X53566D01*
Y58071D02*
Y59311D01*
Y60689D02*
Y61929D01*
X51834Y58071D02*
Y59311D01*
Y60689D02*
Y61929D01*
X53566D01*
X51834Y58071D02*
X53566D01*
X139666Y89971D02*
Y91211D01*
Y92589D02*
Y93829D01*
X137934Y89971D02*
Y91211D01*
Y92589D02*
Y93829D01*
X139666D01*
X137934Y89971D02*
X139666D01*
X137466Y149871D02*
Y151111D01*
Y153729D02*
X137466Y152489D01*
X135734Y149871D02*
Y151111D01*
X135734Y152489D02*
X135734Y153729D01*
X137466D01*
X135734Y149871D02*
X137466D01*
X130966Y149871D02*
Y151111D01*
Y152489D02*
Y153729D01*
X129234Y149871D02*
Y151111D01*
Y152489D02*
Y153729D01*
X130966D01*
X129234Y149871D02*
X130966D01*
X129787Y196322D02*
X138331D01*
X129787Y195987D02*
Y196322D01*
X138331Y195987D02*
Y196322D01*
Y187779D02*
Y188113D01*
X129787Y187779D02*
X138331D01*
X129787D02*
Y188113D01*
Y163572D02*
X138331D01*
X129787Y163237D02*
Y163572D01*
X138331Y163237D02*
Y163572D01*
Y155028D02*
Y155363D01*
X129787Y155028D02*
X138331D01*
X129787D02*
Y155363D01*
X53929Y102134D02*
Y103866D01*
X50071Y102134D02*
Y103866D01*
Y102134D02*
X51311D01*
X52689D02*
X53929D01*
X50071Y103866D02*
X51311D01*
X52689D02*
X53929D01*
X52689Y101366D02*
X53929D01*
X50071D02*
X51311D01*
X52689Y99634D02*
X53929D01*
X50071D02*
X51311D01*
X50071D02*
Y101366D01*
X53929Y99634D02*
Y101366D01*
X49646Y138991D02*
X51379D01*
X49646Y135133D02*
X51379D01*
Y136373D01*
Y137751D02*
Y138991D01*
X49646Y135133D02*
Y136373D01*
Y137751D02*
Y138991D01*
X37946Y166373D02*
Y167613D01*
Y163755D02*
Y164995D01*
X39679Y166373D02*
Y167613D01*
Y163755D02*
Y164995D01*
X37946Y163755D02*
X39679D01*
X37946Y167613D02*
X39679D01*
X60056Y150809D02*
X62024D01*
X60056Y144746D02*
X62024D01*
X43191Y156283D02*
X53034D01*
Y146441D02*
Y156283D01*
X43191Y146441D02*
Y156283D01*
Y146441D02*
X53034D01*
X67044Y160487D02*
Y162456D01*
X60981Y160487D02*
Y162456D01*
X123292Y16758D02*
Y17998D01*
Y19376D02*
Y20617D01*
X121560Y16758D02*
Y17998D01*
Y19376D02*
Y20617D01*
X123292D01*
X121560Y16758D02*
X123292D01*
X119597Y6721D02*
X120837D01*
X122215D02*
X123455D01*
X119597Y8454D02*
X120837D01*
X122215D02*
X123455D01*
Y6721D02*
Y8454D01*
X119597Y6721D02*
Y8454D01*
X123292Y12358D02*
Y13598D01*
Y14976D02*
Y16217D01*
X121560Y12358D02*
Y13598D01*
Y14976D02*
Y16217D01*
X123292D01*
X121560Y12358D02*
X123292D01*
X135628Y9869D02*
X136868D01*
X133010D02*
X134250D01*
X135628Y8137D02*
X136868D01*
X133010D02*
X134250D01*
X133010D02*
Y9869D01*
X136868Y8137D02*
Y9869D01*
X133760Y17416D02*
X135492D01*
X133760Y13558D02*
X135492D01*
Y14798D01*
Y16176D02*
Y17416D01*
X133760Y13558D02*
Y14798D01*
Y16176D02*
Y17416D01*
X123960Y8417D02*
X125692D01*
X123960Y4559D02*
X125692D01*
Y5799D01*
Y7177D02*
Y8417D01*
X123960Y4559D02*
Y5799D01*
Y7177D02*
Y8417D01*
X119460Y12677D02*
Y13917D01*
Y10059D02*
Y11299D01*
X121193Y12677D02*
Y13917D01*
Y10059D02*
Y11299D01*
X119460Y10059D02*
X121193D01*
X119460Y13917D02*
X121193D01*
X137373Y10717D02*
X139105D01*
X137373Y6859D02*
X139105D01*
Y8099D01*
Y9477D02*
Y10717D01*
X137373Y6859D02*
Y8099D01*
Y9477D02*
Y10717D01*
X133797Y11321D02*
Y13054D01*
X137655Y11321D02*
Y13054D01*
X136415D02*
X137655D01*
X133797D02*
X135037D01*
X136415Y11321D02*
X137655D01*
X133797D02*
X135037D01*
X143928Y48084D02*
Y51824D01*
X137629Y48084D02*
Y51824D01*
X142568Y55163D02*
X143808Y55163D01*
Y53431D02*
Y55163D01*
X139950D02*
X141190Y55163D01*
X139950Y53431D02*
Y55163D01*
X142568Y53431D02*
X143808D01*
X139950D02*
X141190D01*
X103571Y45134D02*
Y46866D01*
Y45134D02*
X104811D01*
X103571Y46866D02*
X104811D01*
X106189Y45134D02*
X107429D01*
Y46866D01*
X106189D02*
X107429D01*
X103571Y47634D02*
Y49366D01*
Y47634D02*
X104811D01*
X103571Y49366D02*
X104811D01*
X106189Y47634D02*
X107429D01*
Y49366D01*
X106189D02*
X107429D01*
X103571Y50134D02*
Y51866D01*
Y50134D02*
X104811D01*
X103571Y51866D02*
X104811D01*
X106189Y50134D02*
X107429D01*
Y51866D01*
X106189D02*
X107429D01*
X49042Y137496D02*
Y139228D01*
X45184Y137496D02*
Y139228D01*
Y137496D02*
X46424D01*
X47802D02*
X49042D01*
X45184Y139228D02*
X46424D01*
X47802D02*
X49042D01*
Y135096D02*
Y136828D01*
X45184Y135096D02*
Y136828D01*
Y135096D02*
X46424D01*
X47802D02*
X49042D01*
X45184Y136828D02*
X46424D01*
X47802D02*
X49042D01*
X40346Y163755D02*
X42079D01*
X40346Y167613D02*
X42079D01*
X40346Y166373D02*
Y167613D01*
Y163755D02*
Y164995D01*
X42079Y166373D02*
Y167613D01*
Y163755D02*
Y164995D01*
X42746Y167613D02*
X44479D01*
X42746Y163755D02*
X44479D01*
Y164995D01*
Y166373D02*
Y167613D01*
X42746Y163755D02*
Y164995D01*
Y166373D02*
Y167613D01*
X45146Y163755D02*
X46879D01*
X45146Y167613D02*
X46879D01*
X45146Y166373D02*
Y167613D01*
Y163755D02*
Y164995D01*
X46879Y166373D02*
Y167613D01*
Y163755D02*
Y164995D01*
X34566Y163771D02*
Y165011D01*
Y166389D02*
Y167629D01*
X32834Y163771D02*
Y165011D01*
Y166389D02*
Y167629D01*
X34566D01*
X32834Y163771D02*
X34566D01*
X46429Y139634D02*
Y141366D01*
X42571Y139634D02*
Y141366D01*
Y139634D02*
X43811D01*
X45189D02*
X46429D01*
X42571Y141366D02*
X43811D01*
X45189D02*
X46429D01*
X35529Y168134D02*
Y169866D01*
X31671Y168134D02*
Y169866D01*
Y168134D02*
X32911D01*
X34289D02*
X35529D01*
X31671Y169866D02*
X32911D01*
X34289D02*
X35529D01*
X49328Y87728D02*
X57872D01*
Y88063D01*
X49328Y87728D02*
Y88063D01*
Y95937D02*
Y96272D01*
X57872D01*
Y95937D02*
Y96272D01*
X107666Y161371D02*
Y162611D01*
Y163989D02*
Y165229D01*
X105934Y161371D02*
Y162611D01*
Y163989D02*
Y165229D01*
X107666D01*
X105934Y161371D02*
X107666D01*
X112434Y161371D02*
X114166D01*
X112434Y165229D02*
X114166D01*
X112434Y163989D02*
Y165229D01*
Y161371D02*
Y162611D01*
X114166Y163989D02*
Y165229D01*
Y161371D02*
Y162611D01*
X81171Y79234D02*
Y80966D01*
X85029Y79234D02*
Y80966D01*
X83789D02*
X85029D01*
X81171D02*
X82411D01*
X83789Y79234D02*
X85029D01*
X81171D02*
X82411D01*
X122795Y107539D02*
X131339D01*
Y107874D01*
X122795Y107539D02*
Y107874D01*
Y115748D02*
Y116083D01*
X131339D01*
Y115748D02*
Y116083D01*
X115394Y115748D02*
Y116083D01*
X106850D02*
X115394D01*
X106850Y115748D02*
Y116083D01*
Y107539D02*
Y107874D01*
X115394Y107539D02*
Y107874D01*
X106850Y107539D02*
X115394D01*
X62234Y57489D02*
Y58729D01*
Y54871D02*
Y56111D01*
X63966Y57489D02*
Y58729D01*
Y54871D02*
Y56111D01*
X62234Y54871D02*
X63966D01*
X62234Y58729D02*
X63966D01*
X140913Y192680D02*
X142646D01*
X140913Y196539D02*
X142646D01*
X140913Y195298D02*
Y196539D01*
Y192680D02*
Y193921D01*
X142646Y195298D02*
Y196539D01*
Y192680D02*
Y193921D01*
X125434Y191429D02*
X127166D01*
X125434Y187571D02*
X127166D01*
Y188811D01*
Y190189D02*
Y191429D01*
X125434Y187571D02*
Y188811D01*
Y190189D02*
Y191429D01*
X140913Y158670D02*
X142646D01*
X140913Y154812D02*
X142646D01*
Y156052D01*
Y157430D02*
Y158670D01*
X140913Y154812D02*
Y156052D01*
Y157430D02*
Y158670D01*
X125472D02*
X127205D01*
X125472Y154812D02*
X127205D01*
Y156052D01*
Y157430D02*
Y158670D01*
X125472Y154812D02*
Y156052D01*
Y157430D02*
Y158670D01*
X59954Y92130D02*
X61687D01*
X59954Y95988D02*
X61687D01*
X59954Y94748D02*
Y95988D01*
Y92130D02*
Y93370D01*
X61687Y94748D02*
Y95988D01*
Y92130D02*
Y93370D01*
X45013Y87512D02*
X46746D01*
X45013Y91370D02*
X46746D01*
X45013Y90130D02*
Y91370D01*
Y87512D02*
Y88752D01*
X46746Y90130D02*
Y91370D01*
Y87512D02*
Y88752D01*
X45371Y104834D02*
Y106566D01*
X49229Y104834D02*
Y106566D01*
X47989D02*
X49229D01*
X45371D02*
X46611D01*
X47989Y104834D02*
X49229D01*
X45371D02*
X46611D01*
X37534Y101671D02*
X39266D01*
X37534Y105529D02*
X39266D01*
X37534Y104289D02*
Y105529D01*
Y101671D02*
Y102911D01*
X39266Y104289D02*
Y105529D01*
Y101671D02*
Y102911D01*
X34634Y82886D02*
Y84126D01*
Y80268D02*
Y81508D01*
X36366Y82886D02*
Y84126D01*
Y80268D02*
Y81508D01*
X34634Y80268D02*
X36366D01*
X34634Y84126D02*
X36366D01*
X62771Y65734D02*
Y67466D01*
X66629Y65734D02*
Y67466D01*
X65389D02*
X66629D01*
X62771D02*
X64011D01*
X65389Y65734D02*
X66629D01*
X62771D02*
X64011D01*
X62700Y60233D02*
Y64367D01*
X68900Y60233D02*
Y64367D01*
X95734Y167971D02*
X97466D01*
X95734Y171829D02*
X97466D01*
X95734Y170589D02*
Y171829D01*
Y167971D02*
Y169211D01*
X97466Y170589D02*
Y171829D01*
Y167971D02*
Y169211D01*
X92571Y149234D02*
Y150966D01*
X96429Y149234D02*
Y150966D01*
X95189D02*
X96429D01*
X92571D02*
X93811D01*
X95189Y149234D02*
X96429D01*
X92571D02*
X93811D01*
X88189Y141966D02*
X89429D01*
X85571D02*
X86811D01*
X88189Y140234D02*
X89429D01*
X85571D02*
X86811D01*
X85571D02*
Y141966D01*
X89429Y140234D02*
Y141966D01*
X68878Y84685D02*
Y85925D01*
Y87303D02*
Y88543D01*
X67146Y84685D02*
Y85925D01*
Y87303D02*
Y88543D01*
X68878D01*
X67146Y84685D02*
X68878D01*
X71378Y83622D02*
X73110D01*
X71378Y79764D02*
X73110D01*
Y81004D01*
Y82382D02*
Y83622D01*
X71378Y79764D02*
Y81004D01*
Y82382D02*
Y83622D01*
X93602Y140039D02*
X95335D01*
X93602Y143898D02*
X95335D01*
X93602Y142657D02*
Y143898D01*
Y140039D02*
Y141279D01*
X95335Y142657D02*
Y143898D01*
Y140039D02*
Y141279D01*
X181811Y21440D02*
X193346Y8003D01*
X181811D02*
X193346Y21440D01*
X189682Y9271D02*
Y10150D01*
X189086Y9271D02*
X189682D01*
X189086D02*
Y10150D01*
X189682D01*
X188637Y16680D02*
Y17535D01*
X186271Y16680D02*
X188637D01*
X186271D02*
Y17535D01*
X188637D01*
X191498Y19048D02*
Y19598D01*
X184064Y19048D02*
X191498D01*
X184064D02*
Y19598D01*
X191498D01*
X184889Y17476D02*
Y18606D01*
X183759Y17476D02*
X184889D01*
X183759D02*
Y18606D01*
X184889D01*
X189636Y19293D02*
Y20773D01*
X190094D01*
Y19293D02*
Y20773D01*
X188308Y20407D02*
Y21002D01*
X186567Y20407D02*
X188308D01*
X186567D02*
Y21002D01*
X188308D01*
X186522Y10152D02*
X189972D01*
X190765Y19381D01*
X189584Y20540D02*
X189589Y20538D01*
X189578Y20541D02*
X189584Y20540D01*
X189572Y20543D02*
X189578Y20541D01*
X189566Y20544D02*
X189572Y20543D01*
X189560Y20546D02*
X189566Y20544D01*
X189554Y20547D02*
X189560Y20546D01*
X189548Y20549D02*
X189554Y20547D01*
X189542Y20550D02*
X189548Y20549D01*
X189536Y20552D02*
X189542Y20550D01*
X189530Y20553D02*
X189536Y20552D01*
X189524Y20555D02*
X189530Y20553D01*
X189518Y20556D02*
X189524Y20555D01*
X189511Y20558D02*
X189518Y20556D01*
X189504Y20559D02*
X189511Y20558D01*
X189497Y20561D02*
X189504Y20559D01*
X189489Y20563D02*
X189497Y20561D01*
X189482Y20564D02*
X189489Y20563D01*
X189475Y20566D02*
X189482Y20564D01*
X189467Y20568D02*
X189475Y20566D01*
X189460Y20569D02*
X189467Y20568D01*
X189452Y20571D02*
X189460Y20569D01*
X189445Y20573D02*
X189452Y20571D01*
X189437Y20574D02*
X189445Y20573D01*
X189430Y20576D02*
X189437Y20574D01*
X189422Y20578D02*
X189430Y20576D01*
X189415Y20579D02*
X189422Y20578D01*
X189407Y20581D02*
X189415Y20579D01*
X189400Y20582D02*
X189407Y20581D01*
X189392Y20584D02*
X189400Y20582D01*
X189384Y20586D02*
X189392Y20584D01*
X189377Y20587D02*
X189384Y20586D01*
X189369Y20589D02*
X189377Y20587D01*
X189362Y20590D02*
X189369Y20589D01*
X189354Y20592D02*
X189362Y20590D01*
X189346Y20593D02*
X189354Y20592D01*
X189339Y20595D02*
X189346Y20593D01*
X189331Y20596D02*
X189339Y20595D01*
X189323Y20598D02*
X189331Y20596D01*
X189316Y20599D02*
X189323Y20598D01*
X189308Y20601D02*
X189316Y20599D01*
X189300Y20602D02*
X189308Y20601D01*
X189292Y20604D02*
X189300Y20602D01*
X189283Y20605D02*
X189292Y20604D01*
X189274Y20607D02*
X189283Y20605D01*
X189265Y20609D02*
X189274Y20607D01*
X189256Y20610D02*
X189265Y20609D01*
X189247Y20612D02*
X189256Y20610D01*
X189238Y20613D02*
X189247Y20612D01*
X189229Y20615D02*
X189238Y20613D01*
X189220Y20617D02*
X189229Y20615D01*
X189211Y20618D02*
X189220Y20617D01*
X189202Y20620D02*
X189211Y20618D01*
X189192Y20621D02*
X189202Y20620D01*
X189183Y20623D02*
X189192Y20621D01*
X189174Y20624D02*
X189183Y20623D01*
X189165Y20626D02*
X189174Y20624D01*
X189156Y20627D02*
X189165Y20626D01*
X189146Y20629D02*
X189156Y20627D01*
X189137Y20630D02*
X189146Y20629D01*
X189128Y20632D02*
X189137Y20630D01*
X189119Y20633D02*
X189128Y20632D01*
X189110Y20635D02*
X189119Y20633D01*
X189099Y20636D02*
X189110Y20635D01*
X189088Y20638D02*
X189099Y20636D01*
X189078Y20640D02*
X189088Y20638D01*
X189067Y20641D02*
X189078Y20640D01*
X189057Y20643D02*
X189067Y20641D01*
X189046Y20644D02*
X189057Y20643D01*
X189035Y20646D02*
X189046Y20644D01*
X189025Y20647D02*
X189035Y20646D01*
X189014Y20649D02*
X189025Y20647D01*
X189004Y20650D02*
X189014Y20649D01*
X188993Y20652D02*
X189004Y20650D01*
X188982Y20653D02*
X188993Y20652D01*
X188972Y20655D02*
X188982Y20653D01*
X188961Y20656D02*
X188972Y20655D01*
X188949Y20658D02*
X188961Y20656D01*
X188937Y20659D02*
X188949Y20658D01*
X188925Y20661D02*
X188937Y20659D01*
X188913Y20662D02*
X188925Y20661D01*
X188901Y20664D02*
X188913Y20662D01*
X188889Y20665D02*
X188901Y20664D01*
X188878Y20667D02*
X188889Y20665D01*
X188866Y20668D02*
X188878Y20667D01*
X188854Y20670D02*
X188866Y20668D01*
X188842Y20671D02*
X188854Y20670D01*
X188829Y20673D02*
X188842Y20671D01*
X188815Y20674D02*
X188829Y20673D01*
X188802Y20676D02*
X188815Y20674D01*
X188789Y20677D02*
X188802Y20676D01*
X188776Y20679D02*
X188789Y20677D01*
X188763Y20680D02*
X188776Y20679D01*
X188749Y20682D02*
X188763Y20680D01*
X188736Y20683D02*
X188749Y20682D01*
X188722Y20684D02*
X188736Y20683D01*
X188707Y20686D02*
X188722Y20684D01*
X188693Y20687D02*
X188707Y20686D01*
X188679Y20689D02*
X188693Y20687D01*
X188664Y20690D02*
X188679Y20689D01*
X188649Y20692D02*
X188664Y20690D01*
X188633Y20693D02*
X188649Y20692D01*
X188618Y20695D02*
X188633Y20693D01*
X188602Y20696D02*
X188618Y20695D01*
X188586Y20698D02*
X188602Y20696D01*
X188569Y20699D02*
X188586Y20698D01*
X188552Y20701D02*
X188569Y20699D01*
X188536Y20702D02*
X188552Y20701D01*
X188518Y20704D02*
X188536Y20702D01*
X188500Y20705D02*
X188518Y20704D01*
X188481Y20707D02*
X188500Y20705D01*
X188463Y20708D02*
X188481Y20707D01*
X188443Y20710D02*
X188463Y20708D01*
X188423Y20711D02*
X188443Y20710D01*
X188402Y20713D02*
X188423Y20711D01*
X188380Y20715D02*
X188402Y20713D01*
X188358Y20716D02*
X188380Y20715D01*
X188334Y20718D02*
X188358Y20716D01*
X188308Y20720D02*
X188334Y20718D01*
X184645Y17476D02*
X185186Y11233D01*
X190765Y19381D02*
Y19381D01*
Y19382D01*
Y19382D01*
Y19382D01*
Y19382D01*
Y19382D01*
Y19383D01*
X190765Y19383D02*
X190765Y19383D01*
X190765Y19383D02*
Y19383D01*
Y19383D01*
Y19383D01*
Y19384D01*
Y19384D01*
Y19384D01*
Y19384D01*
X190765Y19384D02*
X190765Y19384D01*
X190765Y19384D02*
Y19385D01*
Y19385D01*
Y19385D01*
Y19385D01*
Y19385D01*
Y19386D01*
X190764Y19386D02*
X190765Y19386D01*
X190764Y19386D02*
Y19386D01*
Y19386D01*
Y19386D01*
Y19387D01*
Y19387D01*
Y19387D01*
Y19387D01*
X190764Y19387D02*
X190764Y19387D01*
X190764Y19387D02*
Y19388D01*
Y19388D01*
Y19388D01*
Y19388D01*
Y19388D01*
X190764Y19389D02*
X190764Y19388D01*
X190764Y19389D02*
Y19389D01*
Y19389D01*
Y19389D01*
Y19389D01*
Y19390D01*
Y19390D01*
X190764Y19390D02*
X190764Y19390D01*
X190764Y19390D02*
Y19390D01*
Y19391D01*
Y19391D01*
Y19391D01*
Y19391D01*
X190764Y19391D02*
X190764Y19391D01*
X190764Y19391D02*
Y19392D01*
Y19392D01*
X190763Y19393D02*
X190764Y19392D01*
X190763Y19393D02*
Y19393D01*
Y19394D01*
X190763Y19394D02*
X190763Y19394D01*
X190763Y19394D02*
Y19395D01*
X190763Y19395D02*
X190763Y19395D01*
X190763Y19395D02*
Y19396D01*
X190763Y19396D02*
X190763Y19396D01*
X190763Y19396D02*
Y19397D01*
Y19398D01*
X190763Y19398D02*
X190763Y19398D01*
X190763Y19398D02*
Y19399D01*
X190762Y19399D02*
X190763Y19399D01*
X190762Y19399D02*
Y19400D01*
X190762Y19400D02*
X190762Y19400D01*
X190762Y19401D02*
X190762Y19400D01*
X190762Y19401D02*
Y19402D01*
X190762Y19402D02*
X190762Y19402D01*
X190762Y19402D02*
Y19403D01*
X190762Y19404D02*
X190762Y19403D01*
X190762Y19404D02*
Y19404D01*
X190761Y19405D02*
X190762Y19404D01*
X190761Y19406D02*
X190761Y19405D01*
X190761Y19406D02*
Y19406D01*
X190761Y19407D02*
X190761Y19406D01*
X190761Y19408D02*
X190761Y19407D01*
X190761Y19408D02*
Y19408D01*
X190761Y19409D02*
X190761Y19408D01*
X190760Y19410D02*
X190761Y19409D01*
X190760Y19411D02*
X190760Y19410D01*
X190760Y19411D02*
Y19411D01*
X190760Y19412D02*
X190760Y19411D01*
X190760Y19413D02*
X190760Y19412D01*
X190760Y19414D02*
X190760Y19413D01*
X190760Y19414D02*
Y19415D01*
X190759Y19416D02*
X190760Y19415D01*
X190759Y19417D02*
X190759Y19416D01*
X190759Y19418D02*
X190759Y19417D01*
X190759Y19419D02*
X190759Y19418D01*
X190758Y19421D02*
X190759Y19419D01*
X190758Y19422D02*
X190758Y19421D01*
X190758Y19423D02*
X190758Y19422D01*
X190757Y19425D02*
X190758Y19423D01*
X190757Y19426D02*
X190757Y19425D01*
X190757Y19427D02*
X190757Y19426D01*
X190756Y19429D02*
X190757Y19427D01*
X190756Y19430D02*
X190756Y19429D01*
X190756Y19432D02*
X190756Y19430D01*
X190756Y19433D02*
X190756Y19432D01*
X190755Y19435D02*
X190756Y19433D01*
X190755Y19436D02*
X190755Y19435D01*
X190754Y19438D02*
X190755Y19436D01*
X190754Y19439D02*
X190754Y19438D01*
X190754Y19441D02*
X190754Y19439D01*
X190753Y19442D02*
X190754Y19441D01*
X190753Y19444D02*
X190753Y19442D01*
X190752Y19446D02*
X190753Y19444D01*
X190752Y19448D02*
X190752Y19446D01*
X190751Y19450D02*
X190752Y19448D01*
X190751Y19453D02*
X190751Y19450D01*
X190750Y19455D02*
X190751Y19453D01*
X190750Y19457D02*
X190750Y19455D01*
X190749Y19460D02*
X190750Y19457D01*
X190748Y19462D02*
X190749Y19460D01*
X190748Y19464D02*
X190748Y19462D01*
X190747Y19467D02*
X190748Y19464D01*
X190746Y19469D02*
X190747Y19467D01*
X190746Y19472D02*
X190746Y19469D01*
X190745Y19474D02*
X190746Y19472D01*
X190744Y19477D02*
X190745Y19474D01*
X190743Y19480D02*
X190744Y19477D01*
X190742Y19484D02*
X190743Y19480D01*
X190741Y19487D02*
X190742Y19484D01*
X190740Y19490D02*
X190741Y19487D01*
X190739Y19494D02*
X190740Y19490D01*
X190738Y19497D02*
X190739Y19494D01*
X190737Y19501D02*
X190738Y19497D01*
X190736Y19504D02*
X190737Y19501D01*
X190735Y19508D02*
X190736Y19504D01*
X190734Y19512D02*
X190735Y19508D01*
X190732Y19515D02*
X190734Y19512D01*
X190731Y19520D02*
X190732Y19515D01*
X190729Y19524D02*
X190731Y19520D01*
X190728Y19529D02*
X190729Y19524D01*
X190726Y19534D02*
X190728Y19529D01*
X190724Y19539D02*
X190726Y19534D01*
X190723Y19543D02*
X190724Y19539D01*
X190721Y19548D02*
X190723Y19543D01*
X190719Y19553D02*
X190721Y19548D01*
X190717Y19558D02*
X190719Y19553D01*
X190715Y19564D02*
X190717Y19558D01*
X190713Y19570D02*
X190715Y19564D01*
X190710Y19576D02*
X190713Y19570D01*
X190708Y19582D02*
X190710Y19576D01*
X190705Y19589D02*
X190708Y19582D01*
X190703Y19595D02*
X190705Y19589D01*
X190700Y19601D02*
X190703Y19595D01*
X190697Y19608D02*
X190700Y19601D01*
X190694Y19615D02*
X190697Y19608D01*
X190691Y19623D02*
X190694Y19615D01*
X190687Y19631D02*
X190691Y19623D01*
X190684Y19638D02*
X190687Y19631D01*
X190680Y19646D02*
X190684Y19638D01*
X190677Y19654D02*
X190680Y19646D01*
X190673Y19662D02*
X190677Y19654D01*
X190669Y19670D02*
X190673Y19662D01*
X190664Y19680D02*
X190669Y19670D01*
X190660Y19689D02*
X190664Y19680D01*
X190655Y19699D02*
X190660Y19689D01*
X190650Y19708D02*
X190655Y19699D01*
X190645Y19718D02*
X190650Y19708D01*
X190639Y19728D02*
X190645Y19718D01*
X190634Y19738D02*
X190639Y19728D01*
X190628Y19748D02*
X190634Y19738D01*
X190623Y19758D02*
X190628Y19748D01*
X190617Y19768D02*
X190623Y19758D01*
X190611Y19778D02*
X190617Y19768D01*
X190605Y19788D02*
X190611Y19778D01*
X190598Y19799D02*
X190605Y19788D01*
X190592Y19809D02*
X190598Y19799D01*
X190585Y19820D02*
X190592Y19809D01*
X190578Y19831D02*
X190585Y19820D01*
X190570Y19843D02*
X190578Y19831D01*
X190562Y19855D02*
X190570Y19843D01*
X190554Y19867D02*
X190562Y19855D01*
X190546Y19879D02*
X190554Y19867D01*
X190537Y19891D02*
X190546Y19879D01*
X190529Y19903D02*
X190537Y19891D01*
X190521Y19914D02*
X190529Y19903D01*
X190513Y19925D02*
X190521Y19914D01*
X190504Y19937D02*
X190513Y19925D01*
X190495Y19948D02*
X190504Y19937D01*
X190487Y19960D02*
X190495Y19948D01*
X190477Y19971D02*
X190487Y19960D01*
X190468Y19983D02*
X190477Y19971D01*
X190459Y19994D02*
X190468Y19983D01*
X190449Y20006D02*
X190459Y19994D01*
X190439Y20018D02*
X190449Y20006D01*
X190429Y20030D02*
X190439Y20018D01*
X190419Y20042D02*
X190429Y20030D01*
X190408Y20054D02*
X190419Y20042D01*
X190398Y20066D02*
X190408Y20054D01*
X190387Y20078D02*
X190398Y20066D01*
X190375Y20090D02*
X190387Y20078D01*
X190364Y20102D02*
X190375Y20090D01*
X190353Y20114D02*
X190364Y20102D01*
X190341Y20126D02*
X190353Y20114D01*
X190329Y20138D02*
X190341Y20126D01*
X190317Y20151D02*
X190329Y20138D01*
X190306Y20162D02*
X190317Y20151D01*
X190294Y20173D02*
X190306Y20162D01*
X190283Y20184D02*
X190294Y20173D01*
X190271Y20195D02*
X190283Y20184D01*
X190260Y20205D02*
X190271Y20195D01*
X190248Y20217D02*
X190260Y20205D01*
X190235Y20228D02*
X190248Y20217D01*
X190223Y20239D02*
X190235Y20228D01*
X190211Y20250D02*
X190223Y20239D01*
X190198Y20261D02*
X190211Y20250D01*
X190185Y20272D02*
X190198Y20261D01*
X190170Y20284D02*
X190185Y20272D01*
X190142Y20307D02*
X190149Y20301D01*
X190135Y20312D02*
X190142Y20307D01*
X190129Y20317D02*
X190135Y20312D01*
X190123Y20321D02*
X190129Y20317D01*
X190117Y20324D02*
X190123Y20321D01*
X190112Y20328D02*
X190117Y20324D01*
X190107Y20331D02*
X190112Y20328D01*
X190103Y20334D02*
X190107Y20331D01*
X190098Y20337D02*
X190103Y20334D01*
X186520Y20683D02*
X186522Y20684D01*
X186507Y20682D02*
X186520Y20683D01*
X186493Y20681D02*
X186507Y20682D01*
X186480Y20679D02*
X186493Y20681D01*
X186466Y20678D02*
X186480Y20679D01*
X186452Y20676D02*
X186466Y20678D01*
X186439Y20674D02*
X186452Y20676D01*
X186425Y20673D02*
X186439Y20674D01*
X186412Y20671D02*
X186425Y20673D01*
X186400Y20670D02*
X186412Y20671D01*
X186388Y20668D02*
X186400Y20670D01*
X186376Y20667D02*
X186388Y20668D01*
X186364Y20666D02*
X186376Y20667D01*
X186352Y20664D02*
X186364Y20666D01*
X186340Y20663D02*
X186352Y20664D01*
X186329Y20661D02*
X186340Y20663D01*
X186317Y20659D02*
X186329Y20661D01*
X186305Y20658D02*
X186317Y20659D01*
X186293Y20656D02*
X186305Y20658D01*
X186281Y20655D02*
X186293Y20656D01*
X186269Y20653D02*
X186281Y20655D01*
X186257Y20652D02*
X186269Y20653D01*
X186245Y20650D02*
X186257Y20652D01*
X186235Y20648D02*
X186245Y20650D01*
X186225Y20647D02*
X186235Y20648D01*
X186215Y20646D02*
X186225Y20647D01*
X186204Y20644D02*
X186215Y20646D01*
X186194Y20643D02*
X186204Y20644D01*
X186184Y20641D02*
X186194Y20643D01*
X186174Y20640D02*
X186184Y20641D01*
X186164Y20638D02*
X186174Y20640D01*
X186154Y20636D02*
X186164Y20638D01*
X186143Y20635D02*
X186154Y20636D01*
X186133Y20633D02*
X186143Y20635D01*
X186123Y20632D02*
X186133Y20633D01*
X186113Y20630D02*
X186123Y20632D01*
X186103Y20629D02*
X186113Y20630D01*
X186093Y20627D02*
X186103Y20629D01*
X186083Y20625D02*
X186093Y20627D01*
X186073Y20624D02*
X186083Y20625D01*
X186062Y20622D02*
X186073Y20624D01*
X186052Y20620D02*
X186062Y20622D01*
X186042Y20619D02*
X186052Y20620D01*
X186032Y20617D02*
X186042Y20619D01*
X186024Y20615D02*
X186032Y20617D01*
X186016Y20614D02*
X186024Y20615D01*
X186007Y20612D02*
X186016Y20614D01*
X185999Y20611D02*
X186007Y20612D01*
X185991Y20609D02*
X185999Y20611D01*
X185982Y20608D02*
X185991Y20609D01*
X185974Y20606D02*
X185982Y20608D01*
X185966Y20605D02*
X185974Y20606D01*
X185957Y20603D02*
X185966Y20605D01*
X185949Y20602D02*
X185957Y20603D01*
X185941Y20600D02*
X185949Y20602D01*
X185933Y20599D02*
X185941Y20600D01*
X185925Y20597D02*
X185933Y20599D01*
X185916Y20596D02*
X185925Y20597D01*
X185908Y20594D02*
X185916Y20596D01*
X185900Y20592D02*
X185908Y20594D01*
X185892Y20591D02*
X185900Y20592D01*
X185884Y20589D02*
X185892Y20591D01*
X185876Y20587D02*
X185884Y20589D01*
X185867Y20586D02*
X185876Y20587D01*
X185859Y20584D02*
X185867Y20586D01*
X185851Y20582D02*
X185859Y20584D01*
X185843Y20581D02*
X185851Y20582D01*
X185835Y20579D02*
X185843Y20581D01*
X185827Y20577D02*
X185835Y20579D01*
X185819Y20576D02*
X185827Y20577D01*
X185811Y20574D02*
X185819Y20576D01*
X185803Y20572D02*
X185811Y20574D01*
X185795Y20570D02*
X185803Y20572D01*
X185787Y20569D02*
X185795Y20570D01*
X185779Y20567D02*
X185787Y20569D01*
X185771Y20565D02*
X185779Y20567D01*
X185763Y20563D02*
X185771Y20565D01*
X185757Y20562D02*
X185763Y20563D01*
X185751Y20560D02*
X185757Y20562D01*
X185744Y20559D02*
X185751Y20560D01*
X185738Y20557D02*
X185744Y20559D01*
X185732Y20556D02*
X185738Y20557D01*
X185726Y20554D02*
X185732Y20556D01*
X185720Y20553D02*
X185726Y20554D01*
X185713Y20551D02*
X185720Y20553D01*
X185707Y20550D02*
X185713Y20551D01*
X185701Y20548D02*
X185707Y20550D01*
X185695Y20547D02*
X185701Y20548D01*
X185689Y20545D02*
X185695Y20547D01*
X185682Y20544D02*
X185689Y20545D01*
X185676Y20542D02*
X185682Y20544D01*
X185670Y20540D02*
X185676Y20542D01*
X185664Y20539D02*
X185670Y20540D01*
X185658Y20537D02*
X185664Y20539D01*
X185652Y20536D02*
X185658Y20537D01*
X185646Y20534D02*
X185652Y20536D01*
X185640Y20532D02*
X185646Y20534D01*
X185634Y20531D02*
X185640Y20532D01*
X185628Y20529D02*
X185634Y20531D01*
X185622Y20528D02*
X185628Y20529D01*
X185616Y20526D02*
X185622Y20528D01*
X185610Y20524D02*
X185616Y20526D01*
X185604Y20523D02*
X185610Y20524D01*
X185598Y20521D02*
X185604Y20523D01*
X185592Y20519D02*
X185598Y20521D01*
X185586Y20518D02*
X185592Y20519D01*
X185580Y20516D02*
X185586Y20518D01*
X185574Y20514D02*
X185580Y20516D01*
X185569Y20513D02*
X185574Y20514D01*
X185563Y20511D02*
X185569Y20513D01*
X185557Y20509D02*
X185563Y20511D01*
X185551Y20507D02*
X185557Y20509D01*
X185545Y20506D02*
X185551Y20507D01*
X185540Y20504D02*
X185545Y20506D01*
X185534Y20502D02*
X185540Y20504D01*
X185528Y20500D02*
X185534Y20502D01*
X185522Y20499D02*
X185528Y20500D01*
X185517Y20497D02*
X185522Y20499D01*
X185511Y20495D02*
X185517Y20497D01*
X185505Y20493D02*
X185511Y20495D01*
X185500Y20491D02*
X185505Y20493D01*
X185494Y20490D02*
X185500Y20491D01*
X185489Y20488D02*
X185494Y20490D01*
X185483Y20486D02*
X185489Y20488D01*
X185478Y20484D02*
X185483Y20486D01*
X185472Y20482D02*
X185478Y20484D01*
X185466Y20480D02*
X185472Y20482D01*
X185461Y20479D02*
X185466Y20480D01*
X185456Y20477D02*
X185461Y20479D01*
X185450Y20475D02*
X185456Y20477D01*
X185445Y20473D02*
X185450Y20475D01*
X185439Y20471D02*
X185445Y20473D01*
X185434Y20469D02*
X185439Y20471D01*
X185430Y20468D02*
X185434Y20469D01*
X185426Y20466D02*
X185430Y20468D01*
X185422Y20465D02*
X185426Y20466D01*
X185418Y20463D02*
X185422Y20465D01*
X185414Y20462D02*
X185418Y20463D01*
X185410Y20460D02*
X185414Y20462D01*
X185406Y20459D02*
X185410Y20460D01*
X185402Y20457D02*
X185406Y20459D01*
X185398Y20456D02*
X185402Y20457D01*
X185394Y20454D02*
X185398Y20456D01*
X185390Y20453D02*
X185394Y20454D01*
X185386Y20451D02*
X185390Y20453D01*
X185382Y20450D02*
X185386Y20451D01*
X185379Y20448D02*
X185382Y20450D01*
X185375Y20447D02*
X185379Y20448D01*
X185371Y20445D02*
X185375Y20447D01*
X185367Y20444D02*
X185371Y20445D01*
X185363Y20442D02*
X185367Y20444D01*
X185359Y20441D02*
X185363Y20442D01*
X185356Y20439D02*
X185359Y20441D01*
X185352Y20438D02*
X185356Y20439D01*
X185348Y20436D02*
X185352Y20438D01*
X185344Y20435D02*
X185348Y20436D01*
X185341Y20433D02*
X185344Y20435D01*
X185337Y20432D02*
X185341Y20433D01*
X185333Y20430D02*
X185337Y20432D01*
X185329Y20428D02*
X185333Y20430D01*
X185326Y20427D02*
X185329Y20428D01*
X185322Y20425D02*
X185326Y20427D01*
X185318Y20424D02*
X185322Y20425D01*
X185315Y20422D02*
X185318Y20424D01*
X185311Y20420D02*
X185315Y20422D01*
X185308Y20419D02*
X185311Y20420D01*
X185304Y20417D02*
X185308Y20419D01*
X185300Y20416D02*
X185304Y20417D01*
X185297Y20414D02*
X185300Y20416D01*
X185293Y20412D02*
X185297Y20414D01*
X185290Y20411D02*
X185293Y20412D01*
X185286Y20409D02*
X185290Y20411D01*
X185283Y20407D02*
X185286Y20409D01*
X185279Y20406D02*
X185283Y20407D01*
X185276Y20404D02*
X185279Y20406D01*
X185272Y20403D02*
X185276Y20404D01*
X185269Y20401D02*
X185272Y20403D01*
X185265Y20399D02*
X185269Y20401D01*
X185262Y20398D02*
X185265Y20399D01*
X185258Y20396D02*
X185262Y20398D01*
X185255Y20394D02*
X185258Y20396D01*
X185252Y20392D02*
X185255Y20394D01*
X185248Y20391D02*
X185252Y20392D01*
X185245Y20389D02*
X185248Y20391D01*
X185241Y20387D02*
X185245Y20389D01*
X185238Y20386D02*
X185241Y20387D01*
X185235Y20384D02*
X185238Y20386D01*
X185232Y20382D02*
X185235Y20384D01*
X185228Y20380D02*
X185232Y20382D01*
X185225Y20379D02*
X185228Y20380D01*
X185222Y20377D02*
X185225Y20379D01*
X185218Y20375D02*
X185222Y20377D01*
X185215Y20374D02*
X185218Y20375D01*
X185212Y20372D02*
X185215Y20374D01*
X185209Y20370D02*
X185212Y20372D01*
X185206Y20368D02*
X185209Y20370D01*
X185203Y20366D02*
X185206Y20368D01*
X185199Y20365D02*
X185203Y20366D01*
X185196Y20363D02*
X185199Y20365D01*
X185193Y20361D02*
X185196Y20363D01*
X185190Y20359D02*
X185193Y20361D01*
X185187Y20358D02*
X185190Y20359D01*
X185184Y20356D02*
X185187Y20358D01*
X185181Y20354D02*
X185184Y20356D01*
X185178Y20352D02*
X185181Y20354D01*
X185175Y20350D02*
X185178Y20352D01*
X185172Y20348D02*
X185175Y20350D01*
X185169Y20347D02*
X185172Y20348D01*
X185166Y20345D02*
X185169Y20347D01*
X185163Y20343D02*
X185166Y20345D01*
X185160Y20341D02*
X185163Y20343D01*
X185157Y20339D02*
X185160Y20341D01*
X185154Y20337D02*
X185157Y20339D01*
X185151Y20336D02*
X185154Y20337D01*
X185148Y20334D02*
X185151Y20336D01*
X185146Y20332D02*
X185148Y20334D01*
X185143Y20330D02*
X185146Y20332D01*
X185140Y20328D02*
X185143Y20330D01*
X185137Y20326D02*
X185140Y20328D01*
X185134Y20324D02*
X185137Y20326D01*
X185132Y20322D02*
X185134Y20324D01*
X185129Y20320D02*
X185132Y20322D01*
X185126Y20318D02*
X185129Y20320D01*
X185123Y20317D02*
X185126Y20318D01*
X185121Y20315D02*
X185123Y20317D01*
X185118Y20313D02*
X185121Y20315D01*
X185115Y20311D02*
X185118Y20313D01*
X185113Y20309D02*
X185115Y20311D01*
X185110Y20307D02*
X185113Y20309D01*
X185108Y20305D02*
X185110Y20307D01*
X185105Y20303D02*
X185108Y20305D01*
X185102Y20301D02*
X185105Y20303D01*
X185100Y20299D02*
X185102Y20301D01*
X185097Y20297D02*
X185100Y20299D01*
X185095Y20295D02*
X185097Y20297D01*
X185092Y20293D02*
X185095Y20295D01*
X185090Y20291D02*
X185092Y20293D01*
X185087Y20289D02*
X185090Y20291D01*
X185085Y20287D02*
X185087Y20289D01*
X185082Y20284D02*
X185085Y20287D01*
X185077Y20280D02*
X185082Y20284D01*
X185064Y20269D02*
X185077Y20280D01*
X185051Y20258D02*
X185064Y20269D01*
X185038Y20247D02*
X185051Y20258D01*
X185026Y20236D02*
X185038Y20247D01*
X185014Y20225D02*
X185026Y20236D01*
X185001Y20214D02*
X185014Y20225D01*
X184990Y20203D02*
X185001Y20214D01*
X184978Y20192D02*
X184990Y20203D01*
X184966Y20181D02*
X184978Y20192D01*
X184955Y20170D02*
X184966Y20181D01*
X184942Y20158D02*
X184955Y20170D01*
X184930Y20145D02*
X184942Y20158D01*
X184918Y20133D02*
X184930Y20145D01*
X184906Y20121D02*
X184918Y20133D01*
X184894Y20109D02*
X184906Y20121D01*
X184883Y20097D02*
X184894Y20109D01*
X184872Y20084D02*
X184883Y20097D01*
X184861Y20072D02*
X184872Y20084D01*
X184850Y20060D02*
X184861Y20072D01*
X184839Y20048D02*
X184850Y20060D01*
X184829Y20036D02*
X184839Y20048D01*
X184818Y20025D02*
X184829Y20036D01*
X184808Y20013D02*
X184818Y20025D01*
X184799Y20001D02*
X184808Y20013D01*
X184789Y19989D02*
X184799Y20001D01*
X184780Y19978D02*
X184789Y19989D01*
X184770Y19966D02*
X184780Y19978D01*
X184761Y19954D02*
X184770Y19966D01*
X184753Y19943D02*
X184761Y19954D01*
X184743Y19930D02*
X184753Y19943D01*
X184734Y19918D02*
X184743Y19930D01*
X184725Y19905D02*
X184734Y19918D01*
X184716Y19893D02*
X184725Y19905D01*
X184707Y19880D02*
X184716Y19893D01*
X184699Y19868D02*
X184707Y19880D01*
X184690Y19856D02*
X184699Y19868D01*
X184682Y19844D02*
X184690Y19856D01*
X184674Y19832D02*
X184682Y19844D01*
X184667Y19820D02*
X184674Y19832D01*
X184659Y19808D02*
X184667Y19820D01*
X184652Y19796D02*
X184659Y19808D01*
X184646Y19786D02*
X184652Y19796D01*
X184640Y19776D02*
X184646Y19786D01*
X184634Y19765D02*
X184640Y19776D01*
X184628Y19755D02*
X184634Y19765D01*
X184622Y19745D02*
X184628Y19755D01*
X184617Y19735D02*
X184622Y19745D01*
X184611Y19725D02*
X184617Y19735D01*
X184606Y19716D02*
X184611Y19725D01*
X184601Y19706D02*
X184606Y19716D01*
X184596Y19696D02*
X184601Y19706D01*
X184591Y19687D02*
X184596Y19696D01*
X184587Y19678D02*
X184591Y19687D01*
X184582Y19668D02*
X184587Y19678D01*
X184578Y19660D02*
X184582Y19668D01*
X184575Y19652D02*
X184578Y19660D01*
X184571Y19644D02*
X184575Y19652D01*
X184567Y19637D02*
X184571Y19644D01*
X184564Y19629D02*
X184567Y19637D01*
X184560Y19621D02*
X184564Y19629D01*
X184557Y19614D02*
X184560Y19621D01*
X184554Y19606D02*
X184557Y19614D01*
X184551Y19600D02*
X184554Y19606D01*
X184549Y19593D02*
X184551Y19600D01*
X184546Y19587D02*
X184549Y19593D01*
X184543Y19581D02*
X184546Y19587D01*
X184541Y19575D02*
X184543Y19581D01*
X184539Y19568D02*
X184541Y19575D01*
X184536Y19563D02*
X184539Y19568D01*
X184534Y19557D02*
X184536Y19563D01*
X184532Y19552D02*
X184534Y19557D01*
X184530Y19547D02*
X184532Y19552D01*
X184529Y19542D02*
X184530Y19547D01*
X184527Y19537D02*
X184529Y19542D01*
X184525Y19532D02*
X184527Y19537D01*
X184524Y19528D02*
X184525Y19532D01*
X184522Y19523D02*
X184524Y19528D01*
X184521Y19518D02*
X184522Y19523D01*
X184519Y19514D02*
X184521Y19518D01*
X184518Y19510D02*
X184519Y19514D01*
X184517Y19506D02*
X184518Y19510D01*
X184516Y19503D02*
X184517Y19506D01*
X184514Y19499D02*
X184516Y19503D01*
X184513Y19496D02*
X184514Y19499D01*
X184512Y19492D02*
X184513Y19496D01*
X184511Y19489D02*
X184512Y19492D01*
X184510Y19486D02*
X184511Y19489D01*
X184509Y19482D02*
X184510Y19486D01*
X184508Y19479D02*
X184509Y19482D01*
X184507Y19476D02*
X184508Y19479D01*
X184507Y19473D02*
X184507Y19476D01*
X184506Y19471D02*
X184507Y19473D01*
X184505Y19468D02*
X184506Y19471D01*
X184505Y19466D02*
X184505Y19468D01*
X184504Y19463D02*
X184505Y19466D01*
X184503Y19461D02*
X184504Y19463D01*
X184503Y19458D02*
X184503Y19461D01*
X184502Y19456D02*
X184503Y19458D01*
X184501Y19454D02*
X184502Y19456D01*
X184501Y19452D02*
X184501Y19454D01*
X184500Y19449D02*
X184501Y19452D01*
X184500Y19447D02*
X184500Y19449D01*
X184499Y19445D02*
X184500Y19447D01*
X184499Y19443D02*
X184499Y19445D01*
X184498Y19441D02*
X184499Y19443D01*
X184498Y19440D02*
X184498Y19441D01*
X184498Y19438D02*
X184498Y19440D01*
X184497Y19437D02*
X184498Y19438D01*
X184497Y19435D02*
X184497Y19437D01*
X184497Y19434D02*
X184497Y19435D01*
X184496Y19432D02*
X184497Y19434D01*
X184496Y19431D02*
X184496Y19432D01*
X184496Y19429D02*
X184496Y19431D01*
X184495Y19428D02*
X184496Y19429D01*
X184495Y19427D02*
X184495Y19428D01*
X184495Y19425D02*
X184495Y19427D01*
X184494Y19424D02*
X184495Y19425D01*
X184494Y19422D02*
X184494Y19424D01*
X184494Y19421D02*
X184494Y19422D01*
X184494Y19420D02*
X184494Y19421D01*
X184493Y19419D02*
X184494Y19420D01*
X184493Y19417D02*
X184493Y19419D01*
X184493Y19416D02*
X184493Y19417D01*
X184492Y19415D02*
X184493Y19416D01*
X184492Y19414D02*
X184492Y19415D01*
X184492Y19413D02*
X184492Y19414D01*
X184492Y19412D02*
Y19413D01*
X184492Y19411D02*
X184492Y19412D01*
X184492Y19411D02*
X184492Y19411D01*
X184491Y19410D02*
X184492Y19411D01*
X184491Y19409D02*
Y19410D01*
X184491Y19408D02*
X184491Y19409D01*
X184491Y19408D02*
X184491Y19408D01*
X184491Y19407D02*
Y19408D01*
X184491Y19406D02*
X184491Y19407D01*
X184491Y19406D02*
X184491Y19406D01*
X184491Y19405D02*
Y19406D01*
X184490Y19404D02*
X184491Y19405D01*
X184490Y19404D02*
Y19404D01*
X184490Y19403D02*
X184490Y19404D01*
X184490Y19402D02*
X184490Y19403D01*
X184490Y19402D02*
Y19402D01*
X184490Y19401D02*
X184490Y19402D01*
X184490Y19400D02*
Y19401D01*
X184490Y19400D02*
X184490Y19400D01*
X184490Y19399D02*
Y19400D01*
X184489Y19399D02*
X184490Y19399D01*
X184489Y19398D02*
Y19399D01*
X184489Y19398D02*
X184489Y19398D01*
X184489Y19397D02*
Y19398D01*
X184489Y19396D02*
X184489Y19397D01*
X184489Y19396D02*
Y19396D01*
X184489Y19395D02*
X184489Y19396D01*
X184489Y19395D02*
Y19395D01*
X184489Y19394D02*
X184489Y19395D01*
X184489Y19394D02*
Y19394D01*
Y19393D02*
Y19394D01*
X184488Y19393D02*
X184489Y19393D01*
X184488Y19392D02*
Y19393D01*
Y19392D02*
Y19392D01*
X184488Y19391D02*
X184488Y19392D01*
X184488Y19391D02*
Y19391D01*
Y19391D02*
Y19391D01*
Y19391D02*
Y19391D01*
Y19391D02*
Y19391D01*
X184488Y19390D02*
X184488Y19391D01*
X184488Y19390D02*
Y19390D01*
Y19390D02*
Y19390D01*
Y19390D02*
Y19390D01*
Y19389D02*
Y19390D01*
Y19389D02*
Y19389D01*
X184488Y19389D02*
X184488Y19389D01*
X184488Y19389D02*
Y19389D01*
Y19389D02*
Y19389D01*
Y19388D02*
Y19389D01*
Y19388D02*
Y19388D01*
Y19388D02*
Y19388D01*
Y19388D02*
Y19388D01*
X184488Y19388D02*
X184488Y19388D01*
X184488Y19387D02*
Y19388D01*
Y19387D02*
Y19387D01*
Y19387D02*
Y19387D01*
Y19387D02*
Y19387D01*
Y19387D02*
Y19387D01*
Y19386D02*
Y19387D01*
X184487Y19386D02*
X184488Y19386D01*
X184487Y19386D02*
Y19386D01*
Y19386D02*
Y19386D01*
Y19386D02*
Y19386D01*
Y19385D02*
Y19386D01*
Y19385D02*
Y19385D01*
Y19385D02*
Y19385D01*
Y19385D02*
Y19385D01*
X184487Y19385D02*
X184487D01*
X184487Y19385D02*
Y19385D01*
Y19384D02*
Y19385D01*
Y19384D02*
Y19384D01*
Y19384D02*
Y19384D01*
Y19384D02*
Y19384D01*
Y19384D02*
Y19384D01*
Y19383D02*
Y19384D01*
X184487Y19383D02*
X184487Y19383D01*
X184487Y19383D02*
Y19383D01*
Y19383D02*
Y19383D01*
Y19383D02*
Y19383D01*
Y19382D02*
Y19383D01*
Y19382D02*
Y19382D01*
Y19382D02*
Y19382D01*
Y19382D02*
Y19382D01*
Y19382D02*
Y19382D01*
X184487Y19381D02*
X184487Y19382D01*
X184487Y19381D02*
Y19381D01*
X193307Y4100D02*
Y6991D01*
X181812Y4100D02*
X193307D01*
X181812D02*
Y6991D01*
X193307D01*
X66400Y43168D02*
Y41528D01*
X66072Y41200D01*
X65416D01*
X65088Y41528D01*
Y43168D01*
X64432Y41200D02*
X63776D01*
X64104D01*
Y43168D01*
X64432Y42840D01*
X61480Y41200D02*
X62792D01*
X61480Y42512D01*
Y42840D01*
X61808Y43168D01*
X62464D01*
X62792Y42840D01*
X22809Y62008D02*
X24777D01*
Y62992D01*
X24449Y63320D01*
X23793D01*
X23465Y62992D01*
Y62008D01*
Y62664D02*
X22809Y63320D01*
X24449Y63976D02*
X24777Y64304D01*
Y64960D01*
X24449Y65288D01*
X24121D01*
X23793Y64960D01*
Y64632D01*
Y64960D01*
X23465Y65288D01*
X23137D01*
X22809Y64960D01*
Y64304D01*
X23137Y63976D01*
Y65944D02*
X22809Y66272D01*
Y66927D01*
X23137Y67256D01*
X24449D01*
X24777Y66927D01*
Y66272D01*
X24449Y65944D01*
X24121D01*
X23793Y66272D01*
Y67256D01*
X73765Y55578D02*
X74093Y55906D01*
X74749D01*
X75077Y55578D01*
Y54266D01*
X74749Y53938D01*
X74093D01*
X73765Y54266D01*
X71797Y55906D02*
X73109D01*
Y54922D01*
X72453Y55250D01*
X72125D01*
X71797Y54922D01*
Y54266D01*
X72125Y53938D01*
X72781D01*
X73109Y54266D01*
X69830Y55906D02*
X71141D01*
Y54922D01*
X70486Y55250D01*
X70158D01*
X69830Y54922D01*
Y54266D01*
X70158Y53938D01*
X70814D01*
X71141Y54266D01*
X126059Y43619D02*
X124747D01*
X125403D01*
Y41651D01*
X124091D02*
Y43619D01*
X123107D01*
X122779Y43291D01*
Y42635D01*
X123107Y42307D01*
X124091D01*
X121139Y41651D02*
Y43619D01*
X122123Y42635D01*
X120811D01*
X92827Y160328D02*
Y158361D01*
X91843D01*
X91515Y158689D01*
Y160001D01*
X91843Y160328D01*
X92827D01*
X90859Y160001D02*
X90531Y160328D01*
X89875D01*
X89547Y160001D01*
Y159672D01*
X89875Y159345D01*
X90203D01*
X89875D01*
X89547Y159017D01*
Y158689D01*
X89875Y158361D01*
X90531D01*
X90859Y158689D01*
X95800Y160200D02*
X97768D01*
Y161184D01*
X97440Y161512D01*
X96784D01*
X96456Y161184D01*
Y160200D01*
Y160856D02*
X95800Y161512D01*
X97440Y162168D02*
X97768Y162496D01*
Y163152D01*
X97440Y163480D01*
X97112D01*
X96784Y163152D01*
Y162824D01*
Y163152D01*
X96456Y163480D01*
X96128D01*
X95800Y163152D01*
Y162496D01*
X96128Y162168D01*
X97440Y164136D02*
X97768Y164464D01*
Y165120D01*
X97440Y165448D01*
X97112D01*
X96784Y165120D01*
X96456Y165448D01*
X96128D01*
X95800Y165120D01*
Y164464D01*
X96128Y164136D01*
X96456D01*
X96784Y164464D01*
X97112Y164136D01*
X97440D01*
X96784Y164464D02*
Y165120D01*
X89388Y157340D02*
X89716Y157668D01*
X90372D01*
X90700Y157340D01*
Y156028D01*
X90372Y155700D01*
X89716D01*
X89388Y156028D01*
X87420Y157668D02*
X88732D01*
Y156684D01*
X88076Y157012D01*
X87748D01*
X87420Y156684D01*
Y156028D01*
X87748Y155700D01*
X88404D01*
X88732Y156028D01*
X85780Y155700D02*
Y157668D01*
X86764Y156684D01*
X85452D01*
X126059Y55419D02*
X124747D01*
X125403D01*
Y53451D01*
X124091D02*
Y55419D01*
X123107D01*
X122779Y55091D01*
Y54435D01*
X123107Y54107D01*
X124091D01*
X120811Y53451D02*
X122123D01*
X120811Y54763D01*
Y55091D01*
X121139Y55419D01*
X121795D01*
X122123Y55091D01*
X126059Y49519D02*
X124747D01*
X125403D01*
Y47551D01*
X124091D02*
Y49519D01*
X123107D01*
X122779Y49191D01*
Y48535D01*
X123107Y48207D01*
X124091D01*
X122123Y49191D02*
X121795Y49519D01*
X121139D01*
X120811Y49191D01*
Y48863D01*
X121139Y48535D01*
X121467D01*
X121139D01*
X120811Y48207D01*
Y47879D01*
X121139Y47551D01*
X121795D01*
X122123Y47879D01*
X27625Y102132D02*
X27953Y102460D01*
X28609D01*
X28937Y102132D01*
Y100820D01*
X28609Y100492D01*
X27953D01*
X27625Y100820D01*
X25985Y100492D02*
Y102460D01*
X26969Y101476D01*
X25657D01*
X24017Y100492D02*
Y102460D01*
X25001Y101476D01*
X23689D01*
X28117Y91305D02*
X28445Y91633D01*
X29101D01*
X29429Y91305D01*
Y89993D01*
X29101Y89665D01*
X28445D01*
X28117Y89993D01*
X26477Y89665D02*
Y91633D01*
X27461Y90649D01*
X26149D01*
X25493Y91305D02*
X25165Y91633D01*
X24509D01*
X24182Y91305D01*
Y90977D01*
X24509Y90649D01*
X24837D01*
X24509D01*
X24182Y90321D01*
Y89993D01*
X24509Y89665D01*
X25165D01*
X25493Y89993D01*
X53488Y145640D02*
X53816Y145968D01*
X54472D01*
X54800Y145640D01*
Y144328D01*
X54472Y144000D01*
X53816D01*
X53488Y144328D01*
X51520Y145968D02*
X52832D01*
Y144984D01*
X52176Y145312D01*
X51848D01*
X51520Y144984D01*
Y144328D01*
X51848Y144000D01*
X52504D01*
X52832Y144328D01*
X49552Y144000D02*
X50864D01*
X49552Y145312D01*
Y145640D01*
X49880Y145968D01*
X50536D01*
X50864Y145640D01*
X35459Y157480D02*
X37427D01*
Y158464D01*
X37099Y158792D01*
X36443D01*
X36115Y158464D01*
Y157480D01*
Y158136D02*
X35459Y158792D01*
X37099Y159448D02*
X37427Y159776D01*
Y160432D01*
X37099Y160760D01*
X36771D01*
X36443Y160432D01*
Y160104D01*
Y160432D01*
X36115Y160760D01*
X35787D01*
X35459Y160432D01*
Y159776D01*
X35787Y159448D01*
X37427Y161416D02*
Y162728D01*
X37099D01*
X35787Y161416D01*
X35459D01*
X138110Y105679D02*
Y107647D01*
X137126D01*
X136798Y107319D01*
Y106663D01*
X137126Y106335D01*
X138110D01*
X137454D02*
X136798Y105679D01*
X136142D02*
X135486D01*
X135814D01*
Y107647D01*
X136142Y107319D01*
X133519Y105679D02*
Y107647D01*
X134502Y106663D01*
X133191D01*
X138110Y108379D02*
Y110347D01*
X137126D01*
X136798Y110019D01*
Y109363D01*
X137126Y109035D01*
X138110D01*
X137454D02*
X136798Y108379D01*
X136142D02*
X135486D01*
X135814D01*
Y110347D01*
X136142Y110019D01*
X134502D02*
X134175Y110347D01*
X133519D01*
X133191Y110019D01*
Y109691D01*
X133519Y109363D01*
X133846D01*
X133519D01*
X133191Y109035D01*
Y108707D01*
X133519Y108379D01*
X134175D01*
X134502Y108707D01*
X138110Y111079D02*
Y113047D01*
X137126D01*
X136798Y112719D01*
Y112063D01*
X137126Y111735D01*
X138110D01*
X137454D02*
X136798Y111079D01*
X136142D02*
X135486D01*
X135814D01*
Y113047D01*
X136142Y112719D01*
X133191Y111079D02*
X134502D01*
X133191Y112391D01*
Y112719D01*
X133519Y113047D01*
X134175D01*
X134502Y112719D01*
X177953Y139173D02*
Y137205D01*
X176641D01*
X175985Y139173D02*
Y137205D01*
X175001D01*
X174673Y137533D01*
Y138845D01*
X175001Y139173D01*
X175985D01*
X174017Y138845D02*
X173689Y139173D01*
X173033D01*
X172705Y138845D01*
Y138517D01*
X173033Y138189D01*
X173361D01*
X173033D01*
X172705Y137861D01*
Y137533D01*
X173033Y137205D01*
X173689D01*
X174017Y137533D01*
X79636Y127265D02*
X79964Y126937D01*
Y126281D01*
X79636Y125953D01*
X78324D01*
X77996Y126281D01*
Y126937D01*
X78324Y127265D01*
X77996Y128905D02*
X79964D01*
X78980Y127921D01*
Y129233D01*
X79636Y129888D02*
X79964Y130217D01*
Y130872D01*
X79636Y131200D01*
X78324D01*
X77996Y130872D01*
Y130217D01*
X78324Y129888D01*
X79636D01*
X79716Y120312D02*
X80043Y119984D01*
Y119328D01*
X79716Y119000D01*
X78404D01*
X78076Y119328D01*
Y119984D01*
X78404Y120312D01*
X78076Y121952D02*
X80043D01*
X79059Y120968D01*
Y122280D01*
X78076Y122936D02*
Y123592D01*
Y123264D01*
X80043D01*
X79716Y122936D01*
X149300Y85568D02*
Y83928D01*
X148972Y83600D01*
X148316D01*
X147988Y83928D01*
Y85568D01*
X147332Y83600D02*
X146676D01*
X147004D01*
Y85568D01*
X147332Y85240D01*
X145692D02*
X145364Y85568D01*
X144708D01*
X144380Y85240D01*
Y83928D01*
X144708Y83600D01*
X145364D01*
X145692Y83928D01*
Y85240D01*
X129200Y169751D02*
Y171719D01*
X128216D01*
X127888Y171391D01*
Y170735D01*
X128216Y170407D01*
X129200D01*
X128544D02*
X127888Y169751D01*
X127232D02*
X126576D01*
X126904D01*
Y171719D01*
X127232Y171391D01*
X125592Y171719D02*
X124280D01*
Y171391D01*
X125592Y170079D01*
Y169751D01*
X129200Y180251D02*
Y182219D01*
X128216D01*
X127888Y181891D01*
Y181235D01*
X128216Y180907D01*
X129200D01*
X128544D02*
X127888Y180251D01*
X127232D02*
X126576D01*
X126904D01*
Y182219D01*
X127232Y181891D01*
X124280Y182219D02*
X124936Y181891D01*
X125592Y181235D01*
Y180579D01*
X125264Y180251D01*
X124608D01*
X124280Y180579D01*
Y180907D01*
X124608Y181235D01*
X125592D01*
X14500Y57300D02*
Y59268D01*
X13516D01*
X13188Y58940D01*
Y58284D01*
X13516Y57956D01*
X14500D01*
X12532Y58940D02*
X12204Y59268D01*
X11548D01*
X11220Y58940D01*
Y58612D01*
X11548Y58284D01*
X11220Y57956D01*
Y57628D01*
X11548Y57300D01*
X12204D01*
X12532Y57628D01*
Y57956D01*
X12204Y58284D01*
X12532Y58612D01*
Y58940D01*
X12204Y58284D02*
X11548D01*
X139566Y172047D02*
X137598D01*
Y173359D01*
X139566Y174015D02*
X137598D01*
Y174999D01*
X137926Y175327D01*
X139238D01*
X139566Y174999D01*
Y174015D01*
X137598Y177295D02*
Y175983D01*
X138910Y177295D01*
X139238D01*
X139566Y176967D01*
Y176311D01*
X139238Y175983D01*
X50740Y64312D02*
X51068Y63984D01*
Y63328D01*
X50740Y63000D01*
X49428D01*
X49100Y63328D01*
Y63984D01*
X49428Y64312D01*
X51068Y66280D02*
Y64968D01*
X50084D01*
X50412Y65624D01*
Y65952D01*
X50084Y66280D01*
X49428D01*
X49100Y65952D01*
Y65296D01*
X49428Y64968D01*
X51068Y66936D02*
Y68248D01*
X50740D01*
X49428Y66936D01*
X49100D01*
X50740Y57812D02*
X51068Y57484D01*
Y56828D01*
X50740Y56500D01*
X49428D01*
X49100Y56828D01*
Y57484D01*
X49428Y57812D01*
X51068Y59780D02*
Y58468D01*
X50084D01*
X50412Y59124D01*
Y59452D01*
X50084Y59780D01*
X49428D01*
X49100Y59452D01*
Y58796D01*
X49428Y58468D01*
X51068Y61748D02*
X50740Y61092D01*
X50084Y60436D01*
X49428D01*
X49100Y60764D01*
Y61420D01*
X49428Y61748D01*
X49756D01*
X50084Y61420D01*
Y60436D01*
X136679Y90682D02*
X137007Y90354D01*
Y89698D01*
X136679Y89370D01*
X135367D01*
X135039Y89698D01*
Y90354D01*
X135367Y90682D01*
X135039Y92322D02*
X137007D01*
X136023Y91338D01*
Y92650D01*
X135039Y94618D02*
Y93306D01*
X136351Y94618D01*
X136679D01*
X137007Y94290D01*
Y93634D01*
X136679Y93306D01*
X142188Y152540D02*
X142516Y152868D01*
X143172D01*
X143500Y152540D01*
Y151228D01*
X143172Y150900D01*
X142516D01*
X142188Y151228D01*
X141532Y152540D02*
X141204Y152868D01*
X140548D01*
X140220Y152540D01*
Y152212D01*
X140548Y151884D01*
X140876D01*
X140548D01*
X140220Y151556D01*
Y151228D01*
X140548Y150900D01*
X141204D01*
X141532Y151228D01*
X139564Y152868D02*
X138252D01*
Y152540D01*
X139564Y151228D01*
Y150900D01*
X126924Y152340D02*
X127252Y152668D01*
X127908D01*
X128236Y152340D01*
Y151028D01*
X127908Y150700D01*
X127252D01*
X126924Y151028D01*
X126268Y152340D02*
X125940Y152668D01*
X125284D01*
X124956Y152340D01*
Y152012D01*
X125284Y151684D01*
X125612D01*
X125284D01*
X124956Y151356D01*
Y151028D01*
X125284Y150700D01*
X125940D01*
X126268Y151028D01*
X122988Y152668D02*
X123644Y152340D01*
X124300Y151684D01*
Y151028D01*
X123972Y150700D01*
X123316D01*
X122988Y151028D01*
Y151356D01*
X123316Y151684D01*
X124300D01*
X10488Y83868D02*
X11144D01*
X10816D01*
Y82228D01*
X11144Y81900D01*
X11472D01*
X11800Y82228D01*
X8520Y83868D02*
X9176Y83540D01*
X9832Y82884D01*
Y82228D01*
X9504Y81900D01*
X8848D01*
X8520Y82228D01*
Y82556D01*
X8848Y82884D01*
X9832D01*
X129200Y173251D02*
Y175219D01*
X128216D01*
X127888Y174891D01*
Y174235D01*
X128216Y173907D01*
X129200D01*
X128544D02*
X127888Y173251D01*
X127232D02*
X126576D01*
X126904D01*
Y175219D01*
X127232Y174891D01*
X124280Y175219D02*
X125592D01*
Y174235D01*
X124936Y174563D01*
X124608D01*
X124280Y174235D01*
Y173579D01*
X124608Y173251D01*
X125264D01*
X125592Y173579D01*
X10302Y136876D02*
X10630Y137204D01*
X11286D01*
X11614Y136876D01*
Y136548D01*
X11286Y136220D01*
X10630D01*
X10302Y135892D01*
Y135564D01*
X10630Y135236D01*
X11286D01*
X11614Y135564D01*
X9646Y137204D02*
Y135236D01*
X8990Y135892D01*
X8334Y135236D01*
Y137204D01*
X7678Y135236D02*
X7023D01*
X7350D01*
Y137204D01*
X7678Y136876D01*
X129200Y183751D02*
Y185719D01*
X128216D01*
X127888Y185391D01*
Y184735D01*
X128216Y184407D01*
X129200D01*
X128544D02*
X127888Y183751D01*
X127232D02*
X126576D01*
X126904D01*
Y185719D01*
X127232Y185391D01*
X125592Y184079D02*
X125264Y183751D01*
X124608D01*
X124280Y184079D01*
Y185391D01*
X124608Y185719D01*
X125264D01*
X125592Y185391D01*
Y185063D01*
X125264Y184735D01*
X124280D01*
X129200Y166251D02*
Y168219D01*
X128216D01*
X127888Y167891D01*
Y167235D01*
X128216Y166907D01*
X129200D01*
X128544D02*
X127888Y166251D01*
X125920D02*
X127232D01*
X125920Y167563D01*
Y167891D01*
X126248Y168219D01*
X126904D01*
X127232Y167891D01*
X125264D02*
X124936Y168219D01*
X124280D01*
X123952Y167891D01*
Y166579D01*
X124280Y166251D01*
X124936D01*
X125264Y166579D01*
Y167891D01*
X129200Y176751D02*
Y178719D01*
X128216D01*
X127888Y178391D01*
Y177735D01*
X128216Y177407D01*
X129200D01*
X128544D02*
X127888Y176751D01*
X127232D02*
X126576D01*
X126904D01*
Y178719D01*
X127232Y178391D01*
X125592D02*
X125264Y178719D01*
X124608D01*
X124280Y178391D01*
Y178063D01*
X124608Y177735D01*
X124280Y177407D01*
Y177079D01*
X124608Y176751D01*
X125264D01*
X125592Y177079D01*
Y177407D01*
X125264Y177735D01*
X125592Y178063D01*
Y178391D01*
X125264Y177735D02*
X124608D01*
X139828Y189312D02*
X141140D01*
X141468Y188984D01*
Y188328D01*
X141140Y188000D01*
X139828D01*
X139500Y188328D01*
Y188984D01*
X140156Y188656D02*
X139500Y189312D01*
Y188984D02*
X139828Y189312D01*
X139500Y191280D02*
Y189968D01*
X140812Y191280D01*
X141140D01*
X141468Y190952D01*
Y190296D01*
X141140Y189968D01*
X140328Y161312D02*
X141640D01*
X141968Y160984D01*
Y160328D01*
X141640Y160000D01*
X140328D01*
X140000Y160328D01*
Y160984D01*
X140656Y160656D02*
X140000Y161312D01*
Y160984D02*
X140328Y161312D01*
X141640Y161968D02*
X141968Y162296D01*
Y162952D01*
X141640Y163280D01*
X141312D01*
X140984Y162952D01*
Y162624D01*
Y162952D01*
X140656Y163280D01*
X140328D01*
X140000Y162952D01*
Y162296D01*
X140328Y161968D01*
X152668Y105000D02*
X150700D01*
Y106312D01*
X152668Y106968D02*
X150700D01*
Y107952D01*
X151028Y108280D01*
X152340D01*
X152668Y107952D01*
Y106968D01*
X150700Y108936D02*
Y109592D01*
Y109264D01*
X152668D01*
X152340Y108936D01*
X59842Y102051D02*
Y104019D01*
X58859D01*
X58531Y103691D01*
Y103035D01*
X58859Y102707D01*
X59842D01*
X59187D02*
X58531Y102051D01*
X56563D02*
X57875D01*
X56563Y103363D01*
Y103691D01*
X56891Y104019D01*
X57547D01*
X57875Y103691D01*
X54595Y102051D02*
X55907D01*
X54595Y103363D01*
Y103691D01*
X54923Y104019D01*
X55579D01*
X55907Y103691D01*
X59842Y99551D02*
Y101519D01*
X58859D01*
X58531Y101191D01*
Y100535D01*
X58859Y100207D01*
X59842D01*
X59187D02*
X58531Y99551D01*
X56563D02*
X57875D01*
X56563Y100863D01*
Y101191D01*
X56891Y101519D01*
X57547D01*
X57875Y101191D01*
X55907D02*
X55579Y101519D01*
X54923D01*
X54595Y101191D01*
Y100863D01*
X54923Y100535D01*
X55251D01*
X54923D01*
X54595Y100207D01*
Y99879D01*
X54923Y99551D01*
X55579D01*
X55907Y99879D01*
X29003Y143291D02*
X29331Y143619D01*
X29987D01*
X30315Y143291D01*
Y141979D01*
X29987Y141651D01*
X29331D01*
X29003Y141979D01*
X27035Y143619D02*
X28347D01*
Y142635D01*
X27691Y142963D01*
X27363D01*
X27035Y142635D01*
Y141979D01*
X27363Y141651D01*
X28019D01*
X28347Y141979D01*
X26379Y143291D02*
X26051Y143619D01*
X25395D01*
X25067Y143291D01*
Y142963D01*
X25395Y142635D01*
X25723D01*
X25395D01*
X25067Y142307D01*
Y141979D01*
X25395Y141651D01*
X26051D01*
X26379Y141979D01*
X51300Y132500D02*
Y134468D01*
X50316D01*
X49988Y134140D01*
Y133484D01*
X50316Y133156D01*
X51300D01*
X50644D02*
X49988Y132500D01*
X48020D02*
X49332D01*
X48020Y133812D01*
Y134140D01*
X48348Y134468D01*
X49004D01*
X49332Y134140D01*
X46052Y134468D02*
X46708Y134140D01*
X47364Y133484D01*
Y132828D01*
X47036Y132500D01*
X46380D01*
X46052Y132828D01*
Y133156D01*
X46380Y133484D01*
X47364D01*
X37859Y157480D02*
X39827D01*
Y158464D01*
X39499Y158792D01*
X38843D01*
X38515Y158464D01*
Y157480D01*
Y158136D02*
X37859Y158792D01*
X39499Y159448D02*
X39827Y159776D01*
Y160432D01*
X39499Y160760D01*
X39171D01*
X38843Y160432D01*
Y160104D01*
Y160432D01*
X38515Y160760D01*
X38187D01*
X37859Y160432D01*
Y159776D01*
X38187Y159448D01*
X39827Y162728D02*
X39499Y162072D01*
X38843Y161416D01*
X38187D01*
X37859Y161744D01*
Y162400D01*
X38187Y162728D01*
X38515D01*
X38843Y162400D01*
Y161416D01*
X47704Y37893D02*
X48360D01*
X48032D01*
Y36253D01*
X48360Y35925D01*
X48688D01*
X49016Y36253D01*
X45736Y37893D02*
X47048D01*
Y36909D01*
X46392Y37237D01*
X46064D01*
X45736Y36909D01*
Y36253D01*
X46064Y35925D01*
X46720D01*
X47048Y36253D01*
X29003Y147791D02*
X29331Y148119D01*
X29987D01*
X30315Y147791D01*
Y146479D01*
X29987Y146151D01*
X29331D01*
X29003Y146479D01*
X27035Y148119D02*
X28347D01*
Y147135D01*
X27691Y147463D01*
X27363D01*
X27035Y147135D01*
Y146479D01*
X27363Y146151D01*
X28019D01*
X28347Y146479D01*
X26379Y146151D02*
X25723D01*
X26051D01*
Y148119D01*
X26379Y147791D01*
X29003Y152291D02*
X29331Y152619D01*
X29987D01*
X30315Y152291D01*
Y150979D01*
X29987Y150651D01*
X29331D01*
X29003Y150979D01*
X27035Y152619D02*
X28347D01*
Y151635D01*
X27691Y151963D01*
X27363D01*
X27035Y151635D01*
Y150979D01*
X27363Y150651D01*
X28019D01*
X28347Y150979D01*
X26379Y152291D02*
X26051Y152619D01*
X25395D01*
X25067Y152291D01*
Y150979D01*
X25395Y150651D01*
X26051D01*
X26379Y150979D01*
Y152291D01*
X71909Y148568D02*
Y146600D01*
X70597D01*
X69942D02*
X69286D01*
X69614D01*
Y148568D01*
X69942Y148240D01*
X68302D02*
X67974Y148568D01*
X67318D01*
X66990Y148240D01*
Y147912D01*
X67318Y147584D01*
X67646D01*
X67318D01*
X66990Y147256D01*
Y146928D01*
X67318Y146600D01*
X67974D01*
X68302Y146928D01*
X42500Y156168D02*
Y154528D01*
X42172Y154200D01*
X41516D01*
X41188Y154528D01*
Y156168D01*
X40532Y154200D02*
X39876D01*
X40204D01*
Y156168D01*
X40532Y155840D01*
X38892Y154200D02*
X38236D01*
X38564D01*
Y156168D01*
X38892Y155840D01*
X134600Y135068D02*
Y133428D01*
X134272Y133100D01*
X133616D01*
X133288Y133428D01*
Y135068D01*
X132632D02*
X131320D01*
Y134740D01*
X132632Y133428D01*
Y133100D01*
X90945Y117716D02*
Y116076D01*
X90617Y115748D01*
X89961D01*
X89633Y116076D01*
Y117716D01*
X88977Y116076D02*
X88649Y115748D01*
X87993D01*
X87665Y116076D01*
Y117388D01*
X87993Y117716D01*
X88649D01*
X88977Y117388D01*
Y117060D01*
X88649Y116732D01*
X87665D01*
X65440Y134712D02*
X65768Y134384D01*
Y133728D01*
X65440Y133400D01*
X64128D01*
X63800Y133728D01*
Y134384D01*
X64128Y134712D01*
X63800Y136352D02*
X65768D01*
X64784Y135368D01*
Y136680D01*
X65768Y138648D02*
X65440Y137992D01*
X64784Y137336D01*
X64128D01*
X63800Y137664D01*
Y138320D01*
X64128Y138648D01*
X64456D01*
X64784Y138320D01*
Y137336D01*
X61088Y138540D02*
X61416Y138868D01*
X62072D01*
X62400Y138540D01*
Y137228D01*
X62072Y136900D01*
X61416D01*
X61088Y137228D01*
X59448Y136900D02*
Y138868D01*
X60432Y137884D01*
X59120D01*
X58464Y138868D02*
X57152D01*
Y138540D01*
X58464Y137228D01*
Y136900D01*
X53988Y164140D02*
X54316Y164468D01*
X54972D01*
X55300Y164140D01*
Y162828D01*
X54972Y162500D01*
X54316D01*
X53988Y162828D01*
X52348Y162500D02*
Y164468D01*
X53332Y163484D01*
X52020D01*
X51364Y164140D02*
X51036Y164468D01*
X50380D01*
X50052Y164140D01*
Y163812D01*
X50380Y163484D01*
X50052Y163156D01*
Y162828D01*
X50380Y162500D01*
X51036D01*
X51364Y162828D01*
Y163156D01*
X51036Y163484D01*
X51364Y163812D01*
Y164140D01*
X51036Y163484D02*
X50380D01*
X58340Y163812D02*
X58668Y163484D01*
Y162828D01*
X58340Y162500D01*
X57028D01*
X56700Y162828D01*
Y163484D01*
X57028Y163812D01*
X56700Y165452D02*
X58668D01*
X57684Y164468D01*
Y165780D01*
X57028Y166436D02*
X56700Y166764D01*
Y167420D01*
X57028Y167748D01*
X58340D01*
X58668Y167420D01*
Y166764D01*
X58340Y166436D01*
X58012D01*
X57684Y166764D01*
Y167748D01*
X40519Y195373D02*
X41175D01*
X40847D01*
Y193734D01*
X41175Y193405D01*
X41503D01*
X41831Y193734D01*
X39863Y195045D02*
X39535Y195373D01*
X38879D01*
X38551Y195045D01*
Y194717D01*
X38879Y194389D01*
X39207D01*
X38879D01*
X38551Y194062D01*
Y193734D01*
X38879Y193405D01*
X39535D01*
X39863Y193734D01*
X70472Y157909D02*
X68504D01*
Y159221D01*
Y159877D02*
Y160532D01*
Y160204D01*
X70472D01*
X70144Y159877D01*
X68504Y162500D02*
X70472D01*
X69488Y161516D01*
Y162828D01*
X32349Y128280D02*
X32677Y127952D01*
Y127296D01*
X32349Y126969D01*
X32021D01*
X31693Y127296D01*
Y127952D01*
X31365Y128280D01*
X31037D01*
X30709Y127952D01*
Y127296D01*
X31037Y126969D01*
X32677Y128936D02*
X30709D01*
Y129920D01*
X31037Y130248D01*
X31365D01*
X31693Y129920D01*
Y128936D01*
Y129920D01*
X32021Y130248D01*
X32349D01*
X32677Y129920D01*
Y128936D01*
X30709Y132216D02*
Y130904D01*
X32021Y132216D01*
X32349D01*
X32677Y131888D01*
Y131232D01*
X32349Y130904D01*
X123166Y22699D02*
X123494Y22371D01*
Y21715D01*
X123166Y21387D01*
X121854D01*
X121526Y21715D01*
Y22371D01*
X121854Y22699D01*
X121526Y23355D02*
Y24011D01*
Y23683D01*
X123494D01*
X123166Y23355D01*
X123494Y24995D02*
Y26307D01*
X123166D01*
X121854Y24995D01*
X121526D01*
X122098Y5727D02*
X122425Y6055D01*
X123082D01*
X123409Y5727D01*
Y4415D01*
X123082Y4087D01*
X122425D01*
X122098Y4415D01*
X121442Y4087D02*
X120786D01*
X121114D01*
Y6055D01*
X121442Y5727D01*
X119802D02*
X119474Y6055D01*
X118818D01*
X118490Y5727D01*
Y4415D01*
X118818Y4087D01*
X119474D01*
X119802Y4415D01*
Y5727D01*
X120537Y15879D02*
X120865Y15551D01*
Y14895D01*
X120537Y14567D01*
X119226D01*
X118898Y14895D01*
Y15551D01*
X119226Y15879D01*
Y16535D02*
X118898Y16863D01*
Y17519D01*
X119226Y17847D01*
X120537D01*
X120865Y17519D01*
Y16863D01*
X120537Y16535D01*
X120210D01*
X119882Y16863D01*
Y17847D01*
X135427Y7143D02*
X135755Y7471D01*
X136411D01*
X136739Y7143D01*
Y5831D01*
X136411Y5503D01*
X135755D01*
X135427Y5831D01*
X134771Y5503D02*
X134115D01*
X134443D01*
Y7471D01*
X134771Y7143D01*
X133131Y5503D02*
X132475D01*
X132803D01*
Y7471D01*
X133131Y7143D01*
X136226Y13887D02*
X138194D01*
Y14871D01*
X137866Y15199D01*
X137210D01*
X136882Y14871D01*
Y13887D01*
Y14543D02*
X136226Y15199D01*
X136554Y15855D02*
X136226Y16183D01*
Y16839D01*
X136554Y17167D01*
X137866D01*
X138194Y16839D01*
Y16183D01*
X137866Y15855D01*
X137538D01*
X137210Y16183D01*
Y17167D01*
X128377Y4687D02*
X126409D01*
Y5999D01*
X128377Y7967D02*
X128049Y7311D01*
X127393Y6655D01*
X126737D01*
X126409Y6983D01*
Y7639D01*
X126737Y7967D01*
X127065D01*
X127393Y7639D01*
Y6655D01*
X118794Y10387D02*
X116826D01*
Y11699D01*
Y13339D02*
X118794D01*
X117810Y12355D01*
Y13667D01*
X141790Y7287D02*
X139822D01*
Y8599D01*
X141790Y10567D02*
Y9255D01*
X140806D01*
X141134Y9911D01*
Y10239D01*
X140806Y10567D01*
X140150D01*
X139822Y10239D01*
Y9583D01*
X140150Y9255D01*
X141897Y12927D02*
X142226Y13255D01*
X142882D01*
X143209Y12927D01*
Y11615D01*
X142882Y11287D01*
X142226D01*
X141897Y11615D01*
X141242Y11287D02*
X140586D01*
X140914D01*
Y13255D01*
X141242Y12927D01*
X138618Y11287D02*
Y13255D01*
X139602Y12271D01*
X138290D01*
X130209Y22155D02*
Y20515D01*
X129882Y20187D01*
X129226D01*
X128898Y20515D01*
Y22155D01*
X128242Y21827D02*
X127914Y22155D01*
X127258D01*
X126930Y21827D01*
Y21499D01*
X127258Y21171D01*
X127586D01*
X127258D01*
X126930Y20843D01*
Y20515D01*
X127258Y20187D01*
X127914D01*
X128242Y20515D01*
X146768Y48400D02*
X145128D01*
X144800Y48728D01*
Y49384D01*
X145128Y49712D01*
X146768D01*
Y51680D02*
Y50368D01*
X145784D01*
X146112Y51024D01*
Y51352D01*
X145784Y51680D01*
X145128D01*
X144800Y51352D01*
Y50696D01*
X145128Y50368D01*
X146667Y54937D02*
X146995Y55265D01*
X147651D01*
X147979Y54937D01*
Y53625D01*
X147651Y53297D01*
X146995D01*
X146667Y53625D01*
X146011Y54937D02*
X145683Y55265D01*
X145027D01*
X144699Y54937D01*
Y54609D01*
X145027Y54281D01*
X144699Y53953D01*
Y53625D01*
X145027Y53297D01*
X145683D01*
X146011Y53625D01*
Y53953D01*
X145683Y54281D01*
X146011Y54609D01*
Y54937D01*
X145683Y54281D02*
X145027D01*
X102262Y44951D02*
Y46919D01*
X101278D01*
X100950Y46591D01*
Y45935D01*
X101278Y45607D01*
X102262D01*
X101606D02*
X100950Y44951D01*
X99310D02*
Y46919D01*
X100294Y45935D01*
X98982D01*
X102262Y47451D02*
Y49419D01*
X101278D01*
X100950Y49091D01*
Y48435D01*
X101278Y48107D01*
X102262D01*
X101606D02*
X100950Y47451D01*
X98982Y49419D02*
X100294D01*
Y48435D01*
X99638Y48763D01*
X99310D01*
X98982Y48435D01*
Y47779D01*
X99310Y47451D01*
X99966D01*
X100294Y47779D01*
X102262Y49951D02*
Y51919D01*
X101278D01*
X100950Y51591D01*
Y50935D01*
X101278Y50607D01*
X102262D01*
X101606D02*
X100950Y49951D01*
X98982Y51919D02*
X99638Y51591D01*
X100294Y50935D01*
Y50279D01*
X99966Y49951D01*
X99310D01*
X98982Y50279D01*
Y50607D01*
X99310Y50935D01*
X100294D01*
X72499Y34563D02*
X72827Y34235D01*
Y33579D01*
X72499Y33251D01*
X72171D01*
X71843Y33579D01*
Y34235D01*
X71515Y34563D01*
X71187D01*
X70859Y34235D01*
Y33579D01*
X71187Y33251D01*
X72827Y35219D02*
X70859D01*
Y36203D01*
X71187Y36531D01*
X71515D01*
X71843Y36203D01*
Y35219D01*
Y36203D01*
X72171Y36531D01*
X72499D01*
X72827Y36203D01*
Y35219D01*
Y37187D02*
Y38499D01*
X72499D01*
X71187Y37187D01*
X70859D01*
X76899Y34563D02*
X77227Y34235D01*
Y33579D01*
X76899Y33251D01*
X76571D01*
X76243Y33579D01*
Y34235D01*
X75915Y34563D01*
X75587D01*
X75259Y34235D01*
Y33579D01*
X75587Y33251D01*
X77227Y35219D02*
X75259D01*
Y36203D01*
X75587Y36531D01*
X75915D01*
X76243Y36203D01*
Y35219D01*
Y36203D01*
X76571Y36531D01*
X76899D01*
X77227Y36203D01*
Y35219D01*
X76899Y37187D02*
X77227Y37515D01*
Y38171D01*
X76899Y38499D01*
X76571D01*
X76243Y38171D01*
X75915Y38499D01*
X75587D01*
X75259Y38171D01*
Y37515D01*
X75587Y37187D01*
X75915D01*
X76243Y37515D01*
X76571Y37187D01*
X76899D01*
X76243Y37515D02*
Y38171D01*
X81499Y32963D02*
X81827Y32635D01*
Y31979D01*
X81499Y31651D01*
X81171D01*
X80843Y31979D01*
Y32635D01*
X80515Y32963D01*
X80187D01*
X79859Y32635D01*
Y31979D01*
X80187Y31651D01*
X81827Y33619D02*
X79859D01*
Y34603D01*
X80187Y34931D01*
X80515D01*
X80843Y34603D01*
Y33619D01*
Y34603D01*
X81171Y34931D01*
X81499D01*
X81827Y34603D01*
Y33619D01*
X79859Y35587D02*
Y36243D01*
Y35915D01*
X81827D01*
X81499Y35587D01*
Y37227D02*
X81827Y37555D01*
Y38211D01*
X81499Y38539D01*
X80187D01*
X79859Y38211D01*
Y37555D01*
X80187Y37227D01*
X81499D01*
X85899Y33563D02*
X86227Y33235D01*
Y32579D01*
X85899Y32251D01*
X85571D01*
X85243Y32579D01*
Y33235D01*
X84915Y33563D01*
X84587D01*
X84259Y33235D01*
Y32579D01*
X84587Y32251D01*
X86227Y34219D02*
X84259D01*
Y35203D01*
X84587Y35531D01*
X84915D01*
X85243Y35203D01*
Y34219D01*
Y35203D01*
X85571Y35531D01*
X85899D01*
X86227Y35203D01*
Y34219D01*
X84259Y36187D02*
Y36843D01*
Y36515D01*
X86227D01*
X85899Y36187D01*
X84259Y37827D02*
Y38483D01*
Y38155D01*
X86227D01*
X85899Y37827D01*
X90499Y34563D02*
X90827Y34235D01*
Y33579D01*
X90499Y33251D01*
X90171D01*
X89843Y33579D01*
Y34235D01*
X89515Y34563D01*
X89187D01*
X88859Y34235D01*
Y33579D01*
X89187Y33251D01*
X90827Y35219D02*
X88859D01*
Y36203D01*
X89187Y36531D01*
X89515D01*
X89843Y36203D01*
Y35219D01*
Y36203D01*
X90171Y36531D01*
X90499D01*
X90827Y36203D01*
Y35219D01*
X89187Y37187D02*
X88859Y37515D01*
Y38171D01*
X89187Y38499D01*
X90499D01*
X90827Y38171D01*
Y37515D01*
X90499Y37187D01*
X90171D01*
X89843Y37515D01*
Y38499D01*
X52127Y68898D02*
Y70210D01*
Y69554D01*
X50159D01*
Y70865D02*
X52127D01*
Y71849D01*
X51799Y72177D01*
X51143D01*
X50815Y71849D01*
Y70865D01*
X52127Y74145D02*
X51799Y73489D01*
X51143Y72833D01*
X50487D01*
X50159Y73161D01*
Y73817D01*
X50487Y74145D01*
X50815D01*
X51143Y73817D01*
Y72833D01*
X39370Y63779D02*
Y61811D01*
X38386D01*
X38058Y62139D01*
Y63451D01*
X38386Y63779D01*
X39370D01*
X37402Y61811D02*
X36746D01*
X37074D01*
Y63779D01*
X37402Y63451D01*
X39900Y135500D02*
Y137468D01*
X38916D01*
X38588Y137140D01*
Y136484D01*
X38916Y136156D01*
X39900D01*
X39244D02*
X38588Y135500D01*
X36620D02*
X37932D01*
X36620Y136812D01*
Y137140D01*
X36948Y137468D01*
X37604D01*
X37932Y137140D01*
X35964Y135828D02*
X35636Y135500D01*
X34980D01*
X34652Y135828D01*
Y137140D01*
X34980Y137468D01*
X35636D01*
X35964Y137140D01*
Y136812D01*
X35636Y136484D01*
X34652D01*
X39900Y132900D02*
Y134868D01*
X38916D01*
X38588Y134540D01*
Y133884D01*
X38916Y133556D01*
X39900D01*
X39244D02*
X38588Y132900D01*
X37932Y134540D02*
X37604Y134868D01*
X36948D01*
X36620Y134540D01*
Y134212D01*
X36948Y133884D01*
X37276D01*
X36948D01*
X36620Y133556D01*
Y133228D01*
X36948Y132900D01*
X37604D01*
X37932Y133228D01*
X35964Y134540D02*
X35636Y134868D01*
X34980D01*
X34652Y134540D01*
Y133228D01*
X34980Y132900D01*
X35636D01*
X35964Y133228D01*
Y134540D01*
X40259Y157480D02*
X42227D01*
Y158464D01*
X41899Y158792D01*
X41243D01*
X40915Y158464D01*
Y157480D01*
Y158136D02*
X40259Y158792D01*
X41899Y159448D02*
X42227Y159776D01*
Y160432D01*
X41899Y160760D01*
X41571D01*
X41243Y160432D01*
Y160104D01*
Y160432D01*
X40915Y160760D01*
X40587D01*
X40259Y160432D01*
Y159776D01*
X40587Y159448D01*
X40259Y162728D02*
Y161416D01*
X41571Y162728D01*
X41899D01*
X42227Y162400D01*
Y161744D01*
X41899Y161416D01*
X42659Y157480D02*
X44627D01*
Y158464D01*
X44299Y158792D01*
X43643D01*
X43315Y158464D01*
Y157480D01*
Y158136D02*
X42659Y158792D01*
X44299Y159448D02*
X44627Y159776D01*
Y160432D01*
X44299Y160760D01*
X43971D01*
X43643Y160432D01*
Y160104D01*
Y160432D01*
X43315Y160760D01*
X42987D01*
X42659Y160432D01*
Y159776D01*
X42987Y159448D01*
X44299Y161416D02*
X44627Y161744D01*
Y162400D01*
X44299Y162728D01*
X43971D01*
X43643Y162400D01*
Y162072D01*
Y162400D01*
X43315Y162728D01*
X42987D01*
X42659Y162400D01*
Y161744D01*
X42987Y161416D01*
X47500Y163100D02*
X49468D01*
Y164084D01*
X49140Y164412D01*
X48484D01*
X48156Y164084D01*
Y163100D01*
Y163756D02*
X47500Y164412D01*
X49140Y165068D02*
X49468Y165396D01*
Y166052D01*
X49140Y166380D01*
X48812D01*
X48484Y166052D01*
Y165724D01*
Y166052D01*
X48156Y166380D01*
X47828D01*
X47500Y166052D01*
Y165396D01*
X47828Y165068D01*
X49468Y168348D02*
Y167036D01*
X48484D01*
X48812Y167692D01*
Y168020D01*
X48484Y168348D01*
X47828D01*
X47500Y168020D01*
Y167364D01*
X47828Y167036D01*
X60027Y68898D02*
Y70210D01*
Y69554D01*
X58059D01*
Y70865D02*
X60027D01*
Y71849D01*
X59699Y72177D01*
X59043D01*
X58715Y71849D01*
Y70865D01*
X60027Y74145D02*
Y72833D01*
X59043D01*
X59371Y73489D01*
Y73817D01*
X59043Y74145D01*
X58387D01*
X58059Y73817D01*
Y73161D01*
X58387Y72833D01*
X30100Y176068D02*
X28788D01*
X29444D01*
Y174100D01*
X28132D02*
Y176068D01*
X27148D01*
X26820Y175740D01*
Y175084D01*
X27148Y174756D01*
X28132D01*
X24852Y174100D02*
X26164D01*
X24852Y175412D01*
Y175740D01*
X25180Y176068D01*
X25836D01*
X26164Y175740D01*
X24196D02*
X23868Y176068D01*
X23212D01*
X22885Y175740D01*
Y174428D01*
X23212Y174100D01*
X23868D01*
X24196Y174428D01*
Y175740D01*
X30800Y156568D02*
X29488D01*
X30144D01*
Y154600D01*
X28832D02*
Y156568D01*
X27848D01*
X27520Y156240D01*
Y155584D01*
X27848Y155256D01*
X28832D01*
X25552Y154600D02*
X26864D01*
X25552Y155912D01*
Y156240D01*
X25880Y156568D01*
X26536D01*
X26864Y156240D01*
X24896Y154600D02*
X24240D01*
X24568D01*
Y156568D01*
X24896Y156240D01*
X4527Y116951D02*
Y118263D01*
Y117607D01*
X2559D01*
Y118919D02*
X4527D01*
Y119903D01*
X4199Y120231D01*
X3543D01*
X3215Y119903D01*
Y118919D01*
X2559Y122199D02*
Y120887D01*
X3871Y122199D01*
X4199D01*
X4527Y121871D01*
Y121215D01*
X4199Y120887D01*
X2559Y123839D02*
X4527D01*
X3543Y122855D01*
Y124167D01*
X32659Y157480D02*
X34627D01*
Y158464D01*
X34299Y158792D01*
X33643D01*
X33315Y158464D01*
Y157480D01*
Y158136D02*
X32659Y158792D01*
Y160760D02*
Y159448D01*
X33971Y160760D01*
X34299D01*
X34627Y160432D01*
Y159776D01*
X34299Y159448D01*
Y161416D02*
X34627Y161744D01*
Y162400D01*
X34299Y162728D01*
X33971D01*
X33643Y162400D01*
X33315Y162728D01*
X32987D01*
X32659Y162400D01*
Y161744D01*
X32987Y161416D01*
X33315D01*
X33643Y161744D01*
X33971Y161416D01*
X34299D01*
X33643Y161744D02*
Y162400D01*
X39900Y138100D02*
Y140068D01*
X38916D01*
X38588Y139740D01*
Y139084D01*
X38916Y138756D01*
X39900D01*
X39244D02*
X38588Y138100D01*
X37932Y139740D02*
X37604Y140068D01*
X36948D01*
X36620Y139740D01*
Y139412D01*
X36948Y139084D01*
X37276D01*
X36948D01*
X36620Y138756D01*
Y138428D01*
X36948Y138100D01*
X37604D01*
X37932Y138428D01*
X34980Y138100D02*
Y140068D01*
X35964Y139084D01*
X34652D01*
X41400Y168300D02*
Y170268D01*
X40416D01*
X40088Y169940D01*
Y169284D01*
X40416Y168956D01*
X41400D01*
X40744D02*
X40088Y168300D01*
X38120D02*
X39432D01*
X38120Y169612D01*
Y169940D01*
X38448Y170268D01*
X39104D01*
X39432Y169940D01*
X37464Y170268D02*
X36152D01*
Y169940D01*
X37464Y168628D01*
Y168300D01*
X53688Y97328D02*
Y98640D01*
X54016Y98968D01*
X54672D01*
X55000Y98640D01*
Y97328D01*
X54672Y97000D01*
X54016D01*
X54344Y97656D02*
X53688Y97000D01*
X54016D02*
X53688Y97328D01*
X52048Y97000D02*
Y98968D01*
X53032Y97984D01*
X51720D01*
X105040Y162812D02*
X105368Y162484D01*
Y161828D01*
X105040Y161500D01*
X103728D01*
X103400Y161828D01*
Y162484D01*
X103728Y162812D01*
X105040Y163468D02*
X105368Y163796D01*
Y164452D01*
X105040Y164780D01*
X104712D01*
X104384Y164452D01*
Y164124D01*
Y164452D01*
X104056Y164780D01*
X103728D01*
X103400Y164452D01*
Y163796D01*
X103728Y163468D01*
X105040Y165436D02*
X105368Y165764D01*
Y166420D01*
X105040Y166748D01*
X104712D01*
X104384Y166420D01*
X104056Y166748D01*
X103728D01*
X103400Y166420D01*
Y165764D01*
X103728Y165436D01*
X104056D01*
X104384Y165764D01*
X104712Y165436D01*
X105040D01*
X104384Y165764D02*
Y166420D01*
X111540Y162812D02*
X111868Y162484D01*
Y161828D01*
X111540Y161500D01*
X110228D01*
X109900Y161828D01*
Y162484D01*
X110228Y162812D01*
X111540Y163468D02*
X111868Y163796D01*
Y164452D01*
X111540Y164780D01*
X111212D01*
X110884Y164452D01*
Y164124D01*
Y164452D01*
X110556Y164780D01*
X110228D01*
X109900Y164452D01*
Y163796D01*
X110228Y163468D01*
Y165436D02*
X109900Y165764D01*
Y166420D01*
X110228Y166748D01*
X111540D01*
X111868Y166420D01*
Y165764D01*
X111540Y165436D01*
X111212D01*
X110884Y165764D01*
Y166748D01*
X111700Y146268D02*
Y144628D01*
X111372Y144300D01*
X110716D01*
X110388Y144628D01*
Y146268D01*
X109732Y145940D02*
X109404Y146268D01*
X108748D01*
X108420Y145940D01*
Y145612D01*
X108748Y145284D01*
X108420Y144956D01*
Y144628D01*
X108748Y144300D01*
X109404D01*
X109732Y144628D01*
Y144956D01*
X109404Y145284D01*
X109732Y145612D01*
Y145940D01*
X109404Y145284D02*
X108748D01*
X92224Y96850D02*
X90256D01*
Y97834D01*
X90584Y98162D01*
X91896D01*
X92224Y97834D01*
Y96850D01*
X90256Y100130D02*
Y98818D01*
X91568Y100130D01*
X91896D01*
X92224Y99802D01*
Y99146D01*
X91896Y98818D01*
X95088Y73928D02*
Y75240D01*
X95416Y75568D01*
X96072D01*
X96400Y75240D01*
Y73928D01*
X96072Y73600D01*
X95416D01*
X95744Y74256D02*
X95088Y73600D01*
X95416D02*
X95088Y73928D01*
X93120Y75568D02*
X94432D01*
Y74584D01*
X93776Y74912D01*
X93448D01*
X93120Y74584D01*
Y73928D01*
X93448Y73600D01*
X94104D01*
X94432Y73928D01*
X80413Y79134D02*
Y81102D01*
X79430D01*
X79102Y80774D01*
Y80118D01*
X79430Y79790D01*
X80413D01*
X79757D02*
X79102Y79134D01*
X77134D02*
X78446D01*
X77134Y80446D01*
Y80774D01*
X77462Y81102D01*
X78118D01*
X78446Y80774D01*
X76478Y79134D02*
X75822D01*
X76150D01*
Y81102D01*
X76478Y80774D01*
X45368Y68700D02*
Y70012D01*
Y69356D01*
X43400D01*
Y70668D02*
X45368D01*
Y71652D01*
X45040Y71980D01*
X44384D01*
X44056Y71652D01*
Y70668D01*
X43400Y72636D02*
Y73292D01*
Y72964D01*
X45368D01*
X45040Y72636D01*
X12027Y116951D02*
Y118263D01*
Y117607D01*
X10059D01*
Y118919D02*
X12027D01*
Y119903D01*
X11699Y120231D01*
X11043D01*
X10715Y119903D01*
Y118919D01*
X10059Y122199D02*
Y120887D01*
X11371Y122199D01*
X11699D01*
X12027Y121871D01*
Y121215D01*
X11699Y120887D01*
Y122855D02*
X12027Y123183D01*
Y123839D01*
X11699Y124167D01*
X11371D01*
X11043Y123839D01*
Y123511D01*
Y123839D01*
X10715Y124167D01*
X10387D01*
X10059Y123839D01*
Y123183D01*
X10387Y122855D01*
X119816Y111450D02*
X121128D01*
X121456Y111122D01*
Y110466D01*
X121128Y110138D01*
X119816D01*
X119488Y110466D01*
Y111122D01*
X120144Y110794D02*
X119488Y111450D01*
Y111122D02*
X119816Y111450D01*
X121456Y113418D02*
X121128Y112762D01*
X120472Y112106D01*
X119816D01*
X119488Y112434D01*
Y113090D01*
X119816Y113418D01*
X120144D01*
X120472Y113090D01*
Y112106D01*
X103822Y111450D02*
X105134D01*
X105462Y111122D01*
Y110466D01*
X105134Y110138D01*
X103822D01*
X103494Y110466D01*
Y111122D01*
X104150Y110794D02*
X103494Y111450D01*
Y111122D02*
X103822Y111450D01*
X105462Y112106D02*
Y113418D01*
X105134D01*
X103822Y112106D01*
X103494D01*
X65159Y15319D02*
X63847D01*
X64503D01*
Y13351D01*
X63191D02*
Y15319D01*
X62207D01*
X61879Y14991D01*
Y14335D01*
X62207Y14007D01*
X63191D01*
X59911Y13351D02*
X61223D01*
X59911Y14663D01*
Y14991D01*
X60239Y15319D01*
X60895D01*
X61223Y14991D01*
X57943Y15319D02*
X59255D01*
Y14335D01*
X58600Y14663D01*
X58271D01*
X57943Y14335D01*
Y13679D01*
X58271Y13351D01*
X58927D01*
X59255Y13679D01*
X65159Y23219D02*
X63847D01*
X64503D01*
Y21251D01*
X63191D02*
Y23219D01*
X62207D01*
X61879Y22891D01*
Y22235D01*
X62207Y21907D01*
X63191D01*
X59911Y21251D02*
X61223D01*
X59911Y22563D01*
Y22891D01*
X60239Y23219D01*
X60895D01*
X61223Y22891D01*
X57943Y23219D02*
X58600Y22891D01*
X59255Y22235D01*
Y21579D01*
X58927Y21251D01*
X58271D01*
X57943Y21579D01*
Y21907D01*
X58271Y22235D01*
X59255D01*
X64700Y54100D02*
X66668D01*
Y55084D01*
X66340Y55412D01*
X65684D01*
X65356Y55084D01*
Y54100D01*
Y54756D02*
X64700Y55412D01*
Y57052D02*
X66668D01*
X65684Y56068D01*
Y57380D01*
X66340Y58036D02*
X66668Y58364D01*
Y59020D01*
X66340Y59348D01*
X65028D01*
X64700Y59020D01*
Y58364D01*
X65028Y58036D01*
X66340D01*
X66688Y108040D02*
X67016Y108368D01*
X67672D01*
X68000Y108040D01*
Y106728D01*
X67672Y106400D01*
X67016D01*
X66688Y106728D01*
X65048Y106400D02*
Y108368D01*
X66032Y107384D01*
X64720D01*
X62752Y108368D02*
X64064D01*
Y107384D01*
X63408Y107712D01*
X63080D01*
X62752Y107384D01*
Y106728D01*
X63080Y106400D01*
X63736D01*
X64064Y106728D01*
X73400Y152700D02*
Y154668D01*
X72416D01*
X72088Y154340D01*
Y153684D01*
X72416Y153356D01*
X73400D01*
X72744D02*
X72088Y152700D01*
X71432Y154340D02*
X71104Y154668D01*
X70448D01*
X70120Y154340D01*
Y154012D01*
X70448Y153684D01*
X70776D01*
X70448D01*
X70120Y153356D01*
Y153028D01*
X70448Y152700D01*
X71104D01*
X71432Y153028D01*
X69464Y152700D02*
X68808D01*
X69136D01*
Y154668D01*
X69464Y154340D01*
X52300Y126000D02*
X54268D01*
Y126984D01*
X53940Y127312D01*
X53284D01*
X52956Y126984D01*
Y126000D01*
Y126656D02*
X52300Y127312D01*
Y129280D02*
Y127968D01*
X53612Y129280D01*
X53940D01*
X54268Y128952D01*
Y128296D01*
X53940Y127968D01*
X54268Y131248D02*
Y129936D01*
X53284D01*
X53612Y130592D01*
Y130920D01*
X53284Y131248D01*
X52628D01*
X52300Y130920D01*
Y130264D01*
X52628Y129936D01*
X27600Y133900D02*
X29568D01*
Y134884D01*
X29240Y135212D01*
X28584D01*
X28256Y134884D01*
Y133900D01*
Y134556D02*
X27600Y135212D01*
Y137180D02*
Y135868D01*
X28912Y137180D01*
X29240D01*
X29568Y136852D01*
Y136196D01*
X29240Y135868D01*
X27600Y138820D02*
X29568D01*
X28584Y137836D01*
Y139148D01*
X19527Y116951D02*
Y118263D01*
Y117607D01*
X17559D01*
Y118919D02*
X19527D01*
Y119903D01*
X19199Y120231D01*
X18543D01*
X18215Y119903D01*
Y118919D01*
X17559Y122199D02*
Y120887D01*
X18871Y122199D01*
X19199D01*
X19527Y121871D01*
Y121215D01*
X19199Y120887D01*
X17559Y124167D02*
Y122855D01*
X18871Y124167D01*
X19199D01*
X19527Y123839D01*
Y123183D01*
X19199Y122855D01*
X121599Y139363D02*
X121927Y139035D01*
Y138379D01*
X121599Y138051D01*
X121271D01*
X120943Y138379D01*
Y139035D01*
X120615Y139363D01*
X120287D01*
X119959Y139035D01*
Y138379D01*
X120287Y138051D01*
X121927Y140019D02*
X119959D01*
Y141003D01*
X120287Y141331D01*
X120615D01*
X120943Y141003D01*
Y140019D01*
Y141003D01*
X121271Y141331D01*
X121599D01*
X121927Y141003D01*
Y140019D01*
Y143299D02*
Y141987D01*
X120943D01*
X121271Y142643D01*
Y142971D01*
X120943Y143299D01*
X120287D01*
X119959Y142971D01*
Y142315D01*
X120287Y141987D01*
X116099Y139363D02*
X116427Y139035D01*
Y138379D01*
X116099Y138051D01*
X115771D01*
X115443Y138379D01*
Y139035D01*
X115115Y139363D01*
X114787D01*
X114459Y139035D01*
Y138379D01*
X114787Y138051D01*
X116427Y140019D02*
X114459D01*
Y141003D01*
X114787Y141331D01*
X115115D01*
X115443Y141003D01*
Y140019D01*
Y141003D01*
X115771Y141331D01*
X116099D01*
X116427Y141003D01*
Y140019D01*
Y143299D02*
X116099Y142643D01*
X115443Y141987D01*
X114787D01*
X114459Y142315D01*
Y142971D01*
X114787Y143299D01*
X115115D01*
X115443Y142971D01*
Y141987D01*
X108601Y140968D02*
X107289D01*
X107945D01*
Y139000D01*
X106633D02*
Y140968D01*
X105649D01*
X105321Y140640D01*
Y139984D01*
X105649Y139656D01*
X106633D01*
X104665Y140968D02*
X103353D01*
Y140640D01*
X104665Y139328D01*
Y139000D01*
X40380Y128280D02*
X40708Y127952D01*
Y127296D01*
X40380Y126969D01*
X40052D01*
X39724Y127296D01*
Y127952D01*
X39396Y128280D01*
X39068D01*
X38740Y127952D01*
Y127296D01*
X39068Y126969D01*
X40708Y128936D02*
X38740D01*
Y129920D01*
X39068Y130248D01*
X39396D01*
X39724Y129920D01*
Y128936D01*
Y129920D01*
X40052Y130248D01*
X40380D01*
X40708Y129920D01*
Y128936D01*
X38740Y130904D02*
Y131560D01*
Y131232D01*
X40708D01*
X40380Y130904D01*
X120571Y72243D02*
Y70276D01*
X119587D01*
X119259Y70604D01*
Y70932D01*
X119587Y71259D01*
X120571D01*
X119587D01*
X119259Y71588D01*
Y71916D01*
X119587Y72243D01*
X120571D01*
X118603Y71588D02*
X117291D01*
X118603Y70276D01*
X117291D01*
X116635D02*
X115979D01*
X116307D01*
Y72243D01*
X116635Y71916D01*
X143500Y192500D02*
X145468D01*
Y193484D01*
X145140Y193812D01*
X144484D01*
X144156Y193484D01*
Y192500D01*
Y193156D02*
X143500Y193812D01*
Y195452D02*
X145468D01*
X144484Y194468D01*
Y195780D01*
X143500Y196436D02*
Y197092D01*
Y196764D01*
X145468D01*
X145140Y196436D01*
X125300Y192300D02*
X127268D01*
Y193284D01*
X126940Y193612D01*
X126284D01*
X125956Y193284D01*
Y192300D01*
Y192956D02*
X125300Y193612D01*
Y195252D02*
X127268D01*
X126284Y194268D01*
Y195580D01*
X125300Y197548D02*
Y196236D01*
X126612Y197548D01*
X126940D01*
X127268Y197220D01*
Y196564D01*
X126940Y196236D01*
X143500Y155000D02*
X145468D01*
Y155984D01*
X145140Y156312D01*
X144484D01*
X144156Y155984D01*
Y155000D01*
Y155656D02*
X143500Y156312D01*
Y157952D02*
X145468D01*
X144484Y156968D01*
Y158280D01*
X145140Y158936D02*
X145468Y159264D01*
Y159920D01*
X145140Y160248D01*
X144812D01*
X144484Y159920D01*
Y159592D01*
Y159920D01*
X144156Y160248D01*
X143828D01*
X143500Y159920D01*
Y159264D01*
X143828Y158936D01*
X122500Y154500D02*
X124468D01*
Y155484D01*
X124140Y155812D01*
X123484D01*
X123156Y155484D01*
Y154500D01*
Y155156D02*
X122500Y155812D01*
Y157452D02*
X124468D01*
X123484Y156468D01*
Y157780D01*
X122500Y159420D02*
X124468D01*
X123484Y158436D01*
Y159748D01*
X62500Y92000D02*
X64468D01*
Y92984D01*
X64140Y93312D01*
X63484D01*
X63156Y92984D01*
Y92000D01*
Y92656D02*
X62500Y93312D01*
Y94952D02*
X64468D01*
X63484Y93968D01*
Y95280D01*
X64468Y97248D02*
Y95936D01*
X63484D01*
X63812Y96592D01*
Y96920D01*
X63484Y97248D01*
X62828D01*
X62500Y96920D01*
Y96264D01*
X62828Y95936D01*
X41900Y87500D02*
X43868D01*
Y88484D01*
X43540Y88812D01*
X42884D01*
X42556Y88484D01*
Y87500D01*
Y88156D02*
X41900Y88812D01*
Y90452D02*
X43868D01*
X42884Y89468D01*
Y90780D01*
X43868Y92748D02*
X43540Y92092D01*
X42884Y91436D01*
X42228D01*
X41900Y91764D01*
Y92420D01*
X42228Y92748D01*
X42556D01*
X42884Y92420D01*
Y91436D01*
X42888Y108128D02*
Y109440D01*
X43216Y109768D01*
X43872D01*
X44200Y109440D01*
Y108128D01*
X43872Y107800D01*
X43216D01*
X43544Y108456D02*
X42888Y107800D01*
X43216D02*
X42888Y108128D01*
X42232Y109440D02*
X41904Y109768D01*
X41248D01*
X40920Y109440D01*
Y109112D01*
X41248Y108784D01*
X40920Y108456D01*
Y108128D01*
X41248Y107800D01*
X41904D01*
X42232Y108128D01*
Y108456D01*
X41904Y108784D01*
X42232Y109112D01*
Y109440D01*
X41904Y108784D02*
X41248D01*
X55118Y104751D02*
Y106719D01*
X54134D01*
X53806Y106391D01*
Y105735D01*
X54134Y105407D01*
X55118D01*
X54462D02*
X53806Y104751D01*
X52166D02*
Y106719D01*
X53150Y105735D01*
X51838D01*
X51182Y106719D02*
X49870D01*
Y106391D01*
X51182Y105079D01*
Y104751D01*
X34800Y101000D02*
X36768D01*
Y101984D01*
X36440Y102312D01*
X35784D01*
X35456Y101984D01*
Y101000D01*
Y101656D02*
X34800Y102312D01*
Y103952D02*
X36768D01*
X35784Y102968D01*
Y104280D01*
X36440Y104936D02*
X36768Y105264D01*
Y105920D01*
X36440Y106248D01*
X36112D01*
X35784Y105920D01*
X35456Y106248D01*
X35128D01*
X34800Y105920D01*
Y105264D01*
X35128Y104936D01*
X35456D01*
X35784Y105264D01*
X36112Y104936D01*
X36440D01*
X35784Y105264D02*
Y105920D01*
X130599Y61263D02*
X130927Y60935D01*
Y60279D01*
X130599Y59951D01*
X130271D01*
X129943Y60279D01*
Y60935D01*
X129615Y61263D01*
X129287D01*
X128959Y60935D01*
Y60279D01*
X129287Y59951D01*
X130927Y61919D02*
X128959D01*
Y62903D01*
X129287Y63231D01*
X129615D01*
X129943Y62903D01*
Y61919D01*
Y62903D01*
X130271Y63231D01*
X130599D01*
X130927Y62903D01*
Y61919D01*
X128959Y63887D02*
Y64543D01*
Y64215D01*
X130927D01*
X130599Y63887D01*
X128959Y66839D02*
Y65527D01*
X130271Y66839D01*
X130599D01*
X130927Y66511D01*
Y65855D01*
X130599Y65527D01*
X136499Y61263D02*
X136827Y60935D01*
Y60279D01*
X136499Y59951D01*
X136171D01*
X135843Y60279D01*
Y60935D01*
X135515Y61263D01*
X135187D01*
X134859Y60935D01*
Y60279D01*
X135187Y59951D01*
X136827Y61919D02*
X134859D01*
Y62903D01*
X135187Y63231D01*
X135515D01*
X135843Y62903D01*
Y61919D01*
Y62903D01*
X136171Y63231D01*
X136499D01*
X136827Y62903D01*
Y61919D01*
X134859Y63887D02*
Y64543D01*
Y64215D01*
X136827D01*
X136499Y63887D01*
Y65527D02*
X136827Y65855D01*
Y66511D01*
X136499Y66839D01*
X136171D01*
X135843Y66511D01*
Y66183D01*
Y66511D01*
X135515Y66839D01*
X135187D01*
X134859Y66511D01*
Y65855D01*
X135187Y65527D01*
X38840Y82212D02*
X39168Y81884D01*
Y81228D01*
X38840Y80900D01*
X37528D01*
X37200Y81228D01*
Y81884D01*
X37528Y82212D01*
X39168Y82868D02*
Y84180D01*
X38840D01*
X37528Y82868D01*
X37200D01*
X27936Y86774D02*
Y85134D01*
X27608Y84806D01*
X26952D01*
X26624Y85134D01*
Y86774D01*
X25968Y84806D02*
X25312D01*
X25640D01*
Y86774D01*
X25968Y86446D01*
X24329D02*
X24001Y86774D01*
X23345D01*
X23017Y86446D01*
Y86118D01*
X23345Y85790D01*
X23673D01*
X23345D01*
X23017Y85462D01*
Y85134D01*
X23345Y84806D01*
X24001D01*
X24329Y85134D01*
X65988Y69740D02*
X66316Y70068D01*
X66972D01*
X67300Y69740D01*
Y68428D01*
X66972Y68100D01*
X66316D01*
X65988Y68428D01*
X64020Y70068D02*
X65332D01*
Y69084D01*
X64676Y69412D01*
X64348D01*
X64020Y69084D01*
Y68428D01*
X64348Y68100D01*
X65004D01*
X65332Y68428D01*
X63364Y69740D02*
X63036Y70068D01*
X62380D01*
X62052Y69740D01*
Y69412D01*
X62380Y69084D01*
X62052Y68756D01*
Y68428D01*
X62380Y68100D01*
X63036D01*
X63364Y68428D01*
Y68756D01*
X63036Y69084D01*
X63364Y69412D01*
Y69740D01*
X63036Y69084D02*
X62380D01*
X71676Y60800D02*
X70037D01*
X69709Y61128D01*
Y61784D01*
X70037Y62112D01*
X71676D01*
X69709Y62768D02*
Y63424D01*
Y63096D01*
X71676D01*
X71349Y62768D01*
X69709Y65392D02*
X71676D01*
X70693Y64408D01*
Y65720D01*
X94740Y169212D02*
X95068Y168884D01*
Y168228D01*
X94740Y167900D01*
X93428D01*
X93100Y168228D01*
Y168884D01*
X93428Y169212D01*
X95068Y171180D02*
Y169868D01*
X94084D01*
X94412Y170524D01*
Y170852D01*
X94084Y171180D01*
X93428D01*
X93100Y170852D01*
Y170196D01*
X93428Y169868D01*
Y171836D02*
X93100Y172164D01*
Y172820D01*
X93428Y173148D01*
X94740D01*
X95068Y172820D01*
Y172164D01*
X94740Y171836D01*
X94412D01*
X94084Y172164D01*
Y173148D01*
X121868Y179800D02*
X120228D01*
X119900Y180128D01*
Y180784D01*
X120228Y181112D01*
X121868D01*
X119900Y181768D02*
Y182424D01*
Y182096D01*
X121868D01*
X121540Y181768D01*
X121868Y184720D02*
Y183408D01*
X120884D01*
X121212Y184064D01*
Y184392D01*
X120884Y184720D01*
X120228D01*
X119900Y184392D01*
Y183736D01*
X120228Y183408D01*
X96388Y147740D02*
X96716Y148068D01*
X97372D01*
X97700Y147740D01*
Y146428D01*
X97372Y146100D01*
X96716D01*
X96388Y146428D01*
X95732Y147740D02*
X95404Y148068D01*
X94748D01*
X94420Y147740D01*
Y147412D01*
X94748Y147084D01*
X95076D01*
X94748D01*
X94420Y146756D01*
Y146428D01*
X94748Y146100D01*
X95404D01*
X95732Y146428D01*
X92780Y146100D02*
Y148068D01*
X93764Y147084D01*
X92452D01*
X84800Y140100D02*
Y142068D01*
X83816D01*
X83488Y141740D01*
Y141084D01*
X83816Y140756D01*
X84800D01*
X84144D02*
X83488Y140100D01*
X81848D02*
Y142068D01*
X82832Y141084D01*
X81520D01*
X80864Y140428D02*
X80536Y140100D01*
X79880D01*
X79552Y140428D01*
Y141740D01*
X79880Y142068D01*
X80536D01*
X80864Y141740D01*
Y141412D01*
X80536Y141084D01*
X79552D01*
X78768Y146200D02*
X77128D01*
X76800Y146528D01*
Y147184D01*
X77128Y147512D01*
X78768D01*
X76800Y148168D02*
Y148824D01*
Y148496D01*
X78768D01*
X78440Y148168D01*
X78768Y151120D02*
X78440Y150464D01*
X77784Y149808D01*
X77128D01*
X76800Y150136D01*
Y150792D01*
X77128Y151120D01*
X77456D01*
X77784Y150792D01*
Y149808D01*
X60204Y63451D02*
X60532Y63779D01*
X61188D01*
X61516Y63451D01*
Y63123D01*
X61188Y62795D01*
X60532D01*
X60204Y62467D01*
Y62139D01*
X60532Y61811D01*
X61188D01*
X61516Y62139D01*
X59548Y63779D02*
Y61811D01*
X58564D01*
X58236Y62139D01*
Y62467D01*
X58564Y62795D01*
X59548D01*
X58564D01*
X58236Y63123D01*
Y63451D01*
X58564Y63779D01*
X59548D01*
X57580Y61811D02*
X56924D01*
X57252D01*
Y63779D01*
X57580Y63451D01*
X54956Y61811D02*
Y63779D01*
X55940Y62795D01*
X54628D01*
X67028Y89207D02*
X68996D01*
Y90191D01*
X68668Y90519D01*
X68012D01*
X67684Y90191D01*
Y89207D01*
Y89863D02*
X67028Y90519D01*
X68996Y92487D02*
Y91175D01*
X68012D01*
X68340Y91831D01*
Y92159D01*
X68012Y92487D01*
X67356D01*
X67028Y92159D01*
Y91503D01*
X67356Y91175D01*
X68668Y93143D02*
X68996Y93471D01*
Y94126D01*
X68668Y94454D01*
X67356D01*
X67028Y94126D01*
Y93471D01*
X67356Y93143D01*
X68668D01*
X48425Y79069D02*
Y80381D01*
Y79725D01*
X46457D01*
Y81037D02*
X48425D01*
Y82021D01*
X48097Y82349D01*
X47441D01*
X47113Y82021D01*
Y81037D01*
X48097Y83005D02*
X48425Y83333D01*
Y83989D01*
X48097Y84317D01*
X47769D01*
X47441Y83989D01*
Y83661D01*
Y83989D01*
X47113Y84317D01*
X46785D01*
X46457Y83989D01*
Y83333D01*
X46785Y83005D01*
Y84973D02*
X46457Y85301D01*
Y85957D01*
X46785Y86285D01*
X48097D01*
X48425Y85957D01*
Y85301D01*
X48097Y84973D01*
X47769D01*
X47441Y85301D01*
Y86285D01*
X56102Y72869D02*
Y74181D01*
Y73525D01*
X54134D01*
Y74836D02*
X56102D01*
Y75820D01*
X55774Y76148D01*
X55118D01*
X54790Y75820D01*
Y74836D01*
X54134Y77788D02*
X56102D01*
X55118Y76804D01*
Y78116D01*
X55774Y78772D02*
X56102Y79100D01*
Y79756D01*
X55774Y80084D01*
X54462D01*
X54134Y79756D01*
Y79100D01*
X54462Y78772D01*
X55774D01*
X64665Y73000D02*
Y74312D01*
Y73656D01*
X62697D01*
Y74968D02*
X64665D01*
Y75951D01*
X64337Y76279D01*
X63681D01*
X63353Y75951D01*
Y74968D01*
X62697Y77919D02*
X64665D01*
X63681Y76935D01*
Y78247D01*
X62697Y78903D02*
Y79559D01*
Y79231D01*
X64665D01*
X64337Y78903D01*
X70275Y78740D02*
Y77100D01*
X69947Y76772D01*
X69291D01*
X68963Y77100D01*
Y78740D01*
X68307Y76772D02*
X67651D01*
X67979D01*
Y78740D01*
X68307Y78412D01*
X66667Y78740D02*
X65355D01*
Y78412D01*
X66667Y77100D01*
Y76772D01*
X71260Y84220D02*
X73228D01*
Y85204D01*
X72900Y85532D01*
X72244D01*
X71916Y85204D01*
Y84220D01*
Y84876D02*
X71260Y85532D01*
X73228Y87500D02*
Y86188D01*
X72244D01*
X72572Y86844D01*
Y87172D01*
X72244Y87500D01*
X71588D01*
X71260Y87172D01*
Y86516D01*
X71588Y86188D01*
X71260Y88156D02*
Y88812D01*
Y88484D01*
X73228D01*
X72900Y88156D01*
X96004Y140034D02*
X97972D01*
Y141018D01*
X97644Y141346D01*
X96988D01*
X96660Y141018D01*
Y140034D01*
Y140690D02*
X96004Y141346D01*
X97972Y143313D02*
Y142001D01*
X96988D01*
X97316Y142657D01*
Y142985D01*
X96988Y143313D01*
X96332D01*
X96004Y142985D01*
Y142330D01*
X96332Y142001D01*
X96004Y145281D02*
Y143969D01*
X97316Y145281D01*
X97644D01*
X97972Y144953D01*
Y144297D01*
X97644Y143969D01*
D266*
X40856Y67672D02*
G03*
X40856Y67672I-197J0D01*
G01*
X40530Y103139D02*
G03*
X40530Y103139I-197J0D01*
G01*
X20979Y71196D02*
G03*
X20979Y71196I-197J0D01*
G01*
X62603Y65005D02*
G03*
X62603Y65005I-197J0D01*
G01*
X36328Y67278D02*
X39872D01*
X36328Y64522D02*
X39872D01*
Y64719D01*
Y67081D02*
Y67278D01*
X36328Y64522D02*
Y64719D01*
Y67081D02*
Y67278D01*
D267*
X100984Y69882D02*
G03*
X100984Y69882I-787J0D01*
G01*
D268*
X162500Y149803D02*
Y151575D01*
X187697D01*
Y149803D02*
Y151575D01*
X149771Y161921D02*
X151542D01*
Y187118D01*
X149771D02*
X151542D01*
D269*
X9252Y114370D02*
X17224D01*
X9252Y84842D02*
X17224D01*
X-2165D02*
X2067D01*
X-2165Y114370D02*
X2067D01*
D270*
X-1476Y99606D02*
D03*
D271*
X39380Y66934D02*
D03*
D272*
Y64817D02*
D03*
D273*
X36328D02*
D03*
Y66983D02*
D03*
D274*
X187560Y5546D02*
D03*
M02*
